# Blender v3.2.2 OBJ File: ''
# www.blender.org
mtllib angled_beams.mtl
o cube
v 0.626250 0.630480 -0.030546
v 0.376250 0.630480 -0.030546
v 0.376250 0.873001 0.030147
v 0.626250 0.873001 0.030147
v 0.626250 0.531855 0.363551
v 0.626250 0.774376 0.424243
v 0.376250 0.531855 0.363551
v 0.376250 0.774376 0.424243
vt 0.375000 0.375000
vt 0.625000 0.375000
vt 0.625000 0.625000
vt 0.375000 0.625000
vt 0.625000 0.562500
vt 0.625000 0.968750
vt 0.375000 0.968750
vt 0.375000 0.562500
vt 0.375000 0.375000
vt 0.625000 0.375000
vt 0.625000 0.625000
vt 0.375000 0.625000
vt 0.375000 0.968750
vt 0.375000 0.562500
vt 0.625000 0.562500
vt 0.625000 0.968750
vt 0.375000 0.562500
vt 0.625000 0.562500
vt 0.625000 0.968750
vt 0.375000 0.968750
vt 0.625000 0.968750
vt 0.375000 0.968750
vt 0.375000 0.562500
vt 0.625000 0.562500
vn 0.0000 0.2428 -0.9701
vn 1.0000 0.0000 0.0000
vn 0.0000 -0.2428 0.9701
vn -1.0000 0.0000 0.0000
vn 0.0000 0.9701 0.2428
vn 0.0000 -0.9701 -0.2428
usemtl m_c7c6ba7c-74a4-ac21-20f5-2eb520da14c6
s 1
f 1/1/1 2/2/1 3/3/1 4/4/1
f 5/5/2 1/6/2 4/7/2 6/8/2
f 7/9/3 5/10/3 6/11/3 8/12/3
f 2/13/4 7/14/4 8/15/4 3/16/4
f 8/17/5 6/18/5 4/19/5 3/20/5
f 2/21/6 1/22/6 5/23/6 7/24/6
o cube.000
v 0.625000 0.530292 0.363551
v 0.375000 0.530292 0.363551
v 0.375000 0.772813 0.424243
v 0.625000 0.772813 0.424243
v 0.625000 0.378562 0.969854
v 0.625000 0.621083 1.030546
v 0.375000 0.378562 0.969854
v 0.375000 0.621083 1.030546
vt 0.375000 0.375000
vt 0.625000 0.375000
vt 0.625000 0.625000
vt 0.375000 0.625000
vt 0.625000 0.000000
vt 0.625000 0.625000
vt 0.375000 0.000000
vt 0.375000 0.375000
vt 0.625000 0.375000
vt 0.625000 0.625000
vt 0.375000 0.625000
vt 0.375000 0.625000
vt 0.375000 0.000000
vt 0.625000 0.000000
vt 0.375000 0.000000
vt 0.625000 0.000000
vt 0.625000 0.625000
vt 0.375000 0.625000
vt 0.625000 0.625000
vt 0.375000 0.625000
vt 0.375000 0.000000
vt 0.625000 0.000000
vn 0.0000 0.2428 -0.9701
vn 1.0000 -0.0000 0.0000
vn 0.0000 -0.2428 0.9701
vn -1.0000 0.0000 0.0000
vn 0.0000 0.9701 0.2428
vn 0.0000 -0.9701 -0.2428
usemtl m_c7c6ba7c-74a4-ac21-20f5-2eb520da14c6
s 1
f 9/25/7 10/26/7 11/27/7 12/28/7
f 13/29/8 9/30/8 12/28/8 14/31/8
f 15/32/9 13/33/9 14/34/9 16/35/9
f 10/36/10 15/37/10 16/38/10 11/27/10
f 16/39/11 14/40/11 12/41/11 11/42/11
f 10/43/12 9/44/12 13/45/12 15/46/12
