# Blender v3.2.2 OBJ File: ''
# www.blender.org
mtllib angled_beams.mtl
o halfbeam
v 0.624429 0.386367 0.000000
v 0.379117 0.386367 0.000000
v 0.379117 0.625625 0.000000
v 0.624429 0.625625 0.000000
v 0.624429 0.386367 0.181153
v 0.624429 0.625625 0.181153
v 0.379117 0.386367 0.181153
v 0.379117 0.625625 0.181153
vt 0.625000 0.625000
vt 0.375000 0.625000
vt 0.375000 0.375000
vt 0.625000 0.375000
vt 0.625000 0.687500
vt 0.625000 0.875000
vt 0.375000 0.875000
vt 0.375000 0.687500
vt 0.625000 0.687500
vt 0.375000 0.687500
vt 0.375000 0.437500
vt 0.625000 0.437500
vt 0.625000 0.000000
vt 0.625000 0.187500
vt 0.375000 0.187500
vt 0.375000 0.000000
vt 0.750000 0.812500
vt 1.000000 0.812500
vt 1.000000 1.000000
vt 0.750000 1.000000
vt 1.000000 1.000000
vt 0.750000 1.000000
vt 0.750000 0.812500
vt 1.000000 0.812500
vn 0.0000 0.0000 -1.0000
vn 1.0000 0.0000 0.0000
vn 0.0000 -0.0000 1.0000
vn -1.0000 0.0000 0.0000
vn 0.0000 1.0000 0.0000
vn 0.0000 -1.0000 -0.0000
usemtl m_c7c6ba7c-74a4-ac21-20f5-2eb520da14c6
s 1
f 1/1/1 2/2/1 3/3/1 4/4/1
f 5/5/2 1/6/2 4/7/2 6/8/2
f 7/9/3 5/10/3 6/11/3 8/12/3
f 2/13/4 7/14/4 8/15/4 3/16/4
f 8/17/5 6/18/5 4/19/5 3/20/5
f 2/21/6 1/22/6 5/23/6 7/24/6
o halfbeam.000
v 0.625211 0.387126 0.174179
v 0.375211 0.387126 0.174179
v 0.375211 0.604176 0.050125
v 0.625211 0.604176 0.050125
v 0.625211 0.891871 1.057300
v 0.625211 1.108921 0.933246
v 0.375211 0.891871 1.057300
v 0.375211 1.108921 0.933246
vt 1.000000 0.468750
vt 0.750000 0.468750
vt 0.750000 0.218750
vt 1.000000 0.218750
vt 0.625000 0.000000
vt 0.625000 1.000000
vt 0.375000 1.000000
vt 0.375000 0.000000
vt 0.625000 0.687500
vt 0.375000 0.687500
vt 0.375000 0.437500
vt 0.625000 0.437500
vt 0.625000 0.000000
vt 0.625000 1.000000
vt 0.375000 1.000000
vt 0.375000 0.000000
vt 0.750000 0.000000
vt 1.000000 0.000000
vt 1.000000 1.000000
vt 0.750000 1.000000
vt 1.000000 1.000000
vt 0.750000 1.000000
vt 0.750000 0.000000
vt 1.000000 0.000000
vn 0.0000 -0.4962 -0.8682
vn 1.0000 0.0000 0.0000
vn 0.0000 0.4962 0.8682
vn -1.0000 0.0000 0.0000
vn 0.0000 0.8682 -0.4962
vn 0.0000 -0.8682 0.4962
usemtl m_c7c6ba7c-74a4-ac21-20f5-2eb520da14c6
s 1
f 9/25/7 10/26/7 11/27/7 12/28/7
f 13/29/8 9/30/8 12/31/8 14/32/8
f 15/33/9 13/34/9 14/35/9 16/36/9
f 10/37/10 15/38/10 16/39/10 11/40/10
f 16/41/11 14/42/11 12/43/11 11/44/11
f 10/45/12 9/46/12 13/47/12 15/48/12
