# Blender v3.2.2 OBJ File: ''
# www.blender.org
mtllib banquet_couch.mtl
o rug
v 0.940625 0.059375 0.425000
v 0.940625 0.059375 -0.425000
v 0.940625 0.628125 -0.425000
v 0.940625 0.628125 0.425000
v 0.059375 0.059375 -0.425000
v 0.059375 0.059375 0.425000
v 0.059375 0.628125 0.425000
v 0.059375 0.628125 -0.425000
vt 1.000000 0.421875
vt 1.000000 0.000000
vt 0.718750 0.000000
vt 0.718750 0.421875
vt 0.000000 0.000000
vt 0.000000 0.421875
vt 0.281250 0.421875
vt 0.281250 0.000000
vn 1.0000 0.0000 0.0000
vn -1.0000 0.0000 0.0000
vn 0.0000 1.0000 0.0000
usemtl m_7d4ea0da-147f-e99b-26e8-44bbe7f87afa
s 1
f 1/1/1 2/2/1 3/3/1 4/4/1
f 5/5/2 6/6/2 7/7/2 8/8/2
f 7/7/3 4/4/3 3/3/3 8/8/3
o cube
v 0.937500 0.343750 0.968750
v 0.937500 0.343750 0.000000
v 0.937500 0.468750 0.000000
v 0.937500 0.468750 0.968750
v 0.062500 0.343750 0.968750
v 0.062500 0.468750 0.968750
v 0.062500 0.343750 0.000000
v 0.062500 0.468750 0.000000
vt 0.015625 0.687500
vt 0.500000 0.687500
vt 0.500000 0.750000
vt 0.015625 0.750000
vt 0.031250 0.687500
vt 0.468750 0.687500
vt 0.468750 0.750000
vt 0.031250 0.750000
vt 0.000000 0.687500
vt 0.484375 0.687500
vt 0.484375 0.750000
vt 0.000000 0.750000
vt 0.468750 0.015625
vt 0.031250 0.015625
vt 0.031250 0.500000
vt 0.468750 0.500000
vt 0.468750 0.015625
vt 0.031250 0.015625
vt 0.031250 0.500000
vt 0.468750 0.500000
vn 1.0000 0.0000 0.0000
vn 0.0000 0.0000 1.0000
vn -1.0000 0.0000 0.0000
vn 0.0000 1.0000 0.0000
vn 0.0000 -1.0000 -0.0000
usemtl m_990d8ad1-edbf-4b3b-d2a5-a5f4a78d54a6
s 1
f 9/9/4 10/10/4 11/11/4 12/12/4
f 13/13/5 9/14/5 12/15/5 14/16/5
f 15/17/6 13/18/6 14/19/6 16/20/6
f 14/21/7 12/22/7 11/23/7 16/24/7
f 15/25/8 10/26/8 9/27/8 13/28/8
o cube.000
v 0.843750 0.062500 0.808709
v 0.777459 0.062500 0.875000
v 0.777459 0.343750 0.875000
v 0.843750 0.343750 0.808709
v 0.910041 0.062500 0.875000
v 0.910041 0.343750 0.875000
v 0.843750 0.062500 0.941291
v 0.843750 0.343750 0.941291
vt 0.046875 0.531250
vt 0.093750 0.531250
vt 0.093750 0.671875
vt 0.046875 0.671875
vt 0.046875 0.531250
vt 0.093750 0.531250
vt 0.093750 0.671875
vt 0.046875 0.671875
vt 0.046875 0.531250
vt 0.093750 0.531250
vt 0.093750 0.671875
vt 0.046875 0.671875
vt 0.046875 0.531250
vt 0.093750 0.531250
vt 0.093750 0.671875
vt 0.046875 0.671875
vn -0.7071 0.0000 -0.7071
vn 0.7071 0.0000 -0.7071
vn 0.7071 -0.0000 0.7071
vn -0.7071 -0.0000 0.7071
usemtl m_990d8ad1-edbf-4b3b-d2a5-a5f4a78d54a6
s 1
f 17/29/9 18/30/9 19/31/9 20/32/9
f 21/33/10 17/34/10 20/35/10 22/36/10
f 23/37/11 21/38/11 22/39/11 24/40/11
f 18/41/12 23/42/12 24/43/12 19/44/12
o cube.001
v 0.156250 0.062500 0.808709
v 0.089959 0.062500 0.875000
v 0.089959 0.343750 0.875000
v 0.156250 0.343750 0.808709
v 0.222541 0.062500 0.875000
v 0.222541 0.343750 0.875000
v 0.156250 0.062500 0.941291
v 0.156250 0.343750 0.941291
vt 0.406250 0.531250
vt 0.453125 0.531250
vt 0.453125 0.671875
vt 0.406250 0.671875
vt 0.406250 0.531250
vt 0.453125 0.531250
vt 0.453125 0.671875
vt 0.406250 0.671875
vt 0.406250 0.531250
vt 0.453125 0.531250
vt 0.453125 0.671875
vt 0.406250 0.671875
vt 0.406250 0.531250
vt 0.453125 0.531250
vt 0.453125 0.671875
vt 0.406250 0.671875
vn -0.7071 0.0000 -0.7071
vn 0.7071 0.0000 -0.7071
vn 0.7071 -0.0000 0.7071
vn -0.7071 -0.0000 0.7071
usemtl m_990d8ad1-edbf-4b3b-d2a5-a5f4a78d54a6
s 1
f 25/45/13 26/46/13 27/47/13 28/48/13
f 29/49/14 25/50/14 28/51/14 30/52/14
f 31/53/15 29/54/15 30/55/15 32/56/15
f 26/57/16 31/58/16 32/59/16 27/60/16
o cube.002
v 0.937500 -0.000000 0.781250
v 0.062500 -0.000000 0.781250
v 0.062500 0.062500 0.781250
v 0.937500 0.062500 0.781250
v 0.937500 -0.000000 0.968750
v 0.937500 0.062500 0.968750
v 0.062500 -0.000000 0.968750
v 0.062500 0.062500 0.968750
vt 0.031250 0.656250
vt 0.468750 0.656250
vt 0.468750 0.687500
vt 0.031250 0.687500
vt 0.453125 0.500000
vt 0.359375 0.500000
vt 0.359375 0.531250
vt 0.453125 0.531250
vt 0.031250 0.656250
vt 0.468750 0.656250
vt 0.468750 0.687500
vt 0.031250 0.687500
vt 0.046875 0.500000
vt 0.140625 0.500000
vt 0.140625 0.531250
vt 0.046875 0.531250
vt 0.562500 0.000000
vt 1.000000 0.000000
vt 1.000000 0.093750
vt 0.562500 0.093750
vn 0.0000 0.0000 -1.0000
vn 1.0000 0.0000 0.0000
vn 0.0000 0.0000 1.0000
vn -1.0000 0.0000 0.0000
vn 0.0000 1.0000 0.0000
usemtl m_990d8ad1-edbf-4b3b-d2a5-a5f4a78d54a6
s 1
f 33/61/17 34/62/17 35/63/17 36/64/17
f 37/65/18 33/66/18 36/67/18 38/68/18
f 39/69/19 37/70/19 38/71/19 40/72/19
f 34/73/20 39/74/20 40/75/20 35/76/20
f 40/77/21 38/78/21 36/79/21 35/80/21
o cube.003
v 0.843750 0.218750 0.764515
v 0.733265 0.218750 0.875000
v 0.733265 0.281250 0.875000
v 0.843750 0.281250 0.764515
v 0.954235 0.218750 0.875000
v 0.954235 0.281250 0.875000
v 0.843750 0.218750 0.985485
v 0.843750 0.281250 0.985485
vt 0.031250 0.609375
vt 0.109375 0.609375
vt 0.109375 0.640625
vt 0.031250 0.640625
vt 0.031250 0.609375
vt 0.109375 0.609375
vt 0.109375 0.640625
vt 0.031250 0.640625
vt 0.031250 0.609375
vt 0.109375 0.609375
vt 0.109375 0.640625
vt 0.031250 0.640625
vt 0.031250 0.609375
vt 0.109375 0.609375
vt 0.109375 0.640625
vt 0.031250 0.640625
vt 1.000000 0.093750
vt 0.921875 0.093750
vt 0.921875 0.171875
vt 1.000000 0.171875
vt 1.000000 0.093750
vt 0.921875 0.093750
vt 0.921875 0.171875
vt 1.000000 0.171875
vn -0.7071 0.0000 -0.7071
vn 0.7071 0.0000 -0.7071
vn 0.7071 0.0000 0.7071
vn -0.7071 0.0000 0.7071
vn 0.0000 1.0000 0.0000
vn 0.0000 -1.0000 -0.0000
usemtl m_990d8ad1-edbf-4b3b-d2a5-a5f4a78d54a6
s 1
f 41/81/22 42/82/22 43/83/22 44/84/22
f 45/85/23 41/86/23 44/87/23 46/88/23
f 47/89/24 45/90/24 46/91/24 48/92/24
f 42/93/25 47/94/25 48/95/25 43/96/25
f 48/97/26 46/98/26 44/99/26 43/100/26
f 42/101/27 41/102/27 45/103/27 47/104/27
o cube.004
v 0.156250 0.218750 0.764515
v 0.045765 0.218750 0.875000
v 0.045765 0.281250 0.875000
v 0.156250 0.281250 0.764515
v 0.266735 0.218750 0.875000
v 0.266735 0.281250 0.875000
v 0.156250 0.218750 0.985485
v 0.156250 0.281250 0.985485
vt 0.390625 0.609375
vt 0.468750 0.609375
vt 0.468750 0.640625
vt 0.390625 0.640625
vt 0.390625 0.609375
vt 0.468750 0.609375
vt 0.468750 0.640625
vt 0.390625 0.640625
vt 0.390625 0.609375
vt 0.468750 0.609375
vt 0.468750 0.640625
vt 0.390625 0.640625
vt 0.390625 0.609375
vt 0.468750 0.609375
vt 0.468750 0.640625
vt 0.390625 0.640625
vt 1.000000 0.093750
vt 0.921875 0.093750
vt 0.921875 0.171875
vt 1.000000 0.171875
vt 1.000000 0.093750
vt 0.921875 0.093750
vt 0.921875 0.171875
vt 1.000000 0.171875
vn -0.7071 0.0000 -0.7071
vn 0.7071 0.0000 -0.7071
vn 0.7071 0.0000 0.7071
vn -0.7071 0.0000 0.7071
vn 0.0000 1.0000 0.0000
vn 0.0000 -1.0000 -0.0000
usemtl m_990d8ad1-edbf-4b3b-d2a5-a5f4a78d54a6
s 1
f 49/105/28 50/106/28 51/107/28 52/108/28
f 53/109/29 49/110/29 52/111/29 54/112/29
f 55/113/30 53/114/30 54/115/30 56/116/30
f 50/117/31 55/118/31 56/119/31 51/120/31
f 56/121/32 54/122/32 52/123/32 51/124/32
f 50/125/33 49/126/33 53/127/33 55/128/33
o cube.005
v 0.875000 0.534277 0.726355
v 0.125000 0.534277 0.726355
v 0.125000 0.675785 0.603344
v 0.875000 0.675785 0.603344
v 0.875000 0.780299 1.009371
v 0.875000 0.921807 0.886360
v 0.125000 0.780299 1.009371
v 0.125000 0.921807 0.886360
vt 0.546875 0.718750
vt 0.921875 0.718750
vt 0.921875 0.812500
vt 0.546875 0.812500
vt 0.640625 0.718750
vt 0.828125 0.718750
vt 0.828125 0.812500
vt 0.640625 0.812500
vt 0.546875 0.718750
vt 0.921875 0.718750
vt 0.921875 0.812500
vt 0.546875 0.812500
vt 0.640625 0.718750
vt 0.828125 0.718750
vt 0.828125 0.812500
vt 0.640625 0.812500
vt 0.546875 1.000000
vt 0.921875 1.000000
vt 0.921875 0.812500
vt 0.546875 0.812500
vn 0.0000 -0.6561 -0.7547
vn 1.0000 0.0000 0.0000
vn 0.0000 0.6561 0.7547
vn -1.0000 0.0000 0.0000
vn 0.0000 0.7547 -0.6561
usemtl m_990d8ad1-edbf-4b3b-d2a5-a5f4a78d54a6
s 1
f 57/129/34 58/130/34 59/131/34 60/132/34
f 61/133/35 57/134/35 60/135/35 62/136/35
f 63/137/36 61/138/36 62/139/36 64/140/36
f 58/141/37 63/142/37 64/143/37 59/144/37
f 64/145/38 62/146/38 60/147/38 59/148/38
o cube.006
v 0.906250 0.870176 1.106422
v 0.906250 0.781788 1.018033
v 0.906250 0.870176 0.929645
v 0.906250 0.958565 1.018033
v 0.093750 0.870176 1.106422
v 0.093750 0.958565 1.018033
v 0.093750 0.781788 1.018033
v 0.093750 0.870176 0.929645
vt 0.375000 0.546875
vt 0.312500 0.546875
vt 0.312500 0.609375
vt 0.375000 0.609375
vt 0.046875 0.937500
vt 0.453125 0.937500
vt 0.453125 1.000000
vt 0.046875 1.000000
vt 0.312500 0.546875
vt 0.375000 0.546875
vt 0.375000 0.609375
vt 0.312500 0.609375
vt 0.046875 0.796875
vt 0.453125 0.796875
vt 0.453125 0.859375
vt 0.046875 0.859375
vt 0.046875 0.875000
vt 0.453125 0.875000
vn 1.0000 0.0000 0.0000
vn 0.0000 0.7071 0.7071
vn -1.0000 0.0000 0.0000
vn 0.0000 0.7071 -0.7071
vn 0.0000 -0.7071 0.7071
usemtl m_990d8ad1-edbf-4b3b-d2a5-a5f4a78d54a6
s 1
f 65/149/39 66/150/39 67/151/39 68/152/39
f 69/153/40 65/154/40 68/155/40 70/156/40
f 71/157/41 69/158/41 70/159/41 72/160/41
f 70/161/42 68/162/42 67/163/42 72/164/42
f 71/165/43 66/166/43 65/154/43 69/153/43
o cube.007
v 0.909375 0.552593 0.798097
v 0.090625 0.552593 0.798097
v 0.090625 0.870176 0.929645
v 0.909375 0.870176 0.929645
v 0.909375 0.504757 0.913582
v 0.909375 0.822341 1.045130
v 0.090625 0.504757 0.913582
v 0.090625 0.822341 1.045130
vt 0.046875 0.781250
vt 0.453125 0.781250
vt 0.453125 0.953125
vt 0.046875 0.953125
vt 0.140625 0.546875
vt 0.140625 0.609375
vt 0.312500 0.609375
vt 0.312500 0.546875
vt 0.046875 0.781250
vt 0.453125 0.781250
vt 0.453125 0.953125
vt 0.046875 0.953125
vt 0.140625 0.609375
vt 0.140625 0.546875
vt 0.312500 0.546875
vt 0.312500 0.609375
vt 0.046875 0.796875
vt 0.453125 0.796875
vt 0.453125 0.859375
vt 0.046875 0.859375
vn 0.0000 0.3827 -0.9239
vn 1.0000 0.0000 0.0000
vn 0.0000 -0.3827 0.9239
vn -1.0000 0.0000 0.0000
vn 0.0000 0.9239 0.3827
usemtl m_990d8ad1-edbf-4b3b-d2a5-a5f4a78d54a6
s 1
f 73/167/44 74/168/44 75/169/44 76/170/44
f 77/171/45 73/172/45 76/173/45 78/174/45
f 79/175/46 77/176/46 78/177/46 80/178/46
f 74/179/47 79/180/47 80/181/47 75/182/47
f 80/183/48 78/184/48 76/185/48 75/186/48
o cube.008
v 0.937500 0.500000 0.781250
v 0.062500 0.500000 0.781250
v 0.062500 0.562500 0.781250
v 0.937500 0.562500 0.781250
v 0.937500 0.500000 0.968750
v 0.937500 0.562500 0.968750
v 0.062500 0.500000 0.968750
v 0.062500 0.562500 0.968750
vt 0.031250 0.687500
vt 0.468750 0.687500
vt 0.468750 0.656250
vt 0.031250 0.656250
vt 0.375000 0.687500
vt 0.468750 0.687500
vt 0.468750 0.656250
vt 0.375000 0.656250
vt 0.031250 0.687500
vt 0.468750 0.687500
vt 0.468750 0.656250
vt 0.031250 0.656250
vt 0.093750 0.687500
vt 0.187500 0.687500
vt 0.187500 0.656250
vt 0.093750 0.656250
vt 0.562500 0.000000
vt 1.000000 0.000000
vt 1.000000 0.093750
vt 0.562500 0.093750
vt 0.562500 0.000000
vt 1.000000 0.000000
vt 1.000000 0.093750
vt 0.562500 0.093750
vn 0.0000 0.0000 -1.0000
vn 1.0000 0.0000 0.0000
vn 0.0000 -0.0000 1.0000
vn -1.0000 0.0000 0.0000
vn 0.0000 1.0000 0.0000
vn 0.0000 -1.0000 0.0000
usemtl m_990d8ad1-edbf-4b3b-d2a5-a5f4a78d54a6
s 1
f 81/187/49 82/188/49 83/189/49 84/190/49
f 85/191/50 81/192/50 84/193/50 86/194/50
f 87/195/51 85/196/51 86/197/51 88/198/51
f 82/199/52 87/200/52 88/201/52 83/202/52
f 88/203/53 86/204/53 84/205/53 83/206/53
f 82/207/54 81/208/54 85/209/54 87/210/54
o cube.009
v 0.234375 0.468750 0.796875
v 0.078125 0.468750 0.796875
v 0.078125 0.500000 0.796875
v 0.234375 0.500000 0.796875
v 0.234375 0.468750 0.953125
v 0.234375 0.500000 0.953125
v 0.078125 0.468750 0.953125
v 0.078125 0.500000 0.953125
vt 0.468750 0.609375
vt 0.390625 0.609375
vt 0.390625 0.625000
vt 0.468750 0.625000
vt 0.468750 0.609375
vt 0.390625 0.609375
vt 0.390625 0.625000
vt 0.468750 0.625000
vt 0.468750 0.609375
vt 0.390625 0.609375
vt 0.390625 0.625000
vt 0.468750 0.625000
vt 0.468750 0.609375
vt 0.390625 0.609375
vt 0.390625 0.625000
vt 0.468750 0.625000
vn 0.0000 0.0000 -1.0000
vn 1.0000 0.0000 0.0000
vn 0.0000 0.0000 1.0000
vn -1.0000 0.0000 0.0000
usemtl m_990d8ad1-edbf-4b3b-d2a5-a5f4a78d54a6
s 1
f 89/211/55 90/212/55 91/213/55 92/214/55
f 93/215/56 89/216/56 92/217/56 94/218/56
f 95/219/57 93/220/57 94/221/57 96/222/57
f 90/223/58 95/224/58 96/225/58 91/226/58
o cube.010
v 0.921875 0.468750 0.796875
v 0.765625 0.468750 0.796875
v 0.765625 0.500000 0.796875
v 0.921875 0.500000 0.796875
v 0.921875 0.468750 0.953125
v 0.921875 0.500000 0.953125
v 0.765625 0.468750 0.953125
v 0.765625 0.500000 0.953125
vt 0.109375 0.609375
vt 0.031250 0.609375
vt 0.031250 0.625000
vt 0.109375 0.625000
vt 0.109375 0.609375
vt 0.031250 0.609375
vt 0.031250 0.625000
vt 0.109375 0.625000
vt 0.109375 0.609375
vt 0.031250 0.609375
vt 0.031250 0.625000
vt 0.109375 0.625000
vt 0.109375 0.609375
vt 0.031250 0.609375
vt 0.031250 0.625000
vt 0.109375 0.625000
vn 0.0000 0.0000 -1.0000
vn 1.0000 0.0000 0.0000
vn 0.0000 0.0000 1.0000
vn -1.0000 0.0000 0.0000
usemtl m_990d8ad1-edbf-4b3b-d2a5-a5f4a78d54a6
s 1
f 97/227/59 98/228/59 99/229/59 100/230/59
f 101/231/60 97/232/60 100/233/60 102/234/60
f 103/235/61 101/236/61 102/237/61 104/238/61
f 98/239/62 103/240/62 104/241/62 99/242/62
o cube.011
v 0.906250 0.468750 0.843750
v 0.906250 0.468750 0.000000
v 0.906250 0.625000 0.000000
v 0.906250 0.625000 0.843750
v 0.093750 0.468750 0.843750
v 0.093750 0.625000 0.843750
v 0.093750 0.468750 0.000000
v 0.093750 0.625000 0.000000
vt 0.609375 0.843750
vt 0.187500 0.843750
vt 0.187500 0.921875
vt 0.609375 0.921875
vt 0.187500 1.000000
vt 0.609375 1.000000
vt 0.609375 0.921875
vt 0.187500 0.921875
vt 0.046875 0.843750
vt 0.453125 0.843750
vt 0.453125 0.921875
vt 0.046875 0.921875
vt 0.906250 0.843750
vt 0.093750 0.843750
vt 0.093750 0.000000
vt 0.906250 0.000000
vn 1.0000 0.0000 0.0000
vn -1.0000 -0.0000 0.0000
vn 0.0000 -0.0000 1.0000
vn 0.0000 1.0000 0.0000
usemtl m_7d4ea0da-147f-e99b-26e8-44bbe7f87afa
s 1
f 105/243/63 106/244/63 107/245/63 108/246/63
f 111/247/64 109/248/64 110/249/64 112/250/64
usemtl m_990d8ad1-edbf-4b3b-d2a5-a5f4a78d54a6
f 109/251/65 105/252/65 108/253/65 110/254/65
usemtl m_1e98089f-0b8e-7990-c11c-d82d09f3ed3f
f 110/255/66 108/256/66 107/257/66 112/258/66
o cube.012
v 0.790625 0.521051 0.725430
v 0.209375 0.521051 0.725430
v 0.209375 0.676709 0.590118
v 0.790625 0.676709 0.590118
v 0.790625 0.779374 1.022597
v 0.790625 0.935033 0.887285
v 0.209375 0.779374 1.022597
v 0.209375 0.935033 0.887285
vt 0.546875 0.125000
vt 0.828125 0.125000
vt 0.828125 0.218750
vt 0.546875 0.218750
vt 0.593750 0.125000
vt 0.781250 0.125000
vt 0.781250 0.218750
vt 0.593750 0.218750
vt 0.546875 0.125000
vt 0.828125 0.125000
vt 0.828125 0.218750
vt 0.546875 0.218750
vt 0.593750 0.125000
vt 0.781250 0.125000
vt 0.781250 0.218750
vt 0.593750 0.218750
vt 0.546875 0.406250
vt 0.828125 0.406250
vt 0.828125 0.218750
vt 0.546875 0.218750
vn 0.0000 -0.6561 -0.7547
vn 1.0000 0.0000 0.0000
vn 0.0000 0.6561 0.7547
vn -1.0000 0.0000 0.0000
vn 0.0000 0.7547 -0.6561
usemtl m_990d8ad1-edbf-4b3b-d2a5-a5f4a78d54a6
s 1
f 113/259/67 114/260/67 115/261/67 116/262/67
f 117/263/68 113/264/68 116/265/68 118/266/68
f 119/267/69 117/268/69 118/269/69 120/270/69
f 114/271/70 119/272/70 120/273/70 115/274/70
f 120/275/71 118/276/71 116/277/71 115/278/71
