# Made in Blockbench 4.12.3
mtllib bark_box.mtl

o lid
v 0.7463525080917663 0.15625 0.840102439492877
v 0.8483950095612638 0.15625 0.5937500485067398
v 0.746352439492877 0.15625 0.34739749190823366
v 0.5000000485067398 0.15625 0.2453549904387362
v 0.25364749190823366 0.15625 0.347397560507123
v 0.1516049904387362 0.15625 0.5937499514932602
v 0.253647560507123 0.15625 0.8401025080917663
v 0.49999995149326015 0.15625 0.9421450095612638
v 0.7463525080917663 0.25 0.840102439492877
v 0.8483950095612638 0.25 0.5937500485067398
v 0.746352439492877 0.25 0.34739749190823366
v 0.5000000485067398 0.25 0.2453549904387362
v 0.25364749190823366 0.25 0.347397560507123
v 0.1516049904387362 0.25 0.5937499514932602
v 0.253647560507123 0.25 0.8401025080917663
v 0.49999995149326015 0.25 0.9421450095612638
vt 0.5 0.90625
vt 0.75 0.90625
vt 0.75 1
vt 0.5 1
vt 0.75 0.90625
vt 1 0.90625
vt 1 1
vt 0.75 1
vt 0 0.90625
vt 0.25 0.90625
vt 0.25 1
vt 0 1
vt 0.75 0.625
vt 1 0.625
vt 1 0.71875
vt 0.75 0.71875
vt 0.5 0.90625
vt 0.75 0.90625
vt 0.75 1
vt 0.5 1
vt 0.75 0.90625
vt 1 0.90625
vt 1 1
vt 0.75 1
vt 0 0.90625
vt 0.25 0.90625
vt 0.25 1
vt 0 1
vt 0.25 0.90625
vt 0.5 0.90625
vt 0.5 1
vt 0.25 1
vt 0.34684125 0.6827449999999999
vt 0.107664375 0.5836749999999999
vt 0.34684125 0.006249999999999978
vt 0.58601875 0.10532062499999995
vt 0.34684125 0.006249999999999978
vt 0.107664375 0.5836749999999999
vt 0.00859375 0.3444975
vt 0.107664375 0.10532062499999995
vt 0.68508875 0.3444975
vt 0.58601875 0.5836749999999999
vt 0.34684125 0.6827449999999999
vt 0.58601875 0.10532062499999995
vn 0.9238795325112868 0 0.38268343236508984
vn 0.9238795325112867 0 -0.3826834323650897
vn 0.38268343236508984 0 -0.9238795325112868
vn -0.3826834323650897 0 -0.9238795325112867
vn -0.9238795325112868 0 -0.38268343236508984
vn -0.9238795325112867 0 0.3826834323650897
vn -0.38268343236508984 0 0.9238795325112868
vn 0.3826834323650897 0 0.9238795325112867
vn 0 1 0
vn 0 1 0
vn 0 1 0
usemtl m_69509796-df10-45b0-8170-376723317865
f 1/1/1 2/2/1 10/3/1 9/4/1
f 2/5/2 3/6/2 11/7/2 10/8/2
f 3/9/3 4/10/3 12/11/3 11/12/3
f 4/13/4 5/14/4 13/15/4 12/16/4
f 5/17/5 6/18/5 14/19/5 13/20/5
f 6/21/6 7/22/6 15/23/6 14/24/6
f 7/25/7 8/26/7 16/27/7 15/28/7
f 8/29/8 1/30/8 9/31/8 16/32/8
f 16/33/9 9/34/9 12/35/9 13/36/9
f 12/37/10 9/38/10 10/39/10 11/40/10
f 14/41/11 15/42/11 16/43/11 13/44/11
o box
v 0.739177271576475 0 0.8329270928930042
v 0.739177271576475 0.1875 0.8329270928930042
v 0.8382476149265501 0 0.5937501263482939
v 0.8382476149265501 0.1875 0.5937501263482939
v 0.7391770928930042 0 0.35457272842352505
v 0.7391770928930042 0.1875 0.35457272842352505
v 0.5000001263482939 0 0.25550238507344997
v 0.5000001263482939 0.1875 0.25550238507344997
v 0.26082272842352505 0 0.3545729071069958
v 0.26082272842352505 0.1875 0.3545729071069958
v 0.16175238507344997 0 0.5937498736517061
v 0.16175238507344997 0.1875 0.5937498736517061
v 0.2608229071069958 0 0.832927271576475
v 0.2608229071069958 0.1875 0.832927271576475
v 0.4999998736517061 0 0.9319976149265501
v 0.4999998736517061 0.1875 0.9319976149265501
vt 0.5 0.71875
vt 0.75 0.71875
vt 0.75 0.90625
vt 0.5 0.90625
vt 0.75 0.71875
vt 1 0.71875
vt 1 0.90625
vt 0.75 0.90625
vt 0 0.71875
vt 0.25 0.71875
vt 0.25 0.90625
vt 0 0.90625
vt 0.75 0.4375
vt 1 0.4375
vt 1 0.625
vt 0.75 0.625
vt 0.5 0.71875
vt 0.75 0.71875
vt 0.75 0.90625
vt 0.5 0.90625
vt 0.75 0.71875
vt 1 0.71875
vt 1 0.90625
vt 0.75 0.90625
vt 0 0.71875
vt 0.25 0.71875
vt 0.25 0.90625
vt 0 0.90625
vt 0.25 0.71875
vt 0.5 0.71875
vt 0.5 0.90625
vt 0.25 0.90625
vt 0.34684125 0.009375000000000022
vt 0.107664375 0.5868
vt 0.34684125 0.68587
vt 0.58601875 0.10844562499999999
vt 0.00859375 0.34762249999999995
vt 0.107664375 0.5868
vt 0.34684125 0.009375000000000022
vt 0.107664375 0.10844562499999999
vt 0.34684125 0.68587
vt 0.58601875 0.5868
vt 0.68508875 0.34762249999999995
vt 0.58601875 0.10844562499999999
vn 0.9238795325112868 0 0.38268343236508984
vn 0.9238795325112867 0 -0.3826834323650897
vn 0.38268343236508984 0 -0.9238795325112868
vn -0.3826834323650897 0 -0.9238795325112867
vn -0.9238795325112868 0 -0.38268343236508984
vn -0.9238795325112867 0 0.3826834323650897
vn -0.38268343236508984 0 0.9238795325112868
vn 0.3826834323650897 0 0.9238795325112867
vn 0 -1 0
vn 0 -1 0
vn 0 -1 0
usemtl m_69509796-df10-45b0-8170-376723317865
f 17/45/12 19/46/12 20/47/12 18/48/12
f 19/49/13 21/50/13 22/51/13 20/52/13
f 21/53/14 23/54/14 24/55/14 22/56/14
f 23/57/15 25/58/15 26/59/15 24/60/15
f 25/61/16 27/62/16 28/63/16 26/64/16
f 27/65/17 29/66/17 30/67/17 28/68/17
f 29/69/18 31/70/18 32/71/18 30/72/18
f 31/73/19 17/74/19 18/75/19 32/76/19
f 23/77/20 17/78/20 31/79/20 25/80/20
f 19/81/21 17/82/21 23/83/21 21/84/21
f 31/85/22 29/86/22 27/87/22 25/88/22
o lid2
v 0.827384236193638 0.40625 0.7129080655226658
v 0.815753130629916 0.40625 0.4465119506221206
v 0.619158065522666 0.40625 0.26636576380636257
v 0.35276195062212073 0.40625 0.27799686937008466
v 0.17261576380636268 0.40625 0.4745919344773346
v 0.18424686937008478 0.40625 0.7409880493778798
v 0.3808419344773347 0.40625 0.9211342361936379
v 0.64723804937788 0.40625 0.9095031306299157
v 0.827384236193638 0.5 0.7129080655226658
v 0.815753130629916 0.5 0.4465119506221206
v 0.619158065522666 0.5 0.26636576380636257
v 0.35276195062212073 0.5 0.27799686937008466
v 0.17261576380636268 0.5 0.4745919344773346
v 0.18424686937008478 0.5 0.7409880493778798
v 0.3808419344773347 0.5 0.9211342361936379
v 0.64723804937788 0.5 0.9095031306299157
vt 0.5 0.90625
vt 0.75 0.90625
vt 0.75 1
vt 0.5 1
vt 0.75 0.90625
vt 1 0.90625
vt 1 1
vt 0.75 1
vt 0 0.90625
vt 0.25 0.90625
vt 0.25 1
vt 0 1
vt 0.75 0.625
vt 1 0.625
vt 1 0.71875
vt 0.75 0.71875
vt 0.5 0.90625
vt 0.75 0.90625
vt 0.75 1
vt 0.5 1
vt 0.75 0.90625
vt 1 0.90625
vt 1 1
vt 0.75 1
vt 0 0.90625
vt 0.25 0.90625
vt 0.25 1
vt 0 1
vt 0.25 0.90625
vt 0.5 0.90625
vt 0.5 1
vt 0.25 1
vt 0.34684125 0.6827449999999999
vt 0.107664375 0.5836749999999999
vt 0.34684125 0.006249999999999978
vt 0.58601875 0.10532062499999995
vt 0.34684125 0.006249999999999978
vt 0.107664375 0.5836749999999999
vt 0.00859375 0.3444975
vt 0.107664375 0.10532062499999995
vt 0.68508875 0.3444975
vt 0.58601875 0.5836749999999999
vt 0.34684125 0.6827449999999999
vt 0.58601875 0.10532062499999995
vn 0.9990482215818579 0 -0.043619387365336056
vn 0.6755902076156602 0 -0.7372773368101241
vn -0.043619387365336056 0 -0.9990482215818579
vn -0.7372773368101241 0 -0.6755902076156602
vn -0.9990482215818579 0 0.043619387365336056
vn -0.6755902076156602 0 0.7372773368101241
vn 0.043619387365336056 0 0.9990482215818579
vn 0.7372773368101241 0 0.6755902076156602
vn 0 1 0
vn 0 1 0
vn 0 1 0
usemtl m_69509796-df10-45b0-8170-376723317865
f 33/89/23 34/90/23 42/91/23 41/92/23
f 34/93/24 35/94/24 43/95/24 42/96/24
f 35/97/25 36/98/25 44/99/25 43/100/25
f 36/101/26 37/102/26 45/103/26 44/104/26
f 37/105/27 38/106/27 46/107/27 45/108/27
f 38/109/28 39/110/28 47/111/28 46/112/28
f 39/113/29 40/114/29 48/115/29 47/116/29
f 40/117/30 33/118/30 41/119/30 48/120/30
f 48/121/31 41/122/31 44/123/31 45/124/31
f 44/125/32 41/126/32 42/127/32 43/128/32
f 46/129/33 47/130/33 48/131/33 45/132/33
o box2
v 0.8178488309585744 0.25 0.709437379008185
v 0.8178488309585744 0.4375 0.709437379008185
v 0.8065565007516031 0.25 0.4508004954522468
v 0.8065565007516031 0.4375 0.4508004954522468
v 0.6156873790081852 0.25 0.27590116904142614
v 0.6156873790081852 0.4375 0.27590116904142614
v 0.35705049545224693 0.25 0.28719349924839743
v 0.35705049545224693 0.4375 0.28719349924839743
v 0.18215116904142625 0.25 0.4780626209918154
v 0.18215116904142625 0.4375 0.4780626209918154
v 0.19344349924839754 0.25 0.7366995045477536
v 0.19344349924839754 0.4375 0.7366995045477536
v 0.3843126209918155 0.25 0.9115988309585743
v 0.3843126209918155 0.4375 0.9115988309585743
v 0.6429495045477538 0.25 0.900306500751603
v 0.6429495045477538 0.4375 0.900306500751603
vt 0.5 0.71875
vt 0.75 0.71875
vt 0.75 0.90625
vt 0.5 0.90625
vt 0.75 0.71875
vt 1 0.71875
vt 1 0.90625
vt 0.75 0.90625
vt 0 0.71875
vt 0.25 0.71875
vt 0.25 0.90625
vt 0 0.90625
vt 0.75 0.4375
vt 1 0.4375
vt 1 0.625
vt 0.75 0.625
vt 0.5 0.71875
vt 0.75 0.71875
vt 0.75 0.90625
vt 0.5 0.90625
vt 0.75 0.71875
vt 1 0.71875
vt 1 0.90625
vt 0.75 0.90625
vt 0 0.71875
vt 0.25 0.71875
vt 0.25 0.90625
vt 0 0.90625
vt 0.25 0.71875
vt 0.5 0.71875
vt 0.5 0.90625
vt 0.25 0.90625
vt 0.34684125 0.009375000000000022
vt 0.107664375 0.5868
vt 0.34684125 0.68587
vt 0.58601875 0.10844562499999999
vt 0.00859375 0.34762249999999995
vt 0.107664375 0.5868
vt 0.34684125 0.009375000000000022
vt 0.107664375 0.10844562499999999
vt 0.34684125 0.68587
vt 0.58601875 0.5868
vt 0.68508875 0.34762249999999995
vt 0.58601875 0.10844562499999999
vn 0.9990482215818579 0 -0.043619387365336056
vn 0.6755902076156602 0 -0.7372773368101241
vn -0.043619387365336056 0 -0.9990482215818579
vn -0.7372773368101241 0 -0.6755902076156602
vn -0.9990482215818579 0 0.043619387365336056
vn -0.6755902076156602 0 0.7372773368101241
vn 0.043619387365336056 0 0.9990482215818579
vn 0.7372773368101241 0 0.6755902076156602
vn 0 -1 0
vn 0 -1 0
vn 0 -1 0
usemtl m_69509796-df10-45b0-8170-376723317865
f 49/133/34 51/134/34 52/135/34 50/136/34
f 51/137/35 53/138/35 54/139/35 52/140/35
f 53/141/36 55/142/36 56/143/36 54/144/36
f 55/145/37 57/146/37 58/147/37 56/148/37
f 57/149/38 59/150/38 60/151/38 58/152/38
f 59/153/39 61/154/39 62/155/39 60/156/39
f 61/157/40 63/158/40 64/159/40 62/160/40
f 63/161/41 49/162/41 50/163/41 64/164/41
f 55/165/42 49/166/42 63/167/42 57/168/42
f 51/169/43 49/170/43 55/171/43 53/172/43
f 63/173/44 61/174/44 59/175/44 57/176/44