# Made in Blockbench 4.12.3
mtllib bark_box.mtl

o lid
v 0.7225778887210912 0.40625 0.6962519805300207
v 0.7225778887210912 0.5 0.6962519805300207
v 0.7858962595152441 0.40625 0.44706820162758726
v 0.7858962595152441 0.5 0.44706820162758726
v 0.577219327807682 0.40625 0.2968826166960096
v 0.577219327807682 0.5 0.2968826166960096
v 0.2149221112789088 0.40625 0.42874801946998026
v 0.2149221112789088 0.5 0.42874801946998026
v 0.1516037404847559 0.40625 0.6779317983724136
v 0.1516037404847559 0.5 0.6779317983724136
v 0.36028067219231796 0.40625 0.8281173833039912
v 0.36028067219231796 0.5 0.8281173833039912
vt 0.375 0.90625
vt 0.625 0.90625
vt 0.625 1
vt 0.375 1
vt 0.625 0.90625
vt 0.875 0.90625
vt 0.875 1
vt 0.625 1
vt 0 0.625
vt 0.375 0.625
vt 0.375 0.71875
vt 0 0.71875
vt 0.375 0.90625
vt 0.625 0.90625
vt 0.625 1
vt 0.375 1
vt 0.625 0.90625
vt 0.875 0.90625
vt 0.875 1
vt 0.625 1
vt 0 0.90625
vt 0.375 0.90625
vt 0.375 1
vt 0 1
vt 0.15625 0.40625
vt 0.15625 0
vt 0.53125 0
vt 0.53125 0.40625
vt 0.015625 0.203125
vt 0.15625 0
vt 0.15625 0.40625
vt 0.53125 0
vt 0.671875 0.203125
vt 0.53125 0.40625
vn 0.9691995807039555 0 0.24627661838525594
vn 0.584146394217966 0 -0.8116483167740502
vn -0.34202014332566866 0 -0.9396926207859084
vn -0.9691995807039555 0 -0.24627661838525594
vn -0.584146394217966 0 0.8116483167740502
vn 0.34202014332566866 0 0.9396926207859084
vn 0 1 0
vn 0 1 0
vn 0 1 0
usemtl m_3a6ca2bb-91b7-4b9f-3353-eb6e18667b00
f 1/1/1 3/2/1 4/3/1 2/4/1
f 3/5/2 5/6/2 6/7/2 4/8/2
f 5/9/3 7/10/3 8/11/3 6/12/3
f 7/13/4 9/14/4 10/15/4 8/16/4
f 9/17/5 11/18/5 12/19/5 10/20/5
f 11/21/6 1/22/6 2/23/6 12/24/6
f 8/25/7 12/26/7 2/27/7 6/28/7
f 10/29/8 12/30/8 8/31/8
f 2/32/9 4/33/9 6/34/9
o box
v 0.7144152080103843 0.25 0.6892462867235752
v 0.7144152080103843 0.4375 0.6892462867235752
v 0.7770866411953762 0.25 0.4502746404712654
v 0.7770866411953762 0.4375 0.4502746404712654
v 0.5754695247843313 0.25 0.30749615952929993
v 0.5754695247843313 0.4375 0.30749615952929993
v 0.22308479198961573 0.25 0.43575371327642565
v 0.22308479198961573 0.4375 0.43575371327642565
v 0.16041335880462382 0.25 0.6747253595287355
v 0.16041335880462382 0.4375 0.6747253595287355
v 0.3620304752156686 0.25 0.8175038404707009
v 0.3620304752156686 0.4375 0.8175038404707009
vt 0.375 0.71875
vt 0.625 0.71875
vt 0.625 0.90625
vt 0.375 0.90625
vt 0.625 0.71875
vt 0.875 0.71875
vt 0.875 0.90625
vt 0.625 0.90625
vt 0 0.4375
vt 0.375 0.4375
vt 0.375 0.625
vt 0 0.625
vt 0.375 0.71875
vt 0.625 0.71875
vt 0.625 0.90625
vt 0.375 0.90625
vt 0.625 0.71875
vt 0.875 0.71875
vt 0.875 0.90625
vt 0.625 0.90625
vt 0 0.71875
vt 0.375 0.71875
vt 0.375 0.90625
vt 0 0.90625
vt 0.15625 0.40625
vt 0.015625 0.203125
vt 0.15625 0
vn 0.9672892138973951 0 0.253676125557293
vn 0.5779266568135094 0 -0.8160887080117947
vn -0.34202014332566866 0 -0.9396926207859084
vn -0.9672892138973951 0 -0.253676125557293
vn -0.5779266568135094 0 0.8160887080117947
vn 0.34202014332566866 0 0.9396926207859084
vn 0 -1 0
usemtl m_3a6ca2bb-91b7-4b9f-3353-eb6e18667b00
f 13/35/10 15/36/10 16/37/10 14/38/10
f 15/39/11 17/40/11 18/41/11 16/42/11
f 17/43/12 19/44/12 20/45/12 18/46/12
f 19/47/13 21/48/13 22/49/13 20/50/13
f 21/51/14 23/52/14 24/53/14 22/54/14
f 23/55/15 13/56/15 14/57/15 24/58/15
f 23/59/16 21/60/16 19/61/16
o lid2
v 0.5754065287243392 0.15625 0.9026366462363917
v 0.7938333447652172 0.15625 0.7496925430974234
v 0.840136646236394 0.15625 0.4870934712756608
v 0.6871925430974256 0.15625 0.26866665523478284
v 0.42459347127566305 0.15625 0.22236335376360605
v 0.20616665523478506 0.15625 0.3753074569025744
v 0.15986335376360827 0.15625 0.637906528724337
v 0.3128074569025766 0.15625 0.8563333447652149
v 0.5754065287243392 0.25 0.9026366462363917
v 0.7938333447652172 0.25 0.7496925430974234
v 0.840136646236394 0.25 0.4870934712756608
v 0.6871925430974256 0.25 0.26866665523478284
v 0.42459347127566305 0.25 0.22236335376360605
v 0.20616665523478506 0.25 0.3753074569025744
v 0.15986335376360827 0.25 0.637906528724337
v 0.3128074569025766 0.25 0.8563333447652149
vt 0.5 0.90625
vt 0.75 0.90625
vt 0.75 1
vt 0.5 1
vt 0.75 0.90625
vt 1 0.90625
vt 1 1
vt 0.75 1
vt 0 0.90625
vt 0.25 0.90625
vt 0.25 1
vt 0 1
vt 0.75 0.625
vt 1 0.625
vt 1 0.71875
vt 0.75 0.71875
vt 0.5 0.90625
vt 0.75 0.90625
vt 0.75 1
vt 0.5 1
vt 0.75 0.90625
vt 1 0.90625
vt 1 1
vt 0.75 1
vt 0 0.90625
vt 0.25 0.90625
vt 0.25 1
vt 0 1
vt 0.25 0.90625
vt 0.5 0.90625
vt 0.5 1
vt 0.25 1
vt 0.34684125 0.6827449999999999
vt 0.107664375 0.5836749999999999
vt 0.34684125 0.006249999999999978
vt 0.58601875 0.10532062499999995
vt 0.34684125 0.006249999999999978
vt 0.107664375 0.5836749999999999
vt 0.00859375 0.3444975
vt 0.107664375 0.10532062499999995
vt 0.68508875 0.3444975
vt 0.58601875 0.5836749999999999
vt 0.34684125 0.6827449999999999
vt 0.58601875 0.10532062499999995
vn 0.5735764363510462 0 0.8191520442889919
vn 0.9848077530122081 0 0.17364817766693041
vn 0.8191520442889919 0 -0.5735764363510462
vn 0.17364817766693041 0 -0.9848077530122081
vn -0.5735764363510462 0 -0.8191520442889919
vn -0.9848077530122081 0 -0.17364817766693041
vn -0.8191520442889919 0 0.5735764363510462
vn -0.17364817766693041 0 0.9848077530122081
vn 0 1 0
vn 0 1 0
vn 0 1 0
usemtl m_69509796-df10-45b0-8170-376723317865
f 25/62/17 26/63/17 34/64/17 33/65/17
f 26/66/18 27/67/18 35/68/18 34/69/18
f 27/70/19 28/71/19 36/72/19 35/73/19
f 28/74/20 29/75/20 37/76/20 36/77/20
f 29/78/21 30/79/21 38/80/21 37/81/21
f 30/82/22 31/83/22 39/84/22 38/85/22
f 31/86/23 32/87/23 40/88/23 39/89/23
f 32/90/24 25/91/24 33/92/24 40/93/24
f 40/94/25 33/95/25 36/96/25 37/97/25
f 36/98/26 33/99/26 34/100/26 35/101/26
f 38/102/27 39/103/27 40/104/27 37/105/27
o box2
v 0.5732103065435225 0 0.8927297685238545
v 0.5732103065435225 0.1875 0.8927297685238545
v 0.7852750771087755 0 0.7442404175853518
v 0.7852750771087755 0.1875 0.7442404175853518
v 0.8302297685238568 0 0.48928969345647755
v 0.8302297685238568 0.1875 0.48928969345647755
v 0.681740417585354 0 0.27722492289122447
v 0.681740417585354 0.1875 0.27722492289122447
v 0.42678969345647977 0 0.23227023147614323
v 0.42678969345647977 0.1875 0.23227023147614323
v 0.2147249228912267 0 0.380759582414646
v 0.2147249228912267 0.1875 0.380759582414646
v 0.16977023147614545 0 0.6357103065435202
v 0.16977023147614545 0.1875 0.6357103065435202
v 0.31825958241464825 0 0.8477750771087733
v 0.31825958241464825 0.1875 0.8477750771087733
vt 0.5 0.71875
vt 0.75 0.71875
vt 0.75 0.90625
vt 0.5 0.90625
vt 0.75 0.71875
vt 1 0.71875
vt 1 0.90625
vt 0.75 0.90625
vt 0 0.71875
vt 0.25 0.71875
vt 0.25 0.90625
vt 0 0.90625
vt 0.75 0.4375
vt 1 0.4375
vt 1 0.625
vt 0.75 0.625
vt 0.5 0.71875
vt 0.75 0.71875
vt 0.75 0.90625
vt 0.5 0.90625
vt 0.75 0.71875
vt 1 0.71875
vt 1 0.90625
vt 0.75 0.90625
vt 0 0.71875
vt 0.25 0.71875
vt 0.25 0.90625
vt 0 0.90625
vt 0.25 0.71875
vt 0.5 0.71875
vt 0.5 0.90625
vt 0.25 0.90625
vt 0.34684125 0.009375000000000022
vt 0.107664375 0.5868
vt 0.34684125 0.68587
vt 0.58601875 0.10844562499999999
vt 0.00859375 0.34762249999999995
vt 0.107664375 0.5868
vt 0.34684125 0.009375000000000022
vt 0.107664375 0.10844562499999999
vt 0.34684125 0.68587
vt 0.58601875 0.5868
vt 0.68508875 0.34762249999999995
vt 0.58601875 0.10844562499999999
vn 0.5735764363510462 0 0.8191520442889919
vn 0.9848077530122081 0 0.17364817766693041
vn 0.8191520442889919 0 -0.5735764363510462
vn 0.17364817766693041 0 -0.9848077530122081
vn -0.5735764363510462 0 -0.8191520442889919
vn -0.9848077530122081 0 -0.17364817766693041
vn -0.8191520442889919 0 0.5735764363510462
vn -0.17364817766693041 0 0.9848077530122081
vn 0 -1 0
vn 0 -1 0
vn 0 -1 0
usemtl m_69509796-df10-45b0-8170-376723317865
f 41/106/28 43/107/28 44/108/28 42/109/28
f 43/110/29 45/111/29 46/112/29 44/113/29
f 45/114/30 47/115/30 48/116/30 46/117/30
f 47/118/31 49/119/31 50/120/31 48/121/31
f 49/122/32 51/123/32 52/124/32 50/125/32
f 51/126/33 53/127/33 54/128/33 52/129/33
f 53/130/34 55/131/34 56/132/34 54/133/34
f 55/134/35 41/135/35 42/136/35 56/137/35
f 47/138/36 41/139/36 55/140/36 49/141/36
f 43/142/37 41/143/37 47/144/37 45/145/37
f 55/146/38 53/147/38 51/148/38 49/149/38