# Made in Blockbench 4.12.3
mtllib bark_box.mtl

o lid
v 0.46874995149326015 0.09374999999999997 0.8483950095612638
v 0.222397560507123 0.09374999999999997 0.7463525080917663
v 0.12035499043873621 0.09374999999999997 0.4999999514932601
v 0.22239749190823366 0.09374999999999997 0.253647560507123
v 0.4687500485067399 0.09375000000000003 0.1516049904387362
v 0.715102439492877 0.09375000000000003 0.2536474919082336
v 0.8171450095612638 0.09375000000000003 0.5000000485067398
v 0.7151025080917663 0.09375000000000003 0.746352439492877
v 0.46874995149326015 0 0.8483950095612638
v 0.22239756050712306 -5.551115123125783e-17 0.7463525080917663
v 0.12035499043873626 -5.551115123125783e-17 0.4999999514932601
v 0.22239749190823366 0 0.253647560507123
v 0.4687500485067399 2.7755575615628914e-17 0.1516049904387362
v 0.7151024394928771 2.7755575615628914e-17 0.2536474919082336
v 0.8171450095612638 2.7755575615628914e-17 0.5000000485067398
v 0.7151025080917663 2.7755575615628914e-17 0.746352439492877
vt 0.5 0.90625
vt 0.75 0.90625
vt 0.75 1
vt 0.5 1
vt 0.75 0.90625
vt 1 0.90625
vt 1 1
vt 0.75 1
vt 0 0.90625
vt 0.25 0.90625
vt 0.25 1
vt 0 1
vt 0.75 0.625
vt 1 0.625
vt 1 0.71875
vt 0.75 0.71875
vt 0.5 0.90625
vt 0.75 0.90625
vt 0.75 1
vt 0.5 1
vt 0.75 0.90625
vt 1 0.90625
vt 1 1
vt 0.75 1
vt 0 0.90625
vt 0.25 0.90625
vt 0.25 1
vt 0 1
vt 0.25 0.90625
vt 0.5 0.90625
vt 0.5 1
vt 0.25 1
vt 0.34684125 0.6827449999999999
vt 0.107664375 0.5836749999999999
vt 0.34684125 0.006249999999999978
vt 0.58601875 0.10532062499999995
vt 0.34684125 0.006249999999999978
vt 0.107664375 0.5836749999999999
vt 0.00859375 0.3444975
vt 0.107664375 0.10532062499999995
vt 0.68508875 0.3444975
vt 0.58601875 0.5836749999999999
vt 0.34684125 0.6827449999999999
vt 0.58601875 0.10532062499999995
vn -0.38268343236508984 -8.659560562354933e-17 0.9238795325112868
vn -0.9238795325112867 -1.224646799147353e-16 0.3826834323650897
vn -0.9238795325112868 -8.659560562354933e-17 -0.38268343236508984
vn -0.3826834323650897 6.162975822039155e-33 -0.9238795325112867
vn 0.38268343236508984 8.659560562354933e-17 -0.9238795325112868
vn 0.9238795325112867 1.224646799147353e-16 -0.3826834323650897
vn 0.9238795325112868 8.659560562354933e-17 0.38268343236508984
vn 0.3826834323650897 -6.162975822039155e-33 0.9238795325112867
vn 1.1314261122877003e-16 -1 -4.6865204053262974e-17
vn 1.1314261122877003e-16 -1 -4.6865204053262974e-17
vn 1.1314261122877003e-16 -1 -4.6865204053262974e-17
usemtl m_69509796-df10-45b0-8170-376723317865
f 1/1/1 2/2/1 10/3/1 9/4/1
f 2/5/2 3/6/2 11/7/2 10/8/2
f 3/9/3 4/10/3 12/11/3 11/12/3
f 4/13/4 5/14/4 13/15/4 12/16/4
f 5/17/5 6/18/5 14/19/5 13/20/5
f 6/21/6 7/22/6 15/23/6 14/24/6
f 7/25/7 8/26/7 16/27/7 15/28/7
f 8/29/8 1/30/8 9/31/8 16/32/8
f 16/33/9 9/34/9 12/35/9 13/36/9
f 12/37/10 9/38/10 10/39/10 11/40/10
f 14/41/11 15/42/11 16/43/11 13/44/11
o box
v 0.707927271576475 0 0.7391770928930042
v 0.707927271576475 0.1875 0.7391770928930042
v 0.8069976149265501 0 0.5000001263482939
v 0.8069976149265501 0.1875 0.5000001263482939
v 0.7079270928930042 0 0.26082272842352505
v 0.7079270928930042 0.1875 0.26082272842352505
v 0.4687501263482939 0 0.16175238507344997
v 0.4687501263482939 0.1875 0.16175238507344997
v 0.22957272842352505 0 0.2608229071069958
v 0.22957272842352505 0.1875 0.2608229071069958
v 0.13050238507344997 0 0.4999998736517061
v 0.13050238507344997 0.1875 0.4999998736517061
v 0.2295729071069958 0 0.739177271576475
v 0.2295729071069958 0.1875 0.739177271576475
v 0.4687498736517061 0 0.8382476149265501
v 0.4687498736517061 0.1875 0.8382476149265501
v 0.707927271576475 0.00625 0.7391770928930042
v 0.707927271576475 0.1875 0.7391770928930042
v 0.8069976149265501 0.00625 0.5000001263482939
v 0.8069976149265501 0.1875 0.5000001263482939
v 0.7079270928930042 0.00625 0.26082272842352505
v 0.7079270928930042 0.1875 0.26082272842352505
v 0.4687501263482939 0.00625 0.16175238507344997
v 0.4687501263482939 0.1875 0.16175238507344997
v 0.22957272842352505 0.00625 0.2608229071069958
v 0.22957272842352505 0.1875 0.2608229071069958
v 0.13050238507344997 0.00625 0.4999998736517061
v 0.13050238507344997 0.1875 0.4999998736517061
v 0.2295729071069958 0.00625 0.739177271576475
v 0.2295729071069958 0.1875 0.739177271576475
v 0.4687498736517061 0.00625 0.8382476149265501
v 0.4687498736517061 0.1875 0.8382476149265501
vt 0.5 0.71875
vt 0.75 0.71875
vt 0.75 0.90625
vt 0.5 0.90625
vt 0.75 0.71875
vt 1 0.71875
vt 1 0.90625
vt 0.75 0.90625
vt 0 0.71875
vt 0.25 0.71875
vt 0.25 0.90625
vt 0 0.90625
vt 0.75 0.4375
vt 1 0.4375
vt 1 0.625
vt 0.75 0.625
vt 0.5 0.71875
vt 0.75 0.71875
vt 0.75 0.90625
vt 0.5 0.90625
vt 0.75 0.71875
vt 1 0.71875
vt 1 0.90625
vt 0.75 0.90625
vt 0 0.71875
vt 0.25 0.71875
vt 0.25 0.90625
vt 0 0.90625
vt 0.25 0.71875
vt 0.5 0.71875
vt 0.5 0.90625
vt 0.25 0.90625
vt 0.34684125 0.009375000000000022
vt 0.107664375 0.5868
vt 0.34684125 0.68587
vt 0.58601875 0.10844562499999999
vt 0.00859375 0.34762249999999995
vt 0.107664375 0.5868
vt 0.34684125 0.009375000000000022
vt 0.107664375 0.10844562499999999
vt 0.34684125 0.68587
vt 0.58601875 0.5868
vt 0.68508875 0.34762249999999995
vt 0.58601875 0.10844562499999999
vt 0.75 0.90625
vt 0.75 0.71875
vt 0.5 0.71875
vt 0.5 0.90625
vt 1 0.90625
vt 1 0.71875
vt 0.75 0.71875
vt 0.75 0.90625
vt 0.25 0.90625
vt 0.25 0.71875
vt 0 0.71875
vt 0 0.90625
vt 1 0.625
vt 1 0.4375
vt 0.75 0.4375
vt 0.75 0.625
vt 0.75 0.90625
vt 0.75 0.71875
vt 0.5 0.71875
vt 0.5 0.90625
vt 1 0.90625
vt 1 0.71875
vt 0.75 0.71875
vt 0.75 0.90625
vt 0.25 0.90625
vt 0.25 0.71875
vt 0 0.71875
vt 0 0.90625
vt 0.5 0.90625
vt 0.5 0.71875
vt 0.25 0.71875
vt 0.25 0.90625
vt 0.34684125 0.68587
vt 0.107664375 0.5868
vt 0.34684125 0.009375000000000022
vt 0.58601875 0.10844562499999999
vt 0.34684125 0.009375000000000022
vt 0.107664375 0.5868
vt 0.00859375 0.34762249999999995
vt 0.107664375 0.10844562499999999
vt 0.68508875 0.34762249999999995
vt 0.58601875 0.5868
vt 0.34684125 0.68587
vt 0.58601875 0.10844562499999999
vn 0.9238795325112868 0 0.38268343236508984
vn 0.9238795325112867 0 -0.3826834323650897
vn 0.38268343236508984 0 -0.9238795325112868
vn -0.3826834323650897 0 -0.9238795325112867
vn -0.9238795325112868 0 -0.38268343236508984
vn -0.9238795325112867 0 0.3826834323650897
vn -0.38268343236508984 0 0.9238795325112868
vn 0.3826834323650897 0 0.9238795325112867
vn 0 -1 0
vn 0 -1 0
vn 0 -1 0
vn -0.9238795325112867 0 -0.3826834323650898
vn -0.9238795325112867 0 0.3826834323650897
vn -0.3826834323650898 0 0.9238795325112867
vn 0.3826834323650897 0 0.9238795325112867
vn 0.9238795325112867 0 0.3826834323650898
vn 0.9238795325112867 0 -0.3826834323650897
vn 0.3826834323650898 0 -0.9238795325112867
vn -0.3826834323650897 0 -0.9238795325112867
vn 0 1 0
vn 0 1 0
vn 0 1 0
usemtl m_69509796-df10-45b0-8170-376723317865
f 17/45/12 19/46/12 20/47/12 18/48/12
f 19/49/13 21/50/13 22/51/13 20/52/13
f 21/53/14 23/54/14 24/55/14 22/56/14
f 23/57/15 25/58/15 26/59/15 24/60/15
f 25/61/16 27/62/16 28/63/16 26/64/16
f 27/65/17 29/66/17 30/67/17 28/68/17
f 29/69/18 31/70/18 32/71/18 30/72/18
f 31/73/19 17/74/19 18/75/19 32/76/19
f 23/77/20 17/78/20 31/79/20 25/80/20
f 19/81/21 17/82/21 23/83/21 21/84/21
f 31/85/22 29/86/22 27/87/22 25/88/22
f 36/89/23 35/90/23 33/91/23 34/92/23
f 38/93/24 37/94/24 35/95/24 36/96/24
f 40/97/25 39/98/25 37/99/25 38/100/25
f 42/101/26 41/102/26 39/103/26 40/104/26
f 44/105/27 43/106/27 41/107/27 42/108/27
f 46/109/28 45/110/28 43/111/28 44/112/28
f 48/113/29 47/114/29 45/115/29 46/116/29
f 34/117/30 33/118/30 47/119/30 48/120/30
f 47/121/31 33/122/31 39/123/31 41/124/31
f 39/125/32 33/126/32 35/127/32 37/128/32
f 43/129/33 45/130/33 47/131/33 41/132/33