# Made in Blockbench 4.12.3
mtllib bark_box.mtl

o lid
v 0.8088525080917663 0.15625 0.777602439492877
v 0.9108950095612638 0.15625 0.5312500485067398
v 0.808852439492877 0.15625 0.28489749190823366
v 0.5625000485067398 0.15625 0.1828549904387362
v 0.31614749190823366 0.15625 0.284897560507123
v 0.2141049904387362 0.15625 0.5312499514932602
v 0.316147560507123 0.15625 0.7776025080917663
v 0.5624999514932602 0.15625 0.8796450095612638
v 0.8088525080917663 0.25 0.777602439492877
v 0.9108950095612638 0.25 0.5312500485067398
v 0.808852439492877 0.25 0.28489749190823366
v 0.5625000485067398 0.25 0.1828549904387362
v 0.31614749190823366 0.25 0.284897560507123
v 0.2141049904387362 0.25 0.5312499514932602
v 0.316147560507123 0.25 0.7776025080917663
v 0.5624999514932602 0.25 0.8796450095612638
vt 0.5 0.90625
vt 0.75 0.90625
vt 0.75 1
vt 0.5 1
vt 0.75 0.90625
vt 1 0.90625
vt 1 1
vt 0.75 1
vt 0 0.90625
vt 0.25 0.90625
vt 0.25 1
vt 0 1
vt 0.75 0.625
vt 1 0.625
vt 1 0.71875
vt 0.75 0.71875
vt 0.5 0.90625
vt 0.75 0.90625
vt 0.75 1
vt 0.5 1
vt 0.75 0.90625
vt 1 0.90625
vt 1 1
vt 0.75 1
vt 0 0.90625
vt 0.25 0.90625
vt 0.25 1
vt 0 1
vt 0.25 0.90625
vt 0.5 0.90625
vt 0.5 1
vt 0.25 1
vt 0.34684125 0.6827449999999999
vt 0.107664375 0.5836749999999999
vt 0.34684125 0.006249999999999978
vt 0.58601875 0.10532062499999995
vt 0.34684125 0.006249999999999978
vt 0.107664375 0.5836749999999999
vt 0.00859375 0.3444975
vt 0.107664375 0.10532062499999995
vt 0.68508875 0.3444975
vt 0.58601875 0.5836749999999999
vt 0.34684125 0.6827449999999999
vt 0.58601875 0.10532062499999995
vn 0.9238795325112868 0 0.38268343236508984
vn 0.9238795325112867 0 -0.3826834323650897
vn 0.38268343236508984 0 -0.9238795325112868
vn -0.3826834323650897 0 -0.9238795325112867
vn -0.9238795325112868 0 -0.38268343236508984
vn -0.9238795325112867 0 0.3826834323650897
vn -0.38268343236508984 0 0.9238795325112868
vn 0.3826834323650897 0 0.9238795325112867
vn 0 1 0
vn 0 1 0
vn 0 1 0
usemtl m_69509796-df10-45b0-8170-376723317865
f 1/1/1 2/2/1 10/3/1 9/4/1
f 2/5/2 3/6/2 11/7/2 10/8/2
f 3/9/3 4/10/3 12/11/3 11/12/3
f 4/13/4 5/14/4 13/15/4 12/16/4
f 5/17/5 6/18/5 14/19/5 13/20/5
f 6/21/6 7/22/6 15/23/6 14/24/6
f 7/25/7 8/26/7 16/27/7 15/28/7
f 8/29/8 1/30/8 9/31/8 16/32/8
f 16/33/9 9/34/9 12/35/9 13/36/9
f 12/37/10 9/38/10 10/39/10 11/40/10
f 14/41/11 15/42/11 16/43/11 13/44/11
o box
v 0.801677271576475 0 0.7704270928930042
v 0.801677271576475 0.1875 0.7704270928930042
v 0.9007476149265501 0 0.5312501263482939
v 0.9007476149265501 0.1875 0.5312501263482939
v 0.8016770928930042 0 0.29207272842352505
v 0.8016770928930042 0.1875 0.29207272842352505
v 0.5625001263482939 0 0.19300238507344997
v 0.5625001263482939 0.1875 0.19300238507344997
v 0.32332272842352505 0 0.2920729071069958
v 0.32332272842352505 0.1875 0.2920729071069958
v 0.22425238507344997 0 0.5312498736517061
v 0.22425238507344997 0.1875 0.5312498736517061
v 0.3233229071069958 0 0.770427271576475
v 0.3233229071069958 0.1875 0.770427271576475
v 0.5624998736517061 0 0.8694976149265501
v 0.5624998736517061 0.1875 0.8694976149265501
vt 0.5 0.71875
vt 0.75 0.71875
vt 0.75 0.90625
vt 0.5 0.90625
vt 0.75 0.71875
vt 1 0.71875
vt 1 0.90625
vt 0.75 0.90625
vt 0 0.71875
vt 0.25 0.71875
vt 0.25 0.90625
vt 0 0.90625
vt 0.75 0.4375
vt 1 0.4375
vt 1 0.625
vt 0.75 0.625
vt 0.5 0.71875
vt 0.75 0.71875
vt 0.75 0.90625
vt 0.5 0.90625
vt 0.75 0.71875
vt 1 0.71875
vt 1 0.90625
vt 0.75 0.90625
vt 0 0.71875
vt 0.25 0.71875
vt 0.25 0.90625
vt 0 0.90625
vt 0.25 0.71875
vt 0.5 0.71875
vt 0.5 0.90625
vt 0.25 0.90625
vt 0.34684125 0.009375000000000022
vt 0.107664375 0.5868
vt 0.34684125 0.68587
vt 0.58601875 0.10844562499999999
vt 0.00859375 0.34762249999999995
vt 0.107664375 0.5868
vt 0.34684125 0.009375000000000022
vt 0.107664375 0.10844562499999999
vt 0.34684125 0.68587
vt 0.58601875 0.5868
vt 0.68508875 0.34762249999999995
vt 0.58601875 0.10844562499999999
vn 0.9238795325112868 0 0.38268343236508984
vn 0.9238795325112867 0 -0.3826834323650897
vn 0.38268343236508984 0 -0.9238795325112868
vn -0.3826834323650897 0 -0.9238795325112867
vn -0.9238795325112868 0 -0.38268343236508984
vn -0.9238795325112867 0 0.3826834323650897
vn -0.38268343236508984 0 0.9238795325112868
vn 0.3826834323650897 0 0.9238795325112867
vn 0 -1 0
vn 0 -1 0
vn 0 -1 0
usemtl m_69509796-df10-45b0-8170-376723317865
f 17/45/12 19/46/12 20/47/12 18/48/12
f 19/49/13 21/50/13 22/51/13 20/52/13
f 21/53/14 23/54/14 24/55/14 22/56/14
f 23/57/15 25/58/15 26/59/15 24/60/15
f 25/61/16 27/62/16 28/63/16 26/64/16
f 27/65/17 29/66/17 30/67/17 28/68/17
f 29/69/18 31/70/18 32/71/18 30/72/18
f 31/73/19 17/74/19 18/75/19 32/76/19
f 23/77/20 17/78/20 31/79/20 25/80/20
f 19/81/21 17/82/21 23/83/21 21/84/21
f 31/85/22 29/86/22 27/87/22 25/88/22
o lid2
v 0.8898842361936377 0.40625 0.6504080655226652
v 0.8782531306299155 0.40625 0.38401195062211996
v 0.6816580655226656 0.40625 0.2038657638063619
v 0.4152619506221204 0.40625 0.215496869370084
v 0.23511576380636234 0.40625 0.41209193447733394
v 0.24674686937008444 0.40625 0.6784880493778791
v 0.4433419344773344 0.40625 0.8586342361936372
v 0.7097380493778795 0.40625 0.8470031306299151
v 0.8898842361936377 0.5 0.6504080655226652
v 0.8782531306299155 0.5 0.38401195062211996
v 0.6816580655226656 0.5 0.2038657638063619
v 0.4152619506221204 0.5 0.215496869370084
v 0.23511576380636234 0.5 0.41209193447733394
v 0.24674686937008444 0.5 0.6784880493778791
v 0.4433419344773344 0.5 0.8586342361936372
v 0.7097380493778795 0.5 0.8470031306299151
vt 0.5 0.90625
vt 0.75 0.90625
vt 0.75 1
vt 0.5 1
vt 0.75 0.90625
vt 1 0.90625
vt 1 1
vt 0.75 1
vt 0 0.90625
vt 0.25 0.90625
vt 0.25 1
vt 0 1
vt 0.75 0.625
vt 1 0.625
vt 1 0.71875
vt 0.75 0.71875
vt 0.5 0.90625
vt 0.75 0.90625
vt 0.75 1
vt 0.5 1
vt 0.75 0.90625
vt 1 0.90625
vt 1 1
vt 0.75 1
vt 0 0.90625
vt 0.25 0.90625
vt 0.25 1
vt 0 1
vt 0.25 0.90625
vt 0.5 0.90625
vt 0.5 1
vt 0.25 1
vt 0.34684125 0.6827449999999999
vt 0.107664375 0.5836749999999999
vt 0.34684125 0.006249999999999978
vt 0.58601875 0.10532062499999995
vt 0.34684125 0.006249999999999978
vt 0.107664375 0.5836749999999999
vt 0.00859375 0.3444975
vt 0.107664375 0.10532062499999995
vt 0.68508875 0.3444975
vt 0.58601875 0.5836749999999999
vt 0.34684125 0.6827449999999999
vt 0.58601875 0.10532062499999995
vn 0.9990482215818579 0 -0.043619387365336056
vn 0.6755902076156602 0 -0.7372773368101241
vn -0.043619387365336056 0 -0.9990482215818579
vn -0.7372773368101241 0 -0.6755902076156602
vn -0.9990482215818579 0 0.043619387365336056
vn -0.6755902076156602 0 0.7372773368101241
vn 0.043619387365336056 0 0.9990482215818579
vn 0.7372773368101241 0 0.6755902076156602
vn 0 1 0
vn 0 1 0
vn 0 1 0
usemtl m_69509796-df10-45b0-8170-376723317865
f 33/89/23 34/90/23 42/91/23 41/92/23
f 34/93/24 35/94/24 43/95/24 42/96/24
f 35/97/25 36/98/25 44/99/25 43/100/25
f 36/101/26 37/102/26 45/103/26 44/104/26
f 37/105/27 38/106/27 46/107/27 45/108/27
f 38/109/28 39/110/28 47/111/28 46/112/28
f 39/113/29 40/114/29 48/115/29 47/116/29
f 40/117/30 33/118/30 41/119/30 48/120/30
f 48/121/31 41/122/31 44/123/31 45/124/31
f 44/125/32 41/126/32 42/127/32 43/128/32
f 46/129/33 47/130/33 48/131/33 45/132/33
o box2
v 0.8803488309585741 0.25 0.6469373790081844
v 0.8803488309585741 0.4375 0.6469373790081844
v 0.8690565007516028 0.25 0.38830049545224615
v 0.8690565007516028 0.4375 0.38830049545224615
v 0.6781873790081848 0.25 0.21340116904142548
v 0.6781873790081848 0.4375 0.21340116904142548
v 0.4195504954522466 0.25 0.22469349924839677
v 0.4195504954522466 0.4375 0.22469349924839677
v 0.24465116904142592 0.25 0.41556262099181474
v 0.24465116904142592 0.4375 0.41556262099181474
v 0.2559434992483972 0.25 0.6741995045477529
v 0.2559434992483972 0.4375 0.6741995045477529
v 0.4468126209918152 0.25 0.8490988309585736
v 0.4468126209918152 0.4375 0.8490988309585736
v 0.7054495045477533 0.25 0.8378065007516023
v 0.7054495045477533 0.4375 0.8378065007516023
vt 0.5 0.71875
vt 0.75 0.71875
vt 0.75 0.90625
vt 0.5 0.90625
vt 0.75 0.71875
vt 1 0.71875
vt 1 0.90625
vt 0.75 0.90625
vt 0 0.71875
vt 0.25 0.71875
vt 0.25 0.90625
vt 0 0.90625
vt 0.75 0.4375
vt 1 0.4375
vt 1 0.625
vt 0.75 0.625
vt 0.5 0.71875
vt 0.75 0.71875
vt 0.75 0.90625
vt 0.5 0.90625
vt 0.75 0.71875
vt 1 0.71875
vt 1 0.90625
vt 0.75 0.90625
vt 0 0.71875
vt 0.25 0.71875
vt 0.25 0.90625
vt 0 0.90625
vt 0.25 0.71875
vt 0.5 0.71875
vt 0.5 0.90625
vt 0.25 0.90625
vt 0.34684125 0.009375000000000022
vt 0.107664375 0.5868
vt 0.34684125 0.68587
vt 0.58601875 0.10844562499999999
vt 0.00859375 0.34762249999999995
vt 0.107664375 0.5868
vt 0.34684125 0.009375000000000022
vt 0.107664375 0.10844562499999999
vt 0.34684125 0.68587
vt 0.58601875 0.5868
vt 0.68508875 0.34762249999999995
vt 0.58601875 0.10844562499999999
vn 0.9990482215818579 0 -0.043619387365336056
vn 0.6755902076156602 0 -0.7372773368101241
vn -0.043619387365336056 0 -0.9990482215818579
vn -0.7372773368101241 0 -0.6755902076156602
vn -0.9990482215818579 0 0.043619387365336056
vn -0.6755902076156602 0 0.7372773368101241
vn 0.043619387365336056 0 0.9990482215818579
vn 0.7372773368101241 0 0.6755902076156602
vn 0 -1 0
vn 0 -1 0
vn 0 -1 0
usemtl m_69509796-df10-45b0-8170-376723317865
f 49/133/34 51/134/34 52/135/34 50/136/34
f 51/137/35 53/138/35 54/139/35 52/140/35
f 53/141/36 55/142/36 56/143/36 54/144/36
f 55/145/37 57/146/37 58/147/37 56/148/37
f 57/149/38 59/150/38 60/151/38 58/152/38
f 59/153/39 61/154/39 62/155/39 60/156/39
f 61/157/40 63/158/40 64/159/40 62/160/40
f 63/161/41 49/162/41 50/163/41 64/164/41
f 55/165/42 49/166/42 63/167/42 57/168/42
f 51/169/43 49/170/43 55/171/43 53/172/43
f 63/173/44 61/174/44 59/175/44 57/176/44
o lid3
v 0.6841954095564253 0.65625 0.7739965573060251
v 0.6841954095564253 0.75 0.7739965573060251
v 0.8636226166416211 0.65625 0.5898562599625894
v 0.8636226166416211 0.75 0.5898562599625894
v 0.7579958850648707 0.65625 0.3554532622758368
v 0.7579958850648707 0.75 0.3554532622758368
v 0.37830459044357645 0.65625 0.28850344269397576
v 0.37830459044357645 0.75 0.28850344269397576
v 0.19887738335838068 0.65625 0.47264374003741144
v 0.19887738335838068 0.75 0.47264374003741144
v 0.3045041149351311 0.65625 0.707046737724164
v 0.3045041149351311 0.75 0.707046737724164
vt 0.375 0.90625
vt 0.625 0.90625
vt 0.625 1
vt 0.375 1
vt 0.625 0.90625
vt 0.875 0.90625
vt 0.875 1
vt 0.625 1
vt 0 0.625
vt 0.375 0.625
vt 0.375 0.71875
vt 0 0.71875
vt 0.375 0.90625
vt 0.625 0.90625
vt 0.625 1
vt 0.375 1
vt 0.625 0.90625
vt 0.875 0.90625
vt 0.875 1
vt 0.625 1
vt 0 0.90625
vt 0.375 0.90625
vt 0.375 1
vt 0 1
vt 0.15625 0.40625
vt 0.15625 0
vt 0.53125 0
vt 0.53125 0.40625
vt 0.015625 0.203125
vt 0.15625 0
vt 0.15625 0.40625
vt 0.53125 0
vt 0.671875 0.203125
vt 0.53125 0.40625
vn 0.7162131490342237 0 0.697881598231735
vn 0.9117097753088629 0 -0.4108348641562238
vn 0.17364817766693033 0 -0.984807753012208
vn -0.7162131490342237 0 -0.697881598231735
vn -0.9117097753088629 0 0.4108348641562238
vn -0.17364817766693033 0 0.984807753012208
vn 0 1 0
vn 0 1 0
vn 0 1 0
usemtl m_3a6ca2bb-91b7-4b9f-3353-eb6e18667b00
f 65/177/45 67/178/45 68/179/45 66/180/45
f 67/181/46 69/182/46 70/183/46 68/184/46
f 69/185/47 71/186/47 72/187/47 70/188/47
f 71/189/48 73/190/48 74/191/48 72/192/48
f 73/193/49 75/194/49 76/195/49 74/196/49
f 75/197/50 65/198/50 66/199/50 76/200/50
f 72/201/51 76/202/51 66/203/51 70/204/51
f 74/205/52 76/206/52 72/207/52
f 66/208/53 68/209/53 70/210/53
o box3
v 0.6806291676011946 0.5 0.7638481081431546
v 0.6806291676011946 0.6875 0.7638481081431546
v 0.8543900439571317 0.5 0.5882283082969619
v 0.8543900439571317 0.6875 0.5882283082969619
v 0.7511737397783851 0.5 0.36376995848194515
v 0.7511737397783851 0.6875 0.36376995848194515
v 0.38187083239880715 0.5 0.29865189185684626
v 0.38187083239880715 0.6875 0.29865189185684626
v 0.20810995604287014 0.5 0.47427169170303896
v 0.20810995604287014 0.6875 0.47427169170303896
v 0.3113262602216167 0.5 0.6987300415180557
v 0.3113262602216167 0.6875 0.6987300415180557
vt 0.375 0.71875
vt 0.625 0.71875
vt 0.625 0.90625
vt 0.375 0.90625
vt 0.625 0.71875
vt 0.875 0.71875
vt 0.875 0.90625
vt 0.625 0.90625
vt 0 0.4375
vt 0.375 0.4375
vt 0.375 0.625
vt 0 0.625
vt 0.375 0.71875
vt 0.625 0.71875
vt 0.625 0.90625
vt 0.375 0.90625
vt 0.625 0.71875
vt 0.875 0.71875
vt 0.875 0.90625
vt 0.625 0.90625
vt 0 0.71875
vt 0.375 0.71875
vt 0.375 0.90625
vt 0 0.90625
vt 0.15625 0.40625
vt 0.015625 0.203125
vt 0.15625 0
vn 0.7108589692631774 0 0.7033345760149242
vn 0.9085435203306074 0 -0.4177902244730808
vn 0.17364817766693033 0 -0.984807753012208
vn -0.7108589692631774 0 -0.7033345760149242
vn -0.9085435203306074 0 0.4177902244730808
vn -0.17364817766693033 0 0.984807753012208
vn 0 -1 0
usemtl m_3a6ca2bb-91b7-4b9f-3353-eb6e18667b00
f 77/211/54 79/212/54 80/213/54 78/214/54
f 79/215/55 81/216/55 82/217/55 80/218/55
f 81/219/56 83/220/56 84/221/56 82/222/56
f 83/223/57 85/224/57 86/225/57 84/226/57
f 85/227/58 87/228/58 88/229/58 86/230/58
f 87/231/59 77/232/59 78/233/59 88/234/59
f 87/235/60 85/236/60 83/237/60