# Made in Blockbench 4.12.3
mtllib bark_box.mtl

o box
v 0.7698350656627969 0.25 0.527707686810434
v 0.7698350656627969 0.4375 0.527707686810434
v 0.8922214348363305 0.25 0.31309936243665876
v 0.8922214348363305 0.4375 0.31309936243665876
v 0.7344280451715608 0.25 0.12300359071066236
v 0.7344280451715608 0.4375 0.12300359071066236
v 0.3608550333871562 0.25 0.15568699424103416
v 0.3608550333871562 0.4375 0.15568699424103416
v 0.23846866421362256 0.25 0.3702953186148094
v 0.23846866421362256 0.4375 0.3702953186148094
v 0.3962620538783923 0.25 0.5603910903408058
v 0.3962620538783923 0.4375 0.5603910903408058
v 0.7698350656627969 0.25625 0.527707686810434
v 0.7698350656627969 0.4375 0.527707686810434
v 0.8922214348363305 0.25625 0.31309936243665876
v 0.8922214348363305 0.4375 0.31309936243665876
v 0.7344280451715608 0.25625 0.12300359071066236
v 0.7344280451715608 0.4375 0.12300359071066236
v 0.3608550333871562 0.25625 0.15568699424103416
v 0.3608550333871562 0.4375 0.15568699424103416
v 0.23846866421362256 0.25625 0.3702953186148094
v 0.23846866421362256 0.4375 0.3702953186148094
v 0.3962620538783923 0.25625 0.5603910903408058
v 0.3962620538783923 0.4375 0.5603910903408058
vt 0.375 0.71875
vt 0.625 0.71875
vt 0.625 0.90625
vt 0.375 0.90625
vt 0.625 0.71875
vt 0.875 0.71875
vt 0.875 0.90625
vt 0.625 0.90625
vt 0 0.4375
vt 0.375 0.4375
vt 0.375 0.625
vt 0 0.625
vt 0.375 0.71875
vt 0.625 0.71875
vt 0.625 0.90625
vt 0.375 0.90625
vt 0.625 0.71875
vt 0.875 0.71875
vt 0.875 0.90625
vt 0.625 0.90625
vt 0 0.71875
vt 0.375 0.71875
vt 0.375 0.90625
vt 0 0.90625
vt 0.53125 0
vt 0.671875 0.203125
vt 0.53125 0.40625
vt 0.625 0.90625
vt 0.625 0.71875
vt 0.375 0.71875
vt 0.375 0.90625
vt 0.875 0.90625
vt 0.875 0.71875
vt 0.625 0.71875
vt 0.625 0.90625
vt 0.375 0.625
vt 0.375 0.4375
vt 0 0.4375
vt 0 0.625
vt 0.625 0.90625
vt 0.625 0.71875
vt 0.375 0.71875
vt 0.375 0.90625
vt 0.875 0.90625
vt 0.875 0.71875
vt 0.625 0.71875
vt 0.625 0.90625
vt 0.375 0.90625
vt 0.375 0.71875
vt 0 0.71875
vt 0 0.90625
vt 0.671875 0.203125
vt 0.53125 0
vt 0.53125 0.40625
vt 0.015625 0.203125
vt 0.15625 0.40625
vt 0.15625 0
vt 0.15625 0
vt 0.15625 0.40625
vt 0.53125 0.40625
vt 0.53125 0
vt 0.53125 0.40625
vt 0.15625 0.40625
vt 0.15625 0
vt 0.53125 0
vn 0.8686734206122989 0 0.4953851918676295
vn 0.7694535836436304 0 -0.6387027341557063
vn -0.08715574274765814 0 -0.9961946980917455
vn -0.8686734206122989 0 -0.4953851918676295
vn -0.7694535836436304 0 0.6387027341557063
vn 0.08715574274765814 0 0.9961946980917455
vn 0 -1 0
vn -0.8686734206122989 0 -0.4953851918676295
vn -0.7694535836436304 0 0.6387027341557063
vn 0.08715574274765814 0 0.9961946980917455
vn 0.8686734206122989 0 0.4953851918676295
vn 0.7694535836436304 0 -0.6387027341557063
vn -0.08715574274765814 0 -0.9961946980917455
vn 0 1 0
vn 0 1 0
vn 0 1 0
vn 0 -1 0
usemtl m_3a6ca2bb-91b7-4b9f-3353-eb6e18667b00
f 1/1/1 3/2/1 4/3/1 2/4/1
f 3/5/2 5/6/2 6/7/2 4/8/2
f 5/9/3 7/10/3 8/11/3 6/12/3
f 7/13/4 9/14/4 10/15/4 8/16/4
f 9/17/5 11/18/5 12/19/5 10/20/5
f 11/21/6 1/22/6 2/23/6 12/24/6
f 5/25/7 3/26/7 1/27/7
f 16/28/8 15/29/8 13/30/8 14/31/8
f 18/32/9 17/33/9 15/34/9 16/35/9
f 20/36/10 19/37/10 17/38/10 18/39/10
f 22/40/11 21/41/11 19/42/11 20/43/11
f 24/44/12 23/45/12 21/46/12 22/47/12
f 14/48/13 13/49/13 23/50/13 24/51/13
f 15/52/14 17/53/14 13/54/14
f 21/55/15 23/56/15 19/57/15
f 19/58/16 23/59/16 13/60/16 17/61/16
f 1/62/17 11/63/17 7/64/17 5/65/17
o lid
v 0.8119095328309918 0.00009936423561671126 0.7077266224012645
v 0.8409697377578147 0.03971982627380727 0.7875688792424345
v 0.917191592910672 0.1926897689809048 0.5738371322478273
v 0.9462517978374949 0.23231023101909537 0.6536793890889973
v 0.7504783504886372 0.38528017372619294 0.5389458360652459
v 0.7795385554154601 0.42490063576438347 0.6187880929064158
v 0.388181133959864 0.38528017372619294 0.6708112388392165
v 0.4172413388866869 0.42490063576438347 0.7506534956803864
v 0.28289907388018376 0.1926897689809048 0.8047007289926537
v 0.3119592788070067 0.23231023101909537 0.8845429858338236
v 0.44961231630221854 0.00009936423561671126 0.8395920251752351
v 0.47867252122904147 0.03971982627380727 0.9194342820164051
v 0.8119095328309918 0.00009936423561671126 0.7077266224012645
v 0.8409697377578147 0.03971982627380727 0.7875688792424345
v 0.917191592910672 0.1926897689809048 0.5738371322478273
v 0.9462517978374949 0.23231023101909537 0.6536793890889973
v 0.7504783504886372 0.38528017372619294 0.5389458360652459
v 0.7795385554154601 0.42490063576438347 0.6187880929064158
v 0.388181133959864 0.38528017372619294 0.6708112388392165
v 0.4172413388866869 0.42490063576438347 0.7506534956803864
v 0.28289907388018376 0.1926897689809048 0.8047007289926537
v 0.3119592788070067 0.23231023101909537 0.8845429858338236
v 0.44961231630221854 0.00009936423561671126 0.8395920251752351
v 0.47867252122904147 0.03971982627380727 0.9194342820164051
vt 0.375 0.90625
vt 0.625 0.90625
vt 0.625 1
vt 0.375 1
vt 0.625 0.90625
vt 0.875 0.90625
vt 0.875 1
vt 0.625 1
vt 0 0.625
vt 0.375 0.625
vt 0.375 0.71875
vt 0 0.71875
vt 0.375 0.90625
vt 0.625 0.90625
vt 0.625 1
vt 0.375 1
vt 0.625 0.90625
vt 0.875 0.90625
vt 0.875 1
vt 0.625 1
vt 0 0.90625
vt 0.375 0.90625
vt 0.375 1
vt 0 1
vt 0.15625 0.40625
vt 0.15625 0
vt 0.53125 0
vt 0.53125 0.40625
vt 0.015625 0.203125
vt 0.15625 0
vt 0.15625 0.40625
vt 0.53125 0
vt 0.671875 0.203125
vt 0.53125 0.40625
vt 0.625 1
vt 0.625 0.90625
vt 0.375 0.90625
vt 0.375 1
vt 0.875 1
vt 0.875 0.90625
vt 0.625 0.90625
vt 0.625 1
vt 0.375 0.71875
vt 0.375 0.625
vt 0 0.625
vt 0 0.71875
vt 0.625 1
vt 0.625 0.90625
vt 0.375 0.90625
vt 0.375 1
vt 0.875 1
vt 0.875 0.90625
vt 0.625 0.90625
vt 0.625 1
vt 0.375 1
vt 0.375 0.90625
vt 0 0.90625
vt 0 1
vt 0.53125 0
vt 0.15625 0
vt 0.15625 0.40625
vt 0.53125 0.40625
vt 0.15625 0
vt 0.015625 0.203125
vt 0.15625 0.40625
vt 0.671875 0.203125
vt 0.53125 0
vt 0.53125 0.40625
vn 0.8580382416361738 -0.5101698074596078 -0.05913665061981313
vn 0.6953077332857476 0.5101698074596078 -0.5062350477689811
vn -0.1445439584525989 0.90630778703665 -0.3971312619671027
vn -0.8580382416361738 0.5101698074596078 0.05913665061981313
vn -0.6953077332857476 -0.5101698074596078 0.5062350477689811
vn 0.1445439584525989 -0.90630778703665 0.3971312619671027
vn 0.30997551921944466 0.4226182617406993 0.8516507396391466
vn 0.30997551921944466 0.4226182617406993 0.8516507396391466
vn 0.30997551921944466 0.4226182617406993 0.8516507396391466
vn -0.8580382416361738 0.5101698074596078 0.05913665061981313
vn -0.6953077332857476 -0.5101698074596078 0.5062350477689811
vn 0.1445439584525989 -0.90630778703665 0.3971312619671027
vn 0.8580382416361738 -0.5101698074596078 -0.05913665061981313
vn 0.6953077332857476 0.5101698074596078 -0.5062350477689811
vn -0.1445439584525989 0.90630778703665 -0.3971312619671027
vn -0.30997551921944466 -0.4226182617406993 -0.8516507396391466
vn -0.30997551921944466 -0.4226182617406993 -0.8516507396391466
vn -0.30997551921944466 -0.4226182617406993 -0.8516507396391466
usemtl m_3a6ca2bb-91b7-4b9f-3353-eb6e18667b00
f 25/66/18 27/67/18 28/68/18 26/69/18
f 27/70/19 29/71/19 30/72/19 28/73/19
f 29/74/20 31/75/20 32/76/20 30/77/20
f 31/78/21 33/79/21 34/80/21 32/81/21
f 33/82/22 35/83/22 36/84/22 34/85/22
f 35/86/23 25/87/23 26/88/23 36/89/23
f 32/90/24 36/91/24 26/92/24 30/93/24
f 34/94/25 36/95/25 32/96/25
f 26/97/26 28/98/26 30/99/26
f 40/100/27 39/101/27 37/102/27 38/103/27
f 42/104/28 41/105/28 39/106/28 40/107/28
f 44/108/29 43/109/29 41/110/29 42/111/29
f 46/112/30 45/113/30 43/114/30 44/115/30
f 48/116/31 47/117/31 45/118/31 46/119/31
f 38/120/32 37/121/32 47/122/32 48/123/32
f 38/124/33 48/125/33 44/126/33 42/127/33
f 48/128/34 46/129/34 44/130/34
f 40/131/35 38/132/35 42/133/35
o lid2
v 0.836687335910293 0.15625 0.5898769432221425
v 0.871492132865066 0.15625 0.32550826361036245
v 0.7091658455977092 0.15625 0.11396052736443274
v 0.4447971659859292 0.15625 0.07915573040965979
v 0.23324942973999951 0.15625 0.24148201767701655
v 0.19844463278522656 0.15625 0.5058506972887965
v 0.3607709200525833 0.15625 0.7173984335347262
v 0.6251395996643633 0.15625 0.7522032304894992
v 0.836687335910293 0.25 0.5898769432221425
v 0.871492132865066 0.25 0.32550826361036245
v 0.7091658455977092 0.25 0.11396052736443274
v 0.4447971659859292 0.25 0.07915573040965979
v 0.23324942973999951 0.25 0.24148201767701655
v 0.19844463278522656 0.25 0.5058506972887965
v 0.3607709200525833 0.25 0.7173984335347262
v 0.6251395996643633 0.25 0.7522032304894992
vt 0.5 0.90625
vt 0.75 0.90625
vt 0.75 1
vt 0.5 1
vt 0.75 0.90625
vt 1 0.90625
vt 1 1
vt 0.75 1
vt 0 0.90625
vt 0.25 0.90625
vt 0.25 1
vt 0 1
vt 0.75 0.625
vt 1 0.625
vt 1 0.71875
vt 0.75 0.71875
vt 0.5 0.90625
vt 0.75 0.90625
vt 0.75 1
vt 0.5 1
vt 0.75 0.90625
vt 1 0.90625
vt 1 1
vt 0.75 1
vt 0 0.90625
vt 0.25 0.90625
vt 0.25 1
vt 0 1
vt 0.25 0.90625
vt 0.5 0.90625
vt 0.5 1
vt 0.25 1
vt 0.34684125 0.6827449999999999
vt 0.107664375 0.5836749999999999
vt 0.34684125 0.006249999999999978
vt 0.58601875 0.10532062499999995
vt 0.34684125 0.006249999999999978
vt 0.107664375 0.5836749999999999
vt 0.00859375 0.3444975
vt 0.107664375 0.10532062499999995
vt 0.68508875 0.3444975
vt 0.58601875 0.5836749999999999
vt 0.34684125 0.6827449999999999
vt 0.58601875 0.10532062499999995
vn 0.9914448613738105 0 0.13052619222005177
vn 0.7933533402912353 0 -0.6087614290087205
vn 0.13052619222005177 0 -0.9914448613738105
vn -0.6087614290087205 0 -0.7933533402912353
vn -0.9914448613738105 0 -0.13052619222005177
vn -0.7933533402912353 0 0.6087614290087205
vn -0.13052619222005177 0 0.9914448613738105
vn 0.6087614290087205 0 0.7933533402912353
vn 0 1 0
vn 0 1 0
vn 0 1 0
usemtl m_69509796-df10-45b0-8170-376723317865
f 49/134/36 50/135/36 58/136/36 57/137/36
f 50/138/37 51/139/37 59/140/37 58/141/37
f 51/142/38 52/143/38 60/144/38 59/145/38
f 52/146/39 53/147/39 61/148/39 60/149/39
f 53/150/40 54/151/40 62/152/40 61/153/40
f 54/154/41 55/155/41 63/156/41 62/157/41
f 55/158/42 56/159/42 64/160/42 63/161/42
f 56/162/43 49/163/43 57/164/43 64/165/43
f 64/166/44 57/167/44 60/168/44 61/169/44
f 60/170/45 57/171/45 58/172/45 59/173/45
f 62/174/46 63/175/46 64/176/46 61/177/46
o box2
v 0.827899473295182 0 0.5848031784920223
v 0.827899473295182 0.1875 0.5848031784920223
v 0.8616905224647254 0 0.32813467778916483
v 0.8616905224647254 0.1875 0.32813467778916483
v 0.7040920808675891 0 0.12274838997954374
v 0.7040920808675891 0.1875 0.12274838997954374
v 0.4474235801647316 0 0.08895734081000028
v 0.4474235801647316 0.1875 0.08895734081000028
v 0.2420372923551105 0 0.24655578240713663
v 0.2420372923551105 0.1875 0.24655578240713663
v 0.20824624318556706 0 0.5032242831099941
v 0.20824624318556706 0.1875 0.5032242831099941
v 0.3658446847827034 0 0.7086105709196152
v 0.3658446847827034 0.1875 0.7086105709196152
v 0.6225131854855609 0 0.7424016200891587
v 0.6225131854855609 0.1875 0.7424016200891587
vt 0.5 0.71875
vt 0.75 0.71875
vt 0.75 0.90625
vt 0.5 0.90625
vt 0.75 0.71875
vt 1 0.71875
vt 1 0.90625
vt 0.75 0.90625
vt 0 0.71875
vt 0.25 0.71875
vt 0.25 0.90625
vt 0 0.90625
vt 0.75 0.4375
vt 1 0.4375
vt 1 0.625
vt 0.75 0.625
vt 0.5 0.71875
vt 0.75 0.71875
vt 0.75 0.90625
vt 0.5 0.90625
vt 0.75 0.71875
vt 1 0.71875
vt 1 0.90625
vt 0.75 0.90625
vt 0 0.71875
vt 0.25 0.71875
vt 0.25 0.90625
vt 0 0.90625
vt 0.25 0.71875
vt 0.5 0.71875
vt 0.5 0.90625
vt 0.25 0.90625
vt 0.34684125 0.009375000000000022
vt 0.107664375 0.5868
vt 0.34684125 0.68587
vt 0.58601875 0.10844562499999999
vt 0.00859375 0.34762249999999995
vt 0.107664375 0.5868
vt 0.34684125 0.009375000000000022
vt 0.107664375 0.10844562499999999
vt 0.34684125 0.68587
vt 0.58601875 0.5868
vt 0.68508875 0.34762249999999995
vt 0.58601875 0.10844562499999999
vn 0.9914448613738105 0 0.13052619222005177
vn 0.7933533402912353 0 -0.6087614290087205
vn 0.13052619222005177 0 -0.9914448613738105
vn -0.6087614290087205 0 -0.7933533402912353
vn -0.9914448613738105 0 -0.13052619222005177
vn -0.7933533402912353 0 0.6087614290087205
vn -0.13052619222005177 0 0.9914448613738105
vn 0.6087614290087205 0 0.7933533402912353
vn 0 -1 0
vn 0 -1 0
vn 0 -1 0
usemtl m_69509796-df10-45b0-8170-376723317865
f 65/178/47 67/179/47 68/180/47 66/181/47
f 67/182/48 69/183/48 70/184/48 68/185/48
f 69/186/49 71/187/49 72/188/49 70/189/49
f 71/190/50 73/191/50 74/192/50 72/193/50
f 73/194/51 75/195/51 76/196/51 74/197/51
f 75/198/52 77/199/52 78/200/52 76/201/52
f 77/202/53 79/203/53 80/204/53 78/205/53
f 79/206/54 65/207/54 66/208/54 80/209/54
f 71/210/55 65/211/55 79/212/55 73/213/55
f 67/214/56 65/215/56 71/216/56 69/217/56
f 79/218/57 77/219/57 75/220/57 73/221/57