# Made in Blockbench 4.12.3
mtllib bark_box.mtl

o lid
v 0.7225778887210912 0.40625 0.7587519805300202
v 0.7225778887210912 0.5 0.7587519805300202
v 0.7858962595152441 0.40625 0.5095682016275869
v 0.7858962595152441 0.5 0.5095682016275869
v 0.577219327807682 0.40625 0.3593826166960092
v 0.577219327807682 0.5 0.3593826166960092
v 0.21492211127890876 0.40625 0.4912480194699798
v 0.21492211127890876 0.5 0.4912480194699798
v 0.15160374048475583 0.40625 0.7404317983724131
v 0.15160374048475583 0.5 0.7404317983724131
v 0.3602806721923179 0.40625 0.8906173833039908
v 0.3602806721923179 0.5 0.8906173833039908
vt 0.375 0.90625
vt 0.625 0.90625
vt 0.625 1
vt 0.375 1
vt 0.625 0.90625
vt 0.875 0.90625
vt 0.875 1
vt 0.625 1
vt 0 0.625
vt 0.375 0.625
vt 0.375 0.71875
vt 0 0.71875
vt 0.375 0.90625
vt 0.625 0.90625
vt 0.625 1
vt 0.375 1
vt 0.625 0.90625
vt 0.875 0.90625
vt 0.875 1
vt 0.625 1
vt 0 0.90625
vt 0.375 0.90625
vt 0.375 1
vt 0 1
vt 0.15625 0.40625
vt 0.15625 0
vt 0.53125 0
vt 0.53125 0.40625
vt 0.015625 0.203125
vt 0.15625 0
vt 0.15625 0.40625
vt 0.53125 0
vt 0.671875 0.203125
vt 0.53125 0.40625
vn 0.9691995807039555 0 0.24627661838525594
vn 0.584146394217966 0 -0.8116483167740502
vn -0.34202014332566866 0 -0.9396926207859084
vn -0.9691995807039555 0 -0.24627661838525594
vn -0.584146394217966 0 0.8116483167740502
vn 0.34202014332566866 0 0.9396926207859084
vn 0 1 0
vn 0 1 0
vn 0 1 0
usemtl m_3a6ca2bb-91b7-4b9f-3353-eb6e18667b00
f 1/1/1 3/2/1 4/3/1 2/4/1
f 3/5/2 5/6/2 6/7/2 4/8/2
f 5/9/3 7/10/3 8/11/3 6/12/3
f 7/13/4 9/14/4 10/15/4 8/16/4
f 9/17/5 11/18/5 12/19/5 10/20/5
f 11/21/6 1/22/6 2/23/6 12/24/6
f 8/25/7 12/26/7 2/27/7 6/28/7
f 10/29/8 12/30/8 8/31/8
f 2/32/9 4/33/9 6/34/9
o box
v 0.7144152080103843 0.25 0.7517462867235748
v 0.7144152080103843 0.4375 0.7517462867235748
v 0.7770866411953761 0.25 0.512774640471265
v 0.7770866411953761 0.4375 0.512774640471265
v 0.5754695247843313 0.25 0.3699961595292995
v 0.5754695247843313 0.4375 0.3699961595292995
v 0.22308479198961567 0.25 0.4982537132764252
v 0.22308479198961567 0.4375 0.4982537132764252
v 0.16041335880462376 0.25 0.737225359528735
v 0.16041335880462376 0.4375 0.737225359528735
v 0.36203047521566856 0.25 0.8800038404707005
v 0.36203047521566856 0.4375 0.8800038404707005
vt 0.375 0.71875
vt 0.625 0.71875
vt 0.625 0.90625
vt 0.375 0.90625
vt 0.625 0.71875
vt 0.875 0.71875
vt 0.875 0.90625
vt 0.625 0.90625
vt 0 0.4375
vt 0.375 0.4375
vt 0.375 0.625
vt 0 0.625
vt 0.375 0.71875
vt 0.625 0.71875
vt 0.625 0.90625
vt 0.375 0.90625
vt 0.625 0.71875
vt 0.875 0.71875
vt 0.875 0.90625
vt 0.625 0.90625
vt 0 0.71875
vt 0.375 0.71875
vt 0.375 0.90625
vt 0 0.90625
vt 0.53125 0
vt 0.671875 0.203125
vt 0.53125 0.40625
vt 0.15625 0.40625
vt 0.015625 0.203125
vt 0.15625 0
vt 0.53125 0.40625
vt 0.15625 0.40625
vt 0.15625 0
vt 0.53125 0
vn 0.9672892138973951 0 0.253676125557293
vn 0.5779266568135094 0 -0.8160887080117947
vn -0.34202014332566866 0 -0.9396926207859084
vn -0.9672892138973951 0 -0.253676125557293
vn -0.5779266568135094 0 0.8160887080117947
vn 0.34202014332566866 0 0.9396926207859084
vn 0 -1 0
vn 0 -1 0
vn 0 -1 0
usemtl m_3a6ca2bb-91b7-4b9f-3353-eb6e18667b00
f 13/35/10 15/36/10 16/37/10 14/38/10
f 15/39/11 17/40/11 18/41/11 16/42/11
f 17/43/12 19/44/12 20/45/12 18/46/12
f 19/47/13 21/48/13 22/49/13 20/50/13
f 21/51/14 23/52/14 24/53/14 22/54/14
f 23/55/15 13/56/15 14/57/15 24/58/15
f 17/59/16 15/60/16 13/61/16
f 23/62/17 21/63/17 19/64/17
f 13/65/18 23/66/18 19/67/18 17/68/18
o lid2
v 0.6927743224299066 0.15625 0.8531249999999999
v 0.6927743224299066 0.25 0.8531249999999999
v 0.8375 0.15625 0.640625
v 0.8375 0.25 0.640625
v 0.6927743224299066 0.15625 0.42812500000000003
v 0.6927743224299066 0.25 0.42812500000000003
v 0.30722567757009345 0.15625 0.42812500000000003
v 0.30722567757009345 0.25 0.42812500000000003
v 0.16249999999999998 0.15625 0.640625
v 0.16249999999999998 0.25 0.640625
v 0.30722567757009345 0.15625 0.8531249999999999
v 0.30722567757009345 0.25 0.8531249999999999
vt 0.375 0.90625
vt 0.625 0.90625
vt 0.625 1
vt 0.375 1
vt 0.625 0.90625
vt 0.875 0.90625
vt 0.875 1
vt 0.625 1
vt 0 0.625
vt 0.375 0.625
vt 0.375 0.71875
vt 0 0.71875
vt 0.375 0.90625
vt 0.625 0.90625
vt 0.625 1
vt 0.375 1
vt 0.625 0.90625
vt 0.875 0.90625
vt 0.875 1
vt 0.625 1
vt 0 0.90625
vt 0.375 0.90625
vt 0.375 1
vt 0 1
vt 0.15625 0.40625
vt 0.15625 0
vt 0.53125 0
vt 0.53125 0.40625
vt 0.015625 0.203125
vt 0.15625 0
vt 0.15625 0.40625
vt 0.53125 0
vt 0.671875 0.203125
vt 0.53125 0.40625
vn 0.8265181297384173 0 0.5629101004722771
vn 0.8265181297384173 0 -0.5629101004722771
vn 0 0 -1
vn -0.8265181297384173 0 -0.5629101004722771
vn -0.8265181297384173 0 0.5629101004722771
vn 0 0 1
vn 0 1 0
vn 0 1 0
vn 0 1 0
usemtl m_3a6ca2bb-91b7-4b9f-3353-eb6e18667b00
f 25/69/19 27/70/19 28/71/19 26/72/19
f 27/73/20 29/74/20 30/75/20 28/76/20
f 29/77/21 31/78/21 32/79/21 30/80/21
f 31/81/22 33/82/22 34/83/22 32/84/22
f 33/85/23 35/86/23 36/87/23 34/88/23
f 35/89/24 25/90/24 26/91/24 36/92/24
f 32/93/25 36/94/25 26/95/25 30/96/25
f 34/97/26 36/98/26 32/99/26
f 26/100/27 28/101/27 30/102/27
o box2
v 0.6875 0 0.84375
v 0.6875 0.1875 0.84375
v 0.828125 0 0.640625
v 0.828125 0.1875 0.640625
v 0.6875 0 0.4375
v 0.6875 0.1875 0.4375
v 0.3125 0 0.4375
v 0.3125 0.1875 0.4375
v 0.171875 0 0.640625
v 0.171875 0.1875 0.640625
v 0.3125 0 0.84375
v 0.3125 0.1875 0.84375
vt 0.375 0.71875
vt 0.625 0.71875
vt 0.625 0.90625
vt 0.375 0.90625
vt 0.625 0.71875
vt 0.875 0.71875
vt 0.875 0.90625
vt 0.625 0.90625
vt 0 0.4375
vt 0.375 0.4375
vt 0.375 0.625
vt 0 0.625
vt 0.375 0.71875
vt 0.625 0.71875
vt 0.625 0.90625
vt 0.375 0.90625
vt 0.625 0.71875
vt 0.875 0.71875
vt 0.875 0.90625
vt 0.625 0.90625
vt 0 0.71875
vt 0.375 0.71875
vt 0.375 0.90625
vt 0 0.90625
vt 0.53125 0
vt 0.671875 0.203125
vt 0.53125 0.40625
vt 0.15625 0.40625
vt 0.015625 0.203125
vt 0.15625 0
vt 0.53125 0.40625
vt 0.15625 0.40625
vt 0.15625 0
vt 0.53125 0
vn 0.8221921916437787 0 0.5692099788303083
vn 0.8221921916437787 0 -0.5692099788303083
vn 0 0 -1
vn -0.8221921916437787 0 -0.5692099788303083
vn -0.8221921916437787 0 0.5692099788303083
vn 0 0 1
vn 0 -1 0
vn 0 -1 0
vn 0 -1 0
usemtl m_3a6ca2bb-91b7-4b9f-3353-eb6e18667b00
f 37/103/28 39/104/28 40/105/28 38/106/28
f 39/107/29 41/108/29 42/109/29 40/110/29
f 41/111/30 43/112/30 44/113/30 42/114/30
f 43/115/31 45/116/31 46/117/31 44/118/31
f 45/119/32 47/120/32 48/121/32 46/122/32
f 47/123/33 37/124/33 38/125/33 48/126/33
f 41/127/34 39/128/34 37/129/34
f 47/130/35 45/131/35 43/132/35
f 37/133/36 47/134/36 43/135/36 41/136/36