# Made in Blockbench 4.12.3
mtllib bark_box.mtl

o box
v 0.6875 0 0.75
v 0.6875 0.1875 0.75
v 0.828125 0 0.546875
v 0.828125 0.1875 0.546875
v 0.6875 0 0.34375
v 0.6875 0.1875 0.34375
v 0.3125 0 0.34375
v 0.3125 0.1875 0.34375
v 0.171875 0 0.546875
v 0.171875 0.1875 0.546875
v 0.3125 0 0.75
v 0.3125 0.1875 0.75
vt 0.375 0.71875
vt 0.625 0.71875
vt 0.625 0.90625
vt 0.375 0.90625
vt 0.625 0.71875
vt 0.875 0.71875
vt 0.875 0.90625
vt 0.625 0.90625
vt 0 0.4375
vt 0.375 0.4375
vt 0.375 0.625
vt 0 0.625
vt 0.375 0.71875
vt 0.625 0.71875
vt 0.625 0.90625
vt 0.375 0.90625
vt 0.625 0.71875
vt 0.875 0.71875
vt 0.875 0.90625
vt 0.625 0.90625
vt 0 0.71875
vt 0.375 0.71875
vt 0.375 0.90625
vt 0 0.90625
vt 0.53125 0
vt 0.671875 0.203125
vt 0.53125 0.40625
vt 0.15625 0.40625
vt 0.015625 0.203125
vt 0.15625 0
vt 0.53125 0.40625
vt 0.15625 0.40625
vt 0.15625 0
vt 0.53125 0
vn 0.8221921916437787 0 0.5692099788303083
vn 0.8221921916437787 0 -0.5692099788303083
vn 0 0 -1
vn -0.8221921916437787 0 -0.5692099788303083
vn -0.8221921916437787 0 0.5692099788303083
vn 0 0 1
vn 0 -1 0
vn 0 -1 0
vn 0 -1 0
usemtl m_3a6ca2bb-91b7-4b9f-3353-eb6e18667b00
f 1/1/1 3/2/1 4/3/1 2/4/1
f 3/5/2 5/6/2 6/7/2 4/8/2
f 5/9/3 7/10/3 8/11/3 6/12/3
f 7/13/4 9/14/4 10/15/4 8/16/4
f 9/17/5 11/18/5 12/19/5 10/20/5
f 11/21/6 1/22/6 2/23/6 12/24/6
f 5/25/7 3/26/7 1/27/7
f 11/28/8 9/29/8 7/30/8
f 1/31/9 11/32/9 7/33/9 5/34/9
o lid
v 0.6927743224299066 0.15625 0.7593749999999999
v 0.6927743224299066 0.25 0.7593749999999999
v 0.8375 0.15625 0.546875
v 0.8375 0.25 0.546875
v 0.6927743224299066 0.15625 0.33437500000000003
v 0.6927743224299066 0.25 0.33437500000000003
v 0.30722567757009345 0.15625 0.33437500000000003
v 0.30722567757009345 0.25 0.33437500000000003
v 0.16249999999999998 0.15625 0.546875
v 0.16249999999999998 0.25 0.546875
v 0.30722567757009345 0.15625 0.7593749999999999
v 0.30722567757009345 0.25 0.7593749999999999
vt 0.375 0.90625
vt 0.625 0.90625
vt 0.625 1
vt 0.375 1
vt 0.625 0.90625
vt 0.875 0.90625
vt 0.875 1
vt 0.625 1
vt 0 0.625
vt 0.375 0.625
vt 0.375 0.71875
vt 0 0.71875
vt 0.375 0.90625
vt 0.625 0.90625
vt 0.625 1
vt 0.375 1
vt 0.625 0.90625
vt 0.875 0.90625
vt 0.875 1
vt 0.625 1
vt 0 0.90625
vt 0.375 0.90625
vt 0.375 1
vt 0 1
vt 0.15625 0.40625
vt 0.15625 0
vt 0.53125 0
vt 0.53125 0.40625
vt 0.015625 0.203125
vt 0.15625 0
vt 0.15625 0.40625
vt 0.53125 0
vt 0.671875 0.203125
vt 0.53125 0.40625
vn 0.8265181297384173 0 0.5629101004722771
vn 0.8265181297384173 0 -0.5629101004722771
vn 0 0 -1
vn -0.8265181297384173 0 -0.5629101004722771
vn -0.8265181297384173 0 0.5629101004722771
vn 0 0 1
vn 0 1 0
vn 0 1 0
vn 0 1 0
usemtl m_3a6ca2bb-91b7-4b9f-3353-eb6e18667b00
f 13/35/10 15/36/10 16/37/10 14/38/10
f 15/39/11 17/40/11 18/41/11 16/42/11
f 17/43/12 19/44/12 20/45/12 18/46/12
f 19/47/13 21/48/13 22/49/13 20/50/13
f 21/51/14 23/52/14 24/53/14 22/54/14
f 23/55/15 13/56/15 14/57/15 24/58/15
f 20/59/16 24/60/16 14/61/16 18/62/16
f 22/63/17 24/64/17 20/65/17
f 14/66/18 16/67/18 18/68/18