# Made in Blockbench 4.12.3
mtllib bark_box.mtl

o lid
v 0.6288278887210912 0 0.4306269805300202
v 0.6288278887210912 0.09375 0.4306269805300202
v 0.6921462595152441 0 0.18144320162758681
v 0.6921462595152441 0.09375 0.18144320162758681
v 0.48346932780768204 0 0.03125761669600918
v 0.48346932780768204 0.09375 0.03125761669600918
v 0.12117211127890881 0 0.1631230194699798
v 0.12117211127890881 0.09375 0.1631230194699798
v 0.05785374048475589 0 0.4123067983724132
v 0.05785374048475589 0.09375 0.4123067983724132
v 0.26653067219231796 0 0.5624923833039908
v 0.26653067219231796 0.09375 0.5624923833039908
vt 0.375 0.90625
vt 0.625 0.90625
vt 0.625 1
vt 0.375 1
vt 0.625 0.90625
vt 0.875 0.90625
vt 0.875 1
vt 0.625 1
vt 0 0.625
vt 0.375 0.625
vt 0.375 0.71875
vt 0 0.71875
vt 0.375 0.90625
vt 0.625 0.90625
vt 0.625 1
vt 0.375 1
vt 0.625 0.90625
vt 0.875 0.90625
vt 0.875 1
vt 0.625 1
vt 0 0.90625
vt 0.375 0.90625
vt 0.375 1
vt 0 1
vt 0.15625 0.40625
vt 0.15625 0
vt 0.53125 0
vt 0.53125 0.40625
vt 0.015625 0.203125
vt 0.15625 0
vt 0.15625 0.40625
vt 0.53125 0
vt 0.671875 0.203125
vt 0.53125 0.40625
vn 0.9691995807039555 0 0.24627661838525594
vn 0.584146394217966 0 -0.8116483167740502
vn -0.34202014332566866 0 -0.9396926207859084
vn -0.9691995807039555 0 -0.24627661838525594
vn -0.584146394217966 0 0.8116483167740502
vn 0.34202014332566866 0 0.9396926207859084
vn 0 1 0
vn 0 1 0
vn 0 1 0
usemtl m_3a6ca2bb-91b7-4b9f-3353-eb6e18667b00
f 1/1/1 3/2/1 4/3/1 2/4/1
f 3/5/2 5/6/2 6/7/2 4/8/2
f 5/9/3 7/10/3 8/11/3 6/12/3
f 7/13/4 9/14/4 10/15/4 8/16/4
f 9/17/5 11/18/5 12/19/5 10/20/5
f 11/21/6 1/22/6 2/23/6 12/24/6
f 8/25/7 12/26/7 2/27/7 6/28/7
f 10/29/8 12/30/8 8/31/8
f 2/32/9 4/33/9 6/34/9
o box
v 0.8125 0 0.9375
v 0.8125 0.1875 0.9375
v 0.953125 0 0.734375
v 0.953125 0.1875 0.734375
v 0.8125 0 0.53125
v 0.8125 0.1875 0.53125
v 0.4375 0 0.53125
v 0.4375 0.1875 0.53125
v 0.296875 0 0.734375
v 0.296875 0.1875 0.734375
v 0.4375 0 0.9375
v 0.4375 0.1875 0.9375
v 0.8125 0.00625 0.9375
v 0.8125 0.1875 0.9375
v 0.953125 0.00625 0.734375
v 0.953125 0.1875 0.734375
v 0.8125 0.00625 0.53125
v 0.8125 0.1875 0.53125
v 0.4375 0.00625 0.53125
v 0.4375 0.1875 0.53125
v 0.296875 0.00625 0.734375
v 0.296875 0.1875 0.734375
v 0.4375 0.00625 0.9375
v 0.4375 0.1875 0.9375
vt 0.375 0.71875
vt 0.625 0.71875
vt 0.625 0.90625
vt 0.375 0.90625
vt 0.625 0.71875
vt 0.875 0.71875
vt 0.875 0.90625
vt 0.625 0.90625
vt 0 0.4375
vt 0.375 0.4375
vt 0.375 0.625
vt 0 0.625
vt 0.375 0.71875
vt 0.625 0.71875
vt 0.625 0.90625
vt 0.375 0.90625
vt 0.625 0.71875
vt 0.875 0.71875
vt 0.875 0.90625
vt 0.625 0.90625
vt 0 0.71875
vt 0.375 0.71875
vt 0.375 0.90625
vt 0 0.90625
vt 0.53125 0
vt 0.671875 0.203125
vt 0.53125 0.40625
vt 0.15625 0.40625
vt 0.015625 0.203125
vt 0.15625 0
vt 0.53125 0.40625
vt 0.15625 0.40625
vt 0.15625 0
vt 0.53125 0
vt 0.625 0.90625
vt 0.625 0.71875
vt 0.375 0.71875
vt 0.375 0.90625
vt 0.875 0.90625
vt 0.875 0.71875
vt 0.625 0.71875
vt 0.625 0.90625
vt 0.375 0.625
vt 0.375 0.4375
vt 0 0.4375
vt 0 0.625
vt 0.625 0.90625
vt 0.625 0.71875
vt 0.375 0.71875
vt 0.375 0.90625
vt 0.875 0.90625
vt 0.875 0.71875
vt 0.625 0.71875
vt 0.625 0.90625
vt 0.375 0.90625
vt 0.375 0.71875
vt 0 0.71875
vt 0 0.90625
vt 0.671875 0.203125
vt 0.53125 0
vt 0.53125 0.40625
vt 0.015625 0.203125
vt 0.15625 0.40625
vt 0.15625 0
vt 0.15625 0
vt 0.15625 0.40625
vt 0.53125 0.40625
vt 0.53125 0
vn 0.8221921916437787 0 0.5692099788303083
vn 0.8221921916437787 0 -0.5692099788303083
vn 0 0 -1
vn -0.8221921916437787 0 -0.5692099788303083
vn -0.8221921916437787 0 0.5692099788303083
vn 0 0 1
vn 0 -1 0
vn 0 -1 0
vn 0 -1 0
vn -0.8221921916437787 0 -0.5692099788303083
vn -0.8221921916437787 0 0.5692099788303083
vn 0 0 1
vn 0.8221921916437787 0 0.5692099788303083
vn 0.8221921916437787 0 -0.5692099788303083
vn 0 0 -1
vn 0 1 0
vn 0 1 0
vn 0 1 0
usemtl m_3a6ca2bb-91b7-4b9f-3353-eb6e18667b00
f 13/35/10 15/36/10 16/37/10 14/38/10
f 15/39/11 17/40/11 18/41/11 16/42/11
f 17/43/12 19/44/12 20/45/12 18/46/12
f 19/47/13 21/48/13 22/49/13 20/50/13
f 21/51/14 23/52/14 24/53/14 22/54/14
f 23/55/15 13/56/15 14/57/15 24/58/15
f 17/59/16 15/60/16 13/61/16
f 23/62/17 21/63/17 19/64/17
f 13/65/18 23/66/18 19/67/18 17/68/18
f 28/69/19 27/70/19 25/71/19 26/72/19
f 30/73/20 29/74/20 27/75/20 28/76/20
f 32/77/21 31/78/21 29/79/21 30/80/21
f 34/81/22 33/82/22 31/83/22 32/84/22
f 36/85/23 35/86/23 33/87/23 34/88/23
f 26/89/24 25/90/24 35/91/24 36/92/24
f 27/93/25 29/94/25 25/95/25
f 33/96/26 35/97/26 31/98/26
f 31/99/27 35/100/27 25/101/27 29/102/27