# Blender v3.2.2 OBJ File: ''
# www.blender.org
mtllib barrel_of_wine_horizontal_notap.mtl
o cylinder
v 0.500000 1.000000 0.750000
v 0.831456 0.862706 0.750000
v 0.831456 0.862706 0.250000
v 0.500000 1.000000 0.250000
v 0.968750 0.531250 0.750000
v 0.968750 0.531250 0.250000
v 0.831456 0.199794 0.750000
v 0.831456 0.199794 0.250000
v 0.500000 0.062500 0.750000
v 0.500000 0.062500 0.250000
v 0.168544 0.199794 0.750000
v 0.168544 0.199794 0.250000
v 0.031250 0.531250 0.750000
v 0.031250 0.531250 0.250000
v 0.168544 0.862706 0.750000
v 0.168544 0.862706 0.250000
v 0.765165 0.796415 0.000000
v 0.500000 0.906250 0.000000
v 0.875000 0.531250 0.000000
v 0.765165 0.266085 0.000000
v 0.500000 0.156250 0.000000
v 0.234835 0.266085 0.000000
v 0.125000 0.531250 0.000000
v 0.234835 0.796415 0.000000
v 0.500000 0.906250 1.000000
v 0.765165 0.796415 1.000000
v 0.875000 0.531250 1.000000
v 0.765165 0.266085 1.000000
v 0.500000 0.156250 1.000000
v 0.234835 0.266085 1.000000
v 0.125000 0.531250 1.000000
v 0.234835 0.796415 1.000000
v 0.500000 0.531250 1.000000
v 0.500000 0.843750 0.031250
v 0.720971 0.752221 0.031250
v 0.500000 0.531250 0.031250
v 0.812500 0.531250 0.031250
v 0.720971 0.310279 0.031250
v 0.500000 0.218750 0.031250
v 0.279029 0.310279 0.031250
v 0.187500 0.531250 0.031250
v 0.279029 0.752221 0.031250
v 0.720971 0.752221 0.000000
v 0.500000 0.843750 0.000000
v 0.812500 0.531250 0.000000
v 0.720971 0.310279 0.000000
v 0.500000 0.218750 0.000000
v 0.279029 0.310279 0.000000
v 0.187500 0.531250 0.000000
v 0.279029 0.752221 0.000000
vt 0.453125 0.250000
vt 0.796875 0.250000
vt 0.796875 0.750000
vt 0.453125 0.750000
vt 0.000000 0.250000
vt 0.343750 0.250000
vt 0.343750 0.750000
vt 0.000000 0.750000
vt 0.125000 0.250000
vt 0.468750 0.250000
vt 0.468750 0.750000
vt 0.125000 0.750000
vt 0.406250 0.250000
vt 0.750000 0.250000
vt 0.750000 0.750000
vt 0.406250 0.750000
vt 0.125000 0.250000
vt 0.468750 0.250000
vt 0.468750 0.750000
vt 0.125000 0.750000
vt 0.500000 0.250000
vt 0.843750 0.250000
vt 0.843750 0.750000
vt 0.500000 0.750000
vt 0.000000 0.250000
vt 0.343750 0.250000
vt 0.343750 0.750000
vt 0.000000 0.750000
vt 0.437500 0.250000
vt 0.781250 0.250000
vt 0.781250 0.750000
vt 0.437500 0.750000
vt 0.762501 1.000000
vt 0.487499 1.000000
vt 0.309376 1.000000
vt 0.034374 1.000000
vt 0.434376 1.000000
vt 0.159374 1.000000
vt 0.715626 1.000000
vt 0.440624 1.000000
vt 0.434376 1.000000
vt 0.159374 1.000000
vt 0.809376 1.000000
vt 0.534374 1.000000
vt 0.309376 1.000000
vt 0.034374 1.000000
vt 0.746876 1.000000
vt 0.471874 1.000000
vt 0.487499 0.000000
vt 0.762501 0.000000
vt 0.034374 0.000000
vt 0.309376 0.000000
vt 0.159374 0.000000
vt 0.434376 0.000000
vt 0.440624 0.000000
vt 0.715626 0.000000
vt 0.159374 0.000000
vt 0.434376 0.000000
vt 0.534374 0.000000
vt 0.809376 0.000000
vt 0.034374 0.000000
vt 0.309376 0.000000
vt 0.471874 0.000000
vt 0.746876 0.000000
vt 0.273438 0.937500
vt 0.507813 0.937500
vt 0.531250 1.000000
vt 0.250000 1.000000
vt 0.492188 0.937500
vt 0.726563 0.937500
vt 0.750000 1.000000
vt 0.468750 1.000000
vt 0.742188 0.937500
vt 0.976563 0.937500
vt 1.000000 1.000000
vt 0.718750 1.000000
vt 0.023438 0.937500
vt 0.257813 0.937500
vt 0.281250 1.000000
vt 0.000000 1.000000
vt 0.273438 0.937500
vt 0.507813 0.937500
vt 0.531250 1.000000
vt 0.250000 1.000000
vt 0.492188 0.937500
vt 0.726563 0.937500
vt 0.750000 1.000000
vt 0.468750 1.000000
vt 0.742188 0.937500
vt 0.976563 0.937500
vt 1.000000 1.000000
vt 0.718750 1.000000
vt 0.023438 0.937500
vt 0.257813 0.937500
vt 0.281250 1.000000
vt 0.000000 1.000000
vt 0.000000 0.968750
vt 0.234375 0.968750
vt 0.234375 1.000000
vt 0.000000 1.000000
vt 0.750000 0.968750
vt 0.984375 0.968750
vt 0.984375 1.000000
vt 0.750000 1.000000
vt 0.500000 0.968750
vt 0.734375 0.968750
vt 0.734375 1.000000
vt 0.500000 1.000000
vt 0.250000 0.968750
vt 0.484375 0.968750
vt 0.484375 1.000000
vt 0.250000 1.000000
vt 0.000000 0.968750
vt 0.234375 0.968750
vt 0.234375 1.000000
vt 0.000000 1.000000
vt 0.750000 0.968750
vt 0.984375 0.968750
vt 0.984375 1.000000
vt 0.750000 1.000000
vt 0.500000 0.968750
vt 0.734375 0.968750
vt 0.734375 1.000000
vt 0.500000 1.000000
vt 0.250000 0.968750
vt 0.484375 0.968750
vt 0.484375 1.000000
vt 0.250000 1.000000
vt 0.765163 0.765163
vt 0.500000 0.875000
vt 0.500000 0.500000
vt 0.875000 0.500000
vt 0.765163 0.234838
vt 0.500000 0.125000
vt 0.234838 0.234838
vt 0.125000 0.500000
vt 0.234838 0.765163
vt 0.500000 0.187500
vt 0.720969 0.279031
vt 0.500000 0.500000
vt 0.812500 0.500000
vt 0.720969 0.720969
vt 0.500000 0.812500
vt 0.279031 0.720969
vt 0.187500 0.500000
vt 0.279031 0.279031
vn 0.3827 0.9239 0.0000
vn 0.9239 0.3827 0.0000
vn 0.9239 -0.3827 -0.0000
vn 0.3827 -0.9239 -0.0000
vn -0.3827 -0.9239 -0.0000
vn -0.9239 -0.3827 -0.0000
vn -0.9239 0.3827 0.0000
vn -0.3827 0.9239 0.0000
vn 0.3616 0.8730 -0.3274
vn 0.8730 0.3616 -0.3274
vn 0.8730 -0.3616 -0.3274
vn 0.3616 -0.8730 -0.3274
vn -0.3616 -0.8730 -0.3274
vn -0.8730 -0.3616 -0.3274
vn -0.8730 0.3616 -0.3274
vn -0.3616 0.8730 -0.3274
vn 0.3616 0.8730 0.3274
vn 0.8730 0.3616 0.3274
vn 0.8730 -0.3616 0.3274
vn 0.3616 -0.8730 0.3274
vn -0.3616 -0.8730 0.3274
vn -0.8730 -0.3616 0.3274
vn -0.8730 0.3616 0.3274
vn -0.3616 0.8730 0.3274
vn 0.0000 0.0000 -1.0000
vn 0.0000 0.0000 1.0000
usemtl m_7dac5baf-5c76-96b9-cc97-704f61381340
s 1
f 1/1/1 2/2/1 3/3/1 4/4/1
f 2/5/2 5/6/2 6/7/2 3/8/2
f 5/9/3 7/10/3 8/11/3 6/12/3
f 7/13/4 9/14/4 10/15/4 8/16/4
f 9/17/5 11/18/5 12/19/5 10/20/5
f 11/21/6 13/22/6 14/23/6 12/24/6
f 13/25/7 15/26/7 16/27/7 14/28/7
f 15/29/8 1/30/8 4/31/8 16/32/8
f 17/33/9 18/34/9 4/4/9 3/3/9
f 19/35/10 17/36/10 3/8/10 6/7/10
f 20/37/11 19/38/11 6/12/11 8/11/11
f 21/39/12 20/40/12 8/16/12 10/15/12
f 22/41/13 21/42/13 10/20/13 12/19/13
f 23/43/14 22/44/14 12/24/14 14/23/14
f 24/45/15 23/46/15 14/28/15 16/27/15
f 18/47/16 24/48/16 16/32/16 4/31/16
f 25/49/17 26/50/17 2/2/17 1/1/17
f 26/51/18 27/52/18 5/6/18 2/5/18
f 27/53/19 28/54/19 7/10/19 5/9/19
f 28/55/20 29/56/20 9/14/20 7/13/20
f 29/57/21 30/58/21 11/18/21 9/17/21
f 30/59/22 31/60/22 13/22/22 11/21/22
f 31/61/23 32/62/23 15/26/23 13/25/23
f 32/63/24 25/64/24 1/30/24 15/29/24
f 43/65/25 44/66/25 18/67/25 17/68/25
f 45/69/25 43/70/25 17/71/25 19/72/25
f 46/73/25 45/74/25 19/75/25 20/76/25
f 47/77/25 46/78/25 20/79/25 21/80/25
f 48/81/25 47/82/25 21/83/25 22/84/25
f 49/85/25 48/86/25 22/87/25 23/88/25
f 50/89/25 49/90/25 23/91/25 24/92/25
f 44/93/25 50/94/25 24/95/25 18/96/25
f 35/97/5 34/98/5 44/99/5 43/100/5
f 37/101/6 35/102/6 43/103/6 45/104/6
f 38/105/7 37/106/7 45/107/7 46/108/7
f 39/109/8 38/110/8 46/111/8 47/112/8
f 40/113/1 39/114/1 47/115/1 48/116/1
f 41/117/2 40/118/2 48/119/2 49/120/2
f 42/121/3 41/122/3 49/123/3 50/124/3
f 34/125/4 42/126/4 50/127/4 44/128/4
usemtl m_6b59db8b-dd1d-c341-f36e-f06d186efb67
f 26/129/26 25/130/26 33/131/26
f 27/132/26 26/129/26 33/131/26
f 28/133/26 27/132/26 33/131/26
f 29/134/26 28/133/26 33/131/26
f 30/135/26 29/134/26 33/131/26
f 31/136/26 30/135/26 33/131/26
f 32/137/26 31/136/26 33/131/26
f 25/130/26 32/137/26 33/131/26
usemtl m_7c1f8eff-3f52-54ab-3900-c4ebf5d66733
f 34/138/25 35/139/25 36/140/25
f 35/139/25 37/141/25 36/140/25
f 37/141/25 38/142/25 36/140/25
f 38/142/25 39/143/25 36/140/25
f 39/143/25 40/144/25 36/140/25
f 40/144/25 41/145/25 36/140/25
f 41/145/25 42/146/25 36/140/25
f 42/146/25 34/138/25 36/140/25
o stand1
v 1.000000 0.500000 0.218750
v 1.000000 0.500000 0.312500
v 1.000000 -0.000000 0.312500
v 1.000000 -0.000000 0.218750
v 0.000000 -0.000000 0.312500
v 0.000000 0.500000 0.312500
v 0.000000 0.500000 0.218750
v 0.000000 -0.000000 0.218750
vt 0.093750 1.000000
vt 0.000000 1.000000
vt 0.000000 0.500000
vt 0.093750 0.500000
vt 0.093750 0.500000
vt 0.093750 1.000000
vt 0.000000 1.000000
vt 0.000000 0.500000
vt 0.000000 0.406250
vt 1.000000 0.406250
vt 1.000000 0.500000
vt 0.000000 0.500000
vt 1.000000 0.000000
vt 1.000000 0.093750
vt 0.000000 0.093750
vt 0.000000 0.000000
vt 1.000000 0.000000
vt 1.000000 0.500000
vt 0.000000 0.500000
vt 0.000000 0.000000
vt 1.000000 0.500000
vt 0.000000 0.500000
vt 0.000000 0.000000
vt 1.000000 0.000000
vn 1.0000 0.0000 0.0000
vn -1.0000 0.0000 0.0000
vn 0.0000 1.0000 0.0000
vn 0.0000 -1.0000 -0.0000
vn 0.0000 -0.0000 1.0000
vn 0.0000 0.0000 -1.0000
usemtl m_5aec45bb-1334-cacb-0c15-f2340a7f539d
s 1
f 51/147/27 52/148/27 53/149/27 54/150/27
f 55/151/28 56/152/28 57/153/28 58/154/28
f 56/155/29 52/156/29 51/157/29 57/158/29
f 54/159/30 53/160/30 55/161/30 58/162/30
f 53/163/31 52/164/31 56/165/31 55/166/31
f 57/167/32 51/168/32 54/169/32 58/170/32
o stand2
v 1.000000 0.500000 0.687500
v 1.000000 0.500000 0.781250
v 1.000000 -0.000000 0.781250
v 1.000000 -0.000000 0.687500
v 0.000000 -0.000000 0.781250
v 0.000000 0.500000 0.781250
v 0.000000 0.500000 0.687500
v 0.000000 -0.000000 0.687500
vt 0.093750 1.000000
vt 0.000000 1.000000
vt 0.000000 0.500000
vt 0.093750 0.500000
vt 0.093750 0.500000
vt 0.093750 1.000000
vt 0.000000 1.000000
vt 0.000000 0.500000
vt 0.000000 0.406250
vt 1.000000 0.406250
vt 1.000000 0.500000
vt 0.000000 0.500000
vt 1.000000 0.000000
vt 1.000000 0.093750
vt 0.000000 0.093750
vt 0.000000 0.000000
vt 1.000000 0.000000
vt 1.000000 0.500000
vt 0.000000 0.500000
vt 0.000000 0.000000
vt 1.000000 0.500000
vt 0.000000 0.500000
vt 0.000000 0.000000
vt 1.000000 0.000000
vn 1.0000 0.0000 0.0000
vn -1.0000 0.0000 0.0000
vn 0.0000 1.0000 0.0000
vn 0.0000 -1.0000 -0.0000
vn 0.0000 -0.0000 1.0000
vn 0.0000 0.0000 -1.0000
usemtl m_5aec45bb-1334-cacb-0c15-f2340a7f539d
s 1
f 59/171/33 60/172/33 61/173/33 62/174/33
f 63/175/34 64/176/34 65/177/34 66/178/34
f 64/179/35 60/180/35 59/181/35 65/182/35
f 62/183/36 61/184/36 63/185/36 66/186/36
f 61/187/37 60/188/37 64/189/37 63/190/37
f 65/191/38 59/192/38 62/193/38 66/194/38
