# Blender v3.2.2 OBJ File: ''
# www.blender.org
mtllib bronze_lantern.mtl
o cylinder
v 0.750000 0.031250 0.603553
v 0.603553 0.031250 0.750000
v 0.500000 0.031250 0.500000
v 0.750000 0.093750 0.603553
v 0.603553 0.093750 0.750000
v 0.500000 0.093750 0.500000
v 0.750000 0.031250 0.396447
v 0.750000 0.093750 0.396447
v 0.603553 0.031250 0.250000
v 0.603553 0.093750 0.250000
v 0.396447 0.031250 0.250000
v 0.396447 0.093750 0.250000
v 0.250000 0.031250 0.396447
v 0.250000 0.093750 0.396447
v 0.250000 0.031250 0.603553
v 0.250000 0.093750 0.603553
v 0.396447 0.031250 0.750000
v 0.396447 0.093750 0.750000
vt 1.000000 0.353553
vt 0.853553 0.500000
vt 0.750000 0.250000
vt 0.353553 0.500000
vt 0.500000 0.646447
vt 0.250000 0.750000
vt 1.000000 0.146447
vt 0.500000 0.853553
vt 0.853553 0.000000
vt 0.353553 1.000000
vt 0.646447 0.000000
vt 0.146447 1.000000
vt 0.500000 0.146447
vt 0.000000 0.853553
vt 0.500000 0.353553
vt 0.000000 0.646447
vt 0.646447 0.500000
vt 0.146447 0.500000
vt 0.218750 0.000000
vt 0.437500 0.000000
vt 0.437500 0.062500
vt 0.218750 0.062500
vt 0.000000 0.000000
vt 0.218750 0.000000
vt 0.218750 0.062500
vt 0.000000 0.062500
vt 0.437500 0.000000
vt 0.437500 0.062500
vt 0.000000 0.000000
vt 0.218750 0.000000
vt 0.218750 0.062500
vt 0.000000 0.062500
vt 0.437500 0.000000
vt 0.437500 0.062500
vt 0.000000 0.000000
vt 0.218750 0.000000
vt 0.218750 0.062500
vt 0.000000 0.062500
vt 0.437500 0.000000
vt 0.437500 0.062500
vt 0.000000 0.000000
vt 0.000000 0.062500
vn 0.0000 -1.0000 -0.0000
vn -0.0000 1.0000 0.0000
vn 0.7071 0.0000 0.7071
vn 1.0000 -0.0000 0.0000
vn 0.7071 0.0000 -0.7071
vn 0.0000 0.0000 -1.0000
vn -0.7071 0.0000 -0.7071
vn -1.0000 0.0000 0.0000
vn -0.7071 0.0000 0.7071
vn 0.0000 0.0000 1.0000
usemtl m_0c1094a8-5054-25cc-f461-bb0f198ede63
s 1
f 1/1/1 2/2/1 3/3/1
f 5/4/2 4/5/2 6/6/2
f 7/7/1 1/1/1 3/3/1
f 4/5/2 8/8/2 6/6/2
f 9/9/1 7/7/1 3/3/1
f 8/8/2 10/10/2 6/6/2
f 11/11/1 9/9/1 3/3/1
f 10/10/2 12/12/2 6/6/2
f 13/13/1 11/11/1 3/3/1
f 12/12/2 14/14/2 6/6/2
f 15/15/1 13/13/1 3/3/1
f 14/14/2 16/16/2 6/6/2
f 17/17/1 15/15/1 3/3/1
f 16/16/2 18/18/2 6/6/2
f 2/2/1 17/17/1 3/3/1
f 18/18/2 5/4/2 6/6/2
usemtl m_9a46b0ad-d7e3-687e-5648-1b73dea6a1b4
f 2/19/3 1/20/3 4/21/3 5/22/3
f 1/23/4 7/24/4 8/25/4 4/26/4
f 7/24/5 9/27/5 10/28/5 8/25/5
f 9/29/6 11/30/6 12/31/6 10/32/6
f 11/30/7 13/33/7 14/34/7 12/31/7
f 13/35/8 15/36/8 16/37/8 14/38/8
f 15/36/9 17/39/9 18/40/9 16/37/9
f 17/41/10 2/19/10 5/22/10 18/42/10
o cylinder.000
v 0.750000 0.531250 0.603553
v 0.603553 0.531250 0.750000
v 0.500000 0.531250 0.500000
v 0.750000 0.625000 0.603554
v 0.603553 0.625000 0.750000
v 0.750000 0.531250 0.396447
v 0.750000 0.625000 0.396447
v 0.603553 0.531250 0.250000
v 0.603553 0.625000 0.250000
v 0.396447 0.531250 0.250000
v 0.396447 0.625000 0.250000
v 0.250000 0.531250 0.396447
v 0.250000 0.625000 0.396447
v 0.250000 0.531250 0.603553
v 0.250000 0.625000 0.603554
v 0.396447 0.531250 0.750000
v 0.396447 0.625000 0.750000
v 0.564721 0.687500 0.343750
v 0.656250 0.687500 0.435279
v 0.435279 0.687500 0.343750
v 0.343750 0.687500 0.435279
v 0.343750 0.687500 0.564721
v 0.435279 0.687500 0.656250
v 0.564721 0.687500 0.656250
v 0.656250 0.687500 0.564721
vt 1.000000 0.353553
vt 0.853553 0.500000
vt 0.750000 0.250000
vt 0.218750 0.343750
vt 0.437500 0.343750
vt 0.437500 0.437500
vt 0.218750 0.437500
vt 1.000000 0.146447
vt 0.218750 0.000000
vt 0.437500 0.000000
vt 0.437500 0.093750
vt 0.218750 0.093750
vt 0.853553 0.000000
vt 0.000000 0.000000
vt 0.218750 0.000000
vt 0.218750 0.093750
vt 0.000000 0.093750
vt 0.646447 0.000000
vt 0.000000 0.218750
vt 0.218750 0.218750
vt 0.218750 0.312500
vt 0.000000 0.312500
vt 0.500000 0.146447
vt 0.000000 0.343750
vt 0.218750 0.343750
vt 0.218750 0.437500
vt 0.000000 0.437500
vt 0.500000 0.353553
vt 0.218750 0.218750
vt 0.437500 0.218750
vt 0.437500 0.312500
vt 0.218750 0.312500
vt 0.646447 0.500000
vt 0.000000 0.093750
vt 0.218750 0.093750
vt 0.218750 0.187500
vt 0.000000 0.187500
vt 0.000000 0.000000
vt 0.218750 0.000000
vt 0.218750 0.093750
vt 0.000000 0.093750
vt 0.334391 0.900391
vt 0.431641 0.803141
vt 0.531250 0.844400
vt 0.375650 1.000000
vt 0.196859 0.900391
vt 0.155600 1.000000
vt 0.099609 0.803141
vt 0.000000 0.844400
vt 0.099609 0.665609
vt 0.000000 0.624350
vt 0.196859 0.568359
vt 0.155600 0.468750
vt 0.334391 0.568359
vt 0.375650 0.468750
vt 0.431641 0.665609
vt 0.531250 0.624350
vn -0.0000 -1.0000 -0.0000
vn 0.7071 -0.0000 0.7071
vn 1.0000 0.0000 0.0000
vn 0.7071 0.0000 -0.7071
vn 0.0000 0.0000 -1.0000
vn -0.7071 0.0000 -0.7071
vn -1.0000 0.0000 0.0000
vn -0.7071 -0.0000 0.7071
vn 0.0000 -0.0000 1.0000
vn 0.3922 0.8321 -0.3922
vn 0.0000 0.8321 -0.5547
vn -0.3922 0.8321 -0.3922
vn -0.5547 0.8321 0.0000
vn -0.3922 0.8321 0.3922
vn 0.0000 0.8321 0.5547
vn 0.3922 0.8321 0.3922
vn 0.5547 0.8321 0.0000
vn -0.0000 1.0000 0.0000
usemtl m_0c1094a8-5054-25cc-f461-bb0f198ede63
s 1
f 19/43/11 20/44/11 21/45/11
f 20/46/12 19/47/12 22/48/12 23/49/12
f 24/50/11 19/43/11 21/45/11
f 19/51/13 24/52/13 25/53/13 22/54/13
f 26/55/11 24/50/11 21/45/11
f 24/56/14 26/57/14 27/58/14 25/59/14
f 28/60/11 26/55/11 21/45/11
f 26/61/15 28/62/15 29/63/15 27/64/15
f 30/65/11 28/60/11 21/45/11
f 28/66/16 30/67/16 31/68/16 29/69/16
f 32/70/11 30/65/11 21/45/11
f 30/71/17 32/72/17 33/73/17 31/74/17
f 34/75/11 32/70/11 21/45/11
f 32/76/18 34/77/18 35/78/18 33/79/18
f 20/44/11 34/75/11 21/45/11
f 34/80/19 20/81/19 23/82/19 35/83/19
f 36/84/20 37/85/20 25/86/20 27/87/20
f 38/88/21 36/84/21 27/87/21 29/89/21
f 39/90/22 38/88/22 29/89/22 31/91/22
f 40/92/23 39/90/23 31/91/23 33/93/23
f 41/94/24 40/92/24 33/93/24 35/95/24
f 42/96/25 41/94/25 35/95/25 23/97/25
f 43/98/26 42/96/26 23/97/26 22/99/26
f 37/85/27 43/98/27 22/99/27 25/86/27
f 38/88/28 39/90/28 40/92/28 41/94/28
f 41/94/28 42/96/28 43/98/28 37/85/28
f 37/85/28 36/84/28 38/88/28 41/94/28
o cylinder.001
v 0.605495 0.531250 0.754688
v 0.754687 0.531250 0.605495
v 0.754687 0.562500 0.605495
v 0.605495 0.562500 0.754688
v 0.754687 0.531250 0.394505
v 0.754687 0.562500 0.394505
v 0.605495 0.531250 0.245313
v 0.605495 0.562500 0.245313
v 0.394505 0.531250 0.245313
v 0.394505 0.562500 0.245313
v 0.245312 0.531250 0.394505
v 0.245312 0.562500 0.394505
v 0.245312 0.531250 0.605495
v 0.245312 0.562500 0.605495
v 0.394505 0.531250 0.754688
v 0.394505 0.562500 0.754688
vt 0.218750 0.343750
vt 0.437500 0.343750
vt 0.437500 0.375000
vt 0.218750 0.375000
vt 0.218750 0.000000
vt 0.437500 0.000000
vt 0.437500 0.031250
vt 0.218750 0.031250
vt 0.000000 0.000000
vt 0.218750 0.000000
vt 0.218750 0.031250
vt 0.000000 0.031250
vt 0.000000 0.218750
vt 0.218750 0.218750
vt 0.218750 0.250000
vt 0.000000 0.250000
vt 0.000000 0.343750
vt 0.218750 0.343750
vt 0.218750 0.375000
vt 0.000000 0.375000
vt 0.218750 0.218750
vt 0.437500 0.218750
vt 0.437500 0.250000
vt 0.218750 0.250000
vt 0.000000 0.000000
vt 0.218750 0.000000
vt 0.218750 0.031250
vt 0.000000 0.031250
vt 0.437500 0.000000
vt 0.437500 0.031250
vn 0.7071 -0.0000 0.7071
vn 1.0000 0.0000 0.0000
vn 0.7071 0.0000 -0.7071
vn 0.0000 0.0000 -1.0000
vn -0.7071 0.0000 -0.7071
vn -1.0000 0.0000 0.0000
vn -0.7071 -0.0000 0.7071
vn 0.0000 -0.0000 1.0000
usemtl m_0c1094a8-5054-25cc-f461-bb0f198ede63
s 1
f 44/100/29 45/101/29 46/102/29 47/103/29
f 45/104/30 48/105/30 49/106/30 46/107/30
f 48/108/31 50/109/31 51/110/31 49/111/31
f 50/112/32 52/113/32 53/114/32 51/115/32
f 52/116/33 54/117/33 55/118/33 53/119/33
f 54/120/34 56/121/34 57/122/34 55/123/34
f 56/124/35 58/125/35 59/126/35 57/127/35
f 58/125/36 44/128/36 47/129/36 59/126/36
o cylinder.002
v 0.593198 0.500000 0.725000
v 0.725000 0.500000 0.593198
v 0.725000 0.531250 0.593198
v 0.593198 0.531250 0.725000
v 0.725000 0.500000 0.406802
v 0.725000 0.531250 0.406802
v 0.593198 0.500000 0.275000
v 0.593198 0.531250 0.275000
v 0.406802 0.500000 0.275000
v 0.406802 0.531250 0.275000
v 0.275000 0.500000 0.406802
v 0.275000 0.531250 0.406802
v 0.275000 0.500000 0.593198
v 0.275000 0.531250 0.593198
v 0.406802 0.500000 0.725000
v 0.406802 0.531250 0.725000
vt 0.187500 0.531250
vt 0.375000 0.531250
vt 0.375000 0.562500
vt 0.187500 0.562500
vt 0.000000 0.531250
vt 0.187500 0.531250
vt 0.187500 0.562500
vt 0.000000 0.562500
vt 0.375000 0.531250
vt 0.375000 0.562500
vt 0.000000 0.531250
vt 0.187500 0.531250
vt 0.187500 0.562500
vt 0.000000 0.562500
vt 0.375000 0.531250
vt 0.375000 0.562500
vt 0.000000 0.531250
vt 0.187500 0.531250
vt 0.187500 0.562500
vt 0.000000 0.562500
vt 0.000000 0.531250
vt 0.000000 0.562500
vt 0.375000 0.531250
vt 0.375000 0.562500
vn 0.7071 0.0000 0.7071
vn 1.0000 0.0000 0.0000
vn 0.7071 0.0000 -0.7071
vn 0.0000 0.0000 -1.0000
vn -0.7071 0.0000 -0.7071
vn -1.0000 0.0000 0.0000
vn 0.0000 0.0000 1.0000
vn -0.7071 0.0000 0.7071
usemtl m_9a46b0ad-d7e3-687e-5648-1b73dea6a1b4
s 1
f 60/130/37 61/131/37 62/132/37 63/133/37
f 61/134/38 64/135/38 65/136/38 62/137/38
f 64/135/39 66/138/39 67/139/39 65/136/39
f 66/140/40 68/141/40 69/142/40 67/143/40
f 68/141/41 70/144/41 71/145/41 69/142/41
f 70/146/42 72/147/42 73/148/42 71/149/42
f 74/150/43 60/130/43 63/133/43 75/151/43
f 72/147/44 74/152/44 75/153/44 73/148/44
o cylinder.003
v 0.593198 0.093750 0.725000
v 0.725000 0.093750 0.593198
v 0.725000 0.125000 0.593198
v 0.593198 0.125000 0.725000
v 0.725000 0.093750 0.406802
v 0.725000 0.125000 0.406802
v 0.593198 0.093750 0.275000
v 0.593198 0.125000 0.275000
v 0.406802 0.093750 0.275000
v 0.406802 0.125000 0.275000
v 0.275000 0.093750 0.406802
v 0.275000 0.125000 0.406802
v 0.275000 0.093750 0.593198
v 0.275000 0.125000 0.593198
v 0.406802 0.093750 0.725000
v 0.406802 0.125000 0.725000
vt 0.187500 0.062500
vt 0.375000 0.062500
vt 0.375000 0.093750
vt 0.187500 0.093750
vt 0.000000 0.062500
vt 0.187500 0.062500
vt 0.187500 0.093750
vt 0.000000 0.093750
vt 0.375000 0.062500
vt 0.375000 0.093750
vt 0.000000 0.062500
vt 0.187500 0.062500
vt 0.187500 0.093750
vt 0.000000 0.093750
vt 0.375000 0.062500
vt 0.375000 0.093750
vt 0.000000 0.062500
vt 0.187500 0.062500
vt 0.187500 0.093750
vt 0.000000 0.093750
vt 0.000000 0.062500
vt 0.000000 0.093750
vt 0.375000 0.062500
vt 0.375000 0.093750
vn 0.7071 0.0000 0.7071
vn 1.0000 0.0000 0.0000
vn 0.7071 0.0000 -0.7071
vn 0.0000 0.0000 -1.0000
vn -0.7071 0.0000 -0.7071
vn -1.0000 0.0000 0.0000
vn 0.0000 0.0000 1.0000
vn -0.7071 0.0000 0.7071
usemtl m_9a46b0ad-d7e3-687e-5648-1b73dea6a1b4
s 1
f 76/154/45 77/155/45 78/156/45 79/157/45
f 77/158/46 80/159/46 81/160/46 78/161/46
f 80/159/47 82/162/47 83/163/47 81/160/47
f 82/164/48 84/165/48 85/166/48 83/167/48
f 84/165/49 86/168/49 87/169/49 85/166/49
f 86/170/50 88/171/50 89/172/50 87/173/50
f 90/174/51 76/154/51 79/157/51 91/175/51
f 88/171/52 90/176/52 91/177/52 89/172/52
o cylinder.004
v 0.604714 0.062500 0.755469
v 0.753906 0.062500 0.606276
v 0.753906 0.093750 0.606276
v 0.604714 0.093750 0.755469
v 0.753906 0.062500 0.395286
v 0.753906 0.093750 0.395286
v 0.604714 0.062500 0.246094
v 0.604714 0.093750 0.246094
v 0.393724 0.062500 0.246094
v 0.393724 0.093750 0.246094
v 0.244531 0.062500 0.395286
v 0.244531 0.093750 0.395286
v 0.244531 0.062500 0.606276
v 0.244531 0.093750 0.606276
v 0.393724 0.062500 0.755469
v 0.393724 0.093750 0.755469
vt 0.218750 0.031250
vt 0.437500 0.031250
vt 0.437500 0.062500
vt 0.218750 0.062500
vt 0.000000 0.031250
vt 0.218750 0.031250
vt 0.218750 0.062500
vt 0.000000 0.062500
vt 0.437500 0.031250
vt 0.437500 0.062500
vt 0.000000 0.031250
vt 0.218750 0.031250
vt 0.218750 0.062500
vt 0.000000 0.062500
vt 0.437500 0.031250
vt 0.437500 0.062500
vt 0.000000 0.031250
vt 0.218750 0.031250
vt 0.218750 0.062500
vt 0.000000 0.062500
vt 0.437500 0.031250
vt 0.437500 0.062500
vt 0.000000 0.031250
vt 0.000000 0.062500
vn 0.7071 0.0000 0.7071
vn 1.0000 -0.0000 0.0000
vn 0.7071 0.0000 -0.7071
vn 0.0000 0.0000 -1.0000
vn -0.7071 0.0000 -0.7071
vn -1.0000 0.0000 0.0000
vn -0.7071 0.0000 0.7071
vn 0.0000 0.0000 1.0000
usemtl m_9a46b0ad-d7e3-687e-5648-1b73dea6a1b4
s 1
f 92/178/53 93/179/53 94/180/53 95/181/53
f 93/182/54 96/183/54 97/184/54 94/185/54
f 96/183/55 98/186/55 99/187/55 97/184/55
f 98/188/56 100/189/56 101/190/56 99/191/56
f 100/189/57 102/192/57 103/193/57 101/190/57
f 102/194/58 104/195/58 105/196/58 103/197/58
f 104/195/59 106/198/59 107/199/59 105/196/59
f 106/200/60 92/178/60 95/181/60 107/201/60
o cylinder.005
v 0.590609 0.093750 0.718750
v 0.718750 0.093750 0.590609
v 0.718750 0.531250 0.590609
v 0.590609 0.531250 0.718750
v 0.718750 0.093750 0.409391
v 0.718750 0.531250 0.409391
v 0.590609 0.093750 0.281250
v 0.590609 0.531250 0.281250
v 0.409391 0.093750 0.281250
v 0.409391 0.531250 0.281250
v 0.281250 0.093750 0.409391
v 0.281250 0.531250 0.409391
v 0.281250 0.093750 0.590609
v 0.281250 0.531250 0.590609
v 0.409391 0.093750 0.718750
v 0.409391 0.531250 0.718750
vt 0.187500 0.093750
vt 0.375000 0.093750
vt 0.375000 0.531250
vt 0.187500 0.531250
vt 0.000000 0.093750
vt 0.187500 0.093750
vt 0.187500 0.531250
vt 0.000000 0.531250
vt 0.375000 0.093750
vt 0.375000 0.531250
vt 0.593750 0.031250
vt 0.781250 0.031250
vt 0.781250 0.468750
vt 0.593750 0.468750
vt 0.187500 0.093750
vt 0.375000 0.093750
vt 0.375000 0.531250
vt 0.187500 0.531250
vt 0.000000 0.093750
vt 0.187500 0.093750
vt 0.187500 0.531250
vt 0.000000 0.531250
vt 0.375000 0.093750
vt 0.375000 0.531250
vt 0.593750 0.031250
vt 0.781250 0.031250
vt 0.781250 0.468750
vt 0.593750 0.468750
vn 0.7071 -0.0000 0.7071
vn 1.0000 0.0000 0.0000
vn 0.7071 0.0000 -0.7071
vn 0.0000 0.0000 -1.0000
vn -0.7071 0.0000 -0.7071
vn -1.0000 0.0000 0.0000
vn -0.7071 -0.0000 0.7071
vn 0.0000 -0.0000 1.0000
usemtl m_9a46b0ad-d7e3-687e-5648-1b73dea6a1b4
s 1
f 108/202/61 109/203/61 110/204/61 111/205/61
f 109/206/62 112/207/62 113/208/62 110/209/62
f 112/207/63 114/210/63 115/211/63 113/208/63
f 114/212/64 116/213/64 117/214/64 115/215/64
f 116/216/65 118/217/65 119/218/65 117/219/65
f 118/220/66 120/221/66 121/222/66 119/223/66
f 120/221/67 122/224/67 123/225/67 121/222/67
f 122/226/68 108/227/68 111/228/68 123/229/68
o cube
v 0.531250 0.093750 0.250000
v 0.468750 0.093750 0.250000
v 0.468750 0.531250 0.250000
v 0.531250 0.531250 0.250000
v 0.531250 0.093750 0.750000
v 0.531250 0.531250 0.750000
v 0.468750 0.093750 0.750000
v 0.468750 0.531250 0.750000
vt 0.875000 0.000000
vt 0.937500 0.000000
vt 0.937500 0.437500
vt 0.875000 0.437500
vt 0.437500 0.000000
vt 0.906250 0.000000
vt 0.906250 0.437500
vt 0.437500 0.437500
vt 0.500000 0.000000
vt 0.500000 0.437500
vt 0.437500 0.000000
vt 0.906250 0.000000
vt 0.906250 0.437500
vt 0.437500 0.437500
vn 0.0000 0.0000 -1.0000
vn 1.0000 0.0000 0.0000
vn 0.0000 -0.0000 1.0000
vn -1.0000 0.0000 0.0000
usemtl m_9a46b0ad-d7e3-687e-5648-1b73dea6a1b4
s 1
f 124/230/69 125/231/69 126/232/69 127/233/69
f 128/234/70 124/235/70 127/236/70 129/237/70
f 130/238/71 128/234/71 129/237/71 131/239/71
f 125/240/72 130/241/72 131/242/72 126/243/72
o cube.000
v 0.312500 -0.000000 0.455806
v 0.268306 -0.000000 0.500000
v 0.268306 0.031250 0.500000
v 0.312500 0.031250 0.455806
v 0.356694 -0.000000 0.500000
v 0.356694 0.031250 0.500000
v 0.312500 -0.000000 0.544194
v 0.312500 0.031250 0.544194
vt 0.062500 0.687500
vt 0.125000 0.687500
vt 0.125000 0.718750
vt 0.062500 0.718750
vt 0.062500 0.687500
vt 0.125000 0.687500
vt 0.125000 0.718750
vt 0.062500 0.718750
vt 0.062500 0.687500
vt 0.125000 0.687500
vt 0.125000 0.718750
vt 0.062500 0.718750
vt 0.062500 0.687500
vt 0.125000 0.687500
vt 0.125000 0.718750
vt 0.062500 0.718750
vt 0.000000 0.687500
vt 0.062500 0.750000
vt 0.000000 0.750000
vn -0.7071 0.0000 -0.7071
vn 0.7071 0.0000 -0.7071
vn 0.7071 0.0000 0.7071
vn -0.7071 0.0000 0.7071
vn 0.0000 -1.0000 -0.0000
usemtl m_9a46b0ad-d7e3-687e-5648-1b73dea6a1b4
s 1
f 132/244/73 133/245/73 134/246/73 135/247/73
f 136/248/74 132/249/74 135/250/74 137/251/74
f 138/252/75 136/253/75 137/254/75 139/255/75
f 133/256/76 138/257/76 139/258/76 134/259/76
f 133/260/77 132/244/77 136/261/77 138/262/77
o cube.001
v 0.577099 -0.000000 0.657093
v 0.633743 -0.000000 0.683506
v 0.633743 0.031250 0.683506
v 0.577099 0.031250 0.657093
v 0.603513 -0.000000 0.600448
v 0.603513 0.031250 0.600448
v 0.660157 -0.000000 0.626862
v 0.660157 0.031250 0.626862
vt 0.062500 0.687500
vt 0.125000 0.687500
vt 0.125000 0.718750
vt 0.062500 0.718750
vt 0.062500 0.687500
vt 0.125000 0.687500
vt 0.125000 0.718750
vt 0.062500 0.718750
vt 0.062500 0.687500
vt 0.125000 0.687500
vt 0.125000 0.718750
vt 0.062500 0.718750
vt 0.062500 0.687500
vt 0.125000 0.687500
vt 0.125000 0.718750
vt 0.062500 0.718750
vt 0.000000 0.687500
vt 0.062500 0.750000
vt 0.000000 0.750000
vn -0.4226 0.0000 0.9063
vn -0.9063 0.0000 -0.4226
vn 0.4226 0.0000 -0.9063
vn 0.9063 0.0000 0.4226
vn 0.0000 -1.0000 -0.0000
usemtl m_9a46b0ad-d7e3-687e-5648-1b73dea6a1b4
s 1
f 140/263/78 141/264/78 142/265/78 143/266/78
f 144/267/79 140/268/79 143/269/79 145/270/79
f 146/271/80 144/272/80 145/273/80 147/274/80
f 141/275/81 146/276/81 147/277/81 142/278/81
f 141/279/82 140/263/82 144/280/82 146/281/82
o cube.002
v 0.500000 0.500000 0.812500
v 0.500000 0.500000 0.187500
v 0.500000 0.781250 0.187500
v 0.500000 0.781250 0.812500
v 0.500000 0.500000 0.187500
v 0.500000 0.500000 0.812500
v 0.500000 0.781250 0.812500
v 0.500000 0.781250 0.187500
vt 0.375000 0.437500
vt 1.000000 0.437500
vt 1.000000 0.718750
vt 0.375000 0.718750
vt 0.375000 0.437500
vt 1.000000 0.437500
vt 1.000000 0.718750
vt 0.375000 0.718750
vn 1.0000 0.0000 0.0000
vn -1.0000 0.0000 0.0000
usemtl m_9a46b0ad-d7e3-687e-5648-1b73dea6a1b4
s 1
f 148/282/83 149/283/83 150/284/83 151/285/83
f 152/286/84 153/287/84 154/288/84 155/289/84
o cube.003
v 0.659458 -0.000000 0.374935
v 0.635541 -0.000000 0.317192
v 0.635541 0.031250 0.317192
v 0.659458 0.031250 0.374935
v 0.601716 -0.000000 0.398853
v 0.601716 0.031250 0.398853
v 0.577798 -0.000000 0.341110
v 0.577798 0.031250 0.341110
vt 0.062500 0.687500
vt 0.125000 0.687500
vt 0.125000 0.718750
vt 0.062500 0.718750
vt 0.062500 0.687500
vt 0.125000 0.687500
vt 0.125000 0.718750
vt 0.062500 0.718750
vt 0.062500 0.687500
vt 0.125000 0.687500
vt 0.125000 0.718750
vt 0.062500 0.718750
vt 0.062500 0.687500
vt 0.125000 0.687500
vt 0.125000 0.718750
vt 0.062500 0.718750
vt 0.000000 0.687500
vt 0.062500 0.750000
vt 0.000000 0.750000
vn 0.9239 0.0000 -0.3827
vn 0.3827 0.0000 0.9239
vn -0.9239 0.0000 0.3827
vn -0.3827 0.0000 -0.9239
vn 0.0000 -1.0000 -0.0000
usemtl m_9a46b0ad-d7e3-687e-5648-1b73dea6a1b4
s 1
f 156/290/85 157/291/85 158/292/85 159/293/85
f 160/294/86 156/295/86 159/296/86 161/297/86
f 162/298/87 160/299/87 161/300/87 163/301/87
f 157/302/88 162/303/88 163/304/88 158/305/88
f 157/306/89 156/290/89 160/307/89 162/308/89
