# Blender v3.2.2 OBJ File: ''
# www.blender.org
mtllib bronze_lantern.mtl
o cube
v 0.659458 -0.031250 0.374935
v 0.635541 -0.031250 0.317192
v 0.635541 -0.000000 0.317192
v 0.659458 -0.000000 0.374935
v 0.601716 -0.031250 0.398853
v 0.601716 -0.000000 0.398853
v 0.577798 -0.031250 0.341110
v 0.577798 -0.000000 0.341110
vt 0.062500 0.687500
vt 0.125000 0.687500
vt 0.125000 0.718750
vt 0.062500 0.718750
vt 0.062500 0.687500
vt 0.125000 0.687500
vt 0.125000 0.718750
vt 0.062500 0.718750
vt 0.062500 0.687500
vt 0.125000 0.687500
vt 0.125000 0.718750
vt 0.062500 0.718750
vt 0.062500 0.687500
vt 0.125000 0.687500
vt 0.125000 0.718750
vt 0.062500 0.718750
vt 0.000000 0.687500
vt 0.062500 0.750000
vt 0.000000 0.750000
vn 0.9239 0.0000 -0.3827
vn 0.3827 0.0000 0.9239
vn -0.9239 0.0000 0.3827
vn -0.3827 0.0000 -0.9239
vn 0.0000 -1.0000 -0.0000
usemtl m_9a46b0ad-d7e3-687e-5648-1b73dea6a1b4
s 1
f 1/1/1 2/2/1 3/3/1 4/4/1
f 5/5/2 1/6/2 4/7/2 6/8/2
f 7/9/3 5/10/3 6/11/3 8/12/3
f 2/13/4 7/14/4 8/15/4 3/16/4
f 2/17/5 1/1/5 5/18/5 7/19/5
o cube.000
v 0.500000 0.468750 0.812500
v 0.500000 0.468750 0.187500
v 0.500000 0.750000 0.187500
v 0.500000 0.750000 0.812500
v 0.500000 0.468750 0.187500
v 0.500000 0.468750 0.812500
v 0.500000 0.750000 0.812500
v 0.500000 0.750000 0.187500
vt 0.375000 0.437500
vt 1.000000 0.437500
vt 1.000000 0.718750
vt 0.375000 0.718750
vt 0.375000 0.437500
vt 1.000000 0.437500
vt 1.000000 0.718750
vt 0.375000 0.718750
vn 1.0000 0.0000 0.0000
vn -1.0000 0.0000 0.0000
usemtl m_9a46b0ad-d7e3-687e-5648-1b73dea6a1b4
s 1
f 9/20/6 10/21/6 11/22/6 12/23/6
f 13/24/7 14/25/7 15/26/7 16/27/7
o cube.001
v 0.577099 -0.031250 0.657093
v 0.633743 -0.031250 0.683506
v 0.633743 -0.000000 0.683506
v 0.577099 -0.000000 0.657093
v 0.603513 -0.031250 0.600448
v 0.603513 -0.000000 0.600448
v 0.660157 -0.031250 0.626862
v 0.660157 -0.000000 0.626862
vt 0.062500 0.687500
vt 0.125000 0.687500
vt 0.125000 0.718750
vt 0.062500 0.718750
vt 0.062500 0.687500
vt 0.125000 0.687500
vt 0.125000 0.718750
vt 0.062500 0.718750
vt 0.062500 0.687500
vt 0.125000 0.687500
vt 0.125000 0.718750
vt 0.062500 0.718750
vt 0.062500 0.687500
vt 0.125000 0.687500
vt 0.125000 0.718750
vt 0.062500 0.718750
vt 0.000000 0.687500
vt 0.062500 0.750000
vt 0.000000 0.750000
vn -0.4226 0.0000 0.9063
vn -0.9063 0.0000 -0.4226
vn 0.4226 0.0000 -0.9063
vn 0.9063 0.0000 0.4226
vn 0.0000 -1.0000 -0.0000
usemtl m_9a46b0ad-d7e3-687e-5648-1b73dea6a1b4
s 1
f 17/28/8 18/29/8 19/30/8 20/31/8
f 21/32/9 17/33/9 20/34/9 22/35/9
f 23/36/10 21/37/10 22/38/10 24/39/10
f 18/40/11 23/41/11 24/42/11 19/43/11
f 18/44/12 17/28/12 21/45/12 23/46/12
o cube.002
v 0.312500 -0.031250 0.455806
v 0.268306 -0.031250 0.500000
v 0.268306 -0.000000 0.500000
v 0.312500 -0.000000 0.455806
v 0.356694 -0.031250 0.500000
v 0.356694 -0.000000 0.500000
v 0.312500 -0.031250 0.544194
v 0.312500 -0.000000 0.544194
vt 0.062500 0.687500
vt 0.125000 0.687500
vt 0.125000 0.718750
vt 0.062500 0.718750
vt 0.062500 0.687500
vt 0.125000 0.687500
vt 0.125000 0.718750
vt 0.062500 0.718750
vt 0.062500 0.687500
vt 0.125000 0.687500
vt 0.125000 0.718750
vt 0.062500 0.718750
vt 0.062500 0.687500
vt 0.125000 0.687500
vt 0.125000 0.718750
vt 0.062500 0.718750
vt 0.000000 0.687500
vt 0.062500 0.750000
vt 0.000000 0.750000
vn -0.7071 0.0000 -0.7071
vn 0.7071 0.0000 -0.7071
vn 0.7071 0.0000 0.7071
vn -0.7071 0.0000 0.7071
vn 0.0000 -1.0000 -0.0000
usemtl m_9a46b0ad-d7e3-687e-5648-1b73dea6a1b4
s 1
f 25/47/13 26/48/13 27/49/13 28/50/13
f 29/51/14 25/52/14 28/53/14 30/54/14
f 31/55/15 29/56/15 30/57/15 32/58/15
f 26/59/16 31/60/16 32/61/16 27/62/16
f 26/63/17 25/47/17 29/64/17 31/65/17
o cube.003
v 0.531250 0.062500 0.250000
v 0.468750 0.062500 0.250000
v 0.468750 0.500000 0.250000
v 0.531250 0.500000 0.250000
v 0.531250 0.062500 0.750000
v 0.531250 0.500000 0.750000
v 0.468750 0.062500 0.750000
v 0.468750 0.500000 0.750000
vt 0.875000 0.000000
vt 0.937500 0.000000
vt 0.937500 0.437500
vt 0.875000 0.437500
vt 0.437500 0.000000
vt 0.906250 0.000000
vt 0.906250 0.437500
vt 0.437500 0.437500
vt 0.500000 0.000000
vt 0.500000 0.437500
vt 0.437500 0.000000
vt 0.906250 0.000000
vt 0.906250 0.437500
vt 0.437500 0.437500
vn 0.0000 0.0000 -1.0000
vn 1.0000 0.0000 0.0000
vn 0.0000 -0.0000 1.0000
vn -1.0000 0.0000 0.0000
usemtl m_9a46b0ad-d7e3-687e-5648-1b73dea6a1b4
s 1
f 33/66/18 34/67/18 35/68/18 36/69/18
f 37/70/19 33/71/19 36/72/19 38/73/19
f 39/74/20 37/70/20 38/73/20 40/75/20
f 34/76/21 39/77/21 40/78/21 35/79/21
o cylinder
v 0.590609 0.062500 0.718750
v 0.718750 0.062500 0.590609
v 0.718750 0.500000 0.590609
v 0.590609 0.500000 0.718750
v 0.718750 0.062500 0.409391
v 0.718750 0.500000 0.409391
v 0.590609 0.062500 0.281250
v 0.590609 0.500000 0.281250
v 0.409391 0.062500 0.281250
v 0.409391 0.500000 0.281250
v 0.281250 0.062500 0.409391
v 0.281250 0.500000 0.409391
v 0.281250 0.062500 0.590609
v 0.281250 0.500000 0.590609
v 0.409391 0.062500 0.718750
v 0.409391 0.500000 0.718750
vt 0.187500 0.093750
vt 0.375000 0.093750
vt 0.375000 0.531250
vt 0.187500 0.531250
vt 0.000000 0.093750
vt 0.187500 0.093750
vt 0.187500 0.531250
vt 0.000000 0.531250
vt 0.375000 0.093750
vt 0.375000 0.531250
vt 0.593750 0.031250
vt 0.781250 0.031250
vt 0.781250 0.468750
vt 0.593750 0.468750
vt 0.187500 0.093750
vt 0.375000 0.093750
vt 0.375000 0.531250
vt 0.187500 0.531250
vt 0.000000 0.093750
vt 0.187500 0.093750
vt 0.187500 0.531250
vt 0.000000 0.531250
vt 0.375000 0.093750
vt 0.375000 0.531250
vt 0.593750 0.031250
vt 0.781250 0.031250
vt 0.781250 0.468750
vt 0.593750 0.468750
vn 0.7071 -0.0000 0.7071
vn 1.0000 0.0000 0.0000
vn 0.7071 0.0000 -0.7071
vn 0.0000 0.0000 -1.0000
vn -0.7071 0.0000 -0.7071
vn -1.0000 0.0000 0.0000
vn -0.7071 -0.0000 0.7071
vn 0.0000 -0.0000 1.0000
usemtl m_9a46b0ad-d7e3-687e-5648-1b73dea6a1b4
s 1
f 41/80/22 42/81/22 43/82/22 44/83/22
f 42/84/23 45/85/23 46/86/23 43/87/23
f 45/85/24 47/88/24 48/89/24 46/86/24
f 47/90/25 49/91/25 50/92/25 48/93/25
f 49/94/26 51/95/26 52/96/26 50/97/26
f 51/98/27 53/99/27 54/100/27 52/101/27
f 53/99/28 55/102/28 56/103/28 54/100/28
f 55/104/29 41/105/29 44/106/29 56/107/29
o cylinder.000
v 0.604714 0.031250 0.755469
v 0.753906 0.031250 0.606276
v 0.753906 0.062500 0.606276
v 0.604714 0.062500 0.755469
v 0.753906 0.031250 0.395286
v 0.753906 0.062500 0.395286
v 0.604714 0.031250 0.246094
v 0.604714 0.062500 0.246094
v 0.393724 0.031250 0.246094
v 0.393724 0.062500 0.246094
v 0.244531 0.031250 0.395286
v 0.244531 0.062500 0.395286
v 0.244531 0.031250 0.606276
v 0.244531 0.062500 0.606276
v 0.393724 0.031250 0.755469
v 0.393724 0.062500 0.755469
vt 0.218750 0.031250
vt 0.437500 0.031250
vt 0.437500 0.062500
vt 0.218750 0.062500
vt 0.000000 0.031250
vt 0.218750 0.031250
vt 0.218750 0.062500
vt 0.000000 0.062500
vt 0.437500 0.031250
vt 0.437500 0.062500
vt 0.000000 0.031250
vt 0.218750 0.031250
vt 0.218750 0.062500
vt 0.000000 0.062500
vt 0.437500 0.031250
vt 0.437500 0.062500
vt 0.000000 0.031250
vt 0.218750 0.031250
vt 0.218750 0.062500
vt 0.000000 0.062500
vt 0.437500 0.031250
vt 0.437500 0.062500
vt 0.000000 0.031250
vt 0.000000 0.062500
vn 0.7071 0.0000 0.7071
vn 1.0000 0.0000 0.0000
vn 0.7071 0.0000 -0.7071
vn 0.0000 0.0000 -1.0000
vn -0.7071 0.0000 -0.7071
vn -1.0000 0.0000 0.0000
vn -0.7071 0.0000 0.7071
vn 0.0000 0.0000 1.0000
usemtl m_9a46b0ad-d7e3-687e-5648-1b73dea6a1b4
s 1
f 57/108/30 58/109/30 59/110/30 60/111/30
f 58/112/31 61/113/31 62/114/31 59/115/31
f 61/113/32 63/116/32 64/117/32 62/114/32
f 63/118/33 65/119/33 66/120/33 64/121/33
f 65/119/34 67/122/34 68/123/34 66/120/34
f 67/124/35 69/125/35 70/126/35 68/127/35
f 69/125/36 71/128/36 72/129/36 70/126/36
f 71/130/37 57/108/37 60/111/37 72/131/37
o cylinder.001
v 0.593198 0.062500 0.725000
v 0.725000 0.062500 0.593198
v 0.725000 0.093750 0.593198
v 0.593198 0.093750 0.725000
v 0.725000 0.062500 0.406802
v 0.725000 0.093750 0.406802
v 0.593198 0.062500 0.275000
v 0.593198 0.093750 0.275000
v 0.406802 0.062500 0.275000
v 0.406802 0.093750 0.275000
v 0.275000 0.062500 0.406802
v 0.275000 0.093750 0.406802
v 0.275000 0.062500 0.593198
v 0.275000 0.093750 0.593198
v 0.406802 0.062500 0.725000
v 0.406802 0.093750 0.725000
vt 0.187500 0.062500
vt 0.375000 0.062500
vt 0.375000 0.093750
vt 0.187500 0.093750
vt 0.000000 0.062500
vt 0.187500 0.062500
vt 0.187500 0.093750
vt 0.000000 0.093750
vt 0.375000 0.062500
vt 0.375000 0.093750
vt 0.000000 0.062500
vt 0.187500 0.062500
vt 0.187500 0.093750
vt 0.000000 0.093750
vt 0.375000 0.062500
vt 0.375000 0.093750
vt 0.000000 0.062500
vt 0.187500 0.062500
vt 0.187500 0.093750
vt 0.000000 0.093750
vt 0.000000 0.062500
vt 0.000000 0.093750
vt 0.375000 0.062500
vt 0.375000 0.093750
vn 0.7071 0.0000 0.7071
vn 1.0000 0.0000 0.0000
vn 0.7071 0.0000 -0.7071
vn 0.0000 0.0000 -1.0000
vn -0.7071 0.0000 -0.7071
vn -1.0000 0.0000 0.0000
vn 0.0000 0.0000 1.0000
vn -0.7071 0.0000 0.7071
usemtl m_9a46b0ad-d7e3-687e-5648-1b73dea6a1b4
s 1
f 73/132/38 74/133/38 75/134/38 76/135/38
f 74/136/39 77/137/39 78/138/39 75/139/39
f 77/137/40 79/140/40 80/141/40 78/138/40
f 79/142/41 81/143/41 82/144/41 80/145/41
f 81/143/42 83/146/42 84/147/42 82/144/42
f 83/148/43 85/149/43 86/150/43 84/151/43
f 87/152/44 73/132/44 76/135/44 88/153/44
f 85/149/45 87/154/45 88/155/45 86/150/45
o cylinder.002
v 0.593198 0.468750 0.725000
v 0.725000 0.468750 0.593198
v 0.725000 0.500000 0.593198
v 0.593198 0.500000 0.725000
v 0.725000 0.468750 0.406802
v 0.725000 0.500000 0.406802
v 0.593198 0.468750 0.275000
v 0.593198 0.500000 0.275000
v 0.406802 0.468750 0.275000
v 0.406802 0.500000 0.275000
v 0.275000 0.468750 0.406802
v 0.275000 0.500000 0.406802
v 0.275000 0.468750 0.593198
v 0.275000 0.500000 0.593198
v 0.406802 0.468750 0.725000
v 0.406802 0.500000 0.725000
vt 0.187500 0.531250
vt 0.375000 0.531250
vt 0.375000 0.562500
vt 0.187500 0.562500
vt 0.000000 0.531250
vt 0.187500 0.531250
vt 0.187500 0.562500
vt 0.000000 0.562500
vt 0.375000 0.531250
vt 0.375000 0.562500
vt 0.000000 0.531250
vt 0.187500 0.531250
vt 0.187500 0.562500
vt 0.000000 0.562500
vt 0.375000 0.531250
vt 0.375000 0.562500
vt 0.000000 0.531250
vt 0.187500 0.531250
vt 0.187500 0.562500
vt 0.000000 0.562500
vt 0.000000 0.531250
vt 0.000000 0.562500
vt 0.375000 0.531250
vt 0.375000 0.562500
vn 0.7071 0.0000 0.7071
vn 1.0000 0.0000 0.0000
vn 0.7071 0.0000 -0.7071
vn 0.0000 0.0000 -1.0000
vn -0.7071 0.0000 -0.7071
vn -1.0000 0.0000 0.0000
vn 0.0000 0.0000 1.0000
vn -0.7071 0.0000 0.7071
usemtl m_9a46b0ad-d7e3-687e-5648-1b73dea6a1b4
s 1
f 89/156/46 90/157/46 91/158/46 92/159/46
f 90/160/47 93/161/47 94/162/47 91/163/47
f 93/161/48 95/164/48 96/165/48 94/162/48
f 95/166/49 97/167/49 98/168/49 96/169/49
f 97/167/50 99/170/50 100/171/50 98/168/50
f 99/172/51 101/173/51 102/174/51 100/175/51
f 103/176/52 89/156/52 92/159/52 104/177/52
f 101/173/53 103/178/53 104/179/53 102/174/53
o cylinder.003
v 0.605495 0.500000 0.754688
v 0.754687 0.500000 0.605495
v 0.754687 0.531250 0.605495
v 0.605495 0.531250 0.754688
v 0.754687 0.500000 0.394505
v 0.754687 0.531250 0.394505
v 0.605495 0.500000 0.245313
v 0.605495 0.531250 0.245313
v 0.394505 0.500000 0.245313
v 0.394505 0.531250 0.245313
v 0.245312 0.500000 0.394505
v 0.245312 0.531250 0.394505
v 0.245312 0.500000 0.605495
v 0.245312 0.531250 0.605495
v 0.394505 0.500000 0.754688
v 0.394505 0.531250 0.754688
vt 0.218750 0.343750
vt 0.437500 0.343750
vt 0.437500 0.375000
vt 0.218750 0.375000
vt 0.218750 0.000000
vt 0.437500 0.000000
vt 0.437500 0.031250
vt 0.218750 0.031250
vt 0.000000 0.000000
vt 0.218750 0.000000
vt 0.218750 0.031250
vt 0.000000 0.031250
vt 0.000000 0.218750
vt 0.218750 0.218750
vt 0.218750 0.250000
vt 0.000000 0.250000
vt 0.000000 0.343750
vt 0.218750 0.343750
vt 0.218750 0.375000
vt 0.000000 0.375000
vt 0.218750 0.218750
vt 0.437500 0.218750
vt 0.437500 0.250000
vt 0.218750 0.250000
vt 0.000000 0.000000
vt 0.218750 0.000000
vt 0.218750 0.031250
vt 0.000000 0.031250
vt 0.437500 0.000000
vt 0.437500 0.031250
vn 0.7071 0.0000 0.7071
vn 1.0000 0.0000 0.0000
vn 0.7071 0.0000 -0.7071
vn 0.0000 0.0000 -1.0000
vn -0.7071 0.0000 -0.7071
vn -1.0000 0.0000 0.0000
vn -0.7071 0.0000 0.7071
vn 0.0000 0.0000 1.0000
usemtl m_0c1094a8-5054-25cc-f461-bb0f198ede63
s 1
f 105/180/54 106/181/54 107/182/54 108/183/54
f 106/184/55 109/185/55 110/186/55 107/187/55
f 109/188/56 111/189/56 112/190/56 110/191/56
f 111/192/57 113/193/57 114/194/57 112/195/57
f 113/196/58 115/197/58 116/198/58 114/199/58
f 115/200/59 117/201/59 118/202/59 116/203/59
f 117/204/60 119/205/60 120/206/60 118/207/60
f 119/205/61 105/208/61 108/209/61 120/206/61
o cylinder.004
v 0.750000 0.500000 0.603553
v 0.603553 0.500000 0.750000
v 0.500000 0.500000 0.500000
v 0.750000 0.593750 0.603554
v 0.603553 0.593750 0.750000
v 0.750000 0.500000 0.396447
v 0.750000 0.593750 0.396447
v 0.603553 0.500000 0.250000
v 0.603553 0.593750 0.250000
v 0.396447 0.500000 0.250000
v 0.396447 0.593750 0.250000
v 0.250000 0.500000 0.396447
v 0.250000 0.593750 0.396447
v 0.250000 0.500000 0.603553
v 0.250000 0.593750 0.603554
v 0.396447 0.500000 0.750000
v 0.396447 0.593750 0.750000
v 0.564721 0.656250 0.343750
v 0.656250 0.656250 0.435279
v 0.435279 0.656250 0.343750
v 0.343750 0.656250 0.435279
v 0.343750 0.656250 0.564721
v 0.435279 0.656250 0.656250
v 0.564721 0.656250 0.656250
v 0.656250 0.656250 0.564721
vt 1.000000 0.353553
vt 0.853553 0.500000
vt 0.750000 0.250000
vt 0.218750 0.343750
vt 0.437500 0.343750
vt 0.437500 0.437500
vt 0.218750 0.437500
vt 1.000000 0.146447
vt 0.218750 0.000000
vt 0.437500 0.000000
vt 0.437500 0.093750
vt 0.218750 0.093750
vt 0.853553 0.000000
vt 0.000000 0.000000
vt 0.218750 0.000000
vt 0.218750 0.093750
vt 0.000000 0.093750
vt 0.646447 0.000000
vt 0.000000 0.218750
vt 0.218750 0.218750
vt 0.218750 0.312500
vt 0.000000 0.312500
vt 0.500000 0.146447
vt 0.000000 0.343750
vt 0.218750 0.343750
vt 0.218750 0.437500
vt 0.000000 0.437500
vt 0.500000 0.353553
vt 0.218750 0.218750
vt 0.437500 0.218750
vt 0.437500 0.312500
vt 0.218750 0.312500
vt 0.646447 0.500000
vt 0.000000 0.093750
vt 0.218750 0.093750
vt 0.218750 0.187500
vt 0.000000 0.187500
vt 0.000000 0.000000
vt 0.218750 0.000000
vt 0.218750 0.093750
vt 0.000000 0.093750
vt 0.334391 0.900391
vt 0.431641 0.803141
vt 0.531250 0.844400
vt 0.375650 1.000000
vt 0.196859 0.900391
vt 0.155600 1.000000
vt 0.099609 0.803141
vt 0.000000 0.844400
vt 0.099609 0.665609
vt 0.000000 0.624350
vt 0.196859 0.568359
vt 0.155600 0.468750
vt 0.334391 0.568359
vt 0.375650 0.468750
vt 0.431641 0.665609
vt 0.531250 0.624350
vn 0.0000 -1.0000 -0.0000
vn 0.7071 -0.0000 0.7071
vn 1.0000 0.0000 0.0000
vn 0.7071 0.0000 -0.7071
vn 0.0000 0.0000 -1.0000
vn -0.7071 0.0000 -0.7071
vn -1.0000 0.0000 0.0000
vn -0.7071 -0.0000 0.7071
vn 0.0000 -0.0000 1.0000
vn 0.3922 0.8321 -0.3922
vn 0.0000 0.8321 -0.5547
vn -0.3922 0.8321 -0.3922
vn -0.5547 0.8321 0.0000
vn -0.3922 0.8321 0.3922
vn 0.0000 0.8321 0.5547
vn 0.3922 0.8321 0.3922
vn 0.5547 0.8321 0.0000
vn -0.0000 1.0000 0.0000
usemtl m_0c1094a8-5054-25cc-f461-bb0f198ede63
s 1
f 121/210/62 122/211/62 123/212/62
f 122/213/63 121/214/63 124/215/63 125/216/63
f 126/217/62 121/210/62 123/212/62
f 121/218/64 126/219/64 127/220/64 124/221/64
f 128/222/62 126/217/62 123/212/62
f 126/223/65 128/224/65 129/225/65 127/226/65
f 130/227/62 128/222/62 123/212/62
f 128/228/66 130/229/66 131/230/66 129/231/66
f 132/232/62 130/227/62 123/212/62
f 130/233/67 132/234/67 133/235/67 131/236/67
f 134/237/62 132/232/62 123/212/62
f 132/238/68 134/239/68 135/240/68 133/241/68
f 136/242/62 134/237/62 123/212/62
f 134/243/69 136/244/69 137/245/69 135/246/69
f 122/211/62 136/242/62 123/212/62
f 136/247/70 122/248/70 125/249/70 137/250/70
f 138/251/71 139/252/71 127/253/71 129/254/71
f 140/255/72 138/251/72 129/254/72 131/256/72
f 141/257/73 140/255/73 131/256/73 133/258/73
f 142/259/74 141/257/74 133/258/74 135/260/74
f 143/261/75 142/259/75 135/260/75 137/262/75
f 144/263/76 143/261/76 137/262/76 125/264/76
f 145/265/77 144/263/77 125/264/77 124/266/77
f 139/252/78 145/265/78 124/266/78 127/253/78
f 140/255/79 141/257/79 142/259/79 143/261/79
f 143/261/79 144/263/79 145/265/79 139/252/79
f 139/252/79 138/251/79 140/255/79 143/261/79
o cylinder.005
v 0.750000 -0.000000 0.603553
v 0.603553 -0.000000 0.750000
v 0.500000 -0.000000 0.500000
v 0.750000 0.062500 0.603553
v 0.603553 0.062500 0.750000
v 0.500000 0.062500 0.500000
v 0.750000 -0.000000 0.396447
v 0.750000 0.062500 0.396447
v 0.603553 -0.000000 0.250000
v 0.603553 0.062500 0.250000
v 0.396447 -0.000000 0.250000
v 0.396447 0.062500 0.250000
v 0.250000 -0.000000 0.396447
v 0.250000 0.062500 0.396447
v 0.250000 -0.000000 0.603553
v 0.250000 0.062500 0.603553
v 0.396447 -0.000000 0.750000
v 0.396447 0.062500 0.750000
vt 1.000000 0.353553
vt 0.853553 0.500000
vt 0.750000 0.250000
vt 0.353553 0.500000
vt 0.500000 0.646447
vt 0.250000 0.750000
vt 1.000000 0.146447
vt 0.500000 0.853553
vt 0.853553 0.000000
vt 0.353553 1.000000
vt 0.646447 0.000000
vt 0.146447 1.000000
vt 0.500000 0.146447
vt 0.000000 0.853553
vt 0.500000 0.353553
vt 0.000000 0.646447
vt 0.646447 0.500000
vt 0.146447 0.500000
vt 0.218750 0.000000
vt 0.437500 0.000000
vt 0.437500 0.062500
vt 0.218750 0.062500
vt 0.000000 0.000000
vt 0.218750 0.000000
vt 0.218750 0.062500
vt 0.000000 0.062500
vt 0.437500 0.000000
vt 0.437500 0.062500
vt 0.000000 0.000000
vt 0.218750 0.000000
vt 0.218750 0.062500
vt 0.000000 0.062500
vt 0.437500 0.000000
vt 0.437500 0.062500
vt 0.000000 0.000000
vt 0.218750 0.000000
vt 0.218750 0.062500
vt 0.000000 0.062500
vt 0.437500 0.000000
vt 0.437500 0.062500
vt 0.000000 0.000000
vt 0.000000 0.062500
vn 0.0000 -1.0000 -0.0000
vn -0.0000 1.0000 0.0000
vn 0.7071 0.0000 0.7071
vn 1.0000 0.0000 0.0000
vn 0.7071 0.0000 -0.7071
vn 0.0000 0.0000 -1.0000
vn -0.7071 0.0000 -0.7071
vn -1.0000 0.0000 0.0000
vn -0.7071 0.0000 0.7071
vn 0.0000 0.0000 1.0000
usemtl m_0c1094a8-5054-25cc-f461-bb0f198ede63
s 1
f 146/267/80 147/268/80 148/269/80
f 150/270/81 149/271/81 151/272/81
f 152/273/80 146/267/80 148/269/80
f 149/271/81 153/274/81 151/272/81
f 154/275/80 152/273/80 148/269/80
f 153/274/81 155/276/81 151/272/81
f 156/277/80 154/275/80 148/269/80
f 155/276/81 157/278/81 151/272/81
f 158/279/80 156/277/80 148/269/80
f 157/278/81 159/280/81 151/272/81
f 160/281/80 158/279/80 148/269/80
f 159/280/81 161/282/81 151/272/81
f 162/283/80 160/281/80 148/269/80
f 161/282/81 163/284/81 151/272/81
f 147/268/80 162/283/80 148/269/80
f 163/284/81 150/270/81 151/272/81
usemtl m_9a46b0ad-d7e3-687e-5648-1b73dea6a1b4
f 147/285/82 146/286/82 149/287/82 150/288/82
f 146/289/83 152/290/83 153/291/83 149/292/83
f 152/290/84 154/293/84 155/294/84 153/291/84
f 154/295/85 156/296/85 157/297/85 155/298/85
f 156/296/86 158/299/86 159/300/86 157/297/86
f 158/301/87 160/302/87 161/303/87 159/304/87
f 160/302/88 162/305/88 163/306/88 161/303/88
f 162/307/89 147/285/89 150/288/89 163/308/89
o cube.004
v 0.562500 0.560615 0.770562
v 0.437500 0.560615 0.770562
v 0.437500 0.942365 0.631616
v 0.562500 0.942365 0.631616
v 0.437500 0.560615 0.770562
v 0.562500 0.560615 0.770562
v 0.562500 0.942365 0.631616
v 0.437500 0.942365 0.631616
vt 0.437500 0.546875
vt 0.562500 0.546875
vt 0.562500 0.937500
vt 0.437500 0.937500
vt 0.437500 0.546875
vt 0.562500 0.546875
vt 0.562500 0.937500
vt 0.437500 0.937500
vn 0.0000 -0.3420 -0.9397
vn 0.0000 0.3420 0.9397
usemtl m_9cec9e04-ca2d-808f-7df3-ef61decb810e
s 1
f 164/309/90 165/310/90 166/311/90 167/312/90
f 168/313/91 169/314/91 170/315/91 171/316/91
o cube.005
v 0.562500 0.560615 0.229438
v 0.437500 0.560615 0.229438
v 0.437500 0.942365 0.368384
v 0.562500 0.942365 0.368384
v 0.437500 0.560615 0.229438
v 0.562500 0.560615 0.229438
v 0.562500 0.942365 0.368384
v 0.437500 0.942365 0.368384
vt 0.437500 0.562500
vt 0.562500 0.562500
vt 0.562500 0.937500
vt 0.437500 0.937500
vt 0.437500 0.562500
vt 0.562500 0.562500
vt 0.562500 0.937500
vt 0.437500 0.937500
vn 0.0000 0.3420 -0.9397
vn 0.0000 -0.3420 0.9397
usemtl m_9cec9e04-ca2d-808f-7df3-ef61decb810e
s 1
f 172/317/92 173/318/92 174/319/92 175/320/92
f 176/321/93 177/322/93 178/323/93 179/324/93
o cube.006
v 0.566291 0.687500 0.433709
v 0.433709 0.687500 0.566291
v 0.433709 0.968750 0.566291
v 0.566291 0.968750 0.433709
v 0.433709 0.687500 0.566291
v 0.566291 0.687500 0.433709
v 0.566291 0.968750 0.433709
v 0.433709 0.968750 0.566291
vt 0.406250 0.062500
vt 0.593750 0.062500
vt 0.593750 0.343750
vt 0.406250 0.343750
vt 0.406250 0.062500
vt 0.593750 0.062500
vt 0.593750 0.343750
vt 0.406250 0.343750
vn -0.7071 0.0000 -0.7071
vn 0.7071 -0.0000 0.7071
usemtl m_9cec9e04-ca2d-808f-7df3-ef61decb810e
s 1
f 180/325/94 181/326/94 182/327/94 183/328/94
f 184/329/95 185/330/95 186/331/95 187/332/95
o cube.007
v 0.566291 0.687500 0.566291
v 0.433709 0.687500 0.433709
v 0.433709 0.968750 0.433709
v 0.566291 0.968750 0.566291
v 0.433709 0.687500 0.433709
v 0.566291 0.687500 0.566291
v 0.566291 0.968750 0.566291
v 0.433709 0.968750 0.433709
vt 0.406250 0.062500
vt 0.593750 0.062500
vt 0.593750 0.343750
vt 0.406250 0.343750
vt 0.406250 0.062500
vt 0.593750 0.062500
vt 0.593750 0.343750
vt 0.406250 0.343750
vn 0.7071 0.0000 -0.7071
vn -0.7071 -0.0000 0.7071
usemtl m_9cec9e04-ca2d-808f-7df3-ef61decb810e
s 1
f 188/333/96 189/334/96 190/335/96 191/336/96
f 192/337/97 193/338/97 194/339/97 195/340/97
o cube.008
v 0.531250 0.937500 0.375000
v 0.468750 0.937500 0.375000
v 0.468750 1.000000 0.375000
v 0.531250 1.000000 0.375000
v 0.531250 0.937500 0.625000
v 0.531250 1.000000 0.625000
v 0.468750 0.937500 0.625000
v 0.468750 1.000000 0.625000
vt 0.250000 0.937500
vt 0.312500 0.937500
vt 0.312500 1.000000
vt 0.250000 1.000000
vt 0.062500 0.937500
vt 0.312500 0.937500
vt 0.312500 1.000000
vt 0.062500 1.000000
vt 0.062500 0.937500
vt 0.125000 0.937500
vt 0.125000 1.000000
vt 0.062500 1.000000
vt 0.062500 0.937500
vt 0.312500 0.937500
vt 0.312500 1.000000
vt 0.062500 1.000000
vt 0.062500 0.937500
vt 0.312500 0.937500
vt 0.062500 1.000000
vt 0.062500 0.937500
vt 0.312500 0.937500
vt 0.312500 1.000000
vn 0.0000 0.0000 -1.0000
vn 1.0000 0.0000 0.0000
vn 0.0000 0.0000 1.0000
vn -1.0000 0.0000 0.0000
vn 0.0000 1.0000 0.0000
vn 0.0000 -1.0000 -0.0000
usemtl m_9a46b0ad-d7e3-687e-5648-1b73dea6a1b4
s 1
f 196/341/98 197/342/98 198/343/98 199/344/98
f 200/345/99 196/346/99 199/347/99 201/348/99
f 202/349/100 200/350/100 201/351/100 203/352/100
f 197/353/101 202/354/101 203/355/101 198/356/101
f 203/352/102 201/357/102 199/358/102 198/343/102
f 197/359/103 196/360/103 200/361/103 202/362/103
o cube.009
v 0.500000 0.875000 0.687500
v 0.500000 0.875000 0.312500
v 0.500000 1.000000 0.312500
v 0.500000 1.000000 0.687500
v 0.500000 0.875000 0.312500
v 0.500000 0.875000 0.687500
v 0.500000 1.000000 0.687500
v 0.500000 1.000000 0.312500
vt 0.000000 0.875000
vt 0.375000 0.875000
vt 0.375000 1.000000
vt 0.000000 1.000000
vt 0.000000 0.875000
vt 0.375000 0.875000
vt 0.375000 1.000000
vt 0.000000 1.000000
vn 1.0000 0.0000 0.0000
vn -1.0000 0.0000 0.0000
usemtl m_9a46b0ad-d7e3-687e-5648-1b73dea6a1b4
s 1
f 204/363/104 205/364/104 206/365/104 207/366/104
f 208/367/105 209/368/105 210/369/105 211/370/105
