# Blender v3.2.2 OBJ File: ''
# www.blender.org
mtllib bronze_lantern.mtl
o cube
v 0.949996 1.000000 0.050004
v 0.050004 1.000000 0.949996
v 0.050004 2.000000 0.949996
v 0.949996 2.000000 0.050005
v 0.050004 1.000000 0.949996
v 0.949996 1.000000 0.050004
v 0.949996 2.000000 0.050005
v 0.050004 2.000000 0.949996
vt 0.000000 0.000000
vt 1.000000 0.000000
vt 1.000000 1.000000
vt 0.000000 1.000000
vt 0.000000 0.000000
vt 1.000000 0.000000
vt 1.000000 1.000000
vt 0.000000 1.000000
vn -0.7071 0.0000 -0.7071
vn 0.7071 -0.0000 0.7071
usemtl m_9cec9e04-ca2d-808f-7df3-ef61decb810e
s 1
f 1/1/1 2/2/1 3/3/1 4/4/1
f 5/5/2 6/6/2 7/7/2 8/8/2
o cube.000
v 0.949996 1.000000 0.949996
v 0.050004 1.000000 0.050004
v 0.050004 2.000000 0.050005
v 0.949996 2.000000 0.949996
v 0.050004 1.000000 0.050004
v 0.949996 1.000000 0.949996
v 0.949996 2.000000 0.949996
v 0.050004 2.000000 0.050005
vt 0.000000 0.000000
vt 1.000000 0.000000
vt 1.000000 1.000000
vt 0.000000 1.000000
vt 0.000000 0.000000
vt 1.000000 0.000000
vt 1.000000 1.000000
vt 0.000000 1.000000
vn 0.7071 0.0000 -0.7071
vn -0.7071 -0.0000 0.7071
usemtl m_9cec9e04-ca2d-808f-7df3-ef61decb810e
s 1
f 9/9/3 10/10/3 11/11/3 12/12/3
f 13/13/4 14/14/4 15/15/4 16/16/4
o cube.001
v 0.659458 -0.031250 0.374935
v 0.635541 -0.031250 0.317192
v 0.635541 -0.000000 0.317192
v 0.659458 -0.000000 0.374935
v 0.601716 -0.031250 0.398853
v 0.601716 -0.000000 0.398853
v 0.577798 -0.031250 0.341110
v 0.577798 -0.000000 0.341110
vt 0.062500 0.687500
vt 0.125000 0.687500
vt 0.125000 0.718750
vt 0.062500 0.718750
vt 0.062500 0.687500
vt 0.125000 0.687500
vt 0.125000 0.718750
vt 0.062500 0.718750
vt 0.062500 0.687500
vt 0.125000 0.687500
vt 0.125000 0.718750
vt 0.062500 0.718750
vt 0.062500 0.687500
vt 0.125000 0.687500
vt 0.125000 0.718750
vt 0.062500 0.718750
vt 0.000000 0.687500
vt 0.062500 0.750000
vt 0.000000 0.750000
vn 0.9239 0.0000 -0.3827
vn 0.3827 0.0000 0.9239
vn -0.9239 0.0000 0.3827
vn -0.3827 0.0000 -0.9239
vn 0.0000 -1.0000 -0.0000
usemtl m_9a46b0ad-d7e3-687e-5648-1b73dea6a1b4
s 1
f 17/17/5 18/18/5 19/19/5 20/20/5
f 21/21/6 17/22/6 20/23/6 22/24/6
f 23/25/7 21/26/7 22/27/7 24/28/7
f 18/29/8 23/30/8 24/31/8 19/32/8
f 18/33/9 17/17/9 21/34/9 23/35/9
o cube.002
v 0.500000 0.468750 0.812500
v 0.500000 0.468750 0.187500
v 0.500000 0.750000 0.187500
v 0.500000 0.750000 0.812500
v 0.500000 0.468750 0.187500
v 0.500000 0.468750 0.812500
v 0.500000 0.750000 0.812500
v 0.500000 0.750000 0.187500
vt 0.375000 0.437500
vt 1.000000 0.437500
vt 1.000000 0.718750
vt 0.375000 0.718750
vt 0.375000 0.437500
vt 1.000000 0.437500
vt 1.000000 0.718750
vt 0.375000 0.718750
vn 1.0000 0.0000 0.0000
vn -1.0000 0.0000 0.0000
usemtl m_9a46b0ad-d7e3-687e-5648-1b73dea6a1b4
s 1
f 25/36/10 26/37/10 27/38/10 28/39/10
f 29/40/11 30/41/11 31/42/11 32/43/11
o cube.003
v 0.577099 -0.031250 0.657093
v 0.633743 -0.031250 0.683506
v 0.633743 -0.000000 0.683506
v 0.577099 -0.000000 0.657093
v 0.603513 -0.031250 0.600448
v 0.603513 -0.000000 0.600448
v 0.660157 -0.031250 0.626862
v 0.660157 -0.000000 0.626862
vt 0.062500 0.687500
vt 0.125000 0.687500
vt 0.125000 0.718750
vt 0.062500 0.718750
vt 0.062500 0.687500
vt 0.125000 0.687500
vt 0.125000 0.718750
vt 0.062500 0.718750
vt 0.062500 0.687500
vt 0.125000 0.687500
vt 0.125000 0.718750
vt 0.062500 0.718750
vt 0.062500 0.687500
vt 0.125000 0.687500
vt 0.125000 0.718750
vt 0.062500 0.718750
vt 0.000000 0.687500
vt 0.062500 0.750000
vt 0.000000 0.750000
vn -0.4226 0.0000 0.9063
vn -0.9063 0.0000 -0.4226
vn 0.4226 0.0000 -0.9063
vn 0.9063 0.0000 0.4226
vn 0.0000 -1.0000 -0.0000
usemtl m_9a46b0ad-d7e3-687e-5648-1b73dea6a1b4
s 1
f 33/44/12 34/45/12 35/46/12 36/47/12
f 37/48/13 33/49/13 36/50/13 38/51/13
f 39/52/14 37/53/14 38/54/14 40/55/14
f 34/56/15 39/57/15 40/58/15 35/59/15
f 34/60/16 33/44/16 37/61/16 39/62/16
o cube.004
v 0.312500 -0.031250 0.455806
v 0.268306 -0.031250 0.500000
v 0.268306 -0.000000 0.500000
v 0.312500 -0.000000 0.455806
v 0.356694 -0.031250 0.500000
v 0.356694 -0.000000 0.500000
v 0.312500 -0.031250 0.544194
v 0.312500 -0.000000 0.544194
vt 0.062500 0.687500
vt 0.125000 0.687500
vt 0.125000 0.718750
vt 0.062500 0.718750
vt 0.062500 0.687500
vt 0.125000 0.687500
vt 0.125000 0.718750
vt 0.062500 0.718750
vt 0.062500 0.687500
vt 0.125000 0.687500
vt 0.125000 0.718750
vt 0.062500 0.718750
vt 0.062500 0.687500
vt 0.125000 0.687500
vt 0.125000 0.718750
vt 0.062500 0.718750
vt 0.000000 0.687500
vt 0.062500 0.750000
vt 0.000000 0.750000
vn -0.7071 0.0000 -0.7071
vn 0.7071 0.0000 -0.7071
vn 0.7071 0.0000 0.7071
vn -0.7071 0.0000 0.7071
vn 0.0000 -1.0000 -0.0000
usemtl m_9a46b0ad-d7e3-687e-5648-1b73dea6a1b4
s 1
f 41/63/17 42/64/17 43/65/17 44/66/17
f 45/67/18 41/68/18 44/69/18 46/70/18
f 47/71/19 45/72/19 46/73/19 48/74/19
f 42/75/20 47/76/20 48/77/20 43/78/20
f 42/79/21 41/63/21 45/80/21 47/81/21
o cube.005
v 0.531250 0.062500 0.250000
v 0.468750 0.062500 0.250000
v 0.468750 0.500000 0.250000
v 0.531250 0.500000 0.250000
v 0.531250 0.062500 0.750000
v 0.531250 0.500000 0.750000
v 0.468750 0.062500 0.750000
v 0.468750 0.500000 0.750000
vt 0.875000 0.000000
vt 0.937500 0.000000
vt 0.937500 0.437500
vt 0.875000 0.437500
vt 0.437500 0.000000
vt 0.906250 0.000000
vt 0.906250 0.437500
vt 0.437500 0.437500
vt 0.500000 0.000000
vt 0.500000 0.437500
vt 0.437500 0.000000
vt 0.906250 0.000000
vt 0.906250 0.437500
vt 0.437500 0.437500
vn 0.0000 0.0000 -1.0000
vn 1.0000 0.0000 0.0000
vn 0.0000 -0.0000 1.0000
vn -1.0000 0.0000 0.0000
usemtl m_9a46b0ad-d7e3-687e-5648-1b73dea6a1b4
s 1
f 49/82/22 50/83/22 51/84/22 52/85/22
f 53/86/23 49/87/23 52/88/23 54/89/23
f 55/90/24 53/86/24 54/89/24 56/91/24
f 50/92/25 55/93/25 56/94/25 51/95/25
o cylinder
v 0.590609 0.062500 0.718750
v 0.718750 0.062500 0.590609
v 0.718750 0.500000 0.590609
v 0.590609 0.500000 0.718750
v 0.718750 0.062500 0.409391
v 0.718750 0.500000 0.409391
v 0.590609 0.062500 0.281250
v 0.590609 0.500000 0.281250
v 0.409391 0.062500 0.281250
v 0.409391 0.500000 0.281250
v 0.281250 0.062500 0.409391
v 0.281250 0.500000 0.409391
v 0.281250 0.062500 0.590609
v 0.281250 0.500000 0.590609
v 0.409391 0.062500 0.718750
v 0.409391 0.500000 0.718750
vt 0.187500 0.093750
vt 0.375000 0.093750
vt 0.375000 0.531250
vt 0.187500 0.531250
vt 0.000000 0.093750
vt 0.187500 0.093750
vt 0.187500 0.531250
vt 0.000000 0.531250
vt 0.375000 0.093750
vt 0.375000 0.531250
vt 0.593750 0.031250
vt 0.781250 0.031250
vt 0.781250 0.468750
vt 0.593750 0.468750
vt 0.187500 0.093750
vt 0.375000 0.093750
vt 0.375000 0.531250
vt 0.187500 0.531250
vt 0.000000 0.093750
vt 0.187500 0.093750
vt 0.187500 0.531250
vt 0.000000 0.531250
vt 0.375000 0.093750
vt 0.375000 0.531250
vt 0.593750 0.031250
vt 0.781250 0.031250
vt 0.781250 0.468750
vt 0.593750 0.468750
vn 0.7071 -0.0000 0.7071
vn 1.0000 0.0000 0.0000
vn 0.7071 0.0000 -0.7071
vn 0.0000 0.0000 -1.0000
vn -0.7071 0.0000 -0.7071
vn -1.0000 0.0000 0.0000
vn -0.7071 -0.0000 0.7071
vn 0.0000 -0.0000 1.0000
usemtl m_9a46b0ad-d7e3-687e-5648-1b73dea6a1b4
s 1
f 57/96/26 58/97/26 59/98/26 60/99/26
f 58/100/27 61/101/27 62/102/27 59/103/27
f 61/101/28 63/104/28 64/105/28 62/102/28
f 63/106/29 65/107/29 66/108/29 64/109/29
f 65/110/30 67/111/30 68/112/30 66/113/30
f 67/114/31 69/115/31 70/116/31 68/117/31
f 69/115/32 71/118/32 72/119/32 70/116/32
f 71/120/33 57/121/33 60/122/33 72/123/33
o cylinder.000
v 0.604714 0.031250 0.755469
v 0.753906 0.031250 0.606276
v 0.753906 0.062500 0.606276
v 0.604714 0.062500 0.755469
v 0.753906 0.031250 0.395286
v 0.753906 0.062500 0.395286
v 0.604714 0.031250 0.246094
v 0.604714 0.062500 0.246094
v 0.393724 0.031250 0.246094
v 0.393724 0.062500 0.246094
v 0.244531 0.031250 0.395286
v 0.244531 0.062500 0.395286
v 0.244531 0.031250 0.606276
v 0.244531 0.062500 0.606276
v 0.393724 0.031250 0.755469
v 0.393724 0.062500 0.755469
vt 0.218750 0.031250
vt 0.437500 0.031250
vt 0.437500 0.062500
vt 0.218750 0.062500
vt 0.000000 0.031250
vt 0.218750 0.031250
vt 0.218750 0.062500
vt 0.000000 0.062500
vt 0.437500 0.031250
vt 0.437500 0.062500
vt 0.000000 0.031250
vt 0.218750 0.031250
vt 0.218750 0.062500
vt 0.000000 0.062500
vt 0.437500 0.031250
vt 0.437500 0.062500
vt 0.000000 0.031250
vt 0.218750 0.031250
vt 0.218750 0.062500
vt 0.000000 0.062500
vt 0.437500 0.031250
vt 0.437500 0.062500
vt 0.000000 0.031250
vt 0.000000 0.062500
vn 0.7071 0.0000 0.7071
vn 1.0000 0.0000 0.0000
vn 0.7071 0.0000 -0.7071
vn 0.0000 0.0000 -1.0000
vn -0.7071 0.0000 -0.7071
vn -1.0000 0.0000 0.0000
vn -0.7071 0.0000 0.7071
vn 0.0000 0.0000 1.0000
usemtl m_9a46b0ad-d7e3-687e-5648-1b73dea6a1b4
s 1
f 73/124/34 74/125/34 75/126/34 76/127/34
f 74/128/35 77/129/35 78/130/35 75/131/35
f 77/129/36 79/132/36 80/133/36 78/130/36
f 79/134/37 81/135/37 82/136/37 80/137/37
f 81/135/38 83/138/38 84/139/38 82/136/38
f 83/140/39 85/141/39 86/142/39 84/143/39
f 85/141/40 87/144/40 88/145/40 86/142/40
f 87/146/41 73/124/41 76/127/41 88/147/41
o cylinder.001
v 0.593198 0.062500 0.725000
v 0.725000 0.062500 0.593198
v 0.725000 0.093750 0.593198
v 0.593198 0.093750 0.725000
v 0.725000 0.062500 0.406802
v 0.725000 0.093750 0.406802
v 0.593198 0.062500 0.275000
v 0.593198 0.093750 0.275000
v 0.406802 0.062500 0.275000
v 0.406802 0.093750 0.275000
v 0.275000 0.062500 0.406802
v 0.275000 0.093750 0.406802
v 0.275000 0.062500 0.593198
v 0.275000 0.093750 0.593198
v 0.406802 0.062500 0.725000
v 0.406802 0.093750 0.725000
vt 0.187500 0.062500
vt 0.375000 0.062500
vt 0.375000 0.093750
vt 0.187500 0.093750
vt 0.000000 0.062500
vt 0.187500 0.062500
vt 0.187500 0.093750
vt 0.000000 0.093750
vt 0.375000 0.062500
vt 0.375000 0.093750
vt 0.000000 0.062500
vt 0.187500 0.062500
vt 0.187500 0.093750
vt 0.000000 0.093750
vt 0.375000 0.062500
vt 0.375000 0.093750
vt 0.000000 0.062500
vt 0.187500 0.062500
vt 0.187500 0.093750
vt 0.000000 0.093750
vt 0.000000 0.062500
vt 0.000000 0.093750
vt 0.375000 0.062500
vt 0.375000 0.093750
vn 0.7071 0.0000 0.7071
vn 1.0000 0.0000 0.0000
vn 0.7071 0.0000 -0.7071
vn 0.0000 0.0000 -1.0000
vn -0.7071 0.0000 -0.7071
vn -1.0000 0.0000 0.0000
vn 0.0000 0.0000 1.0000
vn -0.7071 0.0000 0.7071
usemtl m_9a46b0ad-d7e3-687e-5648-1b73dea6a1b4
s 1
f 89/148/42 90/149/42 91/150/42 92/151/42
f 90/152/43 93/153/43 94/154/43 91/155/43
f 93/153/44 95/156/44 96/157/44 94/154/44
f 95/158/45 97/159/45 98/160/45 96/161/45
f 97/159/46 99/162/46 100/163/46 98/160/46
f 99/164/47 101/165/47 102/166/47 100/167/47
f 103/168/48 89/148/48 92/151/48 104/169/48
f 101/165/49 103/170/49 104/171/49 102/166/49
o cylinder.002
v 0.593198 0.468750 0.725000
v 0.725000 0.468750 0.593198
v 0.725000 0.500000 0.593198
v 0.593198 0.500000 0.725000
v 0.725000 0.468750 0.406802
v 0.725000 0.500000 0.406802
v 0.593198 0.468750 0.275000
v 0.593198 0.500000 0.275000
v 0.406802 0.468750 0.275000
v 0.406802 0.500000 0.275000
v 0.275000 0.468750 0.406802
v 0.275000 0.500000 0.406802
v 0.275000 0.468750 0.593198
v 0.275000 0.500000 0.593198
v 0.406802 0.468750 0.725000
v 0.406802 0.500000 0.725000
vt 0.187500 0.531250
vt 0.375000 0.531250
vt 0.375000 0.562500
vt 0.187500 0.562500
vt 0.000000 0.531250
vt 0.187500 0.531250
vt 0.187500 0.562500
vt 0.000000 0.562500
vt 0.375000 0.531250
vt 0.375000 0.562500
vt 0.000000 0.531250
vt 0.187500 0.531250
vt 0.187500 0.562500
vt 0.000000 0.562500
vt 0.375000 0.531250
vt 0.375000 0.562500
vt 0.000000 0.531250
vt 0.187500 0.531250
vt 0.187500 0.562500
vt 0.000000 0.562500
vt 0.000000 0.531250
vt 0.000000 0.562500
vt 0.375000 0.531250
vt 0.375000 0.562500
vn 0.7071 0.0000 0.7071
vn 1.0000 0.0000 0.0000
vn 0.7071 0.0000 -0.7071
vn 0.0000 0.0000 -1.0000
vn -0.7071 0.0000 -0.7071
vn -1.0000 0.0000 0.0000
vn 0.0000 0.0000 1.0000
vn -0.7071 0.0000 0.7071
usemtl m_9a46b0ad-d7e3-687e-5648-1b73dea6a1b4
s 1
f 105/172/50 106/173/50 107/174/50 108/175/50
f 106/176/51 109/177/51 110/178/51 107/179/51
f 109/177/52 111/180/52 112/181/52 110/178/52
f 111/182/53 113/183/53 114/184/53 112/185/53
f 113/183/54 115/186/54 116/187/54 114/184/54
f 115/188/55 117/189/55 118/190/55 116/191/55
f 119/192/56 105/172/56 108/175/56 120/193/56
f 117/189/57 119/194/57 120/195/57 118/190/57
o cylinder.003
v 0.605495 0.500000 0.754688
v 0.754687 0.500000 0.605495
v 0.754687 0.531250 0.605495
v 0.605495 0.531250 0.754688
v 0.754687 0.500000 0.394505
v 0.754687 0.531250 0.394505
v 0.605495 0.500000 0.245313
v 0.605495 0.531250 0.245313
v 0.394505 0.500000 0.245313
v 0.394505 0.531250 0.245313
v 0.245312 0.500000 0.394505
v 0.245312 0.531250 0.394505
v 0.245312 0.500000 0.605495
v 0.245312 0.531250 0.605495
v 0.394505 0.500000 0.754688
v 0.394505 0.531250 0.754688
vt 0.218750 0.343750
vt 0.437500 0.343750
vt 0.437500 0.375000
vt 0.218750 0.375000
vt 0.218750 0.000000
vt 0.437500 0.000000
vt 0.437500 0.031250
vt 0.218750 0.031250
vt 0.000000 0.000000
vt 0.218750 0.000000
vt 0.218750 0.031250
vt 0.000000 0.031250
vt 0.000000 0.218750
vt 0.218750 0.218750
vt 0.218750 0.250000
vt 0.000000 0.250000
vt 0.000000 0.343750
vt 0.218750 0.343750
vt 0.218750 0.375000
vt 0.000000 0.375000
vt 0.218750 0.218750
vt 0.437500 0.218750
vt 0.437500 0.250000
vt 0.218750 0.250000
vt 0.000000 0.000000
vt 0.218750 0.000000
vt 0.218750 0.031250
vt 0.000000 0.031250
vt 0.437500 0.000000
vt 0.437500 0.031250
vn 0.7071 0.0000 0.7071
vn 1.0000 0.0000 0.0000
vn 0.7071 0.0000 -0.7071
vn 0.0000 0.0000 -1.0000
vn -0.7071 0.0000 -0.7071
vn -1.0000 0.0000 0.0000
vn -0.7071 0.0000 0.7071
vn 0.0000 0.0000 1.0000
usemtl m_0c1094a8-5054-25cc-f461-bb0f198ede63
s 1
f 121/196/58 122/197/58 123/198/58 124/199/58
f 122/200/59 125/201/59 126/202/59 123/203/59
f 125/204/60 127/205/60 128/206/60 126/207/60
f 127/208/61 129/209/61 130/210/61 128/211/61
f 129/212/62 131/213/62 132/214/62 130/215/62
f 131/216/63 133/217/63 134/218/63 132/219/63
f 133/220/64 135/221/64 136/222/64 134/223/64
f 135/221/65 121/224/65 124/225/65 136/222/65
o cylinder.004
v 0.750000 0.500000 0.603553
v 0.603553 0.500000 0.750000
v 0.500000 0.500000 0.500000
v 0.750000 0.593750 0.603554
v 0.603553 0.593750 0.750000
v 0.750000 0.500000 0.396447
v 0.750000 0.593750 0.396447
v 0.603553 0.500000 0.250000
v 0.603553 0.593750 0.250000
v 0.396447 0.500000 0.250000
v 0.396447 0.593750 0.250000
v 0.250000 0.500000 0.396447
v 0.250000 0.593750 0.396447
v 0.250000 0.500000 0.603553
v 0.250000 0.593750 0.603554
v 0.396447 0.500000 0.750000
v 0.396447 0.593750 0.750000
v 0.564721 0.656250 0.343750
v 0.656250 0.656250 0.435279
v 0.435279 0.656250 0.343750
v 0.343750 0.656250 0.435279
v 0.343750 0.656250 0.564721
v 0.435279 0.656250 0.656250
v 0.564721 0.656250 0.656250
v 0.656250 0.656250 0.564721
vt 1.000000 0.353553
vt 0.853553 0.500000
vt 0.750000 0.250000
vt 0.218750 0.343750
vt 0.437500 0.343750
vt 0.437500 0.437500
vt 0.218750 0.437500
vt 1.000000 0.146447
vt 0.218750 0.000000
vt 0.437500 0.000000
vt 0.437500 0.093750
vt 0.218750 0.093750
vt 0.853553 0.000000
vt 0.000000 0.000000
vt 0.218750 0.000000
vt 0.218750 0.093750
vt 0.000000 0.093750
vt 0.646447 0.000000
vt 0.000000 0.218750
vt 0.218750 0.218750
vt 0.218750 0.312500
vt 0.000000 0.312500
vt 0.500000 0.146447
vt 0.000000 0.343750
vt 0.218750 0.343750
vt 0.218750 0.437500
vt 0.000000 0.437500
vt 0.500000 0.353553
vt 0.218750 0.218750
vt 0.437500 0.218750
vt 0.437500 0.312500
vt 0.218750 0.312500
vt 0.646447 0.500000
vt 0.000000 0.093750
vt 0.218750 0.093750
vt 0.218750 0.187500
vt 0.000000 0.187500
vt 0.000000 0.000000
vt 0.218750 0.000000
vt 0.218750 0.093750
vt 0.000000 0.093750
vt 0.334391 0.900391
vt 0.431641 0.803141
vt 0.531250 0.844400
vt 0.375650 1.000000
vt 0.196859 0.900391
vt 0.155600 1.000000
vt 0.099609 0.803141
vt 0.000000 0.844400
vt 0.099609 0.665609
vt 0.000000 0.624350
vt 0.196859 0.568359
vt 0.155600 0.468750
vt 0.334391 0.568359
vt 0.375650 0.468750
vt 0.431641 0.665609
vt 0.531250 0.624350
vn 0.0000 -1.0000 -0.0000
vn 0.7071 -0.0000 0.7071
vn 1.0000 0.0000 0.0000
vn 0.7071 0.0000 -0.7071
vn 0.0000 0.0000 -1.0000
vn -0.7071 0.0000 -0.7071
vn -1.0000 0.0000 0.0000
vn -0.7071 -0.0000 0.7071
vn 0.0000 -0.0000 1.0000
vn 0.3922 0.8321 -0.3922
vn 0.0000 0.8321 -0.5547
vn -0.3922 0.8321 -0.3922
vn -0.5547 0.8321 0.0000
vn -0.3922 0.8321 0.3922
vn 0.0000 0.8321 0.5547
vn 0.3922 0.8321 0.3922
vn 0.5547 0.8321 0.0000
vn -0.0000 1.0000 0.0000
usemtl m_0c1094a8-5054-25cc-f461-bb0f198ede63
s 1
f 137/226/66 138/227/66 139/228/66
f 138/229/67 137/230/67 140/231/67 141/232/67
f 142/233/66 137/226/66 139/228/66
f 137/234/68 142/235/68 143/236/68 140/237/68
f 144/238/66 142/233/66 139/228/66
f 142/239/69 144/240/69 145/241/69 143/242/69
f 146/243/66 144/238/66 139/228/66
f 144/244/70 146/245/70 147/246/70 145/247/70
f 148/248/66 146/243/66 139/228/66
f 146/249/71 148/250/71 149/251/71 147/252/71
f 150/253/66 148/248/66 139/228/66
f 148/254/72 150/255/72 151/256/72 149/257/72
f 152/258/66 150/253/66 139/228/66
f 150/259/73 152/260/73 153/261/73 151/262/73
f 138/227/66 152/258/66 139/228/66
f 152/263/74 138/264/74 141/265/74 153/266/74
f 154/267/75 155/268/75 143/269/75 145/270/75
f 156/271/76 154/267/76 145/270/76 147/272/76
f 157/273/77 156/271/77 147/272/77 149/274/77
f 158/275/78 157/273/78 149/274/78 151/276/78
f 159/277/79 158/275/79 151/276/79 153/278/79
f 160/279/80 159/277/80 153/278/80 141/280/80
f 161/281/81 160/279/81 141/280/81 140/282/81
f 155/268/82 161/281/82 140/282/82 143/269/82
f 156/271/83 157/273/83 158/275/83 159/277/83
f 159/277/83 160/279/83 161/281/83 155/268/83
f 155/268/83 154/267/83 156/271/83 159/277/83
o cylinder.005
v 0.750000 -0.000000 0.603553
v 0.603553 -0.000000 0.750000
v 0.500000 -0.000000 0.500000
v 0.750000 0.062500 0.603553
v 0.603553 0.062500 0.750000
v 0.500000 0.062500 0.500000
v 0.750000 -0.000000 0.396447
v 0.750000 0.062500 0.396447
v 0.603553 -0.000000 0.250000
v 0.603553 0.062500 0.250000
v 0.396447 -0.000000 0.250000
v 0.396447 0.062500 0.250000
v 0.250000 -0.000000 0.396447
v 0.250000 0.062500 0.396447
v 0.250000 -0.000000 0.603553
v 0.250000 0.062500 0.603553
v 0.396447 -0.000000 0.750000
v 0.396447 0.062500 0.750000
vt 1.000000 0.353553
vt 0.853553 0.500000
vt 0.750000 0.250000
vt 0.353553 0.500000
vt 0.500000 0.646447
vt 0.250000 0.750000
vt 1.000000 0.146447
vt 0.500000 0.853553
vt 0.853553 0.000000
vt 0.353553 1.000000
vt 0.646447 0.000000
vt 0.146447 1.000000
vt 0.500000 0.146447
vt 0.000000 0.853553
vt 0.500000 0.353553
vt 0.000000 0.646447
vt 0.646447 0.500000
vt 0.146447 0.500000
vt 0.218750 0.000000
vt 0.437500 0.000000
vt 0.437500 0.062500
vt 0.218750 0.062500
vt 0.000000 0.000000
vt 0.218750 0.000000
vt 0.218750 0.062500
vt 0.000000 0.062500
vt 0.437500 0.000000
vt 0.437500 0.062500
vt 0.000000 0.000000
vt 0.218750 0.000000
vt 0.218750 0.062500
vt 0.000000 0.062500
vt 0.437500 0.000000
vt 0.437500 0.062500
vt 0.000000 0.000000
vt 0.218750 0.000000
vt 0.218750 0.062500
vt 0.000000 0.062500
vt 0.437500 0.000000
vt 0.437500 0.062500
vt 0.000000 0.000000
vt 0.000000 0.062500
vn 0.0000 -1.0000 -0.0000
vn -0.0000 1.0000 0.0000
vn 0.7071 0.0000 0.7071
vn 1.0000 0.0000 0.0000
vn 0.7071 0.0000 -0.7071
vn 0.0000 0.0000 -1.0000
vn -0.7071 0.0000 -0.7071
vn -1.0000 0.0000 0.0000
vn -0.7071 0.0000 0.7071
vn 0.0000 0.0000 1.0000
usemtl m_0c1094a8-5054-25cc-f461-bb0f198ede63
s 1
f 162/283/84 163/284/84 164/285/84
f 166/286/85 165/287/85 167/288/85
f 168/289/84 162/283/84 164/285/84
f 165/287/85 169/290/85 167/288/85
f 170/291/84 168/289/84 164/285/84
f 169/290/85 171/292/85 167/288/85
f 172/293/84 170/291/84 164/285/84
f 171/292/85 173/294/85 167/288/85
f 174/295/84 172/293/84 164/285/84
f 173/294/85 175/296/85 167/288/85
f 176/297/84 174/295/84 164/285/84
f 175/296/85 177/298/85 167/288/85
f 178/299/84 176/297/84 164/285/84
f 177/298/85 179/300/85 167/288/85
f 163/284/84 178/299/84 164/285/84
f 179/300/85 166/286/85 167/288/85
usemtl m_9a46b0ad-d7e3-687e-5648-1b73dea6a1b4
f 163/301/86 162/302/86 165/303/86 166/304/86
f 162/305/87 168/306/87 169/307/87 165/308/87
f 168/306/88 170/309/88 171/310/88 169/307/88
f 170/311/89 172/312/89 173/313/89 171/314/89
f 172/312/90 174/315/90 175/316/90 173/313/90
f 174/317/91 176/318/91 177/319/91 175/320/91
f 176/318/92 178/321/92 179/322/92 177/319/92
f 178/323/93 163/301/93 166/304/93 179/324/93
o cube.006
v 0.562500 0.560615 0.770562
v 0.437500 0.560615 0.770562
v 0.437500 0.942365 0.631616
v 0.562500 0.942365 0.631616
v 0.437500 0.560615 0.770562
v 0.562500 0.560615 0.770562
v 0.562500 0.942365 0.631616
v 0.437500 0.942365 0.631616
vt 0.437500 0.546875
vt 0.562500 0.546875
vt 0.562500 0.937500
vt 0.437500 0.937500
vt 0.437500 0.546875
vt 0.562500 0.546875
vt 0.562500 0.937500
vt 0.437500 0.937500
vn 0.0000 -0.3420 -0.9397
vn 0.0000 0.3420 0.9397
usemtl m_9cec9e04-ca2d-808f-7df3-ef61decb810e
s 1
f 180/325/94 181/326/94 182/327/94 183/328/94
f 184/329/95 185/330/95 186/331/95 187/332/95
o cube.007
v 0.562500 0.560615 0.229438
v 0.437500 0.560615 0.229438
v 0.437500 0.942365 0.368384
v 0.562500 0.942365 0.368384
v 0.437500 0.560615 0.229438
v 0.562500 0.560615 0.229438
v 0.562500 0.942365 0.368384
v 0.437500 0.942365 0.368384
vt 0.437500 0.562500
vt 0.562500 0.562500
vt 0.562500 0.937500
vt 0.437500 0.937500
vt 0.437500 0.562500
vt 0.562500 0.562500
vt 0.562500 0.937500
vt 0.437500 0.937500
vn 0.0000 0.3420 -0.9397
vn 0.0000 -0.3420 0.9397
usemtl m_9cec9e04-ca2d-808f-7df3-ef61decb810e
s 1
f 188/333/96 189/334/96 190/335/96 191/336/96
f 192/337/97 193/338/97 194/339/97 195/340/97
o cube.008
v 0.566291 0.687500 0.433709
v 0.433709 0.687500 0.566291
v 0.433709 0.968750 0.566291
v 0.566291 0.968750 0.433709
v 0.433709 0.687500 0.566291
v 0.566291 0.687500 0.433709
v 0.566291 0.968750 0.433709
v 0.433709 0.968750 0.566291
vt 0.406250 0.062500
vt 0.593750 0.062500
vt 0.593750 0.343750
vt 0.406250 0.343750
vt 0.406250 0.062500
vt 0.593750 0.062500
vt 0.593750 0.343750
vt 0.406250 0.343750
vn -0.7071 0.0000 -0.7071
vn 0.7071 -0.0000 0.7071
usemtl m_9cec9e04-ca2d-808f-7df3-ef61decb810e
s 1
f 196/341/98 197/342/98 198/343/98 199/344/98
f 200/345/99 201/346/99 202/347/99 203/348/99
o cube.009
v 0.566291 0.687500 0.566291
v 0.433709 0.687500 0.433709
v 0.433709 0.968750 0.433709
v 0.566291 0.968750 0.566291
v 0.433709 0.687500 0.433709
v 0.566291 0.687500 0.566291
v 0.566291 0.968750 0.566291
v 0.433709 0.968750 0.433709
vt 0.406250 0.062500
vt 0.593750 0.062500
vt 0.593750 0.343750
vt 0.406250 0.343750
vt 0.406250 0.062500
vt 0.593750 0.062500
vt 0.593750 0.343750
vt 0.406250 0.343750
vn 0.7071 0.0000 -0.7071
vn -0.7071 -0.0000 0.7071
usemtl m_9cec9e04-ca2d-808f-7df3-ef61decb810e
s 1
f 204/349/100 205/350/100 206/351/100 207/352/100
f 208/353/101 209/354/101 210/355/101 211/356/101
o cube.010
v 0.531250 0.937500 0.375000
v 0.468750 0.937500 0.375000
v 0.468750 1.000000 0.375000
v 0.531250 1.000000 0.375000
v 0.531250 0.937500 0.625000
v 0.531250 1.000000 0.625000
v 0.468750 0.937500 0.625000
v 0.468750 1.000000 0.625000
vt 0.250000 0.937500
vt 0.312500 0.937500
vt 0.312500 1.000000
vt 0.250000 1.000000
vt 0.062500 0.937500
vt 0.312500 0.937500
vt 0.312500 1.000000
vt 0.062500 1.000000
vt 0.062500 0.937500
vt 0.125000 0.937500
vt 0.125000 1.000000
vt 0.062500 1.000000
vt 0.062500 0.937500
vt 0.312500 0.937500
vt 0.312500 1.000000
vt 0.062500 1.000000
vt 0.062500 0.937500
vt 0.312500 0.937500
vt 0.062500 1.000000
vt 0.062500 0.937500
vt 0.312500 0.937500
vt 0.312500 1.000000
vn 0.0000 0.0000 -1.0000
vn 1.0000 0.0000 0.0000
vn 0.0000 0.0000 1.0000
vn -1.0000 0.0000 0.0000
vn 0.0000 1.0000 0.0000
vn 0.0000 -1.0000 -0.0000
usemtl m_9a46b0ad-d7e3-687e-5648-1b73dea6a1b4
s 1
f 212/357/102 213/358/102 214/359/102 215/360/102
f 216/361/103 212/362/103 215/363/103 217/364/103
f 218/365/104 216/366/104 217/367/104 219/368/104
f 213/369/105 218/370/105 219/371/105 214/372/105
f 219/368/106 217/373/106 215/374/106 214/359/106
f 213/375/107 212/376/107 216/377/107 218/378/107
o cube.011
v 0.500000 0.875000 0.687500
v 0.500000 0.875000 0.312500
v 0.500000 1.000000 0.312500
v 0.500000 1.000000 0.687500
v 0.500000 0.875000 0.312500
v 0.500000 0.875000 0.687500
v 0.500000 1.000000 0.687500
v 0.500000 1.000000 0.312500
vt 0.000000 0.875000
vt 0.375000 0.875000
vt 0.375000 1.000000
vt 0.000000 1.000000
vt 0.000000 0.875000
vt 0.375000 0.875000
vt 0.375000 1.000000
vt 0.000000 1.000000
vn 1.0000 0.0000 0.0000
vn -1.0000 0.0000 0.0000
usemtl m_9a46b0ad-d7e3-687e-5648-1b73dea6a1b4
s 1
f 220/379/108 221/380/108 222/381/108 223/382/108
f 224/383/109 225/384/109 226/385/109 227/386/109
