# Blender v3.2.2 OBJ File: ''
# www.blender.org
mtllib bucket.mtl
o cube
v 0.209574 -0.000000 0.279905
v 0.150843 -0.000000 0.258528
v 0.150843 0.812500 0.258529
v 0.209574 0.812500 0.279905
v 0.145445 -0.000000 0.456097
v 0.145445 0.812500 0.456097
v 0.086714 -0.000000 0.434721
v 0.086714 0.812500 0.434721
vt 0.281250 0.000000
vt 0.343750 0.000000
vt 0.343750 0.812500
vt 0.281250 0.812500
vt 0.281250 0.000000
vt 0.468750 0.000000
vt 0.468750 0.812500
vt 0.281250 0.812500
vt 0.281250 0.000000
vt 0.343750 0.000000
vt 0.343750 0.812500
vt 0.281250 0.812500
vt 0.281250 0.000000
vt 0.468750 0.000000
vt 0.468750 0.812500
vt 0.281250 0.812500
vt 0.312500 0.312500
vt 0.375000 0.312500
vt 0.375000 0.500000
vt 0.312500 0.500000
vt 0.937500 0.312500
vt 1.000000 0.312500
vt 1.000000 0.500000
vt 0.937500 0.500000
vn 0.3420 0.0000 -0.9397
vn 0.9397 -0.0000 0.3420
vn -0.3420 -0.0000 0.9397
vn -0.9397 0.0000 -0.3420
vn 0.0000 1.0000 0.0000
vn -0.0000 -1.0000 -0.0000
usemtl m_c70e66fa-ebcb-2d07-36dc-7217f1e2fc4c
s 1
f 1/1/1 2/2/1 3/3/1 4/4/1
f 5/5/2 1/6/2 4/7/2 6/8/2
f 7/9/3 5/10/3 6/11/3 8/12/3
f 2/13/4 7/14/4 8/15/4 3/16/4
f 8/17/5 6/18/5 4/19/5 3/20/5
f 2/21/6 1/22/6 5/23/6 7/24/6
o tube
v 0.621845 0.031250 0.843750
v 0.818994 0.031250 0.700513
v 0.818994 0.687500 0.700513
v 0.621845 0.687500 0.843750
v 0.602731 0.687500 0.784923
v 0.768953 0.687500 0.664156
v 0.768953 0.031250 0.664156
v 0.602731 0.031250 0.784923
v 0.894298 0.031250 0.468750
v 0.894298 0.687500 0.468750
v 0.832444 0.687500 0.468750
v 0.832444 0.031250 0.468750
v 0.818994 0.031250 0.236987
v 0.818994 0.687500 0.236987
v 0.768953 0.687500 0.273344
v 0.768953 0.031250 0.273344
v 0.621845 0.031250 0.093750
v 0.621845 0.687500 0.093750
v 0.602731 0.687500 0.152577
v 0.602731 0.031250 0.152577
v 0.768953 -0.000000 0.273344
v 0.602731 -0.000000 0.152577
v 0.621845 -0.000000 0.093750
v 0.818994 -0.000000 0.236987
v 0.378155 0.031250 0.093750
v 0.378155 0.687500 0.093750
v 0.397269 0.687500 0.152577
v 0.397269 0.031250 0.152577
v 0.181006 0.031250 0.236987
v 0.181006 0.687500 0.236987
v 0.231047 0.687500 0.273344
v 0.231047 0.031250 0.273344
v 0.105702 0.031250 0.468750
v 0.105702 0.687500 0.468750
v 0.167556 0.687500 0.468750
v 0.167556 0.031250 0.468750
v 0.181006 0.031250 0.700513
v 0.181006 0.687500 0.700513
v 0.231047 0.687500 0.664156
v 0.231047 0.031250 0.664156
v 0.167556 -0.000000 0.468750
v 0.231047 -0.000000 0.664156
v 0.181006 -0.000000 0.700513
v 0.105702 -0.000000 0.468750
v 0.378155 0.031250 0.843750
v 0.378155 0.687500 0.843750
v 0.397269 0.687500 0.784923
v 0.397269 0.031250 0.784923
v 0.397269 -0.000000 0.784923
v 0.378155 -0.000000 0.843750
vt 0.593750 0.000000
vt 0.843750 0.000000
vt 0.843750 0.656250
vt 0.593750 0.656250
vt 0.699140 0.000000
vt 0.488361 0.000000
vt 0.468750 0.062500
vt 0.718750 0.062496
vt 0.437500 0.595070
vt 0.687500 0.595070
vt 0.667888 0.657570
vt 0.457109 0.657566
vt 0.468750 0.000000
vt 0.718750 0.000000
vt 0.718750 0.656250
vt 0.468750 0.656250
vt 0.355393 0.062500
vt 0.144610 0.062500
vt 0.125000 0.000001
vt 0.375000 0.000000
vt 0.218750 0.595070
vt 0.468750 0.595070
vt 0.449140 0.657569
vt 0.238357 0.657570
vt 0.187500 0.000000
vt 0.437500 0.000000
vt 0.437500 0.656250
vt 0.187500 0.656250
vt 0.511640 0.062500
vt 0.300857 0.062500
vt 0.281250 0.000000
vt 0.531250 0.000001
vt 0.250000 0.595070
vt 0.500000 0.595070
vt 0.480393 0.657570
vt 0.269610 0.657569
vt 0.687500 0.000000
vt 0.687500 0.656250
vt 0.511639 0.000000
vt 0.300860 0.000000
vt 0.281250 0.062496
vt 0.531250 0.062500
vt 0.406250 0.595070
vt 0.656250 0.595070
vt 0.636641 0.657566
vt 0.425862 0.657570
vt 0.187500 0.000000
vt 0.437500 0.000000
vt 0.437500 0.656250
vt 0.187500 0.656250
vt 0.667892 0.000000
vt 0.457108 0.000000
vt 0.437500 0.062500
vt 0.687500 0.062500
vt 0.781250 0.595070
vt 0.531250 0.595070
vt 0.550858 0.657570
vt 0.761642 0.657570
vt 0.562500 0.000000
vt 0.812500 0.000000
vt 0.812500 0.656250
vt 0.562500 0.656250
vt 0.332110 0.000000
vt 0.542889 0.000000
vt 0.562500 0.062500
vt 0.312500 0.062496
vt 0.281250 0.595070
vt 0.300862 0.657570
vt 0.511641 0.657566
vt 0.437500 0.000000
vt 0.687500 0.000000
vt 0.687500 0.656250
vt 0.437500 0.656250
vt 0.332107 0.000000
vt 0.542890 0.000000
vt 0.562500 0.062499
vt 0.312500 0.062500
vt 0.843750 0.595070
vt 0.593750 0.595070
vt 0.613360 0.657569
vt 0.824143 0.657570
vt 0.187500 0.000000
vt 0.437500 0.000000
vt 0.437500 0.656250
vt 0.187500 0.656250
vt 0.207110 0.000000
vt 0.417893 0.000000
vt 0.437500 0.062500
vt 0.187500 0.062499
vt 0.782570 0.593750
vt 0.532570 0.593750
vt 0.552176 0.656250
vt 0.762960 0.656249
vt 0.562500 0.000000
vt 0.812500 0.000000
vt 0.812500 0.656250
vt 0.562500 0.656250
vt 0.332111 0.000000
vt 0.542890 0.000000
vt 0.562500 0.062496
vt 0.312500 0.062500
vt 0.501319 0.593751
vt 0.251319 0.593751
vt 0.270928 0.656247
vt 0.481707 0.656251
vt 0.343750 0.000000
vt 0.343750 0.656250
vt 0.175858 0.000000
vt 0.386642 0.000000
vt 0.406250 0.062500
vt 0.156250 0.062500
vt 0.593750 0.595070
vt 0.843750 0.595070
vt 0.824142 0.657570
vt 0.613358 0.657570
vt 0.343750 0.031250
vt 0.406250 0.031250
vt 0.406250 0.062500
vt 0.343750 0.062500
vt 0.093750 0.000000
vt 0.343750 0.000000
vt 0.343750 0.031250
vt 0.093750 0.031250
vt 0.375000 0.031250
vt 0.437500 0.031250
vt 0.437500 0.062500
vt 0.375000 0.062500
vt 0.218750 0.031250
vt 0.281250 0.031250
vt 0.281250 0.062500
vt 0.218750 0.062500
vt 0.718750 0.000000
vt 0.968750 0.000000
vt 0.968750 0.031250
vt 0.718750 0.031250
vt 0.531250 0.000000
vt 0.781250 0.000000
vt 0.781250 0.031250
vt 0.531250 0.031250
vt 0.625000 0.031250
vt 0.687500 0.031250
vt 0.687500 0.062500
vt 0.625000 0.062500
vt 0.437500 0.656250
vt 0.218750 0.656250
vt 0.218750 0.000000
vt 0.437500 0.000000
vt 0.437500 0.656250
vt 0.218750 0.656250
vt 0.218750 0.000000
vt 0.437500 0.000000
vt 0.562500 0.656250
vt 0.343750 0.656250
vt 0.343750 0.000000
vt 0.562500 0.000000
vt 0.718750 0.656250
vt 0.500000 0.656250
vt 0.500000 0.000000
vt 0.718750 0.000000
vt 0.437500 0.656250
vt 0.218750 0.656250
vt 0.218750 0.000000
vt 0.437500 0.000000
vt 0.593750 0.656250
vt 0.375000 0.656250
vt 0.375000 0.000000
vt 0.593750 0.000000
vt 0.156250 0.656250
vt 0.156250 0.000000
vt 0.843750 0.656250
vt 0.625000 0.656250
vt 0.625000 0.000000
vt 0.843750 0.000000
vt 0.437500 0.656250
vt 0.218750 0.656250
vt 0.218750 0.000000
vt 0.437500 0.000000
vt 0.656250 0.656250
vt 0.656250 0.000000
vt 0.093750 0.000000
vt 0.312500 0.000000
vt 0.312500 0.031250
vt 0.093750 0.031250
vt 0.406250 0.000000
vt 0.625000 0.000000
vt 0.625000 0.031250
vt 0.406250 0.031250
vt 0.218750 0.000000
vt 0.437500 0.000000
vt 0.437500 0.031250
vt 0.218750 0.031250
vn 0.5878 -0.0000 0.8090
vn 0.0000 -1.0000 -0.0000
vn 0.0000 1.0000 0.0000
vn 0.9511 0.0000 0.3090
vn 0.9511 0.0000 -0.3090
vn 0.5878 0.0000 -0.8090
vn 0.0000 0.0000 -1.0000
vn -0.5878 0.0000 -0.8090
vn -0.9511 0.0000 -0.3090
vn -0.9511 -0.0000 0.3090
vn -0.5878 -0.0000 0.8090
vn 0.0000 -0.0000 1.0000
usemtl m_c70e66fa-ebcb-2d07-36dc-7217f1e2fc4c
s 1
f 9/25/7 10/26/7 11/27/7 12/28/7
f 16/29/8 15/30/8 10/31/8 9/32/8
f 12/33/9 11/34/9 14/35/9 13/36/9
f 10/37/10 17/38/10 18/39/10 11/40/10
f 15/41/8 20/42/8 17/43/8 10/44/8
f 11/45/9 18/46/9 19/47/9 14/48/9
f 17/49/11 21/50/11 22/51/11 18/52/11
f 20/53/8 24/54/8 21/55/8 17/56/8
f 18/57/9 22/58/9 23/59/9 19/60/9
f 21/50/12 25/61/12 26/62/12 22/51/12
f 29/63/8 30/64/8 31/65/8 32/66/8
f 22/67/9 26/68/9 27/69/9 23/70/9
f 25/71/13 33/72/13 34/73/13 26/74/13
f 28/75/8 36/76/8 33/77/8 25/78/8
f 26/79/9 34/80/9 35/81/9 27/82/9
f 33/83/14 37/84/14 38/85/14 34/86/14
f 36/87/8 40/88/8 37/89/8 33/90/8
f 34/80/9 38/91/9 39/92/9 35/93/9
f 37/94/15 41/95/15 42/96/15 38/97/15
f 40/98/8 44/99/8 41/100/8 37/101/8
f 38/102/9 42/103/9 43/104/9 39/105/9
f 41/106/16 45/107/16 46/108/16 42/109/16
f 49/110/8 50/111/8 51/112/8 52/113/8
f 42/114/9 46/115/9 47/116/9 43/117/9
f 45/118/17 53/119/17 54/120/17 46/121/17
f 50/122/8 57/123/8 58/124/8 51/125/8
f 46/126/9 54/127/9 55/128/9 47/129/9
f 53/130/18 9/25/18 12/28/18 54/131/18
f 56/132/8 16/133/8 9/134/8 53/135/8
f 54/136/9 12/137/9 13/138/9 55/139/9
f 31/140/15 30/141/15 28/142/15 25/143/15
f 32/144/12 31/145/12 25/146/12 21/147/12
f 29/148/7 32/149/7 21/150/7 24/151/7
f 58/152/10 57/153/10 56/154/10 53/155/10
f 51/156/17 58/157/17 53/158/17 45/159/17
f 52/160/16 51/161/16 45/162/16 41/163/16
f 49/164/13 52/165/13 41/166/13 44/167/13
usemtl m_cf48da9b-b254-c722-33e8-47eddfe6cc00
f 13/168/14 14/169/14 15/170/14 16/171/14
f 14/172/15 19/173/15 20/174/15 15/175/15
f 19/176/16 23/177/16 24/178/16 20/179/16
f 23/180/17 27/181/17 28/182/17 24/183/17
f 27/184/18 35/185/18 36/186/18 28/187/18
f 35/188/7 39/189/7 40/190/7 36/191/7
f 39/189/10 43/192/10 44/193/10 40/190/10
f 43/194/11 47/195/11 48/196/11 44/197/11
f 47/198/12 55/199/12 56/200/12 48/201/12
f 55/202/13 13/168/13 16/171/13 56/203/13
f 30/204/17 29/205/17 24/206/17 28/207/17
f 57/208/12 50/209/12 48/210/12 56/211/12
f 50/212/11 49/213/11 44/214/11 48/215/11
o cylinder
v 0.765828 0.093750 0.661886
v 0.601537 0.093750 0.781250
v 0.500000 0.093750 0.468750
v 0.601537 0.156250 0.781250
v 0.765828 0.156250 0.661886
v 0.500000 0.156250 0.468750
v 0.828582 0.093750 0.468750
v 0.828582 0.156250 0.468750
v 0.765828 0.093750 0.275614
v 0.765828 0.156250 0.275614
v 0.601537 0.093750 0.156250
v 0.601537 0.156250 0.156250
v 0.398463 0.093750 0.156250
v 0.398463 0.156250 0.156250
v 0.234172 0.093750 0.275614
v 0.234172 0.156250 0.275614
v 0.171418 0.093750 0.468750
v 0.171418 0.156250 0.468750
v 0.234172 0.093750 0.661886
v 0.234172 0.156250 0.661886
v 0.398463 0.093750 0.781250
v 0.398463 0.156250 0.781250
vt 0.756431 0.306864
vt 0.592140 0.187500
vt 0.490602 0.500000
vt 0.592140 0.187500
vt 0.756431 0.306864
vt 0.490602 0.500000
vt 0.819184 0.500000
vt 0.819184 0.500000
vt 0.756431 0.693135
vt 0.756431 0.693136
vt 0.592140 0.812500
vt 0.592140 0.812500
vt 0.389065 0.812500
vt 0.389065 0.812500
vt 0.224774 0.693135
vt 0.224774 0.693136
vt 0.162020 0.500000
vt 0.162020 0.500000
vt 0.224774 0.306864
vt 0.224774 0.306864
vt 0.389065 0.187500
vt 0.389065 0.187500
vn 0.0000 -1.0000 -0.0000
vn -0.0000 1.0000 0.0000
usemtl m_d09da5f5-95f2-6136-c2fa-871a09741ea4
s 1
f 59/216/19 60/217/19 61/218/19
f 62/219/20 63/220/20 64/221/20
f 65/222/19 59/216/19 61/218/19
f 63/220/20 66/223/20 64/221/20
f 67/224/19 65/222/19 61/218/19
f 66/223/20 68/225/20 64/221/20
f 69/226/19 67/224/19 61/218/19
f 68/225/20 70/227/20 64/221/20
f 71/228/19 69/226/19 61/218/19
f 70/227/20 72/229/20 64/221/20
f 73/230/19 71/228/19 61/218/19
f 72/229/20 74/231/20 64/221/20
f 75/232/19 73/230/19 61/218/19
f 74/231/20 76/233/20 64/221/20
f 77/234/19 75/232/19 61/218/19
f 76/233/20 78/235/20 64/221/20
f 79/236/19 77/234/19 61/218/19
f 78/235/20 80/237/20 64/221/20
f 60/217/19 79/236/19 61/218/19
f 80/237/20 62/219/20 64/221/20
o cube.000
v 0.801736 -0.000000 0.646657
v 0.862106 -0.000000 0.662833
v 0.862106 0.812500 0.662833
v 0.801736 0.812500 0.646657
v 0.850264 -0.000000 0.465546
v 0.850264 0.812500 0.465546
v 0.910635 -0.000000 0.481722
v 0.910635 0.812500 0.481722
vt 0.281250 0.000000
vt 0.343750 0.000000
vt 0.343750 0.812500
vt 0.281250 0.812500
vt 0.281250 0.000000
vt 0.468750 0.000000
vt 0.468750 0.812500
vt 0.281250 0.812500
vt 0.281250 0.000000
vt 0.343750 0.000000
vt 0.343750 0.812500
vt 0.281250 0.812500
vt 0.281250 0.000000
vt 0.468750 0.000000
vt 0.468750 0.812500
vt 0.281250 0.812500
vt 0.312500 0.312500
vt 0.375000 0.312500
vt 0.375000 0.500000
vt 0.312500 0.500000
vt 0.937500 0.312500
vt 1.000000 0.312500
vt 1.000000 0.500000
vt 0.937500 0.500000
vn -0.2588 -0.0000 0.9659
vn -0.9659 0.0000 -0.2588
vn 0.2588 0.0000 -0.9659
vn 0.9659 0.0000 0.2588
vn -0.0000 1.0000 0.0000
vn -0.0000 -1.0000 -0.0000
usemtl m_c70e66fa-ebcb-2d07-36dc-7217f1e2fc4c
s 1
f 81/238/21 82/239/21 83/240/21 84/241/21
f 85/242/22 81/243/22 84/244/22 86/245/22
f 87/246/23 85/247/23 86/248/23 88/249/23
f 82/250/24 87/251/24 88/252/24 83/253/24
f 88/254/25 86/255/25 84/256/25 83/257/25
f 82/258/26 81/259/26 85/260/26 87/261/26
