# Blender v3.2.2 OBJ File: ''
# www.blender.org
mtllib candle_lantern.mtl
o holes-sides
v 0.824827 0.262500 0.375313
v 0.500000 -0.062327 0.375313
v 0.175173 0.262500 0.375313
v 0.500000 0.587327 0.375313
v 0.500000 -0.062327 0.624687
v 0.824827 0.262500 0.624688
v 0.500000 0.587327 0.624688
v 0.175173 0.262500 0.624688
vt 0.500000 0.500000
vt 1.000000 0.500000
vt 1.000000 1.000000
vt 0.500000 1.000000
vt 1.000000 0.500000
vt 1.000000 1.000000
vt 0.500000 1.000000
vt 0.500000 0.500000
vn 0.0000 0.0000 -1.0000
vn 0.0000 -0.0000 1.0000
usemtl m_a84059dc-9038-c666-7ce4-c6c0423512db
s 1
f 1/1/1 2/2/1 3/3/1 4/4/1
f 5/5/2 6/6/2 7/7/2 8/8/2
o cube
v 0.696875 0.098437 0.500000
v 0.631250 0.098437 0.500000
v 0.631250 0.459375 0.500000
v 0.696875 0.459375 0.500000
v 0.631250 0.098437 0.500000
v 0.696875 0.098437 0.500000
v 0.696875 0.459375 0.500000
v 0.631250 0.459375 0.500000
vt 0.312500 0.500000
vt 0.250000 0.500000
vt 0.250000 0.843750
vt 0.312500 0.843750
vt 0.250000 0.500000
vt 0.312500 0.500000
vt 0.312500 0.843750
vt 0.250000 0.843750
vn 0.0000 0.0000 -1.0000
vn 0.0000 -0.0000 1.0000
usemtl m_a84059dc-9038-c666-7ce4-c6c0423512db
s 1
f 9/9/3 10/10/3 11/11/3 12/12/3
f 13/13/4 14/14/4 15/15/4 16/16/4
o cube.000
v 0.762500 0.098437 0.483594
v 0.696875 0.098437 0.483594
v 0.696875 0.459375 0.483594
v 0.762500 0.459375 0.483594
v 0.762500 0.098437 0.516406
v 0.762500 0.459375 0.516406
v 0.696875 0.098437 0.516406
v 0.696875 0.459375 0.516406
vt 0.375000 0.500000
vt 0.312500 0.500000
vt 0.312500 0.843750
vt 0.375000 0.843750
vt 0.343750 0.500000
vt 0.343750 0.843750
vt 0.312500 0.500000
vt 0.375000 0.500000
vt 0.375000 0.843750
vt 0.312500 0.843750
vt 0.343750 0.500000
vt 0.343750 0.843750
vt 0.312500 0.812500
vt 0.375000 0.812500
vt 0.375000 0.531250
vt 0.312500 0.531250
vn 0.0000 0.0000 -1.0000
vn 1.0000 0.0000 0.0000
vn 0.0000 -0.0000 1.0000
vn -1.0000 0.0000 0.0000
vn 0.0000 1.0000 0.0000
vn 0.0000 -1.0000 0.0000
usemtl m_a84059dc-9038-c666-7ce4-c6c0423512db
s 1
f 17/17/5 18/18/5 19/19/5 20/20/5
f 21/21/6 17/17/6 20/20/6 22/22/6
f 23/23/7 21/24/7 22/25/7 24/26/7
f 18/18/8 23/27/8 24/28/8 19/19/8
f 24/29/9 22/30/9 20/20/9 19/19/9
f 18/18/10 17/17/10 21/31/10 23/32/10
o hull
v 0.631250 -0.000000 0.631250
v 0.631250 0.525000 0.631250
v 0.368750 0.525000 0.631250
v 0.368750 -0.000000 0.631250
v 0.368750 -0.000000 0.368750
v 0.368750 0.525000 0.368750
v 0.631250 0.525000 0.368750
v 0.631250 -0.000000 0.368750
v 0.500000 0.787500 0.500000
vt 0.750000 0.000000
vt 0.750000 0.500000
vt 0.500000 0.500000
vt 0.500000 0.000000
vt 0.750000 0.000000
vt 0.750000 0.500000
vt 0.500000 0.500000
vt 0.500000 0.000000
vt 0.250000 0.500000
vt 0.250000 0.000000
vt 0.250000 0.500000
vt 0.250000 0.000000
vt 0.250000 0.687500
vt 0.125000 0.968750
vt 0.000000 0.687500
vt 0.250000 0.687500
vt 0.000000 0.687500
vt 0.250000 0.375000
vt 0.125000 0.656250
vt 0.000000 0.375000
vt 0.250000 0.375000
vt 0.000000 0.375000
vn 0.0000 -0.0000 1.0000
vn 0.0000 0.0000 -1.0000
vn 1.0000 0.0000 0.0000
vn -1.0000 -0.0000 0.0000
vn 0.0000 0.4472 -0.8944
vn 0.0000 0.4472 0.8944
vn -0.8944 0.4472 0.0000
vn 0.8944 0.4472 0.0000
usemtl m_a84059dc-9038-c666-7ce4-c6c0423512db
s 1
f 25/33/11 26/34/11 27/35/11 28/36/11
f 29/37/12 30/38/12 31/39/12 32/40/12
f 32/40/13 31/39/13 26/41/13 25/42/13
f 28/36/14 27/35/14 30/43/14 29/44/14
f 30/45/15 33/46/15 31/47/15
f 26/48/16 33/46/16 27/49/16
f 27/50/17 33/51/17 30/52/17
f 31/53/18 33/51/18 26/54/18
o ball2
v 0.523202 0.721875 0.523202
v 0.476798 0.721875 0.476798
v 0.476798 0.787500 0.476798
v 0.523202 0.787500 0.523202
v 0.476798 0.721875 0.476798
v 0.523202 0.721875 0.523202
v 0.523202 0.787500 0.523202
v 0.476798 0.787500 0.476798
vt 0.375000 0.937500
vt 0.437500 0.937500
vt 0.437500 1.000000
vt 0.375000 1.000000
vt 0.375000 0.937500
vt 0.437500 0.937500
vt 0.437500 1.000000
vt 0.375000 1.000000
vn 0.7071 0.0000 -0.7071
vn -0.7071 0.0000 0.7071
usemtl m_a84059dc-9038-c666-7ce4-c6c0423512db
s 1
f 34/55/19 35/56/19 36/57/19 37/58/19
f 38/59/20 39/60/20 40/61/20 41/62/20
o ball
v 0.523202 0.721875 0.476798
v 0.476798 0.721875 0.523202
v 0.476798 0.787500 0.523202
v 0.523202 0.787500 0.476798
v 0.476798 0.721875 0.523202
v 0.523202 0.721875 0.476798
v 0.523202 0.787500 0.476798
v 0.476798 0.787500 0.523202
vt 0.375000 0.937500
vt 0.437500 0.937500
vt 0.437500 1.000000
vt 0.375000 1.000000
vt 0.375000 0.937500
vt 0.437500 0.937500
vt 0.437500 1.000000
vt 0.375000 1.000000
vn -0.7071 0.0000 -0.7071
vn 0.7071 0.0000 0.7071
usemtl m_a84059dc-9038-c666-7ce4-c6c0423512db
s 1
f 42/63/21 43/64/21 44/65/21 45/66/21
f 46/67/22 47/68/22 48/69/22 49/70/22
o ring
v 0.434375 0.727145 0.606102
v 0.565625 0.727145 0.606102
v 0.565625 0.777372 0.484843
v 0.434375 0.777372 0.484843
v 0.434375 0.777372 0.484843
v 0.565625 0.777372 0.484843
v 0.565625 0.727145 0.606102
v 0.434375 0.727145 0.606102
vt 0.218750 0.875000
vt 0.343750 0.875000
vt 0.343750 1.000000
vt 0.218750 1.000000
vt 0.218750 1.000000
vt 0.218750 0.875000
vt 0.343750 0.875000
vt 0.343750 1.000000
vn 0.0000 0.9239 0.3827
vn 0.0000 -0.9239 -0.3827
usemtl m_a84059dc-9038-c666-7ce4-c6c0423512db
s 1
f 50/71/23 51/72/23 52/73/23 53/74/23
f 54/75/24 55/76/24 56/77/24 57/78/24
o door
v 0.363828 0.098437 0.362188
v 0.363828 0.098437 0.598437
v 0.363828 0.459375 0.598438
v 0.363828 0.459375 0.362188
vt 0.000000 0.000000
vt 0.218750 0.000000
vt 0.218750 0.343750
vt 0.000000 0.343750
vn -1.0000 0.0000 0.0000
usemtl m_a84059dc-9038-c666-7ce4-c6c0423512db
s 1
f 58/79/25 59/80/25 60/81/25 61/82/25
o base
v 0.647656 -0.000000 0.352344
v 0.352344 -0.000000 0.352344
v 0.352344 0.032812 0.352344
v 0.647656 0.032812 0.352344
v 0.647656 -0.000000 0.647656
v 0.647656 0.032812 0.647656
v 0.352344 -0.000000 0.647656
v 0.352344 0.032812 0.647656
vt 0.500000 0.468750
vt 0.750000 0.468750
vt 0.750000 0.500000
vt 0.500000 0.500000
vt 0.250000 0.468750
vt 0.250000 0.500000
vt 0.250000 0.468750
vt 0.500000 0.468750
vt 0.500000 0.500000
vt 0.250000 0.500000
vt 0.250000 0.468750
vt 0.500000 0.468750
vt 0.500000 0.500000
vt 0.250000 0.500000
vt 0.750000 0.250000
vt 1.000000 0.250000
vt 1.000000 0.500000
vt 0.750000 0.000000
vt 1.000000 0.000000
vt 1.000000 0.250000
vt 0.750000 0.250000
vn 0.0000 0.0000 -1.0000
vn 1.0000 0.0000 0.0000
vn 0.0000 0.0000 1.0000
vn -1.0000 0.0000 0.0000
vn 0.0000 1.0000 0.0000
vn 0.0000 -1.0000 -0.0000
usemtl m_a84059dc-9038-c666-7ce4-c6c0423512db
s 1
f 62/83/26 63/84/26 64/85/26 65/86/26
f 66/87/27 62/83/27 65/86/27 67/88/27
f 68/89/28 66/90/28 67/91/28 69/92/28
f 63/93/29 68/94/29 69/95/29 64/96/29
f 69/97/30 67/98/30 65/99/30 64/85/30
f 63/100/31 62/101/31 66/102/31 68/103/31
