# Blender v3.2.2 OBJ File: ''
# www.blender.org
mtllib candle_lantern.mtl
o door
v 0.363828 0.453125 0.362188
v 0.363828 0.453125 0.424688
v 0.363828 0.484375 0.424688
v 0.363828 0.484375 0.362188
vt 0.000000 0.156250
vt 0.062500 0.156250
vt 0.062500 0.187500
vt 0.000000 0.187500
vn -1.0000 0.0000 0.0000
usemtl m_a84059dc-9038-c666-7ce4-c6c0423512db
s 1
f 1/1/1 2/2/1 3/3/1 4/4/1
o cube
v 0.949996 1.000000 0.050004
v 0.050004 1.000000 0.949996
v 0.050004 2.000000 0.949996
v 0.949996 2.000000 0.050005
v 0.050004 1.000000 0.949996
v 0.949996 1.000000 0.050004
v 0.949996 2.000000 0.050005
v 0.050004 2.000000 0.949996
vt 0.000000 0.000000
vt 1.000000 0.000000
vt 1.000000 1.000000
vt 0.000000 1.000000
vt 0.000000 0.000000
vt 1.000000 0.000000
vt 1.000000 1.000000
vt 0.000000 1.000000
vn -0.7071 0.0000 -0.7071
vn 0.7071 -0.0000 0.7071
usemtl m_30f5e3c8-5768-4984-7d16-ce0b1c9398f9
s 1
f 5/5/2 6/6/2 7/7/2 8/8/2
f 9/9/3 10/10/3 11/11/3 12/12/3
o cube.000
v 0.949996 1.000000 0.949996
v 0.050004 1.000000 0.050004
v 0.050004 2.000000 0.050005
v 0.949996 2.000000 0.949996
v 0.050004 1.000000 0.050004
v 0.949996 1.000000 0.949996
v 0.949996 2.000000 0.949996
v 0.050004 2.000000 0.050005
vt 0.000000 0.000000
vt 1.000000 0.000000
vt 1.000000 1.000000
vt 0.000000 1.000000
vt 0.000000 0.000000
vt 1.000000 0.000000
vt 1.000000 1.000000
vt 0.000000 1.000000
vn 0.7071 0.0000 -0.7071
vn -0.7071 -0.0000 0.7071
usemtl m_30f5e3c8-5768-4984-7d16-ce0b1c9398f9
s 1
f 13/13/4 14/14/4 15/15/4 16/16/4
f 17/17/5 18/18/5 19/19/5 20/20/5
o base
v 0.647656 0.182812 0.352344
v 0.352344 0.182812 0.352344
v 0.352344 0.215625 0.352344
v 0.647656 0.215625 0.352344
v 0.647656 0.182812 0.647656
v 0.647656 0.215625 0.647656
v 0.352344 0.182812 0.647656
v 0.352344 0.215625 0.647656
vt 0.500000 0.468750
vt 0.750000 0.468750
vt 0.750000 0.500000
vt 0.500000 0.500000
vt 0.250000 0.468750
vt 0.250000 0.500000
vt 0.250000 0.468750
vt 0.500000 0.468750
vt 0.500000 0.500000
vt 0.250000 0.500000
vt 0.250000 0.468750
vt 0.500000 0.468750
vt 0.500000 0.500000
vt 0.250000 0.500000
vt 0.750000 0.250000
vt 1.000000 0.250000
vt 1.000000 0.500000
vt 0.750000 0.000000
vt 1.000000 0.000000
vt 1.000000 0.250000
vt 0.750000 0.250000
vn 0.0000 0.0000 -1.0000
vn 1.0000 0.0000 0.0000
vn 0.0000 -0.0000 1.0000
vn -1.0000 0.0000 0.0000
vn 0.0000 1.0000 0.0000
vn 0.0000 -1.0000 -0.0000
usemtl m_a84059dc-9038-c666-7ce4-c6c0423512db
s 1
f 21/21/6 22/22/6 23/23/6 24/24/6
f 25/25/7 21/21/7 24/24/7 26/26/7
f 27/27/8 25/28/8 26/29/8 28/30/8
f 22/31/9 27/32/9 28/33/9 23/34/9
f 28/35/10 26/36/10 24/37/10 23/23/10
f 22/38/11 21/39/11 25/40/11 27/41/11
o ball
v 0.523202 0.904687 0.476798
v 0.476798 0.904687 0.523202
v 0.476798 0.970312 0.523202
v 0.523202 0.970312 0.476798
v 0.476798 0.904687 0.523202
v 0.523202 0.904687 0.476798
v 0.523202 0.970312 0.476798
v 0.476798 0.970312 0.523202
vt 0.375000 0.937500
vt 0.437500 0.937500
vt 0.437500 1.000000
vt 0.375000 1.000000
vt 0.375000 0.937500
vt 0.437500 0.937500
vt 0.437500 1.000000
vt 0.375000 1.000000
vn -0.7071 0.0000 -0.7071
vn 0.7071 -0.0000 0.7071
usemtl m_a84059dc-9038-c666-7ce4-c6c0423512db
s 1
f 29/42/12 30/43/12 31/44/12 32/45/12
f 33/46/13 34/47/13 35/48/13 36/49/13
o ball5
v 0.523202 0.904687 0.523202
v 0.476798 0.904687 0.476798
v 0.476798 0.970312 0.476798
v 0.523202 0.970312 0.523202
v 0.476798 0.904687 0.476798
v 0.523202 0.904687 0.523202
v 0.523202 0.970312 0.523202
v 0.476798 0.970312 0.476798
vt 0.375000 0.937500
vt 0.437500 0.937500
vt 0.437500 1.000000
vt 0.375000 1.000000
vt 0.375000 0.937500
vt 0.437500 0.937500
vt 0.437500 1.000000
vt 0.375000 1.000000
vn 0.7071 0.0000 -0.7071
vn -0.7071 -0.0000 0.7071
usemtl m_a84059dc-9038-c666-7ce4-c6c0423512db
s 1
f 37/50/14 38/51/14 39/52/14 40/53/14
f 41/54/15 42/55/15 43/56/15 44/57/15
o hull
v 0.631250 0.182812 0.631250
v 0.631250 0.707812 0.631250
v 0.368750 0.707812 0.631250
v 0.368750 0.182812 0.631250
v 0.368750 0.182812 0.368750
v 0.368750 0.707812 0.368750
v 0.631250 0.707812 0.368750
v 0.631250 0.182812 0.368750
v 0.500000 0.970312 0.500000
vt 0.750000 0.000000
vt 0.750000 0.500000
vt 0.500000 0.500000
vt 0.500000 0.000000
vt 0.750000 0.000000
vt 0.750000 0.500000
vt 0.500000 0.500000
vt 0.500000 0.000000
vt 0.750000 0.000000
vt 0.750000 0.500000
vt 0.500000 0.500000
vt 0.500000 0.000000
vt 0.750000 0.000000
vt 0.750000 0.500000
vt 0.500000 0.500000
vt 0.500000 0.000000
vt 0.250000 0.687500
vt 0.125000 0.968750
vt 0.000000 0.687500
vt 0.250000 0.687500
vt 0.000000 0.687500
vt 0.250000 0.375000
vt 0.125000 0.656250
vt 0.000000 0.375000
vt 0.250000 0.375000
vt 0.000000 0.375000
vn 0.0000 -0.0000 1.0000
vn 0.0000 0.0000 -1.0000
vn 1.0000 -0.0000 0.0000
vn -1.0000 0.0000 0.0000
vn 0.0000 0.4472 -0.8944
vn 0.0000 0.4472 0.8944
vn -0.8944 0.4472 0.0000
vn 0.8944 0.4472 0.0000
usemtl m_a84059dc-9038-c666-7ce4-c6c0423512db
s 1
f 45/58/16 46/59/16 47/60/16 48/61/16
f 49/62/17 50/63/17 51/64/17 52/65/17
f 52/66/18 51/67/18 46/68/18 45/69/18
f 48/70/19 47/71/19 50/72/19 49/73/19
f 50/74/20 53/75/20 51/76/20
f 46/77/21 53/75/21 47/78/21
f 47/79/22 53/80/22 50/81/22
f 51/82/23 53/80/23 46/83/23
o holes-sides
v 0.824827 0.445312 0.375313
v 0.500000 0.120485 0.375313
v 0.175173 0.445312 0.375313
v 0.500000 0.770140 0.375313
v 0.500000 0.120485 0.624687
v 0.824827 0.445312 0.624688
v 0.500000 0.770140 0.624688
v 0.175173 0.445312 0.624688
vt 0.500000 0.500000
vt 1.000000 0.500000
vt 1.000000 1.000000
vt 0.500000 1.000000
vt 1.000000 0.500000
vt 1.000000 1.000000
vt 0.500000 1.000000
vt 0.500000 0.500000
vn 0.0000 0.0000 -1.0000
vn 0.0000 -0.0000 1.0000
usemtl m_a84059dc-9038-c666-7ce4-c6c0423512db
s 1
f 54/84/24 55/85/24 56/86/24 57/87/24
f 58/88/25 59/89/25 60/90/25 61/91/25
o holes-sides.000
v 0.824827 0.445312 0.375313
v 0.500000 0.120485 0.375313
v 0.175173 0.445312 0.375313
v 0.500000 0.770140 0.375313
v 0.500000 0.120485 0.624687
v 0.824827 0.445312 0.624688
v 0.500000 0.770140 0.624688
v 0.175173 0.445312 0.624688
vt 0.500000 0.500000
vt 1.000000 0.500000
vt 1.000000 1.000000
vt 0.500000 1.000000
vt 1.000000 0.500000
vt 1.000000 1.000000
vt 0.500000 1.000000
vt 0.500000 0.500000
vn 0.0000 0.0000 -1.0000
vn 0.0000 -0.0000 1.0000
usemtl m_a84059dc-9038-c666-7ce4-c6c0423512db
s 1
f 62/92/26 63/93/26 64/94/26 65/95/26
f 66/96/27 67/97/27 68/98/27 69/99/27
o holes-sides.001
v 0.624687 0.445312 0.824827
v 0.624687 0.120485 0.500000
v 0.624687 0.445312 0.175173
v 0.624687 0.770140 0.500000
v 0.375313 0.120485 0.500000
v 0.375313 0.445312 0.824827
v 0.375313 0.770140 0.500000
v 0.375313 0.445312 0.175173
vt 0.500000 0.500000
vt 1.000000 0.500000
vt 1.000000 1.000000
vt 0.500000 1.000000
vt 1.000000 0.500000
vt 1.000000 1.000000
vt 0.500000 1.000000
vt 0.500000 0.500000
vn 1.0000 0.0000 0.0000
vn -1.0000 0.0000 0.0000
usemtl m_a84059dc-9038-c666-7ce4-c6c0423512db
s 1
f 70/100/28 71/101/28 72/102/28 73/103/28
f 74/104/29 75/105/29 76/106/29 77/107/29
o ring
v 0.434375 1.068750 0.500000
v 0.565625 1.068750 0.500000
v 0.565625 0.937500 0.500000
v 0.434375 0.937500 0.500000
v 0.434375 0.937500 0.500000
v 0.565625 0.937500 0.500000
v 0.565625 1.068750 0.500000
v 0.434375 1.068750 0.500000
vt 0.343750 1.000000
vt 0.218750 1.000000
vt 0.218750 0.875000
vt 0.343750 0.875000
vt 0.218750 0.875000
vt 0.343750 0.875000
vt 0.343750 1.000000
vt 0.218750 1.000000
vn 0.0000 0.0000 -1.0000
vn 0.0000 0.0000 1.0000
usemtl m_a84059dc-9038-c666-7ce4-c6c0423512db
s 1
f 78/108/30 79/109/30 80/110/30 81/111/30
f 82/112/31 83/113/31 84/114/31 85/115/31
