# Blender 4.2.1 LTS
# www.blender.org
mtllib dolia.mtl
o dolia
v 0.812500 0.000000 0.629442
v 0.812500 0.000000 0.370558
v 0.629442 0.000000 0.812500
v 0.370558 0.000000 0.812500
v 0.187500 0.000000 0.629442
v 0.187500 0.000000 0.370558
v 0.370558 0.000000 0.187500
v 0.629442 0.000000 0.187500
v 0.357614 0.000000 0.843750
v 0.642386 0.000000 0.843750
v 0.843750 0.000000 0.642386
v 0.843750 0.000000 0.357614
v 0.642386 0.000000 0.156250
v 0.357614 0.000000 0.156250
v 0.156250 0.000000 0.357614
v 0.156250 0.000000 0.642386
v 0.642386 0.062500 0.843750
v 0.357614 0.062500 0.843750
v 0.843750 0.062500 0.642386
v 0.843750 0.062500 0.357614
v 0.642386 0.062500 0.156250
v 0.357614 0.062500 0.156250
v 0.156250 0.062500 0.357614
v 0.156250 0.062500 0.642386
v 0.250000 0.109375 0.603553
v 0.396447 0.109375 0.750000
v 0.500000 0.109375 0.500000
v 0.250000 0.109375 0.396447
v 0.396447 0.109375 0.250000
v 0.603553 0.109375 0.250000
v 0.750000 0.109375 0.396447
v 0.750000 0.109375 0.603553
v 0.603553 0.109375 0.750000
vn -0.0000 1.0000 -0.0000
vn 1.0000 -0.0000 -0.0000
vn 0.7071 -0.0000 0.7071
vn -0.0000 -0.0000 1.0000
vn -0.7071 -0.0000 0.7071
vn -1.0000 -0.0000 -0.0000
vn -0.7071 -0.0000 -0.7071
vn -0.0000 -0.0000 -1.0000
vn 0.7071 -0.0000 -0.7071
vn -0.0000 -1.0000 -0.0000
vn 0.4472 0.8944 -0.0000
vn 0.3162 0.8944 0.3162
vn -0.0000 0.8944 0.4472
vn -0.4472 0.8944 -0.0000
vn -0.3162 0.8944 -0.3162
vn -0.0000 0.8944 -0.4472
vn 0.3162 0.8944 -0.3162
vn -0.3162 0.8944 0.3162
vt 0.223652 0.390625
vt 0.296875 0.463848
vt 0.171875 0.515625
vt 0.296875 0.567402
vt 0.223652 0.640625
vt 0.120098 0.640625
vt 0.046875 0.567402
vt 0.046875 0.463848
vt 0.120098 0.390625
vt 0.796875 0.718750
vt 0.656250 0.718750
vt 0.656250 0.687500
vt 0.796875 0.687500
vt 0.937500 0.718750
vt 0.937500 0.687500
vt 0.242188 0.343750
vt 0.101562 0.343750
vt 0.109375 0.328125
vt 0.234375 0.328125
vt 0.343750 0.101562
vt 0.343750 0.242188
vt 0.328125 0.234375
vt 0.328125 0.109375
vt 0.101562 0.000000
vt 0.242188 0.000000
vt 0.234375 0.015625
vt 0.109375 0.015625
vt 0.000000 0.242188
vt 0.000000 0.101562
vt 0.015625 0.109375
vt 0.015625 0.234375
vt 0.046875 0.503906
vt 0.000000 0.523438
vt 0.000000 0.382812
vt 0.046875 0.402344
vt 0.300781 0.390625
vt 0.320312 0.343750
vt 0.179688 0.343750
vt 0.199219 0.390625
vt 0.160156 0.390625
vt 0.039062 0.343750
vt 0.058594 0.390625
vt 0.296875 0.527344
vt 0.343750 0.507812
vt 0.343750 0.648438
vt 0.296875 0.628906
vt 0.296875 0.386719
vt 0.343750 0.367188
vt 0.296875 0.488281
vt 0.167969 0.640625
vt 0.148438 0.687500
vt 0.289062 0.687500
vt 0.269531 0.640625
vt 0.128906 0.640625
vt 0.109375 0.687500
vt 0.250000 0.687500
vt 0.230469 0.640625
vt 0.000000 0.515625
vt 0.046875 0.535156
vt 0.046875 0.636719
vt 0.000000 0.656250
s 0
usemtl m_913a8809-010f-b3d9-62b0-683d37a6fa83
f 33/1/1 32/2/1 27/3/1
f 32/2/1 31/4/1 27/3/1
f 31/4/1 30/5/1 27/3/1
f 30/5/1 29/6/1 27/3/1
f 29/6/1 28/7/1 27/3/1
f 28/7/1 25/8/1 27/3/1
f 25/8/1 26/9/1 27/3/1
f 26/9/1 33/1/1 27/3/1
f 20/10/2 19/11/2 11/12/2 12/13/2
f 19/14/3 17/10/3 10/13/3 11/15/3
f 17/10/4 18/11/4 9/12/4 10/13/4
f 18/14/5 24/10/5 16/13/5 9/15/5
f 24/10/6 23/11/6 15/12/6 16/13/6
f 23/14/7 22/10/7 14/13/7 15/15/7
f 22/10/8 21/11/8 13/12/8 14/13/8
f 21/14/9 20/10/9 12/13/9 13/15/9
f 10/16/10 9/17/10 4/18/10 3/19/10
f 11/20/10 10/21/10 3/22/10 1/23/10
f 12/20/10 11/21/10 1/22/10 2/23/10
f 13/24/10 12/25/10 2/26/10 8/27/10
f 14/24/10 13/25/10 8/26/10 7/27/10
f 15/28/10 14/29/10 7/30/10 6/31/10
f 16/28/10 15/29/10 6/30/10 5/31/10
f 9/16/10 16/17/10 5/18/10 4/19/10
f 32/32/11 19/33/11 20/34/11 31/35/11
f 33/36/12 17/37/12 19/38/12 32/39/12
f 26/40/13 18/38/13 17/41/13 33/42/13
f 28/43/14 23/44/14 24/45/14 25/46/14
f 29/47/15 22/48/15 23/44/15 28/49/15
f 30/50/16 21/51/16 22/52/16 29/53/16
f 31/54/17 20/55/17 21/56/17 30/57/17
f 18/58/18 26/59/18 25/60/18 24/61/18
o handle.001
v 0.367417 0.093750 0.632583
v 0.367417 0.218750 0.632583
v 0.632583 0.093750 0.367417
v 0.632583 0.218750 0.367417
v 0.632583 0.093750 0.367417
v 0.632583 0.218750 0.367417
v 0.367417 0.093750 0.632583
v 0.367417 0.218750 0.632583
vn -0.7071 -0.0000 -0.7071
vn 0.7071 -0.0000 0.7071
vt 0.890625 0.734375
vt 0.890625 0.796875
vt 0.703125 0.796875
vt 0.703125 0.734375
s 0
usemtl m_913a8809-010f-b3d9-62b0-683d37a6fa83
f 34/62/19 35/63/19 37/64/19 36/65/19
f 38/65/20 39/64/20 41/63/20 40/62/20
