# Blender 4.2.1 LTS
# www.blender.org
mtllib dolia.mtl
o dolia.001
v 0.812500 0.000000 0.629442
v 0.812500 0.000000 0.370558
v 0.629442 0.000000 0.812500
v 0.370558 0.000000 0.812500
v 0.187500 0.000000 0.629442
v 0.187500 0.000000 0.370558
v 0.370558 0.000000 0.187500
v 0.629442 0.000000 0.187500
v 0.750000 0.062500 0.603553
v 0.750000 0.062500 0.396447
v 0.603553 0.062500 0.750000
v 0.396447 0.062500 0.750000
v 0.250000 0.062500 0.603553
v 0.250000 0.062500 0.396447
v 0.396447 0.062500 0.250000
v 0.603553 0.062500 0.250000
v 0.642386 0.062500 0.843750
v 0.357614 0.062500 0.843750
v 0.357614 0.000000 0.843750
v 0.642386 0.000000 0.843750
v 0.843750 0.062500 0.642386
v 0.843750 0.000000 0.642386
v 0.843750 0.062500 0.357614
v 0.843750 0.000000 0.357614
v 0.642386 0.062500 0.156250
v 0.642386 0.000000 0.156250
v 0.357614 0.062500 0.156250
v 0.357614 0.000000 0.156250
v 0.156250 0.062500 0.357614
v 0.156250 0.000000 0.357614
v 0.156250 0.062500 0.642386
v 0.156250 0.000000 0.642386
v 0.250000 0.093750 0.603553
v 0.396447 0.093750 0.750000
v 0.500000 0.093750 0.500000
v 0.250000 0.093750 0.396447
v 0.396447 0.093750 0.250000
v 0.603553 0.093750 0.250000
v 0.750000 0.093750 0.396447
v 0.750000 0.093750 0.603553
v 0.603553 0.093750 0.750000
vn -0.0000 1.0000 -0.0000
vn 1.0000 -0.0000 -0.0000
vn 0.7071 -0.0000 0.7071
vn -0.0000 -0.0000 1.0000
vn -0.7071 -0.0000 0.7071
vn -1.0000 -0.0000 -0.0000
vn -0.7071 -0.0000 -0.7071
vn -0.0000 -0.0000 -1.0000
vn 0.7071 -0.0000 -0.7071
vn -0.0000 -1.0000 -0.0000
vt 0.223652 0.390625
vt 0.296875 0.463848
vt 0.171875 0.515625
vt 0.296875 0.567402
vt 0.223652 0.640625
vt 0.120098 0.640625
vt 0.046875 0.567402
vt 0.046875 0.463848
vt 0.120098 0.390625
vt 0.796875 0.718750
vt 0.656250 0.718750
vt 0.656250 0.687500
vt 0.796875 0.687500
vt 0.937500 0.718750
vt 0.937500 0.687500
vt 0.031250 0.343750
vt 0.171875 0.343750
vt 0.152344 0.390625
vt 0.050781 0.390625
vt 0.242188 0.343750
vt 0.101562 0.343750
vt 0.109375 0.328125
vt 0.234375 0.328125
vt 0.312500 0.343750
vt 0.292969 0.390625
vt 0.191406 0.390625
vt 0.343750 0.101562
vt 0.343750 0.242188
vt 0.328125 0.234375
vt 0.328125 0.109375
vt 0.343750 0.375000
vt 0.343750 0.515625
vt 0.296875 0.492188
vt 0.296875 0.394531
vt 0.343750 0.656250
vt 0.296875 0.636719
vt 0.296875 0.535156
vt 0.101562 0.000000
vt 0.242188 0.000000
vt 0.234375 0.015625
vt 0.109375 0.015625
vt 0.312500 0.687500
vt 0.171875 0.687500
vt 0.191406 0.640625
vt 0.292969 0.640625
vt 0.031250 0.687500
vt 0.050781 0.640625
vt 0.148438 0.640625
vt 0.000000 0.242188
vt 0.000000 0.101562
vt 0.015625 0.109375
vt 0.015625 0.234375
vt 0.000000 0.656250
vt 0.000000 0.515625
vt 0.046875 0.535156
vt 0.046875 0.636719
vt 0.000000 0.375000
vt 0.046875 0.394531
vt 0.046875 0.496094
vt 0.921875 0.734375
vt 0.812500 0.734375
vt 0.812500 0.718750
vt 0.921875 0.718750
vt 0.703125 0.734375
vt 0.703125 0.718750
s 0
usemtl m_913a8809-010f-b3d9-62b0-683d37a6fa83
f 41/1/1 40/2/1 35/3/1
f 40/2/1 39/4/1 35/3/1
f 39/4/1 38/5/1 35/3/1
f 38/5/1 37/6/1 35/3/1
f 37/6/1 36/7/1 35/3/1
f 36/7/1 33/8/1 35/3/1
f 33/8/1 34/9/1 35/3/1
f 34/9/1 41/1/1 35/3/1
f 23/10/2 21/11/2 22/12/2 24/13/2
f 21/14/3 17/10/3 20/13/3 22/15/3
f 17/10/4 18/11/4 19/12/4 20/13/4
f 18/14/5 31/10/5 32/13/5 19/15/5
f 31/10/6 29/11/6 30/12/6 32/13/6
f 29/14/7 27/10/7 28/13/7 30/15/7
f 27/10/8 25/11/8 26/12/8 28/13/8
f 25/14/9 23/10/9 24/13/9 26/15/9
f 18/16/1 17/17/1 11/18/1 12/19/1
f 20/20/10 19/21/10 4/22/10 3/23/10
f 17/17/1 21/24/1 9/25/1 11/26/1
f 22/27/10 20/28/10 3/29/10 1/30/10
f 21/31/1 23/32/1 10/33/1 9/34/1
f 24/27/10 22/28/10 1/29/10 2/30/10
f 23/32/1 25/35/1 16/36/1 10/37/1
f 26/38/10 24/39/10 2/40/10 8/41/10
f 25/42/1 27/43/1 15/44/1 16/45/1
f 28/38/10 26/39/10 8/40/10 7/41/10
f 27/43/1 29/46/1 14/47/1 15/48/1
f 30/49/10 28/50/10 7/51/10 6/52/10
f 29/53/1 31/54/1 13/55/1 14/56/1
f 32/49/10 30/50/10 6/51/10 5/52/10
f 31/54/1 18/57/1 12/58/1 13/59/1
f 19/20/10 32/21/10 5/22/10 4/23/10
f 34/60/5 33/61/5 13/62/5 12/63/5
f 33/61/6 36/64/6 14/65/6 13/62/6
f 36/60/7 37/61/7 15/62/7 14/63/7
f 37/61/8 38/64/8 16/65/8 15/62/8
f 38/60/9 39/61/9 10/62/9 16/63/9
f 39/61/2 40/64/2 9/65/2 10/62/2
f 40/60/3 41/61/3 11/62/3 9/63/3
f 41/61/4 34/64/4 12/65/4 11/62/4
o handle
v 0.687500 0.093750 0.500000
v 0.687500 0.218750 0.500000
v 0.312500 0.093750 0.500000
v 0.312500 0.218750 0.500000
v 0.312500 0.093750 0.500000
v 0.312500 0.218750 0.500000
v 0.687500 0.093750 0.500000
v 0.687500 0.218750 0.500000
vn -0.0000 -0.0000 1.0000
vn -0.0000 -0.0000 -1.0000
vt 0.890625 0.734375
vt 0.890625 0.796875
vt 0.703125 0.796875
vt 0.703125 0.734375
s 0
usemtl m_913a8809-010f-b3d9-62b0-683d37a6fa83
f 42/66/11 43/67/11 45/68/11 44/69/11
f 46/69/12 47/68/12 49/67/12 48/66/12
