# Blender v3.2.2 OBJ File: ''
# www.blender.org
mtllib elven_hand_light.mtl
o Element
v 0.500000 0.906250 0.531250
v 0.500000 0.906250 0.468750
v 0.500000 1.000000 0.468750
v 0.500000 1.000000 0.531250
v 0.500000 0.906250 0.468750
v 0.500000 0.906250 0.531250
v 0.500000 1.000000 0.531250
v 0.500000 1.000000 0.468750
vt 0.468750 0.500000
vt 0.531250 0.500000
vt 0.531250 0.593750
vt 0.468750 0.593750
vt 0.468750 0.500000
vt 0.531250 0.500000
vt 0.531250 0.593750
vt 0.468750 0.593750
vn 1.0000 0.0000 0.0000
vn -1.0000 0.0000 0.0000
usemtl m_3803a11e-1795-4ee2-c429-3433684bfdfa
s 1
f 1/1/1 2/2/1 3/3/1 4/4/1
f 5/5/2 6/6/2 7/7/2 8/8/2
o Element.000
v 0.531250 0.906250 0.500000
v 0.468750 0.906250 0.500000
v 0.468750 1.000000 0.500000
v 0.531250 1.000000 0.500000
v 0.468750 0.906250 0.500000
v 0.531250 0.906250 0.500000
v 0.531250 1.000000 0.500000
v 0.468750 1.000000 0.500000
vt 0.468750 0.500000
vt 0.531250 0.500000
vt 0.531250 0.593750
vt 0.468750 0.593750
vt 0.468750 0.500000
vt 0.531250 0.500000
vt 0.531250 0.593750
vt 0.468750 0.593750
vn 0.0000 0.0000 -1.0000
vn 0.0000 -0.0000 1.0000
usemtl m_3803a11e-1795-4ee2-c429-3433684bfdfa
s 1
f 9/9/3 10/10/3 11/11/3 12/12/3
f 13/13/4 14/14/4 15/15/4 16/16/4
o Element.001
v 0.500000 0.531250 0.640625
v 0.500000 0.531250 0.390625
v 0.500000 0.781250 0.390625
v 0.500000 0.781250 0.640625
v 0.500000 0.531250 0.390625
v 0.500000 0.531250 0.640625
v 0.500000 0.781250 0.640625
v 0.500000 0.781250 0.390625
vt 0.218750 0.625000
vt 0.468750 0.625000
vt 0.468750 0.875000
vt 0.218750 0.875000
vt 0.468750 0.625000
vt 0.218750 0.625000
vt 0.218750 0.875000
vt 0.468750 0.875000
vn 1.0000 0.0000 0.0000
vn -1.0000 0.0000 0.0000
usemtl m_889e2ed8-010f-d62c-b037-17fb12a66fe0
s 1
f 17/17/5 18/18/5 19/19/5 20/20/5
f 21/21/6 22/22/6 23/23/6 24/24/6
o Element.002
v 0.609375 0.531250 0.500000
v 0.359375 0.531250 0.500000
v 0.359375 0.781250 0.500000
v 0.609375 0.781250 0.500000
v 0.359375 0.531250 0.500000
v 0.609375 0.531250 0.500000
v 0.609375 0.781250 0.500000
v 0.359375 0.781250 0.500000
vt 0.468750 0.625000
vt 0.218750 0.625000
vt 0.218750 0.875000
vt 0.468750 0.875000
vt 0.218750 0.625000
vt 0.468750 0.625000
vt 0.468750 0.875000
vt 0.218750 0.875000
vn 0.0000 0.0000 -1.0000
vn 0.0000 -0.0000 1.0000
usemtl m_889e2ed8-010f-d62c-b037-17fb12a66fe0
s 1
f 25/25/7 26/26/7 27/27/7 28/28/7
f 29/29/8 30/30/8 31/31/8 32/32/8
o Element.003
v 0.562500 0.125000 0.437500
v 0.437500 0.125000 0.437500
v 0.437500 0.531250 0.437500
v 0.562500 0.531250 0.437500
v 0.562500 0.125000 0.562500
v 0.562500 0.531250 0.562500
v 0.437500 0.125000 0.562500
v 0.437500 0.531250 0.562500
vt 0.281250 0.218750
vt 0.406250 0.218750
vt 0.406250 0.625000
vt 0.281250 0.625000
vt 0.312500 0.218750
vt 0.437500 0.218750
vt 0.437500 0.625000
vt 0.312500 0.625000
vt 0.312500 0.218750
vt 0.437500 0.218750
vt 0.437500 0.625000
vt 0.312500 0.625000
vt 0.281250 0.218750
vt 0.406250 0.218750
vt 0.406250 0.625000
vt 0.281250 0.625000
vt 0.843750 0.031250
vt 0.968750 0.031250
vt 0.968750 0.156250
vt 0.843750 0.156250
vn 0.0000 0.0000 -1.0000
vn 1.0000 0.0000 0.0000
vn 0.0000 -0.0000 1.0000
vn -1.0000 0.0000 0.0000
vn 0.0000 1.0000 0.0000
usemtl m_889e2ed8-010f-d62c-b037-17fb12a66fe0
s 1
f 33/33/9 34/34/9 35/35/9 36/36/9
f 37/37/10 33/38/10 36/39/10 38/40/10
f 39/41/11 37/42/11 38/43/11 40/44/11
f 34/45/12 39/46/12 40/47/12 35/48/12
f 40/49/13 38/50/13 36/51/13 35/52/13
o cuboid
v 0.625000 -0.000000 0.375000
v 0.625000 0.062500 0.375000
v 0.625000 0.062500 0.625000
v 0.625000 -0.000000 0.625000
v 0.375000 -0.000000 0.625000
v 0.375000 0.062500 0.625000
v 0.375000 0.062500 0.375000
v 0.375000 -0.000000 0.375000
v 0.343750 0.062500 0.343750
v 0.343750 0.125000 0.343750
v 0.656250 0.125000 0.343750
v 0.656250 0.062500 0.343750
v 0.343750 0.062500 0.656250
v 0.343750 0.125000 0.656250
v 0.656250 0.062500 0.656250
v 0.656250 0.125000 0.656250
v 0.625000 0.812500 0.375000
v 0.625000 0.125000 0.375000
v 0.375000 0.125000 0.375000
v 0.375000 0.812500 0.375000
v 0.375000 0.125000 0.625000
v 0.375000 0.812500 0.625000
v 0.625000 0.125000 0.625000
v 0.625000 0.812500 0.625000
vt 0.312500 0.187500
vt 0.312500 0.250000
vt 0.031250 0.250000
vt 0.031250 0.187500
vt 0.312500 0.187500
vt 0.312500 0.250000
vt 0.031250 0.250000
vt 0.031250 0.187500
vt 0.281250 0.031250
vt 0.281250 0.281250
vt 0.031250 0.281250
vt 0.031250 0.031250
vt 0.312500 0.187500
vt 0.312500 0.250000
vt 0.031250 0.250000
vt 0.031250 0.187500
vt 0.312500 0.187500
vt 0.312500 0.250000
vt 0.031250 0.250000
vt 0.031250 0.187500
vt 0.312500 0.250000
vt 0.312500 0.312500
vt 0.000000 0.312500
vt 0.000000 0.250000
vt 0.312500 0.250000
vt 0.312500 0.312500
vt 0.000000 0.312500
vt 0.000000 0.250000
vt 0.312500 0.250000
vt 0.312500 0.312500
vt 0.000000 0.312500
vt 0.000000 0.250000
vt 0.312500 0.250000
vt 0.312500 0.312500
vt 0.000000 0.312500
vt 0.000000 0.250000
vt 0.031250 1.000000
vt 0.031250 0.312500
vt 0.312500 0.312500
vt 0.312500 1.000000
vt 0.031250 1.000000
vt 0.031250 0.312500
vt 0.312500 0.312500
vt 0.312500 1.000000
vt 0.031250 1.000000
vt 0.031250 0.312500
vt 0.312500 0.312500
vt 0.312500 1.000000
vt 0.031250 1.000000
vt 0.031250 0.312500
vt 0.312500 0.312500
vt 0.312500 1.000000
vt 0.031250 0.281250
vt 0.281250 0.281250
vt 0.000000 0.000000
vt 0.312500 0.000000
vt 0.281250 0.031250
vt 0.031250 0.031250
vt 0.000000 0.000000
vt 0.031250 0.031250
vt 0.000000 0.312500
vt 0.031250 0.281250
vt 0.312500 0.000000
vt 0.281250 0.031250
vt 0.312500 0.312500
vt 0.281250 0.281250
vn 1.0000 0.0000 0.0000
vn -1.0000 0.0000 0.0000
vn 0.0000 -1.0000 -0.0000
vn 0.0000 0.0000 1.0000
vn 0.0000 0.0000 -1.0000
vn 0.0000 1.0000 0.0000
usemtl m_3803a11e-1795-4ee2-c429-3433684bfdfa
s 1
f 41/53/14 42/54/14 43/55/14 44/56/14
f 45/57/15 46/58/15 47/59/15 48/60/15
f 41/61/16 44/62/16 45/63/16 48/64/16
f 44/65/17 43/66/17 46/67/17 45/68/17
f 48/69/18 47/70/18 42/71/18 41/72/18
f 49/73/18 50/74/18 51/75/18 52/76/18
f 53/77/15 54/78/15 50/79/15 49/80/15
f 55/81/17 56/82/17 54/83/17 53/84/17
f 52/85/14 51/86/14 56/87/14 55/88/14
f 57/89/18 58/90/18 59/91/18 60/92/18
f 60/93/15 59/94/15 61/95/15 62/96/15
f 62/97/17 61/98/17 63/99/17 64/100/17
f 64/101/14 63/102/14 58/103/14 57/104/14
f 51/86/19 50/79/19 59/105/19 58/106/19
f 49/107/16 52/108/16 42/109/16 47/110/16
f 50/79/19 54/111/19 61/112/19 59/105/19
f 53/113/16 49/107/16 47/110/16 46/114/16
f 54/111/19 56/115/19 63/116/19 61/112/19
f 55/117/16 53/113/16 46/114/16 43/118/16
f 56/115/19 51/86/19 58/106/19 63/116/19
f 52/108/16 55/117/16 43/118/16 42/109/16
o cuboid.000
v 0.765625 0.640625 0.234375
v 0.765625 0.640625 0.765625
v 0.625000 0.296875 0.625000
v 0.625000 0.296875 0.375000
v 0.375000 0.296875 0.625000
v 0.234375 0.640625 0.765625
v 0.234375 0.640625 0.234375
v 0.375000 0.296875 0.375000
v 0.484375 0.750000 0.515625
v 0.515625 0.750000 0.515625
v 0.515625 0.750000 0.484375
v 0.484375 0.750000 0.484375
vt 0.765625 0.468750
vt 0.234375 0.468750
vt 0.375000 0.093750
vt 0.625000 0.093750
vt 0.625000 0.093750
vt 0.765625 0.468750
vt 0.234375 0.468750
vt 0.375000 0.093750
vt 0.484375 0.750000
vt 0.515625 0.750000
vt 0.515625 0.750000
vt 0.484375 0.750000
vt 0.000000 0.750000
vt 0.250000 0.750000
vt 0.250000 1.000000
vt 0.000000 1.000000
vn 0.9255 -0.3786 -0.0000
vn -0.9255 -0.3786 -0.0000
vn 0.0000 -0.3786 0.9255
vn 0.0000 -0.3786 -0.9255
vn 0.0000 0.9162 0.4008
vn 0.4008 0.9162 0.0000
vn 0.0000 0.9162 -0.4008
vn -0.4008 0.9162 0.0000
vn 0.0000 1.0000 0.0000
usemtl m_d16305ee-9109-a5ed-221c-f7710f263047
s 1
f 65/119/20 66/120/20 67/121/20 68/122/20
f 69/123/21 70/124/21 71/125/21 72/126/21
f 67/121/22 66/120/22 70/124/22 69/123/22
f 71/125/23 65/119/23 68/122/23 72/126/23
f 74/127/24 73/128/24 70/124/24 66/120/24
f 75/129/25 74/127/25 66/120/25 65/119/25
f 76/130/26 75/129/26 65/119/26 71/125/26
f 73/128/27 76/130/27 71/125/27 70/124/27
usemtl none
f 73/131/28 74/132/28 75/133/28 76/134/28
o pyramid
v 0.812500 0.631250 0.187500
v 0.812500 0.631250 0.812500
v 0.500000 0.943750 0.500000
v 0.187500 0.631250 0.812500
v 0.187500 0.631250 0.187500
vt 0.812500 0.468750
vt 0.187500 0.468750
vt 0.500000 0.906250
vt 0.812500 0.468750
vt 0.187500 0.468750
vn -0.7071 -0.7071 -0.0000
vn 0.0000 -0.7071 -0.7071
vn 0.0000 -0.7071 0.7071
vn 0.7071 -0.7071 -0.0000
usemtl m_d16305ee-9109-a5ed-221c-f7710f263047
s 1
f 77/135/29 78/136/29 79/137/29
f 78/136/30 80/138/30 79/137/30
f 81/139/31 77/135/31 79/137/31
f 80/138/32 81/139/32 79/137/32
o pyramid.000
v 0.812500 0.631250 0.812500
v 0.812500 0.631250 0.187500
v 0.500000 0.943750 0.500000
v 0.187500 0.631250 0.812500
v 0.187500 0.631250 0.187500
vt 0.187500 0.468750
vt 0.812500 0.468750
vt 0.500000 0.906250
vt 0.812500 0.468750
vt 0.187500 0.468750
vn 0.7071 0.7071 0.0000
vn 0.0000 0.7071 0.7071
vn 0.0000 0.7071 -0.7071
vn -0.7071 0.7071 0.0000
usemtl m_d16305ee-9109-a5ed-221c-f7710f263047
s 1
f 82/140/33 83/141/33 84/142/33
f 85/143/34 82/140/34 84/142/34
f 83/141/35 86/144/35 84/142/35
f 86/144/36 85/143/36 84/142/36
