# Blender v3.2.2 OBJ File: ''
# www.blender.org
mtllib kettle.mtl
o cylinder
v 0.750000 -0.000000 0.625650
v 0.594400 -0.000000 0.781250
v 0.484375 -0.000000 0.515625
v 0.750000 0.312500 0.625651
v 0.594400 0.312500 0.781250
v 0.529680 0.390625 0.625000
v 0.593750 0.390625 0.560930
v 0.484375 0.390625 0.515625
v 0.750000 -0.000000 0.405600
v 0.750000 0.312500 0.405600
v 0.593750 0.390625 0.470320
v 0.594400 -0.000000 0.250000
v 0.594400 0.312500 0.250000
v 0.529680 0.390625 0.406250
v 0.374350 -0.000000 0.250000
v 0.374350 0.312500 0.250000
v 0.439070 0.390625 0.406250
v 0.218750 -0.000000 0.405600
v 0.218750 0.312500 0.405600
v 0.375000 0.390625 0.470320
v 0.218750 -0.000000 0.625650
v 0.218750 0.312500 0.625651
v 0.375000 0.390625 0.560930
v 0.374350 -0.000000 0.781250
v 0.374350 0.312500 0.781250
v 0.439070 0.390625 0.625000
v 0.529680 0.359375 0.625000
v 0.439070 0.359375 0.625000
v 0.593750 0.359375 0.560930
v 0.593750 0.359375 0.470320
v 0.529680 0.359375 0.406250
v 0.439070 0.359375 0.406250
v 0.375000 0.359375 0.470320
v 0.375000 0.359375 0.560930
vt 1.000000 0.375650
vt 0.844400 0.531250
vt 0.734375 0.265625
vt 0.218750 0.000000
vt 0.437500 0.000000
vt 0.437500 0.312500
vt 0.218750 0.312500
vt 0.810930 0.531250
vt 0.875000 0.595320
vt 0.765625 0.640625
vt 1.000000 0.155600
vt 0.000000 0.000000
vt 0.218750 0.000000
vt 0.218750 0.312500
vt 0.000000 0.312500
vt 0.875000 0.685930
vt 0.844400 0.000000
vt 0.437500 0.000000
vt 0.437500 0.312500
vt 0.810930 0.750000
vt 0.624350 0.000000
vt 0.000000 0.000000
vt 0.218750 0.000000
vt 0.218750 0.312500
vt 0.000000 0.312500
vt 0.720320 0.750000
vt 0.468750 0.155600
vt 0.437500 0.000000
vt 0.437500 0.312500
vt 0.656250 0.685930
vt 0.468750 0.375650
vt 0.000000 0.000000
vt 0.218750 0.000000
vt 0.218750 0.312500
vt 0.000000 0.312500
vt 0.656250 0.595320
vt 0.624350 0.531250
vt 0.437500 0.000000
vt 0.437500 0.312500
vt 0.720320 0.531250
vt 0.000000 0.000000
vt 0.000000 0.312500
vt 0.310930 0.625000
vt 0.220320 0.625000
vt 0.155600 0.468750
vt 0.375650 0.468750
vt 0.375000 0.689070
vt 0.531250 0.624350
vt 0.375000 0.779680
vt 0.531250 0.844400
vt 0.310930 0.843750
vt 0.375650 1.000000
vt 0.220320 0.843750
vt 0.155600 1.000000
vt 0.156250 0.779680
vt 0.000000 0.844400
vt 0.156250 0.689070
vt 0.000000 0.624350
vt 0.156250 0.375000
vt 0.062500 0.375000
vt 0.062500 0.343750
vt 0.156250 0.343750
vt 0.156250 0.375000
vt 0.062500 0.375000
vt 0.062500 0.343750
vt 0.156250 0.343750
vt 0.156250 0.375000
vt 0.062500 0.375000
vt 0.062500 0.343750
vt 0.156250 0.343750
vt 0.156250 0.375000
vt 0.062500 0.375000
vt 0.062500 0.343750
vt 0.156250 0.343750
vt 0.156250 0.375000
vt 0.062500 0.375000
vt 0.062500 0.343750
vt 0.156250 0.343750
vt 0.156250 0.375000
vt 0.062500 0.375000
vt 0.062500 0.343750
vt 0.156250 0.343750
vt 0.156250 0.375000
vt 0.062500 0.375000
vt 0.062500 0.343750
vt 0.156250 0.343750
vt 0.156250 0.375000
vt 0.062500 0.375000
vt 0.062500 0.343750
vt 0.156250 0.343750
vn -0.0000 -1.0000 -0.0000
vn 0.7071 -0.0000 0.7071
vn 0.0000 1.0000 0.0000
vn 1.0000 0.0000 0.0000
vn 0.7071 0.0000 -0.7071
vn 0.0000 0.0000 -1.0000
vn -0.7071 0.0000 -0.7071
vn -1.0000 -0.0000 0.0000
vn -0.7071 -0.0000 0.7071
vn 0.0000 -0.0000 1.0000
vn 0.0000 0.9578 0.2873
vn 0.2032 0.9578 0.2032
vn 0.2873 0.9578 0.0000
vn 0.2032 0.9578 -0.2032
vn 0.0000 0.9578 -0.2873
vn -0.2032 0.9578 -0.2032
vn -0.2873 0.9578 0.0000
vn -0.2032 0.9578 0.2032
usemtl m_c8e7cd14-7a1a-38c4-bcff-72d66c5ae287
s 1
f 1/1/1 2/2/1 3/3/1
f 2/4/2 1/5/2 4/6/2 5/7/2
f 6/8/3 7/9/3 8/10/3
f 9/11/1 1/1/1 3/3/1
f 1/12/4 9/13/4 10/14/4 4/15/4
f 7/9/3 11/16/3 8/10/3
f 12/17/1 9/11/1 3/3/1
f 9/13/5 12/18/5 13/19/5 10/14/5
f 11/16/3 14/20/3 8/10/3
f 15/21/1 12/17/1 3/3/1
f 12/22/6 15/23/6 16/24/6 13/25/6
f 14/20/3 17/26/3 8/10/3
f 18/27/1 15/21/1 3/3/1
f 15/23/7 18/28/7 19/29/7 16/24/7
f 17/26/3 20/30/3 8/10/3
f 21/31/1 18/27/1 3/3/1
f 18/32/8 21/33/8 22/34/8 19/35/8
f 20/30/3 23/36/3 8/10/3
f 24/37/1 21/31/1 3/3/1
f 21/33/9 24/38/9 25/39/9 22/34/9
f 23/36/3 26/40/3 8/10/3
f 2/2/1 24/37/1 3/3/1
f 24/41/10 2/4/10 5/7/10 25/42/10
f 26/40/3 6/8/3 8/10/3
f 27/43/11 28/44/11 25/45/11 5/46/11
f 29/47/12 27/43/12 5/46/12 4/48/12
f 30/49/13 29/47/13 4/48/13 10/50/13
f 31/51/14 30/49/14 10/50/14 13/52/14
f 32/53/15 31/51/15 13/52/15 16/54/15
f 33/55/16 32/53/16 16/54/16 19/56/16
f 34/57/17 33/55/17 19/56/17 22/58/17
f 28/44/18 34/57/18 22/58/18 25/45/18
f 6/59/10 26/60/10 28/61/10 27/62/10
f 7/63/2 6/64/2 27/65/2 29/66/2
f 11/67/4 7/68/4 29/69/4 30/70/4
f 14/71/5 11/72/5 30/73/5 31/74/5
f 17/75/6 14/76/6 31/77/6 32/78/6
f 20/79/7 17/80/7 32/81/7 33/82/7
f 23/83/8 20/84/8 33/85/8 34/86/8
f 26/87/9 23/88/9 34/89/9 28/90/9
o cube
v 0.531250 0.109375 0.183709
v 0.437500 0.109375 0.183709
v 0.437500 0.175666 0.250000
v 0.531250 0.175666 0.250000
v 0.531250 0.043084 0.250000
v 0.531250 0.109375 0.316291
v 0.437500 0.043084 0.250000
v 0.437500 0.109375 0.316291
vt 0.000000 0.375000
vt 0.093750 0.375000
vt 0.093750 0.468750
vt 0.000000 0.468750
vt 0.000000 0.375000
vt 0.093750 0.375000
vt 0.093750 0.468750
vt 0.000000 0.468750
vt 0.000000 0.375000
vt 0.093750 0.375000
vt 0.093750 0.468750
vt 0.000000 0.468750
vt 0.093750 0.468750
vt 0.000000 0.468750
vn 0.0000 0.7071 -0.7071
vn 1.0000 0.0000 0.0000
vn -1.0000 0.0000 0.0000
vn 0.0000 -0.7071 -0.7071
usemtl m_c8e7cd14-7a1a-38c4-bcff-72d66c5ae287
s 1
f 35/91/19 36/92/19 37/93/19 38/94/19
f 39/95/20 35/96/20 38/97/20 40/98/20
f 36/99/21 41/100/21 42/101/21 37/102/21
f 36/99/22 35/96/22 39/103/22 41/104/22
o cube.000
v 0.453125 0.133293 0.241451
v 0.453125 0.306520 0.169698
v 0.453125 0.259224 0.121381
v 0.453125 0.109375 0.183708
v 0.515625 0.133293 0.241451
v 0.515625 0.306520 0.169698
v 0.515625 0.259224 0.121381
v 0.515625 0.109375 0.183708
v 0.453125 0.342396 0.083085
v 0.453125 0.284654 0.059167
v 0.515625 0.342396 0.083085
v 0.515625 0.284654 0.059167
vt 0.000000 0.312500
vt 0.187500 0.312500
vt 0.156250 0.375000
vt 0.000000 0.375000
vt 0.000000 0.375000
vt 0.187500 0.375000
vt 0.000000 0.312500
vt 0.156250 0.312500
vt 0.156250 0.375000
vt 0.000000 0.375000
vt 0.187500 0.375000
vt 0.164062 0.312500
vt 0.250000 0.312500
vt 0.250000 0.375000
vt 0.156250 0.375000
vt 0.250000 0.375000
vt 0.156250 0.312500
vt 0.218750 0.375000
vt 0.218750 0.312500
vt 0.156250 0.375000
vt 0.156250 0.437500
vt 0.093750 0.437500
vt 0.093750 0.375000
vt 0.164062 0.375000
vt 0.187500 0.312500
vt 0.000000 0.312500
vt 0.250000 0.374999
vt 0.249997 0.312500
vt 0.156248 0.312500
vt 0.182794 0.374689
vn -1.0000 0.0000 0.0000
vn 0.0000 0.3827 0.9239
vn 0.0000 -0.3840 -0.9233
vn 0.0000 0.9239 0.3827
vn 0.0000 -0.9257 -0.3784
vn 0.0000 0.3827 -0.9239
vn 1.0000 0.0000 0.0000
usemtl m_c8e7cd14-7a1a-38c4-bcff-72d66c5ae287
s 1
f 43/105/23 44/106/23 45/107/23 46/108/23
f 47/109/24 48/110/24 44/106/24 43/105/24
f 46/111/25 45/112/25 49/113/25 50/114/25
f 45/115/23 44/116/23 51/117/23 52/118/23
f 48/119/26 53/120/26 51/117/26 44/121/26
f 54/122/27 49/113/27 45/112/27 52/123/27
f 52/124/28 51/125/28 53/126/28 54/127/28
f 50/114/29 49/128/29 48/129/29 47/130/29
f 54/131/29 53/132/29 48/133/29 49/134/29
o handle
v 0.484375 0.328125 0.281250
v 0.484375 0.500000 0.281250
v 0.484375 0.500000 0.406250
v 0.484375 0.328125 0.406250
v 0.484375 0.328125 0.625000
v 0.484375 0.500000 0.625000
v 0.484375 0.500000 0.750000
v 0.484375 0.328125 0.750000
v 0.484375 0.328125 0.750000
v 0.484375 0.500000 0.750000
v 0.484375 0.500000 0.625000
v 0.484375 0.328125 0.625000
v 0.484375 0.328125 0.406250
v 0.484375 0.500000 0.406250
v 0.484375 0.500000 0.281250
v 0.484375 0.328125 0.281250
v 0.484375 0.671875 0.406250
v 0.484375 0.671875 0.625000
v 0.484375 0.671875 0.750000
v 0.484375 0.671875 0.281250
v 0.484375 0.671875 0.625000
v 0.484375 0.671875 0.406250
v 0.484375 0.671875 0.281250
v 0.484375 0.671875 0.750000
vt 0.531250 0.656250
vt 0.531250 0.828125
vt 0.656250 0.828125
vt 0.656250 0.656250
vt 0.875000 0.656250
vt 0.875000 0.828125
vt 1.000000 0.828125
vt 1.000000 0.656250
vt 1.000000 0.656250
vt 1.000000 0.828125
vt 0.875000 0.828125
vt 0.875000 0.656250
vt 0.656250 0.656250
vt 0.656250 0.828125
vt 0.531250 0.828125
vt 0.531250 0.656250
vt 0.656250 1.000000
vt 0.875000 1.000000
vt 1.000000 1.000000
vt 0.531250 1.000000
vt 0.875000 1.000000
vt 0.656250 1.000000
vt 0.531250 1.000000
vt 1.000000 1.000000
vn 1.0000 -0.0000 0.0000
vn -1.0000 0.0000 0.0000
usemtl m_c8e7cd14-7a1a-38c4-bcff-72d66c5ae287
s 1
f 55/135/30 56/136/30 57/137/30 58/138/30
f 59/139/30 60/140/30 61/141/30 62/142/30
f 63/143/31 64/144/31 65/145/31 66/146/31
f 67/147/31 68/148/31 69/149/31 70/150/31
f 71/151/31 68/148/31 65/145/31 72/152/31
f 72/152/31 65/145/31 64/144/31 73/153/31
f 74/154/31 69/149/31 68/148/31 71/151/31
f 75/155/30 60/140/30 57/137/30 76/156/30
f 76/156/30 57/137/30 56/136/30 77/157/30
f 78/158/30 61/141/30 60/140/30 75/155/30
o cube.001
v 0.484375 0.390625 0.531250
v 0.484375 0.390625 0.500000
v 0.484375 0.421875 0.500000
v 0.484375 0.421875 0.531250
v 0.484375 0.390625 0.500000
v 0.484375 0.390625 0.531250
v 0.484375 0.421875 0.531250
v 0.484375 0.421875 0.500000
vt 0.000000 0.343750
vt 0.031250 0.343750
vt 0.031250 0.375000
vt 0.000000 0.375000
vt 0.000000 0.343750
vt 0.031250 0.343750
vt 0.031250 0.375000
vt 0.000000 0.375000
vn 1.0000 0.0000 0.0000
vn -1.0000 0.0000 0.0000
usemtl m_c8e7cd14-7a1a-38c4-bcff-72d66c5ae287
s 1
f 79/159/32 80/160/32 81/161/32 82/162/32
f 83/163/33 84/164/33 85/165/33 86/166/33
