# Blender v3.2.2 OBJ File: ''
# www.blender.org
mtllib kettle_open.mtl
o cylinder
v 0.781250 -0.000000 0.688150
v 0.625650 -0.000000 0.843750
v 0.515625 -0.000000 0.578125
v 0.781250 0.312500 0.688151
v 0.625650 0.312500 0.843750
v 0.560930 0.328125 0.687500
v 0.625000 0.328125 0.623430
v 0.515625 0.328125 0.578125
v 0.781250 -0.000000 0.468100
v 0.781250 0.312500 0.468100
v 0.625000 0.328125 0.532820
v 0.625650 -0.000000 0.312500
v 0.625650 0.312500 0.312500
v 0.560930 0.328125 0.468750
v 0.405600 -0.000000 0.312500
v 0.405600 0.312500 0.312500
v 0.470320 0.328125 0.468750
v 0.250000 -0.000000 0.468100
v 0.250000 0.312500 0.468100
v 0.406250 0.328125 0.532820
v 0.250000 -0.000000 0.688150
v 0.250000 0.312500 0.688151
v 0.406250 0.328125 0.623430
v 0.405600 -0.000000 0.843750
v 0.405600 0.312500 0.843750
v 0.470320 0.328125 0.687500
v 0.560930 0.359375 0.687500
v 0.470320 0.359375 0.687500
v 0.625000 0.359375 0.623430
v 0.625000 0.359375 0.532820
v 0.560930 0.359375 0.468750
v 0.470320 0.359375 0.468750
v 0.406250 0.359375 0.532820
v 0.406250 0.359375 0.623430
vt 1.000000 0.375650
vt 0.844400 0.531250
vt 0.734375 0.265625
vt 0.218750 0.000000
vt 0.437500 0.000000
vt 0.437500 0.312500
vt 0.218750 0.312500
vt 1.000000 0.155600
vt 0.000000 0.000000
vt 0.218750 0.000000
vt 0.218750 0.312500
vt 0.000000 0.312500
vt 0.844400 0.000000
vt 0.437500 0.000000
vt 0.437500 0.312500
vt 0.624350 0.000000
vt 0.000000 0.000000
vt 0.218750 0.000000
vt 0.218750 0.312500
vt 0.000000 0.312500
vt 0.468750 0.155600
vt 0.437500 0.000000
vt 0.437500 0.312500
vt 0.468750 0.375650
vt 0.000000 0.000000
vt 0.218750 0.000000
vt 0.218750 0.312500
vt 0.000000 0.312500
vt 0.624350 0.531250
vt 0.437500 0.000000
vt 0.437500 0.312500
vt 0.000000 0.000000
vt 0.000000 0.312500
vt 0.310930 0.625000
vt 0.220320 0.625000
vt 0.155600 0.468750
vt 0.375650 0.468750
vt 0.375000 0.689070
vt 0.531250 0.624350
vt 0.375000 0.779680
vt 0.531250 0.844400
vt 0.310930 0.843750
vt 0.375650 1.000000
vt 0.220320 0.843750
vt 0.155600 1.000000
vt 0.156250 0.779680
vt 0.000000 0.844400
vt 0.156250 0.689070
vt 0.000000 0.624350
vt 0.156250 0.375000
vt 0.062500 0.375000
vt 0.062500 0.343750
vt 0.156250 0.343750
vt 0.156250 0.375000
vt 0.062500 0.375000
vt 0.062500 0.343750
vt 0.156250 0.343750
vt 0.156250 0.375000
vt 0.062500 0.375000
vt 0.062500 0.343750
vt 0.156250 0.343750
vt 0.156250 0.375000
vt 0.062500 0.375000
vt 0.062500 0.343750
vt 0.156250 0.343750
vt 0.156250 0.375000
vt 0.062500 0.375000
vt 0.062500 0.343750
vt 0.156250 0.343750
vt 0.156250 0.375000
vt 0.062500 0.375000
vt 0.062500 0.343750
vt 0.156250 0.343750
vt 0.156250 0.375000
vt 0.062500 0.375000
vt 0.062500 0.343750
vt 0.156250 0.343750
vt 0.156250 0.375000
vt 0.062500 0.375000
vt 0.062500 0.343750
vt 0.156250 0.343750
vt 0.545305 0.390625
vt 0.609375 0.454695
vt 0.500000 0.500000
vt 0.609375 0.545305
vt 0.545305 0.609375
vt 0.454695 0.609375
vt 0.390625 0.545305
vt 0.390625 0.454695
vt 0.454695 0.390625
vn -0.0000 -1.0000 -0.0000
vn 0.7071 -0.0000 0.7071
vn 1.0000 0.0000 0.0000
vn 0.7071 0.0000 -0.7071
vn 0.0000 0.0000 -1.0000
vn -0.7071 0.0000 -0.7071
vn -1.0000 0.0000 0.0000
vn -0.7071 -0.0000 0.7071
vn 0.0000 -0.0000 1.0000
vn 0.0000 0.9578 0.2873
vn 0.2032 0.9578 0.2032
vn 0.2873 0.9578 0.0000
vn 0.2032 0.9578 -0.2032
vn 0.0000 0.9578 -0.2873
vn -0.2032 0.9578 -0.2032
vn -0.2873 0.9578 0.0000
vn -0.2032 0.9578 0.2032
vn -0.0000 1.0000 0.0000
usemtl m_c8e7cd14-7a1a-38c4-bcff-72d66c5ae287
s 1
f 1/1/1 2/2/1 3/3/1
f 2/4/2 1/5/2 4/6/2 5/7/2
f 9/8/1 1/1/1 3/3/1
f 1/9/3 9/10/3 10/11/3 4/12/3
f 12/13/1 9/8/1 3/3/1
f 9/10/4 12/14/4 13/15/4 10/11/4
f 15/16/1 12/13/1 3/3/1
f 12/17/5 15/18/5 16/19/5 13/20/5
f 18/21/1 15/16/1 3/3/1
f 15/18/6 18/22/6 19/23/6 16/19/6
f 21/24/1 18/21/1 3/3/1
f 18/25/7 21/26/7 22/27/7 19/28/7
f 24/29/1 21/24/1 3/3/1
f 21/26/8 24/30/8 25/31/8 22/27/8
f 2/2/1 24/29/1 3/3/1
f 24/32/9 2/4/9 5/7/9 25/33/9
f 27/34/10 28/35/10 25/36/10 5/37/10
f 29/38/11 27/34/11 5/37/11 4/39/11
f 30/40/12 29/38/12 4/39/12 10/41/12
f 31/42/13 30/40/13 10/41/13 13/43/13
f 32/44/14 31/42/14 13/43/14 16/45/14
f 33/46/15 32/44/15 16/45/15 19/47/15
f 34/48/16 33/46/16 19/47/16 22/49/16
f 28/35/17 34/48/17 22/49/17 25/36/17
f 6/50/5 26/51/5 28/52/5 27/53/5
f 7/54/6 6/55/6 27/56/6 29/57/6
f 11/58/7 7/59/7 29/60/7 30/61/7
f 14/62/8 11/63/8 30/64/8 31/65/8
f 17/66/9 14/67/9 31/68/9 32/69/9
f 20/70/2 17/71/2 32/72/2 33/73/2
f 23/74/3 20/75/3 33/76/3 34/77/3
f 26/78/4 23/79/4 34/80/4 28/81/4
usemtl m_2caa5958-7413-01c8-60b6-3778509e908e
f 6/82/18 7/83/18 8/84/18
f 7/83/18 11/85/18 8/84/18
f 11/85/18 14/86/18 8/84/18
f 14/86/18 17/87/18 8/84/18
f 17/87/18 20/88/18 8/84/18
f 20/88/18 23/89/18 8/84/18
f 23/89/18 26/90/18 8/84/18
f 26/90/18 6/82/18 8/84/18
o cube
v 0.562500 0.109375 0.246209
v 0.468750 0.109375 0.246209
v 0.468750 0.175666 0.312500
v 0.562500 0.175666 0.312500
v 0.562500 0.043084 0.312500
v 0.562500 0.109375 0.378791
v 0.468750 0.043084 0.312500
v 0.468750 0.109375 0.378791
vt 0.000000 0.375000
vt 0.093750 0.375000
vt 0.093750 0.468750
vt 0.000000 0.468750
vt 0.000000 0.375000
vt 0.093750 0.375000
vt 0.093750 0.468750
vt 0.000000 0.468750
vt 0.000000 0.375000
vt 0.093750 0.375000
vt 0.093750 0.468750
vt 0.000000 0.468750
vt 0.093750 0.468750
vt 0.000000 0.468750
vn 0.0000 0.7071 -0.7071
vn 1.0000 0.0000 0.0000
vn -1.0000 0.0000 0.0000
vn 0.0000 -0.7071 -0.7071
usemtl m_c8e7cd14-7a1a-38c4-bcff-72d66c5ae287
s 1
f 35/91/19 36/92/19 37/93/19 38/94/19
f 39/95/20 35/96/20 38/97/20 40/98/20
f 36/99/21 41/100/21 42/101/21 37/102/21
f 36/99/22 35/96/22 39/103/22 41/104/22
o cube.000
v 0.484375 0.133293 0.303951
v 0.484375 0.306520 0.232198
v 0.484375 0.259224 0.183881
v 0.484375 0.109375 0.246208
v 0.546875 0.133293 0.303951
v 0.546875 0.306520 0.232198
v 0.546875 0.259224 0.183881
v 0.546875 0.109375 0.246208
v 0.484375 0.342396 0.145585
v 0.484375 0.284654 0.121667
v 0.546875 0.342396 0.145585
v 0.546875 0.284654 0.121667
vt 0.000000 0.312500
vt 0.187500 0.312500
vt 0.156250 0.375000
vt 0.000000 0.375000
vt 0.000000 0.375000
vt 0.187500 0.375000
vt 0.000000 0.312500
vt 0.156250 0.312500
vt 0.156250 0.375000
vt 0.000000 0.375000
vt 0.187500 0.375000
vt 0.164062 0.312500
vt 0.250000 0.312500
vt 0.250000 0.375000
vt 0.156250 0.375000
vt 0.250000 0.375000
vt 0.156250 0.312500
vt 0.218750 0.375000
vt 0.218750 0.312500
vt 0.156250 0.375000
vt 0.156250 0.437500
vt 0.093750 0.437500
vt 0.093750 0.375000
vt 0.164062 0.375000
vt 0.187500 0.312500
vt 0.000000 0.312500
vt 0.250000 0.374999
vt 0.249997 0.312500
vt 0.156248 0.312500
vt 0.182794 0.374689
vn -1.0000 -0.0000 0.0000
vn 0.0000 0.3827 0.9239
vn 0.0000 -0.3840 -0.9233
vn 0.0000 0.9239 0.3827
vn 0.0000 -0.9257 -0.3784
vn 0.0000 0.3827 -0.9239
vn 1.0000 0.0000 0.0000
usemtl m_c8e7cd14-7a1a-38c4-bcff-72d66c5ae287
s 1
f 43/105/23 44/106/23 45/107/23 46/108/23
f 47/109/24 48/110/24 44/106/24 43/105/24
f 46/111/25 45/112/25 49/113/25 50/114/25
f 45/115/23 44/116/23 51/117/23 52/118/23
f 48/119/26 53/120/26 51/117/26 44/121/26
f 54/122/27 49/113/27 45/112/27 52/123/27
f 52/124/28 51/125/28 53/126/28 54/127/28
f 50/114/29 49/128/29 48/129/29 47/130/29
f 54/131/29 53/132/29 48/133/29 49/134/29
o handle
v 0.515625 0.328125 0.343750
v 0.515625 0.500000 0.343750
v 0.515625 0.500000 0.468750
v 0.515625 0.328125 0.468750
v 0.515625 0.328125 0.687500
v 0.515625 0.500000 0.687500
v 0.515625 0.500000 0.812500
v 0.515625 0.328125 0.812500
v 0.515625 0.328125 0.812500
v 0.515625 0.500000 0.812500
v 0.515625 0.500000 0.687500
v 0.515625 0.328125 0.687500
v 0.515625 0.328125 0.468750
v 0.515625 0.500000 0.468750
v 0.515625 0.500000 0.343750
v 0.515625 0.328125 0.343750
v 0.515625 0.671875 0.468750
v 0.515625 0.671875 0.687500
v 0.515625 0.671875 0.812500
v 0.515625 0.671875 0.343750
v 0.515625 0.671875 0.687500
v 0.515625 0.671875 0.468750
v 0.515625 0.671875 0.343750
v 0.515625 0.671875 0.812500
vt 0.531250 0.656250
vt 0.531250 0.828125
vt 0.656250 0.828125
vt 0.656250 0.656250
vt 0.875000 0.656250
vt 0.875000 0.828125
vt 1.000000 0.828125
vt 1.000000 0.656250
vt 1.000000 0.656250
vt 1.000000 0.828125
vt 0.875000 0.828125
vt 0.875000 0.656250
vt 0.656250 0.656250
vt 0.656250 0.828125
vt 0.531250 0.828125
vt 0.531250 0.656250
vt 0.656250 1.000000
vt 0.875000 1.000000
vt 1.000000 1.000000
vt 0.531250 1.000000
vt 0.875000 1.000000
vt 0.656250 1.000000
vt 0.531250 1.000000
vt 1.000000 1.000000
vn 1.0000 0.0000 0.0000
vn -1.0000 0.0000 0.0000
usemtl m_c8e7cd14-7a1a-38c4-bcff-72d66c5ae287
s 1
f 55/135/30 56/136/30 57/137/30 58/138/30
f 59/139/30 60/140/30 61/141/30 62/142/30
f 63/143/31 64/144/31 65/145/31 66/146/31
f 67/147/31 68/148/31 69/149/31 70/150/31
f 71/151/31 68/148/31 65/145/31 72/152/31
f 72/152/31 65/145/31 64/144/31 73/153/31
f 74/154/31 69/149/31 68/148/31 71/151/31
f 75/155/30 60/140/30 57/137/30 76/156/30
f 76/156/30 57/137/30 56/136/30 77/157/30
f 78/158/30 61/141/30 60/140/30 75/155/30
o cylinder.000
v 0.217180 0.031250 0.343750
v 0.281250 0.031250 0.279680
v 0.171875 0.031250 0.234375
v 0.281250 0.031250 0.189070
v 0.217180 0.031250 0.125000
v 0.126570 0.031250 0.125000
v 0.062500 0.031250 0.189070
v 0.062500 0.031250 0.279680
v 0.126570 0.031250 0.343750
v 0.126570 -0.000000 0.343750
v 0.217180 -0.000000 0.343750
v 0.281250 -0.000000 0.279680
v 0.281250 -0.000000 0.189070
v 0.217180 -0.000000 0.125000
v 0.126570 -0.000000 0.125000
v 0.062500 -0.000000 0.189070
v 0.062500 -0.000000 0.279680
vt 0.810930 0.531250
vt 0.875000 0.595320
vt 0.765625 0.640625
vt 0.875000 0.685930
vt 0.810930 0.750000
vt 0.720320 0.750000
vt 0.656250 0.685930
vt 0.656250 0.595320
vt 0.720320 0.531250
vt 0.156250 0.375000
vt 0.062500 0.375000
vt 0.062500 0.343750
vt 0.156250 0.343750
vt 0.156250 0.375000
vt 0.062500 0.375000
vt 0.062500 0.343750
vt 0.156250 0.343750
vt 0.156250 0.375000
vt 0.062500 0.375000
vt 0.062500 0.343750
vt 0.156250 0.343750
vt 0.156250 0.375000
vt 0.062500 0.375000
vt 0.062500 0.343750
vt 0.156250 0.343750
vt 0.156250 0.375000
vt 0.062500 0.375000
vt 0.062500 0.343750
vt 0.156250 0.343750
vt 0.156250 0.375000
vt 0.062500 0.375000
vt 0.062500 0.343750
vt 0.156250 0.343750
vt 0.156250 0.375000
vt 0.062500 0.375000
vt 0.062500 0.343750
vt 0.156250 0.343750
vt 0.156250 0.375000
vt 0.062500 0.375000
vt 0.062500 0.343750
vt 0.156250 0.343750
vt 0.810930 0.750000
vt 0.810930 0.531250
vt 0.875000 0.595320
vt 0.875000 0.685930
vt 0.656250 0.595320
vt 0.720320 0.750000
vt 0.656250 0.685930
vt 0.720320 0.531250
vn -0.0000 1.0000 0.0000
vn 0.0000 0.0000 1.0000
vn 0.7071 0.0000 0.7071
vn 1.0000 0.0000 0.0000
vn 0.7071 0.0000 -0.7071
vn 0.0000 0.0000 -1.0000
vn -0.7071 0.0000 -0.7071
vn -1.0000 0.0000 0.0000
vn -0.7071 0.0000 0.7071
vn -0.0000 -1.0000 -0.0000
usemtl m_c8e7cd14-7a1a-38c4-bcff-72d66c5ae287
s 1
f 79/159/32 80/160/32 81/161/32
f 80/160/32 82/162/32 81/161/32
f 82/162/32 83/163/32 81/161/32
f 83/163/32 84/164/32 81/161/32
f 84/164/32 85/165/32 81/161/32
f 85/165/32 86/166/32 81/161/32
f 86/166/32 87/167/32 81/161/32
f 87/167/32 79/159/32 81/161/32
f 79/168/33 87/169/33 88/170/33 89/171/33
f 80/172/34 79/173/34 89/174/34 90/175/34
f 82/176/35 80/177/35 90/178/35 91/179/35
f 83/180/36 82/181/36 91/182/36 92/183/36
f 84/184/37 83/185/37 92/186/37 93/187/37
f 85/188/38 84/189/38 93/190/38 94/191/38
f 86/192/39 85/193/39 94/194/39 95/195/39
f 87/196/40 86/197/40 95/198/40 88/199/40
f 89/200/41 92/201/41 91/202/41
f 89/200/41 91/202/41 90/203/41
f 94/204/41 89/200/41 88/205/41
f 94/204/41 88/205/41 95/206/41
f 89/200/41 94/204/41 93/207/41
f 89/200/41 93/207/41 92/201/41
o cube.001
v 0.171875 0.031250 0.250000
v 0.171875 0.031250 0.218750
v 0.171875 0.062500 0.218750
v 0.171875 0.062500 0.250000
v 0.171875 0.031250 0.218750
v 0.171875 0.031250 0.250000
v 0.171875 0.062500 0.250000
v 0.171875 0.062500 0.218750
vt 0.000000 0.343750
vt 0.031250 0.343750
vt 0.031250 0.375000
vt 0.000000 0.375000
vt 0.000000 0.343750
vt 0.031250 0.343750
vt 0.031250 0.375000
vt 0.000000 0.375000
vn 1.0000 0.0000 0.0000
vn -1.0000 0.0000 0.0000
usemtl m_c8e7cd14-7a1a-38c4-bcff-72d66c5ae287
s 1
f 96/208/42 97/209/42 98/210/42 99/211/42
f 100/212/43 101/213/43 102/214/43 103/215/43
