# Made in Blockbench 4.12.2
mtllib log_basket.mtl

o basket
v 0.6682742597140698 0.09375 0.9375
v 0.90625 0.09375 0.69952425971407
v 0.90625 0.09375 0.3629757402859301
v 0.66827425971407 0.09375 0.125
v 0.33172574028593016 0.09375 0.125
v 0.09375000000000006 0.09375 0.3629757402859298
v 0.09375 0.09375 0.69952425971407
v 0.3317257402859298 0.09375 0.9375
v 0.3317257402859298 0.421875 0.9375
v 0.09375000000000006 0.421875 0.6995242597140701
v 0.03124999999999989 0.421875 0.7254126073623883
v 0.30583739263761134 0.421875 1
v 0.09375000000000017 0.421875 0.3629757402859298
v 0.03125 0.421875 0.3370873926376114
v 0.33172574028593005 0.421875 0.12500000000000006
v 0.30583739263761167 0.421875 0.06249999999999989
v 0.6682742597140701 0.421875 0.12500000000000006
v 0.6941626073623883 0.421875 0.06249999999999989
v 0.90625 0.421875 0.36297574028593005
v 0.9687500000000001 0.421875 0.33708739263761167
v 0.90625 0.421875 0.69952425971407
v 0.9687500000000001 0.421875 0.7254126073623883
v 0.66827425971407 0.421875 0.9375
v 0.6941626073623883 0.421875 1
v 0.2928932188134521 0.75 1.03125
v 0 0.75 0.7383567811865477
v -0.06250000000000011 0.75 0.7642451288348661
v 0.26700487116513366 0.75 1.09375
v 0 0.75 0.3241432188134521
v -0.0625 0.75 0.29825487116513366
v 0.2928932188134524 0.75 0.03125
v 0.26700487116513405 0.75 -0.03125000000000011
v 0.7071067811865477 0.75 0.03125
v 0.7329951288348661 0.75 -0.03125000000000011
v 1 0.75 0.3241432188134524
v 1.0625 0.75 0.29825487116513405
v 1 0.75 0.7383567811865476
v 1.0625 0.75 0.764245128834866
v 0.7071067811865476 0.75 1.03125
v 0.732995128834866 0.75 1.09375
v 0.078125 0 0.35650365337385026
v 0.3252536533738505 0 0.10937499999999994
v 0.5 0 0.53125
v 0.6747463466261496 0 0.10937499999999994
v 0.921875 0 0.3565036533738505
v 0.921875 0 0.7059963466261495
v 0.6747463466261495 0 0.953125
v 0.32525365337385026 0 0.953125
v 0.07812499999999994 0 0.7059963466261496
v 0.140625 0.0625 0.6801079989778311
v 0.14062500000000017 0.0625 0.3823920010221687
v 0.3511420010221689 0.0625 0.171875
v 0.6488579989778311 0.0625 0.171875
v 0.859375 0.0625 0.38239200102216886
v 0.859375 0.0625 0.6801079989778311
v 0.6488579989778311 0.0625 0.890625
v 0.3511420010221687 0.0625 0.890625
v 0.5 0.0625 0.53125
vt 0.921875 0.6838992597141889
vt 0.6838992597140698 0.921875
vt 0.5156249999999998 0.5156250000002032
vt 0.921875 0.3473507402862175
vt 0.921875 0.6838992597141889
vt 0.5156249999999998 0.5156250000002032
vt 0.6838992597140698 0.10937500000040634
vt 0.921875 0.3473507402862175
vt 0.5156249999999998 0.5156250000002032
vt 0.34735074028593 0.10937500000040634
vt 0.6838992597140698 0.10937500000040634
vt 0.5156249999999998 0.5156250000002032
vt 0.10937499999999983 0.34735074028621726
vt 0.34735074028593 0.10937500000040634
vt 0.5156249999999998 0.5156250000002032
vt 0.10937499999999983 0.6838992597141891
vt 0.10937499999999983 0.34735074028621726
vt 0.5156249999999998 0.5156250000002032
vt 0.34735074028592977 0.921875
vt 0.10937499999999983 0.6838992597141891
vt 0.5156249999999998 0.5156250000002032
vt 0.6838992597140698 0.921875
vt 0.34735074028592977 0.921875
vt 0.5156249999999998 0.5156250000002032
vt 0.4453125 1
vt 0.0234375 1
vt 0 0.9375
vt 0.46875 0.9375
vt 0.4453125 1
vt 0.0234375 1
vt 0 0.9375
vt 0.46875 0.9375
vt 0.4453125 1
vt 0.0234375 1
vt 0 0.9375
vt 0.46875 0.9375
vt 0.4453125 1
vt 0.0234375 1
vt 0 0.9375
vt 0.46875 0.9375
vt 0.4453125 1
vt 0.0234375 1
vt 0 0.9375
vt 0.46875 0.9375
vt 0.4453125 1
vt 0.0234375 1
vt 0 0.9375
vt 0.46875 0.9375
vt 0.4453125 1
vt 0.0234375 1
vt 0 0.9375
vt 0.46875 0.9375
vt 0.4453125 1
vt 0.0234375 1
vt 0 0.9375
vt 0.46875 0.9375
vt 0.429687499999995 0.43750000000000033
vt 0.039062499999995004 0.43750000000000033
vt 0.06249999999999767 0.09375
vt 0.40624999999999767 0.09375
vt 0.960937499999995 0.43750000000000033
vt 0.570312499999995 0.43750000000000033
vt 0.5937499999999977 0.09375
vt 0.9374999999999977 0.09375
vt 0.429687499999995 0.43750000000000033
vt 0.039062499999995004 0.43750000000000033
vt 0.06249999999999767 0.09375
vt 0.40624999999999767 0.09375
vt 0.960937499999995 0.43750000000000033
vt 0.570312499999995 0.43750000000000033
vt 0.5937499999999977 0.09375
vt 0.9374999999999977 0.09375
vt 0.429687499999995 0.43750000000000033
vt 0.039062499999995004 0.43750000000000033
vt 0.06249999999999767 0.09375
vt 0.40624999999999767 0.09375
vt 0.960937499999995 0.43750000000000033
vt 0.570312499999995 0.43750000000000033
vt 0.5937499999999977 0.09375
vt 0.9374999999999977 0.09375
vt 0.429687499999995 0.43750000000000033
vt 0.039062499999995004 0.43750000000000033
vt 0.06249999999999767 0.09375
vt 0.40624999999999767 0.09375
vt 0.960937499999995 0.43750000000000033
vt 0.570312499999995 0.43750000000000033
vt 0.5937499999999977 0.09375
vt 0.9374999999999977 0.09375
vt 0.4375 0.7812499999999981
vt 0.03125 0.7812499999999981
vt 0.0703125 0.4375
vt 0.3984375 0.4375
vt 0.46875 0.78125
vt 0 0.78125
vt 0.03906249999999767 0.4375
vt 0.42968749999999767 0.4375
vt 0.96875 0.7812499999999981
vt 0.5625 0.7812499999999981
vt 0.6015625 0.4375
vt 0.9296875 0.4375
vt 1 0.78125
vt 0.53125 0.78125
vt 0.5703124999999977 0.4375
vt 0.9609374999999977 0.4375
vt 0.4375 0.7812499999999981
vt 0.03125 0.7812499999999981
vt 0.0703125 0.4375
vt 0.3984375 0.4375
vt 0.46875 0.78125
vt 0 0.78125
vt 0.03906249999999767 0.4375
vt 0.42968749999999767 0.4375
vt 0.96875 0.7812499999999981
vt 0.5625 0.7812499999999981
vt 0.6015625 0.4375
vt 0.9296875 0.4375
vt 1 0.78125
vt 0.53125 0.78125
vt 0.5703124999999977 0.4375
vt 0.9609374999999977 0.4375
vt 0.4375 0.7812499999999981
vt 0.03125 0.7812499999999981
vt 0.0703125 0.4375
vt 0.3984375 0.4375
vt 0.46875 0.78125
vt 0 0.78125
vt 0.03906249999999767 0.4375
vt 0.42968749999999767 0.4375
vt 0.96875 0.7812499999999981
vt 0.5625 0.7812499999999981
vt 0.6015625 0.4375
vt 0.9296875 0.4375
vt 1 0.78125
vt 0.53125 0.78125
vt 0.5703124999999977 0.4375
vt 0.9609374999999977 0.4375
vt 0.4375 0.7812499999999981
vt 0.03125 0.7812499999999981
vt 0.0703125 0.4375
vt 0.3984375 0.4375
vt 0.46875 0.78125
vt 0 0.78125
vt 0.03906249999999767 0.4375
vt 0.42968749999999767 0.4375
vt 0.96875 0.7812499999999981
vt 0.5625 0.7812499999999981
vt 0.6015625 0.4375
vt 0.9296875 0.4375
vt 1 0.78125
vt 0.53125 0.78125
vt 0.5703124999999977 0.4375
vt 0.9609374999999977 0.4375
vt 0.40624999999999756 0
vt 0.40625 0.09375
vt 0.0625 0.09375
vt 0.06249999999999753 0
vt 0.5937499999999976 0
vt 0.9374999999999976 0
vt 0.9375 0.09375
vt 0.59375 0.09375
vt 0.40624999999999756 0
vt 0.40625 0.09375
vt 0.0625 0.09375
vt 0.06249999999999753 0
vt 0.5937499999999976 0
vt 0.9374999999999976 0
vt 0.9375 0.09375
vt 0.59375 0.09375
vt 0.40624999999999756 0
vt 0.40625 0.09375
vt 0.0625 0.09375
vt 0.06249999999999753 0
vt 0.5937499999999976 0
vt 0.9374999999999976 0
vt 0.9375 0.09375
vt 0.59375 0.09375
vt 0.40624999999999756 0
vt 0.40625 0.09375
vt 0.0625 0.09375
vt 0.06249999999999753 0
vt 0.5937499999999976 0
vt 0.9374999999999976 0
vt 0.9375 0.09375
vt 0.59375 0.09375
vt 0.90625 0.09375
vt 0.9296875 0.4375
vt 0.6015625000000013 0.43749999999999734
vt 0.625 0.09375
vt 0.09375 0.09375
vt 0.375 0.09375
vt 0.39843750000000133 0.4375
vt 0.0703125 0.4375
vt 0.625 0.09375
vt 0.90625 0.09375
vt 0.9296875000000013 0.4375
vt 0.6015625 0.4375
vt 0.3984375 0.4375
vt 0.0703125 0.4375
vt 0.0859375 0.09375
vt 0.3828125 0.09375
vt 0.625 0.09375
vt 0.90625 0.09375
vt 0.9296875000000013 0.4375
vt 0.6015625 0.4375
vt 0.3984375 0.4375
vt 0.0703125 0.4375
vt 0.0859375 0.09375
vt 0.3828125 0.09375
vt 0.9296875 0.4375
vt 0.6015625 0.4375
vt 0.6171875 0.09375
vt 0.9140625 0.09375
vt 0.0859375 0.09375
vt 0.3828125 0.09375
vt 0.39843750000000133 0.4375
vt 0.0703125 0.4375
vt 0.15625 0.6644829989779366
vt 0.15625 0.3667670010224233
vt 0.515625 0.5156250000001796
vt 0.36676700102216886 0.875
vt 0.15625 0.6644829989779366
vt 0.515625 0.5156250000001796
vt 0.36676700102216886 0.875
vt 0.515625 0.5156250000001796
vt 0.6644829989778311 0.875
vt 0.6644829989778311 0.875
vt 0.515625 0.5156250000001796
vt 0.875 0.6644829989779366
vt 0.875 0.6644829989779366
vt 0.515625 0.5156250000001796
vt 0.875 0.3667670010224233
vt 0.875 0.3667670010224233
vt 0.515625 0.5156250000001796
vt 0.6644829989778311 0.1562500000003597
vt 0.6644829989778311 0.1562500000003597
vt 0.515625 0.5156250000001796
vt 0.3667670010221684 0.1562500000003597
vt 0.3667670010221684 0.1562500000003597
vt 0.515625 0.5156250000001796
vt 0.15625 0.3667670010224233
vn 0 -1 0
vn 0 -1 0
vn 0 -1 0
vn 0 -1 0
vn 0 -1 0
vn 0 -1 0
vn 0 -1 0
vn 0 -1 0
vn 0 1 0
vn 0 1 0
vn 0 1 0
vn 0 1 0
vn 0 1 0
vn 0 1 0
vn 0 1 0
vn 0 1 0
vn -0.6946182617384039 -0.18711210788999538 0.6946182617384032
vn -0.9823385664224749 -0.18711210788999538 -2.8085090873959e-16
vn -0.6946182617384034 -0.1871121078899955 -0.6946182617384038
vn 0 -0.1871121078899955 -0.9823385664224746
vn 0.6946182617384037 -0.1871121078899954 -0.6946182617384037
vn 0.9823385664224746 -0.1871121078899955 0
vn 0.6946182617384037 -0.18711210788999538 0.6946182617384037
vn 0 -0.18711210788999552 0.9823385664224746
vn 0.6799001036500851 0.27472112789737824 -0.6799001036500846
vn -0.6799001036500852 -0.2747211278973782 0.6799001036500847
vn 0.9615239476408233 0.27472112789737824 0
vn -0.9615239476408233 -0.27472112789737807 -2.2908333550524644e-16
vn 0.6799001036500845 0.27472112789737846 0.6799001036500852
vn -0.6799001036500847 -0.27472112789737807 -0.6799001036500852
vn 0 0.27472112789737824 0.9615239476408233
vn 0 -0.2747211278973781 -0.9615239476408233
vn -0.6799001036500851 0.2747211278973781 0.6799001036500848
vn 0.679900103650085 -0.27472112789737796 -0.6799001036500848
vn -0.9615239476408233 0.27472112789737824 0
vn 0.9615239476408233 -0.2747211278973781 0
vn -0.679900103650085 0.27472112789737807 -0.679900103650085
vn 0.6799001036500849 -0.27472112789737796 0.679900103650085
vn 0 0.27472112789737824 -0.9615239476408233
vn 0 -0.27472112789737807 0.9615239476408233
vn -0.6974858324629154 0.16439898730535776 -0.6974858324629161
vn 0 0.16439898730535785 -0.9863939238321436
vn 0.6974858324629157 0.1643989873053578 -0.6974858324629157
vn 0.9863939238321436 0.16439898730535785 0
vn 0.6974858324629157 0.1643989873053578 0.6974858324629157
vn 0 0.16439898730535785 0.9863939238321437
vn -0.6974858324629158 0.16439898730535774 0.6974858324629154
vn -0.9863939238321437 0.16439898730535785 -1.566724092852825e-16
vn 0.9916004111862219 0.1293391840677681 3.4133643584529946e-16
vn 0.7011673749771462 0.12933918406776798 0.7011673749771464
vn 0 0.1293391840677679 0.9916004111862218
vn -0.7011673749771464 0.1293391840677679 0.7011673749771462
vn -0.9916004111862218 0.1293391840677679 0
vn -0.7011673749771462 0.12933918406776806 -0.7011673749771462
vn 0 0.12933918406776793 -0.9916004111862219
vn 0.7011673749771465 0.12933918406776795 -0.701167374977146
vn 0 1 0
vn 0 1 0
vn 0 1 0
vn 0 1 0
vn 0 1 0
vn 0 1 0
vn 0 1 0
vn 0 1 0
usemtl m_973b808d-87b0-5ba7-be3a-de8f9ec60f06
f 46/1/1 47/2/1 43/3/1
f 45/4/2 46/5/2 43/6/2
f 44/7/3 45/8/3 43/9/3
f 42/10/4 44/11/4 43/12/4
f 41/13/5 42/14/5 43/15/5
f 49/16/6 41/17/6 43/18/6
f 48/19/7 49/20/7 43/21/7
f 47/22/8 48/23/8 43/24/8
usemtl m_ae1a7b9a-ac3c-c103-5a93-56100de9799a
f 26/25/9 29/26/9 30/27/9 27/28/9
f 25/29/10 26/30/10 27/31/10 28/32/10
f 39/33/11 25/34/11 28/35/11 40/36/11
f 37/37/12 39/38/12 40/39/12 38/40/12
f 35/41/13 37/42/13 38/43/13 36/44/13
f 33/45/14 35/46/14 36/47/14 34/48/14
f 31/49/15 33/50/15 34/51/15 32/52/15
f 29/53/16 31/54/16 32/55/16 30/56/16
f 12/57/17 11/58/17 7/59/17 8/60/17
f 11/61/18 14/62/18 6/63/18 7/64/18
f 14/65/19 16/66/19 5/67/19 6/68/19
f 16/69/20 18/70/20 4/71/20 5/72/20
f 18/73/21 20/74/21 3/75/21 4/76/21
f 20/77/22 22/78/22 2/79/22 3/80/22
f 22/81/23 24/82/23 1/83/23 2/84/23
f 24/85/24 12/86/24 8/87/24 1/88/24
f 26/89/25 25/90/25 9/91/25 10/92/25
f 28/93/26 27/94/26 11/95/26 12/96/26
f 29/97/27 26/98/27 10/99/27 13/100/27
f 27/101/28 30/102/28 14/103/28 11/104/28
f 31/105/29 29/106/29 13/107/29 15/108/29
f 30/109/30 32/110/30 16/111/30 14/112/30
f 33/113/31 31/114/31 15/115/31 17/116/31
f 32/117/32 34/118/32 18/119/32 16/120/32
f 35/121/33 33/122/33 17/123/33 19/124/33
f 34/125/34 36/126/34 20/127/34 18/128/34
f 37/129/35 35/130/35 19/131/35 21/132/35
f 36/133/36 38/134/36 22/135/36 20/136/36
f 39/137/37 37/138/37 21/139/37 23/140/37
f 38/141/38 40/142/38 24/143/38 22/144/38
f 25/145/39 39/146/39 23/147/39 9/148/39
f 40/149/40 28/150/40 12/151/40 24/152/40
f 41/153/41 6/154/41 5/155/41 42/156/41
f 44/157/42 42/158/42 5/159/42 4/160/42
f 44/161/43 4/162/43 3/163/43 45/164/43
f 46/165/44 45/166/44 3/167/44 2/168/44
f 46/169/45 2/170/45 1/171/45 47/172/45
f 48/173/46 47/174/46 1/175/46 8/176/46
f 48/177/47 8/178/47 7/179/47 49/180/47
f 41/181/48 49/182/48 7/183/48 6/184/48
f 51/185/49 13/186/49 10/187/49 50/188/49
f 51/189/50 52/190/50 15/191/50 13/192/50
f 52/193/51 53/194/51 17/195/51 15/196/51
f 19/197/52 17/198/52 53/199/52 54/200/52
f 54/201/53 55/202/53 21/203/53 19/204/53
f 23/205/54 21/206/54 55/207/54 56/208/54
f 9/209/55 23/210/55 56/211/55 57/212/55
f 57/213/56 50/214/56 10/215/56 9/216/56
usemtl m_973b808d-87b0-5ba7-be3a-de8f9ec60f06
f 51/217/57 50/218/57 58/219/57
f 52/220/58 51/221/58 58/222/58
f 52/223/59 58/224/59 53/225/59
f 53/226/60 58/227/60 54/228/60
f 54/229/61 58/230/61 55/231/61
f 55/232/62 58/233/62 56/234/62
f 56/235/63 58/236/63 57/237/63
f 57/238/64 58/239/64 50/240/64
o cube
v 1.0638090333125494 0.934651453689789 0.71875
v 1.0638090333125494 0.934651453689789 0.375
v 1.03125 0.75 0.71875
v 1.03125 0.75 0.375
v 1.0638090333125494 0.934651453689789 0.71875
v 1.0638090333125494 0.934651453689789 0.375
v 1.03125 0.75 0.71875
v 1.03125 0.75 0.375
v -0.06380903331254961 0.934651453689789 0.7187499999999999
v -0.06380903331254961 0.934651453689789 0.3749999999999999
v -0.03125000000000022 0.7500000000000001 0.7187499999999999
v -0.03125000000000022 0.7500000000000001 0.3749999999999999
v -0.06380903331254961 0.934651453689789 0.7187499999999999
v -0.06380903331254961 0.934651453689789 0.3749999999999999
v -0.03125000000000022 0.7500000000000001 0.7187499999999999
v -0.03125000000000022 0.7500000000000001 0.3749999999999999
vt 0.5625 0.8125
vt 0.5625 1
vt 0.90625 1
vt 0.90625 0.8125
vt 0.5625 0.8125
vt 0.5625 1
vt 0.90625 1
vt 0.90625 0.8125
vt 0.90625 0.8125
vt 0.90625 1
vt 0.5625 1
vt 0.5625 0.8125
vt 0.90625 0.8125
vt 0.90625 1
vt 0.5625 1
vt 0.5625 0.8125
vn 0.984807753012208 -0.17364817766693033 0
vn -0.984807753012208 0.17364817766693033 0
vn 0.9848077530122079 0.17364817766693116 0
vn -0.9848077530122079 -0.17364817766693116 0
usemtl m_ae1a7b9a-ac3c-c103-5a93-56100de9799a
f 62/241/65 60/242/65 59/243/65 61/244/65
f 65/245/66 63/246/66 64/247/66 66/248/66
f 70/249/67 68/250/67 67/251/67 69/252/67
f 73/253/68 71/254/68 72/255/68 74/256/68