# Blender 4.2.2 LTS
# www.blender.org
mtllib log_basket.mtl
o base
v 0.968750 0.468750 1.000000
v 0.968750 0.468750 0.062500
v 0.031250 0.468750 0.062500
v 0.031250 0.468750 1.000000
vn -0.0000 1.0000 -0.0000
vt 0.031250 0.031250
vt 0.031250 0.968750
vt 0.968750 0.968750
vt 0.968750 0.031250
s 0
usemtl m_aa0a60b7-639f-c1b9-ca74-e67cdd6ad779
f 4/1/1 1/2/1 2/3/1 3/4/1
o basket_full
v 0.668274 0.093750 0.937500
v 0.906250 0.093750 0.699524
v 0.906250 0.093750 0.362976
v 0.668274 0.093750 0.125000
v 0.331726 0.093750 0.125000
v 0.093750 0.093750 0.362976
v 0.093750 0.093750 0.699524
v 0.331726 0.093750 0.937500
v 0.331726 0.421875 0.937500
v 0.093750 0.421875 0.699524
v 0.031250 0.421875 0.725413
v 0.305837 0.421875 1.000000
v 0.093750 0.421875 0.362976
v 0.031250 0.421875 0.337087
v 0.331726 0.421875 0.125000
v 0.305837 0.421875 0.062500
v 0.668274 0.421875 0.125000
v 0.694163 0.421875 0.062500
v 0.906250 0.421875 0.362976
v 0.968750 0.421875 0.337087
v 0.906250 0.421875 0.699524
v 0.968750 0.421875 0.725413
v 0.668274 0.421875 0.937500
v 0.694163 0.421875 1.000000
v 0.292893 0.750000 1.031250
v 0.000000 0.750000 0.738357
v -0.062500 0.750000 0.764245
v 0.267005 0.750000 1.093750
v 0.000000 0.750000 0.324143
v -0.062500 0.750000 0.298255
v 0.292893 0.750000 0.031250
v 0.267005 0.750000 -0.031250
v 0.707107 0.750000 0.031250
v 0.732995 0.750000 -0.031250
v 1.000000 0.750000 0.324143
v 1.062500 0.750000 0.298255
v 1.000000 0.750000 0.738357
v 1.062500 0.750000 0.764245
v 0.707107 0.750000 1.031250
v 0.732995 0.750000 1.093750
v 0.078125 0.000000 0.356504
v 0.325254 0.000000 0.109375
v 0.500000 0.000000 0.531250
v 0.674746 0.000000 0.109375
v 0.921875 0.000000 0.356504
v 0.921875 0.000000 0.705996
v 0.674746 0.000000 0.953125
v 0.325254 0.000000 0.953125
v 0.078125 0.000000 0.705996
vn -0.0000 -1.0000 -0.0000
vn -0.0000 1.0000 -0.0000
vn -0.6946 -0.1871 0.6946
vn -0.9823 -0.1871 -0.0000
vn -0.6946 -0.1871 -0.6946
vn -0.0000 -0.1871 -0.9823
vn 0.6946 -0.1871 -0.6946
vn 0.9823 -0.1871 -0.0000
vn 0.6946 -0.1871 0.6946
vn -0.0000 -0.1871 0.9823
vn 0.6799 0.2747 -0.6799
vn -0.6799 -0.2747 0.6799
vn 0.9615 0.2747 -0.0000
vn -0.9615 -0.2747 -0.0000
vn 0.6799 0.2747 0.6799
vn -0.6799 -0.2747 -0.6799
vn -0.0000 0.2747 0.9615
vn -0.0000 -0.2747 -0.9615
vn -0.6799 0.2747 0.6799
vn 0.6799 -0.2747 -0.6799
vn -0.9615 0.2747 -0.0000
vn 0.9615 -0.2747 -0.0000
vn -0.6799 0.2747 -0.6799
vn 0.6799 -0.2747 0.6799
vn -0.0000 0.2747 -0.9615
vn -0.0000 -0.2747 0.9615
vn -0.6975 0.1644 -0.6975
vn -0.0000 0.1644 -0.9864
vn 0.6975 0.1644 -0.6975
vn 0.9864 0.1644 -0.0000
vn 0.6975 0.1644 0.6975
vn -0.0000 0.1644 0.9864
vn -0.6975 0.1644 0.6975
vn -0.9864 0.1644 -0.0000
vt 0.921875 0.683899
vt 0.683899 0.921875
vt 0.515625 0.515625
vt 0.921875 0.347351
vt 0.683899 0.109375
vt 0.347351 0.109375
vt 0.109375 0.347351
vt 0.109375 0.683899
vt 0.347351 0.921875
vt 0.445312 1.000000
vt 0.023438 1.000000
vt 0.000000 0.937500
vt 0.468750 0.937500
vt 0.429688 0.437500
vt 0.039062 0.437500
vt 0.062500 0.093750
vt 0.406250 0.093750
vt 0.960938 0.437500
vt 0.570312 0.437500
vt 0.593750 0.093750
vt 0.937500 0.093750
vt 0.437500 0.781250
vt 0.031250 0.781250
vt 0.070312 0.437500
vt 0.398438 0.437500
vt 0.468750 0.781250
vt 0.000000 0.781250
vt 0.968750 0.781250
vt 0.562500 0.781250
vt 0.601562 0.437500
vt 0.929688 0.437500
vt 1.000000 0.781250
vt 0.531250 0.781250
vt 0.406250 0.000000
vt 0.062500 0.000000
vt 0.593750 0.000000
vt 0.937500 0.000000
s 0
usemtl m_973b808d-87b0-5ba7-be3a-de8f9ec60f06
f 50/5/2 51/6/2 47/7/2
f 49/8/2 50/5/2 47/7/2
f 48/9/2 49/8/2 47/7/2
f 46/10/2 48/9/2 47/7/2
f 45/11/2 46/10/2 47/7/2
f 53/12/2 45/11/2 47/7/2
f 52/13/2 53/12/2 47/7/2
f 51/6/2 52/13/2 47/7/2
usemtl m_ae1a7b9a-ac3c-c103-5a93-56100de9799a
f 30/14/3 33/15/3 34/16/3 31/17/3
f 29/14/3 30/15/3 31/16/3 32/17/3
f 43/14/3 29/15/3 32/16/3 44/17/3
f 41/14/3 43/15/3 44/16/3 42/17/3
f 39/14/3 41/15/3 42/16/3 40/17/3
f 37/14/3 39/15/3 40/16/3 38/17/3
f 35/14/3 37/15/3 38/16/3 36/17/3
f 33/14/3 35/15/3 36/16/3 34/17/3
f 16/18/4 15/19/4 11/20/4 12/21/4
f 15/22/5 18/23/5 10/24/5 11/25/5
f 18/18/6 20/19/6 9/20/6 10/21/6
f 20/22/7 22/23/7 8/24/7 9/25/7
f 22/18/8 24/19/8 7/20/8 8/21/8
f 24/22/9 26/23/9 6/24/9 7/25/9
f 26/18/10 28/19/10 5/20/10 6/21/10
f 28/22/11 16/23/11 12/24/11 5/25/11
f 30/26/12 29/27/12 13/28/12 14/29/12
f 32/30/13 31/31/13 15/19/13 16/18/13
f 33/32/14 30/33/14 14/34/14 17/35/14
f 31/36/15 34/37/15 18/23/15 15/22/15
f 35/26/16 33/27/16 17/28/16 19/29/16
f 34/30/17 36/31/17 20/19/17 18/18/17
f 37/32/18 35/33/18 19/34/18 21/35/18
f 36/36/19 38/37/19 22/23/19 20/22/19
f 39/26/20 37/27/20 21/28/20 23/29/20
f 38/30/21 40/31/21 24/19/21 22/18/21
f 41/32/22 39/33/22 23/34/22 25/35/22
f 40/36/23 42/37/23 26/23/23 24/22/23
f 43/26/24 41/27/24 25/28/24 27/29/24
f 42/30/25 44/31/25 28/19/25 26/18/25
f 29/32/26 43/33/26 27/34/26 13/35/26
f 44/36/27 32/37/27 16/23/27 28/22/27
f 45/38/28 10/21/28 9/20/28 46/39/28
f 48/40/29 46/41/29 9/25/29 8/24/29
f 48/38/30 8/21/30 7/20/30 49/39/30
f 50/40/31 49/41/31 7/25/31 6/24/31
f 50/38/32 6/21/32 5/20/32 51/39/32
f 52/40/33 51/41/33 5/25/33 12/24/33
f 52/38/34 12/21/34 11/20/34 53/39/34
f 45/40/35 53/41/35 11/25/35 10/24/35
o cube
v 1.063809 0.934651 0.718750
v 1.063809 0.934651 0.375000
v 1.031250 0.750000 0.718750
v 1.031250 0.750000 0.375000
v 1.063809 0.934651 0.375000
v 1.063809 0.934651 0.718750
v 1.031250 0.750000 0.375000
v 1.031250 0.750000 0.718750
vn 0.9848 -0.1736 -0.0000
vn -0.9848 0.1736 -0.0000
vt 0.906250 0.812500
vt 0.562500 0.812500
vt 0.562500 1.000000
vt 0.906250 1.000000
s 0
usemtl m_ae1a7b9a-ac3c-c103-5a93-56100de9799a
f 56/42/36 57/43/36 55/44/36 54/45/36
f 60/42/37 61/43/37 59/44/37 58/45/37
o cube.001
v -0.063809 0.934651 0.718750
v -0.063809 0.934651 0.375000
v -0.031250 0.750000 0.718750
v -0.031250 0.750000 0.375000
v -0.063809 0.934651 0.375000
v -0.063809 0.934651 0.718750
v -0.031250 0.750000 0.375000
v -0.031250 0.750000 0.718750
vn 0.9848 0.1736 -0.0000
vn -0.9848 -0.1736 -0.0000
vt 0.562500 0.812500
vt 0.906250 0.812500
vt 0.906250 1.000000
vt 0.562500 1.000000
s 0
usemtl m_ae1a7b9a-ac3c-c103-5a93-56100de9799a
f 64/46/38 65/47/38 63/48/38 62/49/38
f 68/46/39 69/47/39 67/48/39 66/49/39
o cube.002
v 0.865917 0.826334 0.870405
v 0.764868 0.910046 0.695383
v 0.734370 0.191167 0.642559
v 0.633320 0.274879 0.467536
v 0.575425 0.910046 0.804758
v 0.676474 0.826334 0.979780
v 0.443877 0.274879 0.576911
v 0.544927 0.191167 0.751934
vn -0.4619 0.3827 -0.8001
vn 0.8660 -0.0000 -0.5000
vn 0.4619 -0.3827 0.8001
vn -0.8660 -0.0000 0.5000
vn 0.1913 0.9239 0.3314
vt 0.156250 1.000000
vt 0.375000 1.000000
vt 0.375000 0.312500
vt 0.156250 0.312500
vt 0.000000 0.687500
vt 0.218750 0.687500
vt 0.218750 0.000000
vt 0.000000 0.000000
vt 0.468750 0.312500
vt 0.687500 0.312500
vt 0.687500 1.000000
vt 0.468750 1.000000
vt 0.437500 0.687500
vt 0.656250 0.687500
vt 0.656250 0.000000
vt 0.437500 0.000000
vt 0.750000 0.156250
vt 0.750000 0.375000
vt 0.968750 0.375000
vt 0.968750 0.156250
s 0
usemtl m_3c464693-faa6-bc4c-fbc4-12537effa964
f 73/50/40 76/51/40 74/52/40 71/53/40
f 72/54/41 73/55/41 71/56/41 70/57/41
f 77/58/42 72/59/42 70/60/42 75/61/42
f 76/62/43 77/63/43 75/64/43 74/65/43
f 75/66/44 70/67/44 71/68/44 74/69/44
o cube.003
v 0.795743 0.893044 0.321214
v 0.913345 0.806466 0.203612
v 0.510051 0.116910 0.606907
v 0.627653 0.030332 0.489305
v 0.780763 0.806466 0.071030
v 0.663160 0.893044 0.188632
v 0.495070 0.030332 0.356722
v 0.377468 0.116910 0.474324
vn 0.6272 -0.4617 -0.6272
vn 0.7071 -0.0000 0.7071
vn -0.6272 0.4617 0.6272
vn -0.7071 -0.0000 -0.7071
vn 0.3265 0.8870 -0.3265
vt 0.062500 0.000000
vt 0.250000 0.000000
vt 0.250000 0.875000
vt 0.062500 0.875000
vt 0.468750 0.125000
vt 0.656250 0.125000
vt 0.656250 1.000000
vt 0.468750 1.000000
vt 0.687500 0.875000
vt 0.500000 0.875000
vt 0.500000 0.000000
vt 0.687500 0.000000
vt 0.375000 0.125000
vt 0.187500 0.125000
vt 0.187500 1.000000
vt 0.375000 1.000000
vt 0.812500 0.687500
vt 1.000000 0.687500
vt 1.000000 0.500000
vt 0.812500 0.500000
s 0
usemtl m_3c464693-faa6-bc4c-fbc4-12537effa964
f 81/70/45 84/71/45 82/72/45 79/73/45
f 80/74/46 81/75/46 79/76/46 78/77/46
f 85/78/47 80/79/47 78/80/47 83/81/47
f 84/82/48 85/83/48 83/84/48 82/85/48
f 83/86/49 78/87/49 79/88/49 82/89/49
o cube.004
v 1.040436 0.848259 0.621693
v 0.961772 0.876890 0.419595
v 0.741168 0.026027 0.621693
v 0.662505 0.054659 0.419595
v 0.771862 0.946012 0.503307
v 0.850525 0.917380 0.705405
v 0.472594 0.123780 0.503307
v 0.551258 0.095149 0.705405
vn -0.3596 0.1309 -0.9239
vn 0.8682 -0.3160 -0.3827
vn 0.3596 -0.1309 0.9239
vn -0.8682 0.3160 0.3827
vn 0.3420 0.9397 -0.0000
vt 0.625000 0.125000
vt 0.406250 0.125000
vt 0.406250 1.000000
vt 0.625000 1.000000
vt 0.281250 0.000000
vt 0.062500 0.000000
vt 0.062500 0.875000
vt 0.281250 0.875000
vt 0.250000 0.125000
vt 0.031250 0.125000
vt 0.031250 1.000000
vt 0.250000 1.000000
vt 0.750000 0.875000
vt 0.531250 0.875000
vt 0.531250 0.000000
vt 0.750000 0.000000
vt 1.000000 0.781250
vt 0.781250 0.781250
vt 0.781250 1.000000
vt 1.000000 1.000000
s 0
usemtl m_3c464693-faa6-bc4c-fbc4-12537effa964
f 89/90/50 92/91/50 90/92/50 87/93/50
f 88/94/51 89/95/51 87/96/51 86/97/51
f 93/98/52 88/99/52 86/100/52 91/101/52
f 92/102/53 93/103/53 91/104/53 90/105/53
f 91/106/54 86/107/54 87/108/54 90/109/54
o cube.005
v 0.608861 0.975009 0.879347
v 0.378854 0.983291 0.781735
v 0.629564 0.358585 0.778267
v 0.399557 0.366866 0.680654
v 0.293443 0.947912 0.979990
v 0.523451 0.939631 1.077602
v 0.314147 0.331488 0.878909
v 0.544154 0.323207 0.976521
vn -0.9200 0.0331 -0.3904
vn 0.3904 0.1617 -0.9063
vn 0.9200 -0.0331 0.3904
vn -0.3904 -0.1617 0.9063
vn -0.0331 0.9863 0.1617
vt 0.000000 0.375000
vt 0.218750 0.375000
vt 0.218750 1.000000
vt 0.000000 1.000000
vt 0.343750 0.625000
vt 0.093750 0.625000
vt 0.093750 0.000000
vt 0.343750 0.000000
vt 0.718750 0.625000
vt 0.500000 0.625000
vt 0.500000 0.000000
vt 0.718750 0.000000
vt 0.625000 0.375000
vt 0.375000 0.375000
vt 0.375000 1.000000
vt 0.625000 1.000000
vt 0.750000 0.156250
vt 0.750000 0.375000
vt 1.000000 0.375000
vt 1.000000 0.156250
s 0
usemtl m_3c464693-faa6-bc4c-fbc4-12537effa964
f 97/110/55 100/111/55 98/112/55 95/113/55
f 96/114/56 97/115/56 95/116/56 94/117/56
f 101/118/57 96/119/57 94/120/57 99/121/57
f 100/122/58 101/123/58 99/124/58 98/125/58
f 99/126/59 94/127/59 95/128/59 98/129/59
o cube.006
v 0.559116 0.937180 0.519967
v 0.662499 0.868585 0.302927
v 0.580540 0.344590 0.717458
v 0.683923 0.275995 0.500418
v 0.435038 0.828478 0.207256
v 0.331655 0.897073 0.424297
v 0.456462 0.235887 0.404747
v 0.353079 0.304482 0.621788
vn 0.4135 -0.2744 -0.8682
vn 0.9098 0.1604 0.3827
vn -0.4135 0.2744 0.8682
vn -0.9098 -0.1604 -0.3827
vn -0.0343 0.9481 -0.3160
vt 0.125000 0.625000
vt 0.375000 0.625000
vt 0.375000 0.000000
vt 0.125000 0.000000
vt 0.468750 0.375000
vt 0.718750 0.375000
vt 0.718750 1.000000
vt 0.468750 1.000000
vt 0.656250 0.625000
vt 0.406250 0.625000
vt 0.406250 0.000000
vt 0.656250 0.000000
vt 0.031250 1.000000
vt 0.281250 1.000000
vt 0.281250 0.375000
vt 0.031250 0.375000
vt 1.000000 0.437500
vt 0.750000 0.437500
vt 0.750000 0.687500
vt 1.000000 0.687500
s 0
usemtl m_3c464693-faa6-bc4c-fbc4-12537effa964
f 105/130/60 108/131/60 106/132/60 103/133/60
f 104/134/61 105/135/61 103/136/61 102/137/61
f 109/138/62 104/139/62 102/140/62 107/141/62
f 108/142/63 109/143/63 107/144/63 106/145/63
f 107/146/64 102/147/64 103/148/64 106/149/64
o cube.007
v 0.216104 0.896553 0.389055
v 0.359010 0.955746 0.234375
v 0.442127 0.350886 0.389055
v 0.585032 0.410080 0.234375
v 0.216104 0.896553 0.079695
v 0.073199 0.837359 0.234375
v 0.442127 0.350886 0.079695
v 0.299221 0.291693 0.234375
vn 0.6533 0.2706 -0.7071
vn 0.6533 0.2706 0.7071
vn -0.6533 -0.2706 0.7071
vn -0.6533 -0.2706 -0.7071
vn -0.3827 0.9239 -0.0000
vt 0.218750 0.159375
vt 0.000000 0.159375
vt 0.000000 0.750000
vt 0.218750 0.750000
vt 0.718750 0.590625
vt 0.500000 0.590625
vt 0.500000 0.000000
vt 0.718750 0.000000
vt 0.656250 0.409375
vt 0.437500 0.409375
vt 0.437500 1.000000
vt 0.656250 1.000000
vt 0.156250 1.000000
vt 0.375000 1.000000
vt 0.375000 0.409375
vt 0.156250 0.409375
vt 0.781250 0.687500
vt 1.000000 0.687500
vt 1.000000 0.468750
vt 0.781250 0.468750
s 0
usemtl m_3c464693-faa6-bc4c-fbc4-12537effa964
f 113/150/65 116/151/65 114/152/65 111/153/65
f 112/154/66 113/155/66 111/156/66 110/157/66
f 117/158/67 112/159/67 110/160/67 115/161/67
f 116/162/68 117/163/68 115/164/68 114/165/68
f 115/166/69 110/167/69 111/168/69 114/169/69
o cube.008
v 0.281084 0.836688 0.630612
v 0.364477 0.829392 0.428513
v 0.242953 0.400853 0.630612
v 0.326347 0.393557 0.428513
v 0.163148 0.847006 0.344801
v 0.079754 0.854302 0.546900
v 0.125017 0.411171 0.344801
v 0.041623 0.418467 0.546900
vn 0.3812 -0.0334 -0.9239
vn 0.9204 -0.0805 0.3827
vn -0.3812 0.0334 0.9239
vn -0.9204 0.0805 -0.3827
vn 0.0872 0.9962 -0.0000
vt 0.281250 0.562500
vt 0.062500 0.562500
vt 0.062500 1.000000
vt 0.281250 1.000000
vt 0.281250 0.500000
vt 0.062500 0.500000
vt 0.062500 0.062500
vt 0.281250 0.062500
vt 0.625000 0.562500
vt 0.406250 0.562500
vt 0.406250 1.000000
vt 0.625000 1.000000
vt 0.468750 0.500000
vt 0.687500 0.500000
vt 0.687500 0.062500
vt 0.468750 0.062500
vt 0.750000 0.718750
vt 0.750000 0.937500
vt 0.968750 0.937500
vt 0.968750 0.718750
s 0
usemtl m_3c464693-faa6-bc4c-fbc4-12537effa964
f 121/170/70 124/171/70 122/172/70 119/173/70
f 120/174/71 121/175/71 119/176/71 118/177/71
f 125/178/72 120/179/72 118/180/72 123/181/72
f 124/182/73 125/183/73 123/184/73 122/185/73
f 123/186/74 118/187/74 119/188/74 122/189/74
o cube.009
v 0.243550 0.914029 0.614607
v 0.013438 0.840320 0.678759
v 0.428753 0.317474 0.593493
v 0.198641 0.243764 0.657644
v 0.069194 0.850151 0.890055
v 0.299306 0.923861 0.825904
v 0.254398 0.253595 0.868941
v 0.484510 0.327305 0.804790
vn -0.9204 -0.2948 0.2566
vn -0.2549 -0.0449 -0.9659
vn 0.9204 0.2948 -0.2566
vn 0.2549 0.0449 0.9659
vn -0.2963 0.9545 0.0338
vt 0.125000 0.625000
vt 0.343750 0.625000
vt 0.343750 0.000000
vt 0.125000 0.000000
vt 0.468750 0.375000
vt 0.718750 0.375000
vt 0.718750 1.000000
vt 0.468750 1.000000
vt 0.625000 0.625000
vt 0.406250 0.625000
vt 0.406250 0.000000
vt 0.625000 0.000000
vt 0.031250 1.000000
vt 0.281250 1.000000
vt 0.281250 0.375000
vt 0.031250 0.375000
vt 0.968750 0.437500
vt 0.750000 0.437500
vt 0.750000 0.687500
vt 0.968750 0.687500
s 0
usemtl m_3c464693-faa6-bc4c-fbc4-12537effa964
f 129/190/75 132/191/75 130/192/75 127/193/75
f 128/194/76 129/195/76 127/196/76 126/197/76
f 133/198/77 128/199/77 126/200/77 131/201/77
f 132/202/78 133/203/78 131/204/78 130/205/78
f 131/206/79 126/207/79 127/208/79 130/209/79
