# Blender 4.2.2 LTS
# www.blender.org
mtllib loom.mtl
o cube
v 1.191875 2.169481 0.744653
v 1.316856 2.169481 0.742471
v 1.195420 1.817658 0.947747
v 1.320401 1.817658 0.945565
v 1.314967 2.106981 0.634235
v 1.189986 2.106981 0.636416
v 1.318512 1.755158 0.837329
v 1.193531 1.755158 0.839510
vn 0.9998 -0.0000 -0.0175
vn 0.0151 0.5000 0.8659
vn -0.9998 -0.0000 0.0175
vn -0.0151 -0.5000 -0.8659
vn -0.0087 0.8660 -0.4999
vt 0.312500 0.593750
vt 0.437500 0.593750
vt 0.437500 1.000000
vt 0.312500 1.000000
vt 0.562500 0.593750
vt 0.562500 1.000000
vt 0.687500 0.593750
vt 0.687500 1.000000
vt 0.000000 0.875000
vt 0.125000 0.875000
vt 0.125000 1.000000
vt 0.000000 1.000000
s 0
usemtl m_95ee00fd-8bd0-9d3a-d952-56802cdaf21c
f 4/1/1 7/2/1 5/3/1 2/4/1
f 3/2/2 4/5/2 2/6/2 1/3/2
f 8/5/3 3/7/3 1/8/3 6/6/3
f 7/2/4 8/5/4 6/6/4 5/3/4
f 6/9/5 1/10/5 2/11/5 5/12/5
o cube.001
v -0.334214 2.153315 1.053722
v -0.146743 2.153315 1.050449
v -0.335395 1.848222 0.986094
v -0.147923 1.848222 0.982822
v -0.148873 2.180370 0.928431
v -0.336344 2.180369 0.931703
v -0.150053 1.875277 0.860804
v -0.337525 1.875277 0.864076
vn 0.9998 -0.0000 -0.0175
vn 0.0170 -0.2164 0.9761
vn -0.9998 -0.0000 0.0175
vn -0.0170 0.2164 -0.9761
vn 0.0038 0.9763 0.2164
vt 0.562500 0.687500
vt 0.687500 0.687500
vt 0.687500 1.000000
vt 0.562500 1.000000
vt 0.375000 0.687500
vt 0.375000 1.000000
vt 0.250000 0.687500
vt 0.250000 1.000000
vt 0.000000 0.812500
vt 0.125000 0.812500
vt 0.125000 1.000000
vt 0.000000 1.000000
s 0
usemtl m_95ee00fd-8bd0-9d3a-d952-56802cdaf21c
f 12/13/6 15/14/6 13/15/6 10/16/6
f 11/17/7 12/13/7 10/16/7 9/18/7
f 16/19/8 11/17/8 9/18/8 14/20/8
f 15/17/9 16/13/9 14/16/9 13/18/9
f 14/21/10 9/22/10 10/23/10 13/24/10
o cube.002
v 1.165557 2.153315 1.027543
v 1.353029 2.153315 1.024271
v 1.164377 1.848222 0.959916
v 1.351848 1.848222 0.956644
v 1.350899 2.180370 0.902252
v 1.163427 2.180369 0.905524
v 1.349718 1.875277 0.834625
v 1.162247 1.875277 0.837897
vn 0.9998 -0.0000 -0.0175
vn 0.0170 -0.2164 0.9761
vn -0.9998 -0.0000 0.0175
vn -0.0170 0.2164 -0.9761
vn 0.0038 0.9763 0.2164
vt 0.656250 0.687500
vt 0.781250 0.687500
vt 0.781250 1.000000
vt 0.656250 1.000000
vt 0.468750 0.687500
vt 0.468750 1.000000
vt 0.343750 0.687500
vt 0.343750 1.000000
vt 0.000000 0.812500
vt 0.125000 0.812500
vt 0.125000 1.000000
vt 0.000000 1.000000
s 0
usemtl m_95ee00fd-8bd0-9d3a-d952-56802cdaf21c
f 20/25/11 23/26/11 21/27/11 18/28/11
f 19/29/12 20/25/12 18/28/12 17/30/12
f 24/31/13 19/29/13 17/30/13 22/32/13
f 23/29/14 24/25/14 22/28/14 21/30/14
f 22/33/15 17/34/15 18/35/15 21/36/15
o cube.003
v -0.307897 2.169481 0.770832
v -0.182916 2.169481 0.768650
v -0.304351 1.817658 0.973926
v -0.179370 1.817658 0.971744
v -0.184805 2.106981 0.660413
v -0.309786 2.106981 0.662595
v -0.181260 1.755158 0.863507
v -0.306241 1.755158 0.865689
vn 0.9998 -0.0000 -0.0175
vn 0.0151 0.5000 0.8659
vn -0.9998 -0.0000 0.0175
vn -0.0151 -0.5000 -0.8659
vn -0.0087 0.8660 -0.4999
vt 0.312500 0.593750
vt 0.437500 0.593750
vt 0.437500 1.000000
vt 0.312500 1.000000
vt 0.562500 0.593750
vt 0.562500 1.000000
vt 0.687500 0.593750
vt 0.687500 1.000000
vt 0.000000 0.875000
vt 0.125000 0.875000
vt 0.125000 1.000000
vt 0.000000 1.000000
s 0
usemtl m_95ee00fd-8bd0-9d3a-d952-56802cdaf21c
f 28/37/16 31/38/16 29/39/16 26/40/16
f 27/38/17 28/41/17 26/42/17 25/39/17
f 32/41/18 27/43/18 25/44/18 30/42/18
f 31/38/19 32/41/19 30/42/19 29/39/19
f 30/45/20 25/46/20 26/47/20 29/48/20
o cube.004
v -0.398477 2.156250 0.953249
v 0.507635 2.156250 0.937433
v -0.398477 1.937500 0.953250
v 0.507635 1.937500 0.937433
v 0.504909 2.156250 0.781207
v -0.401203 2.156250 0.797023
v 0.504909 1.937500 0.781207
v -0.401203 1.937500 0.797023
vn 0.0175 -0.0000 0.9998
vn -0.9998 -0.0000 0.0175
vn -0.0175 -0.0000 -0.9998
vn -0.0000 1.0000 -0.0000
vn -0.0000 -1.0000 -0.0000
vt 0.625000 0.093750
vt 0.625000 1.000000
vt 0.406250 1.000000
vt 0.406250 0.093750
vt 0.000000 0.781250
vt 0.156250 0.781250
vt 0.156250 1.000000
vt 0.000000 1.000000
vt 0.781250 0.093750
vt 0.781250 1.000000
vt 0.250000 0.093750
vt 0.250000 1.000000
s 0
usemtl m_95ee00fd-8bd0-9d3a-d952-56802cdaf21c
f 35/49/21 36/50/21 34/51/21 33/52/21
f 40/53/22 35/54/22 33/55/22 38/56/22
f 39/49/23 40/50/23 38/51/23 37/52/23
f 38/49/24 33/57/24 34/58/24 37/50/24
f 39/59/25 36/52/25 35/51/25 40/60/25
o cube.005
v 0.507230 1.961020 0.914263
v 1.069644 1.961021 0.904446
v 0.501919 0.588104 0.609941
v 1.064333 0.588104 0.600124
v 1.069644 1.961021 0.904446
v 0.507230 1.961020 0.914263
v 1.064333 0.588104 0.600124
v 0.501919 0.588104 0.609941
vn 0.0170 -0.2164 0.9761
vn -0.0170 0.2164 -0.9761
vt 0.000000 0.000000
vt 0.562500 0.000000
vt 0.562500 1.000000
vt 0.000000 1.000000
s 0
usemtl m_85e1cc6f-342d-5548-ca4e-a1e1c969dc15
f 43/61/26 44/62/26 42/63/26 41/64/26
f 47/61/27 48/62/27 46/63/27 45/64/27
o cube.006
v -0.151467 1.158555 0.779796
v 0.535928 1.158555 0.767798
v -0.151939 1.036518 0.752745
v 0.535456 1.036518 0.740747
v 0.534864 1.172082 0.706788
v -0.152532 1.172082 0.718787
v 0.534391 1.050045 0.679738
v -0.153004 1.050045 0.691736
vn 0.0170 -0.2164 0.9761
vn -0.0170 0.2164 -0.9761
vn 0.0038 0.9763 0.2164
vn -0.0038 -0.9763 -0.2164
vt 0.562500 0.312500
vt 0.562500 1.000000
vt 0.437500 1.000000
vt 0.437500 0.312500
vt 0.468750 0.312500
vt 0.531250 0.312500
vt 0.531250 1.000000
vt 0.468750 1.000000
s 0
usemtl m_95ee00fd-8bd0-9d3a-d952-56802cdaf21c
f 51/65/28 52/66/28 50/67/28 49/68/28
f 55/65/29 56/66/29 54/67/29 53/68/29
f 54/69/30 49/70/30 50/71/30 53/72/30
f 55/69/31 52/70/31 51/71/31 56/72/31
o cube.007
v 0.498564 1.163304 0.775905
v 1.073477 1.163304 0.765870
v 0.498045 1.029063 0.746150
v 1.072957 1.029064 0.736115
v 1.072199 1.179537 0.692659
v 0.497286 1.179537 0.702694
v 1.071679 1.045297 0.662903
v 0.496767 1.045296 0.672939
vn 0.0170 -0.2164 0.9761
vn -0.0170 0.2164 -0.9761
vn 0.0038 0.9763 0.2164
vn -0.0038 -0.9763 -0.2164
vt 0.000000 0.875000
vt 0.562500 0.875000
vt 0.562500 1.000000
vt 0.000000 1.000000
vt 0.562500 0.937500
vt 0.000000 0.937500
s 0
usemtl m_85e1cc6f-342d-5548-ca4e-a1e1c969dc15
f 59/73/32 60/74/32 58/75/32 57/76/32
f 63/73/33 64/74/33 62/75/33 61/76/33
f 62/77/34 57/75/34 58/76/34 61/78/34
f 63/77/35 60/75/35 59/76/35 64/78/35
o cube.008
v 0.502041 0.522894 0.616955
v 1.064456 0.522894 0.607138
v 0.502041 0.147894 0.616955
v 1.064456 0.147894 0.607138
v 1.064456 0.522894 0.607138
v 0.502041 0.522894 0.616955
v 1.064456 0.147894 0.607138
v 0.502041 0.147894 0.616955
vn 0.0175 -0.0000 0.9998
vn -0.0175 -0.0000 -0.9998
vt 0.000000 0.000000
vt 0.562500 0.000000
vt 0.562500 0.375000
vt 0.000000 0.375000
s 0
usemtl m_85e1cc6f-342d-5548-ca4e-a1e1c969dc15
f 67/79/36 68/80/36 66/81/36 65/82/36
usemtl m_5b5d439a-64ec-0247-eb65-b57cfd3c705e
f 71/79/37 72/80/37 70/81/37 69/82/37
o cube.009
v -0.153696 0.593750 0.652057
v 0.533700 0.593750 0.640058
v -0.153696 0.531250 0.652057
v 0.533700 0.531250 0.640058
v 0.532609 0.593750 0.577568
v -0.154787 0.593750 0.589566
v 0.532609 0.531250 0.577568
v -0.154787 0.531250 0.589566
vn 0.0175 -0.0000 0.9998
vn -0.0175 -0.0000 -0.9998
vn -0.0000 1.0000 -0.0000
vn -0.0000 -1.0000 -0.0000
vt 0.531250 0.312500
vt 0.531250 1.000000
vt 0.468750 1.000000
vt 0.468750 0.312500
vt 0.437500 0.312500
vt 0.500000 0.312500
vt 0.500000 1.000000
vt 0.437500 1.000000
s 0
usemtl m_95ee00fd-8bd0-9d3a-d952-56802cdaf21c
f 75/83/38 76/84/38 74/85/38 73/86/38
f 79/83/39 80/84/39 78/85/39 77/86/39
f 78/87/40 73/88/40 74/89/40 77/90/40
f 79/87/41 76/88/41 75/89/41 80/90/41
o cube.010
v 0.496314 0.600000 0.646962
v 1.071227 0.600000 0.636927
v 0.496314 0.525000 0.646962
v 1.071227 0.525000 0.636927
v 1.069918 0.600000 0.561938
v 0.495005 0.600000 0.571973
v 1.069918 0.525000 0.561938
v 0.495005 0.525000 0.571973
vn 0.0175 -0.0000 0.9998
vn -0.0175 -0.0000 -0.9998
vn -0.0000 1.0000 -0.0000
vn -0.0000 -1.0000 -0.0000
vt 0.000000 0.937500
vt 0.562500 0.937500
vt 0.562500 1.000000
vt 0.000000 1.000000
s 0
usemtl m_85e1cc6f-342d-5548-ca4e-a1e1c969dc15
f 83/91/42 84/92/42 82/93/42 81/94/42
f 87/91/43 88/92/43 86/93/43 85/94/43
f 86/92/44 81/93/44 82/94/44 85/91/44
f 87/92/45 84/93/45 83/94/45 88/91/45
o cube.011
v 0.198316 0.156250 0.661540
v 0.330878 0.288833 0.659226
v 0.330878 0.023668 0.659226
v 0.463440 0.156250 0.656912
v 0.329787 0.288833 0.596735
v 0.197225 0.156250 0.599049
v 0.462350 0.156250 0.594421
v 0.329787 0.023668 0.596735
vn 0.7070 0.7071 -0.0123
vn 0.0175 -0.0000 0.9998
vn -0.7070 -0.7071 0.0123
vn -0.0175 -0.0000 -0.9998
vn -0.7070 0.7071 0.0123
vn 0.7070 -0.7071 -0.0123
vt 0.000000 0.812500
vt 0.062500 0.812500
vt 0.062500 1.000000
vt 0.000000 1.000000
vt 0.187500 0.812500
vt 0.187500 1.000000
s 0
usemtl m_c29ed9c1-4327-ee9e-18f7-d5309476533b
f 92/95/46 95/96/46 93/97/46 90/98/46
f 91/95/47 92/99/47 90/100/47 89/98/47
f 96/95/48 91/96/48 89/97/48 94/98/48
f 95/95/49 96/99/49 94/100/49 93/98/49
f 94/95/50 89/96/50 90/97/50 93/98/50
f 95/95/51 92/96/51 91/97/51 96/98/51
o cube.012
v 0.502415 0.156250 0.704597
v 0.624001 0.288833 0.651730
v 0.624001 0.023668 0.651730
v 0.745587 0.156250 0.598863
v 0.599079 0.288833 0.594414
v 0.477493 0.156250 0.647281
v 0.720665 0.156250 0.541547
v 0.599079 0.023668 0.594414
vn 0.6485 0.7071 -0.2820
vn 0.3987 -0.0000 0.9171
vn -0.6485 -0.7071 0.2820
vn -0.3987 -0.0000 -0.9171
vn -0.6485 0.7071 0.2820
vn 0.6485 -0.7071 -0.2820
vt 0.000000 0.812500
vt 0.062500 0.812500
vt 0.062500 1.000000
vt 0.000000 1.000000
vt 0.187500 0.812500
vt 0.187500 1.000000
s 0
usemtl m_c29ed9c1-4327-ee9e-18f7-d5309476533b
f 100/101/52 103/102/52 101/103/52 98/104/52
f 99/101/53 100/105/53 98/106/53 97/104/53
f 104/101/54 99/102/54 97/103/54 102/104/54
f 103/101/55 104/105/55 102/106/55 101/104/55
f 102/101/56 97/102/56 98/103/56 101/104/56
f 103/101/57 100/102/57 99/103/57 104/104/57
o cube.013
v -0.085685 0.156250 0.613373
v 0.037672 0.288833 0.661965
v 0.037672 0.023668 0.661965
v 0.161030 0.156250 0.710556
v 0.060579 0.288833 0.603814
v -0.062778 0.156250 0.555222
v 0.183936 0.156250 0.652405
v 0.060579 0.023668 0.603814
vn 0.6579 0.7071 0.2592
vn -0.3665 -0.0000 0.9304
vn -0.6579 -0.7071 -0.2592
vn 0.3665 -0.0000 -0.9304
vn -0.6579 0.7071 -0.2592
vn 0.6579 -0.7071 0.2592
vt 0.000000 0.812500
vt 0.062500 0.812500
vt 0.062500 1.000000
vt 0.000000 1.000000
vt 0.187500 0.812500
vt 0.187500 1.000000
s 0
usemtl m_c29ed9c1-4327-ee9e-18f7-d5309476533b
f 108/107/58 111/108/58 109/109/58 106/110/58
f 107/107/59 108/111/59 106/112/59 105/110/59
f 112/107/60 107/108/60 105/109/60 110/110/60
f 111/107/61 112/111/61 110/112/61 109/110/61
f 110/107/62 105/108/62 106/109/62 109/110/62
f 111/107/63 108/108/63 107/109/63 112/110/63
o cube.014
v 1.160600 0.871926 0.743509
v 1.348071 0.871926 0.740237
v 1.156823 -0.104370 0.527103
v 1.344294 -0.104370 0.523830
v 1.345941 0.898981 0.618219
v 1.158470 0.898981 0.621491
v 1.342164 -0.077315 0.401812
v 1.154693 -0.077315 0.405084
vn 0.9998 -0.0000 -0.0175
vn 0.0170 -0.2164 0.9761
vn -0.9998 -0.0000 0.0175
vn -0.0170 0.2164 -0.9761
vn -0.0038 -0.9763 -0.2164
vt 0.656250 0.000000
vt 0.781250 0.000000
vt 0.781250 1.000000
vt 0.656250 1.000000
vt 0.468750 0.000000
vt 0.468750 1.000000
vt 0.343750 0.000000
vt 0.343750 1.000000
vt 0.000000 0.812500
vt 0.125000 0.812500
vt 0.125000 1.000000
vt 0.000000 1.000000
s 0
usemtl m_95ee00fd-8bd0-9d3a-d952-56802cdaf21c
f 116/113/64 119/114/64 117/115/64 114/116/64
f 115/117/65 116/113/65 114/116/65 113/118/65
f 120/119/66 115/117/66 113/118/66 118/120/66
f 119/117/67 120/113/67 118/116/67 117/118/67
f 119/121/68 116/122/68 115/123/68 120/124/68
o cube.015
v -0.339172 0.871926 0.769688
v -0.151700 0.871926 0.766416
v -0.342949 -0.104370 0.553281
v -0.155477 -0.104370 0.550009
v -0.153830 0.898981 0.644397
v -0.341302 0.898981 0.647669
v -0.157607 -0.077315 0.427991
v -0.345079 -0.077315 0.431263
vn 0.9998 -0.0000 -0.0175
vn 0.0170 -0.2164 0.9761
vn -0.9998 -0.0000 0.0175
vn -0.0170 0.2164 -0.9761
vn -0.0038 -0.9763 -0.2164
vt 0.562500 0.000000
vt 0.687500 0.000000
vt 0.687500 1.000000
vt 0.562500 1.000000
vt 0.375000 0.000000
vt 0.375000 1.000000
vt 0.250000 0.000000
vt 0.250000 1.000000
vt 0.000000 0.812500
vt 0.125000 0.812500
vt 0.125000 1.000000
vt 0.000000 1.000000
s 0
usemtl m_95ee00fd-8bd0-9d3a-d952-56802cdaf21c
f 124/125/69 127/126/69 125/127/69 122/128/69
f 123/129/70 124/125/70 122/128/70 121/130/70
f 128/131/71 123/129/71 121/130/71 126/132/71
f 127/129/72 128/125/72 126/128/72 125/130/72
f 127/133/73 124/134/73 123/135/73 128/136/73
o cube.016
v 1.164377 1.848222 0.959916
v 1.351848 1.848222 0.956644
v 1.160600 0.871926 0.743509
v 1.348071 0.871926 0.740237
v 1.349718 1.875277 0.834625
v 1.162247 1.875277 0.837897
v 1.345941 0.898981 0.618219
v 1.158470 0.898981 0.621491
vn 0.9998 -0.0000 -0.0175
vn 0.0170 -0.2164 0.9761
vn -0.9998 -0.0000 0.0175
vn -0.0170 0.2164 -0.9761
vt 0.656250 0.000000
vt 0.781250 0.000000
vt 0.781250 1.000000
vt 0.656250 1.000000
vt 0.468750 0.000000
vt 0.468750 1.000000
vt 0.343750 0.000000
vt 0.343750 1.000000
s 0
usemtl m_95ee00fd-8bd0-9d3a-d952-56802cdaf21c
f 132/137/74 135/138/74 133/139/74 130/140/74
f 131/141/75 132/137/75 130/140/75 129/142/75
f 136/143/76 131/141/76 129/142/76 134/144/76
f 135/141/77 136/137/77 134/140/77 133/142/77
o cube.017
v -0.335395 1.848222 0.986094
v -0.147923 1.848222 0.982822
v -0.339172 0.871926 0.769688
v -0.151700 0.871926 0.766416
v -0.150053 1.875277 0.860804
v -0.337525 1.875277 0.864076
v -0.153830 0.898981 0.644397
v -0.341302 0.898981 0.647669
vn 0.9998 -0.0000 -0.0175
vn 0.0170 -0.2164 0.9761
vn -0.9998 -0.0000 0.0175
vn -0.0170 0.2164 -0.9761
vt 0.562500 0.000000
vt 0.687500 0.000000
vt 0.687500 1.000000
vt 0.562500 1.000000
vt 0.375000 0.000000
vt 0.375000 1.000000
vt 0.250000 0.000000
vt 0.250000 1.000000
s 0
usemtl m_95ee00fd-8bd0-9d3a-d952-56802cdaf21c
f 140/145/78 143/146/78 141/147/78 138/148/78
f 139/149/79 140/145/79 138/148/79 137/150/79
f 144/151/80 139/149/80 137/150/80 142/152/80
f 143/149/81 144/145/81 142/148/81 141/150/81
o cube.018
v 0.507635 2.156250 0.937433
v 1.413747 2.156250 0.921617
v 0.507635 1.937500 0.937433
v 1.413747 1.937500 0.921617
v 1.411021 2.156250 0.765391
v 0.504909 2.156250 0.781207
v 1.411021 1.937500 0.765391
v 0.504909 1.937500 0.781207
vn 0.9998 -0.0000 -0.0175
vn 0.0175 -0.0000 0.9998
vn -0.0175 -0.0000 -0.9998
vn -0.0000 1.0000 -0.0000
vn -0.0000 -1.0000 -0.0000
vt 0.000000 0.781250
vt 0.156250 0.781250
vt 0.156250 1.000000
vt 0.000000 1.000000
vt 0.625000 0.093750
vt 0.625000 1.000000
vt 0.406250 1.000000
vt 0.406250 0.093750
vt 0.250000 0.093750
vt 0.250000 1.000000
vt 0.781250 0.093750
vt 0.781250 1.000000
s 0
usemtl m_95ee00fd-8bd0-9d3a-d952-56802cdaf21c
f 148/153/82 151/154/82 149/155/82 146/156/82
f 147/157/83 148/158/83 146/159/83 145/160/83
f 151/157/84 152/158/84 150/159/84 149/160/84
f 150/161/85 145/160/85 146/159/85 149/162/85
f 151/157/86 148/163/86 147/164/86 152/158/86
o cube.019
v 0.473438 1.158555 0.768888
v 1.160833 1.158555 0.756890
v 0.472966 1.036518 0.741838
v 1.160361 1.036518 0.729839
v 1.159768 1.172083 0.695881
v 0.472373 1.172082 0.707879
v 1.159296 1.050046 0.668830
v 0.471901 1.050045 0.680828
vn 0.0170 -0.2164 0.9761
vn -0.0170 0.2164 -0.9761
vn 0.0038 0.9763 0.2164
vn -0.0038 -0.9763 -0.2164
vt 0.562500 0.312500
vt 0.562500 1.000000
vt 0.437500 1.000000
vt 0.437500 0.312500
vt 0.468750 0.312500
vt 0.531250 0.312500
vt 0.531250 1.000000
vt 0.468750 1.000000
s 0
usemtl m_95ee00fd-8bd0-9d3a-d952-56802cdaf21c
f 155/165/87 156/166/87 154/167/87 153/168/87
f 159/165/88 160/166/88 158/167/88 157/168/88
f 158/169/89 153/170/89 154/171/89 157/172/89
f 159/169/90 156/170/90 155/171/90 160/172/90
o cube.020
v 0.471209 0.593750 0.641149
v 1.158604 0.593750 0.629150
v 0.471209 0.531250 0.641149
v 1.158604 0.531250 0.629150
v 1.157513 0.593750 0.566660
v 0.470118 0.593750 0.578658
v 1.157513 0.531250 0.566660
v 0.470118 0.531250 0.578658
vn 0.0175 -0.0000 0.9998
vn -0.0175 -0.0000 -0.9998
vn -0.0000 1.0000 -0.0000
vn -0.0000 -1.0000 -0.0000
vt 0.531250 0.312500
vt 0.531250 1.000000
vt 0.468750 1.000000
vt 0.468750 0.312500
vt 0.437500 0.312500
vt 0.500000 0.312500
vt 0.500000 1.000000
vt 0.437500 1.000000
s 0
usemtl m_95ee00fd-8bd0-9d3a-d952-56802cdaf21c
f 163/173/91 164/174/91 162/175/91 161/176/91
f 167/173/92 168/174/92 166/175/92 165/176/92
f 166/177/93 161/178/93 162/179/93 165/180/93
f 167/177/94 164/178/94 163/179/94 168/180/94
o cube.021
v 0.791975 0.156250 0.651177
v 0.924538 0.288833 0.648863
v 0.924538 0.023668 0.648863
v 1.057100 0.156250 0.646550
v 0.923447 0.288833 0.586373
v 0.790885 0.156250 0.588687
v 1.056009 0.156250 0.584059
v 0.923447 0.023668 0.586373
vn 0.7070 0.7071 -0.0123
vn 0.0175 -0.0000 0.9998
vn -0.7070 -0.7071 0.0123
vn -0.0175 -0.0000 -0.9998
vn -0.7070 0.7071 0.0123
vn 0.7070 -0.7071 -0.0123
vt 0.000000 0.812500
vt 0.062500 0.812500
vt 0.062500 1.000000
vt 0.000000 1.000000
vt 0.187500 0.812500
vt 0.187500 1.000000
s 0
usemtl m_c29ed9c1-4327-ee9e-18f7-d5309476533b
f 172/181/95 175/182/95 173/183/95 170/184/95
f 171/181/96 172/185/96 170/186/96 169/184/96
f 176/181/97 171/182/97 169/183/97 174/184/97
f 175/181/98 176/185/98 174/186/98 173/184/98
f 174/181/99 169/182/99 170/183/99 173/184/99
f 175/181/100 172/182/100 171/183/100 176/184/100
o cube.022
v -0.063850 1.163304 0.785722
v 0.511062 1.163304 0.775687
v -0.064369 1.029063 0.755967
v 0.510543 1.029064 0.745931
v 0.509784 1.179537 0.702476
v -0.065128 1.179537 0.712511
v 0.509265 1.045297 0.672720
v -0.065647 1.045296 0.682756
vn 0.0170 -0.2164 0.9761
vn -0.0170 0.2164 -0.9761
vn 0.0038 0.9763 0.2164
vn -0.0038 -0.9763 -0.2164
vt 0.437500 0.875000
vt 1.000000 0.875000
vt 1.000000 1.000000
vt 0.437500 1.000000
vt 1.000000 0.937500
vt 0.437500 0.937500
s 0
usemtl m_85e1cc6f-342d-5548-ca4e-a1e1c969dc15
f 179/187/101 180/188/101 178/189/101 177/190/101
f 183/187/102 184/188/102 182/189/102 181/190/102
f 182/191/103 177/189/103 178/190/103 181/192/103
f 183/191/104 180/189/104 179/190/104 184/192/104
o cube.023
v -0.066100 0.600000 0.656779
v 0.508812 0.600000 0.646743
v -0.066100 0.525000 0.656779
v 0.508812 0.525000 0.646743
v 0.507503 0.600000 0.571755
v -0.067409 0.600000 0.581790
v 0.507503 0.525000 0.571755
v -0.067409 0.525000 0.581790
vn 0.0175 -0.0000 0.9998
vn -0.0175 -0.0000 -0.9998
vn -0.0000 1.0000 -0.0000
vn -0.0000 -1.0000 -0.0000
vt 0.437500 0.937500
vt 1.000000 0.937500
vt 1.000000 1.000000
vt 0.437500 1.000000
s 0
usemtl m_85e1cc6f-342d-5548-ca4e-a1e1c969dc15
f 187/193/105 188/194/105 186/195/105 185/196/105
f 191/193/106 192/194/106 190/195/106 189/196/106
f 190/194/107 185/195/107 186/196/107 189/193/107
f 191/194/108 188/195/108 187/196/108 192/193/108
o cube.024
v -0.055184 1.961020 0.924080
v 0.507230 1.961021 0.914263
v -0.060496 0.588104 0.619758
v 0.501919 0.588104 0.609941
v 0.507230 1.961021 0.914263
v -0.055184 1.961020 0.924080
v 0.501919 0.588104 0.609941
v -0.060496 0.588104 0.619758
vn 0.0170 -0.2164 0.9761
vn -0.0170 0.2164 -0.9761
vt 0.437500 0.000000
vt 1.000000 0.000000
vt 1.000000 1.000000
vt 0.437500 1.000000
s 0
usemtl m_85e1cc6f-342d-5548-ca4e-a1e1c969dc15
f 195/197/109 196/198/109 194/199/109 193/200/109
f 199/197/110 200/198/110 198/199/110 197/200/110
o cube.025
v -0.060373 0.522894 0.626772
v 0.502041 0.522894 0.616955
v -0.060373 0.147894 0.626772
v 0.502041 0.147894 0.616955
v 0.502041 0.522894 0.616955
v -0.060373 0.522894 0.626772
v 0.502041 0.147894 0.616955
v -0.060373 0.147894 0.626772
vn 0.0175 -0.0000 0.9998
vn -0.0175 -0.0000 -0.9998
vt 0.562500 0.375000
vt 0.000000 0.375000
vt 0.000000 0.750000
vt 0.562500 0.750000
s 0
usemtl m_85e1cc6f-342d-5548-ca4e-a1e1c969dc15
f 203/201/111 204/202/111 202/203/111 201/204/111
usemtl m_5b5d439a-64ec-0247-eb65-b57cfd3c705e
f 207/201/112 208/202/112 206/203/112 205/204/112
