# Blender 4.2.2 LTS
# www.blender.org
mtllib metal_cruet.mtl
o cube
v 0.531250 0.086764 0.371806
v 0.531250 0.690468 0.210044
v 0.531250 0.070588 0.311435
v 0.531250 0.674292 0.149673
v 0.468750 0.690468 0.210044
v 0.468750 0.086764 0.371806
v 0.468750 0.674292 0.149673
v 0.468750 0.070588 0.311435
vn -0.0000 0.9659 -0.2588
vn 1.0000 -0.0000 -0.0000
vn -1.0000 -0.0000 -0.0000
vn -0.0000 0.2588 0.9659
vn -0.0000 -0.2588 -0.9659
vt 0.656250 0.937500
vt 0.656250 1.000000
vt 0.593750 1.000000
vt 0.593750 0.937500
vt 0.000000 0.937500
vt 0.000000 1.000000
s 0
usemtl m_55073956-4bff-33c6-368f-e597370b4f9d
f 4/1/1 7/2/1 5/3/1 2/4/1
f 3/5/2 4/1/2 2/2/2 1/6/2
f 7/2/3 8/6/3 6/5/3 5/1/3
f 6/6/4 1/5/4 2/1/4 5/2/4
f 7/6/5 4/5/5 3/1/5 8/2/5
o cube.001
v 0.529688 0.690731 0.210044
v 0.529688 0.738566 0.094559
v 0.529688 0.632988 0.186126
v 0.529688 0.680824 0.070641
v 0.470313 0.738566 0.094559
v 0.470313 0.690731 0.210044
v 0.470313 0.680824 0.070641
v 0.470313 0.632988 0.186126
vn -0.0000 0.3827 -0.9239
vn 1.0000 -0.0000 -0.0000
vn -1.0000 -0.0000 -0.0000
vn -0.0000 0.9239 0.3827
vn -0.0000 -0.9239 -0.3827
vt 0.125000 0.875000
vt 0.187500 0.875000
vt 0.187500 0.937500
vt 0.125000 0.937500
vt 0.000000 0.875000
vt 0.000000 0.937500
s 0
usemtl m_55073956-4bff-33c6-368f-e597370b4f9d
f 12/7/6 15/8/6 13/9/6 10/10/6
f 11/11/7 12/7/7 10/10/7 9/12/7
f 15/7/8 16/11/8 14/12/8 13/10/8
f 14/12/9 9/11/9 10/7/9 13/10/9
f 15/10/10 12/7/10 11/11/10 16/12/10
o cube.002
v 0.500000 0.812763 0.890625
v 0.500000 0.812763 0.546875
v 0.500000 0.250263 0.890625
v 0.500000 0.250263 0.546875
v 0.500000 0.812763 0.546875
v 0.500000 0.812763 0.890625
v 0.500000 0.250263 0.546875
v 0.500000 0.250263 0.890625
vn 1.0000 -0.0000 -0.0000
vn -1.0000 -0.0000 -0.0000
vt 1.000000 0.437500
vt 0.656250 0.437500
vt 0.656250 1.000000
vt 1.000000 1.000000
s 0
usemtl m_55073956-4bff-33c6-368f-e597370b4f9d
f 19/13/11 20/14/11 18/15/11 17/16/11
f 23/14/12 24/13/12 22/16/12 21/15/12
o cube.003
v 0.500000 0.561737 0.365387
v 0.500000 0.621531 0.221031
v 0.500000 0.503995 0.341469
v 0.500000 0.563789 0.197113
v 0.500000 0.621531 0.221031
v 0.500000 0.561737 0.365387
v 0.500000 0.563789 0.197113
v 0.500000 0.503995 0.341469
vn 1.0000 -0.0000 -0.0000
vn -1.0000 -0.0000 -0.0000
vt 0.218750 0.937500
vt 0.062500 0.937500
vt 0.062500 1.000000
vt 0.218750 1.000000
s 0
usemtl m_55073956-4bff-33c6-368f-e597370b4f9d
f 27/17/13 28/18/13 26/19/13 25/20/13
f 31/18/14 32/17/14 30/20/14 29/19/14
o cylinder
v 0.500001 0.000000 0.716506
v 0.500000 0.750000 0.644338
v 0.687500 0.000000 0.608253
v 0.625000 0.750000 0.572169
v 0.687501 0.000000 0.391747
v 0.625000 0.750000 0.427831
v 0.499999 0.000000 0.283494
v 0.500000 0.750000 0.355662
v 0.312500 0.000000 0.391747
v 0.375000 0.750000 0.427831
v 0.312499 0.000000 0.608253
v 0.375000 0.750000 0.572169
vn 0.4983 0.0830 0.8630
vn 0.9965 0.0830 -0.0000
vn 0.4983 0.0830 -0.8630
vn -0.4983 0.0830 -0.8630
vn -0.9965 0.0830 -0.0000
vn -0.4983 0.0830 0.8630
vn -0.0000 1.0000 -0.0000
vn -0.0000 -1.0000 -0.0000
vt 0.250000 0.000000
vt 0.468750 0.000000
vt 0.437500 0.750000
vt 0.281250 0.750000
vt 0.000000 0.000000
vt 0.218750 0.000000
vt 0.187500 0.750000
vt 0.031250 0.750000
vt 0.625000 0.218750
vt 0.695312 0.093750
vt 0.835938 0.093750
vt 0.906250 0.218750
vt 0.835938 0.343750
vt 0.695312 0.343750
vt 0.625001 0.000000
vt 0.875001 0.000000
vt 1.000000 0.218750
vt 0.500000 0.218750
vt 0.875000 0.437500
vt 0.625000 0.437500
s 0
usemtl m_55073956-4bff-33c6-368f-e597370b4f9d
f 33/21/15 35/22/15 36/23/15 34/24/15
f 35/25/16 37/26/16 38/27/16 36/28/16
f 37/21/17 39/22/17 40/23/17 38/24/17
f 39/25/18 41/26/18 42/27/18 40/28/18
f 41/21/19 43/22/19 44/23/19 42/24/19
f 43/25/20 33/26/20 34/27/20 44/28/20
f 40/29/21 42/30/21 44/31/21 34/32/21
f 34/32/21 36/33/21 38/34/21 40/29/21
f 37/35/22 35/36/22 33/37/22 39/38/22
f 33/37/22 43/39/22 41/40/22 39/38/22
