# Blender v3.2.2 OBJ File: ''
# www.blender.org
mtllib millstone.mtl
o cylinder.000
v 1.003285 -0.000000 1.003285
v 0.684215 -0.000000 1.187500
v 0.500000 -0.000000 0.500000
v 1.003285 0.125000 1.003285
v 0.684215 0.125000 1.187500
v 1.187500 -0.000000 0.684215
v 1.187500 0.125000 0.684215
v 1.187500 -0.000000 0.315785
v 1.187500 0.125000 0.315785
v 1.003285 0.000000 -0.003285
v 1.003285 0.125000 -0.003285
v 0.684215 0.000000 -0.187500
v 0.684215 0.125000 -0.187500
v 0.315785 0.000000 -0.187500
v 0.315785 0.125000 -0.187500
v -0.003285 0.000000 -0.003285
v -0.003285 0.125000 -0.003285
v -0.187500 -0.000000 0.315785
v -0.187500 0.125000 0.315785
v -0.187500 -0.000000 0.684215
v -0.187500 0.125000 0.684215
v -0.003285 -0.000000 1.003285
v -0.003285 0.125000 1.003285
v 0.315785 -0.000000 1.187500
v 0.315785 0.125000 1.187500
v 0.366025 0.218750 0.000000
v 0.633975 0.218750 0.000000
v 0.133975 0.218750 0.133975
v 0.000000 0.218750 0.366025
v 0.000000 0.218750 0.633975
v 0.133975 0.218750 0.866025
v 0.366025 0.218750 1.000000
v 0.633975 0.218750 1.000000
v 0.866025 0.218750 0.866025
v 1.000000 0.218750 0.633975
v 1.000000 0.218750 0.366025
v 0.866025 0.218750 0.133975
v 0.500000 0.218750 0.500000
vt 0.595392 0.907892
vt 0.435858 1.000000
vt 0.343750 0.656250
vt 0.562500 0.000000
vt 0.750000 0.000000
vt 0.750000 0.062500
vt 0.562500 0.062500
vt 0.687500 0.748358
vt 0.000000 0.000000
vt 0.187500 0.000000
vt 0.187500 0.062500
vt 0.000000 0.062500
vt 0.687500 0.564142
vt 0.375000 0.000000
vt 0.375000 0.062500
vt 0.595392 0.404608
vt 0.562500 0.000000
vt 0.562500 0.062500
vt 0.435858 0.312500
vt 0.750000 0.000000
vt 0.750000 0.062500
vt 0.251642 0.312500
vt 0.000000 0.000000
vt 0.187500 0.000000
vt 0.187500 0.062500
vt 0.000000 0.062500
vt 0.092108 0.404608
vt 0.375000 0.000000
vt 0.375000 0.062500
vt 0.000000 0.564142
vt 0.562500 0.000000
vt 0.562500 0.062500
vt 0.000000 0.748358
vt 0.750000 0.000000
vt 0.750000 0.062500
vt 0.092108 0.907892
vt 0.000000 0.000000
vt 0.187500 0.000000
vt 0.187500 0.062500
vt 0.000000 0.062500
vt 0.251642 1.000000
vt 0.375000 0.000000
vt 0.375000 0.062500
vt 0.276763 0.906250
vt 0.410737 0.906250
vt 0.435858 1.000000
vt 0.251642 1.000000
vt 0.160737 0.839263
vt 0.092108 0.907892
vt 0.093750 0.723237
vt 0.000000 0.748358
vt 0.093750 0.589263
vt 0.000000 0.564142
vt 0.160737 0.473237
vt 0.092108 0.404608
vt 0.276763 0.406250
vt 0.251642 0.312500
vt 0.410737 0.406250
vt 0.435858 0.312500
vt 0.526763 0.473237
vt 0.595392 0.404608
vt 0.593750 0.589263
vt 0.687500 0.564142
vt 0.593750 0.723237
vt 0.687500 0.748358
vt 0.526763 0.839263
vt 0.595392 0.907892
vt 0.343750 0.656250
vn 0.0000 -1.0000 -0.0000
vn 0.5000 0.0000 0.8660
vn 0.8660 0.0000 0.5000
vn 1.0000 0.0000 0.0000
vn 0.8660 0.0000 -0.5000
vn 0.5000 0.0000 -0.8660
vn 0.0000 0.0000 -1.0000
vn -0.5000 0.0000 -0.8660
vn -0.8660 0.0000 -0.5000
vn -1.0000 0.0000 0.0000
vn -0.8660 0.0000 0.5000
vn -0.5000 0.0000 0.8660
vn 0.0000 0.0000 1.0000
vn 0.0000 0.8944 -0.4472
vn -0.2236 0.8944 -0.3873
vn -0.3873 0.8944 -0.2236
vn -0.4472 0.8944 0.0000
vn -0.3873 0.8944 0.2236
vn -0.2236 0.8944 0.3873
vn 0.0000 0.8944 0.4472
vn 0.2236 0.8944 0.3873
vn 0.3873 0.8944 0.2236
vn 0.4472 0.8944 0.0000
vn 0.3873 0.8944 -0.2236
vn 0.2236 0.8944 -0.3873
vn -0.0000 1.0000 0.0000
usemtl m_e7f63c2e-4219-dbe5-9f44-a81fff5f2705
s 1
f 1/1/1 2/2/1 3/3/1
f 2/4/2 1/5/2 4/6/2 5/7/2
f 6/8/1 1/1/1 3/3/1
f 1/9/3 6/10/3 7/11/3 4/12/3
f 8/13/1 6/8/1 3/3/1
f 6/10/4 8/14/4 9/15/4 7/11/4
f 10/16/1 8/13/1 3/3/1
f 8/14/5 10/17/5 11/18/5 9/15/5
f 12/19/1 10/16/1 3/3/1
f 10/17/6 12/20/6 13/21/6 11/18/6
f 14/22/1 12/19/1 3/3/1
f 12/23/7 14/24/7 15/25/7 13/26/7
f 16/27/1 14/22/1 3/3/1
f 14/24/8 16/28/8 17/29/8 15/25/8
f 18/30/1 16/27/1 3/3/1
f 16/28/9 18/31/9 19/32/9 17/29/9
f 20/33/1 18/30/1 3/3/1
f 18/31/10 20/34/10 21/35/10 19/32/10
f 22/36/1 20/33/1 3/3/1
f 20/37/11 22/38/11 23/39/11 21/40/11
f 24/41/1 22/36/1 3/3/1
f 22/38/12 24/42/12 25/43/12 23/39/12
f 2/2/1 24/41/1 3/3/1
f 24/42/13 2/4/13 5/7/13 25/43/13
usemtl m_2e0aab87-aef1-a4db-f7cf-d3ab46cfcecf
f 26/44/14 27/45/14 13/46/14 15/47/14
f 28/48/15 26/44/15 15/47/15 17/49/15
f 29/50/16 28/48/16 17/49/16 19/51/16
f 30/52/17 29/50/17 19/51/17 21/53/17
f 31/54/18 30/52/18 21/53/18 23/55/18
f 32/56/19 31/54/19 23/55/19 25/57/19
f 33/58/20 32/56/20 25/57/20 5/59/20
f 34/60/21 33/58/21 5/59/21 4/61/21
f 35/62/22 34/60/22 4/61/22 7/63/22
f 36/64/23 35/62/23 7/63/23 9/65/23
f 37/66/24 36/64/24 9/65/24 11/67/24
f 27/45/25 37/66/25 11/67/25 13/46/25
f 33/58/26 34/60/26 38/68/26
f 34/60/26 35/62/26 38/68/26
f 35/62/26 36/64/26 38/68/26
f 36/64/26 37/66/26 38/68/26
f 37/66/26 27/45/26 38/68/26
f 27/45/26 26/44/26 38/68/26
f 26/44/26 28/48/26 38/68/26
f 28/48/26 29/50/26 38/68/26
f 29/50/26 30/52/26 38/68/26
f 30/52/26 31/54/26 38/68/26
f 31/54/26 32/56/26 38/68/26
f 32/56/26 33/58/26 38/68/26
