# Blender v3.2.2 OBJ File: ''
# www.blender.org
mtllib nordic_bed_item.mtl
o head_leg_right
v 1.000000 1.000000 1.312500
v 1.000000 1.000000 1.531250
v 1.000000 -0.000000 1.531250
v 1.000000 -0.000000 1.312500
v 0.875000 -0.000000 1.531250
v 0.875000 1.000000 1.531250
v 0.875000 1.000000 1.312500
v 0.875000 -0.000000 1.312500
v 0.875000 1.000000 1.218750
v 1.000000 1.000000 1.218750
v 1.000000 0.218750 1.218750
v 0.875000 0.218750 1.218750
vt 0.000000 1.000000
vt 0.000000 0.781250
vt 1.000000 0.781250
vt 1.000000 1.000000
vt 0.000000 0.500000
vt 1.000000 0.500000
vt 1.000000 0.281250
vt 0.000000 0.281250
vt 0.406250 0.968750
vt 0.406250 0.843750
vt 0.625000 0.843750
vt 0.625000 0.968750
vt 0.312500 0.687500
vt 0.531250 0.687500
vt 0.531250 0.562500
vt 0.312500 0.562500
vt 0.000000 0.593750
vt 1.000000 0.593750
vt 1.000000 0.718750
vt 0.000000 0.718750
vt 0.218750 0.500000
vt 0.218750 0.375000
vt 1.000000 0.375000
vt 1.000000 0.500000
vt 0.625000 0.843750
vt 0.625000 0.968750
vt 0.718750 0.968750
vt 0.718750 0.843750
vt 0.218750 0.187500
vt 1.000000 0.187500
vt 1.000000 0.093750
vt 0.000000 0.093750
vt 0.000000 0.500000
vt 0.000000 0.375000
vt 0.250000 0.375000
vt 0.250000 0.500000
vt 0.000000 0.718750
vt 0.781250 0.718750
vt 1.000000 0.625000
vt 0.000000 0.625000
vn 1.0000 0.0000 0.0000
vn -1.0000 0.0000 0.0000
vn 0.0000 1.0000 0.0000
vn 0.0000 -1.0000 -0.0000
vn 0.0000 -0.0000 1.0000
vn 0.0000 0.0000 -1.0000
vn 0.0000 -0.3939 -0.9191
usemtl m_0e990f1f-ae19-6aa6-2a1f-1450e473f13b
s 1
f 1/1/1 2/2/1 3/3/1 4/4/1
f 5/5/2 6/6/2 7/7/2 8/8/2
f 6/9/3 2/10/3 1/11/3 7/12/3
f 4/13/4 3/14/4 5/15/4 8/16/4
f 3/17/5 2/18/5 6/19/5 5/20/5
f 9/21/6 10/22/6 11/23/6 12/24/6
f 10/25/3 9/26/3 7/27/3 1/28/3
f 11/29/1 10/30/1 1/31/1 4/32/1
f 12/33/7 11/34/7 4/35/7 8/36/7
f 9/37/2 12/38/2 8/39/2 7/40/2
o head_leg_left
v 0.125000 1.000000 1.312500
v 0.125000 1.000000 1.531250
v 0.125000 -0.000000 1.531250
v 0.125000 -0.000000 1.312500
v 0.000000 -0.000000 1.531250
v 0.000000 1.000000 1.531250
v 0.000000 1.000000 1.312500
v 0.000000 -0.000000 1.312500
v 0.000000 1.000000 1.218750
v 0.125000 1.000000 1.218750
v 0.125000 0.218750 1.218750
v 0.000000 0.218750 1.218750
vt 0.000000 1.000000
vt 0.000000 0.781250
vt 1.000000 0.781250
vt 1.000000 1.000000
vt 0.000000 0.500000
vt 1.000000 0.500000
vt 1.000000 0.281250
vt 0.000000 0.281250
vt 0.406250 0.968750
vt 0.406250 0.843750
vt 0.625000 0.843750
vt 0.625000 0.968750
vt 0.312500 0.687500
vt 0.531250 0.687500
vt 0.531250 0.562500
vt 0.312500 0.562500
vt 0.000000 0.093750
vt 1.000000 0.093750
vt 1.000000 0.218750
vt 0.000000 0.218750
vt 0.218750 0.031250
vt 0.218750 0.156250
vt 1.000000 0.156250
vt 1.000000 0.031250
vt 0.625000 0.843750
vt 0.625000 0.968750
vt 0.718750 0.968750
vt 0.718750 0.843750
vt 0.218750 0.187500
vt 1.000000 0.187500
vt 1.000000 0.093750
vt 0.000000 0.093750
vt 0.000000 0.031250
vt 0.000000 0.156250
vt 0.250000 0.156250
vt 0.250000 0.031250
vt 0.000000 0.656250
vt 0.781250 0.656250
vt 1.000000 0.562500
vt 0.000000 0.562500
vn 1.0000 0.0000 0.0000
vn -1.0000 0.0000 0.0000
vn 0.0000 1.0000 0.0000
vn 0.0000 -1.0000 -0.0000
vn 0.0000 -0.0000 1.0000
vn 0.0000 0.0000 -1.0000
vn 0.0000 -0.3939 -0.9191
usemtl m_0e990f1f-ae19-6aa6-2a1f-1450e473f13b
s 1
f 13/41/8 14/42/8 15/43/8 16/44/8
f 17/45/9 18/46/9 19/47/9 20/48/9
f 18/49/10 14/50/10 13/51/10 19/52/10
f 16/53/11 15/54/11 17/55/11 20/56/11
f 15/57/12 14/58/12 18/59/12 17/60/12
f 21/61/13 22/62/13 23/63/13 24/64/13
f 22/65/10 21/66/10 19/67/10 13/68/10
f 23/69/8 22/70/8 13/71/8 16/72/8
f 24/73/14 23/74/14 16/75/14 20/76/14
f 21/77/9 24/78/9 20/79/9 19/80/9
o head_side_right
v 0.093750 0.718750 0.500000
v 0.093750 0.718750 0.875000
v 0.093750 0.218750 0.875000
v 0.093750 0.218750 0.500000
v 0.031250 0.218750 0.875000
v 0.031250 0.718750 0.875000
v 0.031250 0.718750 0.500000
v 0.031250 0.218750 0.500000
v 0.093750 0.812500 1.093750
v 0.093750 0.218750 1.093750
v 0.031250 0.812500 1.093750
v 0.031250 0.218750 1.093750
v 0.093750 0.937500 1.218750
v 0.093750 0.218750 1.218750
v 0.031250 0.937500 1.218750
v 0.031250 0.218750 1.218750
vt 0.656250 0.500000
vt 0.281250 0.500000
vt 0.281250 0.000000
vt 0.656250 0.000000
vt 0.656250 0.000000
vt 0.656250 0.500000
vt 0.281250 0.500000
vt 0.281250 0.000000
vt 0.875000 0.593750
vt 0.875000 0.000000
vt 0.656250 0.000000
vt 0.656250 0.500000
vt 0.875000 0.000000
vt 0.875000 0.593750
vt 1.000000 0.718750
vt 1.000000 0.000000
vt 1.000000 0.000000
vt 1.000000 0.718750
vt 0.375000 0.312500
vt 0.375000 0.375000
vt 0.000000 0.375000
vt 0.000000 0.312500
vt 0.343750 0.375000
vt 0.000000 0.375000
vt 0.000000 0.312500
vt 0.343750 0.312500
vt 0.625000 0.312500
vt 0.625000 0.375000
vt 0.562500 0.375000
vt 0.562500 0.312500
vt 0.343750 0.312500
vt 0.343750 0.375000
vt 0.812500 0.312500
vt 0.812500 0.375000
vt 0.687500 0.375000
vt 0.687500 0.312500
vn 1.0000 0.0000 0.0000
vn -1.0000 0.0000 0.0000
vn 0.0000 1.0000 0.0000
vn 0.0000 -1.0000 -0.0000
vn 0.0000 0.9191 -0.3939
vn 0.0000 0.7071 -0.7071
usemtl m_f7ac5e93-6ab3-cc45-8da4-4318b02f30db
s 1
f 25/81/15 26/82/15 27/83/15 28/84/15
f 29/85/16 30/86/16 31/87/16 32/88/16
f 33/89/15 34/90/15 27/91/15 26/92/15
f 36/93/16 35/94/16 30/86/16 29/85/16
f 37/95/15 38/96/15 34/90/15 33/89/15
f 40/97/16 39/98/16 35/94/16 36/93/16
usemtl m_0e990f1f-ae19-6aa6-2a1f-1450e473f13b
f 30/99/17 26/100/17 25/101/17 31/102/17
f 28/103/18 27/104/18 29/105/18 32/106/18
f 35/107/19 33/108/19 26/100/19 30/99/19
f 34/109/18 36/110/18 29/111/18 27/112/18
f 39/113/20 37/114/20 33/108/20 35/107/20
f 38/115/18 40/116/18 36/110/18 34/109/18
o head_side_left
v 0.968750 0.718750 0.500000
v 0.968750 0.718750 0.875000
v 0.968750 0.218750 0.875000
v 0.968750 0.218750 0.500000
v 0.906250 0.218750 0.875000
v 0.906250 0.718750 0.875000
v 0.906250 0.718750 0.500000
v 0.906250 0.218750 0.500000
v 0.968750 0.812500 1.093750
v 0.968750 0.218750 1.093750
v 0.906250 0.812500 1.093750
v 0.906250 0.218750 1.093750
v 0.968750 0.937500 1.218750
v 0.968750 0.218750 1.218750
v 0.906250 0.937500 1.218750
v 0.906250 0.218750 1.218750
vt 0.718750 0.500000
vt 0.343750 0.500000
vt 0.343750 0.000000
vt 0.718750 0.000000
vt 0.343750 0.000000
vt 0.343750 0.500000
vt 0.718750 0.500000
vt 0.718750 0.000000
vt 0.125000 0.593750
vt 0.125000 0.000000
vt 0.125000 0.000000
vt 0.125000 0.593750
vt 0.000000 0.718750
vt 0.000000 0.000000
vt 0.000000 0.000000
vt 0.000000 0.718750
vt 0.375000 0.625000
vt 0.375000 0.687500
vt 0.000000 0.687500
vt 0.000000 0.625000
vt 0.343750 0.312500
vt 0.000000 0.312500
vt 0.000000 0.375000
vt 0.343750 0.375000
vt 0.625000 0.625000
vt 0.625000 0.687500
vt 0.562500 0.312500
vt 0.562500 0.375000
vt 0.343750 0.375000
vt 0.343750 0.312500
vt 0.812500 0.625000
vt 0.812500 0.687500
vt 0.687500 0.312500
vt 0.687500 0.375000
vn 1.0000 0.0000 0.0000
vn -1.0000 0.0000 0.0000
vn 0.0000 1.0000 0.0000
vn 0.0000 -1.0000 -0.0000
vn 0.0000 0.9191 -0.3939
vn 0.0000 0.7071 -0.7071
usemtl m_04359dc1-b222-f4e9-e6e3-7ff0d256e351
s 1
f 41/117/21 42/118/21 43/119/21 44/120/21
f 45/121/22 46/122/22 47/123/22 48/124/22
f 49/125/21 50/126/21 43/119/21 42/118/21
f 52/127/22 51/128/22 46/122/22 45/121/22
f 53/129/21 54/130/21 50/126/21 49/125/21
f 56/131/22 55/132/22 51/128/22 52/127/22
usemtl m_0e990f1f-ae19-6aa6-2a1f-1450e473f13b
f 46/133/23 42/134/23 41/135/23 47/136/23
f 44/137/24 43/138/24 45/139/24 48/140/24
f 51/141/25 49/142/25 42/134/25 46/133/25
f 50/143/24 52/144/24 45/145/24 43/146/24
f 55/147/26 53/148/26 49/142/26 51/141/26
f 54/149/24 56/150/24 52/144/24 50/143/24
o pillow
v 0.843750 0.469377 1.068730
v 0.156250 0.469377 1.068730
v 0.156250 0.591868 1.043809
v 0.843750 0.591868 1.043809
v 0.843750 0.531680 1.374957
v 0.843750 0.654170 1.350036
v 0.156250 0.531680 1.374957
v 0.156250 0.654170 1.350036
vt 0.156250 0.437500
vt 0.843750 0.437500
vt 0.843750 0.562500
vt 0.156250 0.562500
vt 0.968750 0.562500
vt 0.968750 0.875000
vt 0.843750 0.875000
vt 0.843750 0.562500
vt 0.156250 0.968750
vt 0.843750 0.968750
vt 0.843750 0.843750
vt 0.156250 0.843750
vt 0.031250 0.875000
vt 0.031250 0.562500
vt 0.156250 0.562500
vt 0.156250 0.875000
vt 0.843750 0.875000
vt 0.156250 0.875000
vn 0.0000 -0.1994 -0.9799
vn 1.0000 0.0000 0.0000
vn 0.0000 0.1994 0.9799
vn -1.0000 0.0000 0.0000
vn 0.0000 0.9799 -0.1994
usemtl m_42e81748-158f-bf23-d80f-836188d3f689
s 1
f 57/151/27 58/152/27 59/153/27 60/154/27
f 61/155/28 57/156/28 60/157/28 62/158/28
f 63/159/29 61/160/29 62/161/29 64/162/29
f 58/163/30 63/164/30 64/165/30 59/166/30
f 64/167/31 62/168/31 60/154/31 59/153/31
o bed_head
v 0.093750 0.531250 1.406250
v 0.906250 0.531250 1.406250
v 0.906250 0.531250 0.500000
v 0.093750 0.531250 0.500000
v 0.093750 0.281250 0.500000
v 0.906250 0.281250 0.500000
v 0.906250 0.281250 1.406250
v 0.093750 0.281250 1.406250
vt 0.093750 0.906250
vt 0.906250 0.906250
vt 0.906250 0.000000
vt 0.093750 0.000000
vt 0.093750 0.000000
vt 0.906250 0.000000
vt 0.906250 0.906250
vt 0.093750 0.906250
vn 0.0000 1.0000 0.0000
vn 0.0000 -1.0000 -0.0000
usemtl m_42e81748-158f-bf23-d80f-836188d3f689
s 1
f 65/169/32 66/170/32 67/171/32 68/172/32
usemtl m_0e990f1f-ae19-6aa6-2a1f-1450e473f13b
f 69/173/33 70/174/33 71/175/33 72/176/33
o head_board
v 0.875000 0.187500 1.406250
v 0.125000 0.187500 1.406250
v 0.125000 0.937500 1.406250
v 0.875000 0.937500 1.406250
v 0.125000 0.187500 1.500000
v 0.875000 0.187500 1.500000
v 0.875000 0.937500 1.500000
v 0.125000 0.937500 1.500000
vt 0.250000 0.250000
vt 1.000000 0.250000
vt 1.000000 1.000000
vt 0.250000 1.000000
vt 0.000000 0.000000
vt 0.750000 0.000000
vt 0.750000 0.750000
vt 0.000000 0.750000
vt 0.250000 0.781250
vt 1.000000 0.781250
vt 1.000000 0.875000
vt 0.250000 0.875000
vt 0.125000 0.125000
vt 0.875000 0.125000
vt 0.875000 0.218750
vt 0.125000 0.218750
vn 0.0000 0.0000 -1.0000
vn 0.0000 -0.0000 1.0000
vn 0.0000 1.0000 0.0000
vn 0.0000 -1.0000 -0.0000
usemtl m_0e990f1f-ae19-6aa6-2a1f-1450e473f13b
s 1
f 73/177/34 74/178/34 75/179/34 76/180/34
f 77/181/35 78/182/35 79/183/35 80/184/35
f 80/185/36 79/186/36 76/187/36 75/188/36
f 74/189/37 73/190/37 78/191/37 77/192/37
o foot_leg_right
v 0.000000 1.000000 -0.312500
v 0.000000 1.000000 -0.531250
v 0.000000 0.000000 -0.531250
v 0.000000 0.000000 -0.312500
v 0.125000 0.000000 -0.531250
v 0.125000 1.000000 -0.531250
v 0.125000 1.000000 -0.312500
v 0.125000 0.000000 -0.312500
v 0.125000 1.000000 -0.218750
v 0.000000 1.000000 -0.218750
v 0.000000 0.218750 -0.218750
v 0.125000 0.218750 -0.218750
vt 0.000000 1.000000
vt 0.000000 0.781250
vt 1.000000 0.781250
vt 1.000000 1.000000
vt 0.000000 0.500000
vt 1.000000 0.500000
vt 1.000000 0.281250
vt 0.000000 0.281250
vt 0.406250 0.968750
vt 0.406250 0.843750
vt 0.625000 0.843750
vt 0.625000 0.968750
vt 0.312500 0.687500
vt 0.531250 0.687500
vt 0.531250 0.562500
vt 0.312500 0.562500
vt 0.000000 0.593750
vt 1.000000 0.593750
vt 1.000000 0.718750
vt 0.000000 0.718750
vt 0.218750 0.500000
vt 0.218750 0.375000
vt 1.000000 0.375000
vt 1.000000 0.500000
vt 0.625000 0.843750
vt 0.625000 0.968750
vt 0.718750 0.968750
vt 0.718750 0.843750
vt 0.218750 0.187500
vt 1.000000 0.187500
vt 1.000000 0.093750
vt 0.000000 0.093750
vt 0.000000 0.500000
vt 0.000000 0.375000
vt 0.250000 0.375000
vt 0.250000 0.500000
vt 0.000000 0.718750
vt 0.781250 0.718750
vt 1.000000 0.625000
vt 0.000000 0.625000
vn -1.0000 0.0000 0.0000
vn 1.0000 0.0000 0.0000
vn 0.0000 1.0000 0.0000
vn 0.0000 -1.0000 -0.0000
vn 0.0000 0.0000 -1.0000
vn 0.0000 -0.0000 1.0000
vn 0.0000 -0.3939 0.9191
usemtl m_0e990f1f-ae19-6aa6-2a1f-1450e473f13b
s 1
f 81/193/38 82/194/38 83/195/38 84/196/38
f 85/197/39 86/198/39 87/199/39 88/200/39
f 86/201/40 82/202/40 81/203/40 87/204/40
f 84/205/41 83/206/41 85/207/41 88/208/41
f 83/209/42 82/210/42 86/211/42 85/212/42
f 89/213/43 90/214/43 91/215/43 92/216/43
f 90/217/40 89/218/40 87/219/40 81/220/40
f 91/221/38 90/222/38 81/223/38 84/224/38
f 92/225/44 91/226/44 84/227/44 88/228/44
f 89/229/39 92/230/39 88/231/39 87/232/39
o foot_leg_left
v 0.875000 1.000000 -0.312500
v 0.875000 1.000000 -0.531250
v 0.875000 0.000000 -0.531250
v 0.875000 0.000000 -0.312500
v 1.000000 0.000000 -0.531250
v 1.000000 1.000000 -0.531250
v 1.000000 1.000000 -0.312500
v 1.000000 0.000000 -0.312500
v 1.000000 1.000000 -0.218750
v 0.875000 1.000000 -0.218750
v 0.875000 0.218750 -0.218750
v 1.000000 0.218750 -0.218750
vt 0.000000 1.000000
vt 0.000000 0.781250
vt 1.000000 0.781250
vt 1.000000 1.000000
vt 0.000000 0.500000
vt 1.000000 0.500000
vt 1.000000 0.281250
vt 0.000000 0.281250
vt 0.406250 0.968750
vt 0.406250 0.843750
vt 0.625000 0.843750
vt 0.625000 0.968750
vt 0.312500 0.687500
vt 0.531250 0.687500
vt 0.531250 0.562500
vt 0.312500 0.562500
vt 0.000000 0.093750
vt 1.000000 0.093750
vt 1.000000 0.218750
vt 0.000000 0.218750
vt 0.218750 0.031250
vt 0.218750 0.156250
vt 1.000000 0.156250
vt 1.000000 0.031250
vt 0.625000 0.843750
vt 0.625000 0.968750
vt 0.718750 0.968750
vt 0.718750 0.843750
vt 0.218750 0.187500
vt 1.000000 0.187500
vt 1.000000 0.093750
vt 0.000000 0.093750
vt 0.000000 0.031250
vt 0.000000 0.156250
vt 0.250000 0.156250
vt 0.250000 0.031250
vt 0.000000 0.656250
vt 0.781250 0.656250
vt 1.000000 0.562500
vt 0.000000 0.562500
vn -1.0000 -0.0000 0.0000
vn 1.0000 0.0000 0.0000
vn 0.0000 1.0000 0.0000
vn 0.0000 -1.0000 -0.0000
vn 0.0000 0.0000 -1.0000
vn 0.0000 -0.0000 1.0000
vn 0.0000 -0.3939 0.9191
usemtl m_0e990f1f-ae19-6aa6-2a1f-1450e473f13b
s 1
f 93/233/45 94/234/45 95/235/45 96/236/45
f 97/237/46 98/238/46 99/239/46 100/240/46
f 98/241/47 94/242/47 93/243/47 99/244/47
f 96/245/48 95/246/48 97/247/48 100/248/48
f 95/249/49 94/250/49 98/251/49 97/252/49
f 101/253/50 102/254/50 103/255/50 104/256/50
f 102/257/47 101/258/47 99/259/47 93/260/47
f 103/261/45 102/262/45 93/263/45 96/264/45
f 104/265/51 103/266/51 96/267/51 100/268/51
f 101/269/46 104/270/46 100/271/46 99/272/46
o foot_side_right
v 0.906250 0.718750 0.500000
v 0.906250 0.718750 0.125000
v 0.906250 0.218750 0.125000
v 0.906250 0.218750 0.500000
v 0.968750 0.218750 0.125000
v 0.968750 0.718750 0.125000
v 0.968750 0.718750 0.500000
v 0.968750 0.218750 0.500000
v 0.906250 0.812500 -0.093750
v 0.906250 0.218750 -0.093750
v 0.968750 0.812500 -0.093750
v 0.968750 0.218750 -0.093750
v 0.906250 0.937500 -0.218750
v 0.906250 0.218750 -0.218750
v 0.968750 0.937500 -0.218750
v 0.968750 0.218750 -0.218750
vt 0.656250 0.500000
vt 0.281250 0.500000
vt 0.281250 0.000000
vt 0.656250 0.000000
vt 0.656250 0.000000
vt 0.656250 0.500000
vt 0.281250 0.500000
vt 0.281250 0.000000
vt 0.875000 0.593750
vt 0.875000 0.000000
vt 0.656250 0.000000
vt 0.656250 0.500000
vt 0.875000 0.000000
vt 0.875000 0.593750
vt 1.000000 0.718750
vt 1.000000 0.000000
vt 1.000000 0.000000
vt 1.000000 0.718750
vt 0.375000 0.906250
vt 0.375000 0.968750
vt 0.000000 0.968750
vt 0.000000 0.906250
vt 0.500000 0.375000
vt 0.156250 0.375000
vt 0.156250 0.437500
vt 0.500000 0.437500
vt 0.625000 0.906250
vt 0.625000 0.968750
vt 0.718750 0.375000
vt 0.718750 0.437500
vt 0.500000 0.437500
vt 0.500000 0.375000
vt 0.812500 0.906250
vt 0.812500 0.968750
vt 0.843750 0.375000
vt 0.843750 0.437500
vn -1.0000 0.0000 0.0000
vn 1.0000 0.0000 0.0000
vn 0.0000 1.0000 0.0000
vn 0.0000 -1.0000 -0.0000
vn 0.0000 0.9191 0.3939
vn 0.0000 0.7071 0.7071
usemtl m_f7ac5e93-6ab3-cc45-8da4-4318b02f30db
s 1
f 105/273/52 106/274/52 107/275/52 108/276/52
f 109/277/53 110/278/53 111/279/53 112/280/53
f 113/281/52 114/282/52 107/283/52 106/284/52
f 116/285/53 115/286/53 110/278/53 109/277/53
f 117/287/52 118/288/52 114/282/52 113/281/52
f 120/289/53 119/290/53 115/286/53 116/285/53
usemtl m_0e990f1f-ae19-6aa6-2a1f-1450e473f13b
f 110/291/54 106/292/54 105/293/54 111/294/54
f 108/295/55 107/296/55 109/297/55 112/298/55
f 115/299/56 113/300/56 106/292/56 110/291/56
f 114/301/55 116/302/55 109/303/55 107/304/55
f 119/305/57 117/306/57 113/300/57 115/299/57
f 118/307/55 120/308/55 116/302/55 114/301/55
o foot_side_left
v 0.031250 0.718750 0.500000
v 0.031250 0.718750 0.125000
v 0.031250 0.218750 0.125000
v 0.031250 0.218750 0.500000
v 0.093750 0.218750 0.125000
v 0.093750 0.718750 0.125000
v 0.093750 0.718750 0.500000
v 0.093750 0.218750 0.500000
v 0.031250 0.812500 -0.093750
v 0.031250 0.218750 -0.093750
v 0.093750 0.812500 -0.093750
v 0.093750 0.218750 -0.093750
v 0.031250 0.937500 -0.218750
v 0.031250 0.218750 -0.218750
v 0.093750 0.937500 -0.218750
v 0.093750 0.218750 -0.218750
vt 0.718750 0.500000
vt 0.343750 0.500000
vt 0.343750 0.000000
vt 0.718750 0.000000
vt 0.343750 0.000000
vt 0.343750 0.500000
vt 0.718750 0.500000
vt 0.718750 0.000000
vt 0.125000 0.593750
vt 0.125000 0.000000
vt 0.125000 0.000000
vt 0.125000 0.593750
vt 0.000000 0.718750
vt 0.000000 0.000000
vt 0.000000 0.000000
vt 0.000000 0.718750
vt 0.437500 0.656250
vt 0.437500 0.718750
vt 0.062500 0.718750
vt 0.062500 0.656250
vt 0.343750 0.093750
vt 0.000000 0.093750
vt 0.000000 0.156250
vt 0.343750 0.156250
vt 0.687500 0.656250
vt 0.687500 0.718750
vt 0.562500 0.093750
vt 0.562500 0.156250
vt 0.343750 0.156250
vt 0.343750 0.093750
vt 0.875000 0.656250
vt 0.875000 0.718750
vt 0.687500 0.093750
vt 0.687500 0.156250
vn -1.0000 0.0000 0.0000
vn 1.0000 0.0000 0.0000
vn 0.0000 1.0000 0.0000
vn 0.0000 -1.0000 -0.0000
vn 0.0000 0.9191 0.3939
vn 0.0000 0.7071 0.7071
usemtl m_04359dc1-b222-f4e9-e6e3-7ff0d256e351
s 1
f 121/309/58 122/310/58 123/311/58 124/312/58
f 125/313/59 126/314/59 127/315/59 128/316/59
f 129/317/58 130/318/58 123/311/58 122/310/58
f 132/319/59 131/320/59 126/314/59 125/313/59
f 133/321/58 134/322/58 130/318/58 129/317/58
f 136/323/59 135/324/59 131/320/59 132/319/59
usemtl m_0e990f1f-ae19-6aa6-2a1f-1450e473f13b
f 126/325/60 122/326/60 121/327/60 127/328/60
f 124/329/61 123/330/61 125/331/61 128/332/61
f 131/333/62 129/334/62 122/326/62 126/325/62
f 130/335/61 132/336/61 125/337/61 123/338/61
f 135/339/63 133/340/63 129/334/63 131/333/63
f 134/341/61 136/342/61 132/336/61 130/335/61
o bed_foot
v 0.093750 0.531250 0.500000
v 0.906250 0.531250 0.500000
v 0.906250 0.531250 -0.406250
v 0.093750 0.531250 -0.406250
v 0.093750 0.281250 -0.406250
v 0.906250 0.281250 -0.406250
v 0.906250 0.281250 0.500000
v 0.093750 0.281250 0.500000
vt 0.093750 1.000000
vt 0.906250 1.000000
vt 0.906250 0.093750
vt 0.093750 0.093750
vt 0.093750 0.093750
vt 0.906250 0.093750
vt 0.906250 1.000000
vt 0.093750 1.000000
vn 0.0000 1.0000 0.0000
vn 0.0000 -1.0000 -0.0000
usemtl m_5c247d06-996c-4692-8ac3-035d7fa90fe4
s 1
f 137/343/64 138/344/64 139/345/64 140/346/64
usemtl m_0e990f1f-ae19-6aa6-2a1f-1450e473f13b
f 141/347/65 142/348/65 143/349/65 144/350/65
o foot_board
v 0.875000 0.187500 -0.500000
v 0.125000 0.187500 -0.500000
v 0.125000 0.937500 -0.500000
v 0.875000 0.937500 -0.500000
v 0.125000 0.187500 -0.406250
v 0.875000 0.187500 -0.406250
v 0.875000 0.937500 -0.406250
v 0.125000 0.937500 -0.406250
vt 0.250000 0.250000
vt 1.000000 0.250000
vt 1.000000 1.000000
vt 0.250000 1.000000
vt 0.000000 0.000000
vt 0.750000 0.000000
vt 0.750000 0.750000
vt 0.000000 0.750000
vt 1.000000 0.437500
vt 0.250000 0.437500
vt 0.250000 0.343750
vt 1.000000 0.343750
vt 0.812500 0.937500
vt 0.062500 0.937500
vt 0.062500 0.843750
vt 0.812500 0.843750
vn 0.0000 0.0000 -1.0000
vn 0.0000 -0.0000 1.0000
vn 0.0000 1.0000 0.0000
vn 0.0000 -1.0000 -0.0000
usemtl m_0e990f1f-ae19-6aa6-2a1f-1450e473f13b
s 1
f 145/351/66 146/352/66 147/353/66 148/354/66
f 149/355/67 150/356/67 151/357/67 152/358/67
f 152/359/68 151/360/68 148/361/68 147/362/68
f 146/363/69 145/364/69 150/365/69 149/366/69
