# Blender v3.2.2 OBJ File: ''
# www.blender.org
mtllib old_basket.mtl
o tube
v 0.668274 0.562500 0.906250
v 0.906250 0.562500 0.668274
v 0.906250 0.687500 0.668274
v 0.668274 0.687500 0.906250
v 0.642386 0.687500 0.843750
v 0.843750 0.687500 0.642386
v 0.843750 0.562500 0.642386
v 0.642386 0.562500 0.843750
v 0.906250 0.562500 0.331726
v 0.906250 0.687500 0.331726
v 0.843750 0.687500 0.357614
v 0.843750 0.562500 0.357614
v 0.668274 0.562500 0.093750
v 0.668274 0.687500 0.093750
v 0.642386 0.687500 0.156250
v 0.642386 0.562500 0.156250
v 0.331726 0.562500 0.093750
v 0.331726 0.687500 0.093750
v 0.357614 0.687500 0.156250
v 0.357614 0.562500 0.156250
v 0.093750 0.562500 0.331726
v 0.093750 0.687500 0.331726
v 0.156250 0.687500 0.357614
v 0.156250 0.562500 0.357614
v 0.093750 0.562500 0.668274
v 0.093750 0.687500 0.668274
v 0.156250 0.687500 0.642386
v 0.156250 0.562500 0.642386
v 0.331726 0.562500 0.906250
v 0.331726 0.687500 0.906250
v 0.357614 0.687500 0.843750
v 0.357614 0.562500 0.843750
vt 0.093750 0.875000
vt 0.437500 0.875000
vt 0.437500 1.000000
vt 0.093750 1.000000
vt 0.468750 1.000000
vt 0.187500 1.000000
vt 0.187500 0.875000
vt 0.468750 0.875000
vt 0.473559 0.937500
vt 0.182691 0.937500
vt 0.156250 0.875000
vt 0.500000 0.875000
vt 0.500000 1.000000
vt 0.156250 1.000000
vt 0.182691 0.937500
vt 0.473559 0.937500
vt 0.531250 0.875000
vt 0.875000 0.875000
vt 0.875000 1.000000
vt 0.531250 1.000000
vt 0.781250 1.000000
vt 0.500000 1.000000
vt 0.500000 0.875000
vt 0.781250 0.875000
vt 0.786059 0.937500
vt 0.495191 0.937500
vt 0.468750 0.875000
vt 0.812500 0.875000
vt 0.812500 1.000000
vt 0.468750 1.000000
vt 0.495191 0.937500
vt 0.786059 0.937500
vt 0.093750 0.875000
vt 0.437500 0.875000
vt 0.437500 1.000000
vt 0.093750 1.000000
vt 0.468750 1.000000
vt 0.187500 1.000000
vt 0.187500 0.875000
vt 0.468750 0.875000
vt 0.473559 0.937500
vt 0.182691 0.937500
vt 0.156250 0.875000
vt 0.500000 0.875000
vt 0.500000 1.000000
vt 0.156250 1.000000
vt 0.182691 0.937500
vt 0.473559 0.937500
vt 0.531250 0.875000
vt 0.875000 0.875000
vt 0.875000 1.000000
vt 0.531250 1.000000
vt 0.781250 1.000000
vt 0.500000 1.000000
vt 0.500000 0.875000
vt 0.781250 0.875000
vt 0.786059 0.937500
vt 0.495191 0.937500
vt 0.468750 0.875000
vt 0.812500 0.875000
vt 0.812500 1.000000
vt 0.468750 1.000000
vt 0.495191 0.937500
vt 0.786059 0.937500
vt 0.125000 0.875000
vt 0.468750 0.875000
vt 0.468750 1.000000
vt 0.125000 1.000000
vt 0.437500 1.000000
vt 0.156250 1.000000
vt 0.156250 0.875000
vt 0.437500 0.875000
vt 0.442309 0.937500
vt 0.151441 0.937500
vt 0.125000 0.875000
vt 0.125000 1.000000
vt 0.151441 0.937500
vt 0.442309 0.937500
vt 0.812500 0.875000
vt 0.812500 1.000000
vt 0.843750 1.000000
vt 0.562500 1.000000
vt 0.562500 0.875000
vt 0.843750 0.875000
vt 0.848559 0.937500
vt 0.557691 0.937500
vt 0.531250 0.875000
vt 0.875000 0.875000
vt 0.875000 1.000000
vt 0.531250 1.000000
vt 0.557691 0.937500
vt 0.848559 0.937500
vt 0.156250 0.875000
vt 0.500000 0.875000
vt 0.500000 1.000000
vt 0.156250 1.000000
vt 0.406250 1.000000
vt 0.125000 1.000000
vt 0.125000 0.875000
vt 0.406250 0.875000
vt 0.411059 0.937500
vt 0.120191 0.937500
vt 0.093750 0.875000
vt 0.437500 0.875000
vt 0.437500 1.000000
vt 0.093750 1.000000
vt 0.120191 0.937500
vt 0.411059 0.937500
vt 0.843750 0.875000
vt 0.843750 1.000000
vt 0.812500 1.000000
vt 0.531250 1.000000
vt 0.531250 0.875000
vt 0.812500 0.875000
vt 0.817309 0.937500
vt 0.526441 0.937500
vt 0.843750 0.875000
vt 0.843750 1.000000
vt 0.526441 0.937500
vt 0.817309 0.937500
vn 0.7071 0.0000 0.7071
vn -0.7071 0.0000 -0.7071
vn 0.0000 -1.0000 0.0000
vn 0.0000 1.0000 -0.0000
vn 1.0000 0.0000 0.0000
vn -1.0000 0.0000 0.0000
vn 0.7071 0.0000 -0.7071
vn -0.7071 -0.0000 0.7071
vn 0.0000 0.0000 -1.0000
vn 0.0000 -0.0000 1.0000
usemtl m_f00fe5bb-fa3e-4f12-5232-cc8b4df0d5fc
s 1
f 1/1/1 2/2/1 3/3/1 4/4/1
f 5/5/2 6/6/2 7/7/2 8/8/2
f 8/9/3 7/10/3 2/11/3 1/12/3
f 4/13/4 3/14/4 6/15/4 5/16/4
f 2/17/5 9/18/5 10/19/5 3/20/5
f 6/21/6 11/22/6 12/23/6 7/24/6
f 7/25/3 12/26/3 9/27/3 2/28/3
f 3/29/4 10/30/4 11/31/4 6/32/4
f 9/33/7 13/34/7 14/35/7 10/36/7
f 11/37/8 15/38/8 16/39/8 12/40/8
f 12/41/3 16/42/3 13/43/3 9/44/3
f 10/45/4 14/46/4 15/47/4 11/48/4
f 13/49/9 17/50/9 18/51/9 14/52/9
f 15/53/10 19/54/10 20/55/10 16/56/10
f 16/57/3 20/58/3 17/59/3 13/60/3
f 14/61/4 18/62/4 19/63/4 15/64/4
f 17/65/2 21/66/2 22/67/2 18/68/2
f 19/69/1 23/70/1 24/71/1 20/72/1
f 20/73/3 24/74/3 21/75/3 17/59/3
f 18/62/4 22/76/4 23/77/4 19/78/4
f 21/66/6 25/79/6 26/80/6 22/67/6
f 23/81/5 27/82/5 28/83/5 24/84/5
f 24/85/3 28/86/3 25/87/3 21/88/3
f 22/89/4 26/90/4 27/91/4 23/92/4
f 25/93/8 29/94/8 30/95/8 26/96/8
f 27/97/7 31/98/7 32/99/7 28/100/7
f 28/101/3 32/102/3 29/103/3 25/104/3
f 26/105/4 30/106/4 31/107/4 27/108/4
f 29/94/10 1/109/10 4/110/10 30/95/10
f 31/111/9 5/112/9 8/113/9 32/114/9
f 32/115/3 8/116/3 1/12/3 29/117/3
f 30/118/4 4/13/4 5/119/4 31/120/4
o tube.000
v 0.655330 0.093750 0.875000
v 0.875000 0.093750 0.655330
v 0.875000 0.562500 0.655330
v 0.655330 0.562500 0.875000
v 0.629442 0.562500 0.812500
v 0.812500 0.562500 0.629442
v 0.812500 0.093750 0.629442
v 0.629442 0.093750 0.812500
v 0.875000 0.093750 0.344670
v 0.875000 0.562500 0.344670
v 0.812500 0.562500 0.370558
v 0.812500 0.093750 0.370558
v 0.655330 0.093750 0.125000
v 0.655330 0.562500 0.125000
v 0.629442 0.562500 0.187500
v 0.629442 0.093750 0.187500
v 0.344670 0.093750 0.125000
v 0.344670 0.562500 0.125000
v 0.370558 0.562500 0.187500
v 0.370558 0.093750 0.187500
v 0.125000 0.093750 0.344670
v 0.125000 0.562500 0.344670
v 0.187500 0.562500 0.370558
v 0.187500 0.093750 0.370558
v 0.125000 0.093750 0.655330
v 0.125000 0.562500 0.655330
v 0.187500 0.562500 0.629442
v 0.187500 0.093750 0.629442
v 0.344670 0.093750 0.875000
v 0.344670 0.562500 0.875000
v 0.370558 0.562500 0.812500
v 0.370558 0.093750 0.812500
vt 0.406250 0.406250
vt 0.718750 0.406250
vt 0.718750 0.875000
vt 0.406250 0.875000
vt 0.718750 0.843750
vt 0.468750 0.843750
vt 0.468750 0.375000
vt 0.718750 0.375000
vt 0.401041 0.937500
vt 0.661459 0.937500
vt 0.687500 1.000000
vt 0.375000 1.000000
vt 0.375000 0.875000
vt 0.687500 0.875000
vt 0.661459 0.937500
vt 0.401041 0.937500
vt 0.218750 0.406250
vt 0.531250 0.406250
vt 0.531250 0.875000
vt 0.218750 0.875000
vt 0.718750 0.843750
vt 0.468750 0.843750
vt 0.468750 0.375000
vt 0.718750 0.375000
vt 0.401041 0.937500
vt 0.661459 0.937500
vt 0.687500 1.000000
vt 0.375000 1.000000
vt 0.375000 0.875000
vt 0.687500 0.875000
vt 0.661459 0.937500
vt 0.401041 0.937500
vt 0.406250 0.406250
vt 0.718750 0.406250
vt 0.718750 0.875000
vt 0.406250 0.875000
vt 0.718750 0.843750
vt 0.468750 0.843750
vt 0.468750 0.375000
vt 0.718750 0.375000
vt 0.401041 0.937500
vt 0.661459 0.937500
vt 0.687500 1.000000
vt 0.375000 1.000000
vt 0.375000 0.875000
vt 0.687500 0.875000
vt 0.661459 0.937500
vt 0.401041 0.937500
vt 0.218750 0.406250
vt 0.531250 0.406250
vt 0.531250 0.875000
vt 0.218750 0.875000
vt 0.718750 0.843750
vt 0.468750 0.843750
vt 0.468750 0.375000
vt 0.718750 0.375000
vt 0.401041 0.937500
vt 0.661459 0.937500
vt 0.687500 1.000000
vt 0.375000 1.000000
vt 0.375000 0.875000
vt 0.687500 0.875000
vt 0.661459 0.937500
vt 0.401041 0.937500
vt 0.437500 0.406250
vt 0.750000 0.406250
vt 0.750000 0.875000
vt 0.437500 0.875000
vt 0.718750 0.843750
vt 0.468750 0.843750
vt 0.468750 0.375000
vt 0.718750 0.375000
vt 0.401041 0.937500
vt 0.661459 0.937500
vt 0.687500 1.000000
vt 0.375000 1.000000
vt 0.375000 0.875000
vt 0.687500 0.875000
vt 0.661459 0.937500
vt 0.401041 0.937500
vt 0.156250 0.406250
vt 0.468750 0.406250
vt 0.468750 0.875000
vt 0.156250 0.875000
vt 0.718750 0.843750
vt 0.468750 0.843750
vt 0.468750 0.375000
vt 0.718750 0.375000
vt 0.401041 0.937500
vt 0.661459 0.937500
vt 0.687500 1.000000
vt 0.375000 1.000000
vt 0.375000 0.875000
vt 0.687500 0.875000
vt 0.661459 0.937500
vt 0.401041 0.937500
vt 0.500000 0.406250
vt 0.812500 0.406250
vt 0.812500 0.875000
vt 0.500000 0.875000
vt 0.718750 0.843750
vt 0.468750 0.843750
vt 0.468750 0.375000
vt 0.718750 0.375000
vt 0.401041 0.937500
vt 0.661459 0.937500
vt 0.687500 1.000000
vt 0.375000 1.000000
vt 0.375000 0.875000
vt 0.687500 0.875000
vt 0.661459 0.937500
vt 0.401041 0.937500
vt 0.187500 0.406250
vt 0.500000 0.406250
vt 0.500000 0.875000
vt 0.187500 0.875000
vt 0.718750 0.843750
vt 0.468750 0.843750
vt 0.468750 0.375000
vt 0.718750 0.375000
vt 0.401041 0.937500
vt 0.661459 0.937500
vt 0.687500 1.000000
vt 0.375000 1.000000
vt 0.375000 0.875000
vt 0.687500 0.875000
vt 0.661459 0.937500
vt 0.401041 0.937500
vn 0.7071 -0.0000 0.7071
vn -0.7071 0.0000 -0.7071
vn 0.0000 -1.0000 -0.0000
vn 0.0000 1.0000 -0.0000
vn 1.0000 -0.0000 0.0000
vn -1.0000 0.0000 0.0000
vn 0.7071 0.0000 -0.7071
vn -0.7071 -0.0000 0.7071
vn 0.0000 0.0000 -1.0000
vn 0.0000 -0.0000 1.0000
usemtl m_f00fe5bb-fa3e-4f12-5232-cc8b4df0d5fc
s 1
f 33/121/11 34/122/11 35/123/11 36/124/11
f 37/125/12 38/126/12 39/127/12 40/128/12
f 40/129/13 39/130/13 34/131/13 33/132/13
f 36/133/14 35/134/14 38/135/14 37/136/14
f 34/137/15 41/138/15 42/139/15 35/140/15
f 38/141/16 43/142/16 44/143/16 39/144/16
f 39/145/13 44/146/13 41/147/13 34/148/13
f 35/149/14 42/150/14 43/151/14 38/152/14
f 41/153/17 45/154/17 46/155/17 42/156/17
f 43/157/18 47/158/18 48/159/18 44/160/18
f 44/161/13 48/162/13 45/163/13 41/164/13
f 42/165/14 46/166/14 47/167/14 43/168/14
f 45/169/19 49/170/19 50/171/19 46/172/19
f 47/173/20 51/174/20 52/175/20 48/176/20
f 48/177/13 52/178/13 49/179/13 45/180/13
f 46/181/14 50/182/14 51/183/14 47/184/14
f 49/185/12 53/186/12 54/187/12 50/188/12
f 51/189/11 55/190/11 56/191/11 52/192/11
f 52/193/13 56/194/13 53/195/13 49/196/13
f 50/197/14 54/198/14 55/199/14 51/200/14
f 53/201/16 57/202/16 58/203/16 54/204/16
f 55/205/15 59/206/15 60/207/15 56/208/15
f 56/209/13 60/210/13 57/211/13 53/212/13
f 54/213/14 58/214/14 59/215/14 55/216/14
f 57/217/18 61/218/18 62/219/18 58/220/18
f 59/221/17 63/222/17 64/223/17 60/224/17
f 60/225/13 64/226/13 61/227/13 57/228/13
f 58/229/14 62/230/14 63/231/14 59/232/14
f 61/233/20 33/234/20 36/235/20 62/236/20
f 63/237/19 37/238/19 40/239/19 64/240/19
f 64/241/13 40/242/13 33/243/13 61/244/13
f 62/245/14 36/246/14 37/247/14 63/248/14
o tube.001
v 0.642386 -0.000000 0.843750
v 0.843750 -0.000000 0.642386
v 0.843750 0.093750 0.642386
v 0.642386 0.093750 0.843750
v 0.616498 0.093750 0.781250
v 0.781250 0.093750 0.616498
v 0.781250 -0.000000 0.616498
v 0.616498 -0.000000 0.781250
v 0.843750 -0.000000 0.357614
v 0.843750 0.093750 0.357614
v 0.781250 0.093750 0.383502
v 0.781250 -0.000000 0.383502
v 0.642386 -0.000000 0.156250
v 0.642386 0.093750 0.156250
v 0.616498 0.093750 0.218750
v 0.616498 -0.000000 0.218750
v 0.357614 -0.000000 0.156250
v 0.357614 0.093750 0.156250
v 0.383502 0.093750 0.218750
v 0.383502 -0.000000 0.218750
v 0.156250 -0.000000 0.357614
v 0.156250 0.093750 0.357614
v 0.218750 0.093750 0.383502
v 0.218750 -0.000000 0.383502
v 0.156250 -0.000000 0.642386
v 0.156250 0.093750 0.642386
v 0.218750 0.093750 0.616498
v 0.218750 -0.000000 0.616498
v 0.357614 -0.000000 0.843750
v 0.357614 0.093750 0.843750
v 0.383502 0.093750 0.781250
v 0.383502 -0.000000 0.781250
vt 0.218750 0.000000
vt 0.500000 0.000000
vt 0.500000 0.093750
vt 0.218750 0.093750
vt 0.562500 0.093750
vt 0.343750 0.093750
vt 0.343750 0.000000
vt 0.562500 0.000000
vt 0.369319 0.031251
vt 0.599431 0.031251
vt 0.625000 0.093750
vt 0.343750 0.093750
vt 0.625000 0.062500
vt 0.343750 0.062500
vt 0.369317 0.000000
vt 0.599433 0.000000
vt 0.781250 0.000000
vt 0.781250 0.093750
vt 0.562500 0.093750
vt 0.343750 0.093750
vt 0.343750 0.000000
vt 0.562500 0.000000
vt 0.369319 0.031251
vt 0.599431 0.031251
vt 0.625000 0.093750
vt 0.343750 0.093750
vt 0.625000 0.062500
vt 0.343750 0.062500
vt 0.369317 0.000000
vt 0.599433 0.000000
vt 0.218750 0.000000
vt 0.500000 0.000000
vt 0.500000 0.093750
vt 0.218750 0.093750
vt 0.562500 0.093750
vt 0.343750 0.093750
vt 0.343750 0.000000
vt 0.562500 0.000000
vt 0.369319 0.031251
vt 0.599431 0.031251
vt 0.625000 0.093750
vt 0.343750 0.093750
vt 0.625000 0.062500
vt 0.343750 0.062500
vt 0.369317 0.000000
vt 0.599433 0.000000
vt 0.781250 0.000000
vt 0.781250 0.093750
vt 0.562500 0.093750
vt 0.343750 0.093750
vt 0.343750 0.000000
vt 0.562500 0.000000
vt 0.369319 0.031251
vt 0.599431 0.031251
vt 0.625000 0.093750
vt 0.343750 0.093750
vt 0.625000 0.062500
vt 0.343750 0.062500
vt 0.369317 0.000000
vt 0.599433 0.000000
vt 0.218750 0.000000
vt 0.500000 0.000000
vt 0.500000 0.093750
vt 0.218750 0.093750
vt 0.562500 0.093750
vt 0.343750 0.093750
vt 0.343750 0.000000
vt 0.562500 0.000000
vt 0.369319 0.031251
vt 0.599431 0.031251
vt 0.625000 0.093750
vt 0.343750 0.093750
vt 0.625000 0.062500
vt 0.343750 0.062500
vt 0.369317 0.000000
vt 0.599433 0.000000
vt 0.781250 0.000000
vt 0.781250 0.093750
vt 0.562500 0.093750
vt 0.343750 0.093750
vt 0.343750 0.000000
vt 0.562500 0.000000
vt 0.369319 0.031251
vt 0.599431 0.031251
vt 0.625000 0.093750
vt 0.343750 0.093750
vt 0.625000 0.062500
vt 0.343750 0.062500
vt 0.369317 0.000000
vt 0.599433 0.000000
vt 0.218750 0.000000
vt 0.500000 0.000000
vt 0.500000 0.093750
vt 0.218750 0.093750
vt 0.562500 0.093750
vt 0.343750 0.093750
vt 0.343750 0.000000
vt 0.562500 0.000000
vt 0.369319 0.031251
vt 0.599431 0.031251
vt 0.625000 0.093750
vt 0.343750 0.093750
vt 0.625000 0.062500
vt 0.343750 0.062500
vt 0.369317 0.000000
vt 0.599433 0.000000
vt 0.781250 0.000000
vt 0.781250 0.093750
vt 0.562500 0.093750
vt 0.343750 0.093750
vt 0.343750 0.000000
vt 0.562500 0.000000
vt 0.369319 0.031251
vt 0.599431 0.031251
vt 0.625000 0.093750
vt 0.343750 0.093750
vt 0.625000 0.062500
vt 0.343750 0.062500
vt 0.369317 0.000000
vt 0.599433 0.000000
vn 0.7071 0.0000 0.7071
vn -0.7071 0.0000 -0.7071
vn 0.0000 -1.0000 -0.0000
vn 0.0000 1.0000 0.0000
vn 1.0000 -0.0000 0.0000
vn -1.0000 0.0000 0.0000
vn 0.7071 0.0000 -0.7071
vn -0.7071 -0.0000 0.7071
vn 0.0000 0.0000 -1.0000
vn 0.0000 -0.0000 1.0000
usemtl m_f00fe5bb-fa3e-4f12-5232-cc8b4df0d5fc
s 1
f 65/249/21 66/250/21 67/251/21 68/252/21
f 69/253/22 70/254/22 71/255/22 72/256/22
f 72/257/23 71/258/23 66/259/23 65/260/23
f 68/261/24 67/262/24 70/263/24 69/264/24
f 66/250/25 73/265/25 74/266/25 67/251/25
f 70/267/26 75/268/26 76/269/26 71/270/26
f 71/271/23 76/272/23 73/273/23 66/274/23
f 67/275/24 74/276/24 75/277/24 70/278/24
f 73/279/27 77/280/27 78/281/27 74/282/27
f 75/283/28 79/284/28 80/285/28 76/286/28
f 76/287/23 80/288/23 77/289/23 73/290/23
f 74/291/24 78/292/24 79/293/24 75/294/24
f 77/280/29 81/295/29 82/296/29 78/281/29
f 79/297/30 83/298/30 84/299/30 80/300/30
f 80/301/23 84/302/23 81/303/23 77/304/23
f 78/305/24 82/306/24 83/307/24 79/308/24
f 81/309/22 85/310/22 86/311/22 82/312/22
f 83/313/21 87/314/21 88/315/21 84/316/21
f 84/317/23 88/318/23 85/319/23 81/320/23
f 82/321/24 86/322/24 87/323/24 83/324/24
f 85/310/26 89/325/26 90/326/26 86/311/26
f 87/327/25 91/328/25 92/329/25 88/330/25
f 88/331/23 92/332/23 89/333/23 85/334/23
f 86/335/24 90/336/24 91/337/24 87/338/24
f 89/339/28 93/340/28 94/341/28 90/342/28
f 91/343/27 95/344/27 96/345/27 92/346/27
f 92/347/23 96/348/23 93/349/23 89/350/23
f 90/351/24 94/352/24 95/353/24 91/354/24
f 93/340/30 65/355/30 68/356/30 94/341/30
f 95/357/29 69/358/29 72/359/29 96/360/29
f 96/361/23 72/362/23 65/363/23 93/364/23
f 94/365/24 68/366/24 69/367/24 95/368/24
o plane
v 0.187500 0.006250 0.812500
v 0.187500 0.006250 0.187500
v 0.812500 0.006250 0.187500
v 0.812500 0.006250 0.812500
v 0.812500 0.006250 0.812500
v 0.812500 0.006250 0.187500
v 0.187500 0.006250 0.187500
v 0.187500 0.006250 0.812500
vt 0.906250 0.093750
vt 0.906250 0.718750
vt 0.281250 0.718750
vt 0.281250 0.093750
vt 0.906250 0.093750
vt 0.906250 0.718750
vt 0.281250 0.718750
vt 0.281250 0.093750
vn 0.0000 -1.0000 -0.0000
vn 0.0000 1.0000 0.0000
usemtl m_cf830d14-c31a-7666-eb20-05eef59dcdd7
s 1
f 97/369/31 98/370/31 99/371/31 100/372/31
f 101/373/32 102/374/32 103/375/32 104/376/32
o Element
v 0.676777 0.437500 0.234835
v 0.500000 0.437500 0.411612
v 0.500000 0.687500 0.411612
v 0.676777 0.687500 0.234835
v 0.853553 0.437500 0.411612
v 0.853553 0.687500 0.411612
v 0.676777 0.437500 0.588388
v 0.676777 0.687500 0.588388
vt 0.000000 0.000000
vt 0.250000 0.000000
vt 0.250000 0.250000
vt 0.000000 0.250000
vt 0.000000 0.000000
vt 0.250000 0.000000
vt 0.250000 0.250000
vt 0.000000 0.250000
vt 0.000000 0.000000
vt 0.250000 0.000000
vt 0.250000 0.250000
vt 0.000000 0.250000
vt 0.000000 0.000000
vt 0.250000 0.000000
vt 0.250000 0.250000
vt 0.000000 0.250000
vt 0.250000 0.500000
vt 0.000000 0.500000
vn -0.7071 0.0000 -0.7071
vn 0.7071 0.0000 -0.7071
vn 0.7071 0.0000 0.7071
vn -0.7071 -0.0000 0.7071
vn 0.0000 1.0000 0.0000
usemtl m_bed1921f-1e9c-1eea-d399-280f9650e5ff
s 1
f 105/377/33 106/378/33 107/379/33 108/380/33
f 109/381/34 105/382/34 108/383/34 110/384/34
f 111/385/35 109/386/35 110/387/35 112/388/35
f 106/389/36 111/390/36 112/391/36 107/392/36
f 112/388/37 110/387/37 108/393/37 107/394/37
o Element.000
v 0.793750 0.557232 0.719832
v 0.793750 0.461562 0.488862
v 0.793750 0.519304 0.464944
v 0.793750 0.614975 0.695914
v 0.543750 0.557232 0.719832
v 0.543750 0.614975 0.695914
v 0.543750 0.519304 0.464944
vt 0.000000 0.187500
vt 0.250000 0.187500
vt 0.250000 0.250000
vt 0.000000 0.250000
vt 0.000000 0.187500
vt 0.250000 0.187500
vt 0.250000 0.250000
vt 0.000000 0.250000
vt 0.250000 0.500000
vt 0.000000 0.500000
vn 1.0000 0.0000 0.0000
vn 0.0000 0.3827 0.9239
vn 0.0000 0.9239 -0.3827
usemtl m_b0889d2c-6520-326f-899b-2b232f3b572b
s 1
f 113/395/38 114/396/38 115/397/38 116/398/38
f 117/399/39 113/400/39 116/401/39 118/402/39
f 118/402/40 116/401/40 115/403/40 119/404/40
o Element.001
v 0.564337 0.375000 0.541000
v 0.333368 0.375000 0.636671
v 0.333368 0.625000 0.636671
v 0.564337 0.625000 0.541000
v 0.660008 0.375000 0.771970
v 0.660008 0.625000 0.771970
v 0.429038 0.375000 0.867641
v 0.429038 0.625000 0.867641
vt 0.000000 0.000000
vt 0.250000 0.000000
vt 0.250000 0.250000
vt 0.000000 0.250000
vt 0.000000 0.000000
vt 0.250000 0.000000
vt 0.250000 0.250000
vt 0.000000 0.250000
vt 0.000000 0.000000
vt 0.250000 0.000000
vt 0.250000 0.250000
vt 0.000000 0.250000
vt 0.000000 0.000000
vt 0.250000 0.000000
vt 0.250000 0.250000
vt 0.000000 0.250000
vt 0.000000 0.218750
vt 0.250000 0.218750
vt 0.250000 0.468750
vt 0.000000 0.468750
vn -0.3827 0.0000 -0.9239
vn 0.9239 0.0000 -0.3827
vn 0.3827 -0.0000 0.9239
vn -0.9239 0.0000 0.3827
vn -0.0000 1.0000 0.0000
usemtl m_b0889d2c-6520-326f-899b-2b232f3b572b
s 1
f 120/405/41 121/406/41 122/407/41 123/408/41
f 124/409/42 120/410/42 123/411/42 125/412/42
f 126/413/43 124/414/43 125/415/43 127/416/43
f 121/417/44 126/418/44 127/419/44 122/420/44
f 127/421/45 125/422/45 123/423/45 122/424/45
o Element.002
v 0.418750 0.499660 0.337500
v 0.168750 0.499660 0.337500
v 0.168750 0.730630 0.433171
v 0.418750 0.730630 0.433171
v 0.418750 0.403989 0.568470
v 0.418750 0.634959 0.664141
v 0.168750 0.403989 0.568470
v 0.168750 0.634959 0.664141
vt 0.000000 0.000000
vt 0.250000 0.000000
vt 0.250000 0.250000
vt 0.000000 0.250000
vt 0.000000 0.000000
vt 0.250000 0.000000
vt 0.250000 0.250000
vt 0.000000 0.250000
vt 0.000000 0.000000
vt 0.250000 0.000000
vt 0.250000 0.250000
vt 0.000000 0.250000
vt 0.000000 0.000000
vt 0.250000 0.000000
vt 0.250000 0.250000
vt 0.000000 0.250000
vt 0.250000 0.500000
vt 0.000000 0.500000
vn 0.0000 0.3827 -0.9239
vn 1.0000 0.0000 0.0000
vn 0.0000 -0.3827 0.9239
vn -1.0000 0.0000 0.0000
vn 0.0000 0.9239 0.3827
usemtl m_bed1921f-1e9c-1eea-d399-280f9650e5ff
s 1
f 128/425/46 129/426/46 130/427/46 131/428/46
f 132/429/47 128/430/47 131/431/47 133/432/47
f 134/433/48 132/434/48 133/435/48 135/436/48
f 129/437/49 134/438/49 135/439/49 130/440/49
f 135/436/50 133/435/50 131/441/50 130/442/50
o Element.003
v 0.598162 0.540660 0.193750
v 0.367192 0.444989 0.193750
v 0.271521 0.675959 0.193750
v 0.502491 0.771630 0.193750
v 0.598162 0.540660 0.443750
v 0.502491 0.771630 0.443750
v 0.367192 0.444989 0.443750
v 0.271521 0.675959 0.443750
vt 0.000000 0.000000
vt 0.250000 0.000000
vt 0.250000 0.250000
vt 0.000000 0.250000
vt 0.000000 0.000000
vt 0.250000 0.000000
vt 0.250000 0.250000
vt 0.000000 0.250000
vt 0.000000 0.000000
vt 0.250000 0.000000
vt 0.250000 0.250000
vt 0.000000 0.250000
vt 0.000000 0.000000
vt 0.250000 0.000000
vt 0.250000 0.250000
vt 0.000000 0.250000
vt 0.000000 0.500000
vt 0.250000 0.500000
vn -0.0000 0.0000 -1.0000
vn 0.9239 0.3827 0.0000
vn 0.0000 -0.0000 1.0000
vn -0.9239 -0.3827 0.0000
vn -0.3827 0.9239 0.0000
usemtl m_b0889d2c-6520-326f-899b-2b232f3b572b
s 1
f 136/443/51 137/444/51 138/445/51 139/446/51
f 140/447/52 136/448/52 139/449/52 141/450/52
f 142/451/53 140/452/53 141/453/53 143/454/53
f 137/455/54 142/456/54 143/457/54 138/458/54
f 143/457/55 141/450/55 139/459/55 138/460/55
o Element.004
v 0.187500 0.562112 0.812500
v 0.812500 0.562112 0.812500
v 0.812500 0.562112 0.187500
v 0.187500 0.562112 0.187500
v 0.187500 0.562112 0.187500
v 0.812500 0.562112 0.187500
v 0.812500 0.562112 0.812500
v 0.187500 0.562112 0.812500
vt 0.187500 0.187500
vt 0.812500 0.187500
vt 0.812500 0.812500
vt 0.187500 0.812500
vt 0.187500 0.187500
vt 0.812500 0.187500
vt 0.812500 0.812500
vt 0.187500 0.812500
vn 0.0000 1.0000 0.0000
vn 0.0000 -1.0000 -0.0000
usemtl m_54ef188a-de7a-1b2f-1537-0138a4498f29
s 1
f 144/461/56 145/462/56 146/463/56 147/464/56
f 148/465/57 149/466/57 150/467/57 151/468/57
o Element.005
v 0.593750 0.690035 0.159705
v 0.406250 0.690035 0.159705
v 0.406250 0.822617 0.027122
v 0.593750 0.822617 0.027122
v 0.406250 0.690079 0.159749
v 0.593750 0.690079 0.159749
v 0.593750 0.822662 0.027167
v 0.406250 0.822662 0.027167
vt 0.093750 0.093750
vt 0.281250 0.093750
vt 0.281250 0.250000
vt 0.093750 0.250000
vt 0.093750 0.093750
vt 0.281250 0.093750
vt 0.281250 0.250000
vt 0.093750 0.250000
vn 0.0000 -0.7071 -0.7071
vn 0.0000 0.7071 0.7071
usemtl m_cf830d14-c31a-7666-eb20-05eef59dcdd7
s 1
f 152/469/58 153/470/58 154/471/58 155/472/58
f 156/473/59 157/474/59 158/475/59 159/476/59
o Element.006
v 0.593750 0.671516 0.097473
v 0.406250 0.671516 0.097473
v 0.406250 0.815872 0.037679
v 0.593750 0.815872 0.037679
v 0.406250 0.671539 0.097531
v 0.593750 0.671539 0.097531
v 0.593750 0.815896 0.037737
v 0.406250 0.815896 0.037737
vt 0.093750 0.093750
vt 0.281250 0.093750
vt 0.281250 0.250000
vt 0.093750 0.250000
vt 0.093750 0.093750
vt 0.281250 0.093750
vt 0.281250 0.250000
vt 0.093750 0.250000
vn 0.0000 -0.3827 -0.9239
vn 0.0000 0.3827 0.9239
usemtl m_cf830d14-c31a-7666-eb20-05eef59dcdd7
s 1
f 160/477/60 161/478/60 162/479/60 163/480/60
f 164/481/61 165/482/61 166/483/61 167/484/61
o Element.007
v 0.593750 0.690035 0.840295
v 0.406250 0.690035 0.840295
v 0.406250 0.822617 0.972878
v 0.593750 0.822617 0.972878
v 0.406250 0.689991 0.840339
v 0.593750 0.689991 0.840339
v 0.593750 0.822573 0.972922
v 0.406250 0.822573 0.972922
vt 0.093750 0.093750
vt 0.281250 0.093750
vt 0.281250 0.250000
vt 0.093750 0.250000
vt 0.093750 0.093750
vt 0.281250 0.093750
vt 0.281250 0.250000
vt 0.093750 0.250000
vn 0.0000 0.7071 -0.7071
vn 0.0000 -0.7071 0.7071
usemtl m_cf830d14-c31a-7666-eb20-05eef59dcdd7
s 1
f 168/485/62 169/486/62 170/487/62 171/488/62
f 172/489/63 173/490/63 174/491/63 175/492/63
o Element.008
v 0.593750 0.683064 0.907310
v 0.406250 0.683064 0.907310
v 0.406250 0.827420 0.967105
v 0.593750 0.827420 0.967105
v 0.406250 0.683040 0.907368
v 0.593750 0.683040 0.907368
v 0.593750 0.827396 0.967162
v 0.406250 0.827396 0.967162
vt 0.093750 0.093750
vt 0.281250 0.093750
vt 0.281250 0.250000
vt 0.093750 0.250000
vt 0.093750 0.093750
vt 0.281250 0.093750
vt 0.281250 0.250000
vt 0.093750 0.250000
vn 0.0000 0.3827 -0.9239
vn 0.0000 -0.3827 0.9239
usemtl m_cf830d14-c31a-7666-eb20-05eef59dcdd7
s 1
f 176/493/64 177/494/64 178/495/64 179/496/64
f 180/497/65 181/498/65 182/499/65 183/500/65
