# Blender 4.2.2 LTS
# www.blender.org
mtllib roman_waterwheel.mtl
o cube
v 1.125000 0.721875 1.125000
v 1.125000 0.721875 -0.125000
v 1.125000 0.721875 1.125000
v 1.125000 0.721875 -0.125000
v -0.125000 0.721875 -0.125000
v -0.125000 0.721875 1.125000
v -0.125000 0.721875 -0.125000
v -0.125000 0.721875 1.125000
vn -0.0000 1.0000 -0.0000
vn -0.0000 -1.0000 -0.0000
vt 0.000000 0.375000
vt 0.625000 0.375000
vt 0.625000 1.000000
vt 0.000000 1.000000
s 0
usemtl m_93b7f672-7ead-db95-2143-eec25d129167
f 6/1/1 1/2/1 2/3/1 5/4/1
f 7/1/2 4/2/2 3/3/2 8/4/2
o cube.001
v 1.125000 0.278125 1.125000
v 1.125000 0.278125 -0.125000
v 1.125000 0.278125 1.125000
v 1.125000 0.278125 -0.125000
v -0.125000 0.278125 -0.125000
v -0.125000 0.278125 1.125000
v -0.125000 0.278125 -0.125000
v -0.125000 0.278125 1.125000
vn -0.0000 1.0000 -0.0000
vn -0.0000 -1.0000 -0.0000
vt 0.000000 0.375000
vt 0.625000 0.375000
vt 0.625000 1.000000
vt 0.000000 1.000000
s 0
usemtl m_93b7f672-7ead-db95-2143-eec25d129167
f 14/5/3 9/6/3 10/7/3 13/8/3
f 15/5/4 12/6/4 11/7/4 16/8/4
o cube.002
v 1.734375 0.718750 0.390625
v -0.734375 0.718750 0.390625
v 1.734375 0.281250 0.390625
v -0.734375 0.281250 0.390625
v -0.734375 0.718750 0.609375
v 1.734375 0.718750 0.609375
v -0.734375 0.281250 0.609375
v 1.734375 0.281250 0.609375
vn -0.0000 -0.0000 -1.0000
vn -0.0000 -0.0000 1.0000
vn -0.0000 1.0000 -0.0000
vn -0.0000 -1.0000 -0.0000
vt 0.000000 0.890625
vt 0.617188 0.890625
vt 0.617188 1.000000
vt 0.000000 1.000000
vt 0.000000 0.382812
vt 0.054688 0.382812
vt 0.054688 1.000000
s 0
usemtl m_a177b58b-b666-24af-20f8-b71e99b14f4e
f 19/9/5 20/10/5 18/11/5 17/12/5
f 23/9/6 24/10/6 22/11/6 21/12/6
f 22/13/7 17/14/7 18/15/7 21/12/7
f 23/13/8 20/14/8 19/15/8 24/12/8
o cube.003
v 0.609375 0.718750 1.734375
v 0.609375 0.718750 -0.734375
v 0.609375 0.281250 1.734375
v 0.609375 0.281250 -0.734375
v 0.390625 0.718750 -0.734375
v 0.390625 0.718750 1.734375
v 0.390625 0.281250 -0.734375
v 0.390625 0.281250 1.734375
vn 1.0000 -0.0000 -0.0000
vn -1.0000 -0.0000 -0.0000
vn -0.0000 1.0000 -0.0000
vn -0.0000 -1.0000 -0.0000
vt 0.000000 0.890625
vt 0.617188 0.890625
vt 0.617188 1.000000
vt 0.000000 1.000000
vt 0.000000 0.382812
vt 0.054688 0.382812
vt 0.054688 1.000000
s 0
usemtl m_a177b58b-b666-24af-20f8-b71e99b14f4e
f 27/16/9 28/17/9 26/18/9 25/19/9
f 31/16/10 32/17/10 30/18/10 29/19/10
f 30/20/11 25/21/11 26/22/11 29/19/11
f 31/20/12 28/21/12 27/22/12 32/19/12
o cube.004
v 1.450175 0.718750 1.295495
v -0.295495 0.718750 -0.450175
v 1.450175 0.281250 1.295495
v -0.295495 0.281250 -0.450175
v -0.450175 0.718750 -0.295495
v 1.295495 0.718750 1.450175
v -0.450175 0.281250 -0.295495
v 1.295495 0.281250 1.450175
vn 0.7071 -0.0000 -0.7071
vn -0.7071 -0.0000 0.7071
vn -0.0000 1.0000 -0.0000
vn -0.0000 -1.0000 -0.0000
vt 0.000000 0.890625
vt 0.617188 0.890625
vt 0.617188 1.000000
vt 0.000000 1.000000
vt 0.000000 0.382812
vt 0.054688 0.382812
vt 0.054688 1.000000
s 0
usemtl m_a177b58b-b666-24af-20f8-b71e99b14f4e
f 35/23/13 36/24/13 34/25/13 33/26/13
f 39/23/14 40/24/14 38/25/14 37/26/14
f 38/27/15 33/28/15 34/29/15 37/26/15
f 39/27/16 36/28/16 35/29/16 40/26/16
o cube.005
v -0.295495 0.718750 1.450175
v 1.450175 0.718750 -0.295495
v -0.295495 0.281250 1.450175
v 1.450175 0.281250 -0.295495
v 1.295495 0.718750 -0.450175
v -0.450175 0.718750 1.295495
v 1.295495 0.281250 -0.450175
v -0.450175 0.281250 1.295495
vn 0.7071 -0.0000 0.7071
vn -0.7071 -0.0000 -0.7071
vn -0.0000 1.0000 -0.0000
vn -0.0000 -1.0000 -0.0000
vt 0.000000 0.890625
vt 0.617188 0.890625
vt 0.617188 1.000000
vt 0.000000 1.000000
vt 0.000000 0.382812
vt 0.054688 0.382812
vt 0.054688 1.000000
s 0
usemtl m_a177b58b-b666-24af-20f8-b71e99b14f4e
f 43/30/17 44/31/17 42/32/17 41/33/17
f 47/30/18 48/31/18 46/32/18 45/33/18
f 46/34/19 41/35/19 42/36/19 45/33/19
f 47/34/20 44/35/20 43/36/20 48/33/20
o cube.006
v 0.903847 0.765625 2.112853
v 0.745280 0.765625 1.705100
v 0.903847 0.234375 2.112853
v 0.745280 0.234375 1.705100
v 0.657905 0.765625 1.739078
v 0.816471 0.765625 2.146832
v 0.657905 0.234375 1.739078
v 0.816471 0.234375 2.146832
vn 0.9320 -0.0000 -0.3624
vn 0.3624 -0.0000 0.9320
vn -0.9320 -0.0000 0.3624
vn -0.0000 1.0000 -0.0000
vn -0.0000 -1.0000 -0.0000
vt 0.000000 0.867188
vt 0.109375 0.867188
vt 0.109375 1.000000
vt 0.000000 1.000000
vt 0.023438 0.867188
vt 0.023438 1.000000
vt 0.000000 0.890625
vt 0.023438 0.890625
s 0
usemtl m_a177b58b-b666-24af-20f8-b71e99b14f4e
f 51/37/21 52/38/21 50/39/21 49/40/21
f 56/37/22 51/41/22 49/42/22 54/40/22
f 55/37/23 56/38/23 54/39/23 53/40/23
f 54/43/24 49/44/24 50/42/24 53/40/24
f 55/43/25 52/44/25 51/42/25 56/40/25
o cube.007
v 1.490318 0.765625 1.835536
v 1.187781 0.765625 1.519502
v 1.490318 0.234375 1.835536
v 1.187781 0.234375 1.519502
v 1.120060 0.765625 1.584332
v 1.422597 0.765625 1.900366
v 1.120060 0.234375 1.584332
v 1.422597 0.234375 1.900366
vn 0.7224 -0.0000 -0.6915
vn 0.6915 -0.0000 0.7224
vn -0.7224 -0.0000 0.6915
vn -0.0000 1.0000 -0.0000
vn -0.0000 -1.0000 -0.0000
vt 0.000000 0.867188
vt 0.109375 0.867188
vt 0.109375 1.000000
vt 0.000000 1.000000
vt 0.023438 0.867188
vt 0.023438 1.000000
vt 0.000000 0.890625
vt 0.023438 0.890625
s 0
usemtl m_a177b58b-b666-24af-20f8-b71e99b14f4e
f 59/45/26 60/46/26 58/47/26 57/48/26
f 64/45/27 59/49/27 57/50/27 62/48/27
f 63/45/28 64/46/28 62/47/28 61/48/28
f 62/51/29 57/52/29 58/50/29 61/48/29
f 63/51/30 60/52/30 59/50/30 64/48/30
o cube.008
v 1.926022 0.765625 1.354896
v 1.525574 0.765625 1.178695
v 1.926022 0.234375 1.354896
v 1.525574 0.234375 1.178695
v 1.487816 0.765625 1.264505
v 1.888265 0.765625 1.440707
v 1.487816 0.234375 1.264505
v 1.888265 0.234375 1.440707
vn 0.4027 -0.0000 -0.9153
vn 0.9153 -0.0000 0.4027
vn -0.4027 -0.0000 0.9153
vn -0.0000 1.0000 -0.0000
vn -0.0000 -1.0000 -0.0000
vt 0.000000 0.867188
vt 0.109375 0.867188
vt 0.109375 1.000000
vt 0.000000 1.000000
vt 0.023438 0.867188
vt 0.023438 1.000000
vt 0.000000 0.890625
vt 0.023438 0.890625
s 0
usemtl m_a177b58b-b666-24af-20f8-b71e99b14f4e
f 67/53/31 68/54/31 66/55/31 65/56/31
f 72/53/32 67/57/32 65/58/32 70/56/32
f 71/53/33 72/54/33 70/55/33 69/56/33
f 70/59/34 65/60/34 66/58/34 69/56/34
f 71/59/35 68/60/35 67/58/35 72/56/35
o cube.009
v 2.144628 0.765625 0.744106
v 1.707232 0.765625 0.734562
v 2.144628 0.234375 0.744106
v 1.707232 0.234375 0.734562
v 1.705187 0.765625 0.828290
v 2.142582 0.765625 0.837834
v 1.705187 0.234375 0.828290
v 2.142582 0.234375 0.837834
vn 0.0218 -0.0000 -0.9998
vn 0.9998 -0.0000 0.0218
vn -0.0218 -0.0000 0.9998
vn -0.0000 1.0000 -0.0000
vn -0.0000 -1.0000 -0.0000
vt 0.000000 0.867188
vt 0.109375 0.867188
vt 0.109375 1.000000
vt 0.000000 1.000000
vt 0.023438 0.867188
vt 0.023438 1.000000
vt 0.000000 0.890625
vt 0.023438 0.890625
s 0
usemtl m_a177b58b-b666-24af-20f8-b71e99b14f4e
f 75/61/36 76/62/36 74/63/36 73/64/36
f 80/61/37 75/65/37 73/66/37 78/64/37
f 79/61/38 80/62/38 78/63/38 77/64/38
f 78/67/39 73/68/39 74/66/39 77/64/39
f 79/67/40 76/68/40 75/66/40 80/64/40
o cube.010
v 2.112853 0.765625 0.096153
v 1.705100 0.765625 0.254720
v 2.112853 0.234375 0.096153
v 1.705100 0.234375 0.254720
v 1.739078 0.765625 0.342095
v 2.146832 0.765625 0.183529
v 1.739078 0.234375 0.342095
v 2.146832 0.234375 0.183529
vn -0.3624 -0.0000 -0.9320
vn 0.9320 -0.0000 -0.3624
vn 0.3624 -0.0000 0.9320
vn -0.0000 1.0000 -0.0000
vn -0.0000 -1.0000 -0.0000
vt 0.000000 0.867188
vt 0.109375 0.867188
vt 0.109375 1.000000
vt 0.000000 1.000000
vt 0.023438 0.867188
vt 0.023438 1.000000
vt 0.000000 0.890625
vt 0.023438 0.890625
s 0
usemtl m_a177b58b-b666-24af-20f8-b71e99b14f4e
f 83/69/41 84/70/41 82/71/41 81/72/41
f 88/69/42 83/73/42 81/74/42 86/72/42
f 87/69/43 88/70/43 86/71/43 85/72/43
f 86/75/44 81/76/44 82/74/44 85/72/44
f 87/75/45 84/76/45 83/74/45 88/72/45
o cube.011
v 1.835536 0.765625 -0.490318
v 1.519502 0.765625 -0.187781
v 1.835536 0.234375 -0.490318
v 1.519502 0.234375 -0.187781
v 1.584332 0.765625 -0.120060
v 1.900366 0.765625 -0.422597
v 1.584332 0.234375 -0.120060
v 1.900366 0.234375 -0.422597
vn -0.6915 -0.0000 -0.7224
vn 0.7224 -0.0000 -0.6915
vn 0.6915 -0.0000 0.7224
vn -0.0000 1.0000 -0.0000
vn -0.0000 -1.0000 -0.0000
vt 0.000000 0.867188
vt 0.109375 0.867188
vt 0.109375 1.000000
vt 0.000000 1.000000
vt 0.023438 0.867188
vt 0.023438 1.000000
vt 0.000000 0.890625
vt 0.023438 0.890625
s 0
usemtl m_a177b58b-b666-24af-20f8-b71e99b14f4e
f 91/77/46 92/78/46 90/79/46 89/80/46
f 96/77/47 91/81/47 89/82/47 94/80/47
f 95/77/48 96/78/48 94/79/48 93/80/48
f 94/83/49 89/84/49 90/82/49 93/80/49
f 95/83/50 92/84/50 91/82/50 96/80/50
o cube.012
v 1.354896 0.765625 -0.926022
v 1.178695 0.765625 -0.525574
v 1.354896 0.234375 -0.926022
v 1.178695 0.234375 -0.525574
v 1.264505 0.765625 -0.487816
v 1.440707 0.765625 -0.888265
v 1.264505 0.234375 -0.487816
v 1.440707 0.234375 -0.888265
vn -0.9153 -0.0000 -0.4027
vn 0.4027 -0.0000 -0.9153
vn 0.9153 -0.0000 0.4027
vn -0.0000 1.0000 -0.0000
vn -0.0000 -1.0000 -0.0000
vt 0.000000 0.867188
vt 0.109375 0.867188
vt 0.109375 1.000000
vt 0.000000 1.000000
vt 0.023438 0.867188
vt 0.023438 1.000000
vt 0.000000 0.890625
vt 0.023438 0.890625
s 0
usemtl m_a177b58b-b666-24af-20f8-b71e99b14f4e
f 99/85/51 100/86/51 98/87/51 97/88/51
f 104/85/52 99/89/52 97/90/52 102/88/52
f 103/85/53 104/86/53 102/87/53 101/88/53
f 102/91/54 97/92/54 98/90/54 101/88/54
f 103/91/55 100/92/55 99/90/55 104/88/55
o cube.013
v 0.744106 0.765625 -1.144628
v 0.734562 0.765625 -0.707232
v 0.744106 0.234375 -1.144628
v 0.734562 0.234375 -0.707232
v 0.828290 0.765625 -0.705187
v 0.837834 0.765625 -1.142582
v 0.828290 0.234375 -0.705187
v 0.837834 0.234375 -1.142582
vn -0.9998 -0.0000 -0.0218
vn 0.0218 -0.0000 -0.9998
vn 0.9998 -0.0000 0.0218
vn -0.0000 1.0000 -0.0000
vn -0.0000 -1.0000 -0.0000
vt 0.000000 0.867188
vt 0.109375 0.867188
vt 0.109375 1.000000
vt 0.000000 1.000000
vt 0.023438 0.867188
vt 0.023438 1.000000
vt 0.000000 0.890625
vt 0.023438 0.890625
s 0
usemtl m_a177b58b-b666-24af-20f8-b71e99b14f4e
f 107/93/56 108/94/56 106/95/56 105/96/56
f 112/93/57 107/97/57 105/98/57 110/96/57
f 111/93/58 112/94/58 110/95/58 109/96/58
f 110/99/59 105/100/59 106/98/59 109/96/59
f 111/99/60 108/100/60 107/98/60 112/96/60
o cube.014
v 0.096153 0.765625 -1.112853
v 0.254720 0.765625 -0.705100
v 0.096153 0.234375 -1.112853
v 0.254720 0.234375 -0.705100
v 0.342095 0.765625 -0.739078
v 0.183529 0.765625 -1.146832
v 0.342095 0.234375 -0.739078
v 0.183529 0.234375 -1.146832
vn -0.9320 -0.0000 0.3624
vn -0.3624 -0.0000 -0.9320
vn 0.9320 -0.0000 -0.3624
vn -0.0000 1.0000 -0.0000
vn -0.0000 -1.0000 -0.0000
vt 0.000000 0.867188
vt 0.109375 0.867188
vt 0.109375 1.000000
vt 0.000000 1.000000
vt 0.023438 0.867188
vt 0.023438 1.000000
vt 0.000000 0.890625
vt 0.023438 0.890625
s 0
usemtl m_a177b58b-b666-24af-20f8-b71e99b14f4e
f 115/101/61 116/102/61 114/103/61 113/104/61
f 120/101/62 115/105/62 113/106/62 118/104/62
f 119/101/63 120/102/63 118/103/63 117/104/63
f 118/107/64 113/108/64 114/106/64 117/104/64
f 119/107/65 116/108/65 115/106/65 120/104/65
o cube.015
v -0.490318 0.765625 -0.835537
v -0.187781 0.765625 -0.519502
v -0.490318 0.234375 -0.835536
v -0.187781 0.234375 -0.519502
v -0.120060 0.765625 -0.584332
v -0.422597 0.765625 -0.900366
v -0.120060 0.234375 -0.584332
v -0.422597 0.234375 -0.900366
vn -0.7224 -0.0000 0.6915
vn -0.6915 -0.0000 -0.7224
vn 0.7224 -0.0000 -0.6915
vn -0.0000 1.0000 -0.0000
vn -0.0000 -1.0000 -0.0000
vt 0.000000 0.867188
vt 0.109375 0.867188
vt 0.109375 1.000000
vt 0.000000 1.000000
vt 0.023438 0.867188
vt 0.023438 1.000000
vt 0.000000 0.890625
vt 0.023438 0.890625
s 0
usemtl m_a177b58b-b666-24af-20f8-b71e99b14f4e
f 123/109/66 124/110/66 122/111/66 121/112/66
f 128/109/67 123/113/67 121/114/67 126/112/67
f 127/109/68 128/110/68 126/111/68 125/112/68
f 126/115/69 121/116/69 122/114/69 125/112/69
f 127/115/70 124/116/70 123/114/70 128/112/70
o cube.016
v -0.926022 0.765625 -0.354897
v -0.525574 0.765625 -0.178695
v -0.926022 0.234375 -0.354897
v -0.525574 0.234375 -0.178695
v -0.487816 0.765625 -0.264505
v -0.888265 0.765625 -0.440707
v -0.487816 0.234375 -0.264505
v -0.888265 0.234375 -0.440707
vn -0.4027 -0.0000 0.9153
vn -0.9153 -0.0000 -0.4027
vn 0.4027 -0.0000 -0.9153
vn -0.0000 1.0000 -0.0000
vn -0.0000 -1.0000 -0.0000
vt 0.000000 0.867188
vt 0.109375 0.867188
vt 0.109375 1.000000
vt 0.000000 1.000000
vt 0.023438 0.867188
vt 0.023438 1.000000
vt 0.000000 0.890625
vt 0.023438 0.890625
s 0
usemtl m_a177b58b-b666-24af-20f8-b71e99b14f4e
f 131/117/71 132/118/71 130/119/71 129/120/71
f 136/117/72 131/121/72 129/122/72 134/120/72
f 135/117/73 136/118/73 134/119/73 133/120/73
f 134/123/74 129/124/74 130/122/74 133/120/74
f 135/123/75 132/124/75 131/122/75 136/120/75
o cube.017
v -1.144628 0.765625 0.255894
v -0.707232 0.765625 0.265438
v -1.144628 0.234375 0.255894
v -0.707232 0.234375 0.265438
v -0.705187 0.765625 0.171710
v -1.142582 0.765625 0.162166
v -0.705187 0.234375 0.171710
v -1.142582 0.234375 0.162166
vn -0.0218 -0.0000 0.9998
vn -0.9998 -0.0000 -0.0218
vn 0.0218 -0.0000 -0.9998
vn -0.0000 1.0000 -0.0000
vn -0.0000 -1.0000 -0.0000
vt 0.000000 0.867188
vt 0.109375 0.867188
vt 0.109375 1.000000
vt 0.000000 1.000000
vt 0.023438 0.867188
vt 0.023438 1.000000
vt 0.000000 0.890625
vt 0.023438 0.890625
s 0
usemtl m_a177b58b-b666-24af-20f8-b71e99b14f4e
f 139/125/76 140/126/76 138/127/76 137/128/76
f 144/125/77 139/129/77 137/130/77 142/128/77
f 143/125/78 144/126/78 142/127/78 141/128/78
f 142/131/79 137/132/79 138/130/79 141/128/79
f 143/131/80 140/132/80 139/130/80 144/128/80
o cube.018
v -1.112853 0.765625 0.903847
v -0.705100 0.765625 0.745280
v -1.112853 0.234375 0.903847
v -0.705100 0.234375 0.745280
v -0.739078 0.765625 0.657905
v -1.146832 0.765625 0.816471
v -0.739078 0.234375 0.657905
v -1.146832 0.234375 0.816471
vn 0.3624 -0.0000 0.9320
vn -0.9320 -0.0000 0.3624
vn -0.3624 -0.0000 -0.9320
vn -0.0000 1.0000 -0.0000
vn -0.0000 -1.0000 -0.0000
vt 0.000000 0.867188
vt 0.109375 0.867188
vt 0.109375 1.000000
vt 0.000000 1.000000
vt 0.023438 0.867188
vt 0.023438 1.000000
vt 0.000000 0.890625
vt 0.023438 0.890625
s 0
usemtl m_a177b58b-b666-24af-20f8-b71e99b14f4e
f 147/133/81 148/134/81 146/135/81 145/136/81
f 152/133/82 147/137/82 145/138/82 150/136/82
f 151/133/83 152/134/83 150/135/83 149/136/83
f 150/139/84 145/140/84 146/138/84 149/136/84
f 151/139/85 148/140/85 147/138/85 152/136/85
o cube.019
v -0.835536 0.765625 1.490318
v -0.519502 0.765625 1.187781
v -0.835536 0.234375 1.490318
v -0.519502 0.234375 1.187781
v -0.584332 0.765625 1.120060
v -0.900366 0.765625 1.422597
v -0.584332 0.234375 1.120060
v -0.900366 0.234375 1.422597
vn 0.6915 -0.0000 0.7224
vn -0.7224 -0.0000 0.6915
vn -0.6915 -0.0000 -0.7224
vn -0.0000 1.0000 -0.0000
vn -0.0000 -1.0000 -0.0000
vt 0.000000 0.867188
vt 0.109375 0.867188
vt 0.109375 1.000000
vt 0.000000 1.000000
vt 0.023438 0.867188
vt 0.023438 1.000000
vt 0.000000 0.890625
vt 0.023438 0.890625
s 0
usemtl m_a177b58b-b666-24af-20f8-b71e99b14f4e
f 155/141/86 156/142/86 154/143/86 153/144/86
f 160/141/87 155/145/87 153/146/87 158/144/87
f 159/141/88 160/142/88 158/143/88 157/144/88
f 158/147/89 153/148/89 154/146/89 157/144/89
f 159/147/90 156/148/90 155/146/90 160/144/90
o cube.020
v -0.354896 0.765625 1.926022
v -0.178695 0.765625 1.525574
v -0.354896 0.234375 1.926022
v -0.178695 0.234375 1.525574
v -0.264505 0.765625 1.487816
v -0.440707 0.765625 1.888265
v -0.264505 0.234375 1.487816
v -0.440707 0.234375 1.888265
vn 0.9153 -0.0000 0.4027
vn -0.4027 -0.0000 0.9153
vn -0.9153 -0.0000 -0.4027
vn -0.0000 1.0000 -0.0000
vn -0.0000 -1.0000 -0.0000
vt 0.000000 0.867188
vt 0.109375 0.867188
vt 0.109375 1.000000
vt 0.000000 1.000000
vt 0.023438 0.867188
vt 0.023438 1.000000
vt 0.000000 0.890625
vt 0.023438 0.890625
s 0
usemtl m_a177b58b-b666-24af-20f8-b71e99b14f4e
f 163/149/91 164/150/91 162/151/91 161/152/91
f 168/149/92 163/153/92 161/154/92 166/152/92
f 167/149/93 168/150/93 166/151/93 165/152/93
f 166/155/94 161/156/94 162/154/94 165/152/94
f 167/155/95 164/156/95 163/154/95 168/152/95
o cube.021
v 0.255894 0.765625 2.144628
v 0.265438 0.765625 1.707232
v 0.255894 0.234375 2.144628
v 0.265438 0.234375 1.707232
v 0.171710 0.765625 1.705187
v 0.162166 0.765625 2.142582
v 0.171710 0.234375 1.705187
v 0.162166 0.234375 2.142582
vn 0.9998 -0.0000 0.0218
vn -0.0218 -0.0000 0.9998
vn -0.9998 -0.0000 -0.0218
vn -0.0000 1.0000 -0.0000
vn -0.0000 -1.0000 -0.0000
vt 0.000000 0.867188
vt 0.109375 0.867188
vt 0.109375 1.000000
vt 0.000000 1.000000
vt 0.023438 0.867188
vt 0.023438 1.000000
vt 0.000000 0.890625
vt 0.023438 0.890625
s 0
usemtl m_a177b58b-b666-24af-20f8-b71e99b14f4e
f 171/157/96 172/158/96 170/159/96 169/160/96
f 176/157/97 171/161/97 169/162/97 174/160/97
f 175/157/98 176/158/98 174/159/98 173/160/98
f 174/163/99 169/164/99 170/162/99 173/160/99
f 175/163/100 172/164/100 171/162/100 176/160/100
o shaft
v 0.750000 1.000000 0.750000
v 0.750000 1.000000 0.250000
v 0.750000 0.000000 0.750000
v 0.750000 0.000000 0.250000
v 0.250000 1.000000 0.250000
v 0.250000 1.000000 0.750000
v 0.250000 0.000000 0.250000
v 0.250000 0.000000 0.750000
vn -0.0000 -0.0000 -1.0000
vn 1.0000 -0.0000 -0.0000
vn -0.0000 -0.0000 1.0000
vn -1.0000 -0.0000 -0.0000
vn -0.0000 1.0000 -0.0000
vn -0.0000 -1.0000 -0.0000
vt 0.250000 0.000000
vt 0.750000 0.000000
vt 0.750000 1.000000
vt 0.250000 1.000000
vt 0.250000 0.250000
vt 0.750000 0.250000
vt 0.750000 0.750000
vt 0.250000 0.750000
s 0
usemtl m_1dcdf520-6e3e-8615-3419-6f10efbb6e9d
f 180/165/101 183/166/101 181/167/101 178/168/101
f 179/165/102 180/166/102 178/167/102 177/168/102
f 184/165/103 179/166/103 177/167/103 182/168/103
f 183/165/104 184/166/104 182/167/104 181/168/104
usemtl m_940a08d1-0d3a-4dbb-d0ee-83e3222c29e3
f 182/169/105 177/170/105 178/171/105 181/172/105
f 183/169/106 180/170/106 179/171/106 184/172/106
o tube_selection
v 0.748641 0.250000 1.750000
v 0.748641 0.750000 1.750000
v 1.208068 0.250000 1.559699
v 1.208068 0.750000 1.559699
v 1.559699 0.250000 1.208068
v 1.559699 0.750000 1.208068
v 1.750000 0.250000 0.748641
v 1.750000 0.750000 0.748641
v 1.750000 0.250000 0.251359
v 1.750000 0.750000 0.251359
v 1.559699 0.250000 -0.208068
v 1.559699 0.750000 -0.208068
v 1.208068 0.250000 -0.559699
v 1.208068 0.750000 -0.559699
v 0.748641 0.250000 -0.750000
v 0.748641 0.750000 -0.750000
v 0.251359 0.250000 -0.750000
v 0.251359 0.750000 -0.750000
v -0.208068 0.250000 -0.559699
v -0.208068 0.750000 -0.559699
v -0.559699 0.250000 -0.208068
v -0.559699 0.750000 -0.208068
v -0.750000 0.250000 0.251359
v -0.750000 0.750000 0.251359
v -0.750000 0.250000 0.748641
v -0.750000 0.750000 0.748641
v -0.559699 0.250000 1.208068
v -0.559699 0.750000 1.208068
v -0.208068 0.250000 1.559699
v -0.208068 0.750000 1.559699
v 0.251359 0.250000 1.750000
v 0.251359 0.750000 1.750000
v 0.835664 0.187500 2.187500
v 0.835664 0.250000 2.187500
v 0.742424 0.187500 1.718750
v 1.455892 0.187500 1.930593
v 1.455892 0.250000 1.930593
v 1.190367 0.187500 1.533206
v 1.930593 0.187500 1.455892
v 1.930593 0.250000 1.455892
v 1.533206 0.187500 1.190367
v 2.187500 0.187500 0.835664
v 2.187500 0.250000 0.835664
v 1.718750 0.187500 0.742424
v 2.187500 0.187500 0.164336
v 2.187500 0.250000 0.164336
v 1.718750 0.187500 0.257576
v 1.930593 0.187500 -0.455892
v 1.930593 0.250000 -0.455892
v 1.533206 0.187500 -0.190367
v 1.455892 0.187500 -0.930593
v 1.455892 0.250000 -0.930593
v 1.190367 0.187500 -0.533206
v 0.835664 0.187500 -1.187500
v 0.835664 0.250000 -1.187500
v 0.742424 0.187500 -0.718750
v 0.164336 0.187500 -1.187500
v 0.164336 0.250000 -1.187500
v 0.257576 0.187500 -0.718750
v -0.455892 0.187500 -0.930593
v -0.455892 0.250000 -0.930593
v -0.190367 0.187500 -0.533206
v -0.930593 0.187500 -0.455892
v -0.930593 0.250000 -0.455892
v -0.533206 0.187500 -0.190367
v -1.187500 0.187500 0.164336
v -1.187500 0.250000 0.164336
v -0.718750 0.187500 0.257576
v -1.187500 0.187500 0.835664
v -1.187500 0.250000 0.835664
v -0.718750 0.187500 0.742424
v -0.930593 0.187500 1.455892
v -0.930593 0.250000 1.455892
v -0.533206 0.187500 1.190367
v -0.455892 0.187500 1.930593
v -0.455892 0.250000 1.930593
v -0.190367 0.187500 1.533206
v 0.164336 0.187500 2.187500
v 0.164336 0.250000 2.187500
v 0.257576 0.187500 1.718750
v 0.835664 0.750000 2.187500
v 0.835664 0.812500 2.187500
v 0.742424 0.812500 1.718750
v 1.455892 0.750000 1.930593
v 1.455892 0.812500 1.930593
v 1.190367 0.812500 1.533206
v 1.930593 0.750000 1.455892
v 1.930593 0.812500 1.455892
v 1.533206 0.812500 1.190367
v 2.187500 0.750000 0.835664
v 2.187500 0.812500 0.835664
v 1.718750 0.812500 0.742424
v 2.187500 0.750000 0.164336
v 2.187500 0.812500 0.164336
v 1.718750 0.812500 0.257576
v 1.930593 0.750000 -0.455892
v 1.930593 0.812500 -0.455892
v 1.533206 0.812500 -0.190367
v 1.455892 0.750000 -0.930593
v 1.455892 0.812500 -0.930593
v 1.190367 0.812500 -0.533206
v 0.835664 0.750000 -1.187500
v 0.835664 0.812500 -1.187500
v 0.742424 0.812500 -0.718750
v 0.164336 0.750000 -1.187500
v 0.164336 0.812500 -1.187500
v 0.257576 0.812500 -0.718750
v -0.455892 0.750000 -0.930593
v -0.455892 0.812500 -0.930593
v -0.190367 0.812500 -0.533206
v -0.930593 0.750000 -0.455892
v -0.930593 0.812500 -0.455892
v -0.533206 0.812500 -0.190367
v -1.187500 0.750000 0.164336
v -1.187500 0.812500 0.164336
v -0.718750 0.812500 0.257576
v -1.187500 0.750000 0.835664
v -1.187500 0.812500 0.835664
v -0.718750 0.812500 0.742424
v -0.930593 0.750000 1.455892
v -0.930593 0.812500 1.455892
v -0.533206 0.812500 1.190367
v -0.455892 0.750000 1.930593
v -0.455892 0.812500 1.930593
v -0.190367 0.812500 1.533206
v 0.164336 0.750000 2.187500
v 0.164336 0.812500 2.187500
v 0.257576 0.812500 1.718750
vn 0.3827 -0.0000 0.9239
vn 0.7071 -0.0000 0.7071
vn 0.9239 -0.0000 0.3827
vn 1.0000 -0.0000 -0.0000
vn 0.9239 -0.0000 -0.3827
vn 0.7071 -0.0000 -0.7071
vn 0.3827 -0.0000 -0.9239
vn -0.0000 -0.0000 -1.0000
vn -0.3827 -0.0000 -0.9239
vn -0.7071 -0.0000 -0.7071
vn -0.9239 -0.0000 -0.3827
vn -1.0000 -0.0000 -0.0000
vn -0.9239 -0.0000 0.3827
vn -0.7071 -0.0000 0.7071
vn -0.3827 -0.0000 0.9239
vn -0.0000 -0.0000 1.0000
vn -0.0000 -1.0000 -0.0000
vn -0.0000 1.0000 -0.0000
vt 0.000000 0.750000
vt 0.000000 1.000000
vt 0.121394 1.000000
vt 0.121394 0.750000
vt 0.167831 0.750000
vt 0.167831 1.000000
vt 0.000000 0.976779
vt 0.000000 0.855387
vt 0.116734 0.832167
vt 0.116734 1.000000
vt 0.000000 0.883266
vt 0.167833 0.883266
vt 0.144613 1.000000
vt 0.023221 1.000000
vt 0.000000 0.976780
vt 0.000000 0.855388
vt 0.116735 0.832168
vt 0.116735 1.000000
vt 0.000000 0.883265
vt 0.167832 0.883265
vt 0.144612 1.000000
vt 0.023220 1.000000
vt 0.000000 0.976780
vt 0.116734 0.832167
vt 0.116734 1.000000
vt 0.144613 1.000000
vt 0.023220 1.000000
vt 0.000000 0.976781
vt 0.000000 0.855388
vt 0.116734 0.832169
vt 0.023220 1.000000
vt 0.167833 0.883266
vt 0.000000 0.976780
vt 0.000000 0.855388
vt 0.144613 1.000000
vt 0.023221 1.000000
vt 0.000000 0.883266
vt 0.000000 0.976779
vt 0.000000 0.855387
vt 0.144613 1.000000
vt 0.023219 1.000000
vt 0.167831 0.883266
vt 0.023219 0.883266
vt 0.144613 0.883266
vt 0.116734 0.855388
vt 0.116734 0.976780
vt 0.000000 0.832167
vt 0.167833 1.000000
vt 0.023220 0.883266
vt 0.144613 0.883266
vt 0.116735 0.855388
vt 0.116735 0.976780
vt 0.000000 0.832168
vt 0.167832 1.000000
vt 0.023220 0.883265
vt 0.144612 0.883265
vt 0.116734 0.855387
vt 0.116734 0.976779
vt 0.000000 1.000000
vt 0.000000 0.832167
vt 0.023221 0.883266
vt 0.144613 0.883266
vt 0.116734 0.855388
vt 0.116734 0.976781
vt 0.000000 0.832169
vt 0.023221 0.883266
vt 0.144613 0.883266
vt 0.000000 1.000000
vt 0.116734 0.855387
vt 0.116734 0.976779
vt 0.023220 0.883266
vt 0.144612 0.883266
vt 0.167833 1.000000
vt 0.116734 0.855388
vt 0.116734 0.976780
s 0
usemtl m_a177b58b-b666-24af-20f8-b71e99b14f4e
f 187/173/107 188/174/107 186/175/107 185/176/107
f 189/173/108 190/174/108 188/175/108 187/176/108
f 191/173/109 192/174/109 190/175/109 189/176/109
f 193/173/110 194/174/110 192/175/110 191/176/110
f 195/173/111 196/174/111 194/175/111 193/176/111
f 197/173/112 198/174/112 196/175/112 195/176/112
f 199/173/113 200/174/113 198/175/113 197/176/113
f 201/173/114 202/174/114 200/175/114 199/176/114
f 203/173/115 204/174/115 202/175/115 201/176/115
f 205/173/116 206/174/116 204/175/116 203/176/116
f 207/173/117 208/174/117 206/175/117 205/176/117
f 209/173/118 210/174/118 208/175/118 207/176/118
f 211/173/119 212/174/119 210/175/119 209/176/119
f 213/173/120 214/174/120 212/175/120 211/176/120
f 215/173/121 216/174/121 214/175/121 213/176/121
f 185/173/122 186/174/122 216/175/122 215/176/122
f 217/173/107 220/177/107 221/178/107 218/174/107
f 219/179/123 222/180/123 220/181/123 217/182/123
f 218/183/124 221/184/124 187/185/124 185/186/124
f 220/173/108 223/177/108 224/178/108 221/174/108
f 222/187/123 225/188/123 223/189/123 220/190/123
f 221/191/124 224/192/124 189/193/124 187/194/124
f 223/173/109 226/177/109 227/178/109 224/174/109
f 225/195/123 228/188/123 226/196/123 223/197/123
f 224/183/124 227/184/124 191/198/124 189/199/124
f 226/173/110 229/177/110 230/178/110 227/174/110
f 228/200/123 231/201/123 229/202/123 226/197/123
f 227/202/124 230/197/124 193/200/124 191/201/124
f 229/173/111 232/177/111 233/178/111 230/174/111
f 231/193/123 234/203/123 232/183/123 229/204/123
f 230/181/124 233/197/124 195/205/124 193/206/124
f 232/173/112 235/177/112 236/178/112 233/174/112
f 234/193/123 237/194/123 235/191/123 232/192/123
f 233/189/124 236/190/124 197/187/124 195/188/124
f 235/173/113 238/177/113 239/178/113 236/174/113
f 237/207/123 240/208/123 238/209/123 235/184/123
f 236/181/124 239/197/124 199/210/124 197/211/124
f 238/173/114 241/177/114 242/178/114 239/174/114
f 240/212/123 243/213/123 241/183/123 238/214/123
f 239/178/124 242/174/124 201/215/124 199/216/124
f 241/173/115 244/177/115 245/178/115 242/174/115
f 243/217/123 246/218/123 244/174/123 241/219/123
f 242/220/124 245/174/124 203/221/124 201/222/124
f 244/173/116 247/177/116 248/178/116 245/174/116
f 246/223/123 249/224/123 247/174/123 244/225/123
f 245/226/124 248/174/124 205/227/124 203/228/124
f 247/173/117 250/177/117 251/178/117 248/174/117
f 249/229/123 252/230/123 250/231/123 247/232/123
f 248/220/124 251/174/124 207/233/124 205/234/124
f 250/173/118 253/177/118 254/178/118 251/174/118
f 252/235/123 255/236/123 253/174/123 250/237/123
f 251/174/124 254/237/124 209/235/124 207/236/124
f 253/173/119 256/177/119 257/178/119 254/174/119
f 255/238/123 258/239/123 256/220/123 253/240/123
f 254/174/124 257/232/124 211/241/124 209/242/124
f 256/173/120 259/177/120 260/178/120 257/174/120
f 258/227/123 261/228/123 259/226/123 256/174/123
f 257/174/124 260/225/124 213/223/124 211/224/124
f 259/173/121 262/177/121 263/178/121 260/174/121
f 261/243/123 264/244/123 262/245/123 259/174/123
f 260/174/124 263/232/124 215/246/124 213/247/124
f 262/173/122 217/177/122 218/178/122 263/174/122
f 264/215/123 219/216/123 217/178/123 262/174/123
f 263/183/124 218/214/124 185/212/124 215/213/124
f 265/173/107 268/177/107 269/178/107 266/174/107
f 186/179/123 188/180/123 268/181/123 265/182/123
f 266/183/124 269/184/124 270/185/124 267/186/124
f 268/173/108 271/177/108 272/178/108 269/174/108
f 188/187/123 190/188/123 271/189/123 268/190/123
f 269/191/124 272/192/124 273/193/124 270/194/124
f 271/173/109 274/177/109 275/178/109 272/174/109
f 190/195/123 192/188/123 274/196/123 271/197/123
f 272/183/124 275/184/124 276/198/124 273/199/124
f 274/173/110 277/177/110 278/178/110 275/174/110
f 192/200/123 194/201/123 277/202/123 274/197/123
f 275/202/124 278/197/124 279/200/124 276/201/124
f 277/173/111 280/177/111 281/178/111 278/174/111
f 194/193/123 196/203/123 280/183/123 277/204/123
f 278/181/124 281/197/124 282/205/124 279/206/124
f 280/173/112 283/177/112 284/178/112 281/174/112
f 196/193/123 198/194/123 283/191/123 280/192/123
f 281/189/124 284/190/124 285/187/124 282/188/124
f 283/173/113 286/177/113 287/178/113 284/174/113
f 198/207/123 200/208/123 286/209/123 283/184/123
f 284/181/124 287/197/124 288/210/124 285/211/124
f 286/173/114 289/177/114 290/178/114 287/174/114
f 200/212/123 202/213/123 289/183/123 286/214/123
f 287/178/124 290/174/124 291/215/124 288/216/124
f 289/173/115 292/177/115 293/178/115 290/174/115
f 202/217/123 204/218/123 292/174/123 289/219/123
f 290/220/124 293/174/124 294/221/124 291/222/124
f 292/173/116 295/177/116 296/178/116 293/174/116
f 204/223/123 206/224/123 295/174/123 292/225/123
f 293/226/124 296/174/124 297/227/124 294/228/124
f 295/173/117 298/177/117 299/178/117 296/174/117
f 206/229/123 208/230/123 298/231/123 295/232/123
f 296/220/124 299/174/124 300/233/124 297/234/124
f 298/173/118 301/177/118 302/178/118 299/174/118
f 208/235/123 210/236/123 301/174/123 298/237/123
f 299/174/124 302/237/124 303/235/124 300/236/124
f 301/173/119 304/177/119 305/178/119 302/174/119
f 210/238/123 212/239/123 304/220/123 301/240/123
f 302/174/124 305/232/124 306/241/124 303/242/124
f 304/173/120 307/177/120 308/178/120 305/174/120
f 212/227/123 214/228/123 307/226/123 304/174/123
f 305/174/124 308/225/124 309/223/124 306/224/124
f 307/173/121 310/177/121 311/178/121 308/174/121
f 214/243/123 216/244/123 310/245/123 307/174/123
f 308/174/124 311/232/124 312/246/124 309/247/124
f 310/173/122 265/177/122 266/178/122 311/174/122
f 216/215/123 186/216/123 265/178/123 310/174/123
f 311/183/124 266/214/124 267/212/124 312/213/124
f 267/175/115 270/174/115 222/173/115 219/176/115
f 270/175/116 273/174/116 225/173/116 222/176/116
f 273/175/117 276/174/117 228/173/117 225/176/117
f 276/175/118 279/174/118 231/173/118 228/176/118
f 279/175/119 282/174/119 234/173/119 231/176/119
f 282/175/120 285/174/120 237/173/120 234/176/120
f 285/175/121 288/174/121 240/173/121 237/176/121
f 288/175/122 291/174/122 243/173/122 240/176/122
f 291/175/107 294/174/107 246/173/107 243/176/107
f 294/175/108 297/174/108 249/173/108 246/176/108
f 297/175/109 300/174/109 252/173/109 249/176/109
f 300/175/110 303/174/110 255/173/110 252/176/110
f 303/175/111 306/174/111 258/173/111 255/176/111
f 306/175/112 309/174/112 261/173/112 258/176/112
f 309/175/113 312/174/113 264/173/113 261/176/113
f 312/175/114 267/174/114 219/173/114 264/176/114
