# Blender v3.2.2 OBJ File: ''
# www.blender.org
mtllib angled_beams.mtl
o top
v 1.114816 0.918080 0.371875
v 1.002877 1.141619 0.371875
v 1.002877 1.141619 0.621875
v 1.114816 0.918080 0.621875
v 0.053008 0.386366 0.621875
v -0.058932 0.609905 0.621875
v -0.058932 0.609905 0.371875
v 0.053008 0.386366 0.371875
v 0.723453 1.001694 0.621875
v 0.723453 1.001694 0.371875
v 0.835393 0.778155 0.371875
v 0.835393 0.778155 0.621875
vt 0.625000 0.375000
vt 0.625000 0.625000
vt 0.375000 0.625000
vt 0.375000 0.375000
vt 0.625000 0.375000
vt 0.625000 0.625000
vt 0.375000 0.625000
vt 0.375000 0.375000
vt 0.625000 1.000000
vt 0.375000 1.000000
vt 0.375000 0.125000
vt 0.625000 0.125000
vt 0.625000 1.000000
vt 0.375000 1.000000
vt 0.375000 0.125000
vt 0.625000 0.125000
vt 0.625000 1.000000
vt 0.375000 1.000000
vt 0.375000 0.125000
vt 0.625000 0.125000
vt 0.375000 0.125000
vt 0.625000 0.125000
vt 0.625000 1.000000
vt 0.375000 1.000000
vt 0.625000 0.250000
vt 0.375000 0.250000
vt 0.375000 0.000000
vt 0.625000 0.000000
vt 0.625000 0.250000
vt 0.375000 0.250000
vt 0.375000 0.000000
vt 0.625000 0.000000
vt 0.625000 0.250000
vt 0.375000 0.250000
vt 0.375000 0.000000
vt 0.625000 0.000000
vt 0.625000 0.250000
vt 0.375000 0.250000
vt 0.375000 0.000000
vt 0.625000 0.000000
vn 0.8942 0.4478 0.0000
vn -0.8942 -0.4478 -0.0000
vn -0.4478 0.8942 0.0000
vn 0.4478 -0.8942 -0.0000
vn -0.0000 -0.0000 1.0000
vn 0.0000 0.0000 -1.0000
usemtl m_c7c6ba7c-74a4-ac21-20f5-2eb520da14c6
s 1
f 1/1/1 2/2/1 3/3/1 4/4/1
f 5/5/2 6/6/2 7/7/2 8/8/2
f 9/9/3 10/10/3 7/11/3 6/12/3
f 11/13/4 12/14/4 5/15/4 8/16/4
f 12/17/5 9/18/5 6/19/5 5/20/5
f 8/21/6 7/22/6 10/23/6 11/24/6
f 2/25/6 1/26/6 11/27/6 10/28/6
f 3/29/3 2/30/3 10/31/3 9/32/3
f 4/33/5 3/34/5 9/35/5 12/36/5
f 1/37/4 4/38/4 12/39/4 11/40/4
