# Blender v3.2.2 OBJ File: ''
# www.blender.org
mtllib angled_beams.mtl
o bottom
v 0.973377 0.398172 -0.147944
v 0.914367 0.633833 -0.088934
v 1.091144 0.633833 0.087842
v 1.150153 0.398172 0.028833
v 0.119087 -0.118186 1.059900
v 0.060077 0.117475 1.118909
v -0.116699 0.117475 0.942132
v -0.057690 -0.118185 0.883123
v 0.726626 0.451282 0.452361
v 0.549849 0.451282 0.275584
v 0.608858 0.215622 0.216575
v 0.785635 0.215621 0.393352
vt 0.625000 0.375000
vt 0.625000 0.625000
vt 0.375000 0.625000
vt 0.375000 0.375000
vt 0.625000 0.375000
vt 0.625000 0.625000
vt 0.375000 0.625000
vt 0.375000 0.375000
vt 0.625000 1.000000
vt 0.375000 1.000000
vt 0.375000 0.000000
vt 0.625000 0.000000
vt 0.625000 1.000000
vt 0.375000 1.000000
vt 0.375000 0.000000
vt 0.625000 0.000000
vt 0.625000 1.000000
vt 0.375000 1.000000
vt 0.375000 0.000000
vt 0.625000 0.000000
vt 0.375000 0.000000
vt 0.625000 0.000000
vt 0.625000 1.000000
vt 0.375000 1.000000
vt 0.625000 0.546875
vt 0.375000 0.546875
vt 0.375000 0.000000
vt 0.625000 0.000000
vt 0.625000 0.546875
vt 0.375000 0.546875
vt 0.375000 0.000000
vt 0.625000 0.000000
vt 0.625000 0.546875
vt 0.375000 0.546875
vt 0.375000 0.000000
vt 0.625000 0.000000
vt 0.625000 0.546875
vt 0.375000 0.546875
vt 0.375000 0.000000
vt 0.625000 0.000000
vn 0.6665 0.3338 -0.6665
vn -0.6665 -0.3338 0.6665
vn -0.2360 0.9426 0.2360
vn 0.2360 -0.9426 -0.2360
vn 0.7071 -0.0000 0.7071
vn -0.7071 0.0000 -0.7071
usemtl m_c7c6ba7c-74a4-ac21-20f5-2eb520da14c6
s 1
f 1/1/1 2/2/1 3/3/1 4/4/1
f 5/5/2 6/6/2 7/7/2 8/8/2
f 9/9/3 10/10/3 7/11/3 6/12/3
f 11/13/4 12/14/4 5/15/4 8/16/4
f 12/17/5 9/18/5 6/19/5 5/20/5
f 8/21/6 7/22/6 10/23/6 11/24/6
f 2/25/6 1/26/6 11/27/6 10/28/6
f 3/29/3 2/30/3 10/31/3 9/32/3
f 4/33/5 3/34/5 9/35/5 12/36/5
f 1/37/4 4/38/4 12/39/4 11/40/4
