# Blender v3.2.2 OBJ File: ''
# www.blender.org
mtllib smooth_log_seat.mtl
o cylinder
v 0.873264 -0.000000 0.353746
v 0.873264 -0.000000 0.651462
v 0.498264 -0.000000 0.502604
v 0.826389 0.593750 0.366690
v 0.842014 0.593750 0.638518
v 0.647122 -0.000000 0.127604
v 0.634178 0.593750 0.174479
v 0.349406 -0.000000 0.143229
v 0.362350 0.593750 0.158854
v 0.138889 -0.000000 0.353746
v 0.170139 0.593750 0.366690
v 0.123264 -0.000000 0.651462
v 0.170139 0.593750 0.638518
v 0.349406 -0.000000 0.861979
v 0.362350 0.593750 0.830729
v 0.647122 -0.000000 0.846354
v 0.634178 0.593750 0.830729
v 0.498264 0.593750 0.502604
vt 0.875000 0.385710
vt 0.875000 0.683426
vt 0.500000 0.534568
vt 0.648858 0.159568
vt 0.351142 0.175193
vt 0.140625 0.385710
vt 0.125000 0.683426
vt 0.351142 0.893943
vt 0.648858 0.878318
vt 0.858160 0.364954
vt 0.842535 0.636782
vt 0.514410 0.500868
vt 0.650324 0.828993
vt 0.378496 0.844618
vt 0.186285 0.636782
vt 0.186285 0.364954
vt 0.378496 0.172743
vt 0.650324 0.172743
vt 0.015625 0.000000
vt 0.312500 0.000000
vt 0.296875 0.593750
vt 0.031250 0.593750
vt 0.625000 0.000000
vt 0.609375 0.593750
vt 0.328125 0.593750
vt 0.000000 0.000000
vt 0.296875 0.000000
vt 0.281250 0.593750
vt 0.015625 0.593750
vt 0.390625 0.000000
vt 0.687500 0.000000
vt 0.671875 0.593750
vt 0.390625 0.593750
vt 0.984375 0.000000
vt 0.968750 0.593750
vt 0.687500 0.593750
vt 0.015625 0.000000
vt 0.328125 0.000000
vt 0.328125 0.593750
vt 0.046875 0.593750
vt 0.390625 0.000000
vt 0.687500 0.000000
vt 0.671875 0.593750
vt 0.406250 0.593750
vt 0.984375 0.000000
vt 0.968750 0.593750
vt 0.687500 0.593750
vn -0.0000 -1.0000 -0.0000
vn 0.0000 1.0000 0.0000
vn 0.9969 0.0787 -0.0000
vn 0.7053 0.0711 -0.7053
vn -0.0524 0.0274 -0.9983
vn -0.0524 0.0274 -0.9982
vn -0.7061 0.0526 -0.7061
vn -0.9956 0.0775 -0.0522
vn -0.9956 0.0775 -0.0523
vn -0.6804 0.0533 0.7309
vn 0.0524 0.0274 0.9982
vn 0.0524 0.0274 0.9983
vn 0.6520 0.0508 0.7565
usemtl m_cf6b7560-e41f-5b40-57e9-b3a38502932e
s 1
f 1/1/1 2/2/1 3/3/1
f 6/4/1 1/1/1 3/3/1
f 8/5/1 6/4/1 3/3/1
f 10/6/1 8/5/1 3/3/1
f 12/7/1 10/6/1 3/3/1
f 14/8/1 12/7/1 3/3/1
f 16/9/1 14/8/1 3/3/1
f 2/2/1 16/9/1 3/3/1
f 5/10/2 4/11/2 18/12/2
f 4/11/2 7/13/2 18/12/2
f 7/13/2 9/14/2 18/12/2
f 9/14/2 11/15/2 18/12/2
f 11/15/2 13/16/2 18/12/2
f 13/16/2 15/17/2 18/12/2
f 15/17/2 17/18/2 18/12/2
f 17/18/2 5/10/2 18/12/2
usemtl m_577e060f-439d-7704-7076-4654b1f42be9
f 2/19/3 1/20/3 4/21/3 5/22/3
f 1/20/4 6/23/4 7/24/4 4/25/4
f 6/26/5 8/27/6 9/28/5 7/29/6
f 8/30/7 10/31/7 11/32/7 9/33/7
f 10/31/8 12/34/8 13/35/9 11/36/9
f 12/37/10 14/38/10 15/39/10 13/40/10
f 14/41/11 16/42/11 17/43/12 15/44/12
f 16/42/13 2/45/13 5/46/13 17/47/13
