# Blender v3.2.2 OBJ File: ''
# www.blender.org
mtllib tall_round_barrel.mtl
o stand1
v 1.000000 0.437500 -0.562500
v 1.000000 0.437500 -0.468750
v 1.000000 0.000000 -0.468750
v 1.000000 0.000000 -0.562500
v 0.000000 0.000000 -0.468750
v 0.000000 0.437500 -0.468750
v 0.000000 0.437500 -0.562500
v 0.000000 0.000000 -0.562500
vt 0.093750 0.937500
vt 0.000000 0.937500
vt 0.000000 0.500000
vt 0.093750 0.500000
vt 0.093750 0.500000
vt 0.093750 0.937500
vt 0.000000 0.937500
vt 0.000000 0.500000
vt 0.000000 0.406250
vt 1.000000 0.406250
vt 1.000000 0.500000
vt 0.000000 0.500000
vt 1.000000 0.000000
vt 1.000000 0.093750
vt 0.000000 0.093750
vt 0.000000 0.000000
vt 1.000000 0.000000
vt 1.000000 0.437500
vt 0.000000 0.437500
vt 0.000000 0.000000
vt 1.000000 0.437500
vt 0.000000 0.437500
vt 0.000000 0.000000
vt 1.000000 0.000000
vn 1.0000 0.0000 0.0000
vn -1.0000 0.0000 0.0000
vn 0.0000 1.0000 0.0000
vn 0.0000 -1.0000 -0.0000
vn 0.0000 -0.0000 1.0000
vn 0.0000 0.0000 -1.0000
usemtl m_d88bf6ab-ce19-65cc-3eb9-af01bc59f3b3
s 1
f 1/1/1 2/2/1 3/3/1 4/4/1
f 5/5/2 6/6/2 7/7/2 8/8/2
f 6/9/3 2/10/3 1/11/3 7/12/3
f 4/13/4 3/14/4 5/15/4 8/16/4
f 3/17/5 2/18/5 6/19/5 5/20/5
f 7/21/6 1/22/6 4/23/6 8/24/6
o cube
v 0.064062 0.096875 -0.593750
v 0.064062 0.096875 0.343750
v 0.064062 0.003125 0.343750
v 0.064062 0.003125 -0.593750
v 0.001563 0.003125 -0.593750
v 0.001563 0.003125 0.343750
v 0.001563 0.096875 0.343750
v 0.001563 0.096875 -0.593750
v 0.064062 0.003125 0.906250
v 0.064062 0.096875 0.906250
v 0.001563 0.096875 0.906250
v 0.001563 0.003125 0.906250
vt 1.000000 0.093750
vt 0.062500 0.093750
vt 0.062500 0.000000
vt 1.000000 0.000000
vt 0.062500 0.000000
vt 1.000000 0.000000
vt 1.000000 0.093750
vt 0.062500 0.093750
vt 1.000000 0.031250
vt 0.062500 0.031250
vt 1.000000 0.093750
vt 0.062500 0.093750
vt 0.062500 0.031250
vt 1.000000 0.031250
vt 0.062500 0.906250
vt 0.062500 1.000000
vt 0.000000 1.000000
vt 0.000000 0.906250
vt 0.062500 0.906250
vt 0.062500 1.000000
vt 0.000000 1.000000
vt 0.000000 0.906250
vt 0.562500 0.093750
vt 0.000000 0.093750
vt 0.000000 0.000000
vt 0.562500 0.000000
vt 0.000000 0.031250
vt 0.562500 0.031250
vt 0.562500 0.093750
vt 0.000000 0.093750
vt 0.000000 0.000000
vt 0.562500 0.000000
vt 0.562500 0.093750
vt 0.000000 0.093750
vt 0.562500 0.031250
vt 0.000000 0.031250
vn 1.0000 0.0000 0.0000
vn -1.0000 0.0000 0.0000
vn 0.0000 1.0000 0.0000
vn 0.0000 -1.0000 -0.0000
vn 0.0000 0.0000 1.0000
vn 0.0000 0.0000 -1.0000
usemtl m_d88bf6ab-ce19-65cc-3eb9-af01bc59f3b3
s 1
f 9/25/7 10/26/7 11/27/7 12/28/7
f 13/29/8 14/30/8 15/31/8 16/32/8
f 16/33/9 15/34/9 10/26/9 9/25/9
f 12/35/10 11/36/10 14/37/10 13/38/10
f 17/39/11 18/40/11 19/41/11 20/42/11
f 13/43/12 16/44/12 9/45/12 12/46/12
f 19/47/8 15/48/8 14/49/8 20/50/8
f 20/51/10 14/52/10 11/53/10 17/54/10
f 17/55/7 11/56/7 10/57/7 18/58/7
f 18/58/9 10/57/9 15/59/9 19/60/9
o cube.000
v 1.001562 0.096875 -0.593750
v 1.001562 0.096875 0.343750
v 1.001562 0.003125 0.343750
v 1.001562 0.003125 -0.593750
v 0.939062 0.003125 -0.593750
v 0.939062 0.003125 0.343750
v 0.939062 0.096875 0.343750
v 0.939062 0.096875 -0.593750
v 1.001562 0.003125 0.906250
v 1.001562 0.096875 0.906250
v 0.939062 0.096875 0.906250
v 0.939062 0.003125 0.906250
vt 1.000000 0.093750
vt 0.062500 0.093750
vt 0.062500 0.000000
vt 1.000000 0.000000
vt 0.062500 0.000000
vt 1.000000 0.000000
vt 1.000000 0.093750
vt 0.062500 0.093750
vt 1.000000 0.031250
vt 0.062500 0.031250
vt 1.000000 0.093750
vt 0.062500 0.093750
vt 0.062500 0.031250
vt 1.000000 0.031250
vt 0.062500 0.906250
vt 0.062500 1.000000
vt 0.000000 1.000000
vt 0.000000 0.906250
vt 0.062500 0.906250
vt 0.062500 1.000000
vt 0.000000 1.000000
vt 0.000000 0.906250
vt 0.562500 0.093750
vt 0.000000 0.093750
vt 0.000000 0.000000
vt 0.562500 0.000000
vt 0.000000 0.031250
vt 0.562500 0.031250
vt 0.562500 0.093750
vt 0.000000 0.093750
vt 0.000000 0.000000
vt 0.562500 0.000000
vt 0.562500 0.093750
vt 0.000000 0.093750
vt 0.562500 0.031250
vt 0.000000 0.031250
vn 1.0000 0.0000 0.0000
vn -1.0000 0.0000 0.0000
vn 0.0000 1.0000 0.0000
vn 0.0000 -1.0000 -0.0000
vn 0.0000 0.0000 1.0000
vn 0.0000 0.0000 -1.0000
usemtl m_d88bf6ab-ce19-65cc-3eb9-af01bc59f3b3
s 1
f 21/61/13 22/62/13 23/63/13 24/64/13
f 25/65/14 26/66/14 27/67/14 28/68/14
f 28/69/15 27/70/15 22/62/15 21/61/15
f 24/71/16 23/72/16 26/73/16 25/74/16
f 29/75/17 30/76/17 31/77/17 32/78/17
f 25/79/18 28/80/18 21/81/18 24/82/18
f 31/83/14 27/84/14 26/85/14 32/86/14
f 32/87/16 26/88/16 23/89/16 29/90/16
f 29/91/13 23/92/13 22/93/13 30/94/13
f 30/94/15 22/93/15 27/95/15 31/96/15
o stand2
v 1.000000 0.437500 0.781250
v 1.000000 0.437500 0.875000
v 1.000000 -0.000000 0.875000
v 1.000000 -0.000000 0.781250
v 0.000000 -0.000000 0.875000
v 0.000000 0.437500 0.875000
v 0.000000 0.437500 0.781250
v 0.000000 -0.000000 0.781250
vt 0.093750 0.937500
vt 0.000000 0.937500
vt 0.000000 0.500000
vt 0.093750 0.500000
vt 0.093750 0.500000
vt 0.093750 0.937500
vt 0.000000 0.937500
vt 0.000000 0.500000
vt 0.000000 0.406250
vt 1.000000 0.406250
vt 1.000000 0.500000
vt 0.000000 0.500000
vt 1.000000 0.000000
vt 1.000000 0.093750
vt 0.000000 0.093750
vt 0.000000 0.000000
vt 1.000000 0.000000
vt 1.000000 0.437500
vt 0.000000 0.437500
vt 0.000000 0.000000
vt 1.000000 0.437500
vt 0.000000 0.437500
vt 0.000000 0.000000
vt 1.000000 0.000000
vn 1.0000 0.0000 0.0000
vn -1.0000 0.0000 0.0000
vn 0.0000 1.0000 0.0000
vn 0.0000 -1.0000 -0.0000
vn 0.0000 -0.0000 1.0000
vn 0.0000 0.0000 -1.0000
usemtl m_d88bf6ab-ce19-65cc-3eb9-af01bc59f3b3
s 1
f 33/97/19 34/98/19 35/99/19 36/100/19
f 37/101/20 38/102/20 39/103/20 40/104/20
f 38/105/21 34/106/21 33/107/21 39/108/21
f 36/109/22 35/110/22 37/111/22 40/112/22
f 35/113/23 34/114/23 38/115/23 37/116/23
f 39/117/24 33/118/24 36/119/24 40/120/24
o top
v 0.125000 0.937500 -0.687500
v 0.875000 0.937500 -0.687500
v 0.875000 0.187500 -0.687500
v 0.125000 0.187500 -0.687500
vt 0.125000 0.125000
vt 0.875000 0.125000
vt 0.875000 0.875000
vt 0.125000 0.875000
vn 0.0000 0.0000 -1.0000
usemtl m_f2f37469-997c-a54f-0acf-1a249906b501
s 1
f 41/121/25 42/122/25 43/123/25 44/124/25
o barrel
v 0.500000 1.062500 -0.375000
v 0.500000 1.062500 0.124999
v 0.750000 0.995513 0.124999
v 0.750000 0.995513 -0.375000
v 0.500000 1.000000 -0.750000
v 0.718750 0.941386 -0.750000
v 0.671875 0.860196 -0.750000
v 0.500000 0.906250 -0.750000
v 0.933013 0.812500 0.124999
v 0.933013 0.812500 -0.375000
v 0.878886 0.781250 -0.750000
v 0.797696 0.734375 -0.750000
v 1.000000 0.562500 0.124999
v 1.000000 0.562500 -0.375000
v 0.937500 0.562500 -0.750000
v 0.843750 0.562500 -0.750000
v 0.933013 0.312500 0.124999
v 0.933013 0.312500 -0.375000
v 0.878886 0.343750 -0.750000
v 0.797696 0.390625 -0.750000
v 0.750000 0.129487 0.124999
v 0.750000 0.129487 -0.375000
v 0.718750 0.183614 -0.750000
v 0.671875 0.264804 -0.750000
v 0.500000 0.062500 0.124999
v 0.500000 0.062500 -0.375000
v 0.500000 0.125000 -0.750000
v 0.500000 0.218750 -0.750000
v 0.250000 0.129487 0.124999
v 0.250000 0.129487 -0.375000
v 0.281250 0.183614 -0.750000
v 0.328125 0.264804 -0.750000
v 0.066987 0.312500 0.124999
v 0.066987 0.312500 -0.375000
v 0.121114 0.343750 -0.750000
v 0.202304 0.390625 -0.750000
v 0.000000 0.562500 0.124999
v 0.000000 0.562500 -0.375000
v 0.062500 0.562500 -0.750000
v 0.156250 0.562500 -0.750000
v 0.066987 0.812500 0.124999
v 0.066987 0.812500 -0.375000
v 0.121114 0.781250 -0.750000
v 0.202304 0.734375 -0.750000
v 0.250000 0.995513 0.124999
v 0.250000 0.995513 -0.375000
v 0.281250 0.941386 -0.750000
v 0.328125 0.860196 -0.750000
v 0.701389 0.911316 -0.366776
v 0.500000 0.965278 -0.366776
v 0.848816 0.763889 -0.366776
v 0.902778 0.562500 -0.366776
v 0.848816 0.361111 -0.366776
v 0.701389 0.213684 -0.366776
v 0.500000 0.159722 -0.366776
v 0.298611 0.213684 -0.366776
v 0.151184 0.361111 -0.366776
v 0.097222 0.562500 -0.366776
v 0.151184 0.763889 -0.366776
v 0.298611 0.911316 -0.366776
v 0.500000 1.000000 1.000000
v 0.718750 0.941386 1.000000
v 0.750000 0.995513 0.625000
v 0.500000 1.062500 0.625000
v 0.878886 0.781250 1.000000
v 0.933013 0.812500 0.625000
v 0.937500 0.562500 1.000000
v 1.000000 0.562500 0.625000
v 0.878886 0.343750 1.000000
v 0.933013 0.312500 0.625000
v 0.718750 0.183614 1.000000
v 0.750000 0.129487 0.625000
v 0.500000 0.125000 1.000000
v 0.500000 0.062500 0.625000
v 0.281250 0.183614 1.000000
v 0.250000 0.129487 0.625000
v 0.121114 0.343750 1.000000
v 0.066987 0.312500 0.625000
v 0.062500 0.562500 1.000000
v 0.000000 0.562500 0.625000
v 0.121114 0.781250 1.000000
v 0.066987 0.812500 0.625000
v 0.281250 0.941386 1.000000
v 0.250000 0.995513 0.625000
vt 0.250000 0.500000
vt 0.250000 0.000000
vt 0.500000 0.000000
vt 0.500000 0.500000
vt 0.265625 0.906250
vt 0.484375 0.906250
vt 0.460938 1.000000
vt 0.289062 1.000000
vt 0.750000 0.000000
vt 0.750000 0.500000
vt 0.515625 0.906250
vt 0.734375 0.906250
vt 0.710938 1.000000
vt 0.539062 1.000000
vt 1.000000 0.000000
vt 1.000000 0.500000
vt 0.765625 0.906250
vt 0.984375 0.906250
vt 0.960938 1.000000
vt 0.789062 1.000000
vt 0.000000 0.500000
vt 0.000000 0.000000
vt 0.250000 0.000000
vt 0.250000 0.500000
vt 0.015625 0.906250
vt 0.234375 0.906250
vt 0.210938 1.000000
vt 0.039062 1.000000
vt 0.500000 0.000000
vt 0.500000 0.500000
vt 0.265625 0.906250
vt 0.484375 0.906250
vt 0.460938 1.000000
vt 0.289062 1.000000
vt 0.750000 0.000000
vt 0.750000 0.500000
vt 0.515625 0.906250
vt 0.734375 0.906250
vt 0.710938 1.000000
vt 0.539062 1.000000
vt 1.000000 0.000000
vt 1.000000 0.500000
vt 0.765625 0.906250
vt 0.984375 0.906250
vt 0.960938 1.000000
vt 0.789062 1.000000
vt 0.000000 0.500000
vt 0.000000 0.000000
vt 0.250000 0.000000
vt 0.250000 0.500000
vt 0.015625 0.906250
vt 0.234375 0.906250
vt 0.210938 1.000000
vt 0.039062 1.000000
vt 0.500000 0.000000
vt 0.500000 0.500000
vt 0.265625 0.906250
vt 0.484375 0.906250
vt 0.460938 1.000000
vt 0.289062 1.000000
vt 0.750000 0.000000
vt 0.750000 0.500000
vt 0.515625 0.906250
vt 0.734375 0.906250
vt 0.710938 1.000000
vt 0.539062 1.000000
vt 1.000000 0.000000
vt 1.000000 0.500000
vt 0.765625 0.906250
vt 0.984375 0.906250
vt 0.960938 1.000000
vt 0.789062 1.000000
vt 0.000000 0.500000
vt 0.000000 0.000000
vt 0.015625 0.906250
vt 0.234375 0.906250
vt 0.210938 1.000000
vt 0.039062 1.000000
vt 0.484375 0.875000
vt 0.265625 0.875000
vt 0.289062 0.906250
vt 0.460938 0.906250
vt 0.476562 0.531250
vt 0.273438 0.531250
vt 0.734375 0.875000
vt 0.515625 0.875000
vt 0.539062 0.906250
vt 0.710938 0.906250
vt 0.726562 0.531250
vt 0.523438 0.531250
vt 0.984375 0.875000
vt 0.765625 0.875000
vt 0.789062 0.906250
vt 0.960938 0.906250
vt 0.976562 0.531250
vt 0.773438 0.531250
vt 0.234375 0.875000
vt 0.015625 0.875000
vt 0.039062 0.906250
vt 0.210938 0.906250
vt 0.226562 0.531250
vt 0.023438 0.531250
vt 0.484375 0.875000
vt 0.265625 0.875000
vt 0.289062 0.906250
vt 0.460938 0.906250
vt 0.476562 0.531250
vt 0.273438 0.531250
vt 0.734375 0.875000
vt 0.515625 0.875000
vt 0.539062 0.906250
vt 0.710938 0.906250
vt 0.726562 0.531250
vt 0.523438 0.531250
vt 0.984375 0.875000
vt 0.765625 0.875000
vt 0.789062 0.906250
vt 0.960938 0.906250
vt 0.976562 0.531250
vt 0.773438 0.531250
vt 0.234375 0.875000
vt 0.015625 0.875000
vt 0.039062 0.906250
vt 0.210938 0.906250
vt 0.226562 0.531250
vt 0.023438 0.531250
vt 0.484375 0.875000
vt 0.265625 0.875000
vt 0.289062 0.906250
vt 0.460938 0.906250
vt 0.476562 0.531250
vt 0.273438 0.531250
vt 0.734375 0.875000
vt 0.515625 0.875000
vt 0.539062 0.906250
vt 0.710938 0.906250
vt 0.726562 0.531250
vt 0.523438 0.531250
vt 0.984375 0.875000
vt 0.765625 0.875000
vt 0.789062 0.906250
vt 0.960938 0.906250
vt 0.976562 0.531250
vt 0.773438 0.531250
vt 0.234375 0.875000
vt 0.015625 0.875000
vt 0.039062 0.906250
vt 0.210938 0.906250
vt 0.226562 0.531250
vt 0.023438 0.531250
vt 0.265625 0.125000
vt 0.484375 0.125000
vt 0.500000 0.500000
vt 0.250000 0.500000
vt 0.515625 0.125000
vt 0.734375 0.125000
vt 0.750000 0.500000
vt 0.765625 0.125000
vt 0.984375 0.125000
vt 1.000000 0.500000
vt 0.015625 0.125000
vt 0.234375 0.125000
vt 0.250000 0.500000
vt 0.000000 0.500000
vt 0.265625 0.125000
vt 0.484375 0.125000
vt 0.500000 0.500000
vt 0.515625 0.125000
vt 0.734375 0.125000
vt 0.750000 0.500000
vt 0.765625 0.125000
vt 0.984375 0.125000
vt 1.000000 0.500000
vt 0.015625 0.125000
vt 0.234375 0.125000
vt 0.250000 0.500000
vt 0.000000 0.500000
vt 0.265625 0.125000
vt 0.484375 0.125000
vt 0.500000 0.500000
vt 0.515625 0.125000
vt 0.734375 0.125000
vt 0.750000 0.500000
vt 0.765625 0.125000
vt 0.984375 0.125000
vt 1.000000 0.500000
vt 0.015625 0.125000
vt 0.234375 0.125000
vt 0.000000 0.500000
vt 0.500000 1.000000
vt 0.250000 1.000000
vt 0.000000 1.000000
vt 1.000000 1.000000
vt 0.750000 1.000000
vt 0.500000 1.000000
vt 0.250000 1.000000
vt 0.000000 1.000000
vt 1.000000 1.000000
vt 0.750000 1.000000
vt 0.500000 1.000000
vt 0.250000 1.000000
vt 0.000000 1.000000
vt 1.000000 1.000000
vt 0.750000 1.000000
vt 0.718750 0.121114
vt 0.878886 0.281250
vt 0.937500 0.500000
vt 0.878886 0.718750
vt 0.718750 0.878886
vt 0.500000 0.937500
vt 0.281250 0.878886
vt 0.121114 0.718750
vt 0.062500 0.500000
vt 0.121114 0.281250
vt 0.281250 0.121114
vt 0.500000 0.062500
vn 0.2588 0.9659 0.0000
vn 0.0000 0.0000 -1.0000
vn 0.7071 0.7071 0.0000
vn 0.9659 0.2588 0.0000
vn 0.9659 -0.2588 -0.0000
vn 0.7071 -0.7071 -0.0000
vn 0.2588 -0.9659 -0.0000
vn -0.2588 -0.9659 -0.0000
vn -0.7071 -0.7071 -0.0000
vn -0.9659 -0.2588 -0.0000
vn -0.9659 0.2588 0.0000
vn -0.7071 0.7071 0.0000
vn -0.2588 0.9659 0.0000
vn 0.2555 0.9536 -0.1589
vn -0.2560 -0.9554 0.1472
vn 0.6981 0.6981 -0.1589
vn -0.6994 -0.6994 0.1472
vn 0.9536 0.2555 -0.1589
vn -0.9554 -0.2560 0.1472
vn 0.9536 -0.2555 -0.1589
vn -0.9554 0.2560 0.1472
vn 0.6981 -0.6981 -0.1589
vn -0.6994 0.6994 0.1472
vn 0.2555 -0.9536 -0.1589
vn -0.2560 0.9554 0.1472
vn -0.2555 -0.9536 -0.1589
vn 0.2560 0.9554 0.1472
vn -0.6981 -0.6981 -0.1589
vn 0.6994 0.6994 0.1472
vn -0.9536 -0.2555 -0.1589
vn 0.9554 0.2560 0.1472
vn -0.9536 0.2555 -0.1589
vn 0.9554 -0.2560 0.1472
vn -0.6981 0.6981 -0.1589
vn 0.6994 -0.6994 0.1472
vn -0.2555 0.9536 -0.1589
vn 0.2560 -0.9554 0.1472
vn 0.2555 0.9536 0.1589
vn 0.6981 0.6981 0.1589
vn 0.9536 0.2555 0.1589
vn 0.9536 -0.2555 0.1589
vn 0.6981 -0.6981 0.1589
vn 0.2555 -0.9536 0.1589
vn -0.2555 -0.9536 0.1589
vn -0.6981 -0.6981 0.1589
vn -0.9536 -0.2555 0.1589
vn -0.9536 0.2555 0.1589
vn -0.6981 0.6981 0.1589
vn -0.2555 0.9536 0.1589
vn -0.0000 -0.0000 1.0000
usemtl m_794558ee-64ab-34c9-9fd6-bcd86b9abbb2
s 1
f 45/125/26 46/126/26 47/127/26 48/128/26
f 49/129/27 50/130/27 51/131/27 52/132/27
f 48/128/28 47/127/28 53/133/28 54/134/28
f 50/135/27 55/136/27 56/137/27 51/138/27
f 54/134/29 53/133/29 57/139/29 58/140/29
f 55/141/27 59/142/27 60/143/27 56/144/27
f 58/145/30 57/146/30 61/147/30 62/148/30
f 59/149/27 63/150/27 64/151/27 60/152/27
f 62/148/31 61/147/31 65/153/31 66/154/31
f 63/155/27 67/156/27 68/157/27 64/158/27
f 66/154/32 65/153/32 69/159/32 70/160/32
f 67/161/27 71/162/27 72/163/27 68/164/27
f 70/160/33 69/159/33 73/165/33 74/166/33
f 71/167/27 75/168/27 76/169/27 72/170/27
f 74/171/34 73/172/34 77/173/34 78/174/34
f 75/175/27 79/176/27 80/177/27 76/178/27
f 78/174/35 77/173/35 81/179/35 82/180/35
f 79/181/27 83/182/27 84/183/27 80/184/27
f 82/180/36 81/179/36 85/185/36 86/186/36
f 83/187/27 87/188/27 88/189/27 84/190/27
f 86/186/37 85/185/37 89/191/37 90/192/37
f 87/193/27 91/194/27 92/195/27 88/196/27
f 90/197/38 89/198/38 46/126/38 45/125/38
f 91/199/27 49/200/27 52/201/27 92/202/27
f 50/203/39 49/204/39 45/125/39 48/128/39
f 52/205/40 51/206/40 93/207/40 94/208/40
f 55/209/41 50/210/41 48/128/41 54/134/41
f 51/211/42 56/212/42 95/213/42 93/214/42
f 59/215/43 55/216/43 54/134/43 58/140/43
f 56/217/44 60/218/44 96/219/44 95/220/44
f 63/221/45 59/222/45 58/145/45 62/148/45
f 60/223/46 64/224/46 97/225/46 96/226/46
f 67/227/47 63/228/47 62/148/47 66/154/47
f 64/229/48 68/230/48 98/231/48 97/232/48
f 71/233/49 67/234/49 66/154/49 70/160/49
f 68/235/50 72/236/50 99/237/50 98/238/50
f 75/239/51 71/240/51 70/160/51 74/166/51
f 72/241/52 76/242/52 100/243/52 99/244/52
f 79/245/53 75/246/53 74/171/53 78/174/53
f 76/247/54 80/248/54 101/249/54 100/250/54
f 83/251/55 79/252/55 78/174/55 82/180/55
f 80/253/56 84/254/56 102/255/56 101/256/56
f 87/257/57 83/258/57 82/180/57 86/186/57
f 84/259/58 88/260/58 103/261/58 102/262/58
f 91/263/59 87/264/59 86/186/59 90/192/59
f 88/265/60 92/266/60 104/267/60 103/268/60
f 49/269/61 91/270/61 90/197/61 45/125/61
f 92/271/62 52/272/62 94/273/62 104/274/62
usemtl m_89232e9c-65ac-1f87-4ba7-c0680809b3e9
f 105/275/63 106/276/63 107/277/63 108/278/63
f 106/279/64 109/280/64 110/281/64 107/277/64
f 109/282/65 111/283/65 112/284/65 110/281/65
f 111/285/66 113/286/66 114/287/66 112/288/66
f 113/289/67 115/290/67 116/291/67 114/287/67
f 115/292/68 117/293/68 118/294/68 116/291/68
f 117/295/69 119/296/69 120/297/69 118/294/69
f 119/298/70 121/299/70 122/300/70 120/301/70
f 121/302/71 123/303/71 124/304/71 122/300/71
f 123/305/72 125/306/72 126/307/72 124/304/72
f 125/308/73 127/309/73 128/310/73 126/307/73
f 127/311/74 105/312/74 108/278/74 128/313/74
f 107/277/26 47/314/26 46/315/26 108/278/26
f 108/278/38 46/315/38 89/316/38 128/313/38
f 128/310/37 89/317/37 85/318/37 126/307/37
f 126/307/36 85/318/36 81/319/36 124/304/36
f 124/304/35 81/319/35 77/320/35 122/300/35
f 122/300/34 77/320/34 73/321/34 120/301/34
f 120/297/33 73/322/33 69/323/33 118/294/33
f 118/294/32 69/323/32 65/324/32 116/291/32
f 116/291/31 65/324/31 61/325/31 114/287/31
f 114/287/30 61/325/30 57/326/30 112/288/30
f 112/284/29 57/327/29 53/328/29 110/281/29
f 110/281/28 53/328/28 47/314/28 107/277/28
usemtl m_0e49dee6-390d-650b-8c13-088bedf7a6b0
f 115/329/75 113/330/75 111/331/75 109/332/75
f 109/332/75 106/333/75 105/334/75 127/335/75
f 127/335/75 125/336/75 123/337/75 121/338/75
f 121/338/75 119/339/75 117/340/75 115/329/75
f 115/329/75 109/332/75 127/335/75 121/338/75
