# Blender v3.2.2 OBJ File: ''
# www.blender.org
mtllib tall_round_barrel.mtl
o stand1
v 1.000000 0.437500 -0.562500
v 1.000000 0.437500 -0.468750
v 1.000000 0.000000 -0.468750
v 1.000000 0.000000 -0.562500
v 0.000000 0.000000 -0.468750
v 0.000000 0.437500 -0.468750
v 0.000000 0.437500 -0.562500
v 0.000000 0.000000 -0.562500
v 0.906250 0.437500 -0.562500
v 0.750000 0.187500 -0.562500
v 0.750000 0.187500 -0.468750
v 0.906250 0.437500 -0.468750
v 0.906250 0.000000 -0.468750
v 0.750000 0.000000 -0.468750
v 0.750000 0.000000 -0.562500
v 0.906250 0.000000 -0.562500
v 0.093750 0.437500 -0.562500
v 0.250000 0.187500 -0.562500
v 0.250000 0.000000 -0.562500
v 0.093750 0.000000 -0.562500
v 0.250000 0.000000 -0.468750
v 0.093750 0.000000 -0.468750
v 0.250000 0.187500 -0.468750
v 0.093750 0.437500 -0.468750
v 0.500000 0.000000 -0.562500
v 0.500000 0.093750 -0.562500
v 0.500000 0.093750 -0.468750
v 0.500000 0.000000 -0.468750
vt 0.093750 0.937500
vt 0.000000 0.937500
vt 0.000000 0.500000
vt 0.093750 0.500000
vt 0.093750 0.500000
vt 0.093750 0.937500
vt 0.000000 0.937500
vt 0.000000 0.500000
vt 0.906250 0.500000
vt 0.625000 0.500000
vt 0.625000 0.406250
vt 0.906250 0.406250
vt 0.906250 0.093750
vt 0.750000 0.093750
vt 0.750000 0.000000
vt 0.906250 0.000000
vt 0.906250 0.437500
vt 0.750000 0.187500
vt 0.750000 0.000000
vt 0.906250 0.000000
vt 0.093750 0.000000
vt 0.250000 0.000000
vt 0.250000 0.187500
vt 0.093750 0.437500
vt 0.906250 0.437500
vt 0.750000 0.187500
vt 0.750000 0.000000
vt 0.906250 0.000000
vt 0.093750 0.000000
vt 0.250000 0.000000
vt 0.250000 0.093750
vt 0.093750 0.093750
vt 0.093750 0.000000
vt 0.250000 0.000000
vt 0.250000 0.187500
vt 0.093750 0.437500
vt 0.375000 0.500000
vt 0.093750 0.500000
vt 0.093750 0.406250
vt 0.375000 0.406250
vt 0.000000 0.000000
vt 0.000000 0.437500
vt 1.000000 0.500000
vt 1.000000 0.406250
vt 1.000000 0.437500
vt 1.000000 0.000000
vt 1.000000 0.093750
vt 1.000000 0.000000
vt 1.000000 0.437500
vt 1.000000 0.000000
vt 0.000000 0.000000
vt 0.000000 0.093750
vt 0.000000 0.000000
vt 0.000000 0.437500
vt 0.000000 0.406250
vt 0.093750 0.406250
vt 0.093750 0.500000
vt 0.000000 0.500000
vt 0.500000 0.000000
vt 0.500000 0.093750
vt 0.656250 0.500000
vt 0.375000 0.500000
vt 0.375000 0.406250
vt 0.656250 0.406250
vt 0.500000 0.093750
vt 0.500000 0.000000
vt 0.500000 0.093750
vt 0.625000 0.500000
vt 0.343750 0.500000
vt 0.343750 0.406250
vt 0.625000 0.406250
vn 1.0000 0.0000 0.0000
vn -1.0000 0.0000 0.0000
vn -0.8480 0.5300 0.0000
vn 0.0000 -1.0000 -0.0000
vn 0.0000 -0.0000 1.0000
vn -0.0000 0.0000 -1.0000
vn 0.8480 0.5300 0.0000
vn 0.0000 1.0000 0.0000
vn 0.3511 0.9363 0.0000
vn -0.3511 0.9363 0.0000
usemtl m_d88bf6ab-ce19-65cc-3eb9-af01bc59f3b3
s 1
f 1/1/1 2/2/1 3/3/1 4/4/1
f 5/5/2 6/6/2 7/7/2 8/8/2
f 9/9/3 10/10/3 11/11/3 12/12/3
f 13/13/4 14/14/4 15/15/4 16/16/4
f 12/17/5 11/18/5 14/19/5 13/20/5
f 16/21/6 15/22/6 10/23/6 9/24/6
f 17/25/6 18/26/6 19/27/6 20/28/6
f 20/29/4 19/30/4 21/31/4 22/32/4
f 22/33/5 21/34/5 23/35/5 24/36/5
f 24/37/7 23/38/7 18/39/7 17/40/7
f 4/41/6 16/21/6 9/24/6 1/42/6
f 1/43/8 9/9/8 12/12/8 2/44/8
f 2/45/5 12/17/5 13/20/5 3/46/5
f 3/47/4 13/13/4 16/16/4 4/48/4
f 7/49/6 17/25/6 20/28/6 8/50/6
f 8/51/4 20/29/4 22/32/4 5/52/4
f 5/53/5 22/33/5 24/36/5 6/54/5
f 6/55/8 24/56/8 17/57/8 7/58/8
f 25/59/6 19/27/6 18/26/6 26/60/6
f 26/61/9 18/62/9 23/63/9 27/64/9
f 27/65/5 23/35/5 21/34/5 28/66/5
f 28/67/4 21/31/4 19/30/4 25/59/4
f 26/60/6 10/23/6 15/22/6 25/59/6
f 25/59/4 15/15/4 14/14/4 28/67/4
f 28/66/5 14/19/5 11/18/5 27/65/5
f 27/68/10 11/69/10 10/70/10 26/71/10
o cube
v 0.064062 0.096875 -0.593750
v 0.064062 0.096875 0.343750
v 0.064062 0.003125 0.343750
v 0.064062 0.003125 -0.593750
v 0.001563 0.003125 -0.593750
v 0.001563 0.003125 0.343750
v 0.001563 0.096875 0.343750
v 0.001563 0.096875 -0.593750
v 0.064062 0.003125 0.906250
v 0.064062 0.096875 0.906250
v 0.001563 0.096875 0.906250
v 0.001563 0.003125 0.906250
vt 1.000000 0.093750
vt 0.062500 0.093750
vt 0.062500 0.000000
vt 1.000000 0.000000
vt 0.062500 0.000000
vt 1.000000 0.000000
vt 1.000000 0.093750
vt 0.062500 0.093750
vt 1.000000 0.031250
vt 0.062500 0.031250
vt 1.000000 0.093750
vt 0.062500 0.093750
vt 0.062500 0.031250
vt 1.000000 0.031250
vt 0.062500 0.906250
vt 0.062500 1.000000
vt 0.000000 1.000000
vt 0.000000 0.906250
vt 0.062500 0.906250
vt 0.062500 1.000000
vt 0.000000 1.000000
vt 0.000000 0.906250
vt 0.562500 0.093750
vt 0.000000 0.093750
vt 0.000000 0.000000
vt 0.562500 0.000000
vt 0.000000 0.031250
vt 0.562500 0.031250
vt 0.562500 0.093750
vt 0.000000 0.093750
vt 0.000000 0.000000
vt 0.562500 0.000000
vt 0.562500 0.093750
vt 0.000000 0.093750
vt 0.562500 0.031250
vt 0.000000 0.031250
vn 1.0000 0.0000 0.0000
vn -1.0000 0.0000 0.0000
vn 0.0000 1.0000 0.0000
vn 0.0000 -1.0000 -0.0000
vn 0.0000 0.0000 1.0000
vn 0.0000 0.0000 -1.0000
usemtl m_d88bf6ab-ce19-65cc-3eb9-af01bc59f3b3
s 1
f 29/72/11 30/73/11 31/74/11 32/75/11
f 33/76/12 34/77/12 35/78/12 36/79/12
f 36/80/13 35/81/13 30/73/13 29/72/13
f 32/82/14 31/83/14 34/84/14 33/85/14
f 37/86/15 38/87/15 39/88/15 40/89/15
f 33/90/16 36/91/16 29/92/16 32/93/16
f 39/94/12 35/95/12 34/96/12 40/97/12
f 40/98/14 34/99/14 31/100/14 37/101/14
f 37/102/11 31/103/11 30/104/11 38/105/11
f 38/105/13 30/104/13 35/106/13 39/107/13
o cube.000
v 1.001562 0.096875 -0.593750
v 1.001562 0.096875 0.343750
v 1.001562 0.003125 0.343750
v 1.001562 0.003125 -0.593750
v 0.939062 0.003125 -0.593750
v 0.939062 0.003125 0.343750
v 0.939062 0.096875 0.343750
v 0.939062 0.096875 -0.593750
v 1.001562 0.003125 0.906250
v 1.001562 0.096875 0.906250
v 0.939062 0.096875 0.906250
v 0.939062 0.003125 0.906250
vt 1.000000 0.093750
vt 0.062500 0.093750
vt 0.062500 0.000000
vt 1.000000 0.000000
vt 0.062500 0.000000
vt 1.000000 0.000000
vt 1.000000 0.093750
vt 0.062500 0.093750
vt 1.000000 0.031250
vt 0.062500 0.031250
vt 1.000000 0.093750
vt 0.062500 0.093750
vt 0.062500 0.031250
vt 1.000000 0.031250
vt 0.062500 0.906250
vt 0.062500 1.000000
vt 0.000000 1.000000
vt 0.000000 0.906250
vt 0.062500 0.906250
vt 0.062500 1.000000
vt 0.000000 1.000000
vt 0.000000 0.906250
vt 0.562500 0.093750
vt 0.000000 0.093750
vt 0.000000 0.000000
vt 0.562500 0.000000
vt 0.000000 0.031250
vt 0.562500 0.031250
vt 0.562500 0.093750
vt 0.000000 0.093750
vt 0.000000 0.000000
vt 0.562500 0.000000
vt 0.562500 0.093750
vt 0.000000 0.093750
vt 0.562500 0.031250
vt 0.000000 0.031250
vn 1.0000 0.0000 0.0000
vn -1.0000 0.0000 0.0000
vn 0.0000 1.0000 0.0000
vn 0.0000 -1.0000 -0.0000
vn 0.0000 0.0000 1.0000
vn 0.0000 0.0000 -1.0000
usemtl m_d88bf6ab-ce19-65cc-3eb9-af01bc59f3b3
s 1
f 41/108/17 42/109/17 43/110/17 44/111/17
f 45/112/18 46/113/18 47/114/18 48/115/18
f 48/116/19 47/117/19 42/109/19 41/108/19
f 44/118/20 43/119/20 46/120/20 45/121/20
f 49/122/21 50/123/21 51/124/21 52/125/21
f 45/126/22 48/127/22 41/128/22 44/129/22
f 51/130/18 47/131/18 46/132/18 52/133/18
f 52/134/20 46/135/20 43/136/20 49/137/20
f 49/138/17 43/139/17 42/140/17 50/141/17
f 50/141/19 42/140/19 47/142/19 51/143/19
o stand2
v 1.000000 0.437500 0.781250
v 1.000000 0.437500 0.875000
v 1.000000 -0.000000 0.875000
v 1.000000 -0.000000 0.781250
v 0.000000 -0.000000 0.875000
v 0.000000 0.437500 0.875000
v 0.000000 0.437500 0.781250
v 0.000000 -0.000000 0.781250
v 0.906250 0.437500 0.781250
v 0.750000 0.187500 0.781250
v 0.750000 0.187500 0.875000
v 0.906250 0.437500 0.875000
v 0.906250 -0.000000 0.875000
v 0.750000 -0.000000 0.875000
v 0.750000 -0.000000 0.781250
v 0.906250 -0.000000 0.781250
v 0.093750 0.437500 0.781250
v 0.250000 0.187500 0.781250
v 0.250000 -0.000000 0.781250
v 0.093750 -0.000000 0.781250
v 0.250000 -0.000000 0.875000
v 0.093750 -0.000000 0.875000
v 0.250000 0.187500 0.875000
v 0.093750 0.437500 0.875000
v 0.500000 -0.000000 0.781250
v 0.500000 0.093750 0.781250
v 0.500000 0.093750 0.875000
v 0.500000 -0.000000 0.875000
vt 0.093750 0.937500
vt 0.000000 0.937500
vt 0.000000 0.500000
vt 0.093750 0.500000
vt 0.093750 0.500000
vt 0.093750 0.937500
vt 0.000000 0.937500
vt 0.000000 0.500000
vt 0.906250 0.500000
vt 0.625000 0.500000
vt 0.625000 0.406250
vt 0.906250 0.406250
vt 0.906250 0.093750
vt 0.750000 0.093750
vt 0.750000 0.000000
vt 0.906250 0.000000
vt 0.906250 0.437500
vt 0.750000 0.187500
vt 0.750000 0.000000
vt 0.906250 0.000000
vt 0.093750 0.000000
vt 0.250000 0.000000
vt 0.250000 0.187500
vt 0.093750 0.437500
vt 0.906250 0.437500
vt 0.750000 0.187500
vt 0.750000 0.000000
vt 0.906250 0.000000
vt 0.093750 0.000000
vt 0.250000 0.000000
vt 0.250000 0.093750
vt 0.093750 0.093750
vt 0.093750 0.000000
vt 0.250000 0.000000
vt 0.250000 0.187500
vt 0.093750 0.437500
vt 0.375000 0.500000
vt 0.093750 0.500000
vt 0.093750 0.406250
vt 0.375000 0.406250
vt 0.000000 0.000000
vt 0.000000 0.437500
vt 1.000000 0.500000
vt 1.000000 0.406250
vt 1.000000 0.437500
vt 1.000000 0.000000
vt 1.000000 0.093750
vt 1.000000 0.000000
vt 1.000000 0.437500
vt 1.000000 0.000000
vt 0.000000 0.000000
vt 0.000000 0.093750
vt 0.000000 0.000000
vt 0.000000 0.437500
vt 0.000000 0.406250
vt 0.093750 0.406250
vt 0.093750 0.500000
vt 0.000000 0.500000
vt 0.500000 0.000000
vt 0.500000 0.093750
vt 0.656250 0.500000
vt 0.375000 0.500000
vt 0.375000 0.406250
vt 0.656250 0.406250
vt 0.500000 0.093750
vt 0.500000 0.000000
vt 0.500000 0.093750
vt 0.625000 0.500000
vt 0.343750 0.500000
vt 0.343750 0.406250
vt 0.625000 0.406250
vn 1.0000 0.0000 0.0000
vn -1.0000 0.0000 0.0000
vn -0.8480 0.5300 0.0000
vn 0.0000 -1.0000 -0.0000
vn 0.0000 -0.0000 1.0000
vn -0.0000 0.0000 -1.0000
vn 0.8480 0.5300 0.0000
vn 0.0000 1.0000 0.0000
vn 0.3511 0.9363 0.0000
vn -0.3511 0.9363 0.0000
usemtl m_d88bf6ab-ce19-65cc-3eb9-af01bc59f3b3
s 1
f 53/144/23 54/145/23 55/146/23 56/147/23
f 57/148/24 58/149/24 59/150/24 60/151/24
f 61/152/25 62/153/25 63/154/25 64/155/25
f 65/156/26 66/157/26 67/158/26 68/159/26
f 64/160/27 63/161/27 66/162/27 65/163/27
f 68/164/28 67/165/28 62/166/28 61/167/28
f 69/168/28 70/169/28 71/170/28 72/171/28
f 72/172/26 71/173/26 73/174/26 74/175/26
f 74/176/27 73/177/27 75/178/27 76/179/27
f 76/180/29 75/181/29 70/182/29 69/183/29
f 56/184/28 68/164/28 61/167/28 53/185/28
f 53/186/30 61/152/30 64/155/30 54/187/30
f 54/188/27 64/160/27 65/163/27 55/189/27
f 55/190/26 65/156/26 68/159/26 56/191/26
f 59/192/28 69/168/28 72/171/28 60/193/28
f 60/194/26 72/172/26 74/175/26 57/195/26
f 57/196/27 74/176/27 76/179/27 58/197/27
f 58/198/30 76/199/30 69/200/30 59/201/30
f 77/202/28 71/170/28 70/169/28 78/203/28
f 78/204/31 70/205/31 75/206/31 79/207/31
f 79/208/27 75/178/27 73/177/27 80/209/27
f 80/210/26 73/174/26 71/173/26 77/202/26
f 78/203/28 62/166/28 67/165/28 77/202/28
f 77/202/26 67/158/26 66/157/26 80/210/26
f 80/209/27 66/162/27 63/161/27 79/208/27
f 79/211/32 63/212/32 62/213/32 78/214/32
