# Blender v3.2.2 OBJ File: ''
# www.blender.org
mtllib water_wheel.mtl
o cube
v -0.538339 0.750000 -0.014656
v -0.598133 0.750000 0.129700
v -0.598133 1.062500 0.129701
v -0.538339 1.062500 -0.014656
v -0.393982 0.750000 0.045139
v -0.393982 1.062500 0.045139
v -0.453777 0.750000 0.189495
v -0.453777 1.062500 0.189495
vt 0.921875 0.000000
vt 1.000000 0.000000
vt 1.000000 0.156250
vt 0.921875 0.156250
vt 0.921875 0.000000
vt 1.000000 0.000000
vt 1.000000 0.156250
vt 0.921875 0.156250
vt 0.921875 0.000000
vt 1.000000 0.000000
vt 1.000000 0.156250
vt 0.921875 0.156250
vt 0.921875 0.000000
vt 1.000000 0.000000
vt 1.000000 0.156250
vt 0.921875 0.156250
vt 0.843750 0.000000
vt 0.921875 0.000000
vt 0.921875 0.078125
vt 0.843750 0.078125
vt 0.843750 0.000000
vt 0.921875 0.078125
vt 0.843750 0.078125
vn -0.9239 0.0000 -0.3827
vn 0.3827 0.0000 -0.9239
vn 0.9239 0.0000 0.3827
vn -0.3827 -0.0000 0.9239
vn 0.0000 1.0000 -0.0000
vn -0.0000 -1.0000 0.0000
usemtl m_d944b0fb-99e0-7302-c9ad-03d63b4731a6
s 1
f 1/1/1 2/2/1 3/3/1 4/4/1
f 5/5/2 1/6/2 4/7/2 6/8/2
f 7/9/3 5/10/3 6/11/3 8/12/3
f 2/13/4 7/14/4 8/15/4 3/16/4
f 8/17/5 6/18/5 4/19/5 3/20/5
f 2/21/6 1/1/6 5/22/6 7/23/6
o cube.000
v -0.262349 0.750000 -0.372835
v -0.372835 0.750000 -0.262349
v -0.372835 1.062500 -0.262349
v -0.262349 1.062500 -0.372835
v -0.151864 0.750000 -0.262349
v -0.151864 1.062500 -0.262349
v -0.262349 0.750000 -0.151864
v -0.262349 1.062500 -0.151864
vt 0.921875 0.000000
vt 1.000000 0.000000
vt 1.000000 0.156250
vt 0.921875 0.156250
vt 0.921875 0.000000
vt 1.000000 0.000000
vt 1.000000 0.156250
vt 0.921875 0.156250
vt 0.921875 0.000000
vt 1.000000 0.000000
vt 1.000000 0.156250
vt 0.921875 0.156250
vt 0.921875 0.000000
vt 1.000000 0.000000
vt 1.000000 0.156250
vt 0.921875 0.156250
vt 0.843750 0.000000
vt 0.921875 0.000000
vt 0.921875 0.078125
vt 0.843750 0.078125
vt 0.843750 0.000000
vt 0.921875 0.078125
vt 0.843750 0.078125
vn -0.7071 0.0000 -0.7071
vn 0.7071 0.0000 -0.7071
vn 0.7071 -0.0000 0.7071
vn -0.7071 -0.0000 0.7071
vn 0.0000 1.0000 0.0000
vn 0.0000 -1.0000 -0.0000
usemtl m_d944b0fb-99e0-7302-c9ad-03d63b4731a6
s 1
f 9/24/7 10/25/7 11/26/7 12/27/7
f 13/28/8 9/29/8 12/30/8 14/31/8
f 15/32/9 13/33/9 14/34/9 16/35/9
f 10/36/10 15/37/10 16/38/10 11/39/10
f 16/40/11 14/41/11 12/42/11 11/43/11
f 10/44/12 9/24/12 13/45/12 15/46/12
o cube.001
v 0.129700 0.750000 -0.598133
v -0.014656 0.750000 -0.538338
v -0.014656 1.062500 -0.538338
v 0.129700 1.062500 -0.598133
v 0.189495 0.750000 -0.453777
v 0.189495 1.062500 -0.453777
v 0.045138 0.750000 -0.393982
v 0.045138 1.062500 -0.393982
vt 0.921875 0.000000
vt 1.000000 0.000000
vt 1.000000 0.156250
vt 0.921875 0.156250
vt 0.921875 0.000000
vt 1.000000 0.000000
vt 1.000000 0.156250
vt 0.921875 0.156250
vt 0.921875 0.000000
vt 1.000000 0.000000
vt 1.000000 0.156250
vt 0.921875 0.156250
vt 0.921875 0.000000
vt 1.000000 0.000000
vt 1.000000 0.156250
vt 0.921875 0.156250
vt 0.843750 0.000000
vt 0.921875 0.000000
vt 0.921875 0.078125
vt 0.843750 0.078125
vt 0.843750 0.000000
vt 0.921875 0.078125
vt 0.843750 0.078125
vn -0.3827 0.0000 -0.9239
vn 0.9239 0.0000 -0.3827
vn 0.3827 -0.0000 0.9239
vn -0.9239 -0.0000 0.3827
vn 0.0000 1.0000 0.0000
vn 0.0000 -1.0000 -0.0000
usemtl m_d944b0fb-99e0-7302-c9ad-03d63b4731a6
s 1
f 17/47/13 18/48/13 19/49/13 20/50/13
f 21/51/14 17/52/14 20/53/14 22/54/14
f 23/55/15 21/56/15 22/57/15 24/58/15
f 18/59/16 23/60/16 24/61/16 19/62/16
f 24/63/17 22/64/17 20/65/17 19/66/17
f 18/67/18 17/47/18 21/68/18 23/69/18
o cube.002
v 0.578125 0.750000 -0.656250
v 0.421875 0.750000 -0.656250
v 0.421875 1.062500 -0.656250
v 0.578125 1.062500 -0.656250
v 0.578125 0.750000 -0.500000
v 0.578125 1.062500 -0.500000
v 0.421875 0.750000 -0.500000
v 0.421875 1.062500 -0.500000
vt 0.921875 0.000000
vt 1.000000 0.000000
vt 1.000000 0.156250
vt 0.921875 0.156250
vt 0.921875 0.000000
vt 1.000000 0.000000
vt 1.000000 0.156250
vt 0.921875 0.156250
vt 0.921875 0.000000
vt 1.000000 0.000000
vt 1.000000 0.156250
vt 0.921875 0.156250
vt 0.921875 0.000000
vt 1.000000 0.000000
vt 1.000000 0.156250
vt 0.921875 0.156250
vt 0.843750 0.000000
vt 0.921875 0.000000
vt 0.921875 0.078125
vt 0.843750 0.078125
vt 0.843750 0.000000
vt 0.921875 0.078125
vt 0.843750 0.078125
vn 0.0000 0.0000 -1.0000
vn 1.0000 0.0000 0.0000
vn 0.0000 -0.0000 1.0000
vn -1.0000 0.0000 0.0000
vn 0.0000 1.0000 0.0000
vn 0.0000 -1.0000 -0.0000
usemtl m_d944b0fb-99e0-7302-c9ad-03d63b4731a6
s 1
f 25/70/19 26/71/19 27/72/19 28/73/19
f 29/74/20 25/75/20 28/76/20 30/77/20
f 31/78/21 29/79/21 30/80/21 32/81/21
f 26/82/22 31/83/22 32/84/22 27/85/22
f 32/86/23 30/87/23 28/88/23 27/89/23
f 26/90/24 25/70/24 29/91/24 31/92/24
o cube.003
v 1.014656 0.750000 -0.538338
v 0.870300 0.750000 -0.598133
v 0.870300 1.062500 -0.598133
v 1.014656 1.062500 -0.538338
v 0.954862 0.750000 -0.393982
v 0.954862 1.062500 -0.393982
v 0.810505 0.750000 -0.453777
v 0.810505 1.062500 -0.453777
vt 0.921875 0.000000
vt 1.000000 0.000000
vt 1.000000 0.156250
vt 0.921875 0.156250
vt 0.921875 0.000000
vt 1.000000 0.000000
vt 1.000000 0.156250
vt 0.921875 0.156250
vt 0.921875 0.000000
vt 1.000000 0.000000
vt 1.000000 0.156250
vt 0.921875 0.156250
vt 0.921875 0.000000
vt 1.000000 0.000000
vt 1.000000 0.156250
vt 0.921875 0.156250
vt 0.843750 0.000000
vt 0.921875 0.000000
vt 0.921875 0.078125
vt 0.843750 0.078125
vt 0.843750 0.000000
vt 0.921875 0.078125
vt 0.843750 0.078125
vn 0.3827 0.0000 -0.9239
vn 0.9239 0.0000 0.3827
vn -0.3827 -0.0000 0.9239
vn -0.9239 0.0000 -0.3827
vn 0.0000 1.0000 0.0000
vn -0.0000 -1.0000 -0.0000
usemtl m_d944b0fb-99e0-7302-c9ad-03d63b4731a6
s 1
f 33/93/25 34/94/25 35/95/25 36/96/25
f 37/97/26 33/98/26 36/99/26 38/100/26
f 39/101/27 37/102/27 38/103/27 40/104/27
f 34/105/28 39/106/28 40/107/28 35/108/28
f 40/109/29 38/110/29 36/111/29 35/112/29
f 34/113/30 33/93/30 37/114/30 39/115/30
o cube.004
v 1.372835 0.750000 -0.262349
v 1.262349 0.750000 -0.372835
v 1.262349 1.062500 -0.372835
v 1.372835 1.062500 -0.262349
v 1.262349 0.750000 -0.151864
v 1.262349 1.062500 -0.151864
v 1.151864 0.750000 -0.262349
v 1.151864 1.062500 -0.262349
vt 0.921875 0.000000
vt 1.000000 0.000000
vt 1.000000 0.156250
vt 0.921875 0.156250
vt 0.921875 0.000000
vt 1.000000 0.000000
vt 1.000000 0.156250
vt 0.921875 0.156250
vt 0.921875 0.000000
vt 1.000000 0.000000
vt 1.000000 0.156250
vt 0.921875 0.156250
vt 0.921875 0.000000
vt 1.000000 0.000000
vt 1.000000 0.156250
vt 0.921875 0.156250
vt 0.843750 0.000000
vt 0.921875 0.000000
vt 0.921875 0.078125
vt 0.843750 0.078125
vt 0.843750 0.000000
vt 0.921875 0.078125
vt 0.843750 0.078125
vn 0.7071 0.0000 -0.7071
vn 0.7071 0.0000 0.7071
vn -0.7071 0.0000 0.7071
vn -0.7071 0.0000 -0.7071
vn 0.0000 1.0000 0.0000
vn 0.0000 -1.0000 -0.0000
usemtl m_d944b0fb-99e0-7302-c9ad-03d63b4731a6
s 1
f 41/116/31 42/117/31 43/118/31 44/119/31
f 45/120/32 41/121/32 44/122/32 46/123/32
f 47/124/33 45/125/33 46/126/33 48/127/33
f 42/128/34 47/129/34 48/130/34 43/131/34
f 48/132/35 46/133/35 44/134/35 43/135/35
f 42/136/36 41/116/36 45/137/36 47/138/36
o cube.005
v 1.598133 0.750000 0.129700
v 1.538339 0.750000 -0.014656
v 1.538339 1.062500 -0.014656
v 1.598133 1.062500 0.129701
v 1.453777 0.750000 0.189495
v 1.453777 1.062500 0.189495
v 1.393982 0.750000 0.045139
v 1.393982 1.062500 0.045139
vt 0.921875 0.000000
vt 1.000000 0.000000
vt 1.000000 0.156250
vt 0.921875 0.156250
vt 0.921875 0.000000
vt 1.000000 0.000000
vt 1.000000 0.156250
vt 0.921875 0.156250
vt 0.921875 0.000000
vt 1.000000 0.000000
vt 1.000000 0.156250
vt 0.921875 0.156250
vt 0.921875 0.000000
vt 1.000000 0.000000
vt 1.000000 0.156250
vt 0.921875 0.156250
vt 0.843750 0.000000
vt 0.921875 0.000000
vt 0.921875 0.078125
vt 0.843750 0.078125
vt 0.843750 0.000000
vt 0.921875 0.078125
vt 0.843750 0.078125
vn 0.9239 -0.0000 -0.3827
vn 0.3827 -0.0000 0.9239
vn -0.9239 0.0000 0.3827
vn -0.3827 0.0000 -0.9239
vn 0.0000 1.0000 0.0000
vn 0.0000 -1.0000 0.0000
usemtl m_d944b0fb-99e0-7302-c9ad-03d63b4731a6
s 1
f 49/139/37 50/140/37 51/141/37 52/142/37
f 53/143/38 49/144/38 52/145/38 54/146/38
f 55/147/39 53/148/39 54/149/39 56/150/39
f 50/151/40 55/152/40 56/153/40 51/154/40
f 56/155/41 54/156/41 52/157/41 51/158/41
f 50/159/42 49/139/42 53/160/42 55/161/42
o cube.006
v 1.656250 0.750000 0.578125
v 1.656250 0.750000 0.421875
v 1.656250 1.062500 0.421875
v 1.656250 1.062500 0.578125
v 1.500000 0.750000 0.578125
v 1.500000 1.062500 0.578125
v 1.500000 0.750000 0.421875
v 1.500000 1.062500 0.421875
vt 0.921875 0.000000
vt 1.000000 0.000000
vt 1.000000 0.156250
vt 0.921875 0.156250
vt 0.921875 0.000000
vt 1.000000 0.000000
vt 1.000000 0.156250
vt 0.921875 0.156250
vt 0.921875 0.000000
vt 1.000000 0.000000
vt 1.000000 0.156250
vt 0.921875 0.156250
vt 0.921875 0.000000
vt 1.000000 0.000000
vt 1.000000 0.156250
vt 0.921875 0.156250
vt 0.843750 0.000000
vt 0.921875 0.000000
vt 0.921875 0.078125
vt 0.843750 0.078125
vt 0.843750 0.000000
vt 0.921875 0.078125
vt 0.843750 0.078125
vn 1.0000 0.0000 0.0000
vn 0.0000 -0.0000 1.0000
vn -1.0000 0.0000 0.0000
vn 0.0000 0.0000 -1.0000
vn 0.0000 1.0000 0.0000
vn 0.0000 -1.0000 -0.0000
usemtl m_d944b0fb-99e0-7302-c9ad-03d63b4731a6
s 1
f 57/162/43 58/163/43 59/164/43 60/165/43
f 61/166/44 57/167/44 60/168/44 62/169/44
f 63/170/45 61/171/45 62/172/45 64/173/45
f 58/174/46 63/175/46 64/176/46 59/177/46
f 64/178/47 62/179/47 60/180/47 59/181/47
f 58/182/48 57/162/48 61/183/48 63/184/48
o cube.007
v 1.538339 0.750000 1.014656
v 1.598133 0.750000 0.870300
v 1.598133 1.062500 0.870300
v 1.538339 1.062500 1.014656
v 1.393982 0.750000 0.954862
v 1.393982 1.062500 0.954862
v 1.453777 0.750000 0.810505
v 1.453777 1.062500 0.810506
vt 0.921875 0.000000
vt 1.000000 0.000000
vt 1.000000 0.156250
vt 0.921875 0.156250
vt 0.921875 0.000000
vt 1.000000 0.000000
vt 1.000000 0.156250
vt 0.921875 0.156250
vt 0.921875 0.000000
vt 1.000000 0.000000
vt 1.000000 0.156250
vt 0.921875 0.156250
vt 0.921875 0.000000
vt 1.000000 0.000000
vt 1.000000 0.156250
vt 0.921875 0.156250
vt 0.843750 0.000000
vt 0.921875 0.000000
vt 0.921875 0.078125
vt 0.843750 0.078125
vt 0.843750 0.000000
vt 0.921875 0.078125
vt 0.843750 0.078125
vn 0.9239 0.0000 0.3827
vn -0.3827 -0.0000 0.9239
vn -0.9239 0.0000 -0.3827
vn 0.3827 0.0000 -0.9239
vn 0.0000 1.0000 0.0000
vn 0.0000 -1.0000 -0.0000
usemtl m_d944b0fb-99e0-7302-c9ad-03d63b4731a6
s 1
f 65/185/49 66/186/49 67/187/49 68/188/49
f 69/189/50 65/190/50 68/191/50 70/192/50
f 71/193/51 69/194/51 70/195/51 72/196/51
f 66/197/52 71/198/52 72/199/52 67/200/52
f 72/201/53 70/202/53 68/203/53 67/204/53
f 66/205/54 65/185/54 69/206/54 71/207/54
o cube.008
v 1.262349 0.750000 1.372835
v 1.372835 0.750000 1.262350
v 1.372835 1.062500 1.262350
v 1.262349 1.062500 1.372835
v 1.151864 0.750000 1.262350
v 1.151864 1.062500 1.262350
v 1.262349 0.750000 1.151864
v 1.262349 1.062500 1.151864
vt 0.921875 0.000000
vt 1.000000 0.000000
vt 1.000000 0.156250
vt 0.921875 0.156250
vt 0.921875 0.000000
vt 1.000000 0.000000
vt 1.000000 0.156250
vt 0.921875 0.156250
vt 0.921875 0.000000
vt 1.000000 0.000000
vt 1.000000 0.156250
vt 0.921875 0.156250
vt 0.921875 0.000000
vt 1.000000 0.000000
vt 1.000000 0.156250
vt 0.921875 0.156250
vt 0.843750 0.000000
vt 0.921875 0.000000
vt 0.921875 0.078125
vt 0.843750 0.078125
vt 0.843750 0.000000
vt 0.921875 0.078125
vt 0.843750 0.078125
vn 0.7071 0.0000 0.7071
vn -0.7071 0.0000 0.7071
vn -0.7071 0.0000 -0.7071
vn 0.7071 0.0000 -0.7071
vn 0.0000 1.0000 0.0000
vn 0.0000 -1.0000 -0.0000
usemtl m_d944b0fb-99e0-7302-c9ad-03d63b4731a6
s 1
f 73/208/55 74/209/55 75/210/55 76/211/55
f 77/212/56 73/213/56 76/214/56 78/215/56
f 79/216/57 77/217/57 78/218/57 80/219/57
f 74/220/58 79/221/58 80/222/58 75/223/58
f 80/224/59 78/225/59 76/226/59 75/227/59
f 74/228/60 73/208/60 77/229/60 79/230/60
o cube.009
v 0.870300 0.750000 1.598133
v 1.014656 0.750000 1.538339
v 1.014656 1.062500 1.538339
v 0.870300 1.062500 1.598133
v 0.810505 0.750000 1.453777
v 0.810505 1.062500 1.453777
v 0.954862 0.750000 1.393983
v 0.954862 1.062500 1.393983
vt 0.921875 0.000000
vt 1.000000 0.000000
vt 1.000000 0.156250
vt 0.921875 0.156250
vt 0.921875 0.000000
vt 1.000000 0.000000
vt 1.000000 0.156250
vt 0.921875 0.156250
vt 0.921875 0.000000
vt 1.000000 0.000000
vt 1.000000 0.156250
vt 0.921875 0.156250
vt 0.921875 0.000000
vt 1.000000 0.000000
vt 1.000000 0.156250
vt 0.921875 0.156250
vt 0.843750 0.000000
vt 0.921875 0.000000
vt 0.921875 0.078125
vt 0.843750 0.078125
vt 0.843750 0.000000
vt 0.921875 0.078125
vt 0.843750 0.078125
vn 0.3827 0.0000 0.9239
vn -0.9239 0.0000 0.3827
vn -0.3827 0.0000 -0.9239
vn 0.9239 0.0000 -0.3827
vn 0.0000 1.0000 0.0000
vn 0.0000 -1.0000 0.0000
usemtl m_d944b0fb-99e0-7302-c9ad-03d63b4731a6
s 1
f 81/231/61 82/232/61 83/233/61 84/234/61
f 85/235/62 81/236/62 84/237/62 86/238/62
f 87/239/63 85/240/63 86/241/63 88/242/63
f 82/243/64 87/244/64 88/245/64 83/246/64
f 88/247/65 86/248/65 84/249/65 83/250/65
f 82/251/66 81/231/66 85/252/66 87/253/66
o cube.010
v 0.421875 0.750000 1.656250
v 0.578125 0.750000 1.656250
v 0.578125 1.062500 1.656250
v 0.421875 1.062500 1.656250
v 0.421875 0.750000 1.500000
v 0.421875 1.062500 1.500000
v 0.578125 0.750000 1.500000
v 0.578125 1.062500 1.500000
vt 0.921875 0.000000
vt 1.000000 0.000000
vt 1.000000 0.156250
vt 0.921875 0.156250
vt 0.921875 0.000000
vt 1.000000 0.000000
vt 1.000000 0.156250
vt 0.921875 0.156250
vt 0.921875 0.000000
vt 1.000000 0.000000
vt 1.000000 0.156250
vt 0.921875 0.156250
vt 0.921875 0.000000
vt 1.000000 0.000000
vt 1.000000 0.156250
vt 0.921875 0.156250
vt 0.843750 0.000000
vt 0.921875 0.000000
vt 0.921875 0.078125
vt 0.843750 0.078125
vt 0.843750 0.000000
vt 0.921875 0.078125
vt 0.843750 0.078125
vn 0.0000 0.0000 1.0000
vn -1.0000 0.0000 0.0000
vn 0.0000 0.0000 -1.0000
vn 1.0000 0.0000 0.0000
vn 0.0000 1.0000 0.0000
vn 0.0000 -1.0000 -0.0000
usemtl m_d944b0fb-99e0-7302-c9ad-03d63b4731a6
s 1
f 89/254/67 90/255/67 91/256/67 92/257/67
f 93/258/68 89/259/68 92/260/68 94/261/68
f 95/262/69 93/263/69 94/264/69 96/265/69
f 90/266/70 95/267/70 96/268/70 91/269/70
f 96/270/71 94/271/71 92/272/71 91/273/71
f 90/274/72 89/254/72 93/275/72 95/276/72
o cube.011
v -0.014656 0.750000 1.538339
v 0.129700 0.750000 1.598133
v 0.129700 1.062500 1.598133
v -0.014656 1.062500 1.538339
v 0.045138 0.750000 1.393983
v 0.045138 1.062500 1.393983
v 0.189495 0.750000 1.453777
v 0.189495 1.062500 1.453777
vt 0.921875 0.000000
vt 1.000000 0.000000
vt 1.000000 0.156250
vt 0.921875 0.156250
vt 0.921875 0.000000
vt 1.000000 0.000000
vt 1.000000 0.156250
vt 0.921875 0.156250
vt 0.921875 0.000000
vt 1.000000 0.000000
vt 1.000000 0.156250
vt 0.921875 0.156250
vt 0.921875 0.000000
vt 1.000000 0.000000
vt 1.000000 0.156250
vt 0.921875 0.156250
vt 0.843750 0.000000
vt 0.921875 0.000000
vt 0.921875 0.078125
vt 0.843750 0.078125
vt 0.843750 0.000000
vt 0.921875 0.078125
vt 0.843750 0.078125
vn -0.3827 0.0000 0.9239
vn -0.9239 0.0000 -0.3827
vn 0.3827 0.0000 -0.9239
vn 0.9239 0.0000 0.3827
vn 0.0000 1.0000 0.0000
vn 0.0000 -1.0000 0.0000
usemtl m_d944b0fb-99e0-7302-c9ad-03d63b4731a6
s 1
f 97/277/73 98/278/73 99/279/73 100/280/73
f 101/281/74 97/282/74 100/283/74 102/284/74
f 103/285/75 101/286/75 102/287/75 104/288/75
f 98/289/76 103/290/76 104/291/76 99/292/76
f 104/293/77 102/294/77 100/295/77 99/296/77
f 98/297/78 97/277/78 101/298/78 103/299/78
o cube.012
v -0.372835 0.750000 1.262350
v -0.262349 0.750000 1.372835
v -0.262349 1.062500 1.372835
v -0.372835 1.062500 1.262350
v -0.262349 0.750000 1.151864
v -0.262349 1.062500 1.151864
v -0.151864 0.750000 1.262350
v -0.151864 1.062500 1.262350
vt 0.921875 0.000000
vt 1.000000 0.000000
vt 1.000000 0.156250
vt 0.921875 0.156250
vt 0.921875 0.000000
vt 1.000000 0.000000
vt 1.000000 0.156250
vt 0.921875 0.156250
vt 0.921875 0.000000
vt 1.000000 0.000000
vt 1.000000 0.156250
vt 0.921875 0.156250
vt 0.921875 0.000000
vt 1.000000 0.000000
vt 1.000000 0.156250
vt 0.921875 0.156250
vt 0.843750 0.000000
vt 0.921875 0.000000
vt 0.921875 0.078125
vt 0.843750 0.078125
vt 0.843750 0.000000
vt 0.921875 0.078125
vt 0.843750 0.078125
vn -0.7071 0.0000 0.7071
vn -0.7071 0.0000 -0.7071
vn 0.7071 0.0000 -0.7071
vn 0.7071 0.0000 0.7071
vn 0.0000 1.0000 0.0000
vn 0.0000 -1.0000 -0.0000
usemtl m_d944b0fb-99e0-7302-c9ad-03d63b4731a6
s 1
f 105/300/79 106/301/79 107/302/79 108/303/79
f 109/304/80 105/305/80 108/306/80 110/307/80
f 111/308/81 109/309/81 110/310/81 112/311/81
f 106/312/82 111/313/82 112/314/82 107/315/82
f 112/316/83 110/317/83 108/318/83 107/319/83
f 106/320/84 105/300/84 109/321/84 111/322/84
o cube.013
v -0.598133 0.750000 0.870300
v -0.538339 0.750000 1.014656
v -0.538339 1.062500 1.014656
v -0.598133 1.062500 0.870300
v -0.453777 0.750000 0.810505
v -0.453777 1.062500 0.810506
v -0.393982 0.750000 0.954862
v -0.393982 1.062500 0.954862
vt 0.921875 0.000000
vt 1.000000 0.000000
vt 1.000000 0.156250
vt 0.921875 0.156250
vt 0.921875 0.000000
vt 1.000000 0.000000
vt 1.000000 0.156250
vt 0.921875 0.156250
vt 0.921875 0.000000
vt 1.000000 0.000000
vt 1.000000 0.156250
vt 0.921875 0.156250
vt 0.921875 0.000000
vt 1.000000 0.000000
vt 1.000000 0.156250
vt 0.921875 0.156250
vt 0.843750 0.000000
vt 0.921875 0.000000
vt 0.921875 0.078125
vt 0.843750 0.078125
vt 0.843750 0.000000
vt 0.921875 0.078125
vt 0.843750 0.078125
vn -0.9239 0.0000 0.3827
vn -0.3827 0.0000 -0.9239
vn 0.9239 0.0000 -0.3827
vn 0.3827 -0.0000 0.9239
vn 0.0000 1.0000 0.0000
vn -0.0000 -1.0000 0.0000
usemtl m_d944b0fb-99e0-7302-c9ad-03d63b4731a6
s 1
f 113/323/85 114/324/85 115/325/85 116/326/85
f 117/327/86 113/328/86 116/329/86 118/330/86
f 119/331/87 117/332/87 118/333/87 120/334/87
f 114/335/88 119/336/88 120/337/88 115/338/88
f 120/339/89 118/340/89 116/341/89 115/342/89
f 114/343/90 113/323/90 117/344/90 119/345/90
o cube.014
v -0.656250 0.750000 0.421875
v -0.656250 0.750000 0.578125
v -0.656250 1.062500 0.578125
v -0.656250 1.062500 0.421875
v -0.500000 0.750000 0.421875
v -0.500000 1.062500 0.421875
v -0.500000 0.750000 0.578125
v -0.500000 1.062500 0.578125
vt 0.921875 0.000000
vt 1.000000 0.000000
vt 1.000000 0.156250
vt 0.921875 0.156250
vt 0.921875 0.000000
vt 1.000000 0.000000
vt 1.000000 0.156250
vt 0.921875 0.156250
vt 0.921875 0.000000
vt 1.000000 0.000000
vt 1.000000 0.156250
vt 0.921875 0.156250
vt 0.921875 0.000000
vt 1.000000 0.000000
vt 1.000000 0.156250
vt 0.921875 0.156250
vt 0.843750 0.000000
vt 0.921875 0.000000
vt 0.921875 0.078125
vt 0.843750 0.078125
vt 0.843750 0.000000
vt 0.921875 0.078125
vt 0.843750 0.078125
vn -1.0000 0.0000 0.0000
vn 0.0000 0.0000 -1.0000
vn 1.0000 0.0000 0.0000
vn 0.0000 -0.0000 1.0000
vn 0.0000 1.0000 0.0000
vn 0.0000 -1.0000 -0.0000
usemtl m_d944b0fb-99e0-7302-c9ad-03d63b4731a6
s 1
f 121/346/91 122/347/91 123/348/91 124/349/91
f 125/350/92 121/351/92 124/352/92 126/353/92
f 127/354/93 125/355/93 126/356/93 128/357/93
f 122/358/94 127/359/94 128/360/94 123/361/94
f 128/362/95 126/363/95 124/364/95 123/365/95
f 122/366/96 121/346/96 125/367/96 127/368/96
o shaft
v 0.750000 -0.000000 0.250000
v 0.250000 -0.000000 0.250000
v 0.250000 1.000000 0.250000
v 0.750000 1.000000 0.250000
v 0.750000 -0.000000 0.750000
v 0.750000 1.000000 0.750000
v 0.250000 -0.000000 0.750000
v 0.250000 1.000000 0.750000
vt 0.250000 0.000000
vt 0.750000 0.000000
vt 0.750000 1.000000
vt 0.250000 1.000000
vt 0.250000 0.000000
vt 0.750000 0.000000
vt 0.750000 1.000000
vt 0.250000 1.000000
vt 0.250000 0.000000
vt 0.750000 0.000000
vt 0.750000 1.000000
vt 0.250000 1.000000
vt 0.250000 0.000000
vt 0.750000 0.000000
vt 0.750000 1.000000
vt 0.250000 1.000000
vt 0.250000 0.250000
vt 0.750000 0.250000
vt 0.750000 0.750000
vt 0.250000 0.750000
vt 0.250000 0.250000
vt 0.750000 0.250000
vt 0.750000 0.750000
vt 0.250000 0.750000
vn 0.0000 0.0000 -1.0000
vn 1.0000 0.0000 0.0000
vn 0.0000 -0.0000 1.0000
vn -1.0000 0.0000 0.0000
vn 0.0000 1.0000 0.0000
vn 0.0000 -1.0000 -0.0000
usemtl m_1dcdf520-6e3e-8615-3419-6f10efbb6e9d
s 1
f 129/369/97 130/370/97 131/371/97 132/372/97
f 133/373/98 129/374/98 132/375/98 134/376/98
f 135/377/99 133/378/99 134/379/99 136/380/99
f 130/381/100 135/382/100 136/383/100 131/384/100
usemtl m_940a08d1-0d3a-4dbb-d0ee-83e3222c29e3
f 136/385/101 134/386/101 132/387/101 131/388/101
f 130/389/102 129/390/102 133/391/102 135/392/102
o cylinder
v 1.415064 0.468750 1.415064
v 0.834936 0.468750 1.750000
v 0.500000 0.468750 0.500000
v 1.415064 0.750000 1.415064
v 0.834936 0.750000 1.750000
v 0.500000 0.750000 0.500000
v 1.750000 0.468750 0.834937
v 1.750000 0.750000 0.834937
v 1.750000 0.468750 0.165064
v 1.750000 0.750000 0.165064
v 1.415064 0.468750 -0.415063
v 1.415064 0.750000 -0.415063
v 0.834936 0.468750 -0.750000
v 0.834936 0.750000 -0.750000
v 0.165064 0.468750 -0.750000
v 0.165064 0.750000 -0.750000
v -0.415064 0.468750 -0.415063
v -0.415064 0.750000 -0.415063
v -0.750000 0.468750 0.165064
v -0.750000 0.750000 0.165064
v -0.750000 0.468750 0.834937
v -0.750000 0.750000 0.834937
v -0.415064 0.468750 1.415064
v -0.415064 0.750000 1.415064
v 0.165064 0.468750 1.750000
v 0.165064 0.750000 1.750000
vt 0.327430 0.912265
vt 0.087735 0.672570
vt 0.656250 0.343750
vt 0.328125 0.000000
vt 0.656250 0.000000
vt 0.656250 0.140625
vt 0.328125 0.140625
vt 0.327430 0.912265
vt 0.087735 0.672570
vt 0.656250 0.343750
vt 0.656250 1.000000
vt 0.000000 0.000000
vt 0.328125 0.000000
vt 0.328125 0.140625
vt 0.000000 0.140625
vt 0.000000 0.343750
vt 0.087735 0.672570
vt 0.000000 0.343750
vt 0.656250 0.000000
vt 0.656250 0.140625
vt 0.656250 1.000000
vt 0.327430 0.912265
vt 0.327430 0.912265
vt 0.000000 0.000000
vt 0.328125 0.000000
vt 0.328125 0.140625
vt 0.000000 0.140625
vt 0.087735 0.672570
vt 0.656250 1.000000
vt 0.656250 0.000000
vt 0.656250 0.140625
vt 0.000000 0.343750
vt 0.087735 0.672570
vt 0.000000 0.343750
vt 0.000000 0.000000
vt 0.328125 0.000000
vt 0.328125 0.140625
vt 0.000000 0.140625
vt 0.656250 1.000000
vt 0.327430 0.912265
vt 0.327430 0.912265
vt 0.656250 0.000000
vt 0.656250 0.140625
vt 0.087735 0.672570
vt 0.656250 1.000000
vt 0.000000 0.000000
vt 0.328125 0.000000
vt 0.328125 0.140625
vt 0.000000 0.140625
vt 0.000000 0.343750
vt 0.087735 0.672570
vt 0.000000 0.343750
vt 0.656250 0.000000
vt 0.656250 0.140625
vt 0.656250 1.000000
vt 0.327430 0.912265
vt 0.327430 0.912265
vt 0.000000 0.000000
vt 0.328125 0.000000
vt 0.328125 0.140625
vt 0.000000 0.140625
vt 0.087735 0.672570
vt 0.656250 1.000000
vt 0.656250 0.000000
vt 0.656250 0.140625
vt 0.000000 0.343750
vt 0.000000 0.343750
vt 0.000000 0.000000
vt 0.000000 0.140625
vt 0.656250 1.000000
vn -0.0000 -1.0000 -0.0000
vn 0.5000 0.0000 0.8660
vn 0.0000 1.0000 0.0000
vn 0.8660 0.0000 0.5000
vn 1.0000 0.0000 0.0000
vn 0.8660 0.0000 -0.5000
vn 0.5000 0.0000 -0.8660
vn 0.0000 0.0000 -1.0000
vn -0.5000 0.0000 -0.8660
vn -0.8660 0.0000 -0.5000
vn -1.0000 0.0000 0.0000
vn -0.8660 -0.0000 0.5000
vn -0.5000 0.0000 0.8660
vn 0.0000 0.0000 1.0000
usemtl m_d944b0fb-99e0-7302-c9ad-03d63b4731a6
s 1
f 137/393/103 138/394/103 139/395/103
f 138/396/104 137/397/104 140/398/104 141/399/104
f 141/400/105 140/401/105 142/402/105
f 143/403/103 137/393/103 139/395/103
f 137/404/106 143/405/106 144/406/106 140/407/106
f 140/401/105 144/408/105 142/402/105
f 145/409/103 143/410/103 139/395/103
f 143/405/107 145/411/107 146/412/107 144/406/107
f 144/413/105 146/414/105 142/402/105
f 147/415/103 145/409/103 139/395/103
f 145/416/108 147/417/108 148/418/108 146/419/108
f 146/414/105 148/420/105 142/402/105
f 149/421/103 147/415/103 139/395/103
f 147/417/109 149/422/109 150/423/109 148/418/109
f 148/420/105 150/424/105 142/402/105
f 151/425/103 149/426/103 139/395/103
f 149/427/110 151/428/110 152/429/110 150/430/110
f 150/431/105 152/432/105 142/402/105
f 153/433/103 151/425/103 139/395/103
f 151/428/111 153/434/111 154/435/111 152/429/111
f 152/432/105 154/436/105 142/402/105
f 155/437/103 153/433/103 139/395/103
f 153/438/112 155/439/112 156/440/112 154/441/112
f 154/436/105 156/442/105 142/402/105
f 157/443/103 155/444/103 139/395/103
f 155/439/113 157/445/113 158/446/113 156/440/113
f 156/447/105 158/448/105 142/402/105
f 159/449/103 157/443/103 139/395/103
f 157/450/114 159/451/114 160/452/114 158/453/114
f 158/448/105 160/454/105 142/402/105
f 161/455/103 159/449/103 139/395/103
f 159/451/115 161/456/115 162/457/115 160/452/115
f 160/454/105 162/458/105 142/402/105
f 138/394/103 161/459/103 139/395/103
f 161/460/116 138/396/116 141/399/116 162/461/116
f 162/462/105 141/400/105 142/402/105
