# Blender 4.2.2 LTS
# www.blender.org
mtllib weighted_loom.mtl
o cube
v 1.406250 2.046875 0.907360
v 1.406250 2.157361 0.796875
v 1.406250 1.936390 0.796875
v 1.406250 2.046875 0.686389
v -0.406250 2.157361 0.796875
v -0.406250 2.046875 0.907360
v -0.406250 2.046875 0.686389
v -0.406250 1.936390 0.796875
vn -0.0000 0.7071 -0.7071
vn 1.0000 -0.0000 -0.0000
vn -0.0000 -0.7071 0.7071
vn -1.0000 -0.0000 -0.0000
vn -0.0000 0.7071 0.7071
vn -0.0000 -0.7071 -0.7071
vt 0.281250 0.093750
vt 0.281250 1.000000
vt 0.203125 1.000000
vt 0.203125 0.093750
vt 0.281250 0.171875
vt 0.203125 0.171875
vt 0.281250 0.921875
vt 0.203125 0.921875
s 0
usemtl m_09412a84-0e5c-d631-c6f6-87ebf837bd97
f 4/1/1 7/2/1 5/3/1 2/4/1
f 3/1/2 4/5/2 2/6/2 1/4/2
f 8/1/3 3/2/3 1/3/3 6/4/3
f 7/7/4 8/2/4 6/3/4 5/8/4
f 6/1/5 1/2/5 2/3/5 5/4/5
f 7/1/6 4/2/6 3/3/6 8/4/6
o cube.001
v 1.343750 2.079561 0.659716
v 1.343750 1.991172 0.571328
v 1.343750 1.836493 0.902784
v 1.343750 1.748104 0.814395
v 1.218750 1.991172 0.571328
v 1.218750 2.079561 0.659716
v 1.218750 1.748104 0.814395
v 1.218750 1.836493 0.902784
vn -0.0000 -0.7071 -0.7071
vn 1.0000 -0.0000 -0.0000
vn -0.0000 0.7071 0.7071
vn -1.0000 -0.0000 -0.0000
vn -0.0000 0.7071 -0.7071
vt 0.421875 0.656250
vt 0.484375 0.656250
vt 0.484375 0.828125
vt 0.421875 0.828125
vt 0.484375 1.000000
vt 0.421875 1.000000
vt 0.421875 0.937500
vt 0.484375 0.937500
s 0
usemtl m_09412a84-0e5c-d631-c6f6-87ebf837bd97
f 12/9/7 15/10/7 13/11/7 10/12/7
f 11/12/8 12/11/8 10/13/8 9/14/8
f 16/9/9 11/10/9 9/11/9 14/12/9
f 15/12/10 16/11/10 14/13/10 13/14/10
f 14/15/11 9/16/11 10/13/11 13/14/11
o cube.002
v -0.218750 2.079561 0.659716
v -0.218750 1.991172 0.571328
v -0.218750 1.836493 0.902784
v -0.218750 1.748104 0.814395
v -0.343750 1.991172 0.571328
v -0.343750 2.079561 0.659716
v -0.343750 1.748104 0.814395
v -0.343750 1.836493 0.902784
vn -0.0000 -0.7071 -0.7071
vn 1.0000 -0.0000 -0.0000
vn -0.0000 0.7071 0.7071
vn -1.0000 -0.0000 -0.0000
vn -0.0000 0.7071 -0.7071
vt 0.421875 0.828125
vt 0.484375 0.828125
vt 0.484375 1.000000
vt 0.421875 1.000000
vt 0.421875 0.656250
vt 0.484375 0.656250
vt 0.421875 0.765625
vt 0.484375 0.765625
s 0
usemtl m_09412a84-0e5c-d631-c6f6-87ebf837bd97
f 20/17/12 23/18/12 21/19/12 18/20/12
f 19/21/13 20/22/13 18/18/13 17/17/13
f 24/17/14 19/18/14 17/19/14 22/20/14
f 23/21/15 24/22/15 22/18/15 21/17/15
f 22/23/16 17/24/16 18/18/16 21/17/16
o cube.003
v 1.312500 1.199156 0.477287
v 1.312500 1.138786 0.461111
v 1.312500 1.134451 0.718769
v 1.312500 1.074081 0.702593
v 1.250000 1.138786 0.461111
v 1.250000 1.199156 0.477287
v 1.250000 1.074081 0.702593
v 1.250000 1.134451 0.718769
vn -0.0000 -0.9659 -0.2588
vn 1.0000 -0.0000 -0.0000
vn -0.0000 0.9659 0.2588
vn -1.0000 -0.0000 -0.0000
vn -0.0000 0.2588 -0.9659
vt 0.328125 1.000000
vt 0.296875 1.000000
vt 0.296875 0.875000
vt 0.328125 0.875000
vt 0.296875 0.968750
vt 0.328125 0.968750
s 0
usemtl m_09412a84-0e5c-d631-c6f6-87ebf837bd97
f 28/25/17 31/26/17 29/27/17 26/28/17
f 27/25/18 28/26/18 26/27/18 25/28/18
f 32/25/19 27/26/19 25/27/19 30/28/19
f 31/25/20 32/26/20 30/27/20 29/28/20
f 30/25/21 25/26/21 26/29/21 29/30/21
o cube.004
v -0.250000 1.199156 0.477287
v -0.250000 1.138786 0.461111
v -0.250000 1.134451 0.718769
v -0.250000 1.074081 0.702593
v -0.312500 1.138786 0.461111
v -0.312500 1.199156 0.477287
v -0.312500 1.074081 0.702593
v -0.312500 1.134451 0.718769
vn -0.0000 -0.9659 -0.2588
vn 1.0000 -0.0000 -0.0000
vn -0.0000 0.9659 0.2588
vn -1.0000 -0.0000 -0.0000
vn -0.0000 0.2588 -0.9659
vt 0.328125 1.000000
vt 0.296875 1.000000
vt 0.296875 0.875000
vt 0.328125 0.875000
vt 0.296875 0.968750
vt 0.328125 0.968750
s 0
usemtl m_09412a84-0e5c-d631-c6f6-87ebf837bd97
f 36/31/22 39/32/22 37/33/22 34/34/22
f 35/31/23 36/32/23 34/33/23 33/34/23
f 40/31/24 35/32/24 33/33/24 38/34/24
f 39/31/25 40/32/25 38/33/25 37/34/25
f 38/31/26 33/32/26 34/35/26 37/36/26
o cube.005
v 1.309375 1.273182 0.615514
v 1.309375 1.258624 0.561181
v 1.309375 1.128293 0.654337
v 1.309375 1.113735 0.600004
v 1.253125 1.258624 0.561181
v 1.253125 1.273182 0.615514
v 1.253125 1.113735 0.600004
v 1.253125 1.128293 0.654337
vn -0.0000 -0.2588 -0.9659
vn 1.0000 -0.0000 -0.0000
vn -0.0000 0.2588 0.9659
vn -1.0000 -0.0000 -0.0000
vn -0.0000 0.9659 -0.2588
vt 0.296875 0.718750
vt 0.328125 0.718750
vt 0.328125 0.796875
vt 0.296875 0.796875
vt 0.296875 0.765625
vt 0.328125 0.765625
s 0
usemtl m_09412a84-0e5c-d631-c6f6-87ebf837bd97
f 44/37/27 47/38/27 45/39/27 42/40/27
f 43/37/28 44/38/28 42/39/28 41/40/28
f 48/37/29 43/38/29 41/39/29 46/40/29
f 47/37/30 48/38/30 46/39/30 45/40/30
f 46/41/31 41/42/31 42/39/31 45/40/31
o cube.006
v -0.253125 1.273182 0.615514
v -0.253125 1.258624 0.561181
v -0.253125 1.128293 0.654337
v -0.253125 1.113735 0.600004
v -0.309375 1.258624 0.561181
v -0.309375 1.273182 0.615514
v -0.309375 1.113735 0.600004
v -0.309375 1.128293 0.654337
vn -0.0000 -0.2588 -0.9659
vn 1.0000 -0.0000 -0.0000
vn -0.0000 0.2588 0.9659
vn -1.0000 -0.0000 -0.0000
vn -0.0000 0.9659 -0.2588
vt 0.296875 0.718750
vt 0.328125 0.718750
vt 0.328125 0.796875
vt 0.296875 0.796875
vt 0.296875 0.765625
vt 0.328125 0.765625
s 0
usemtl m_09412a84-0e5c-d631-c6f6-87ebf837bd97
f 52/43/32 55/44/32 53/45/32 50/46/32
f 51/43/33 52/44/33 50/45/33 49/46/33
f 56/43/34 51/44/34 49/45/34 54/46/34
f 55/43/35 56/44/35 54/45/35 53/46/35
f 54/47/36 49/48/36 50/45/36 53/46/36
o cube.007
v 1.375000 2.188685 1.044585
v 1.375000 2.215817 0.890708
v 1.375000 -0.027132 0.653876
v 1.375000 0.000000 0.500000
v 1.187500 2.215817 0.890708
v 1.187500 2.188685 1.044585
v 1.187500 0.000000 0.500000
v 1.187500 -0.027132 0.653876
vn -0.0000 0.1736 -0.9848
vn 1.0000 -0.0000 -0.0000
vn -0.0000 -0.1736 0.9848
vn -1.0000 -0.0000 -0.0000
vn -0.0000 0.9848 0.1736
vn -0.0000 -0.9848 -0.1736
vt 0.000000 0.000000
vt 0.093750 0.000000
vt 0.093750 1.000000
vt 0.000000 1.000000
vt 0.562500 1.000000
vt 0.484375 1.000000
vt 0.484375 0.000000
vt 0.562500 0.000000
vt 0.187500 0.000000
vt 0.187500 1.000000
vt 0.000000 0.843750
vt 0.093750 0.843750
vt 0.093750 0.921875
vt 0.000000 0.921875
vt 0.187500 0.921875
s 0
usemtl m_09412a84-0e5c-d631-c6f6-87ebf837bd97
f 60/49/37 63/50/37 61/51/37 58/52/37
f 59/53/38 60/54/38 58/55/38 57/56/38
f 64/50/39 59/57/39 57/58/39 62/51/39
f 63/54/40 64/53/40 62/56/40 61/55/40
f 62/59/41 57/60/41 58/61/41 61/62/41
f 63/61/42 60/63/42 59/58/42 64/51/42
o cube.008
v -0.187500 2.188685 1.044585
v -0.187500 2.215817 0.890708
v -0.187500 -0.027132 0.653876
v -0.187500 0.000000 0.500000
v -0.375000 2.215817 0.890708
v -0.375000 2.188685 1.044585
v -0.375000 0.000000 0.500000
v -0.375000 -0.027132 0.653876
vn -0.0000 0.1736 -0.9848
vn 1.0000 -0.0000 -0.0000
vn -0.0000 -0.1736 0.9848
vn -1.0000 -0.0000 -0.0000
vn -0.0000 0.9848 0.1736
vn -0.0000 -0.9848 -0.1736
vt 0.093750 0.000000
vt 0.187500 0.000000
vt 0.187500 1.000000
vt 0.093750 1.000000
vt 0.562500 0.000000
vt 0.484375 0.000000
vt 0.484375 1.000000
vt 0.562500 1.000000
vt 0.000000 0.000000
vt 0.000000 1.000000
vt 0.000000 0.750000
vt 0.093750 0.750000
vt 0.093750 0.828125
vt 0.000000 0.828125
vt 0.000000 0.921875
vt 0.093750 0.921875
s 0
usemtl m_09412a84-0e5c-d631-c6f6-87ebf837bd97
f 68/64/43 71/65/43 69/66/43 66/67/43
f 67/68/44 68/69/44 66/70/44 65/71/44
f 72/72/45 67/64/45 65/67/45 70/73/45
f 71/69/46 72/68/46 70/71/46 69/70/46
f 70/74/47 65/75/47 66/76/47 69/77/47
f 71/78/48 68/79/48 67/67/48 72/73/48
o cube.009
v 1.468750 1.203125 0.591069
v 1.468750 1.247319 0.546875
v 1.468750 1.158931 0.546875
v 1.468750 1.203125 0.502681
v -0.468750 1.247319 0.546875
v -0.468750 1.203125 0.591069
v -0.468750 1.203125 0.502681
v -0.468750 1.158931 0.546875
vn -0.0000 0.7071 -0.7071
vn 1.0000 -0.0000 -0.0000
vn -0.0000 -0.7071 0.7071
vn -1.0000 -0.0000 -0.0000
vn -0.0000 0.7071 0.7071
vn -0.0000 -0.7071 -0.7071
vt 0.312500 0.031250
vt 0.312500 1.000000
vt 0.281250 1.000000
vt 0.281250 0.031250
vt 0.312500 0.062500
vt 0.281250 0.062500
vt 0.312500 0.968750
vt 0.281250 0.968750
s 0
usemtl m_09412a84-0e5c-d631-c6f6-87ebf837bd97
f 76/80/49 79/81/49 77/82/49 74/83/49
f 75/80/50 76/84/50 74/85/50 73/83/50
f 80/80/51 75/81/51 73/82/51 78/83/51
f 79/86/52 80/81/52 78/82/52 77/87/52
f 78/80/53 73/81/53 74/82/53 77/83/53
f 79/80/54 76/81/54 75/82/54 80/83/54
o cube.010
v 1.406250 0.763955 0.666438
v 1.406250 0.774808 0.604887
v 1.406250 0.579303 0.633879
v 1.406250 0.590156 0.572328
v -0.406250 0.774808 0.604887
v -0.406250 0.763955 0.666438
v -0.406250 0.590156 0.572328
v -0.406250 0.579303 0.633879
vn -0.0000 0.1736 -0.9848
vn 1.0000 -0.0000 -0.0000
vn -0.0000 -0.1736 0.9848
vn -1.0000 -0.0000 -0.0000
vn -0.0000 0.9848 0.1736
vn -0.0000 -0.9848 -0.1736
vt 0.406250 0.093750
vt 0.406250 1.000000
vt 0.312500 1.000000
vt 0.312500 0.093750
vt 0.406250 0.968750
vt 0.312500 0.968750
vt 0.406250 0.125000
vt 0.312500 0.125000
vt 0.375000 1.000000
vt 0.375000 0.093750
vt 0.343750 0.078125
vt 0.343750 0.984375
vt 0.312500 0.984375
vt 0.312500 0.078125
s 0
usemtl m_09412a84-0e5c-d631-c6f6-87ebf837bd97
f 84/88/55 87/89/55 85/90/55 82/91/55
f 83/92/56 84/89/56 82/90/56 81/93/56
f 88/88/57 83/89/57 81/90/57 86/91/57
f 87/88/58 88/94/58 86/95/58 85/91/58
f 86/88/59 81/89/59 82/96/59 85/97/59
f 87/98/60 84/99/60 83/100/60 88/101/60
o cube.011
v 1.125000 1.968750 0.812500
v 1.125000 1.968750 0.812500
v 1.125000 0.583864 0.568307
v 1.125000 0.583864 0.568307
v -0.125000 1.968750 0.812500
v -0.125000 1.968750 0.812500
v -0.125000 0.583864 0.568307
v -0.125000 0.583864 0.568307
vn -0.0000 0.1736 -0.9848
vn -0.0000 -0.1736 0.9848
vt 0.625000 0.218750
vt 0.000000 0.218750
vt 0.000000 0.921875
vt 0.625000 0.921875
s 0
usemtl m_85e1cc6f-342d-5548-ca4e-a1e1c969dc15
f 92/102/61 95/103/61 93/104/61 90/105/61
f 96/103/62 91/102/62 89/105/62 94/104/62
o cube.012
v 1.125000 1.939879 0.800541
v 1.125000 1.939879 0.800541
v 1.125000 1.189227 0.489611
v 1.125000 1.189227 0.489611
v -0.125000 1.939879 0.800541
v -0.125000 1.939879 0.800541
v -0.125000 1.189227 0.489611
v -0.125000 1.189227 0.489611
vn -0.0000 0.3827 -0.9239
vn -0.0000 -0.3827 0.9239
vt 0.000000 0.546875
vt 0.625000 0.546875
vt 0.625000 0.953125
vt 0.000000 0.953125
s 0
usemtl m_85e1cc6f-342d-5548-ca4e-a1e1c969dc15
f 100/106/63 103/107/63 101/108/63 98/109/63
f 104/107/64 99/106/64 97/109/64 102/108/64
o cube.013
v 1.125000 1.189251 0.489553
v 1.125000 1.189251 0.489553
v 1.125000 0.727311 0.680895
v 1.125000 0.727311 0.680895
v -0.125000 1.189251 0.489553
v -0.125000 1.189251 0.489553
v -0.125000 0.727311 0.680895
v -0.125000 0.727311 0.680895
vn -0.0000 -0.3827 -0.9239
vn -0.0000 0.3827 0.9239
vt 0.000000 0.296875
vt 0.625000 0.296875
vt 0.625000 0.546875
vt 0.000000 0.546875
s 0
usemtl m_85e1cc6f-342d-5548-ca4e-a1e1c969dc15
f 108/110/65 111/111/65 109/112/65 106/113/65
f 112/111/66 107/110/66 105/113/66 110/112/66
o cube.014
v 1.128125 2.046875 0.911780
v 1.128125 2.161780 0.796875
v 1.128125 1.931970 0.796875
v 1.128125 2.046875 0.681970
v -0.128125 2.161780 0.796875
v -0.128125 2.046875 0.911780
v -0.128125 2.046875 0.681970
v -0.128125 1.931970 0.796875
vn -0.0000 0.7071 -0.7071
vn -0.0000 -0.7071 0.7071
vn -0.0000 0.7071 0.7071
vn -0.0000 -0.7071 -0.7071
vt 1.000000 1.000000
vt 1.000000 0.375000
vt 0.921875 0.375000
vt 0.921875 1.000000
vt 0.843750 1.000000
vt 0.843750 0.375000
s 0
usemtl m_85e1cc6f-342d-5548-ca4e-a1e1c969dc15
f 116/114/67 119/115/67 117/116/67 114/117/67
f 120/114/68 115/115/68 113/116/68 118/117/68
f 118/118/69 113/119/69 114/116/69 117/117/69
f 119/116/70 116/117/70 115/118/70 120/119/70
o cube.015
v 1.125000 0.583864 0.568307
v 1.125000 0.583864 0.568307
v 1.125000 0.146364 0.568307
v 1.125000 0.146364 0.568307
v -0.125000 0.583864 0.568307
v -0.125000 0.583864 0.568307
v -0.125000 0.146364 0.568307
v -0.125000 0.146364 0.568307
vn -0.0000 -0.0000 -1.0000
vn -0.0000 -0.0000 1.0000
vt 0.625000 0.000000
vt 0.625000 0.625000
vt 0.843750 0.625000
vt 0.843750 0.000000
s 0
usemtl m_85e1cc6f-342d-5548-ca4e-a1e1c969dc15
f 124/120/71 127/121/71 125/122/71 122/123/71
f 128/121/72 123/120/72 121/123/72 126/122/72
o cube.016
v 1.125000 0.727335 0.680890
v 1.125000 0.727335 0.680890
v 1.125000 0.133585 0.680890
v 1.125000 0.133585 0.680890
v -0.125000 0.727335 0.680890
v -0.125000 0.727335 0.680890
v -0.125000 0.133585 0.680890
v -0.125000 0.133585 0.680890
vn -0.0000 -0.0000 -1.0000
vn -0.0000 -0.0000 1.0000
vt 0.000000 0.000000
vt 0.625000 0.000000
vt 0.625000 0.296875
vt 0.000000 0.296875
s 0
usemtl m_85e1cc6f-342d-5548-ca4e-a1e1c969dc15
f 132/124/73 135/125/73 133/126/73 130/127/73
f 136/125/74 131/124/74 129/127/74 134/126/74
o cube.017
v 1.105719 0.250000 0.473631
v 1.043754 0.250000 0.465473
v 1.105719 0.062500 0.473631
v 1.043754 0.062500 0.465473
v 1.019281 0.250000 0.651369
v 1.081246 0.250000 0.659527
v 1.019281 0.062500 0.651369
v 1.081246 0.062500 0.659527
vn -0.9914 -0.0000 -0.1305
vn 0.1305 -0.0000 -0.9914
vn 0.9914 -0.0000 0.1305
vn -0.1305 -0.0000 0.9914
vn -0.0000 1.0000 -0.0000
vn -0.0000 -1.0000 -0.0000
vt 0.000000 0.812500
vt 0.187500 0.812500
vt 0.187500 1.000000
vt 0.000000 1.000000
vt 0.062500 0.812500
vt 0.062500 1.000000
vt 0.000000 0.937500
vt 0.187500 0.937500
s 0
usemtl m_c29ed9c1-4327-ee9e-18f7-d5309476533b
f 140/128/75 143/129/75 141/130/75 138/131/75
f 139/128/76 140/132/76 138/133/76 137/131/76
f 144/128/77 139/129/77 137/130/77 142/131/77
f 143/128/78 144/132/78 142/133/78 141/131/78
f 142/134/79 137/135/79 138/130/79 141/131/79
f 143/134/80 140/135/80 139/130/80 144/131/80
o cube.018
v 0.943421 0.250000 0.588856
v 0.883051 0.250000 0.605033
v 0.943421 0.062500 0.588856
v 0.883051 0.062500 0.605033
v 0.931579 0.250000 0.786144
v 0.991949 0.250000 0.769967
v 0.931579 0.062500 0.786144
v 0.991949 0.062500 0.769967
vn -0.9659 -0.0000 0.2588
vn -0.2588 -0.0000 -0.9659
vn 0.9659 -0.0000 -0.2588
vn 0.2588 -0.0000 0.9659
vn -0.0000 1.0000 -0.0000
vn -0.0000 -1.0000 -0.0000
vt 0.000000 0.812500
vt 0.187500 0.812500
vt 0.187500 1.000000
vt 0.000000 1.000000
vt 0.062500 0.812500
vt 0.062500 1.000000
vt 0.000000 0.937500
vt 0.187500 0.937500
s 0
usemtl m_c29ed9c1-4327-ee9e-18f7-d5309476533b
f 148/136/81 151/137/81 149/138/81 146/139/81
f 147/136/82 148/140/82 146/141/82 145/139/82
f 152/136/83 147/137/83 145/138/83 150/139/83
f 151/136/84 152/140/84 150/141/84 149/139/84
f 150/142/85 145/143/85 146/138/85 149/139/85
f 151/142/86 148/143/86 147/138/86 152/139/86
o cube.019
v 0.812500 0.250000 0.468750
v 0.750000 0.250000 0.468750
v 0.812500 0.062500 0.468750
v 0.750000 0.062500 0.468750
v 0.750000 0.250000 0.656250
v 0.812500 0.250000 0.656250
v 0.750000 0.062500 0.656250
v 0.812500 0.062500 0.656250
vn -1.0000 -0.0000 -0.0000
vn -0.0000 -0.0000 -1.0000
vn 1.0000 -0.0000 -0.0000
vn -0.0000 -0.0000 1.0000
vn -0.0000 1.0000 -0.0000
vn -0.0000 -1.0000 -0.0000
vt 0.000000 0.812500
vt 0.187500 0.812500
vt 0.187500 1.000000
vt 0.000000 1.000000
vt 0.062500 0.812500
vt 0.062500 1.000000
vt 0.000000 0.937500
vt 0.187500 0.937500
s 0
usemtl m_c29ed9c1-4327-ee9e-18f7-d5309476533b
f 156/144/87 159/145/87 157/146/87 154/147/87
f 155/144/88 156/148/88 154/149/88 153/147/88
f 160/144/89 155/145/89 153/146/89 158/147/89
f 159/144/90 160/148/90 158/149/90 157/147/90
f 158/150/91 153/151/91 154/146/91 157/147/91
f 159/150/92 156/151/92 155/146/92 160/147/92
o cube.020
v 0.664302 0.250000 0.596830
v 0.602040 0.250000 0.591383
v 0.664302 0.062500 0.596830
v 0.602040 0.062500 0.591383
v 0.585698 0.250000 0.778170
v 0.647960 0.250000 0.783617
v 0.585698 0.062500 0.778170
v 0.647960 0.062500 0.783617
vn -0.9962 -0.0000 -0.0872
vn 0.0872 -0.0000 -0.9962
vn 0.9962 -0.0000 0.0872
vn -0.0872 -0.0000 0.9962
vn -0.0000 1.0000 -0.0000
vn -0.0000 -1.0000 -0.0000
vt 0.000000 0.812500
vt 0.187500 0.812500
vt 0.187500 1.000000
vt 0.000000 1.000000
vt 0.062500 0.812500
vt 0.062500 1.000000
vt 0.000000 0.937500
vt 0.187500 0.937500
s 0
usemtl m_c29ed9c1-4327-ee9e-18f7-d5309476533b
f 164/152/93 167/153/93 165/154/93 162/155/93
f 163/152/94 164/156/94 162/157/94 161/155/94
f 168/152/95 163/153/95 161/154/95 166/155/95
f 167/152/96 168/156/96 166/157/96 165/155/96
f 166/158/97 161/159/97 162/154/97 165/155/97
f 167/158/98 164/159/98 163/154/98 168/155/98
o cube.021
v 0.514496 0.250000 0.464748
v 0.452945 0.250000 0.475601
v 0.514496 0.062500 0.464748
v 0.452945 0.062500 0.475601
v 0.485504 0.250000 0.660252
v 0.547055 0.250000 0.649399
v 0.485504 0.062500 0.660252
v 0.547055 0.062500 0.649399
vn -0.9848 -0.0000 0.1736
vn -0.1736 -0.0000 -0.9848
vn 0.9848 -0.0000 -0.1736
vn 0.1736 -0.0000 0.9848
vn -0.0000 1.0000 -0.0000
vn -0.0000 -1.0000 -0.0000
vt 0.000000 0.812500
vt 0.187500 0.812500
vt 0.187500 1.000000
vt 0.000000 1.000000
vt 0.062500 0.812500
vt 0.062500 1.000000
vt 0.000000 0.937500
vt 0.187500 0.937500
s 0
usemtl m_c29ed9c1-4327-ee9e-18f7-d5309476533b
f 172/160/99 175/161/99 173/162/99 170/163/99
f 171/160/100 172/164/100 170/165/100 169/163/100
f 176/160/101 171/161/101 169/162/101 174/163/101
f 175/160/102 176/164/102 174/165/102 173/163/102
f 174/166/103 169/167/103 170/162/103 173/163/103
f 175/166/104 172/167/104 171/162/104 176/163/104
o cube.022
v 0.383052 0.250000 0.596830
v 0.320790 0.250000 0.591383
v 0.383052 0.062500 0.596830
v 0.320790 0.062500 0.591383
v 0.304448 0.250000 0.778170
v 0.366710 0.250000 0.783617
v 0.304448 0.062500 0.778170
v 0.366710 0.062500 0.783617
vn -0.9962 -0.0000 -0.0872
vn 0.0872 -0.0000 -0.9962
vn 0.9962 -0.0000 0.0872
vn -0.0872 -0.0000 0.9962
vn -0.0000 1.0000 -0.0000
vn -0.0000 -1.0000 -0.0000
vt 0.000000 0.812500
vt 0.187500 0.812500
vt 0.187500 1.000000
vt 0.000000 1.000000
vt 0.062500 0.812500
vt 0.062500 1.000000
vt 0.000000 0.937500
vt 0.187500 0.937500
s 0
usemtl m_c29ed9c1-4327-ee9e-18f7-d5309476533b
f 180/168/105 183/169/105 181/170/105 178/171/105
f 179/168/106 180/172/106 178/173/106 177/171/106
f 184/168/107 179/169/107 177/170/107 182/171/107
f 183/168/108 184/172/108 182/173/108 181/171/108
f 182/174/109 177/175/109 178/170/109 181/171/109
f 183/174/110 180/175/110 179/170/110 184/171/110
o cube.023
v 0.245881 0.250000 0.467476
v 0.183440 0.250000 0.470202
v 0.245881 0.062500 0.467476
v 0.183440 0.062500 0.470202
v 0.191619 0.250000 0.657524
v 0.254060 0.250000 0.654798
v 0.191619 0.062500 0.657524
v 0.254060 0.062500 0.654798
vn -0.9990 -0.0000 0.0436
vn -0.0436 -0.0000 -0.9990
vn 0.9990 -0.0000 -0.0436
vn 0.0436 -0.0000 0.9990
vn -0.0000 1.0000 -0.0000
vn -0.0000 -1.0000 -0.0000
vt 0.000000 0.812500
vt 0.187500 0.812500
vt 0.187500 1.000000
vt 0.000000 1.000000
vt 0.062500 0.812500
vt 0.062500 1.000000
vt 0.000000 0.937500
vt 0.187500 0.937500
s 0
usemtl m_c29ed9c1-4327-ee9e-18f7-d5309476533b
f 188/176/111 191/177/111 189/178/111 186/179/111
f 187/176/112 188/180/112 186/181/112 185/179/112
f 192/176/113 187/177/113 185/178/113 190/179/113
f 191/176/114 192/180/114 190/181/114 189/179/114
f 190/182/115 185/183/115 186/178/115 189/179/115
f 191/182/116 188/183/116 187/178/116 192/179/116
o cube.024
v 0.105719 0.250000 0.598631
v 0.043754 0.250000 0.590473
v 0.105719 0.062500 0.598631
v 0.043754 0.062500 0.590473
v 0.019281 0.250000 0.776369
v 0.081246 0.250000 0.784527
v 0.019281 0.062500 0.776369
v 0.081246 0.062500 0.784527
vn -0.9914 -0.0000 -0.1305
vn 0.1305 -0.0000 -0.9914
vn 0.9914 -0.0000 0.1305
vn -0.1305 -0.0000 0.9914
vn -0.0000 1.0000 -0.0000
vn -0.0000 -1.0000 -0.0000
vt 0.000000 0.812500
vt 0.187500 0.812500
vt 0.187500 1.000000
vt 0.000000 1.000000
vt 0.062500 0.812500
vt 0.062500 1.000000
vt 0.000000 0.937500
vt 0.187500 0.937500
s 0
usemtl m_c29ed9c1-4327-ee9e-18f7-d5309476533b
f 196/184/117 199/185/117 197/186/117 194/187/117
f 195/184/118 196/188/118 194/189/118 193/187/118
f 200/184/119 195/185/119 193/186/119 198/187/119
f 199/184/120 200/188/120 198/189/120 197/187/120
f 198/190/121 193/191/121 194/186/121 197/187/121
f 199/190/122 196/191/122 195/186/122 200/187/122
o cube.025
v -0.031250 0.250000 0.468750
v -0.093750 0.250000 0.468750
v -0.031250 0.062500 0.468750
v -0.093750 0.062500 0.468750
v -0.093750 0.250000 0.656250
v -0.031250 0.250000 0.656250
v -0.093750 0.062500 0.656250
v -0.031250 0.062500 0.656250
vn -1.0000 -0.0000 -0.0000
vn -0.0000 -0.0000 -1.0000
vn 1.0000 -0.0000 -0.0000
vn -0.0000 -0.0000 1.0000
vn -0.0000 1.0000 -0.0000
vn -0.0000 -1.0000 -0.0000
vt 0.000000 0.812500
vt 0.187500 0.812500
vt 0.187500 1.000000
vt 0.000000 1.000000
vt 0.062500 0.812500
vt 0.062500 1.000000
vt 0.000000 0.937500
vt 0.187500 0.937500
s 0
usemtl m_c29ed9c1-4327-ee9e-18f7-d5309476533b
f 204/192/123 207/193/123 205/194/123 202/195/123
f 203/192/124 204/196/124 202/197/124 201/195/124
f 208/192/125 203/193/125 201/194/125 206/195/125
f 207/192/126 208/196/126 206/197/126 205/195/126
f 206/198/127 201/199/127 202/194/127 205/195/127
f 207/198/128 204/199/128 203/194/128 208/195/128
