# Blender 4.2.2 LTS
# www.blender.org
mtllib weighted_loom_small.mtl
o cube
v 0.093750 1.942483 1.001172
v 0.093750 1.969616 0.847296
v 0.093750 -0.027132 0.653876
v 0.093750 0.000000 0.500000
v -0.093750 1.969616 0.847296
v -0.093750 1.942483 1.001172
v -0.093750 0.000000 0.500000
v -0.093750 -0.027132 0.653876
vn -0.0000 0.1736 -0.9848
vn 1.0000 -0.0000 -0.0000
vn -0.0000 -0.1736 0.9848
vn -1.0000 -0.0000 -0.0000
vn -0.0000 0.9848 0.1736
vn -0.0000 -0.9848 -0.1736
vt 0.093750 0.000000
vt 0.187500 0.000000
vt 0.187500 1.000000
vt 0.093750 1.000000
vt 0.562500 0.000000
vt 0.484375 0.000000
vt 0.484375 1.000000
vt 0.562500 1.000000
vt 0.578125 0.000000
vt 0.671875 0.000000
vt 0.671875 1.000000
vt 0.578125 1.000000
vt 0.093750 0.828125
vt 0.000000 0.828125
vt 0.000000 0.750000
vt 0.093750 0.750000
vt 0.093750 0.921875
vt 0.000000 0.921875
vt 0.000000 1.000000
s 0
usemtl m_09412a84-0e5c-d631-c6f6-87ebf837bd97
f 4/1/1 7/2/1 5/3/1 2/4/1
f 3/5/2 4/6/2 2/7/2 1/8/2
f 8/9/3 3/10/3 1/11/3 6/12/3
f 7/6/4 8/5/4 6/8/4 5/7/4
f 6/13/5 1/14/5 2/15/5 5/16/5
f 7/17/6 4/18/6 3/19/6 8/4/6
o cube.001
v 1.093750 1.942483 1.001172
v 1.093750 1.969616 0.847296
v 1.093750 -0.027132 0.653876
v 1.093750 0.000000 0.500000
v 0.906250 1.969616 0.847296
v 0.906250 1.942483 1.001172
v 0.906250 0.000000 0.500000
v 0.906250 -0.027132 0.653876
vn -0.0000 0.1736 -0.9848
vn 1.0000 -0.0000 -0.0000
vn -0.0000 -0.1736 0.9848
vn -1.0000 -0.0000 -0.0000
vn -0.0000 0.9848 0.1736
vn -0.0000 -0.9848 -0.1736
vt 0.000000 0.000000
vt 0.093750 0.000000
vt 0.093750 1.000000
vt 0.000000 1.000000
vt 0.562500 1.000000
vt 0.484375 1.000000
vt 0.484375 0.000000
vt 0.562500 0.000000
vt 0.671875 0.000000
vt 0.765625 0.000000
vt 0.765625 1.000000
vt 0.671875 1.000000
vt 0.093750 0.843750
vt 0.000000 0.843750
vt 0.000000 0.921875
vt 0.093750 0.921875
vt 0.187500 0.921875
vt 0.187500 1.000000
s 0
usemtl m_09412a84-0e5c-d631-c6f6-87ebf837bd97
f 12/20/7 15/21/7 13/22/7 10/23/7
f 11/24/8 12/25/8 10/26/8 9/27/8
f 16/28/9 11/29/9 9/30/9 14/31/9
f 15/25/10 16/24/10 14/27/10 13/26/10
f 14/32/11 9/33/11 10/34/11 13/35/11
f 15/36/12 12/35/12 11/22/12 16/37/12
o cube.002
v 1.125000 1.859375 0.876110
v 1.125000 1.969860 0.765625
v 1.125000 1.748890 0.765625
v 1.125000 1.859375 0.655139
v -0.125000 1.969860 0.765625
v -0.125000 1.859375 0.876110
v -0.125000 1.859375 0.655139
v -0.125000 1.748890 0.765625
vn -0.0000 0.7071 -0.7071
vn 1.0000 -0.0000 -0.0000
vn -0.0000 -0.7071 0.7071
vn -1.0000 -0.0000 -0.0000
vn -0.0000 0.7071 0.7071
vn -0.0000 -0.7071 -0.7071
vt 0.281250 0.375000
vt 0.281250 1.000000
vt 0.203125 1.000000
vt 0.203125 0.375000
vt 0.281250 0.093750
vt 0.281250 0.171875
vt 0.203125 0.171875
vt 0.203125 0.093750
vt 0.281250 0.921875
vt 0.203125 0.921875
s 0
usemtl m_09412a84-0e5c-d631-c6f6-87ebf837bd97
f 20/38/13 23/39/13 21/40/13 18/41/13
f 19/42/14 20/43/14 18/44/14 17/45/14
f 24/38/15 19/39/15 17/40/15 22/41/15
f 23/46/16 24/39/16 22/40/16 21/47/16
f 22/38/17 17/39/17 18/40/17 21/41/17
f 23/38/18 20/39/18 19/40/18 24/41/18
o cube.003
v 1.062500 1.892061 0.628466
v 1.062500 1.803672 0.540078
v 1.062500 1.648993 0.871534
v 1.062500 1.560604 0.783145
v 0.937500 1.803672 0.540078
v 0.937500 1.892061 0.628466
v 0.937500 1.560604 0.783145
v 0.937500 1.648993 0.871534
vn -0.0000 -0.7071 -0.7071
vn 1.0000 -0.0000 -0.0000
vn -0.0000 0.7071 0.7071
vn -1.0000 -0.0000 -0.0000
vn -0.0000 0.7071 -0.7071
vt 0.421875 0.656250
vt 0.484375 0.656250
vt 0.484375 0.828125
vt 0.421875 0.828125
vt 0.484375 1.000000
vt 0.421875 1.000000
vt 0.421875 0.937500
vt 0.484375 0.937500
s 0
usemtl m_09412a84-0e5c-d631-c6f6-87ebf837bd97
f 28/48/19 31/49/19 29/50/19 26/51/19
f 27/51/20 28/50/20 26/52/20 25/53/20
f 32/48/21 27/49/21 25/50/21 30/51/21
f 31/51/22 32/50/22 30/52/22 29/53/22
f 30/54/23 25/55/23 26/52/23 29/53/23
o cube.004
v 1.187500 0.968750 0.419194
v 1.187500 1.012944 0.375000
v 1.187500 0.924556 0.375000
v 1.187500 0.968750 0.330806
v -0.187500 1.012944 0.375000
v -0.187500 0.968750 0.419194
v -0.187500 0.968750 0.330806
v -0.187500 0.924556 0.375000
vn -0.0000 0.7071 -0.7071
vn 1.0000 -0.0000 -0.0000
vn -0.0000 -0.7071 0.7071
vn -1.0000 -0.0000 -0.0000
vn -0.0000 0.7071 0.7071
vn -0.0000 -0.7071 -0.7071
vt 0.312500 0.312500
vt 0.312500 1.000000
vt 0.281250 1.000000
vt 0.281250 0.312500
vt 0.312500 0.031250
vt 0.312500 0.062500
vt 0.281250 0.062500
vt 0.281250 0.031250
vt 0.312500 0.968750
vt 0.281250 0.968750
s 0
usemtl m_09412a84-0e5c-d631-c6f6-87ebf837bd97
f 36/56/24 39/57/24 37/58/24 34/59/24
f 35/60/25 36/61/25 34/62/25 33/63/25
f 40/56/26 35/57/26 33/58/26 38/59/26
f 39/64/27 40/57/27 38/58/27 37/65/27
f 38/56/28 33/57/28 34/58/28 37/59/28
f 39/56/29 36/57/29 35/58/29 40/59/29
o cube.005
v 0.062500 1.892061 0.628466
v 0.062500 1.803672 0.540078
v 0.062500 1.648993 0.871534
v 0.062500 1.560604 0.783145
v -0.062500 1.803672 0.540078
v -0.062500 1.892061 0.628466
v -0.062500 1.560604 0.783145
v -0.062500 1.648993 0.871534
vn -0.0000 -0.7071 -0.7071
vn 1.0000 -0.0000 -0.0000
vn -0.0000 0.7071 0.7071
vn -1.0000 -0.0000 -0.0000
vn -0.0000 0.7071 -0.7071
vt 0.421875 0.828125
vt 0.484375 0.828125
vt 0.484375 1.000000
vt 0.421875 1.000000
vt 0.421875 0.656250
vt 0.484375 0.656250
vt 0.421875 0.765625
vt 0.484375 0.765625
s 0
usemtl m_09412a84-0e5c-d631-c6f6-87ebf837bd97
f 44/66/30 47/67/30 45/68/30 42/69/30
f 43/70/31 44/71/31 42/67/31 41/66/31
f 48/66/32 43/67/32 41/68/32 46/69/32
f 47/70/33 48/71/33 46/67/33 45/66/33
f 46/72/34 41/73/34 42/67/34 45/66/34
o cube.006
v 1.031250 0.950258 0.309672
v 1.031250 0.889888 0.293495
v 1.031250 0.853201 0.671894
v 1.031250 0.792831 0.655718
v 0.968750 0.889888 0.293495
v 0.968750 0.950258 0.309672
v 0.968750 0.792831 0.655718
v 0.968750 0.853201 0.671894
vn -0.0000 -0.9659 -0.2588
vn 1.0000 -0.0000 -0.0000
vn -0.0000 0.9659 0.2588
vn -1.0000 -0.0000 -0.0000
vn -0.0000 0.2588 -0.9659
vt 0.328125 1.000000
vt 0.296875 1.000000
vt 0.296875 0.812500
vt 0.328125 0.812500
vt 0.296875 0.968750
vt 0.328125 0.968750
s 0
usemtl m_09412a84-0e5c-d631-c6f6-87ebf837bd97
f 52/74/35 55/75/35 53/76/35 50/77/35
f 51/74/36 52/75/36 50/76/36 49/77/36
f 56/74/37 51/75/37 49/76/37 54/77/37
f 55/74/38 56/75/38 54/76/38 53/77/38
f 54/74/39 49/75/39 50/78/39 53/79/39
o cube.007
v 0.031250 0.950258 0.309672
v 0.031250 0.889888 0.293495
v 0.031250 0.853201 0.671894
v 0.031250 0.792831 0.655718
v -0.031250 0.889888 0.293495
v -0.031250 0.950258 0.309672
v -0.031250 0.792831 0.655718
v -0.031250 0.853201 0.671894
vn -0.0000 -0.9659 -0.2588
vn 1.0000 -0.0000 -0.0000
vn -0.0000 0.9659 0.2588
vn -1.0000 -0.0000 -0.0000
vn -0.0000 0.2588 -0.9659
vt 0.328125 1.000000
vt 0.296875 1.000000
vt 0.296875 0.812500
vt 0.328125 0.812500
vt 0.296875 0.968750
vt 0.328125 0.968750
s 0
usemtl m_09412a84-0e5c-d631-c6f6-87ebf837bd97
f 60/80/40 63/81/40 61/82/40 58/83/40
f 59/80/41 60/81/41 58/82/41 57/83/41
f 64/80/42 59/81/42 57/82/42 62/83/42
f 63/80/43 64/81/43 62/82/43 61/83/43
f 62/80/44 57/81/44 58/84/44 61/85/44
o cube.008
v 1.028125 1.038807 0.443639
v 1.028125 1.024249 0.389306
v 1.028125 0.893918 0.482462
v 1.028125 0.879360 0.428129
v 0.971875 1.024249 0.389306
v 0.971875 1.038807 0.443639
v 0.971875 0.879360 0.428129
v 0.971875 0.893918 0.482462
vn -0.0000 -0.2588 -0.9659
vn 1.0000 -0.0000 -0.0000
vn -0.0000 0.2588 0.9659
vn -1.0000 -0.0000 -0.0000
vn -0.0000 0.9659 -0.2588
vt 0.296875 0.718750
vt 0.328125 0.718750
vt 0.328125 0.796875
vt 0.296875 0.796875
vt 0.328125 0.765625
vt 0.296875 0.765625
s 0
usemtl m_09412a84-0e5c-d631-c6f6-87ebf837bd97
f 68/86/45 71/87/45 69/88/45 66/89/45
f 67/86/46 68/87/46 66/88/46 65/89/46
f 72/86/47 67/87/47 65/88/47 70/89/47
f 71/86/48 72/87/48 70/88/48 69/89/48
f 70/90/49 65/91/49 66/89/49 69/88/49
o cube.009
v 0.028125 1.038807 0.443639
v 0.028125 1.024249 0.389306
v 0.028125 0.893918 0.482462
v 0.028125 0.879360 0.428129
v -0.028125 1.024249 0.389306
v -0.028125 1.038807 0.443639
v -0.028125 0.879360 0.428129
v -0.028125 0.893918 0.482462
vn -0.0000 -0.2588 -0.9659
vn 1.0000 -0.0000 -0.0000
vn -0.0000 0.2588 0.9659
vn -1.0000 -0.0000 -0.0000
vn -0.0000 0.9659 -0.2588
vt 0.296875 0.718750
vt 0.328125 0.718750
vt 0.328125 0.796875
vt 0.296875 0.796875
vt 0.328125 0.765625
vt 0.296875 0.765625
s 0
usemtl m_09412a84-0e5c-d631-c6f6-87ebf837bd97
f 76/92/50 79/93/50 77/94/50 74/95/50
f 75/92/51 76/93/51 74/94/51 73/95/51
f 80/92/52 75/93/52 73/94/52 78/95/52
f 79/92/53 80/93/53 78/94/53 77/95/53
f 78/96/54 73/97/54 74/95/54 77/94/54
o cube.010
v 1.125000 0.733179 0.661011
v 1.125000 0.744032 0.599461
v 1.125000 0.548528 0.628452
v 1.125000 0.559381 0.566902
v 0.500000 0.744032 0.599461
v 0.500000 0.733179 0.661011
v 0.500000 0.559381 0.566902
v 0.500000 0.548528 0.628452
vn -0.0000 0.1736 -0.9848
vn 1.0000 -0.0000 -0.0000
vn -0.0000 -0.1736 0.9848
vn -0.0000 0.9848 0.1736
vn -0.0000 -0.9848 -0.1736
vt 0.406250 0.093750
vt 0.406250 0.406250
vt 0.312500 0.406250
vt 0.312500 0.093750
vt 0.406250 0.375000
vt 0.312500 0.375000
vt 0.406250 0.687500
vt 0.406250 1.000000
vt 0.312500 1.000000
vt 0.312500 0.687500
vt 0.375000 0.406250
vt 0.375000 0.093750
vt 0.343750 0.093750
vt 0.343750 0.406250
s 0
usemtl m_09412a84-0e5c-d631-c6f6-87ebf837bd97
f 84/98/55 87/99/55 85/100/55 82/101/55
f 83/102/56 84/99/56 82/100/56 81/103/56
f 88/104/57 83/105/57 81/106/57 86/107/57
f 86/98/58 81/99/58 82/108/58 85/109/58
f 87/110/59 84/111/59 83/100/59 88/101/59
o cube.011
v 0.846875 0.968750 0.423614
v 0.846875 1.017364 0.375000
v 0.846875 0.920136 0.375000
v 0.846875 0.968750 0.326386
v 0.153125 1.017364 0.375000
v 0.153125 0.968750 0.423614
v 0.153125 0.968750 0.326386
v 0.153125 0.920136 0.375000
vn -0.0000 0.7071 -0.7071
vn -0.0000 -0.7071 0.7071
vn -0.0000 0.7071 0.7071
vn -0.0000 -0.7071 -0.7071
vt 0.859375 0.671875
vt 0.859375 1.000000
vt 0.890625 1.000000
vt 0.890625 0.671875
vt 0.875000 0.671875
vt 0.875000 1.000000
vt 0.906250 1.000000
vt 0.906250 0.671875
s 0
usemtl m_85e1cc6f-342d-5548-ca4e-a1e1c969dc15
f 92/112/60 95/113/60 93/114/60 90/115/60
f 96/115/61 91/114/61 89/113/61 94/112/61
f 94/112/62 89/113/62 90/114/62 93/115/62
f 95/116/63 92/117/63 91/118/63 96/119/63
o cube.012
v 0.843750 0.956333 0.498365
v 0.843750 0.956333 0.498365
v 0.843750 0.972613 0.406039
v 0.843750 0.972613 0.406039
v 0.156250 0.956333 0.498365
v 0.156250 0.956333 0.498365
v 0.156250 0.972613 0.406039
v 0.156250 0.972613 0.406039
vn -0.0000 0.9848 0.1736
vn -0.0000 -0.9848 -0.1736
vt 0.906250 1.000000
vt 0.906250 0.671875
vt 0.859375 0.671875
vt 0.859375 1.000000
vt 0.906250 0.421875
vt 0.859375 0.421875
s 0
usemtl m_85e1cc6f-342d-5548-ca4e-a1e1c969dc15
f 100/120/64 103/121/64 101/122/64 98/123/64
f 104/124/65 99/120/65 97/123/65 102/125/65
o cube.013
v 0.031250 1.242957 0.413201
v 0.031250 1.182587 0.397025
v 0.031250 1.162076 0.715053
v 0.031250 1.101706 0.698876
v -0.031250 1.182587 0.397025
v -0.031250 1.242957 0.413201
v -0.031250 1.101706 0.698876
v -0.031250 1.162076 0.715053
vn -0.0000 -0.9659 -0.2588
vn 1.0000 -0.0000 -0.0000
vn -0.0000 0.9659 0.2588
vn -1.0000 -0.0000 -0.0000
vn -0.0000 0.2588 -0.9659
vt 1.000000 0.125000
vt 1.000000 0.156250
vt 0.843750 0.156250
vt 0.843750 0.125000
vt 0.812500 0.156250
vt 0.812500 0.125000
s 0
usemtl m_85e1cc6f-342d-5548-ca4e-a1e1c969dc15
f 108/126/66 111/127/66 109/128/66 106/129/66
f 107/126/67 108/127/67 106/128/67 105/129/67
f 112/128/68 107/129/68 105/126/68 110/127/68
f 111/126/69 112/127/69 110/128/69 109/129/69
f 110/130/70 105/131/70 106/129/70 109/128/70
o cube.014
v 0.046875 1.249962 0.447430
v 0.046875 1.159406 0.423166
v 0.046875 1.193345 0.658726
v 0.046875 1.102790 0.634462
v -0.046875 1.159406 0.423166
v -0.046875 1.249962 0.447430
v -0.046875 1.102790 0.634462
v -0.046875 1.193345 0.658726
vn -0.0000 -0.9659 -0.2588
vn 1.0000 -0.0000 -0.0000
vn -0.0000 0.9659 0.2588
vn -1.0000 -0.0000 -0.0000
vn -0.0000 0.2588 -0.9659
vn -0.0000 -0.2588 0.9659
vt 1.000000 0.000000
vt 1.000000 0.046875
vt 0.890625 0.046875
vt 0.890625 0.000000
vt 0.843750 0.046875
vt 0.843750 0.000000
s 0
usemtl m_85e1cc6f-342d-5548-ca4e-a1e1c969dc15
f 116/132/71 119/133/71 117/134/71 114/135/71
f 115/132/72 116/133/72 114/134/72 113/135/72
f 120/132/73 115/133/73 113/134/73 118/135/73
f 119/132/74 120/133/74 118/134/74 117/135/74
f 118/135/75 113/134/75 114/136/75 117/137/75
f 119/135/76 116/134/76 115/136/76 120/137/76
o cube.015
v 1.046875 1.400888 0.487870
v 1.046875 1.310332 0.463606
v 1.046875 1.344271 0.699167
v 1.046875 1.253716 0.674902
v 0.953125 1.310332 0.463606
v 0.953125 1.400888 0.487870
v 0.953125 1.253716 0.674902
v 0.953125 1.344271 0.699167
vn -0.0000 -0.9659 -0.2588
vn 1.0000 -0.0000 -0.0000
vn -0.0000 0.9659 0.2588
vn -1.0000 -0.0000 -0.0000
vn -0.0000 0.2588 -0.9659
vn -0.0000 -0.2588 0.9659
vt 1.000000 0.062500
vt 1.000000 0.109375
vt 0.890625 0.109375
vt 0.890625 0.062500
vt 0.843750 0.109375
vt 0.843750 0.062500
s 0
usemtl m_85e1cc6f-342d-5548-ca4e-a1e1c969dc15
f 124/138/77 127/139/77 125/140/77 122/141/77
f 123/138/78 124/139/78 122/140/78 121/141/78
f 128/138/79 123/139/79 121/140/79 126/141/79
f 127/138/80 128/139/80 126/140/80 125/141/80
f 126/141/81 121/140/81 122/142/81 125/143/81
f 127/141/82 124/140/82 123/142/82 128/143/82
o cube.016
v 1.031250 1.393883 0.453641
v 1.031250 1.333513 0.437465
v 1.031250 1.313002 0.755493
v 1.031250 1.252632 0.739317
v 0.968750 1.333513 0.437465
v 0.968750 1.393883 0.453641
v 0.968750 1.252632 0.739317
v 0.968750 1.313002 0.755493
vn -0.0000 -0.9659 -0.2588
vn 1.0000 -0.0000 -0.0000
vn -0.0000 0.9659 0.2588
vn -1.0000 -0.0000 -0.0000
vn -0.0000 0.2588 -0.9659
vt 1.000000 0.125000
vt 1.000000 0.156250
vt 0.843750 0.156250
vt 0.843750 0.125000
vt 0.812500 0.156250
vt 0.812500 0.125000
s 0
usemtl m_85e1cc6f-342d-5548-ca4e-a1e1c969dc15
f 132/144/83 135/145/83 133/146/83 130/147/83
f 131/144/84 132/145/84 130/146/84 129/147/84
f 136/146/85 131/147/85 129/144/85 134/145/85
f 135/144/86 136/145/86 134/146/86 133/147/86
f 134/148/87 129/149/87 130/147/87 133/146/87
o cube.017
v 0.500000 0.733179 0.661011
v 0.500000 0.744032 0.599461
v 0.500000 0.548528 0.628452
v 0.500000 0.559381 0.566902
v -0.125000 0.744032 0.599461
v -0.125000 0.733179 0.661011
v -0.125000 0.559381 0.566902
v -0.125000 0.548528 0.628452
vn -0.0000 0.1736 -0.9848
vn -0.0000 -0.1736 0.9848
vn -1.0000 -0.0000 -0.0000
vn -0.0000 0.9848 0.1736
vn -0.0000 -0.9848 -0.1736
vt 0.406250 0.687500
vt 0.406250 1.000000
vt 0.312500 1.000000
vt 0.312500 0.687500
vt 0.406250 0.093750
vt 0.406250 0.406250
vt 0.312500 0.406250
vt 0.312500 0.093750
vt 0.406250 0.125000
vt 0.312500 0.125000
vt 0.375000 1.000000
vt 0.375000 0.687500
vt 0.343750 0.687500
vt 0.343750 1.000000
s 0
usemtl m_09412a84-0e5c-d631-c6f6-87ebf837bd97
f 140/150/88 143/151/88 141/152/88 138/153/88
f 144/154/89 139/155/89 137/156/89 142/157/89
f 143/154/90 144/158/90 142/159/90 141/157/90
f 142/150/91 137/151/91 138/160/91 141/161/91
f 143/162/92 140/163/92 139/152/92 144/153/92
o cube.018
v 0.875000 1.748890 0.765625
v 0.875000 1.748890 0.765625
v 0.875000 1.219661 0.719323
v 0.875000 1.219661 0.719323
v 0.125000 1.748890 0.765625
v 0.125000 1.748890 0.765625
v 0.125000 1.219661 0.719323
v 0.125000 1.219661 0.719323
vn -0.0000 0.0872 -0.9962
vn -0.0000 -0.0872 0.9962
vt 0.375000 0.734375
vt 0.000000 0.734375
vt 0.000000 1.000000
vt 0.375000 1.000000
s 0
usemtl m_85e1cc6f-342d-5548-ca4e-a1e1c969dc15
f 148/164/93 151/165/93 149/166/93 146/167/93
f 152/164/94 147/165/94 145/166/94 150/167/94
o cube.019
v 0.875000 0.646143 0.565650
v 0.875000 0.646143 0.565650
v 0.875000 0.177393 0.565650
v 0.875000 0.177393 0.565650
v 0.125000 0.646143 0.565650
v 0.125000 0.646143 0.565650
v 0.125000 0.177393 0.565650
v 0.125000 0.177393 0.565650
vn -0.0000 -0.0000 -1.0000
vn -0.0000 -0.0000 1.0000
vt 0.625000 1.000000
vt 0.625000 0.625000
vt 0.859375 0.625000
vt 0.859375 1.000000
s 0
usemtl m_85e1cc6f-342d-5548-ca4e-a1e1c969dc15
f 156/168/95 159/169/95 157/170/95 154/171/95
f 160/168/96 155/169/96 153/170/96 158/171/96
o cube.020
v 0.875000 0.733212 0.669511
v 0.875000 0.733212 0.669511
v 0.875000 0.326962 0.669511
v 0.875000 0.326962 0.669511
v 0.125000 0.733212 0.669511
v 0.125000 0.733212 0.669511
v 0.125000 0.326962 0.669511
v 0.125000 0.326962 0.669511
vn -0.0000 -0.0000 -1.0000
vn -0.0000 -0.0000 1.0000
vt 0.375000 0.156250
vt 0.000000 0.156250
vt 0.000000 0.359375
vt 0.375000 0.359375
s 0
usemtl m_85e1cc6f-342d-5548-ca4e-a1e1c969dc15
f 164/172/97 167/173/97 165/174/97 162/175/97
f 168/173/98 163/172/98 161/175/98 166/174/98
o cube.021
v 0.878125 1.859375 0.880530
v 0.878125 1.974280 0.765625
v 0.878125 1.744470 0.765625
v 0.878125 1.859375 0.650720
v 0.121875 1.974280 0.765625
v 0.121875 1.859375 0.880530
v 0.121875 1.859375 0.650720
v 0.121875 1.744470 0.765625
vn -0.0000 0.7071 -0.7071
vn -0.0000 -0.7071 0.7071
vn -0.0000 0.7071 0.7071
vn -0.0000 -0.7071 -0.7071
vt 1.000000 1.000000
vt 1.000000 0.625000
vt 0.921875 0.625000
vt 0.921875 1.000000
s 0
usemtl m_85e1cc6f-342d-5548-ca4e-a1e1c969dc15
f 172/176/99 175/177/99 173/178/99 170/179/99
f 176/176/100 171/177/100 169/178/100 174/179/100
f 174/179/101 169/178/101 170/177/101 173/176/101
f 175/177/102 172/176/102 171/179/102 176/178/102
o cube.022
v 0.875000 0.956305 0.498310
v 0.875000 0.956305 0.498310
v 0.875000 0.733174 0.669524
v 0.875000 0.733174 0.669524
v 0.125000 0.956305 0.498310
v 0.125000 0.956305 0.498310
v 0.125000 0.733174 0.669524
v 0.125000 0.733174 0.669524
vn -0.0000 -0.6088 -0.7934
vn -0.0000 0.6088 0.7934
vt 0.375000 0.421875
vt 0.000000 0.421875
vt 0.000000 0.562500
vt 0.375000 0.562500
s 0
usemtl m_85e1cc6f-342d-5548-ca4e-a1e1c969dc15
f 180/180/103 183/181/103 181/182/103 178/183/103
f 184/181/104 179/180/104 177/183/104 182/182/104
o cube.023
v 0.875000 1.219661 0.719323
v 0.875000 1.219661 0.719323
v 0.875000 0.956333 0.498365
v 0.875000 0.956333 0.498365
v 0.125000 1.219661 0.719323
v 0.125000 1.219661 0.719323
v 0.125000 0.956333 0.498365
v 0.125000 0.956333 0.498365
vn -0.0000 0.6428 -0.7660
vn -0.0000 -0.6428 0.7660
vt 0.375000 0.562500
vt 0.000000 0.562500
vt 0.000000 0.734375
vt 0.375000 0.734375
s 0
usemtl m_85e1cc6f-342d-5548-ca4e-a1e1c969dc15
f 188/184/105 191/185/105 189/186/105 186/187/105
f 192/185/106 187/184/106 185/187/106 190/186/106
o cube.024
v 0.875000 1.219661 0.719323
v 0.875000 1.219661 0.719323
v 0.875000 0.646143 0.565650
v 0.875000 0.646143 0.565650
v 0.125000 1.219661 0.719323
v 0.125000 1.219661 0.719323
v 0.125000 0.646143 0.565650
v 0.125000 0.646143 0.565650
vn -0.0000 0.2588 -0.9659
vn -0.0000 -0.2588 0.9659
vt 0.000000 0.437500
vt 0.375000 0.437500
vt 0.375000 0.734375
vt 0.000000 0.734375
s 0
usemtl m_85e1cc6f-342d-5548-ca4e-a1e1c969dc15
f 196/188/107 199/189/107 197/190/107 194/191/107
f 200/189/108 195/188/108 193/191/108 198/190/108
o cube.025
v 0.812500 0.406250 0.562500
v 0.750000 0.406250 0.562500
v 0.812500 0.218750 0.562500
v 0.750000 0.218750 0.562500
v 0.750000 0.406250 0.750000
v 0.812500 0.406250 0.750000
v 0.750000 0.218750 0.750000
v 0.812500 0.218750 0.750000
vn -1.0000 -0.0000 -0.0000
vn -0.0000 -0.0000 -1.0000
vn 1.0000 -0.0000 -0.0000
vn -0.0000 -0.0000 1.0000
vn -0.0000 1.0000 -0.0000
vn -0.0000 -1.0000 -0.0000
vt 0.125000 0.250000
vt 0.500000 0.250000
vt 0.500000 0.625000
vt 0.125000 0.625000
vt 0.000000 0.250000
vt 0.000000 0.625000
s 0
usemtl m_e3957572-c164-d59f-2c54-ca7e3d3c2823
f 204/192/109 207/193/109 205/194/109 202/195/109
f 203/192/110 204/196/110 202/197/110 201/195/110
f 208/192/111 203/193/111 201/194/111 206/195/111
f 207/196/112 208/192/112 206/195/112 205/197/112
f 206/192/113 201/195/113 202/197/113 205/196/113
f 207/196/114 204/197/114 203/195/114 208/192/114
o cube.026
v 0.727389 0.296875 0.471944
v 0.667019 0.296875 0.455768
v 0.727389 0.109375 0.471944
v 0.667019 0.109375 0.455768
v 0.618490 0.296875 0.636879
v 0.678861 0.296875 0.653056
v 0.618490 0.109375 0.636879
v 0.678861 0.109375 0.653056
vn -0.9659 -0.0000 -0.2588
vn 0.2588 -0.0000 -0.9659
vn 0.9659 -0.0000 0.2588
vn -0.2588 -0.0000 0.9659
vn -0.0000 1.0000 -0.0000
vn -0.0000 -1.0000 -0.0000
vt 0.125000 0.625000
vt 0.500000 0.625000
vt 0.500000 1.000000
vt 0.125000 1.000000
vt 0.000000 0.625000
vt 0.000000 1.000000
s 0
usemtl m_e3957572-c164-d59f-2c54-ca7e3d3c2823
f 212/198/115 215/199/115 213/200/115 210/201/115
f 211/198/116 212/202/116 210/203/116 209/201/116
f 216/198/117 211/199/117 209/200/117 214/201/117
f 215/202/118 216/198/118 214/201/118 213/203/118
f 214/198/119 209/201/119 210/203/119 213/202/119
f 215/202/120 212/203/120 211/201/120 216/198/120
o cube.027
v 0.545746 0.406250 0.558498
v 0.484195 0.406250 0.569351
v 0.545746 0.218750 0.558498
v 0.484195 0.218750 0.569351
v 0.516754 0.406250 0.754002
v 0.578305 0.406250 0.743149
v 0.516754 0.218750 0.754002
v 0.578305 0.218750 0.743149
vn -0.9848 -0.0000 0.1736
vn -0.1736 -0.0000 -0.9848
vn 0.9848 -0.0000 -0.1736
vn 0.1736 -0.0000 0.9848
vn -0.0000 1.0000 -0.0000
vn -0.0000 -1.0000 -0.0000
vt 0.625000 0.250000
vt 1.000000 0.250000
vt 1.000000 0.625000
vt 0.625000 0.625000
vt 0.500000 0.250000
vt 0.500000 0.625000
s 0
usemtl m_e3957572-c164-d59f-2c54-ca7e3d3c2823
f 220/204/121 223/205/121 221/206/121 218/207/121
f 219/204/122 220/208/122 218/209/122 217/207/122
f 224/204/123 219/205/123 217/206/123 222/207/123
f 223/208/124 224/204/124 222/207/124 221/209/124
f 222/204/125 217/207/125 218/209/125 221/208/125
f 223/208/126 220/209/126 219/207/126 224/204/126
o cube.028
v 0.430105 0.296875 0.452120
v 0.367843 0.296875 0.446673
v 0.430105 0.109375 0.452120
v 0.367843 0.109375 0.446673
v 0.351501 0.296875 0.633459
v 0.413764 0.296875 0.638906
v 0.351501 0.109375 0.633459
v 0.413764 0.109375 0.638906
vn -0.9962 -0.0000 -0.0872
vn 0.0872 -0.0000 -0.9962
vn 0.9962 -0.0000 0.0872
vn -0.0872 -0.0000 0.9962
vn -0.0000 1.0000 -0.0000
vn -0.0000 -1.0000 -0.0000
vt 0.625000 0.625000
vt 1.000000 0.625000
vt 1.000000 1.000000
vt 0.625000 1.000000
vt 0.500000 0.625000
vt 0.500000 1.000000
s 0
usemtl m_e3957572-c164-d59f-2c54-ca7e3d3c2823
f 228/210/127 231/211/127 229/212/127 226/213/127
f 227/210/128 228/214/128 226/215/128 225/213/128
f 232/210/129 227/211/129 225/212/129 230/213/129
f 231/214/130 232/210/130 230/213/130 229/215/130
f 230/210/131 225/213/131 226/215/131 229/214/131
f 231/214/132 228/215/132 227/213/132 232/210/132
o cube.029
v 0.245881 0.406250 0.561226
v 0.183440 0.406250 0.563952
v 0.245881 0.218750 0.561226
v 0.183440 0.218750 0.563952
v 0.191619 0.406250 0.751274
v 0.254060 0.406250 0.748548
v 0.191619 0.218750 0.751274
v 0.254060 0.218750 0.748548
vn -0.9990 -0.0000 0.0436
vn -0.0436 -0.0000 -0.9990
vn 0.9990 -0.0000 -0.0436
vn 0.0436 -0.0000 0.9990
vn -0.0000 1.0000 -0.0000
vn -0.0000 -1.0000 -0.0000
vt 0.125000 0.625000
vt 0.500000 0.625000
vt 0.500000 1.000000
vt 0.125000 1.000000
vt 0.000000 0.625000
vt 0.000000 1.000000
s 0
usemtl m_e3957572-c164-d59f-2c54-ca7e3d3c2823
f 236/216/133 239/217/133 237/218/133 234/219/133
f 235/216/134 236/220/134 234/221/134 233/219/134
f 240/216/135 235/217/135 233/218/135 238/219/135
f 239/220/136 240/216/136 238/219/136 237/221/136
f 238/216/137 233/219/137 234/221/137 237/220/137
f 239/220/138 236/221/138 235/219/138 240/216/138
