# Made in Blockbench 4.12.2
mtllib big_dolia.mtl

o cylinder
v 0.35703173594587073 1.96875 -0.21875
v 0.09286083002931284 1.96875 -0.10932682798497506
v -0.10932682798497473 1.96875 0.09286083002931261
v -0.2187499999999999 1.96875 0.3570317359458705
v -0.21875 1.96875 0.6429682640541292
v -0.10932682798497506 1.96875 0.9071391699706871
v 0.09286083002931261 1.96875 1.1093268279849746
v 0.35703173594587045 1.96875 1.21875
v 0.6429682640541292 1.96875 1.21875
v 0.9071391699706874 1.96875 1.1093268279849746
v 1.1093268279849746 1.96875 0.9071391699706874
v 1.21875 1.96875 0.6429682640541292
v 1.21875 1.96875 0.35703173594587084
v 1.109326827984975 1.96875 0.09286083002931284
v 0.9071391699706874 1.96875 -0.10932682798497495
v 0.6429682640541294 1.96875 -0.21875
v 0.33838370150402775 2.046875 -0.3125
v 0.03975572090270152 2.046875 -0.1888042403308413
v -0.18880424033084098 2.046875 0.039755720902701186
v -0.3124999999999999 2.046875 0.3383837015040275
v -0.3125 2.046875 0.6616162984959721
v -0.1888042403308413 2.046875 0.9602442790972985
v 0.039755720902701186 2.046875 1.188804240330841
v 0.3383837015040275 2.046875 1.3125
v 0.6616162984959721 2.046875 1.3125
v 0.9602442790972988 2.046875 1.188804240330841
v 1.188804240330841 2.046875 0.9602442790972989
v 1.3125 2.046875 0.6616162984959721
v 1.3125 2.046875 0.3383837015040279
v 1.1888042403308412 2.046875 0.03975572090270152
v 0.9602442790972988 2.046875 -0.1888042403308412
v 0.6616162984959724 2.046875 -0.3125
v 1.3125 2.109375 0.3383837015040279
v 1.1888042403308412 2.109375 0.03975572090270152
v 0.9602442790972988 2.109375 -0.1888042403308412
v 0.6616162984959724 2.109375 -0.3125
v 0.33838370150402775 2.109375 -0.3125
v 0.03975572090270152 2.109375 -0.1888042403308413
v -0.18880424033084098 2.109375 0.039755720902701186
v -0.3124999999999999 2.109375 0.3383837015040275
v -0.3125 2.109375 0.6616162984959721
v -0.1888042403308413 2.109375 0.9602442790972985
v 0.039755720902701186 2.109375 1.188804240330841
v 0.3383837015040275 2.109375 1.3125
v 0.6616162984959721 2.109375 1.3125
v 0.9602442790972988 2.109375 1.188804240330841
v 1.188804240330841 2.109375 0.9602442790972989
v 1.3125 2.109375 0.6616162984959721
v 1.0828343572030192 0 0.8894374669284837
v 0.8894374669284836 0 1.0828343572030192
v 0.6367522525735149 0 1.1875
v 0.3632477474264848 0 1.1875
v 0.11056253307151642 0 1.0828343572030192
v -0.08283435720301957 0 0.8894374669284834
v -0.1875 0 0.636752252573515
v -0.1874999999999999 0 0.3632477474264848
v -0.08283435720301935 0 0.11056253307151642
v 0.11056253307151659 0 -0.08283435720301957
v 0.363247747426485 0 -0.1875
v 0.6367522525735151 0 -0.1875
v 0.8894374669284836 0 -0.08283435720301946
v 1.0828343572030197 0 0.11056253307151659
v 1.1875 0 0.36324774742648513
v 1.1875 0 0.636752252573515
v 1.1875 2.09375 0.636752252573515
v 1.0828343572030192 2.09375 0.8894374669284837
v 0.8894374669284836 2.09375 1.0828343572030192
v 0.6367522525735149 2.09375 1.1875
v 0.36324774742648486 2.09375 1.1874999999999998
v 0.11056253307151642 2.09375 1.0828343572030192
v -0.08283435720301968 2.09375 0.8894374669284834
v -0.1875 2.09375 0.636752252573515
v -0.18749999999999978 2.09375 0.36324774742648486
v -0.08283435720301924 2.09375 0.11056253307151642
v 0.11056253307151676 2.09375 -0.08283435720301979
v 0.3632477474264851 2.09375 -0.1875
v 0.6367522525735151 2.09375 -0.1875
v 0.8894374669284836 2.09375 -0.08283435720301968
v 1.0828343572030197 2.09375 0.11056253307151664
v 1.1875 2.09375 0.36324774742648513
v 0.698912367379658 0.28125 1.5
v 0.7331004305230368 0.671875 1.6718750000000002
v 1.0664544973505214 0.28125 1.3477590650225735
v 1.1638138640826425 0.671875 1.4934676543233285
v 1.3477590650225735 0.28125 1.0664544973505217
v 1.4934676543233285 0.671875 1.1638138640826425
v 1.5 0.28125 0.6989123673796581
v 1.6718750000000002 0.671875 0.7331004305230369
v 1.5 0.28125 0.3010876326203421
v 1.6718750000000002 0.671875 0.2668995694769633
v 1.347759065022574 0.28125 -0.06645449735052134
v 1.4934676543233287 0.671875 -0.1638138640826422
v 1.0664544973505214 0.28125 -0.3477590650225737
v 1.1638138640826425 0.671875 -0.4934676543233286
v 0.6989123673796583 0.28125 -0.4999999999999999
v 0.7331004305230372 0.671875 -0.6718750000000002
v 0.3010876326203419 0.28125 -0.4999999999999999
v 0.26689956947696314 0.671875 -0.6718750000000002
v -0.06645449735052134 0.28125 -0.3477590650225738
v -0.1638138640826422 0.671875 -0.49346765432332884
v -0.3477590650225736 0.28125 -0.06645449735052156
v -0.4934676543233285 0.671875 -0.16381386408264254
v -0.4999999999999998 0.28125 0.3010876326203416
v -0.671875 0.671875 0.2668995694769628
v -0.4999999999999999 0.28125 0.698912367379658
v -0.6718750000000002 0.671875 0.7331004305230369
v -0.3477590650225738 0.28125 1.0664544973505212
v -0.49346765432332884 0.671875 1.163813864082642
v -0.06645449735052156 0.28125 1.3477590650225735
v -0.16381386408264254 0.671875 1.4934676543233285
v 0.3010876326203415 0.28125 1.4999999999999998
v 0.2668995694769627 0.671875 1.671875
v 0.7455324534842658 1.359375 -0.734375
v 0.2544675465157345 1.359375 -0.734375
v -0.1992172701670497 1.359375 -0.5464525958872397
v -0.5464525958872393 1.359375 -0.19921727016705015
v -0.7343749999999998 1.359375 0.2544675465157341
v -0.734375 1.359375 0.7455324534842654
v -0.5464525958872397 1.359375 1.1992172701670496
v -0.19921727016705015 1.359375 1.5464525958872393
v 0.25446754651573406 1.359375 1.7343749999999998
v 0.7455324534842653 1.359375 1.734375
v 1.19921727016705 1.359375 1.5464525958872393
v 1.5464525958872393 1.359375 1.1992172701670503
v 1.734375 1.359375 0.7455324534842654
v 1.734375 1.359375 0.25446754651573467
v 1.5464525958872397 1.359375 -0.1992172701670497
v 1.19921727016705 1.359375 -0.5464525958872395
v 0.7175604018215014 1.734375 -0.59375
v 1.1195596064771332 1.734375 -0.42723647736844006
v 1.4272364773684403 1.734375 -0.11955960647713271
v 1.59375 1.734375 0.28243959817849906
v 1.59375 1.734375 0.717560401821501
v 1.4272364773684398 1.734375 1.1195596064771332
v 1.1195596064771332 1.734375 1.4272364773684398
v 0.7175604018215009 1.734375 1.59375
v 0.2824395981784985 1.734375 1.5937499999999998
v -0.11955960647713315 1.734375 1.4272364773684398
v -0.4272364773684403 1.734375 1.1195596064771327
v -0.59375 1.734375 0.717560401821501
v -0.5937499999999998 1.734375 0.2824395981784986
v -0.42723647736843984 1.734375 -0.11955960647713315
v -0.11955960647713271 1.734375 -0.4272364773684403
v 0.2824395981784989 1.734375 -0.59375
v 1.1875 0 0.36324774742648513
v 1.0828343572030197 0 0.11056253307151659
v 0.8894374669284836 0 -0.08283435720301946
v 0.6367522525735151 0 -0.1875
v 0.363247747426485 0 -0.1875
v 0.11056253307151659 0 -0.08283435720301957
v -0.08283435720301935 0 0.11056253307151642
v -0.1874999999999999 0 0.3632477474264848
v -0.1875 0 0.636752252573515
v -0.08283435720301957 0 0.8894374669284834
v 0.11056253307151642 0 1.0828343572030192
v 0.3632477474264848 0 1.1875
v 0.6367522525735149 0 1.1875
v 0.8894374669284836 0 1.0828343572030192
v 1.0828343572030192 0 0.8894374669284837
v 1.1875 0 0.636752252573515
v 1.59375 0.59375 0.717560401821501
v 1.59375 0.59375 0.2824395981784991
v 1.4272364773684396 0.59375 1.1195596064771332
v 1.119559606477133 0.59375 1.4272364773684396
v 0.7175604018215009 0.59375 1.59375
v 0.28243959817849856 0.59375 1.5937499999999998
v -0.11955960647713293 0.59375 1.4272364773684396
v -0.42723647736844006 0.59375 1.1195596064771325
v -0.59375 0.59375 0.717560401821501
v -0.5937499999999998 0.59375 0.2824395981784986
v -0.4272364773684397 0.59375 -0.11955960647713293
v -0.1195596064771326 0.59375 -0.42723647736844006
v 0.28243959817849895 0.59375 -0.59375
v 0.7175604018215014 0.59375 -0.59375
v 1.119559606477133 0.59375 -0.42723647736843984
v 1.42723647736844 0.59375 -0.1195596064771326
v 1.1875 1.90625 0.36324774742648513
v 1.1875 1.90625 0.6367522525735149
v 1.0828343572030192 1.90625 0.8894374669284836
v 0.8894374669284835 1.90625 1.0828343572030192
v 0.6367522525735149 1.90625 1.1875
v 0.3632477474264848 1.90625 1.1874999999999998
v 0.11056253307151648 1.90625 1.0828343572030192
v -0.08283435720301957 1.90625 0.8894374669284832
v -0.1875 1.90625 0.636752252573515
v -0.18749999999999978 1.90625 0.36324774742648486
v -0.08283435720301924 1.90625 0.11056253307151648
v 0.1105625330715167 1.90625 -0.08283435720301957
v 0.363247747426485 1.90625 -0.1875
v 0.6367522525735151 1.90625 -0.1875
v 0.8894374669284835 1.90625 -0.08283435720301946
v 1.0828343572030197 1.90625 0.11056253307151664
v 1.1875 0.3125 0.36324774742648513
v 1.0828343572030197 0.3125 0.11056253307151659
v 0.8894374669284836 0.3125 -0.08283435720301946
v 0.6367522525735152 0.3125 -0.1875
v 0.363247747426485 0.3125 -0.1875
v 0.11056253307151659 0.3125 -0.08283435720301957
v -0.08283435720301935 0.3125 0.11056253307151642
v -0.1874999999999999 0.3125 0.3632477474264848
v -0.1875 0.3125 0.636752252573515
v -0.08283435720301957 0.3125 0.8894374669284834
v 0.11056253307151642 0.3125 1.0828343572030192
v 0.36324774742648475 0.3125 1.1875
v 0.6367522525735149 0.3125 1.1875
v 0.8894374669284836 0.3125 1.0828343572030192
v 1.0828343572030192 0.3125 0.8894374669284837
v 1.1875 0.3125 0.636752252573515
v 1.609375 1.53125 0.27933159243819194
v 1.609375 1.53125 0.7206684075618082
v 1.4404827127594175 1.53125 1.128410457998235
v 1.128410457998235 1.53125 1.4404827127594175
v 0.7206684075618082 1.53125 1.609375
v 0.27933159243819133 1.53125 1.6093749999999998
v -0.12841045799823492 1.53125 1.4404827127594175
v -0.4404827127594181 1.53125 1.1284104579982346
v -0.609375 1.53125 0.7206684075618082
v -0.6093749999999998 1.53125 0.2793315924381914
v -0.44048271275941764 1.53125 -0.12841045799823492
v -0.12841045799823447 1.53125 -0.4404827127594181
v 0.2793315924381917 1.53125 -0.609375
v 0.7206684075618086 1.53125 -0.609375
v 1.128410457998235 1.53125 -0.44048271275941786
v 1.440482712759418 1.53125 -0.12841045799823447
vt 0.154296875 0.328125
vt 0.220703125 0.328125
vt 0.244140625 0.5
vt 0.130859375 0.5
vt 0.279296875 0.328125
vt 0.345703125 0.328125
vt 0.369140625 0.5
vt 0.255859375 0.5
vt 0.404296875 0.328125
vt 0.470703125 0.328125
vt 0.494140625 0.5
vt 0.380859375 0.5
vt 0.029296875 0.328125
vt 0.095703125 0.328125
vt 0.119140625 0.5
vt 0.005859375 0.5
vt 0.154296875 0.328125
vt 0.220703125 0.328125
vt 0.244140625 0.5
vt 0.130859375 0.5
vt 0.279296875 0.328125
vt 0.345703125 0.328125
vt 0.369140625 0.5
vt 0.255859375 0.5
vt 0.404296875 0.328125
vt 0.470703125 0.328125
vt 0.494140625 0.5
vt 0.380859375 0.5
vt 0.029296875 0.328125
vt 0.095703125 0.328125
vt 0.119140625 0.5
vt 0.005859375 0.5
vt 0.154296875 0.328125
vt 0.220703125 0.328125
vt 0.244140625 0.5
vt 0.130859375 0.5
vt 0.279296875 0.328125
vt 0.345703125 0.328125
vt 0.369140625 0.5
vt 0.255859375 0.5
vt 0.404296875 0.328125
vt 0.470703125 0.328125
vt 0.494140625 0.5
vt 0.380859375 0.5
vt 0.029296875 0.328125
vt 0.095703125 0.328125
vt 0.119140625 0.5
vt 0.005859375 0.5
vt 0.154296875 0.328125
vt 0.220703125 0.328125
vt 0.244140625 0.5
vt 0.130859375 0.5
vt 0.279296875 0.328125
vt 0.345703125 0.328125
vt 0.369140625 0.5
vt 0.255859375 0.5
vt 0.404296875 0.328125
vt 0.470703125 0.328125
vt 0.494140625 0.5
vt 0.380859375 0.5
vt 0.029296875 0.328125
vt 0.095703125 0.328125
vt 0.119140625 0.5
vt 0.005859375 0.5
vt 0.125 0.71875
vt 0 0.71875
vt 0.005859375 0.5
vt 0.119140625 0.5
vt 0.25 0.71875
vt 0.125 0.71875
vt 0.130859375 0.5
vt 0.244140625 0.5
vt 0.375 0.71875
vt 0.25 0.71875
vt 0.255859375 0.5
vt 0.369140625 0.5
vt 0.5 0.71875
vt 0.375 0.71875
vt 0.380859375 0.5
vt 0.494140625 0.5
vt 0.125 0.71875
vt 0 0.71875
vt 0.005859375 0.5
vt 0.119140625 0.5
vt 0.25 0.71875
vt 0.125 0.71875
vt 0.130859375 0.5
vt 0.244140625 0.5
vt 0.375 0.71875
vt 0.25 0.71875
vt 0.255859375 0.5
vt 0.369140625 0.5
vt 0.5 0.71875
vt 0.375 0.71875
vt 0.380859375 0.5
vt 0.494140625 0.5
vt 0.125 0.71875
vt 0 0.71875
vt 0.005859375 0.5
vt 0.119140625 0.5
vt 0.25 0.71875
vt 0.125 0.71875
vt 0.130859375 0.5
vt 0.244140625 0.5
vt 0.375 0.71875
vt 0.25 0.71875
vt 0.255859375 0.5
vt 0.369140625 0.5
vt 0.5 0.71875
vt 0.375 0.71875
vt 0.380859375 0.5
vt 0.494140625 0.5
vt 0.125 0.71875
vt 0 0.71875
vt 0.005859375 0.5
vt 0.119140625 0.5
vt 0.25 0.71875
vt 0.125 0.71875
vt 0.130859375 0.5
vt 0.244140625 0.5
vt 0.375 0.71875
vt 0.25 0.71875
vt 0.255859375 0.5
vt 0.369140625 0.5
vt 0.5 0.71875
vt 0.375 0.71875
vt 0.380859375 0.5
vt 0.494140625 0.5
vt 0.171875 0.984375
vt 0.0859375 0.984375
vt 0.09375 0.9453125
vt 0.1640625 0.9453125
vt 0.2578125 0.984375
vt 0.171875 0.984375
vt 0.1796875 0.9453125
vt 0.25 0.9453125
vt 0.34375 0.984375
vt 0.2578125 0.984375
vt 0.265625 0.9453125
vt 0.3359375 0.9453125
vt 0.0859375 0.984375
vt 0 0.984375
vt 0.0078125 0.9453125
vt 0.078125 0.9453125
vt 0.171875 0.984375
vt 0.0859375 0.984375
vt 0.09375 0.9453125
vt 0.1640625 0.9453125
vt 0.2578125 0.984375
vt 0.171875 0.984375
vt 0.1796875 0.9453125
vt 0.25 0.9453125
vt 0.34375 0.984375
vt 0.2578125 0.984375
vt 0.265625 0.9453125
vt 0.3359375 0.9453125
vt 0.0859375 0.984375
vt 0 0.984375
vt 0.0078125 0.9453125
vt 0.078125 0.9453125
vt 0.171875 0.984375
vt 0.0859375 0.984375
vt 0.09375 0.9453125
vt 0.1640625 0.9453125
vt 0.2578125 0.984375
vt 0.171875 0.984375
vt 0.1796875 0.9453125
vt 0.25 0.9453125
vt 0.34375 0.984375
vt 0.2578125 0.984375
vt 0.265625 0.9453125
vt 0.3359375 0.9453125
vt 0.0859375 0.984375
vt 0 0.984375
vt 0.0078125 0.9453125
vt 0.078125 0.9453125
vt 0.171875 0.984375
vt 0.0859375 0.984375
vt 0.09375 0.9453125
vt 0.1640625 0.9453125
vt 0.2578125 0.984375
vt 0.171875 0.984375
vt 0.1796875 0.9453125
vt 0.25 0.9453125
vt 0.34375 0.984375
vt 0.2578125 0.984375
vt 0.265625 0.9453125
vt 0.3359375 0.9453125
vt 0.0859375 0.984375
vt 0 0.984375
vt 0.0078125 0.9453125
vt 0.078125 0.9453125
vt 0.494140625 0.8046875
vt 0.380859375 0.8046875
vt 0.3750000000000002 0.7187500000000008
vt 0.5000000000000002 0.7187500000000008
vt 0.369140625 0.8046875
vt 0.255859375 0.8046875
vt 0.2500000000000002 0.7187500000000008
vt 0.3750000000000002 0.7187500000000008
vt 0.244140625 0.8046875
vt 0.130859375 0.8046875
vt 0.12500000000000022 0.7187500000000008
vt 0.2500000000000002 0.7187500000000008
vt 0.119140625 0.8046875
vt 0.005859375 0.8046875
vt 2.220446049250313e-16 0.7187500000000008
vt 0.12500000000000022 0.7187500000000008
vt 0.494140625 0.8046875
vt 0.380859375 0.8046875
vt 0.3750000000000002 0.7187500000000008
vt 0.5000000000000002 0.7187500000000008
vt 0.369140625 0.8046875
vt 0.255859375 0.8046875
vt 0.2500000000000002 0.7187500000000008
vt 0.3750000000000002 0.7187500000000008
vt 0.244140625 0.8046875
vt 0.130859375 0.8046875
vt 0.12500000000000022 0.7187500000000008
vt 0.2500000000000002 0.7187500000000008
vt 0.119140625 0.8046875
vt 0.005859375 0.8046875
vt 2.220446049250313e-16 0.7187500000000008
vt 0.12500000000000022 0.7187500000000008
vt 0.494140625 0.8046875
vt 0.380859375 0.8046875
vt 0.3750000000000002 0.7187500000000008
vt 0.5000000000000002 0.7187500000000008
vt 0.369140625 0.8046875
vt 0.255859375 0.8046875
vt 0.2500000000000002 0.7187500000000008
vt 0.3750000000000002 0.7187500000000008
vt 0.244140625 0.8046875
vt 0.130859375 0.8046875
vt 0.12500000000000022 0.7187500000000008
vt 0.2500000000000002 0.7187500000000008
vt 0.119140625 0.8046875
vt 0.005859375 0.8046875
vt 2.220446049250313e-16 0.7187500000000008
vt 0.12500000000000022 0.7187500000000008
vt 0.494140625 0.8046875
vt 0.380859375 0.8046875
vt 0.3750000000000002 0.7187500000000008
vt 0.5000000000000002 0.7187500000000008
vt 0.369140625 0.8046875
vt 0.255859375 0.8046875
vt 0.2500000000000002 0.7187500000000008
vt 0.3750000000000002 0.7187500000000008
vt 0.244140625 0.8046875
vt 0.130859375 0.8046875
vt 0.12500000000000022 0.7187500000000008
vt 0.2500000000000002 0.7187500000000008
vt 0.119140625 0.8046875
vt 0.005859375 0.8046875
vt 2.220446049250313e-16 0.7187500000000008
vt 0.12500000000000022 0.7187500000000008
vt 0.09765625 0.921875
vt 0.0275604244637479 0.9218749999999996
vt 0.005859375 0.8046875
vt 0.119140625 0.8046875
vt 0.22265625 0.921875
vt 0.1525604244637479 0.9218749999999996
vt 0.130859375 0.8046875
vt 0.244140625 0.8046875
vt 0.34765625 0.921875
vt 0.2775604244637479 0.9218749999999996
vt 0.255859375 0.8046875
vt 0.369140625 0.8046875
vt 0.47265625 0.921875
vt 0.4025604244637479 0.9218749999999996
vt 0.380859375 0.8046875
vt 0.494140625 0.8046875
vt 0.09765625 0.921875
vt 0.0275604244637479 0.9218749999999996
vt 0.005859375 0.8046875
vt 0.119140625 0.8046875
vt 0.22265625 0.921875
vt 0.1525604244637479 0.9218749999999996
vt 0.130859375 0.8046875
vt 0.244140625 0.8046875
vt 0.34765625 0.921875
vt 0.2775604244637479 0.9218749999999996
vt 0.255859375 0.8046875
vt 0.369140625 0.8046875
vt 0.47265625 0.921875
vt 0.4025604244637479 0.9218749999999996
vt 0.380859375 0.8046875
vt 0.494140625 0.8046875
vt 0.09765625 0.921875
vt 0.0275604244637479 0.9218749999999996
vt 0.005859375 0.8046875
vt 0.119140625 0.8046875
vt 0.22265625 0.921875
vt 0.1525604244637479 0.9218749999999996
vt 0.130859375 0.8046875
vt 0.244140625 0.8046875
vt 0.34765625 0.921875
vt 0.2775604244637479 0.9218749999999996
vt 0.255859375 0.8046875
vt 0.369140625 0.8046875
vt 0.47265625 0.921875
vt 0.4025604244637479 0.9218749999999996
vt 0.380859375 0.8046875
vt 0.494140625 0.8046875
vt 0.09765625 0.921875
vt 0.0275604244637479 0.9218749999999996
vt 0.005859375 0.8046875
vt 0.119140625 0.8046875
vt 0.22265625 0.921875
vt 0.1525604244637479 0.9218749999999996
vt 0.130859375 0.8046875
vt 0.244140625 0.8046875
vt 0.34765625 0.921875
vt 0.2775604244637479 0.9218749999999996
vt 0.255859375 0.8046875
vt 0.369140625 0.8046875
vt 0.47265625 0.921875
vt 0.4025604244637479 0.9218749999999996
vt 0.380859375 0.8046875
vt 0.494140625 0.8046875
vt 0.171875 1
vt 0.0859375 1
vt 0.0859375 0.984375
vt 0.171875 0.984375
vt 0.34375 1
vt 0.2578125 1
vt 0.2578125 0.984375
vt 0.34375 0.984375
vt 0.34375 1
vt 0.2578125 1
vt 0.2578125 0.984375
vt 0.34375 0.984375
vt 0.0859375 1
vt 0 1
vt 0 0.984375
vt 0.0859375 0.984375
vt 0.171875 1
vt 0.0859375 1
vt 0.0859375 0.984375
vt 0.171875 0.984375
vt 0.2578125 1
vt 0.171875 1
vt 0.171875 0.984375
vt 0.2578125 0.984375
vt 0.34375 1
vt 0.2578125 1
vt 0.2578125 0.984375
vt 0.34375 0.984375
vt 0.0859375 1
vt 0 1
vt 0 0.984375
vt 0.0859375 0.984375
vt 0.171875 1
vt 0.0859375 1
vt 0.0859375 0.984375
vt 0.171875 0.984375
vt 0.34375 1
vt 0.2578125 1
vt 0.2578125 0.984375
vt 0.34375 0.984375
vt 0.34375 1
vt 0.2578125 1
vt 0.2578125 0.984375
vt 0.34375 0.984375
vt 0.0859375 1
vt 0 1
vt 0 0.984375
vt 0.0859375 0.984375
vt 0.171875 1
vt 0.0859375 1
vt 0.0859375 0.984375
vt 0.171875 0.984375
vt 0.34375 1
vt 0.2578125 1
vt 0.2578125 0.984375
vt 0.34375 0.984375
vt 0.34375 1
vt 0.2578125 1
vt 0.2578125 0.984375
vt 0.34375 0.984375
vt 0.0859375 1
vt 0 1
vt 0 0.984375
vt 0.0859375 0.984375
vt 0.031165625000000002 0.3870812500000008
vt 0.099540625 0.3870812500000008
vt 0.11508125 0.4921875000000009
vt 0.015625 0.4921875000000009
vt 0.031165625000000002 0.3870812500000008
vt 0.099540625 0.3870812500000008
vt 0.11508125 0.4921875000000009
vt 0.015625 0.4921875000000009
vt 0.031165625000000002 0.3870812500000008
vt 0.099540625 0.3870812500000008
vt 0.11508125 0.4921875000000009
vt 0.015625 0.4921875000000009
vt 0.031165625000000002 0.3870812500000008
vt 0.099540625 0.3870812500000008
vt 0.11508125 0.4921875000000009
vt 0.015625 0.4921875000000009
vt 0.031165625000000002 0.3870812500000008
vt 0.099540625 0.3870812500000008
vt 0.11508125 0.4921875000000009
vt 0.015625 0.4921875000000009
vt 0.031165625000000002 0.3870812500000008
vt 0.099540625 0.3870812500000008
vt 0.11508125 0.4921875000000009
vt 0.015625 0.4921875000000009
vt 0.031165625000000002 0.3870812500000008
vt 0.099540625 0.3870812500000008
vt 0.11508125 0.4921875000000009
vt 0.015625 0.4921875000000009
vt 0.031165625000000002 0.3870812500000008
vt 0.099540625 0.3870812500000008
vt 0.11508125 0.4921875000000009
vt 0.015625 0.4921875000000009
vt 0.031165625000000002 0.3870812500000008
vt 0.099540625 0.3870812500000008
vt 0.11508125 0.4921875000000009
vt 0.015625 0.4921875000000009
vt 0.031165625000000002 0.3870812500000008
vt 0.099540625 0.3870812500000008
vt 0.11508125 0.4921875000000009
vt 0.015625 0.4921875000000009
vt 0.031165625000000002 0.3870812500000008
vt 0.099540625 0.3870812500000008
vt 0.11508125 0.4921875000000009
vt 0.015625 0.4921875000000009
vt 0.031165625000000002 0.3870812500000008
vt 0.099540625 0.3870812500000008
vt 0.11508125 0.4921875000000009
vt 0.015625 0.4921875000000009
vt 0.031165625000000002 0.3870812500000008
vt 0.099540625 0.3870812500000008
vt 0.11508125 0.4921875000000009
vt 0.015625 0.4921875000000009
vt 0.031165625000000002 0.3870812500000008
vt 0.099540625 0.3870812500000008
vt 0.11508125 0.4921875000000009
vt 0.015625 0.4921875000000009
vt 0.031165625000000002 0.3870812500000008
vt 0.099540625 0.3870812500000008
vt 0.11508125 0.4921875000000009
vt 0.015625 0.4921875000000009
vt 0.031165625000000002 0.3870812500000008
vt 0.099540625 0.3870812500000008
vt 0.11508125 0.4921875000000009
vt 0.015625 0.4921875000000009
vt 0.8623130631433787 0
vt 0.9254843667321209 0.02616641069923209
vt 0.9738335893007548 0.07451563326784183
vt 1 0.13768693685655253
vt 1 0.13768693685655253
vt 1 0.20606306314327572
vt 0.9738335893007548 0.2692343667319863
vt 0.9254843667321209 0.31758358930059605
vt 0.9254843667321209 0.31758358930059605
vt 0.8623130631433786 0.34374999999982814
vt 0.793936936856621 0.34374999999982814
vt 0.730765633267879 0.31758358930059605
vt 0.730765633267879 0.31758358930059605
vt 0.6824164106992451 0.2692343667319862
vt 0.6562499999999999 0.20606306314327572
vt 0.6562499999999999 0.1376869368565523
vt 0.6562499999999999 0.1376869368565523
vt 0.6824164106992451 0.07451563326784183
vt 0.730765633267879 0.02616641069923209
vt 0.7939369368566211 0
vt 0.7939369368566211 0
vt 0.8623130631433787 0
vt 1 0.13768693685655253
vt 0.9254843667321209 0.31758358930059605
vt 0.9254843667321209 0.31758358930059605
vt 0.730765633267879 0.31758358930059605
vt 0.6562499999999999 0.1376869368565523
vt 0.7939369368566211 0
vt 0.9687500000000001 0.7533204339865911
vt 0.9413942069962437 0.6872777075074846
vt 0.9678866777781991 0.6695760044652896
vt 1 0.7471044225059799
vt 0.9413942069962437 0.6872777075074846
vt 0.8908472924926719 0.6367307930039381
vt 0.9085489955348757 0.6102383222219959
vt 0.9678866777781991 0.6695760044652896
vt 0.8908472924926719 0.6367307930039381
vt 0.8248045660135324 0.6093750000001954
vt 0.8310205774941467 0.5781250000002112
vt 0.9085489955348757 0.6102383222219959
vt 0.8248045660135324 0.6093750000001954
vt 0.7533204339864676 0.6093750000001955
vt 0.7471044225058534 0.5781250000002112
vt 0.8310205774941467 0.5781250000002112
vt 0.7533204339864676 0.6093750000001955
vt 0.6872777075073283 0.6367307930039381
vt 0.6695760044651244 0.6102383222219959
vt 0.7471044225058534 0.5781250000002112
vt 0.6872777075073283 0.6367307930039381
vt 0.6367307930037563 0.6872777075074847
vt 0.6102383222218009 0.6695760044652899
vt 0.6695760044651244 0.6102383222219959
vt 0.6367307930037563 0.6872777075074847
vt 0.6093750000000001 0.7533204339865911
vt 0.5781250000000001 0.7471044225059799
vt 0.6102383222218009 0.6695760044652899
vt 0.6093750000000001 0.7533204339865911
vt 0.6093750000000001 0.8248045660136201
vt 0.5781250000000001 0.8310205774942313
vt 0.5781250000000001 0.7471044225059799
vt 0.6093750000000001 0.8248045660136201
vt 0.6367307930037565 0.8908472924927264
vt 0.610238322221801 0.9085489955349214
vt 0.5781250000000001 0.8310205774942313
vt 0.6367307930037565 0.8908472924927264
vt 0.6872777075073283 0.9413942069962731
vt 0.6695760044651246 0.9678866777782154
vt 0.610238322221801 0.9085489955349214
vt 0.7533204339864678 0.9687500000000157
vt 0.8248045660135325 0.9687500000000157
vt 0.8310205774941467 1
vt 0.7471044225058535 1
vt 0.6872777075073283 0.9413942069962731
vt 0.7533204339864678 0.9687500000000157
vt 0.7471044225058535 1
vt 0.6695760044651246 0.9678866777782154
vt 0.8248045660135325 0.9687500000000157
vt 0.8908472924926719 0.9413942069962731
vt 0.9085489955348757 0.9678866777782152
vt 0.8310205774941467 1
vt 0.8908472924926719 0.9413942069962731
vt 0.9413942069962438 0.8908472924927264
vt 0.9678866777781993 0.9085489955349213
vt 0.9085489955348757 0.9678866777782152
vt 0.9413942069962438 0.8908472924927264
vt 0.9687500000000001 0.82480456601362
vt 1 0.8310205774942312
vt 0.9678866777781993 0.9085489955349213
vt 0.9687500000000001 0.82480456601362
vt 0.9687500000000001 0.7533204339865911
vt 1 0.7471044225059799
vt 1 0.8310205774942312
vt 0.1328124999999999 0.734375
vt 0.1328124999999999 0.6640625
vt 0.2027437499999999 0.6640625
vt 0.2027437499999999 0.734375
vt 0.1328124999999999 0.734375
vt 0.1328124999999999 0.6640625
vt 0.2027437499999999 0.6640625
vt 0.2027437499999999 0.734375
vt 0.1328124999999999 0.734375
vt 0.1328124999999999 0.6640625
vt 0.2027437499999999 0.6640625
vt 0.2027437499999999 0.734375
vt 0.1328124999999999 0.734375
vt 0.1328124999999999 0.6640625
vt 0.2027437499999999 0.6640625
vt 0.2027437499999999 0.734375
vt 0.1328124999999999 0.734375
vt 0.1328124999999999 0.6640625
vt 0.2027437499999999 0.6640625
vt 0.2027437499999999 0.734375
vt 0.1328124999999999 0.734375
vt 0.1328124999999999 0.6640625
vt 0.2027437499999999 0.6640625
vt 0.2027437499999999 0.734375
vt 0.1328124999999999 0.734375
vt 0.1328124999999999 0.6640625
vt 0.2027437499999999 0.6640625
vt 0.2027437499999999 0.734375
vt 0.1328124999999999 0.734375
vt 0.1328124999999999 0.6640625
vt 0.2027437499999999 0.6640625
vt 0.2027437499999999 0.734375
vt 0.1328124999999999 0.734375
vt 0.1328124999999999 0.6640625
vt 0.2027437499999999 0.6640625
vt 0.2027437499999999 0.734375
vt 0.1328124999999999 0.734375
vt 0.1328124999999999 0.6640625
vt 0.2027437499999999 0.6640625
vt 0.2027437499999999 0.734375
vt 0.1328124999999999 0.734375
vt 0.1328124999999999 0.6640625
vt 0.2027437499999999 0.6640625
vt 0.2027437499999999 0.734375
vt 0.1328124999999999 0.734375
vt 0.1328124999999999 0.6640625
vt 0.2027437499999999 0.6640625
vt 0.2027437499999999 0.734375
vt 0.1328124999999999 0.734375
vt 0.1328124999999999 0.6640625
vt 0.2027437499999999 0.6640625
vt 0.2027437499999999 0.734375
vt 0.1328124999999999 0.734375
vt 0.1328124999999999 0.6640625
vt 0.2027437499999999 0.6640625
vt 0.2027437499999999 0.734375
vt 0.1328124999999999 0.734375
vt 0.1328124999999999 0.6640625
vt 0.2027437499999999 0.6640625
vt 0.2027437499999999 0.734375
vt 0.1328124999999999 0.734375
vt 0.1328124999999999 0.6640625
vt 0.2027437499999999 0.6640625
vt 0.2027437499999999 0.734375
vt 2.220446049250313e-16 0.7187500000000008
vt 0.0275604244637479 0.9218749999999996
vt 0.09765625 0.921875
vt 0.12500000000000022 0.7187500000000008
vt 0.12500000000000022 0.7187500000000008
vt 0.1525604244637479 0.9218749999999996
vt 0.22265625 0.921875
vt 0.2500000000000002 0.7187500000000008
vt 0.2500000000000002 0.7187500000000008
vt 0.2775604244637479 0.9218749999999996
vt 0.34765625 0.921875
vt 0.3750000000000002 0.7187500000000008
vt 0.3750000000000002 0.7187500000000008
vt 0.4025604244637479 0.9218749999999996
vt 0.47265625 0.921875
vt 0.5000000000000002 0.7187500000000008
vt 2.220446049250313e-16 0.7187500000000008
vt 0.0275604244637479 0.9218749999999996
vt 0.09765625 0.921875
vt 0.12500000000000022 0.7187500000000008
vt 0.12500000000000022 0.7187500000000008
vt 0.1525604244637479 0.9218749999999996
vt 0.22265625 0.921875
vt 0.2500000000000002 0.7187500000000008
vt 0.2500000000000002 0.7187500000000008
vt 0.2775604244637479 0.9218749999999996
vt 0.34765625 0.921875
vt 0.3750000000000002 0.7187500000000008
vt 0.3750000000000002 0.7187500000000008
vt 0.4025604244637479 0.9218749999999996
vt 0.47265625 0.921875
vt 0.5000000000000002 0.7187500000000008
vt 2.220446049250313e-16 0.7187500000000008
vt 0.0275604244637479 0.9218749999999996
vt 0.09765625 0.921875
vt 0.12500000000000022 0.7187500000000008
vt 0.12500000000000022 0.7187500000000008
vt 0.1525604244637479 0.9218749999999996
vt 0.22265625 0.921875
vt 0.2500000000000002 0.7187500000000008
vt 0.2500000000000002 0.7187500000000008
vt 0.2775604244637479 0.9218749999999996
vt 0.34765625 0.921875
vt 0.3750000000000002 0.7187500000000008
vt 0.3750000000000002 0.7187500000000008
vt 0.4025604244637479 0.9218749999999996
vt 0.47265625 0.921875
vt 0.5000000000000002 0.7187500000000008
vt 2.220446049250313e-16 0.7187500000000008
vt 0.0275604244637479 0.9218749999999996
vt 0.09765625 0.921875
vt 0.12500000000000022 0.7187500000000008
vt 0.12500000000000022 0.7187500000000008
vt 0.1525604244637479 0.9218749999999996
vt 0.22265625 0.921875
vt 0.2500000000000002 0.7187500000000008
vt 0.2500000000000002 0.7187500000000008
vt 0.2775604244637479 0.9218749999999996
vt 0.34765625 0.921875
vt 0.3750000000000002 0.7187500000000008
vt 0.3750000000000002 0.7187500000000008
vt 0.4025604244637479 0.9218749999999996
vt 0.47265625 0.921875
vt 0.5000000000000002 0.7187500000000008
vt 0.2578124999999999 0.5234374999999994
vt 0.27801562499999993 0.3903953124999995
vt 0.3463906249999999 0.3903953124999995
vt 0.36659374999999994 0.5234374999999994
vt 0.2578124999999999 0.5234374999999994
vt 0.27801562499999993 0.3903953124999995
vt 0.3463906249999999 0.3903953124999995
vt 0.36659374999999994 0.5234374999999994
vt 0.2578124999999999 0.5234374999999994
vt 0.27801562499999993 0.3903953124999995
vt 0.3463906249999999 0.3903953124999995
vt 0.36659374999999994 0.5234374999999994
vt 0.2578124999999999 0.5234374999999994
vt 0.27801562499999993 0.3903953124999995
vt 0.3463906249999999 0.3903953124999995
vt 0.36659374999999994 0.5234374999999994
vt 0.2578124999999999 0.5234374999999994
vt 0.27801562499999993 0.3903953124999995
vt 0.3463906249999999 0.3903953124999995
vt 0.36659374999999994 0.5234374999999994
vt 0.2578124999999999 0.5234374999999994
vt 0.27801562499999993 0.3903953124999995
vt 0.3463906249999999 0.3903953124999995
vt 0.36659374999999994 0.5234374999999994
vt 0.2578124999999999 0.5234374999999994
vt 0.27801562499999993 0.3903953124999995
vt 0.3463906249999999 0.3903953124999995
vt 0.36659374999999994 0.5234374999999994
vt 0.2578124999999999 0.5234374999999994
vt 0.27801562499999993 0.3903953124999995
vt 0.3463906249999999 0.3903953124999995
vt 0.36659374999999994 0.5234374999999994
vt 0.2578124999999999 0.5234374999999994
vt 0.27801562499999993 0.3903953124999995
vt 0.3463906249999999 0.3903953124999995
vt 0.36659374999999994 0.5234374999999994
vt 0.2578124999999999 0.5234374999999994
vt 0.27801562499999993 0.3903953124999995
vt 0.3463906249999999 0.3903953124999995
vt 0.36659374999999994 0.5234374999999994
vt 0.2578124999999999 0.5234374999999994
vt 0.27801562499999993 0.3903953124999995
vt 0.3463906249999999 0.3903953124999995
vt 0.36659374999999994 0.5234374999999994
vt 0.2578124999999999 0.5234374999999994
vt 0.27801562499999993 0.3903953124999995
vt 0.3463906249999999 0.3903953124999995
vt 0.36659374999999994 0.5234374999999994
vt 0.2578124999999999 0.5234374999999994
vt 0.27801562499999993 0.3903953124999995
vt 0.3463906249999999 0.3903953124999995
vt 0.36659374999999994 0.5234374999999994
vt 0.2578124999999999 0.5234374999999994
vt 0.27801562499999993 0.3903953124999995
vt 0.3463906249999999 0.3903953124999995
vt 0.36659374999999994 0.5234374999999994
vt 0.2578124999999999 0.5234374999999994
vt 0.27801562499999993 0.3903953124999995
vt 0.3463906249999999 0.3903953124999995
vt 0.36659374999999994 0.5234374999999994
vt 0.2578124999999999 0.5234374999999994
vt 0.27801562499999993 0.3903953124999995
vt 0.3463906249999999 0.3903953124999995
vt 0.36659374999999994 0.5234374999999994
vt 0.0015937500000003518 0.9532078124999994
vt 0.06989062500000036 0.9532078124999994
vt 0.07148437500000035 0.9687499999999993
vt 3.5388358909926865e-16 0.9687499999999993
vt 0.06409375000000035 0.9532078124999994
vt 0.13239062500000037 0.9532078124999994
vt 0.13398437500000035 0.9687499999999993
vt 0.06250000000000036 0.9687499999999993
vt 0.12659375000000034 0.9532078124999994
vt 0.19489062500000037 0.9532078124999994
vt 0.19648437500000035 0.9687499999999993
vt 0.12500000000000036 0.9687499999999993
vt 0.18909375000000034 0.9532078124999994
vt 0.2573906250000004 0.9532078124999994
vt 0.2589843750000004 0.9687499999999993
vt 0.18750000000000036 0.9687499999999993
vt 0.0015937500000003518 0.9532078124999994
vt 0.06989062500000036 0.9532078124999994
vt 0.07148437500000035 0.9687499999999993
vt 3.5388358909926865e-16 0.9687499999999993
vt 0.06409375000000035 0.9532078124999994
vt 0.13239062500000037 0.9532078124999994
vt 0.13398437500000035 0.9687499999999993
vt 0.06250000000000036 0.9687499999999993
vt 0.12659375000000034 0.9532078124999994
vt 0.19489062500000037 0.9532078124999994
vt 0.19648437500000035 0.9687499999999993
vt 0.12500000000000036 0.9687499999999993
vt 0.18909375000000034 0.9532078124999994
vt 0.2573906250000004 0.9532078124999994
vt 0.2589843750000004 0.9687499999999993
vt 0.18750000000000036 0.9687499999999993
vt 0.0015937500000003518 0.9532078124999994
vt 0.06989062500000036 0.9532078124999994
vt 0.07148437500000035 0.9687499999999993
vt 3.5388358909926865e-16 0.9687499999999993
vt 0.06409375000000035 0.9532078124999994
vt 0.13239062500000037 0.9532078124999994
vt 0.13398437500000035 0.9687499999999993
vt 0.06250000000000036 0.9687499999999993
vt 0.12659375000000034 0.9532078124999994
vt 0.19489062500000037 0.9532078124999994
vt 0.19648437500000035 0.9687499999999993
vt 0.12500000000000036 0.9687499999999993
vt 0.18909375000000034 0.9532078124999994
vt 0.2573906250000004 0.9532078124999994
vt 0.2589843750000004 0.9687499999999993
vt 0.18750000000000036 0.9687499999999993
vt 0.0015937500000003518 0.9532078124999994
vt 0.06989062500000036 0.9532078124999994
vt 0.07148437500000035 0.9687499999999993
vt 3.5388358909926865e-16 0.9687499999999993
vt 0.06409375000000035 0.9532078124999994
vt 0.13239062500000037 0.9532078124999994
vt 0.13398437500000035 0.9687499999999993
vt 0.06250000000000036 0.9687499999999993
vt 0.12659375000000034 0.9532078124999994
vt 0.19489062500000037 0.9532078124999994
vt 0.19648437500000035 0.9687499999999993
vt 0.12500000000000036 0.9687499999999993
vt 0.18909375000000034 0.9532078124999994
vt 0.2573906250000004 0.9532078124999994
vt 0.2589843750000004 0.9687499999999993
vt 0.18750000000000036 0.9687499999999993
vt 0.11323281249999981 0.6562499999999994
vt 0.048892187499999816 0.6562499999999994
vt 0.04687499999999981 0.6407546874999994
vt 0.11524999999999982 0.6407546874999994
vt 0.08198281249999981 0.6562499999999994
vt 0.017642187499999816 0.6562499999999994
vt 0.015624999999999813 0.6407546874999994
vt 0.08399999999999982 0.6407546874999994
vt 0.0663578125 0.6562499999999994
vt 0.0020171875000000034 0.6562499999999994
vt 0 0.6407546874999994
vt 0.068375 0.6407546874999994
vt 0.1444828124999998 0.6562499999999994
vt 0.08014218749999982 0.6562499999999994
vt 0.0781249999999998 0.6407546874999994
vt 0.14649999999999982 0.6407546874999994
vt 0.11323281249999981 0.6562499999999994
vt 0.048892187499999816 0.6562499999999994
vt 0.04687499999999981 0.6407546874999994
vt 0.11524999999999982 0.6407546874999994
vt 0.08198281249999981 0.6562499999999994
vt 0.017642187499999816 0.6562499999999994
vt 0.015624999999999813 0.6407546874999994
vt 0.08399999999999982 0.6407546874999994
vt 0.0663578125 0.6562499999999994
vt 0.0020171875000000034 0.6562499999999994
vt 0 0.6407546874999994
vt 0.068375 0.6407546874999994
vt 0.1444828124999998 0.6562499999999994
vt 0.08014218749999982 0.6562499999999994
vt 0.0781249999999998 0.6407546874999994
vt 0.14649999999999982 0.6407546874999994
vt 0.11323281249999981 0.6562499999999994
vt 0.048892187499999816 0.6562499999999994
vt 0.04687499999999981 0.6407546874999994
vt 0.11524999999999982 0.6407546874999994
vt 0.08198281249999981 0.6562499999999994
vt 0.017642187499999816 0.6562499999999994
vt 0.015624999999999813 0.6407546874999994
vt 0.08399999999999982 0.6407546874999994
vt 0.0663578125 0.6562499999999994
vt 0.0020171875000000034 0.6562499999999994
vt 0 0.6407546874999994
vt 0.068375 0.6407546874999994
vt 0.1444828124999998 0.6562499999999994
vt 0.08014218749999982 0.6562499999999994
vt 0.0781249999999998 0.6407546874999994
vt 0.14649999999999982 0.6407546874999994
vt 0.11323281249999981 0.6562499999999994
vt 0.048892187499999816 0.6562499999999994
vt 0.04687499999999981 0.6407546874999994
vt 0.11524999999999982 0.6407546874999994
vt 0.08198281249999981 0.6562499999999994
vt 0.017642187499999816 0.6562499999999994
vt 0.015624999999999813 0.6407546874999994
vt 0.08399999999999982 0.6407546874999994
vt 0.0663578125 0.6562499999999994
vt 0.0020171875000000034 0.6562499999999994
vt 0 0.6407546874999994
vt 0.068375 0.6407546874999994
vt 0.1444828124999998 0.6562499999999994
vt 0.08014218749999982 0.6562499999999994
vt 0.0781249999999998 0.6407546874999994
vt 0.14649999999999982 0.6407546874999994
vt 0.8001741911618516 0.3359374999998397
vt 0.7413100219087057 0.3115551627573735
vt 0.6962573372424785 0.2665024780911689
vt 0.671875 0.20763830883805223
vt 0.671875 0.20763830883805223
vt 0.671875 0.14392419116178745
vt 0.6962573372424784 0.08506002190867079
vt 0.7413100219087054 0.0400073372424663
vt 0.7413100219087054 0.0400073372424663
vt 0.8001741911618515 0.015625
vt 0.8638883088381484 0.015625
vt 0.9227524780912943 0.0400073372424663
vt 0.9227524780912943 0.0400073372424663
vt 0.9678051627575215 0.08506002190867079
vt 0.9921875 0.14392419116178745
vt 0.9921875 0.20763830883805223
vt 0.9921875 0.20763830883805223
vt 0.9678051627575217 0.2665024780911689
vt 0.9227524780912943 0.3115551627573734
vt 0.8638883088381484 0.3359374999998397
vt 0.8638883088381484 0.3359374999998397
vt 0.8001741911618516 0.3359374999998397
vt 0.671875 0.20763830883805223
vt 0.7413100219087054 0.0400073372424663
vt 0.7413100219087054 0.0400073372424663
vt 0.9227524780912943 0.0400073372424663
vt 0.9921875 0.20763830883805223
vt 0.8638883088381484 0.3359374999998397
vt 0.005859375 0.5
vt 0 0.71875
vt 0.125 0.71875
vt 0.119140625 0.5
vt 0.130859375 0.5
vt 0.125 0.71875
vt 0.25 0.71875
vt 0.244140625 0.5
vt 0.255859375 0.5
vt 0.25 0.71875
vt 0.375 0.71875
vt 0.369140625 0.5
vt 0.380859375 0.5
vt 0.375 0.71875
vt 0.5 0.71875
vt 0.494140625 0.5
vt 0.005859375 0.5
vt 0 0.71875
vt 0.125 0.71875
vt 0.119140625 0.5
vt 0.130859375 0.5
vt 0.125 0.71875
vt 0.25 0.71875
vt 0.244140625 0.5
vt 0.255859375 0.5
vt 0.25 0.71875
vt 0.375 0.71875
vt 0.369140625 0.5
vt 0.380859375 0.5
vt 0.375 0.71875
vt 0.5 0.71875
vt 0.494140625 0.5
vt 0.005859375 0.5
vt 0 0.71875
vt 0.125 0.71875
vt 0.119140625 0.5
vt 0.130859375 0.5
vt 0.125 0.71875
vt 0.25 0.71875
vt 0.244140625 0.5
vt 0.255859375 0.5
vt 0.25 0.71875
vt 0.375 0.71875
vt 0.369140625 0.5
vt 0.380859375 0.5
vt 0.375 0.71875
vt 0.5 0.71875
vt 0.494140625 0.5
vt 0.005859375 0.5
vt 0 0.71875
vt 0.125 0.71875
vt 0.119140625 0.5
vt 0.130859375 0.5
vt 0.125 0.71875
vt 0.25 0.71875
vt 0.244140625 0.5
vt 0.255859375 0.5
vt 0.25 0.71875
vt 0.375 0.71875
vt 0.369140625 0.5
vt 0.380859375 0.5
vt 0.375 0.71875
vt 0.5 0.71875
vt 0.494140625 0.5
vn 0.3502758983029069 -0.40273861426601704 0.8456408242552982
vn 0.6472254663481221 -0.40273861426601715 0.6472254663481223
vn 0.8456408242552981 -0.4027386142660176 0.3502758983029069
vn 0.9153150324227654 -0.4027386142660175 0
vn 0.8456408242552983 -0.40273861426601726 -0.3502758983029067
vn 0.6472254663481223 -0.40273861426601715 -0.6472254663481221
vn 0.35027589830290695 -0.40273861426601765 -0.845640824255298
vn 0 -0.40273861426601765 -0.9153150324227655
vn -0.35027589830290684 -0.4027386142660172 -0.8456408242552982
vn -0.6472254663481221 -0.40273861426601715 -0.6472254663481221
vn -0.8456408242552979 -0.40273861426601737 -0.350275898302907
vn -0.9153150324227655 -0.40273861426601765 -2.5544008076724493e-16
vn -0.8456408242552982 -0.4027386142660173 0.3502758983029069
vn -0.6472254663481223 -0.40273861426601715 0.6472254663481221
vn -0.3502758983029071 -0.4027386142660173 0.845640824255298
vn -2.5544008076724493e-16 -0.40273861426601765 0.9153150324227655
vn 0 -0.09053574604251823 -0.995893206467704
vn -0.3811118305201353 -0.09053574604251823 -0.9200853500225489
vn -0.7042028396309279 -0.0905357460425185 -0.7042028396309279
vn -0.9200853500225488 -0.09053574604251842 -0.3811118305201357
vn -0.995893206467704 -0.09053574604251823 -4.503125970510752e-16
vn -0.9200853500225489 -0.09053574604251823 0.38111183052013536
vn -0.704202839630928 -0.09053574604251849 0.7042028396309278
vn -0.3811118305201357 -0.09053574604251842 0.9200853500225488
vn -4.503125970510752e-16 -0.09053574604251823 0.995893206467704
vn 0.3811118305201358 -0.09053574604251823 0.9200853500225489
vn 0.7042028396309278 -0.0905357460425185 0.704202839630928
vn 0.9200853500225487 -0.09053574604251842 0.3811118305201357
vn 0.995893206467704 -0.09053574604251823 0
vn 0.9200853500225491 -0.09053574604251827 -0.38111183052013525
vn 0.7042028396309281 -0.09053574604251843 -0.7042028396309277
vn 0.3811118305201356 -0.09053574604251859 -0.9200853500225488
vn -0.24498796341018722 -0.768221279597376 -0.5914532638830383
vn -0.4526787302125929 -0.7682212795973759 -0.4526787302125929
vn -0.5914532638830384 -0.7682212795973759 -0.24498796341018758
vn -0.6401843996644799 -0.768221279597376 -2.1988730936411458e-16
vn -0.5914532638830384 -0.768221279597376 0.2449879634101872
vn -0.4526787302125927 -0.7682212795973759 0.4526787302125927
vn -0.24498796341018758 -0.7682212795973759 0.5914532638830384
vn -2.1988730936411458e-16 -0.768221279597376 0.6401843996644799
vn 0.24498796341018755 -0.7682212795973759 0.5914532638830384
vn 0.4526787302125926 -0.7682212795973759 0.45267873021259275
vn 0.5914532638830385 -0.768221279597376 0.2449879634101876
vn 0.6401843996644799 -0.768221279597376 0
vn 0.5914532638830386 -0.7682212795973761 -0.2449879634101872
vn 0.4526787302125931 -0.7682212795973757 -0.45267873021259264
vn 0.24498796341018741 -0.7682212795973759 -0.5914532638830386
vn 0 -0.768221279597376 -0.6401843996644799
vn 0.35831766349570326 0.3511234415883917 -0.8650553628491667
vn 0.6620847108818946 0.3511234415883917 -0.6620847108818941
vn 0.865055362849167 0.35112344158839176 -0.3583176634957028
vn 0.9363291775690445 0.35112344158839165 0
vn 0.8650553628491667 0.3511234415883917 0.3583176634957033
vn 0.6620847108818944 0.3511234415883916 0.6620847108818946
vn 0.3583176634957033 0.3511234415883917 0.8650553628491665
vn -4.778140704200308e-16 0.35112344158839176 0.9363291775690445
vn -0.3583176634957033 0.35112344158839165 0.8650553628491667
vn -0.6620847108818945 0.35112344158839165 0.6620847108818942
vn -0.8650553628491666 0.3511234415883917 0.358317663495703
vn -0.9363291775690445 0.3511234415883917 -4.778140704200308e-16
vn -0.8650553628491667 0.3511234415883917 -0.35831766349570326
vn -0.6620847108818945 0.3511234415883916 -0.6620847108818945
vn -0.35831766349570293 0.35112344158839176 -0.8650553628491668
vn 0 0.3511234415883917 -0.9363291775690445
vn 0 0.8479983040050881 -0.52999894000318
vn -0.20282181351027578 0.8479983040050881 -0.48965517292161553
vn -0.37476584449793077 0.8479983040050881 -0.3747658444979306
vn -0.4896551729216154 0.8479983040050882 -0.20282181351027617
vn -0.5299989400031802 0.847998304005088 -2.0578588895633378e-16
vn -0.48965517292161553 0.8479983040050881 0.20282181351027578
vn -0.37476584449793066 0.8479983040050881 0.37476584449793077
vn -0.20282181351027614 0.8479983040050881 0.4896551729216154
vn -2.0578588895633378e-16 0.8479983040050879 0.52999894000318
vn 0.2028218135102761 0.847998304005088 0.48965517292161537
vn 0.37476584449793054 0.8479983040050882 0.37476584449793066
vn 0.48965517292161537 0.8479983040050881 0.2028218135102761
vn 0.52999894000318 0.8479983040050881 0
vn 0.48965517292161553 0.847998304005088 -0.2028218135102757
vn 0.37476584449793077 0.847998304005088 -0.37476584449793054
vn 0.20282181351027595 0.847998304005088 -0.48965517292161553
vn 0.9238795325112872 0 -0.3826834323650892
vn 0.7071067811865479 0 -0.7071067811865472
vn 0.38268343236508945 0 -0.923879532511287
vn 0 0 -1
vn -0.3826834323650894 0 -0.9238795325112871
vn -0.7071067811865476 0 -0.7071067811865476
vn -0.9238795325112867 0 -0.3826834323650898
vn -1 0 -3.434749573394124e-16
vn -0.923879532511287 0 0.3826834323650892
vn -0.7071067811865476 0 0.7071067811865476
vn -0.3826834323650898 0 0.9238795325112867
vn -3.434749573394124e-16 0 1
vn 0.3826834323650898 0 0.923879532511287
vn 0.7071067811865475 0 0.7071067811865476
vn 0.923879532511287 0 0.3826834323650898
vn 1 0 0
vn 0.47302949810487294 -0.7432941462471664 0.47302949810487305
vn 0.25600171962846996 -0.7432941462471663 0.6180428235178873
vn -2.7154947495660924e-16 -0.7432941462471662 0.6689647316224498
vn -0.25600171962847007 -0.7432941462471664 0.6180428235178873
vn -0.473029498104873 -0.7432941462471663 0.473029498104873
vn -0.6180428235178874 -0.7432941462471663 0.2560017196284698
vn -0.6689647316224498 -0.7432941462471662 -2.7154947495660924e-16
vn -0.6180428235178874 -0.7432941462471664 -0.2560017196284701
vn -0.47302949810487316 -0.7432941462471664 -0.47302949810487305
vn -0.25600171962846974 -0.7432941462471663 -0.6180428235178875
vn 0 -0.7432941462471662 -0.6689647316224498
vn 0.25600171962847 -0.7432941462471663 -0.6180428235178874
vn 0.47302949810487305 -0.7432941462471664 -0.47302949810487294
vn 0.6180428235178875 -0.7432941462471663 -0.2560017196284697
vn 0.6689647316224498 -0.7432941462471662 0
vn 0.6180428235178875 -0.7432941462471663 0.25600171962847007
vn 0 -1 0
vn 0 -1 0
vn 0 -1 0
vn 0 -1 0
vn 0 -1 0
vn 0 -1 0
vn 0 -1 0
vn -0.11459315260743938 0.9922778767136677 -0.04746603796509121
vn -0.08770580193070295 0.9922778767136677 -0.08770580193070292
vn -0.04746603796509119 0.9922778767136677 -0.11459315260743945
vn 1.0069758676931595e-16 0.9922778767136677 -0.12403473458920831
vn 0.04746603796509117 0.9922778767136677 -0.11459315260743952
vn 0.08770580193070299 0.9922778767136677 -0.08770580193070304
vn 0.11459315260743944 0.9922778767136677 -0.047466037965091086
vn 0.12403473458920831 0.9922778767136677 1.0069758676931594e-16
vn 0.1145931526074394 0.9922778767136677 0.04746603796509117
vn 0.08770580193070306 0.9922778767136677 0.08770580193070295
vn 0 0.9922778767136677 0.12403473458920847
vn 0.047466037965091065 0.9922778767136677 0.11459315260743946
vn -0.04746603796509116 0.9922778767136677 0.11459315260743966
vn -0.08770580193070303 0.9922778767136677 0.08770580193070293
vn -0.11459315260743946 0.9922778767136677 0.047466037965091086
vn -0.12403473458920847 0.9922778767136677 0
vn -0.9238795325112867 5.664852770057422e-17 -0.38268343236508995
vn -0.7071067811865476 2.0934566115783672e-16 -0.7071067811865476
vn -0.38268343236509 6.603436308539252e-16 -0.9238795325112867
vn 8.118498991658839e-16 -1.2017792674581013e-31 -1
vn 0.3826834323650898 -5.66485277005742e-17 -0.923879532511287
vn 0.7071067811865474 6.280369834735101e-16 -0.7071067811865477
vn 0.9238795325112871 7.736406862550736e-16 -0.38268343236508945
vn 1 0 8.118498991658838e-16
vn 0.923879532511287 0 0.3826834323650897
vn 0.7071067811865478 2.093456611578366e-16 0.7071067811865472
vn 0 0 1
vn 0.38268343236508934 9.807960955044055e-16 0.923879532511287
vn -0.3826834323650896 5.664852770057417e-17 0.9238795325112868
vn -0.7071067811865476 1.0467283057891832e-15 0.7071067811865475
vn -0.9238795325112871 5.47046575452777e-16 0.38268343236508917
vn -1 0 0
vn 0 -0.7474093186836598 0.6643638388299198
vn 0.25424103418268074 -0.7474093186836598 0.6137921528355901
vn 0.46977617561176277 -0.7474093186836598 0.4697761756117627
vn 0.61379215283559 -0.74740931868366 0.25424103418268096
vn 0.6643638388299197 -0.7474093186836598 5.393637155635299e-16
vn 0.6137921528355902 -0.7474093186836599 -0.2542410341826808
vn 0.4697761756117627 -0.7474093186836598 -0.4697761756117627
vn 0.25424103418268096 -0.7474093186836599 -0.61379215283559
vn 5.393637155635301e-16 -0.7474093186836598 -0.6643638388299198
vn -0.2542410341826811 -0.7474093186836598 -0.6137921528355901
vn -0.4697761756117625 -0.7474093186836599 -0.46977617561176277
vn -0.61379215283559 -0.74740931868366 -0.2542410341826811
vn -0.6643638388299197 -0.7474093186836598 0
vn -0.6137921528355903 -0.7474093186836598 0.2542410341826806
vn -0.4697761756117629 -0.7474093186836599 0.4697761756117626
vn -0.2542410341826809 -0.7474093186836599 0.61379215283559
vn -0.4024922359499622 0.8221921916437787 -0.4024922359499623
vn -0.2178272284352424 0.8221921916437787 -0.5258814491425048
vn 2.0538358396337804e-16 0.8221921916437787 -0.5692099788303083
vn 0.2178272284352425 0.8221921916437785 -0.5258814491425048
vn 0.40249223594996225 0.8221921916437788 -0.40249223594996225
vn 0.5258814491425049 0.8221921916437787 -0.21782722843524224
vn 0.5692099788303084 0.8221921916437788 2.0538358396337807e-16
vn 0.5258814491425048 0.8221921916437788 0.2178272284352425
vn 0.40249223594996225 0.8221921916437788 0.40249223594996225
vn 0.2178272284352422 0.8221921916437785 0.5258814491425049
vn 0 0.8221921916437787 0.5692099788303083
vn -0.2178272284352424 0.8221921916437788 0.5258814491425047
vn -0.40249223594996225 0.8221921916437788 0.40249223594996225
vn -0.525881449142505 0.8221921916437787 0.21782722843524213
vn -0.5692099788303082 0.8221921916437785 0
vn -0.5258814491425047 0.8221921916437787 -0.21782722843524238
vn 0 -0.44721359549995804 -0.8944271909999161
vn -0.3422824674525129 -0.44721359549995904 -0.8263429750863855
vn -0.6324555320336757 -0.44721359549995915 -0.6324555320336752
vn -0.8263429750863852 -0.4472135954999594 -0.3422824674525132
vn -0.8944271909999161 -0.447213595499958 -7.261406248245066e-16
vn -0.8263429750863854 -0.4472135954999589 0.342282467452513
vn -0.6324555320336754 -0.4472135954999592 0.6324555320336757
vn -0.3422824674525131 -0.4472135954999595 0.826342975086385
vn -7.261406248245067e-16 -0.4472135954999579 0.8944271909999161
vn 0.34228246745251345 -0.44721359549995904 0.8263429750863852
vn 0.6324555320336754 -0.44721359549995915 0.6324555320336755
vn 0.8263429750863857 -0.44721359549995815 0.3422824674525136
vn 0.894427190999916 -0.447213595499958 0
vn 0.8263429750863855 -0.44721359549995887 -0.3422824674525128
vn 0.6324555320336755 -0.447213595499959 -0.6324555320336754
vn 0.3422824674525133 -0.4472135954999581 -0.8263429750863857
vn 0.7071067811865475 0 0.7071067811865476
vn 0.38268343236508956 0 0.9238795325112868
vn -4.059249495829418e-16 -7.210675604748605e-32 1
vn -0.3826834323650897 0 0.9238795325112868
vn -0.7071067811865476 0 0.7071067811865476
vn -0.9238795325112871 -8.118498991658858e-17 0.38268343236508934
vn -1 -7.210675604748604e-32 -4.0592494958294176e-16
vn -0.9238795325112868 0 -0.3826834323650896
vn -0.7071067811865477 0 -0.7071067811865475
vn -0.38268343236508917 0 -0.9238795325112871
vn 0 0 -1
vn 0.38268343236508956 0 -0.923879532511287
vn 0.7071067811865477 0 -0.7071067811865475
vn 0.9238795325112871 0 -0.38268343236508906
vn 1 0 0
vn 0.9238795325112868 0 0.38268343236508956
vn 0 1 0
vn 0 1 0
vn 0 1 0
vn 0 1 0
vn 0 1 0
vn 0 1 0
vn 0 1 0
vn 0 0.016664352333993333 0.9998611400396001
vn 0.38263029295882506 0.016664352333993354 0.9237512426359882
vn 0.7070085923669134 0.016664352333993552 0.7070085923669134
vn 0.9237512426359882 0.01666435233399357 0.38263029295882556
vn 0.9998611400396001 0.016664352333993337 5.030483843905005e-16
vn 0.9237512426359882 0.016664352333993344 -0.38263029295882506
vn 0.7070085923669135 0.01666435233399363 -0.7070085923669133
vn 0.38263029295882556 0.016664352333993566 -0.9237512426359881
vn 5.030483843905005e-16 0.016664352333993337 -0.9998611400396001
vn -0.3826302929588255 0.016664352333993354 -0.9237512426359881
vn -0.7070085923669132 0.016664352333993552 -0.7070085923669136
vn -0.9237512426359881 0.016664352333993566 -0.3826302929588255
vn -0.9998611400396001 0.016664352333993337 0
vn -0.9237512426359884 0.016664352333993358 0.382630292958825
vn -0.7070085923669136 0.016664352333993552 0.7070085923669132
vn -0.38263029295882545 0.016664352333993677 0.9237512426359882
usemtl m_27fc0bc3-f2ab-c79c-2591-f822e6651725
f 81/1/1 83/2/1 84/3/1 82/4/1
f 83/5/2 85/6/2 86/7/2 84/8/2
f 85/9/3 87/10/3 88/11/3 86/12/3
f 87/13/4 89/14/4 90/15/4 88/16/4
f 89/17/5 91/18/5 92/19/5 90/20/5
f 91/21/6 93/22/6 94/23/6 92/24/6
f 93/25/7 95/26/7 96/27/7 94/28/7
f 95/29/8 97/30/8 98/31/8 96/32/8
f 97/33/9 99/34/9 100/35/9 98/36/9
f 99/37/10 101/38/10 102/39/10 100/40/10
f 101/41/11 103/42/11 104/43/11 102/44/11
f 103/45/12 105/46/12 106/47/12 104/48/12
f 105/49/13 107/50/13 108/51/13 106/52/13
f 107/53/14 109/54/14 110/55/14 108/56/14
f 109/57/15 111/58/15 112/59/15 110/60/15
f 111/61/16 81/62/16 82/63/16 112/64/16
f 114/65/17 113/66/17 96/67/17 98/68/17
f 115/69/18 114/70/18 98/71/18 100/72/18
f 116/73/19 115/74/19 100/75/19 102/76/19
f 117/77/20 116/78/20 102/79/20 104/80/20
f 118/81/21 117/82/21 104/83/21 106/84/21
f 119/85/22 118/86/22 106/87/22 108/88/22
f 120/89/23 119/90/23 108/91/23 110/92/23
f 121/93/24 120/94/24 110/95/24 112/96/24
f 122/97/25 121/98/25 112/99/25 82/100/25
f 123/101/26 122/102/26 82/103/26 84/104/26
f 124/105/27 123/106/27 84/107/27 86/108/27
f 125/109/28 124/110/28 86/111/28 88/112/28
f 126/113/29 125/114/29 88/115/29 90/116/29
f 127/117/30 126/118/30 90/119/30 92/120/30
f 128/121/31 127/122/31 92/123/31 94/124/31
f 113/125/32 128/126/32 94/127/32 96/128/32
f 18/129/33 17/130/33 1/131/33 2/132/33
f 19/133/34 18/134/34 2/135/34 3/136/34
f 20/137/35 19/138/35 3/139/35 4/140/35
f 21/141/36 20/142/36 4/143/36 5/144/36
f 22/145/37 21/146/37 5/147/37 6/148/37
f 23/149/38 22/150/38 6/151/38 7/152/38
f 24/153/39 23/154/39 7/155/39 8/156/39
f 25/157/40 24/158/40 8/159/40 9/160/40
f 26/161/41 25/162/41 9/163/41 10/164/41
f 27/165/42 26/166/42 10/167/42 11/168/42
f 28/169/43 27/170/43 11/171/43 12/172/43
f 29/173/44 28/174/44 12/175/44 13/176/44
f 30/177/45 29/178/45 13/179/45 14/180/45
f 31/181/46 30/182/46 14/183/46 15/184/46
f 32/185/47 31/186/47 15/187/47 16/188/47
f 17/189/48 32/190/48 16/191/48 1/192/48
f 129/193/49 130/194/49 128/195/49 113/196/49
f 130/197/50 131/198/50 127/199/50 128/200/50
f 131/201/51 132/202/51 126/203/51 127/204/51
f 132/205/52 133/206/52 125/207/52 126/208/52
f 133/209/53 134/210/53 124/211/53 125/212/53
f 134/213/54 135/214/54 123/215/54 124/216/54
f 135/217/55 136/218/55 122/219/55 123/220/55
f 136/221/56 137/222/56 121/223/56 122/224/56
f 137/225/57 138/226/57 120/227/57 121/228/57
f 138/229/58 139/230/58 119/231/58 120/232/58
f 139/233/59 140/234/59 118/235/59 119/236/59
f 140/237/60 141/238/60 117/239/60 118/240/60
f 141/241/61 142/242/61 116/243/61 117/244/61
f 142/245/62 143/246/62 115/247/62 116/248/62
f 143/249/63 144/250/63 114/251/63 115/252/63
f 144/253/64 129/254/64 113/255/64 114/256/64
f 1/257/65 16/258/65 129/259/65 144/260/65
f 2/261/66 1/262/66 144/263/66 143/264/66
f 3/265/67 2/266/67 143/267/67 142/268/67
f 4/269/68 3/270/68 142/271/68 141/272/68
f 5/273/69 4/274/69 141/275/69 140/276/69
f 6/277/70 5/278/70 140/279/70 139/280/70
f 7/281/71 6/282/71 139/283/71 138/284/71
f 8/285/72 7/286/72 138/287/72 137/288/72
f 9/289/73 8/290/73 137/291/73 136/292/73
f 10/293/74 9/294/74 136/295/74 135/296/74
f 11/297/75 10/298/75 135/299/75 134/300/75
f 12/301/76 11/302/76 134/303/76 133/304/76
f 13/305/77 12/306/77 133/307/77 132/308/77
f 14/309/78 13/310/78 132/311/78 131/312/78
f 15/313/79 14/314/79 131/315/79 130/316/79
f 16/317/80 15/318/80 130/319/80 129/320/80
f 34/321/81 33/322/81 29/323/81 30/324/81
f 35/325/82 34/326/82 30/327/82 31/328/82
f 36/329/83 35/330/83 31/331/83 32/332/83
f 37/333/84 36/334/84 32/335/84 17/336/84
f 38/337/85 37/338/85 17/339/85 18/340/85
f 39/341/86 38/342/86 18/343/86 19/344/86
f 40/345/87 39/346/87 19/347/87 20/348/87
f 41/349/88 40/350/88 20/351/88 21/352/88
f 42/353/89 41/354/89 21/355/89 22/356/89
f 43/357/90 42/358/90 22/359/90 23/360/90
f 44/361/91 43/362/91 23/363/91 24/364/91
f 45/365/92 44/366/92 24/367/92 25/368/92
f 46/369/93 45/370/93 25/371/93 26/372/93
f 47/373/94 46/374/94 26/375/94 27/376/94
f 48/377/95 47/378/95 27/379/95 28/380/95
f 33/381/96 48/382/96 28/383/96 29/384/96
f 50/385/97 49/386/97 85/387/97 83/388/97
f 51/389/98 50/390/98 83/391/98 81/392/98
f 52/393/99 51/394/99 81/395/99 111/396/99
f 53/397/100 52/398/100 111/399/100 109/400/100
f 54/401/101 53/402/101 109/403/101 107/404/101
f 55/405/102 54/406/102 107/407/102 105/408/102
f 56/409/103 55/410/103 105/411/103 103/412/103
f 57/413/104 56/414/104 103/415/104 101/416/104
f 58/417/105 57/418/105 101/419/105 99/420/105
f 59/421/106 58/422/106 99/423/106 97/424/106
f 60/425/107 59/426/107 97/427/107 95/428/107
f 61/429/108 60/430/108 95/431/108 93/432/108
f 62/433/109 61/434/109 93/435/109 91/436/109
f 63/437/110 62/438/110 91/439/110 89/440/110
f 64/441/111 63/442/111 89/443/111 87/444/111
f 49/445/112 64/446/112 87/447/112 85/448/112
f 60/449/113 61/450/113 62/451/113 63/452/113
f 63/453/114 64/454/114 49/455/114 50/456/114
f 50/457/115 51/458/115 52/459/115 53/460/115
f 53/461/116 54/462/116 55/463/116 56/464/116
f 56/465/117 57/466/117 58/467/117 59/468/117
f 59/469/118 60/470/118 63/471/118 50/472/118
f 50/473/119 53/474/119 56/475/119 59/476/119
f 65/477/120 66/478/120 47/479/120 48/480/120
f 66/481/121 67/482/121 46/483/121 47/484/121
f 67/485/122 68/486/122 45/487/122 46/488/122
f 68/489/123 69/490/123 44/491/123 45/492/123
f 69/493/124 70/494/124 43/495/124 44/496/124
f 70/497/125 71/498/125 42/499/125 43/500/125
f 71/501/126 72/502/126 41/503/126 42/504/126
f 72/505/127 73/506/127 40/507/127 41/508/127
f 73/509/128 74/510/128 39/511/128 40/512/128
f 74/513/129 75/514/129 38/515/129 39/516/129
f 76/517/130 77/518/130 36/519/130 37/520/130
f 75/521/131 76/522/131 37/523/131 38/524/131
f 77/525/132 78/526/132 35/527/132 36/528/132
f 78/529/133 79/530/133 34/531/133 35/532/133
f 79/533/134 80/534/134 33/535/134 34/536/134
f 80/537/135 65/538/135 48/539/135 33/540/135
f 65/541/136 178/542/136 179/543/136 66/544/136
f 66/545/137 179/546/137 180/547/137 67/548/137
f 67/549/138 180/550/138 181/551/138 68/552/138
f 68/553/139 181/554/139 182/555/139 69/556/139
f 69/557/140 182/558/140 183/559/140 70/560/140
f 70/561/141 183/562/141 184/563/141 71/564/141
f 71/565/142 184/566/142 185/567/142 72/568/142
f 72/569/143 185/570/143 186/571/143 73/572/143
f 73/573/144 186/574/144 187/575/144 74/576/144
f 74/577/145 187/578/145 188/579/145 75/580/145
f 76/581/146 189/582/146 190/583/146 77/584/146
f 75/585/147 188/586/147 189/587/147 76/588/147
f 77/589/148 190/590/148 191/591/148 78/592/148
f 78/593/149 191/594/149 192/595/149 79/596/149
f 79/597/150 192/598/150 177/599/150 80/600/150
f 80/601/151 177/602/151 178/603/151 65/604/151
f 222/605/152 190/606/152 189/607/152 221/608/152
f 221/609/153 189/610/153 188/611/153 220/612/153
f 220/613/154 188/614/154 187/615/154 219/616/154
f 219/617/155 187/618/155 186/619/155 218/620/155
f 218/621/156 186/622/156 185/623/156 217/624/156
f 217/625/157 185/626/157 184/627/157 216/628/157
f 216/629/158 184/630/158 183/631/158 215/632/158
f 215/633/159 183/634/159 182/635/159 214/636/159
f 214/637/160 182/638/160 181/639/160 213/640/160
f 213/641/161 181/642/161 180/643/161 212/644/161
f 212/645/162 180/646/162 179/647/162 211/648/162
f 211/649/163 179/650/163 178/651/163 210/652/163
f 210/653/164 178/654/164 177/655/164 209/656/164
f 209/657/165 177/658/165 192/659/165 224/660/165
f 224/661/166 192/662/166 191/663/166 223/664/166
f 223/665/167 191/666/167 190/667/167 222/668/167
f 163/669/168 207/670/168 206/671/168 164/672/168
f 164/673/169 206/674/169 205/675/169 165/676/169
f 165/677/170 205/678/170 204/679/170 166/680/170
f 166/681/171 204/682/171 203/683/171 167/684/171
f 167/685/172 203/686/172 202/687/172 168/688/172
f 168/689/173 202/690/173 201/691/173 169/692/173
f 169/693/174 201/694/174 200/695/174 170/696/174
f 170/697/175 200/698/175 199/699/175 171/700/175
f 171/701/176 199/702/176 198/703/176 172/704/176
f 172/705/177 198/706/177 197/707/177 173/708/177
f 173/709/178 197/710/178 196/711/178 174/712/178
f 174/713/179 196/714/179 195/715/179 175/716/179
f 175/717/180 195/718/180 194/719/180 176/720/180
f 176/721/181 194/722/181 193/723/181 162/724/181
f 162/725/182 193/726/182 208/727/182 161/728/182
f 161/729/183 208/730/183 207/731/183 163/732/183
f 190/733/184 189/734/184 1/735/184 16/736/184
f 189/737/185 188/738/185 2/739/185 1/740/185
f 188/741/186 187/742/186 3/743/186 2/744/186
f 187/745/187 186/746/187 4/747/187 3/748/187
f 186/749/188 185/750/188 5/751/188 4/752/188
f 185/753/189 184/754/189 6/755/189 5/756/189
f 184/757/190 183/758/190 7/759/190 6/760/190
f 183/761/191 182/762/191 8/763/191 7/764/191
f 182/765/192 181/766/192 9/767/192 8/768/192
f 181/769/193 180/770/193 10/771/193 9/772/193
f 180/773/194 179/774/194 11/775/194 10/776/194
f 179/777/195 178/778/195 12/779/195 11/780/195
f 178/781/196 177/782/196 13/783/196 12/784/196
f 177/785/197 192/786/197 14/787/197 13/788/197
f 192/789/198 191/790/198 15/791/198 14/792/198
f 191/793/199 190/794/199 16/795/199 15/796/199
f 207/797/200 206/798/200 158/799/200 159/800/200
f 206/801/201 205/802/201 157/803/201 158/804/201
f 205/805/202 204/806/202 156/807/202 157/808/202
f 204/809/203 203/810/203 155/811/203 156/812/203
f 203/813/204 202/814/204 154/815/204 155/816/204
f 202/817/205 201/818/205 153/819/205 154/820/205
f 201/821/206 200/822/206 152/823/206 153/824/206
f 200/825/207 199/826/207 151/827/207 152/828/207
f 199/829/208 198/830/208 150/831/208 151/832/208
f 198/833/209 197/834/209 149/835/209 150/836/209
f 197/837/210 196/838/210 148/839/210 149/840/210
f 196/841/211 195/842/211 147/843/211 148/844/211
f 195/845/212 194/846/212 146/847/212 147/848/212
f 194/849/213 193/850/213 145/851/213 146/852/213
f 193/853/214 208/854/214 160/855/214 145/856/214
f 208/857/215 207/858/215 159/859/215 160/860/215
f 197/861/216 198/862/216 199/863/216 200/864/216
f 200/865/217 201/866/217 202/867/217 203/868/217
f 203/869/218 204/870/218 205/871/218 206/872/218
f 206/873/219 207/874/219 208/875/219 193/876/219
f 193/877/220 194/878/220 195/879/220 196/880/220
f 196/881/221 197/882/221 200/883/221 203/884/221
f 203/885/222 206/886/222 193/887/222 196/888/222
f 174/889/223 222/890/223 221/891/223 173/892/223
f 173/893/224 221/894/224 220/895/224 172/896/224
f 172/897/225 220/898/225 219/899/225 171/900/225
f 171/901/226 219/902/226 218/903/226 170/904/226
f 170/905/227 218/906/227 217/907/227 169/908/227
f 169/909/228 217/910/228 216/911/228 168/912/228
f 168/913/229 216/914/229 215/915/229 167/916/229
f 167/917/230 215/918/230 214/919/230 166/920/230
f 166/921/231 214/922/231 213/923/231 165/924/231
f 165/925/232 213/926/232 212/927/232 164/928/232
f 164/929/233 212/930/233 211/931/233 163/932/233
f 163/933/234 211/934/234 210/935/234 161/936/234
f 161/937/235 210/938/235 209/939/235 162/940/235
f 162/941/236 209/942/236 224/943/236 176/944/236
f 176/945/237 224/946/237 223/947/237 175/948/237
f 175/949/238 223/950/238 222/951/238 174/952/238