# Blender 4.2.1 LTS
# www.blender.org
mtllib burlap_sack_one_sack.mtl
o cube
v 1.000000 0.312500 0.500000
v 1.000000 0.312500 0.500000
v 1.000000 0.000000 0.500000
v 1.000000 0.000000 0.500000
v 0.000000 0.312500 0.500000
v 0.000000 0.312500 0.500000
v 0.000000 0.000000 0.500000
v 0.000000 0.000000 0.500000
vn -0.0000 -0.0000 -1.0000
vn -0.0000 -0.0000 1.0000
vt 0.000000 0.687500
vt 1.000000 0.687500
vt 1.000000 1.000000
vt 0.000000 1.000000
s 0
usemtl m_d49dcbe8-ece0-ebb2-1f3c-d241a01ddd10
f 4/1/1 7/2/1 5/3/1 2/4/1
f 8/1/2 3/2/2 1/3/2 6/4/2
o cylinder
v 0.735577 0.187500 0.812500
v 0.735577 0.812500 0.812500
v 0.937500 0.187500 0.500000
v 0.937500 0.812500 0.500000
v 0.735577 0.187500 0.187500
v 0.735577 0.812500 0.187500
v 0.264423 0.187500 0.187500
v 0.264423 0.812500 0.187500
v 0.062500 0.187500 0.500000
v 0.062500 0.812500 0.500000
v 0.264423 0.187500 0.812500
v 0.264423 0.812500 0.812500
v 0.687500 0.000000 0.734375
v 0.875000 0.000000 0.500000
v 0.687500 0.000000 0.265625
v 0.312500 0.000000 0.265625
v 0.125000 0.000000 0.500000
v 0.312500 0.000000 0.734375
v 0.653237 1.000000 0.697368
v 0.786058 1.000000 0.500000
v 0.653237 1.000000 0.302631
v 0.346763 1.000000 0.302631
v 0.213942 1.000000 0.500000
v 0.346763 1.000000 0.697368
vn 0.8399 -0.0000 0.5427
vn 0.8399 -0.0000 -0.5427
vn -0.0000 -0.0000 -1.0000
vn -0.8399 -0.0000 -0.5427
vn -0.8399 -0.0000 0.5427
vn -0.0000 -0.0000 1.0000
vn 0.7557 -0.2519 0.6045
vn 0.7093 -0.4183 -0.5674
vn -0.0000 -0.3846 -0.9231
vn -0.7557 -0.2519 -0.6045
vn -0.7093 -0.4183 0.5674
vn -0.0000 -0.3846 0.9231
vn 0.6774 0.5774 0.4559
vn 0.6774 0.5774 0.4558
vn 0.6892 0.5567 -0.4638
vn -0.0000 0.5233 -0.8522
vn -0.6774 0.5774 -0.4558
vn -0.6892 0.5567 0.4638
vn -0.0000 0.5233 0.8522
vn -0.0000 1.0000 -0.0000
vn -0.0000 -1.0000 -0.0000
vt 0.625000 0.281250
vt 1.000000 0.281250
vt 1.000000 0.906250
vt 0.625000 0.906250
vt 0.000000 0.281250
vt 0.375000 0.281250
vt 0.375000 0.906250
vt 0.000000 0.906250
vt 0.250000 0.281250
vt 0.718750 0.281250
vt 0.718750 0.906250
vt 0.250000 0.906250
vt 0.656250 0.000000
vt 0.960938 0.000000
vt 1.000000 0.218750
vt 0.625000 0.218750
vt 0.039062 0.000000
vt 0.343750 0.000000
vt 0.375000 0.218750
vt 0.000000 0.218750
vt 0.296875 0.000000
vt 0.671875 0.000000
vt 0.718750 0.218750
vt 0.250000 0.218750
vt 0.859375 0.937500
vt 0.617188 0.937500
vt 0.562500 0.718750
vt 0.937500 0.718750
vt 0.328125 0.937500
vt 0.085938 0.937500
vt 0.000000 0.718750
vt 0.375000 0.718750
vt 0.640625 0.937500
vt 0.250000 0.718750
vt 0.718750 0.718750
vt 0.359375 1.000000
vt 0.234375 0.796875
vt 0.359375 0.593750
vt 0.671875 0.593750
vt 0.672347 0.593750
vt 0.796875 0.796875
vt 0.671875 1.000000
vt 0.562500 0.000000
vt 0.749901 0.234375
vt 0.562500 0.468750
vt 0.187500 0.468750
vt 0.000000 0.234375
vt 0.187500 0.000000
s 0
usemtl m_8353159a-f6df-ca9f-dac7-8507f7b1d4e7
f 9/5/3 11/6/3 12/7/3 10/8/3
f 11/9/4 13/10/4 14/11/4 12/12/4
f 13/13/5 15/14/5 16/15/5 14/16/5
f 15/5/6 17/6/6 18/7/6 16/8/6
f 17/9/7 19/10/7 20/11/7 18/12/7
f 19/13/8 9/14/8 10/15/8 20/16/8
f 21/17/9 22/18/9 11/19/9 9/20/9
f 22/21/10 23/22/10 13/23/10 11/24/10
f 23/25/11 24/26/11 15/27/11 13/28/11
f 24/17/12 25/18/12 17/19/12 15/20/12
f 25/21/13 26/22/13 19/23/13 17/24/13
f 26/25/14 21/26/14 9/27/14 19/28/14
f 28/29/15 27/30/16 10/31/16 12/32/16
f 29/33/17 28/34/17 12/35/17 14/36/17
f 30/37/18 29/33/18 14/38/18 16/39/18
f 31/29/19 30/30/19 16/31/19 18/32/19
f 32/33/20 31/34/20 18/35/20 20/36/20
f 27/37/21 32/33/21 20/38/21 10/39/21
f 30/40/22 31/41/22 32/42/22 27/43/22
f 27/44/22 28/45/22 29/46/22 30/40/22
usemtl m_d49dcbe8-ece0-ebb2-1f3c-d241a01ddd10
f 23/47/23 22/48/23 21/49/23 26/50/23
f 26/50/23 25/51/23 24/52/23 23/47/23
o string
v 0.437500 1.062500 0.562500
v 0.437500 1.062500 0.437500
v 0.437500 1.000000 0.437500
v 0.437500 1.000000 0.562500
v 0.562500 1.000000 0.437500
v 0.562500 1.062500 0.437500
v 0.562500 1.062500 0.562500
v 0.562500 1.000000 0.562500
vn -1.0000 -0.0000 -0.0000
vn 1.0000 -0.0000 -0.0000
vn -0.0000 1.0000 -0.0000
vn -0.0000 -0.0000 -1.0000
vn -0.0000 -0.0000 1.0000
vt 1.000000 0.406250
vt 0.875000 0.406250
vt 0.875000 0.343750
vt 1.000000 0.343750
vt 0.875000 0.375000
vt 1.000000 0.375000
vt 1.000000 0.500000
vt 0.875000 0.500000
s 0
usemtl m_d49dcbe8-ece0-ebb2-1f3c-d241a01ddd10
f 33/53/24 34/54/24 35/55/24 36/56/24
f 37/56/25 38/53/25 39/54/25 40/55/25
f 38/57/26 34/58/26 33/59/26 39/60/26
f 35/56/27 34/53/27 38/54/27 37/55/27
f 39/53/28 33/54/28 36/55/28 40/56/28
o top
v 0.389539 1.276655 0.407313
v 0.401587 1.150507 0.269120
v 0.474554 1.014304 0.484613
v 0.470538 1.056354 0.530677
v 0.536816 1.019730 0.485088
v 0.588374 1.166786 0.270544
v 0.576326 1.292935 0.408738
v 0.532799 1.061780 0.531152
vn -0.9522 -0.2624 0.1565
vn 0.9807 -0.0940 0.1713
vn 0.0766 -0.8309 -0.5511
vn -0.0481 0.4745 0.8789
vn -0.0589 0.7347 -0.6758
vt 0.625000 0.875000
vt 0.437500 0.875000
vt 0.500000 0.625000
vt 0.562500 0.625000
vt 0.562500 0.656250
vt 0.625000 0.906250
vt 0.437500 0.906250
vt 0.500000 0.656250
vt 0.531250 0.875000
vt 0.343750 0.875000
vt 0.406250 0.625000
vt 0.468750 0.625000
vt 0.812500 0.500000
vt 1.000000 0.500000
vt 1.000000 0.687500
vt 0.812500 0.687500
s 0
usemtl m_8353159a-f6df-ca9f-dac7-8507f7b1d4e7
f 41/61/29 42/62/29 43/63/29 44/64/29
f 45/65/30 46/66/30 47/67/30 48/68/30
f 43/65/31 42/66/31 46/67/31 45/68/31
f 47/69/32 41/70/32 44/71/32 48/72/32
usemtl m_d49dcbe8-ece0-ebb2-1f3c-d241a01ddd10
f 46/73/33 42/74/33 41/75/33 47/76/33
