# Blender 4.2.2 LTS
# www.blender.org
mtllib clay_butter_churn.mtl
o cylinder
v 0.610025 0.000000 0.765625
v 0.629442 0.609375 0.812500
v 0.765625 0.000000 0.610025
v 0.812500 0.609375 0.629442
v 0.765625 0.000000 0.389975
v 0.812500 0.609375 0.370558
v 0.610025 0.000000 0.234375
v 0.629442 0.609375 0.187500
v 0.389975 0.000000 0.234375
v 0.370558 0.609375 0.187500
v 0.234375 0.000000 0.389975
v 0.187500 0.609375 0.370558
v 0.234375 0.000000 0.610025
v 0.187500 0.609375 0.629442
v 0.389975 0.000000 0.765625
v 0.370558 0.609375 0.812500
v 0.590609 0.750000 0.718750
v 0.718750 0.750000 0.590609
v 0.718750 0.750000 0.409391
v 0.590609 0.750000 0.281250
v 0.409391 0.750000 0.281250
v 0.281250 0.750000 0.409391
v 0.281250 0.750000 0.590609
v 0.409391 0.750000 0.718750
v 0.590609 0.843750 0.718750
v 0.718750 0.843750 0.590609
v 0.718750 0.843750 0.409391
v 0.590609 0.843750 0.281250
v 0.409391 0.843750 0.281250
v 0.281250 0.843750 0.409391
v 0.281250 0.843750 0.590609
v 0.409391 0.843750 0.718750
v 0.564721 0.843750 0.656250
v 0.656250 0.843750 0.564721
v 0.656250 0.843750 0.435279
v 0.564721 0.843750 0.343750
v 0.435279 0.843750 0.343750
v 0.343750 0.843750 0.435279
v 0.343750 0.843750 0.564721
v 0.435279 0.843750 0.656250
v 0.564721 0.781250 0.656250
v 0.656250 0.781250 0.564721
v 0.656250 0.781250 0.435279
v 0.564721 0.781250 0.343750
v 0.435279 0.781250 0.343750
v 0.343750 0.781250 0.435279
v 0.343750 0.781250 0.564721
v 0.435279 0.781250 0.656250
vn 0.7050 -0.0767 0.7050
vn 0.9971 -0.0767 -0.0000
vn 0.7050 -0.0767 -0.7050
vn -0.0000 -0.0767 -0.9971
vn -0.7050 -0.0767 -0.7050
vn -0.9971 -0.0767 -0.0000
vn -0.7050 -0.0767 0.7050
vn -0.0000 -0.0767 0.9971
vn 0.5883 0.5547 0.5883
vn 0.8321 0.5547 -0.0000
vn 0.5883 0.5547 -0.5883
vn -0.0000 0.5547 -0.8321
vn -0.5883 0.5547 -0.5883
vn -0.8321 0.5547 -0.0000
vn -0.5883 0.5547 0.5883
vn -0.0000 0.5547 0.8321
vn 0.7071 -0.0000 0.7071
vn 1.0000 -0.0000 -0.0000
vn 0.7071 -0.0000 -0.7071
vn -0.0000 -0.0000 -1.0000
vn -0.7071 -0.0000 -0.7071
vn -1.0000 -0.0000 -0.0000
vn -0.7071 -0.0000 0.7071
vn -0.0000 -0.0000 1.0000
vn -0.0000 1.0000 -0.0000
vn -0.0000 -1.0000 -0.0000
vt 0.328125 0.000000
vt 0.546875 0.000000
vt 0.562500 0.593750
vt 0.312500 0.593750
vt 0.078125 0.000000
vt 0.296875 0.000000
vt 0.062500 0.593750
vt 0.531250 0.781250
vt 0.343750 0.781250
vt 0.281250 0.781250
vt 0.093750 0.781250
vt 0.531250 0.875000
vt 0.343750 0.875000
vt 0.281250 0.875000
vt 0.093750 0.875000
vt 0.281250 0.937500
vt 0.406250 0.937500
vt 0.437500 0.875000
vt 0.250000 0.875000
vt 0.093750 0.937500
vt 0.218750 0.937500
vt 0.062500 0.875000
vt 0.375000 0.781250
vt 0.500000 0.781250
vt 0.500000 0.843750
vt 0.375000 0.843750
vt 0.125000 0.781250
vt 0.250000 0.781250
vt 0.250000 0.843750
vt 0.125000 0.843750
vt 0.781250 0.312500
vt 0.687500 0.218750
vt 0.687500 0.093750
vt 0.781250 0.000000
vt 0.906250 0.000000
vt 1.000000 0.093750
vt 1.000000 0.218750
vt 0.906250 0.312500
vt 0.093750 0.000000
vt 0.249350 0.155600
vt 0.249350 0.375650
vt 0.093750 0.531250
vt 0.469400 0.531250
vt 0.249350 0.531250
vt 0.093750 0.375650
vt 0.093750 0.155600
vt 0.249350 0.000000
vt 0.469400 0.000000
s 0
usemtl m_7c62e44e-452c-b3ba-eab4-3488b519c658
f 1/1/1 3/2/1 4/3/1 2/4/1
f 3/5/2 5/6/2 6/4/2 4/7/2
f 5/1/3 7/2/3 8/3/3 6/4/3
f 7/5/4 9/6/4 10/4/4 8/7/4
f 9/1/5 11/2/5 12/3/5 10/4/5
f 11/5/6 13/6/6 14/4/6 12/7/6
f 13/1/7 15/2/7 16/3/7 14/4/7
f 15/5/8 1/6/8 2/4/8 16/7/8
f 18/8/9 17/9/9 2/4/9 4/3/9
f 19/10/10 18/11/10 4/7/10 6/4/10
f 20/8/11 19/9/11 6/4/11 8/3/11
f 21/10/12 20/11/12 8/7/12 10/4/12
f 22/8/13 21/9/13 10/4/13 12/3/13
f 23/10/14 22/11/14 12/7/14 14/4/14
f 24/8/15 23/9/15 14/4/15 16/3/15
f 17/10/16 24/11/16 16/7/16 2/4/16
f 26/12/17 25/13/17 17/9/17 18/8/17
f 27/14/18 26/15/18 18/11/18 19/10/18
f 28/12/19 27/13/19 19/9/19 20/8/19
f 29/14/20 28/15/20 20/11/20 21/10/20
f 30/12/21 29/13/21 21/9/21 22/8/21
f 31/14/22 30/15/22 22/11/22 23/10/22
f 32/12/23 31/13/23 23/9/23 24/8/23
f 25/14/24 32/15/24 24/11/24 17/10/24
f 34/16/25 33/17/25 25/18/25 26/19/25
f 35/20/25 34/21/25 26/19/25 27/22/25
f 36/16/25 35/17/25 27/18/25 28/19/25
f 37/20/25 36/21/25 28/19/25 29/22/25
f 38/16/25 37/17/25 29/18/25 30/19/25
f 39/20/25 38/21/25 30/19/25 31/22/25
f 40/16/25 39/17/25 31/18/25 32/19/25
f 33/20/25 40/21/25 32/19/25 25/22/25
f 42/23/21 41/24/21 33/25/21 34/26/21
f 43/27/22 42/28/22 34/29/22 35/30/22
f 44/23/23 43/24/23 35/25/23 36/26/23
f 45/27/24 44/28/24 36/29/24 37/30/24
f 46/23/17 45/24/17 37/25/17 38/26/17
f 47/27/18 46/28/18 38/29/18 39/30/18
f 48/23/19 47/24/19 39/25/19 40/26/19
f 41/27/20 48/28/20 40/29/20 33/30/20
f 45/31/25 46/32/25 47/33/25 48/34/25
f 48/34/25 41/35/25 42/36/25 43/37/25
f 43/37/25 44/38/25 45/31/25 48/34/25
f 7/39/26 5/40/26 3/41/26 1/42/26
f 1/43/26 15/44/26 13/45/26 11/46/26
f 11/46/26 9/47/26 7/48/26 1/43/26
