# Made in Blockbench 4.12.2
mtllib large_wooden_chest.mtl

o body
v 1 0.8125 0.90625
v 1 0.8125 0.21875
v 1 0.1875 0.90625
v 1 0.1875 0.21875
v 0 0.8125 0.90625
v 0 0.8125 0.21875
v 0 0.1875 0.90625
v 0 0.1875 0.21875
vt 0.546875 0
vt 0.546875 0.34375
vt 0.03125 0.34375
vt 0.03125 0
vt 0.546875 0.015625
vt 0.546875 0.328125
vt 0.03125 0.328125
vt 0.03125 0.015625
vt 0.546875 0.015625
vt 0.546875 0.328125
vt 0.03125 0.328125
vt 0.03125 0.015625
vn 0 -1 0
vn 0 0 1
vn 0 0 -1
usemtl m_cf1425d1-bd63-85fc-3cb9-4f7f72d589a3
f 4/1/1 3/2/1 7/3/1 8/4/1
f 3/5/2 1/6/2 5/7/2 7/8/2
f 8/9/3 6/10/3 2/11/3 4/12/3
o lid
v 1 0.953125 0.421875
v 1 0.8387303191349312 0.1649403400380185
v 1 0.8960284088973375 0.4472960401922375
v 1 0.7816337280322686 0.190361380230256
v 0 0.953125 0.421875
v 0 0.8387303191349312 0.1649403400380185
v 0 0.8960284088973375 0.4472960401922375
v 0 0.7816337280322686 0.190361380230256
v 1 0.8387303191349312 0.9600596599619815
v 1 0.7816337280322685 0.9346386197697442
v 1 0.8960284088973375 0.6777039598077625
v 0 0.8387303191349312 0.9600596599619815
v 0 0.7816337280322685 0.9346386197697442
v 0 0.8960284088973375 0.6777039598077625
v 1 0.9531250000000001 0.703125
v 0 0.9531250000000001 0.703125
vt 0.015625 1
vt 0.015625 0.859375
vt 0.515625 0.859375
vt 0.515625 1
vt 0.015625 0.578125
vt 0.015625 0.71875
vt 0.515625 0.71875
vt 0.515625 0.578125
vt 0.515625 0.546875
vt 0.515625 0.578125
vt 0.015625 0.578125
vt 0.015625 0.546875
vt 0.015625 0.578125
vt 0.015625 0.71875
vt 0.515625 0.71875
vt 0.515625 0.578125
vt 0.015625 1
vt 0.015625 0.859375
vt 0.515625 0.859375
vt 0.515625 1
vt 0.515625 0.546875
vt 0.515625 0.578125
vt 0.015625 0.578125
vt 0.015625 0.546875
vt 0.015625 0.71875
vt 0.015625 0.859375
vt 0.515625 0.859375
vt 0.515625 0.71875
vn 0 0.9135454576426009 -0.4067366430758002
vn 0 -0.9135454576426009 0.4067366430758002
vn 0 -0.4067366430758002 -0.9135454576426009
vn 0 0.913545457642601 0.40673664307580015
vn 0 -0.9135454576426009 -0.4067366430758005
vn 0 -0.4067366430757982 0.9135454576426019
vn 0 1 -1.6653345369377348e-16
usemtl m_cf1425d1-bd63-85fc-3cb9-4f7f72d589a3
f 9/13/4 10/14/4 14/15/4 13/16/4
f 12/17/5 11/18/5 15/19/5 16/20/5
f 16/21/6 14/22/6 10/23/6 12/24/6
f 17/25/7 23/26/7 24/27/7 20/28/7
f 19/29/8 18/30/8 21/31/8 22/32/8
f 18/33/9 17/34/9 20/35/9 21/36/9
f 23/37/10 9/38/10 13/39/10 24/40/10