# Made in Blockbench 4.12.2
mtllib large_wooden_chest.mtl

o lid
v -0.03125 0.875 0.96875
v -0.03125 0.875 0.15625
v -0.03125 0.75 0.96875
v -0.03125 0.75 0.15625
v -0.09375 0.875 0.96875
v -0.09375 0.875 0.15625
v -0.09375 0.75 0.96875
v -0.09375 0.75 0.15625
v -0.03125 1 0.6953125
v -0.03125 1 0.4296875
v -0.09375 1 0.6953125
v -0.09375 1 0.4296875
v 1.03125 0.953125 0.421875
v 1.03125 0.8387303191349312 0.1649403400380185
v 1.03125 0.8960284088973375 0.4472960401922375
v 1.03125 0.7816337280322686 0.190361380230256
v -0.03125 0.953125 0.421875
v -0.03125 0.8387303191349312 0.1649403400380185
v -0.03125 0.8960284088973375 0.4472960401922375
v -0.03125 0.7816337280322686 0.190361380230256
v 1.03125 0.8387303191349312 0.9600596599619815
v 1.03125 0.7816337280322685 0.9346386197697442
v 1.03125 0.8960284088973375 0.6777039598077625
v -0.03125 0.8387303191349312 0.9600596599619815
v -0.03125 0.7816337280322685 0.9346386197697442
v -0.03125 0.8960284088973375 0.6777039598077625
v 1.03125 0.9531250000000001 0.703125
v -0.03125 0.9531250000000001 0.703125
v 1.09375 0.875 0.96875
v 1.09375 0.875 0.15625
v 1.09375 0.75 0.96875
v 1.09375 0.75 0.15625
v 1.03125 0.875 0.96875
v 1.03125 0.875 0.15625
v 1.03125 0.75 0.96875
v 1.03125 0.75 0.15625
v 1.09375 1 0.6953125
v 1.09375 1 0.4296875
v 1.03125 1 0.6953125
v 1.03125 1 0.4296875
vt 1 0.75
vt 1 0.8125
vt 0.59375 0.8125
vt 0.59375 0.75
vt 1 0.875
vt 1 0.9375
vt 0.59375 0.9375
vt 0.59375 0.875
vt 0.3125 0.5625
vt 0.3125 0.96875
vt 0.28125 0.96875
vt 0.28125 0.5625
vt 0.0625 0.5781250000000011
vt 0 0.5781250000000011
vt 0 0.5468750000000011
vt 0.0625 0.5468750000000011
vt 1 0.8125
vt 0.86328125 0.875
vt 0.73046875 0.875
vt 0.59375 0.8125
vt 1 0.9375
vt 0.86328125 1
vt 0.73046875 1
vt 0.59375 0.9375
vt 0.2031249999999989 0.5781250000000001
vt 0.3281249999999989 0.5781250000000001
vt 0.3281249999999989 0.5468750000000001
vt 0.2031249999999989 0.5468750000000001
vt 0.04687499999999889 0.578125
vt 0.04687499999999889 0.546875
vt 0.2031249999999989 0.546875
vt 0.2031249999999989 0.578125
vt 0.4843749999999989 0.5468750000000011
vt 0.3281249999999989 0.5468750000000011
vt 0.3281249999999989 0.5781250000000011
vt 0.4843749999999989 0.5781250000000011
vt 0.5312499999999989 0.5468750000000001
vt 0.4687499999999989 0.5468750000000001
vt 0.4687499999999989 0.5781250000000001
vt 0.5312499999999989 0.5781250000000001
vt 0 1
vt 0 0.859375
vt 0.53125 0.859375
vt 0.53125 1
vt 0 0.578125
vt 0 0.71875
vt 0.53125 0.71875
vt 0.53125 0.578125
vt 0.53125 0.546875
vt 0.53125 0.578125
vt 0 0.578125
vt 0 0.546875
vt 0 0.578125
vt 0 0.71875
vt 0.53125 0.71875
vt 0.53125 0.578125
vt 0 1
vt 0 0.859375
vt 0.53125 0.859375
vt 0.53125 1
vt 0.53125 0.546875
vt 0.53125 0.578125
vt 0 0.578125
vt 0 0.546875
vt 0 0.71875
vt 0 0.859375
vt 0.53125 0.859375
vt 0.53125 0.71875
vt 0.59375 0.75
vt 0.59375 0.8125
vt 1 0.8125
vt 1 0.75
vt 0.59375 0.875
vt 0.59375 0.9375
vt 1 0.9375
vt 1 0.875
vt 0.3125 0.5625
vt 0.3125 0.96875
vt 0.28125 0.96875
vt 0.28125 0.5625
vt 0.4687499999999989 0.546875
vt 0.5312499999999989 0.546875
vt 0.5312499999999989 0.578125
vt 0.4687499999999989 0.578125
vt 0 0.578125000000001
vt 0.0625 0.578125000000001
vt 0.0625 0.546875000000001
vt 0 0.546875000000001
vt 0.59375 0.8125
vt 0.73046875 0.875
vt 0.86328125 0.875
vt 1 0.8125
vt 0.59375 0.9375
vt 0.73046875 1
vt 0.86328125 1
vt 1 0.9375
vt 0.328125 0.546875000000001
vt 0.203125 0.546875000000001
vt 0.203125 0.578125000000001
vt 0.328125 0.578125000000001
vt 0.484375 0.5468750000000011
vt 0.484375 0.5781250000000011
vt 0.328125 0.5781250000000011
vt 0.328125 0.5468750000000011
vt 0.046875 0.578125
vt 0.203125 0.578125
vt 0.203125 0.546875
vt 0.046875 0.546875
vn 1 0 0
vn -1 0 0
vn 0 -1 0
vn 0 0 1
vn 1 0 0
vn -1 0 0
vn 0 1 0
vn 0 0.9094744755858002 0.4157597602677944
vn 0 0.9094744755858002 -0.4157597602677944
vn 0 0 -1
vn 0 0.913545457642601 -0.4067366430758001
vn 0 -0.9135454576426009 0.40673664307580043
vn 0 -0.4067366430757997 -0.9135454576426011
vn 0 0.9135454576426009 0.40673664307580043
vn 0 -0.9135454576426008 -0.40673664307580065
vn 0 -0.40673664307579693 0.9135454576426025
vn 0 1 -3.9474596431116675e-16
vn 1 0 0
vn -1 0 0
vn 0 -1 0
vn 0 0 1
vn 0 0 -1
vn 1 0 0
vn -1 0 0
vn 0 1 0
vn 0 0.9094744755858002 0.4157597602677944
vn 0 0.9094744755858002 -0.4157597602677944
usemtl m_cf1425d1-bd63-85fc-3cb9-4f7f72d589a3
f 4/1/1 2/2/1 1/3/1 3/4/1
f 7/5/2 5/6/2 6/7/2 8/8/2
f 4/9/3 3/10/3 7/11/3 8/12/3
f 3/13/4 1/14/4 5/15/4 7/16/4
f 2/17/5 10/18/5 9/19/5 1/20/5
f 5/21/6 11/22/6 12/23/6 6/24/6
f 9/25/7 10/26/7 12/27/7 11/28/7
f 9/29/8 11/30/8 5/31/8 1/32/8
f 6/33/9 12/34/9 10/35/9 2/36/9
f 8/37/10 6/38/10 2/39/10 4/40/10
f 13/41/11 14/42/11 18/43/11 17/44/11
f 16/45/12 15/46/12 19/47/12 20/48/12
f 20/49/13 18/50/13 14/51/13 16/52/13
f 21/53/14 27/54/14 28/55/14 24/56/14
f 23/57/15 22/58/15 25/59/15 26/60/15
f 22/61/16 21/62/16 24/63/16 25/64/16
f 27/65/17 13/66/17 17/67/17 28/68/17
f 32/69/18 30/70/18 29/71/18 31/72/18
f 35/73/19 33/74/19 34/75/19 36/76/19
f 32/77/20 31/78/20 35/79/20 36/80/20
f 31/81/21 29/82/21 33/83/21 35/84/21
f 36/85/22 34/86/22 30/87/22 32/88/22
f 30/89/23 38/90/23 37/91/23 29/92/23
f 33/93/24 39/94/24 40/95/24 34/96/24
f 37/97/25 38/98/25 40/99/25 39/100/25
f 37/101/26 39/102/26 33/103/26 29/104/26
f 34/105/27 40/106/27 38/107/27 30/108/27
o body
v 1.078125 0.8125 0.90625
v 1.078125 0.8125 0.21875
v 1.078125 0.1875 0.90625
v 1.078125 0.1875 0.21875
v -0.078125 0.8125 0.90625
v -0.078125 0.8125 0.21875
v -0.078125 0.1875 0.90625
v -0.078125 0.1875 0.21875
vt 0.9375 0.015625
vt 0.9375 0.328125
vt 0.59375 0.328125
vt 0.59375 0.015625
vt 0.9375 0.015625
vt 0.9375 0.328125
vt 0.59375 0.328125
vt 0.59375 0.015625
vt 0.578125 0
vt 0.578125 0.34375
vt 0 0.34375
vt 0 0
vt 0.578125 0.015625
vt 0.578125 0.328125
vt 0 0.328125
vt 0 0.015625
vt 0.578125 0.015625
vt 0.578125 0.328125
vt 0 0.328125
vt 0 0.015625
vn 1 0 0
vn -1 0 0
vn 0 -1 0
vn 0 0 1
vn 0 0 -1
usemtl m_cf1425d1-bd63-85fc-3cb9-4f7f72d589a3
f 44/109/28 42/110/28 41/111/28 43/112/28
f 47/113/29 45/114/29 46/115/29 48/116/29
f 44/117/30 43/118/30 47/119/30 48/120/30
f 43/121/31 41/122/31 45/123/31 47/124/31
f 48/125/32 46/126/32 42/127/32 44/128/32
o legs
v 1.125 0.8125 0.9375
v 1.125 0.8125 0.84375
v 1.125 0 0.9375
v 1.125 0 0.84375
v 0.90625 0.8125 0.9375
v 0.90625 0.8125 0.84375
v 0.90625 0 0.9375
v 0.90625 0 0.84375
v 0.09375 0.8125 0.28125
v 0.09375 0.8125 0.1875
v 0.09375 0 0.28125
v 0.09375 0 0.1875
v -0.125 0.8125 0.28125
v -0.125 0.8125 0.1875
v -0.125 0 0.28125
v -0.125 0 0.1875
v 0.09375 0.8125 0.9375
v 0.09375 0.8125 0.84375
v 0.09375 0 0.9375
v 0.09375 0 0.84375
v -0.125 0.8125 0.9375
v -0.125 0.8125 0.84375
v -0.125 0 0.9375
v -0.125 0 0.84375
v 1.125 0.8125 0.28125
v 1.125 0.8125 0.1875
v 1.125 0 0.28125
v 1.125 0 0.1875
v 0.90625 0.8125 0.28125
v 0.90625 0.8125 0.1875
v 0.90625 0 0.28125
v 0.90625 0 0.1875
vt 1 0.609375
vt 0.59375 0.609375
vt 0.59375 0.5625
vt 1 0.5625
vt 1 0.609375
vt 0.59375 0.609375
vt 0.59375 0.5625
vt 1 0.5625
vt 0.546875 0.71875
vt 0.59375 0.71875
vt 0.59375 0.609375
vt 0.546875 0.609375
vt 0.546875 0.546875
vt 0.59375 0.546875
vt 0.59375 0.4375
vt 0.546875 0.4375
vt 1 0.71875
vt 0.59375 0.71875
vt 0.59375 0.609375
vt 1 0.609375
vt 1 0.609375
vt 0.59375 0.609375
vt 0.59375 0.71875
vt 1 0.71875
vt 1 0.609375
vt 0.59375 0.609375
vt 0.59375 0.5625
vt 1 0.5625
vt 1 0.609375
vt 0.59375 0.609375
vt 0.59375 0.5625
vt 1 0.5625
vt 0.59375 0.609375
vt 0.546875 0.609375
vt 0.546875 0.71875
vt 0.59375 0.71875
vt 0.546875 0.546875
vt 0.59375 0.546875
vt 0.59375 0.4375
vt 0.546875 0.4375
vt 1 0.609375
vt 0.59375 0.609375
vt 0.59375 0.71875
vt 1 0.71875
vt 1 0.71875
vt 0.59375 0.71875
vt 0.59375 0.609375
vt 1 0.609375
vt 1 0.4375
vt 0.59375 0.4375
vt 0.59375 0.390625
vt 1 0.390625
vt 1 0.4375
vt 0.59375 0.4375
vt 0.59375 0.390625
vt 1 0.390625
vt 0.59375 0.609375
vt 0.546875 0.609375
vt 0.546875 0.71875
vt 0.59375 0.71875
vt 0.59375 0.4375
vt 0.546875 0.4375
vt 0.546875 0.546875
vt 0.59375 0.546875
vt 1 0.4375
vt 0.59375 0.4375
vt 0.59375 0.546875
vt 1 0.546875
vt 1 0.546875
vt 0.59375 0.546875
vt 0.59375 0.4375
vt 1 0.4375
vt 1 0.4375
vt 0.59375 0.4375
vt 0.59375 0.390625
vt 1 0.390625
vt 1 0.4375
vt 0.59375 0.4375
vt 0.59375 0.390625
vt 1 0.390625
vt 0.546875 0.71875
vt 0.59375 0.71875
vt 0.59375 0.609375
vt 0.546875 0.609375
vt 0.59375 0.4375
vt 0.546875 0.4375
vt 0.546875 0.546875
vt 0.59375 0.546875
vt 1 0.546875
vt 0.59375 0.546875
vt 0.59375 0.4375
vt 1 0.4375
vt 1 0.4375
vt 0.59375 0.4375
vt 0.59375 0.546875
vt 1 0.546875
vn 1 0 0
vn -1 0 0
vn 0 1 0
vn 0 -1 0
vn 0 0 1
vn 0 0 -1
vn 1 0 0
vn -1 0 0
vn 0 1 0
vn 0 -1 0
vn 0 0 1
vn 0 0 -1
vn 1 0 0
vn -1 0 0
vn 0 1 0
vn 0 -1 0
vn 0 0 1
vn 0 0 -1
vn 1 0 0
vn -1 0 0
vn 0 1 0
vn 0 -1 0
vn 0 0 1
vn 0 0 -1
usemtl m_cf1425d1-bd63-85fc-3cb9-4f7f72d589a3
f 52/129/33 50/130/33 49/131/33 51/132/33
f 55/133/34 53/134/34 54/135/34 56/136/34
f 49/137/35 50/138/35 54/139/35 53/140/35
f 52/141/36 51/142/36 55/143/36 56/144/36
f 51/145/37 49/146/37 53/147/37 55/148/37
f 56/149/38 54/150/38 50/151/38 52/152/38
f 60/153/39 58/154/39 57/155/39 59/156/39
f 63/157/40 61/158/40 62/159/40 64/160/40
f 57/161/41 58/162/41 62/163/41 61/164/41
f 60/165/42 59/166/42 63/167/42 64/168/42
f 59/169/43 57/170/43 61/171/43 63/172/43
f 64/173/44 62/174/44 58/175/44 60/176/44
f 68/177/45 66/178/45 65/179/45 67/180/45
f 71/181/46 69/182/46 70/183/46 72/184/46
f 65/185/47 66/186/47 70/187/47 69/188/47
f 68/189/48 67/190/48 71/191/48 72/192/48
f 67/193/49 65/194/49 69/195/49 71/196/49
f 72/197/50 70/198/50 66/199/50 68/200/50
f 76/201/51 74/202/51 73/203/51 75/204/51
f 79/205/52 77/206/52 78/207/52 80/208/52
f 73/209/53 74/210/53 78/211/53 77/212/53
f 76/213/54 75/214/54 79/215/54 80/216/54
f 75/217/55 73/218/55 77/219/55 79/220/55
f 80/221/56 78/222/56 74/223/56 76/224/56