# Made in Blockbench 4.12.2
mtllib large_wooden_chest.mtl

o body
v 1.078125 0.8125 0.90625
v 1.078125 0.8125 0.21875
v 1.078125 0.1875 0.90625
v 1.078125 0.1875 0.21875
v 0 0.8125 0.90625
v 0 0.8125 0.21875
v 0 0.1875 0.90625
v 0 0.1875 0.21875
vt 0.9375 0.015625
vt 0.9375 0.328125
vt 0.59375 0.328125
vt 0.59375 0.015625
vt 0.578125 0
vt 0.578125 0.34375
vt 0.03125 0.34375
vt 0.03125 0
vt 0.578125 0.015625
vt 0.578125 0.328125
vt 0.03125 0.328125
vt 0.03125 0.015625
vt 0.546875 0.015625
vt 0.546875 0.328125
vt 0 0.328125
vt 0 0.015625
vn 1 0 0
vn 0 -1 0
vn 0 0 1
vn 0 0 -1
usemtl m_cf1425d1-bd63-85fc-3cb9-4f7f72d589a3
f 4/1/1 2/2/1 1/3/1 3/4/1
f 4/5/2 3/6/2 7/7/2 8/8/2
f 3/9/3 1/10/3 5/11/3 7/12/3
f 8/13/4 6/14/4 2/15/4 4/16/4
o lid
v 1.03125 0.953125 0.421875
v 1.03125 0.8387303191349312 0.1649403400380185
v 1.03125 0.8960284088973375 0.4472960401922375
v 1.03125 0.7816337280322686 0.190361380230256
v 0 0.953125 0.421875
v 0 0.8387303191349312 0.1649403400380185
v 0 0.8960284088973375 0.4472960401922375
v 0 0.7816337280322686 0.190361380230256
v 1.03125 0.8387303191349312 0.9600596599619815
v 1.03125 0.7816337280322685 0.9346386197697442
v 1.03125 0.8960284088973375 0.6777039598077625
v 0 0.8387303191349312 0.9600596599619815
v 0 0.7816337280322685 0.9346386197697442
v 0 0.8960284088973375 0.6777039598077625
v 1.03125 0.9531250000000001 0.703125
v 0 0.9531250000000001 0.703125
v 1.09375 0.875 0.9687500000000001
v 1.09375 0.8750000000000001 0.15624999999999994
v 1.09375 0.7499999999999999 0.96875
v 1.09375 0.75 0.15624999999999994
v 1.03125 0.875 0.9687500000000001
v 1.03125 0.8750000000000001 0.15624999999999994
v 1.03125 0.7499999999999999 0.96875
v 1.03125 0.75 0.15624999999999994
v 1.09375 1 0.6953125
v 1.09375 1 0.42968749999999994
v 1.03125 1 0.6953125
v 1.03125 1 0.42968749999999994
vt 0.015625 1
vt 0.015625 0.859375
vt 0.53125 0.859375
vt 0.53125 1
vt 0.015625 0.578125
vt 0.015625 0.71875
vt 0.53125 0.71875
vt 0.53125 0.578125
vt 0.53125 0.546875
vt 0.53125 0.578125
vt 0.015625 0.578125
vt 0.015625 0.546875
vt 0.015625 0.578125
vt 0.015625 0.71875
vt 0.53125 0.71875
vt 0.53125 0.578125
vt 0.015625 1
vt 0.015625 0.859375
vt 0.53125 0.859375
vt 0.53125 1
vt 0.53125 0.546875
vt 0.53125 0.578125
vt 0.015625 0.578125
vt 0.015625 0.546875
vt 0.015625 0.71875
vt 0.015625 0.859375
vt 0.53125 0.859375
vt 0.53125 0.71875
vt 0.59375 0.75
vt 0.59375 0.8125
vt 1 0.8125
vt 1 0.75
vt 0.59375 0.875
vt 0.59375 0.9375
vt 1 0.9375
vt 1 0.875
vt 0.3125 0.5625
vt 0.3125 0.96875
vt 0.28125 0.96875
vt 0.28125 0.5625
vt 0.4687499999999989 0.546875
vt 0.5312499999999989 0.546875
vt 0.5312499999999989 0.578125
vt 0.4687499999999989 0.578125
vt 0 0.578125000000001
vt 0.0625 0.578125000000001
vt 0.0625 0.546875000000001
vt 0 0.546875000000001
vt 0.59375 0.8125
vt 0.73046875 0.875
vt 0.86328125 0.875
vt 1 0.8125
vt 0.59375 0.9375
vt 0.73046875 1
vt 0.86328125 1
vt 1 0.9375
vt 0.328125 0.546875000000001
vt 0.203125 0.546875000000001
vt 0.203125 0.578125000000001
vt 0.328125 0.578125000000001
vt 0.484375 0.5468750000000011
vt 0.484375 0.5781250000000011
vt 0.328125 0.5781250000000011
vt 0.328125 0.5468750000000011
vt 0.046875 0.578125
vt 0.203125 0.578125
vt 0.203125 0.546875
vt 0.046875 0.546875
vn 0 0.9135454576426009 -0.4067366430758002
vn 0 -0.9135454576426009 0.4067366430758002
vn 0 -0.4067366430758002 -0.9135454576426009
vn 0 0.913545457642601 0.40673664307580015
vn 0 -0.913545457642601 -0.40673664307580043
vn 0 -0.40673664307579815 0.9135454576426018
vn 0 1 -1.665334536937734e-16
vn 1 0 0
vn -1 0 0
vn 0 -1 1.1102230246251563e-16
vn 0 -5.551115123125782e-16 1
vn 0 -1.6653345369377348e-16 -1
vn 1 0 0
vn -1 0 0
vn 0 1 -5.5511151231257815e-17
vn 0 0.9094744755858001 0.4157597602677944
vn 0 0.9094744755858003 -0.4157597602677944
usemtl m_cf1425d1-bd63-85fc-3cb9-4f7f72d589a3
f 9/17/5 10/18/5 14/19/5 13/20/5
f 12/21/6 11/22/6 15/23/6 16/24/6
f 16/25/7 14/26/7 10/27/7 12/28/7
f 17/29/8 23/30/8 24/31/8 20/32/8
f 19/33/9 18/34/9 21/35/9 22/36/9
f 18/37/10 17/38/10 20/39/10 21/40/10
f 23/41/11 9/42/11 13/43/11 24/44/11
f 28/45/12 26/46/12 25/47/12 27/48/12
f 31/49/13 29/50/13 30/51/13 32/52/13
f 28/53/14 27/54/14 31/55/14 32/56/14
f 27/57/15 25/58/15 29/59/15 31/60/15
f 32/61/16 30/62/16 26/63/16 28/64/16
f 26/65/17 34/66/17 33/67/17 25/68/17
f 29/69/18 35/70/18 36/71/18 30/72/18
f 33/73/19 34/74/19 36/75/19 35/76/19
f 33/77/20 35/78/20 29/79/20 25/80/20
f 30/81/21 36/82/21 34/83/21 26/84/21
o legs
v 1.125 0.8125 0.28125
v 1.125 0.8125 0.1875
v 1.125 0 0.28125
v 1.125 0 0.1875
v 0.90625 0.8125 0.28125
v 0.90625 0.8125 0.1875
v 0.90625 0 0.28125
v 0.90625 0 0.1875
v 1.125 0.8125 0.9375
v 1.125 0.8125 0.84375
v 1.125 0 0.9375
v 1.125 0 0.84375
v 0.90625 0.8125 0.9375
v 0.90625 0.8125 0.84375
v 0.90625 0 0.9375
v 0.90625 0 0.84375
vt 1 0.4375
vt 0.59375 0.4375
vt 0.59375 0.390625
vt 1 0.390625
vt 1 0.4375
vt 0.59375 0.4375
vt 0.59375 0.390625
vt 1 0.390625
vt 0.546875 0.71875
vt 0.59375 0.71875
vt 0.59375 0.609375
vt 0.546875 0.609375
vt 0.59375 0.4375
vt 0.546875 0.4375
vt 0.546875 0.546875
vt 0.59375 0.546875
vt 1 0.546875
vt 0.59375 0.546875
vt 0.59375 0.4375
vt 1 0.4375
vt 1 0.4375
vt 0.59375 0.4375
vt 0.59375 0.546875
vt 1 0.546875
vt 1 0.609375
vt 0.59375 0.609375
vt 0.59375 0.5625
vt 1 0.5625
vt 1 0.609375
vt 0.59375 0.609375
vt 0.59375 0.5625
vt 1 0.5625
vt 0.546875 0.71875
vt 0.59375 0.71875
vt 0.59375 0.609375
vt 0.546875 0.609375
vt 0.546875 0.546875
vt 0.59375 0.546875
vt 0.59375 0.4375
vt 0.546875 0.4375
vt 1 0.71875
vt 0.59375 0.71875
vt 0.59375 0.609375
vt 1 0.609375
vt 1 0.609375
vt 0.59375 0.609375
vt 0.59375 0.71875
vt 1 0.71875
vn 1 0 0
vn -1 0 0
vn 0 1 0
vn 0 -1 0
vn 0 0 1
vn 0 0 -1
vn 1 0 0
vn -1 0 0
vn 0 1 0
vn 0 -1 0
vn 0 0 1
vn 0 0 -1
usemtl m_cf1425d1-bd63-85fc-3cb9-4f7f72d589a3
f 40/85/22 38/86/22 37/87/22 39/88/22
f 43/89/23 41/90/23 42/91/23 44/92/23
f 37/93/24 38/94/24 42/95/24 41/96/24
f 40/97/25 39/98/25 43/99/25 44/100/25
f 39/101/26 37/102/26 41/103/26 43/104/26
f 44/105/27 42/106/27 38/107/27 40/108/27
f 48/109/28 46/110/28 45/111/28 47/112/28
f 51/113/29 49/114/29 50/115/29 52/116/29
f 45/117/30 46/118/30 50/119/30 49/120/30
f 48/121/31 47/122/31 51/123/31 52/124/31
f 47/125/32 45/126/32 49/127/32 51/128/32
f 52/129/33 50/130/33 46/131/33 48/132/33