# Blender 4.2.2 LTS
# www.blender.org
mtllib beam_steep_steps.mtl
o cube
v 1.000000 0.200590 0.536321
v 1.000000 0.348821 0.486910
v 1.000000 0.151179 0.388090
v 1.000000 0.299411 0.338679
v 0.000000 0.348821 0.486910
v 0.000000 0.200590 0.536321
v 0.000000 0.299411 0.338679
v 0.000000 0.151179 0.388090
vn -0.0000 0.9487 -0.3162
vn 1.0000 -0.0000 -0.0000
vn -0.0000 -0.9487 0.3162
vn -1.0000 -0.0000 -0.0000
vn -0.0000 0.3162 0.9487
vn -0.0000 -0.3162 -0.9487
vt 0.531250 0.000000
vt 0.531250 1.000000
vt 0.687500 1.000000
vt 0.687500 0.000000
vt 0.437500 0.406250
vt 0.593750 0.406250
vt 0.593750 0.562500
vt 0.437500 0.562500
vt 0.375000 1.000000
vt 0.375000 0.000000
s 0
usemtl texture
f 4/1/1 7/2/1 5/3/1 2/4/1
f 3/5/2 4/6/2 2/7/2 1/8/2
f 8/4/3 3/3/3 1/2/3 6/1/3
f 7/5/4 8/6/4 6/7/4 5/8/4
f 6/1/5 1/2/5 2/9/5 5/10/5
f 7/1/6 4/2/6 3/9/6 8/10/6
o cube.001
v 1.000000 0.544340 0.708196
v 1.000000 0.692571 0.658785
v 1.000000 0.494929 0.559964
v 1.000000 0.643161 0.510554
v 0.000000 0.692571 0.658785
v 0.000000 0.544340 0.708196
v 0.000000 0.643161 0.510554
v 0.000000 0.494929 0.559964
vn -0.0000 0.9487 -0.3162
vn 1.0000 -0.0000 -0.0000
vn -0.0000 -0.9487 0.3162
vn -1.0000 -0.0000 -0.0000
vn -0.0000 0.3162 0.9487
vn -0.0000 -0.3162 -0.9487
vt 0.843750 0.000000
vt 0.843750 1.000000
vt 1.000000 1.000000
vt 1.000000 0.000000
vt 0.781250 0.406250
vt 0.937500 0.406250
vt 0.937500 0.562500
vt 0.781250 0.562500
vt 0.687500 1.000000
vt 0.687500 0.000000
s 0
usemtl texture
f 12/11/7 15/12/7 13/13/7 10/14/7
f 11/15/8 12/16/8 10/17/8 9/18/8
f 16/14/9 11/13/9 9/12/9 14/11/9
f 15/15/10 16/16/10 14/17/10 13/18/10
f 14/11/11 9/12/11 10/19/11 13/20/11
f 15/11/12 12/12/12 11/19/12 16/20/12
o cube.002
v 1.000000 0.888090 0.880071
v 1.000000 1.036321 0.830660
v 1.000000 0.838679 0.731839
v 1.000000 0.986911 0.682429
v 0.000000 1.036321 0.830660
v 0.000000 0.888090 0.880071
v 0.000000 0.986911 0.682429
v 0.000000 0.838679 0.731839
vn -0.0000 0.9487 -0.3162
vn 1.0000 -0.0000 -0.0000
vn -0.0000 -0.9487 0.3162
vn -1.0000 -0.0000 -0.0000
vn -0.0000 0.3162 0.9487
vn -0.0000 -0.3162 -0.9487
vt 0.218750 0.000000
vt 0.218750 1.000000
vt 0.375000 1.000000
vt 0.375000 0.000000
vt 0.093750 0.406250
vt 0.250000 0.406250
vt 0.250000 0.562500
vt 0.093750 0.562500
vt 0.156250 0.000000
vt 0.156250 1.000000
vt 0.000000 1.000000
vt 0.000000 0.000000
s 0
usemtl texture
f 20/21/13 23/22/13 21/23/13 18/24/13
f 19/25/14 20/26/14 18/27/14 17/28/14
f 24/24/15 19/23/15 17/22/15 22/21/15
f 23/25/16 24/26/16 22/27/16 21/28/16
f 22/29/17 17/30/17 18/31/17 21/32/17
f 23/29/18 20/30/18 19/31/18 24/32/18
o cube.003
v 0.257583 0.999998 0.937498
v 0.125000 1.059291 0.818912
v 0.257583 0.000000 0.437500
v 0.125000 0.059293 0.318914
v -0.007583 0.999998 0.937498
v 0.125000 0.940706 1.056083
v -0.007583 0.000000 0.437500
v 0.125000 -0.059292 0.556085
vn -0.7071 0.3162 -0.6325
vn 0.7071 0.3162 -0.6325
vn 0.7071 -0.3162 0.6325
vn -0.7071 -0.3162 0.6325
vn -0.0000 0.8944 0.4472
vn -0.0000 -0.8944 -0.4472
vt 0.187500 1.000000
vt 0.375000 1.000000
vt 0.375000 0.000000
vt 0.187500 0.000000
vt 0.000000 1.000000
vt 0.000000 0.000000
vt 0.437500 0.375000
vt 0.625000 0.375000
vt 0.625000 0.562500
vt 0.437500 0.562500
s 0
usemtl texture
f 28/33/19 31/34/19 29/35/19 26/36/19
f 27/37/20 28/33/20 26/36/20 25/38/20
f 32/33/21 27/34/21 25/35/21 30/36/21
f 31/37/22 32/33/22 30/36/22 29/38/22
f 30/39/23 25/40/23 26/41/23 29/42/23
f 31/39/24 28/40/24 27/41/24 32/42/24
o cube.004
v 1.007583 0.999998 0.937498
v 0.875000 1.059291 0.818912
v 1.007583 0.000000 0.437500
v 0.875000 0.059293 0.318914
v 0.742417 0.999998 0.937498
v 0.875000 0.940706 1.056083
v 0.742417 0.000000 0.437500
v 0.875000 -0.059292 0.556085
vn -0.7071 0.3162 -0.6325
vn 0.7071 0.3162 -0.6325
vn 0.7071 -0.3162 0.6325
vn -0.7071 -0.3162 0.6325
vn -0.0000 0.8944 0.4472
vn -0.0000 -0.8944 -0.4472
vt 0.187500 0.000000
vt 0.375000 0.000000
vt 0.375000 1.000000
vt 0.187500 1.000000
vt 0.000000 0.000000
vt 0.000000 1.000000
vt 0.750000 0.375000
vt 0.937500 0.375000
vt 0.937500 0.562500
vt 0.750000 0.562500
s 0
usemtl texture
f 36/43/25 39/44/25 37/45/25 34/46/25
f 35/47/26 36/43/26 34/46/26 33/48/26
f 40/43/27 35/44/27 33/45/27 38/46/27
f 39/47/28 40/43/28 38/46/28 37/48/28
f 38/49/29 33/50/29 34/51/29 37/52/29
f 39/49/30 36/50/30 35/51/30 40/52/30
