# Made in Blockbench 4.10.4
mtllib shallow_diagonal_beam.mtl

o element1
v 0.625 0.6288462687932985 1.0307765041550205
v 0.625 0.8713819398299862 0.9701427818976527
v 0.625 0.37873216448165614 0.030316861128683925
v 0.625 0.6212678355183439 -0.030316861128683925
v 0.375 0.8713819398299862 0.9701427818976527
v 0.375 0.6288462687932985 1.0307765041550205
v 0.375 0.6212678355183439 -0.030316861128683925
v 0.375 0.37873216448165614 0.030316861128683925
vt 0.375 1
vt 0.625 1
vt 0.625 0
vt 0.375 0
vt 0.375 1
vt 0.625 1
vt 0.625 0
vt 0.375 0
vt 0.375 1
vt 0.625 1
vt 0.625 0
vt 0.375 0
vt 0.375 1
vt 0.625 1
vt 0.625 0
vt 0.375 0
vt 0.375 0.625
vt 0.625 0.625
vt 0.625 0.375
vt 0.375 0.375
vt 0.375 0.625
vt 0.625 0.625
vt 0.625 0.375
vt 0.375 0.375
vn 0 0.9701426841467506 -0.2425348890294713
vn 1 0 0
vn 0 -0.9701426841467506 0.2425348890294713
vn -1 0 0
vn 0 0.2425348890294713 0.9701426841467506
vn 0 -0.2425348890294713 -0.9701426841467506
usemtl side
f 4/4/1 7/3/1 5/2/1 2/1/1
f 3/8/2 4/7/2 2/6/2 1/5/2
f 8/12/3 3/11/3 1/10/3 6/9/3
f 7/16/4 8/15/4 6/14/4 5/13/4
usemtl end
f 6/20/5 1/19/5 2/18/5 5/17/5
f 7/24/6 4/23/6 3/22/6 8/21/6