# Made in Blockbench 4.10.4
mtllib shallow_diagonal_beam.mtl

o element1
v 0.625 0.12884626879329852 1.0307765041550205
v 0.625 0.37138193982998613 0.9701427818976527
v 0.625 -0.1212678355183438 0.030316861128683925
v 0.625 0.12126783551834386 -0.030316861128683925
v 0.375 0.37138193982998613 0.9701427818976527
v 0.375 0.12884626879329852 1.0307765041550205
v 0.375 0.12126783551834386 -0.030316861128683925
v 0.375 -0.1212678355183438 0.030316861128683925
vt 0.375 1
vt 0.625 1
vt 0.625 0
vt 0.375 0
vt 0.375 1
vt 0.625 1
vt 0.625 0
vt 0.375 0
vt 0.375 1
vt 0.625 1
vt 0.625 0
vt 0.375 0
vt 0.375 1
vt 0.625 1
vt 0.625 0
vt 0.375 0
vt 0.375 0.625
vt 0.625 0.625
vt 0.625 0.375
vt 0.375 0.375
vt 0.375 0.625
vt 0.625 0.625
vt 0.625 0.375
vt 0.375 0.375
vn 0 0.9701426841467506 -0.2425348890294713
vn 1 0 0
vn 0 -0.9701426841467506 0.2425348890294713
vn -1 0 0
vn 0 0.2425348890294713 0.9701426841467506
vn 0 -0.2425348890294713 -0.9701426841467506
usemtl side
f 4/4/1 7/3/1 5/2/1 2/1/1
f 3/8/2 4/7/2 2/6/2 1/5/2
f 8/12/3 3/11/3 1/10/3 6/9/3
f 7/16/4 8/15/4 6/14/4 5/13/4
usemtl end
f 6/20/5 1/19/5 2/18/5 5/17/5
f 7/24/6 4/23/6 3/22/6 8/21/6
o element3
v 0.625 -0.12126821484763384 0.03031695596070061
v 0.625 0.12126745618905377 -0.030316766296667186
v 0.625 -0.24632526700345503 -0.46991286555246764
v 0.625 -0.003789595966767312 -0.5305465878098354
v 0.375 0.12126745618905377 -0.030316766296667186
v 0.375 -0.12126821484763384 0.03031695596070061
v 0.375 -0.003789595966767312 -0.5305465878098354
v 0.375 -0.24632526700345503 -0.46991286555246764
vt 0.375 1
vt 0.625 1
vt 0.625 0.5
vt 0.375 0.5
vt 0.375 1
vt 0.625 1
vt 0.625 0.5
vt 0.375 0.5
vt 0.375 1
vt 0.625 1
vt 0.625 0.5
vt 0.375 0.5
vt 0.375 1
vt 0.625 1
vt 0.625 0.5
vt 0.375 0.5
vt 0.375 0.625
vt 0.625 0.625
vt 0.625 0.375
vt 0.375 0.375
vt 0.375 0.625
vt 0.625 0.625
vt 0.625 0.375
vt 0.375 0.375
vn 0 0.9701426841467506 -0.2425348890294713
vn 1 0 0
vn 0 -0.9701426841467506 0.2425348890294713
vn -1 0 0
vn 0 0.2425348890294713 0.9701426841467506
vn 0 -0.2425348890294713 -0.9701426841467506
usemtl side
f 12/28/7 15/27/7 13/26/7 10/25/7
f 11/32/8 12/31/8 10/30/8 9/29/8
f 16/36/9 11/35/9 9/34/9 14/33/9
f 15/40/10 16/39/10 14/38/10 13/37/10
usemtl end
f 14/44/11 9/43/11 10/42/11 13/41/11
f 15/48/12 12/47/12 11/46/12 16/45/12