# Blender 4.2.2 LTS
# www.blender.org
mtllib broom.mtl
o bristle_1
v 0.692426 0.278394 0.811487
v 0.692426 0.278394 0.811487
v 1.191950 0.322014 1.676688
v 1.191950 0.322014 1.676688
v 0.375296 -0.096898 1.013503
v 0.375296 -0.096898 1.013503
v 0.874820 -0.053279 1.878704
v 0.874820 -0.053279 1.878704
vn 0.6278 -0.7064 -0.3268
vn -0.6278 0.7064 0.3268
vt 0.000000 0.000000
vt 0.531250 0.000000
vt 0.531250 1.000000
vt 0.000000 1.000000
s 0
usemtl m_709afb30-23f2-9b6b-3b63-724d3f8e9888
f 4/1/1 7/2/1 5/3/1 2/4/1
f 8/2/2 3/1/2 1/4/2 6/3/2
o bristle_2
v 0.700619 -0.096898 0.825678
v 0.700619 -0.096898 0.825678
v 1.200143 -0.053279 1.690879
v 1.200143 -0.053279 1.690879
v 0.367103 0.278394 0.999313
v 0.367103 0.278394 0.999313
v 0.866627 0.322014 1.864514
v 0.866627 0.322014 1.864514
vn -0.5970 -0.7064 0.3803
vn 0.5970 0.7064 -0.3803
vt 0.000000 0.000000
vt 0.531250 0.000000
vt 0.531250 1.000000
vt 0.000000 1.000000
s 0
usemtl m_709afb30-23f2-9b6b-3b63-724d3f8e9888
f 12/5/3 15/6/3 13/7/3 10/8/3
f 16/6/4 11/5/4 9/8/4 14/7/4
o stick
v 0.683045 0.131510 1.077140
v 0.684408 0.069069 1.079501
v 1.073298 0.165588 1.753078
v 1.074661 0.103147 1.755439
v 0.630282 0.069069 1.110751
v 0.628919 0.131510 1.108390
v 1.020535 0.103147 1.786689
v 1.019172 0.165588 1.784328
vn 0.0218 -0.9990 0.0378
vn 0.8660 -0.0000 -0.5000
vn -0.0218 0.9990 -0.0378
vn -0.8660 -0.0000 0.5000
vt 0.218750 0.000000
vt 0.281250 0.000000
vt 0.281250 0.781250
vt 0.218750 0.781250
s 0
usemtl m_709afb30-23f2-9b6b-3b63-724d3f8e9888
f 20/9/5 23/10/5 21/11/5 18/12/5
f 19/9/6 20/10/6 18/11/6 17/12/6
f 24/9/7 19/10/7 17/11/7 22/12/7
f 23/9/8 24/10/8 22/11/8 21/12/8
o stick_long
v 0.074807 0.057107 0.023640
v 0.076715 -0.005276 0.026944
v 0.683045 0.131510 1.077140
v 0.684953 0.069127 1.080444
v 0.022588 -0.005276 0.058194
v 0.020680 0.057107 0.054890
v 0.630826 0.069127 1.111694
v 0.628919 0.131510 1.108390
vn 0.0305 -0.9981 0.0529
vn 0.8660 -0.0000 -0.5000
vn -0.0305 0.9981 -0.0529
vn -0.8660 -0.0000 0.5000
vn -0.4991 -0.0610 -0.8644
vt 0.937500 0.000000
vt 1.000000 0.000000
vt 1.000000 1.000000
vt 0.937500 1.000000
vt 0.875000 0.000000
vt 0.875000 1.000000
vt 0.812500 0.000000
vt 0.812500 1.000000
vt 0.750000 0.937500
vt 0.812500 0.937500
vt 0.750000 1.000000
s 0
usemtl m_709afb30-23f2-9b6b-3b63-724d3f8e9888
f 28/13/9 31/14/9 29/15/9 26/16/9
f 27/13/10 28/17/10 26/18/10 25/16/10
f 32/19/11 27/17/11 25/18/11 30/20/11
f 31/17/12 32/13/12 30/16/12 29/18/12
f 30/21/13 25/22/13 26/20/13 29/23/13
