# Blender 4.2.2 LTS
# www.blender.org
mtllib broom.mtl
o bristle_1
v 0.672200 1.014621 0.410718
v 0.672200 1.014621 0.410718
v 0.672200 0.074928 0.752738
v 0.672200 0.074928 0.752738
v 0.296550 0.886141 0.057722
v 0.296550 0.886141 0.057722
v 0.296550 -0.053552 0.399742
v 0.296550 -0.053552 0.399742
vn 0.7071 -0.2418 -0.6645
vn -0.7071 0.2418 0.6645
vt 0.000000 0.000000
vt 0.531250 0.000000
vt 0.531250 1.000000
vt 0.000000 1.000000
s 0
usemtl m_709afb30-23f2-9b6b-3b63-724d3f8e9888
f 4/1/1 7/2/1 5/3/1 2/4/1
f 8/2/2 3/1/2 1/4/2 6/3/2
o bristle_2
v 0.672200 0.886141 0.057722
v 0.672200 0.886141 0.057722
v 0.672200 -0.053552 0.399742
v 0.672200 -0.053552 0.399742
v 0.296550 1.014621 0.410718
v 0.296550 1.014621 0.410718
v 0.296550 0.074928 0.752738
v 0.296550 0.074928 0.752738
vn -0.7071 -0.2418 -0.6645
vn 0.7071 0.2418 0.6645
vt 0.000000 0.000000
vt 0.531250 0.000000
vt 0.531250 1.000000
vt 0.000000 1.000000
s 0
usemtl m_709afb30-23f2-9b6b-3b63-724d3f8e9888
f 12/5/3 15/6/3 13/7/3 10/8/3
f 16/6/4 11/5/4 9/8/4 14/7/4
o stick
v 0.531250 0.755511 0.338402
v 0.531250 0.734135 0.279672
v 0.531250 0.021376 0.605606
v 0.531250 0.000000 0.546875
v 0.468750 0.734135 0.279672
v 0.468750 0.755511 0.338402
v 0.468750 0.000000 0.546875
v 0.468750 0.021376 0.605606
vn -0.0000 -0.3420 -0.9397
vn 1.0000 -0.0000 -0.0000
vn -0.0000 0.3420 0.9397
vn -1.0000 -0.0000 -0.0000
vt 0.218750 0.000000
vt 0.281250 0.000000
vt 0.281250 0.781250
vt 0.218750 0.781250
s 0
usemtl m_709afb30-23f2-9b6b-3b63-724d3f8e9888
f 20/9/5 23/10/5 21/11/5 18/12/5
f 19/9/6 20/10/6 18/11/6 17/12/6
f 24/9/7 19/10/7 17/11/7 22/12/7
f 23/9/8 24/10/8 22/11/8 21/12/8
o stick_long
v 0.531250 1.933801 0.055933
v 0.531250 1.919211 -0.004840
v 0.531250 0.748725 0.340445
v 0.531250 0.734135 0.279672
v 0.468750 1.919211 -0.004840
v 0.468750 1.933801 0.055933
v 0.468750 0.734135 0.279672
v 0.468750 0.748725 0.340445
vn -0.0000 -0.2334 -0.9724
vn 1.0000 -0.0000 -0.0000
vn -0.0000 0.2334 0.9724
vn -1.0000 -0.0000 -0.0000
vn -0.0000 0.9724 -0.2334
vt 0.937500 0.000000
vt 1.000000 0.000000
vt 1.000000 1.000000
vt 0.937500 1.000000
vt 0.875000 0.000000
vt 0.875000 1.000000
vt 0.812500 0.000000
vt 0.812500 1.000000
vt 0.750000 0.937500
vt 0.812500 0.937500
vt 0.750000 1.000000
s 0
usemtl m_709afb30-23f2-9b6b-3b63-724d3f8e9888
f 28/13/9 31/14/9 29/15/9 26/16/9
f 27/13/10 28/17/10 26/18/10 25/16/10
f 32/19/11 27/17/11 25/18/11 30/20/11
f 31/17/12 32/13/12 30/16/12 29/18/12
f 30/21/13 25/22/13 26/20/13 29/23/13
