# Blender 4.2.2 LTS
# www.blender.org
mtllib broom_short.mtl
o bristle_1
v 0.703552 0.871923 0.138218
v 0.703552 0.871923 0.138218
v 0.738765 0.095789 0.540711
v 0.738765 0.095789 0.540711
v 0.324011 0.708670 -0.143380
v 0.324011 0.708670 -0.143380
v 0.359225 -0.067464 0.259113
v 0.359225 -0.067464 0.259113
vn 0.6498 -0.3265 -0.6865
vn -0.6498 0.3265 0.6865
vt 0.500000 0.000000
vt 1.000000 0.000000
vt 1.000000 0.875000
vt 0.500000 0.875000
s 0
usemtl m_broom1
f 4/1/1 7/2/1 5/3/1 2/4/1
f 8/2/2 3/1/2 1/4/2 6/3/2
o bristle_2
v 0.676219 0.708670 -0.174194
v 0.676219 0.708670 -0.174194
v 0.711433 -0.067464 0.228299
v 0.711433 -0.067464 0.228299
v 0.351344 0.871923 0.169033
v 0.351344 0.871923 0.169033
v 0.386557 0.095789 0.571525
v 0.386557 0.095789 0.571525
vn -0.7591 -0.3265 -0.5632
vn 0.7591 0.3265 0.5632
vt 0.000000 0.000000
vt 0.500000 0.000000
vt 0.500000 0.875000
vt 0.000000 0.875000
s 0
usemtl m_broom1
f 12/5/3 15/6/3 13/7/3 10/8/3
f 16/6/4 11/5/4 9/8/4 14/7/4
o bristle_2.001
v 0.398571 0.866105 0.241698
v 0.398571 0.866105 0.241698
v 0.372186 0.004399 0.391332
v 0.372186 0.004399 0.391332
v 0.110850 0.804712 -0.162589
v 0.110850 0.804712 -0.162589
v 0.084466 -0.056995 -0.012955
v 0.084466 -0.056995 -0.012955
vn 0.8173 -0.1228 -0.5630
vn -0.8173 0.1228 0.5630
vt 0.500000 0.000000
vt 1.000000 0.000000
vt 1.000000 0.875000
vt 0.500000 0.875000
s 0
usemtl m_broom2
f 20/9/5 23/10/5 21/11/5 18/12/5
f 24/10/6 19/9/6 17/12/6 22/11/6
o bristle_3
v 0.459032 0.804712 -0.101195
v 0.459032 0.804712 -0.101195
v 0.432648 -0.056995 0.048439
v 0.432648 -0.056995 0.048439
v 0.050389 0.866105 0.180304
v 0.050389 0.866105 0.180304
v 0.024004 0.004399 0.329938
v 0.024004 0.004399 0.329938
vn -0.5754 -0.1228 -0.8086
vn 0.5754 0.1228 0.8086
vt 0.000000 0.000000
vt 0.500000 0.000000
vt 0.500000 0.875000
vt 0.000000 0.875000
s 0
usemtl m_broom2
f 28/13/7 31/14/7 29/15/7 26/16/7
f 32/14/8 27/13/8 25/16/8 30/15/8
o bristle_3.001
v 0.853700 0.800599 -0.145772
v 0.853700 0.800599 -0.145772
v 1.046066 -0.021633 0.083480
v 1.046066 -0.021633 0.083480
v 0.470678 0.800599 0.175622
v 0.470678 0.800599 0.175622
v 0.663044 -0.021633 0.404874
v 0.663044 -0.021633 0.404874
vn -0.6040 -0.3420 -0.7198
vn 0.6040 0.3420 0.7198
vt 0.500000 0.000000
vt 1.000000 0.000000
vt 1.000000 0.875000
vt 0.500000 0.875000
s 0
usemtl m_broom3
f 36/17/9 39/18/9 37/19/9 34/20/9
f 40/18/10 35/17/10 33/20/10 38/19/10
o bristle_4
v 0.511184 0.715093 -0.165037
v 0.511184 0.715093 -0.165037
v 0.703549 -0.107138 0.064216
v 0.703549 -0.107138 0.064216
v 0.813195 0.886104 0.194887
v 0.813195 0.886104 0.194887
v 1.005561 0.063873 0.424139
v 1.005561 0.063873 0.424139
vn -0.7660 -0.0000 0.6428
vn 0.7660 -0.0000 -0.6428
vt 0.000000 0.000000
vt 0.500000 0.000000
vt 0.500000 0.875000
vt 0.000000 0.875000
s 0
usemtl m_broom3
f 44/21/11 47/22/11 45/23/11 42/24/11
f 48/22/12 43/21/12 41/24/12 46/23/12
o stick
v 0.564151 0.777007 0.035322
v 0.559320 0.748148 -0.019905
v 0.598107 0.028592 0.423440
v 0.593276 -0.000267 0.368213
v 0.497057 0.748148 -0.014458
v 0.501889 0.777007 0.040770
v 0.531013 -0.000267 0.373660
v 0.535845 0.028592 0.428887
vn -0.0773 -0.4617 -0.8836
vn 0.9962 -0.0000 -0.0872
vn 0.0773 0.4617 0.8836
vn -0.9962 -0.0000 0.0872
vn -0.0402 0.8870 -0.4600
vt 0.218750 0.000000
vt 0.281250 0.000000
vt 0.281250 0.843750
vt 0.218750 0.843750
vt 0.000000 0.937500
vt 0.062500 0.937500
vt 0.062500 1.000000
vt 0.000000 1.000000
s 0
usemtl m_broom1
f 52/25/13 55/26/13 53/27/13 50/28/13
f 51/25/14 52/26/14 50/27/14 49/28/14
f 56/25/15 51/26/15 49/27/15 54/28/15
f 55/25/16 56/26/16 54/27/16 53/28/16
f 54/29/17 49/30/17 50/31/17 53/32/17
o stick.001
v 0.294587 0.810060 0.083346
v 0.305275 0.799207 0.022731
v 0.269145 -0.020872 0.227636
v 0.279833 -0.031725 0.167021
v 0.243725 0.799207 0.011878
v 0.233037 0.810060 0.072493
v 0.218282 -0.031725 0.156168
v 0.207594 -0.020872 0.216783
vn 0.1710 -0.1736 -0.9698
vn 0.9848 -0.0000 0.1736
vn -0.1710 0.1736 0.9698
vn -0.9848 -0.0000 -0.1736
vn 0.0302 0.9848 -0.1710
vt 0.218750 0.000000
vt 0.281250 0.000000
vt 0.281250 0.843750
vt 0.218750 0.843750
vt 0.000000 0.937500
vt 0.062500 0.937500
vt 0.062500 1.000000
vt 0.000000 1.000000
s 0
usemtl m_broom2
f 60/33/18 63/34/18 61/35/18 58/36/18
f 59/33/19 60/34/19 58/35/19 57/36/19
f 64/33/20 59/34/20 57/35/20 62/36/20
f 63/33/21 64/34/21 62/35/21 61/36/21
f 62/37/22 57/38/22 58/39/22 61/40/22
o stick.002
v 0.719945 0.782992 0.022589
v 0.682194 0.761616 -0.022402
v 0.905440 -0.009874 0.243653
v 0.867689 -0.031250 0.198663
v 0.634316 0.761616 0.017772
v 0.672067 0.782992 0.062763
v 0.819811 -0.031250 0.238837
v 0.857563 -0.009874 0.283828
vn -0.6040 -0.3420 -0.7198
vn 0.7660 -0.0000 -0.6428
vn 0.6040 0.3420 0.7198
vn -0.7660 -0.0000 0.6428
vn -0.2198 0.9397 -0.2620
vt 0.218750 0.000000
vt 0.281250 0.000000
vt 0.281250 0.843750
vt 0.218750 0.843750
vt 0.000000 0.937500
vt 0.062500 0.937500
vt 0.062500 1.000000
vt 0.000000 1.000000
s 0
usemtl m_broom3
f 68/41/23 71/42/23 69/43/23 66/44/23
f 67/41/24 68/42/24 66/43/24 65/44/24
f 72/41/25 67/42/25 65/43/25 70/44/25
f 71/41/26 72/42/26 70/43/26 69/44/26
f 70/45/27 65/46/27 66/47/27 69/48/27
