# Blender 4.2.2 LTS
# www.blender.org
mtllib broom_short.mtl
o bristle_1
v 0.911152 0.880816 0.159772
v 0.911152 0.880816 0.159772
v 0.911152 0.087797 0.529563
v 0.911152 0.087797 0.529563
v 0.557598 0.731398 -0.160657
v 0.557598 0.731398 -0.160657
v 0.557598 -0.061621 0.209134
v 0.557598 -0.061621 0.209134
vn 0.7071 -0.2988 -0.6409
vn -0.7071 0.2988 0.6409
vt 0.500000 0.000000
vt 1.000000 0.000000
vt 1.000000 0.875000
vt 0.500000 0.875000
s 0
usemtl m_broom2
f 4/1/1 7/2/1 5/3/1 2/4/1
f 8/2/2 3/1/2 1/4/2 6/3/2
o bristle_2
v 0.911152 0.731398 -0.160657
v 0.911152 0.731398 -0.160657
v 0.911152 -0.061621 0.209134
v 0.911152 -0.061621 0.209134
v 0.557598 0.880816 0.159772
v 0.557598 0.880816 0.159772
v 0.557598 0.087797 0.529563
v 0.557598 0.087797 0.529563
vn -0.7071 -0.2988 -0.6409
vn 0.7071 0.2988 0.6409
vt 0.000000 0.000000
vt 0.500000 0.000000
vt 0.500000 0.875000
vt 0.000000 0.875000
s 0
usemtl m_broom2
f 12/5/3 15/6/3 13/7/3 10/8/3
f 16/6/4 11/5/4 9/8/4 14/7/4
o bristle_2.001
v 0.609558 0.865777 0.230512
v 0.609558 0.865777 0.230512
v 0.541458 0.031275 0.484664
v 0.541458 0.031275 0.484664
v 0.355323 0.759462 -0.186695
v 0.355323 0.759462 -0.186695
v 0.287223 -0.075040 0.067457
v 0.287223 -0.075040 0.067457
vn 0.8576 -0.2126 -0.4684
vn -0.8576 0.2126 0.4684
vt 0.500000 0.000000
vt 1.000000 0.000000
vt 1.000000 0.875000
vt 0.500000 0.875000
s 0
usemtl m_broom1
f 20/9/5 23/10/5 21/11/5 18/12/5
f 24/10/6 19/9/6 17/12/6 22/11/6
o bristle_2.002
v 0.766148 0.844297 0.315967
v 0.766148 0.844297 0.315967
v 0.766148 0.022066 0.615235
v 0.766148 0.022066 0.615235
v 0.333135 0.758792 0.081044
v 0.333135 0.758792 0.081044
v 0.333135 -0.063439 0.380312
v 0.333135 -0.063439 0.380312
vn 0.5000 -0.2962 -0.8138
vn -0.5000 0.2962 0.8138
vt 0.500000 0.000000
vt 1.000000 0.000000
vt 1.000000 0.875000
vt 0.500000 0.875000
s 0
usemtl m_broom3
f 28/13/7 31/14/7 29/15/7 26/16/7
f 32/14/8 27/13/8 25/16/8 30/15/8
o bristle_3
v 0.696829 0.759462 -0.095188
v 0.696829 0.759462 -0.095188
v 0.628730 -0.075040 0.158964
v 0.628730 -0.075040 0.158964
v 0.268052 0.865777 0.139006
v 0.268052 0.865777 0.139006
v 0.199952 0.031275 0.393158
v 0.199952 0.031275 0.393158
vn -0.5085 -0.2126 -0.8344
vn 0.5085 0.2126 0.8344
vt 0.000000 0.000000
vt 0.500000 0.000000
vt 0.500000 0.875000
vt 0.000000 0.875000
s 0
usemtl m_broom1
f 36/17/9 39/18/9 37/19/9 34/20/9
f 40/18/10 35/17/10 33/20/10 38/19/10
o bristle_3.001
v 0.692125 0.731572 0.006257
v 0.692125 0.731572 0.006257
v 0.692125 -0.090659 0.305525
v 0.692125 -0.090659 0.305525
v 0.405337 0.871655 0.391133
v 0.405337 0.871655 0.391133
v 0.405337 0.049424 0.690401
v 0.405337 0.049424 0.690401
vn -0.8192 -0.1962 -0.5390
vn 0.8192 0.1962 0.5390
vt 0.000000 0.000000
vt 0.500000 0.000000
vt 0.500000 0.875000
vt 0.000000 0.875000
s 0
usemtl m_broom3
f 44/21/11 47/22/11 45/23/11 42/24/11
f 48/22/12 43/21/12 41/24/12 46/23/12
o stick
v 0.781250 0.790992 0.041086
v 0.781250 0.764578 -0.015558
v 0.781250 0.026295 0.397671
v 0.781250 -0.000119 0.341026
v 0.718750 0.764578 -0.015558
v 0.718750 0.790992 0.041086
v 0.718750 -0.000119 0.341026
v 0.718750 0.026295 0.397671
vn -0.0000 -0.4226 -0.9063
vn 1.0000 -0.0000 -0.0000
vn -0.0000 0.4226 0.9063
vn -1.0000 -0.0000 -0.0000
vn -0.0000 0.9063 -0.4226
vt 0.218750 0.000000
vt 0.281250 0.000000
vt 0.281250 0.843750
vt 0.218750 0.843750
vt 0.000000 0.937500
vt 0.062500 0.937500
vt 0.062500 1.000000
vt 0.000000 1.000000
s 0
usemtl m_broom2
f 52/25/13 55/26/13 53/27/13 50/28/13
f 51/25/14 52/26/14 50/27/14 49/28/14
f 56/25/15 51/26/15 49/27/15 54/28/15
f 55/25/16 56/26/16 54/27/16 53/28/16
f 54/29/17 49/30/17 50/31/17 53/32/17
o stick.001
v 0.517573 0.792213 0.071906
v 0.533000 0.773419 0.014329
v 0.451905 -0.012486 0.316981
v 0.467332 -0.031280 0.259405
v 0.472630 0.773419 -0.001847
v 0.457202 0.792213 0.055730
v 0.406962 -0.031280 0.243229
v 0.391535 -0.012486 0.300805
vn 0.2468 -0.3007 -0.9212
vn 0.9659 -0.0000 0.2588
vn -0.2468 0.3007 0.9212
vn -0.9659 -0.0000 -0.2588
vn 0.0778 0.9537 -0.2905
vt 0.218750 0.000000
vt 0.281250 0.000000
vt 0.281250 0.843750
vt 0.218750 0.843750
vt 0.000000 0.937500
vt 0.062500 0.937500
vt 0.062500 1.000000
vt 0.000000 1.000000
s 0
usemtl m_broom1
f 60/33/18 63/34/18 61/35/18 58/36/18
f 59/33/19 60/34/19 58/35/19 57/36/19
f 64/33/20 59/34/20 57/35/20 62/36/20
f 63/33/21 64/34/21 62/35/21 61/36/21
f 62/37/22 57/38/22 58/39/22 61/40/22
o stick.002
v 0.593750 0.782992 0.238901
v 0.593750 0.761616 0.180170
v 0.593750 -0.009874 0.527481
v 0.593750 -0.031250 0.468750
v 0.531250 0.761616 0.180170
v 0.531250 0.782992 0.238901
v 0.531250 -0.031250 0.468750
v 0.531250 -0.009874 0.527481
vn -0.0000 -0.3420 -0.9397
vn 1.0000 -0.0000 -0.0000
vn -0.0000 0.3420 0.9397
vn -1.0000 -0.0000 -0.0000
vn -0.0000 0.9397 -0.3420
vt 0.218750 0.000000
vt 0.281250 0.000000
vt 0.281250 0.843750
vt 0.218750 0.843750
vt 0.000000 0.937500
vt 0.062500 0.937500
vt 0.062500 1.000000
vt 0.000000 1.000000
s 0
usemtl m_broom3
f 68/41/23 71/42/23 69/43/23 66/44/23
f 67/41/24 68/42/24 66/43/24 65/44/24
f 72/41/25 67/42/25 65/43/25 70/44/25
f 71/41/26 72/42/26 70/43/26 69/44/26
f 70/45/27 65/46/27 66/47/27 69/48/27
