# Made in Blockbench 5.1.4
mtllib generic_arch.mtl

o inner
v 0.64302375 2.02130625 1
v 0.962461875 1.98380625 1
v 0.962461875 1.98380625 0
v 0.64302375 2.02130625 0
v 1.146489375 1.50880625 1
v 1.146489375 1.50880625 0
v 1.809375 1.50880625 1
v 1.809375 1.50880625 0
v 1.809375 0.95108625 1
v 1.809375 0.95108625 0
v 0.037538125 1.98380625 0
v 0.037538125 1.98380625 1
v 0.35697625 2.02130625 1
v 0.35697625 2.02130625 0
v -0.146489375 1.50880625 0
v -0.146489375 1.50880625 1
v -0.809375 1.50880625 0
v -0.809375 1.50880625 1
v -0.809375 0.95108625 0
v -0.809375 0.95108625 1
v 0.7423575 1.08589625 -0.009375
v 0.58351125 1.135906875 -0.009375
v 0.877480625 0.99076875 -0.009375
v 0.97565375 0.859838125 -0.009375
v 1.02726625 0.70592 -0.009375
v 0.2576425 1.08589625 -0.009375
v 0.41648875 1.135906875 -0.009375
v 0.122519375 0.99076875 -0.009375
v 0.02434625 0.859838125 -0.009375
v -0.02726625 0.70592 -0.009375
v 0.7423575 1.08589625 1.009375
v 0.58351125 1.135906875 1.009375
v 0.877480625 0.99076875 1.009375
v 0.97565375 0.859838125 1.009375
v 1.02726625 0.70592 1.009375
v 0.2576425 1.08589625 1.009375
v 0.41648875 1.135906875 1.009375
v 0.122519375 0.99076875 1.009375
v 0.02434625 0.859838125 1.009375
v -0.02726625 0.70592 1.009375
vt 0.458333125 0.65625
vt 0.375 0.65625
vt 0.375 0.34375
vt 0.458333125 0.34375
vt 0.375 0.65625
vt 0.322916875 0.65625
vt 0.322916875 0.34375
vt 0.375 0.34375
vt 0.322916875 0.65625
vt 0.135416875 0.65625
vt 0.135416875 0.34375
vt 0.322916875 0.34375
vt 0 0.34375
vt 0.166666875 0.34375
vt 0.166666875 0.65625
vt 0 0.65625
vt 0.635416875 0.34375
vt 0.635416875 0.65625
vt 0.541666875 0.65625
vt 0.541666875 0.34375
vt 0.6875 0.34375
vt 0.6875 0.65625
vt 0.635416875 0.65625
vt 0.635416875 0.34375
vt 0.875 0.34375
vt 0.875 0.65625
vt 0.6875 0.65625
vt 0.6875 0.34375
vt 0.333333125 0.34375
vt 0.333333125 0.65625
vt 0.166666875 0.65625
vt 0.166666875 0.34375
vt 0.47851375 0.6583525
vt 0.37014125 0.64638375
vt 0.444948125 0.49700687499999996
vt 0.498711875 0.5159518750000001
vt 0.37014125 0.64638375
vt 0.307816875 0.6463825000000001
vt 0.39934 0.4609675
vt 0.444948125 0.49700687499999996
vt 0.307816875 0.6463825000000001
vt 0.083988125 0.64637875
vt 0.366345 0.41144562500000004
vt 0.39934 0.4609675
vt 0.083988125 0.64637875
vt 0.083333125 0.447916875
vt 0.34914375 0.35335125
vt 0.366345 0.41144562500000004
vt 0.609185625 0.49675437499999997
vt 0.684615 0.646389375
vt 0.57579625 0.658366875
vt 0.555329375 0.51587625
vt 0.65493375 0.46047812499999996
vt 0.747430625 0.646390625
vt 0.684615 0.646389375
vt 0.609185625 0.49675437499999997
vt 0.688044375 0.410663125
vt 0.96875 0.645833125
vt 0.747430625 0.646390625
vt 0.65493375 0.46047812499999996
vt 0.70527125 0.352269375
vt 0.96875 0.447916875
vt 0.96875 0.645833125
vt 0.688044375 0.410663125
vt 0.455364375 0.14284062500000005
vt 0.3805575 0.29221687500000004
vt 0.488930625 0.30418625
vt 0.50912875 0.16178562500000004
vt 0.39934 0.4609675
vt 0.307816875 0.6463825000000001
vt 0.37014125 0.64638375
vt 0.444948125 0.49700687499999996
vt 0.366345 0.41144562500000004
vt 0.083988125 0.64637875
vt 0.307816875 0.6463825000000001
vt 0.39934 0.4609675
vt 0.34914375 0.35335125
vt 0.083333125 0.447916875
vt 0.083988125 0.64637875
vt 0.366345 0.41144562500000004
vt 0.586213125 0.3042
vt 0.695031875 0.29222250000000005
vt 0.6196025 0.14258749999999998
vt 0.56574625 0.16170937500000004
vt 0.684615 0.646389375
vt 0.747430625 0.646390625
vt 0.65493375 0.46047812499999996
vt 0.609185625 0.49675437499999997
vt 0.747430625 0.646390625
vt 0.96875 0.645833125
vt 0.688044375 0.410663125
vt 0.65493375 0.46047812499999996
vt 0.96875 0.645833125
vt 0.96875 0.447916875
vt 0.70527125 0.352269375
vt 0.688044375 0.410663125
vn 0.11659297648316022 0.9931797812253315 0
vn 0.9324646117061715 0.3612613291173841 0
vn 0 1 0
vn 1 0 0
vn -0.11659297648316022 0.9931797812253315 0
vn -0.9324646117061715 0.3612613291173841 0
vn 0 1 0
vn -1 0 0
vn 0.001191349568585225 0.01014833259755799 -0.9999477946531483
vn 0.019954548364259 0.007730917156007733 -0.9997709982388495
vn 0 0.014444502851063606 -0.9998956727266028
vn 0.011985963018632076 0 -0.9999281657651795
vn -0.0011913495685852275 0.010148332597557989 -0.9999477946531483
vn -0.019954548364259 0.007730917156007731 -0.9997709982388495
vn 0 0.014444502851063608 -0.9998956727266028
vn -0.011985963018632077 0 -0.9999281657651795
vn 0.0011913495685852158 0.010148332597557895 0.9999477946531483
vn 0.019954548364258813 0.007730917156007658 0.9997709982388495
vn 0 0.014444502851063471 0.9998956727266028
vn 0.011985963018631966 0 0.9999281657651795
vn -0.001191349568585214 0.010148332597557895 0.9999477946531483
vn -0.019954548364258817 0.00773091715600766 0.9997709982388495
vn 0 0.01444450285106347 0.9998956727266028
vn -0.011985963018631963 0 0.9999281657651795
usemtl m_keystones
f 1/1/1 2/2/1 3/3/1 4/4/1
f 2/5/2 5/6/2 6/7/2 3/8/2
f 5/9/3 7/10/3 8/11/3 6/12/3
f 7/13/4 9/14/4 10/15/4 8/16/4
f 11/17/5 12/18/5 13/19/5 14/20/5
f 15/21/6 16/22/6 12/23/6 11/24/6
f 17/25/7 18/26/7 16/27/7 15/28/7
f 19/29/8 20/30/8 18/31/8 17/32/8
f 4/33/9 3/34/9 21/35/9 22/36/9
f 3/37/10 6/38/10 23/39/10 21/40/10
f 6/41/11 8/42/11 24/43/11 23/44/11
f 8/45/12 10/46/12 25/47/12 24/48/12
f 26/49/13 11/50/13 14/51/13 27/52/13
f 28/53/14 15/54/14 11/55/14 26/56/14
f 29/57/15 17/58/15 15/59/15 28/60/15
f 30/61/16 19/62/16 17/63/16 29/64/16
f 31/65/17 2/66/17 1/67/17 32/68/17
f 33/69/18 5/70/18 2/71/18 31/72/18
f 34/73/19 7/74/19 5/75/19 33/76/19
f 35/77/20 9/78/20 7/79/20 34/80/20
f 13/81/21 12/82/21 36/83/21 37/84/21
f 12/85/22 16/86/22 38/87/22 36/88/22
f 16/89/23 18/90/23 39/91/23 38/92/23
f 18/93/24 20/94/24 40/95/24 39/96/24
o arch
v 0.77436125 1.03561 1.01875
v 1.469065625 2 1
v 0.828536875 2 1
v 0.596343125 1.109348125 1.01875
v 0.22563875 1.03561 1.01875
v -0.4528881250000001 2 1
v 0.17201500000000003 2 1
v 0.403656875 1.109348125 1.01875
v 0.77436125 1.03561 -0.018750000000000044
v 1.469065625 2 0
v 0.828536875 2 0
v 0.596343125 1.109348125 -0.018750000000000044
v 0.22563875 1.03561 -0.018750000000000044
v -0.453125 2 0
v 0.17177874999999998 2 0
v 0.403656875 1.109348125 -0.018750000000000044
v 0.986198125 0.5 1.01875
v 1.09438125 1.53125 0
v 1.8118812499999999 1.53125 6.249999999763389e-7
v 0.91061 0.89936125 -0.018750000000000044
v 1.8118812499999999 1.5 0
v 1.8118812499999999 1 0
v 0.984348125 0.721343125 -0.018750000000000044
v 1.8118812499999999 0.96875 0
v 1.8118812499999999 0.5 0
v 0.986198125 0.5 -0.018750000000000044
v 0.08938999999999997 0.89936125 -0.018750000000000044
v -0.8121875000000001 1.53125 6.249999999763389e-7
v -0.09375 1.53125 0
v 0.015651874999999982 0.721343125 -0.018750000000000044
v -0.8121875000000001 1 0
v -0.8121875000000001 1.5 0
v 0.013801874999999963 0.5 -0.018750000000000044
v -0.8121875000000001 0.5 0
v -0.8121875000000001 0.96875 0
v 0.10063124999999995 2.53125 0
v 0.90063125 2.53125 0
v 0.91061 0.89936125 1.01875
v 1.8118812499999999 1.53125 0.999999375
v 1.09438125 1.53125 1
v 0.984348125 0.721343125 1.01875
v 1.8118812499999999 1 1
v 1.8118812499999999 1.5 1
v 1.8118812499999999 0.5 1
v 1.8118812499999999 0.96875 1
v -0.09343437499999996 1.53125 1
v -0.812340625 1.53125 1
v 0.08938999999999997 0.89936125 1.01875
v -0.812340625 1.5 1
v -0.812340625 1 1
v 0.015651874999999982 0.721343125 1.01875
v -0.812340625 0.96875 1
v -0.812340625 0.5 1
v 0.013801874999999963 0.5 1.01875
v 0.10063124999999995 2.53125 1
v 0.90063125 2.53125 1
vt 0.425840625 0.025000000000000022
vt 0.614583125 0.34239937499999995
vt 0.442708125 0.34375
vt 0.371875 0.049361875
vt 0.442708125 0.34375
vt 0.614583125 0.34239937499999995
vt 0.425840625 0.025000000000000022
vt 0.371875 0.049361875
vt 0.442708125 0.34375
vt 0.614583125 0.34239937499999995
vt 0.425840625 0.025000000000000022
vt 0.371875 0.049361875
vt 0.425840625 0.025000000000000022
vt 0.614583125 0.34239937499999995
vt 0.442708125 0.34375
vt 0.371875 0.049361875
vt 0.239583125 0.604166875
vt 0 0.6043425
vt 0.29842375 0.40431937500000004
vt 0.34375 0.44964625
vt 0 0.34276749999999967
vt 0 0.18682062499999963
vt 0.275183125 0.09374999999999967
vt 0.29988 0.15311374999999972
vt 0 0.500519375
vt 0 0.34375
vt 0.270833125 0.34375
vt 0.270833125 0.416666875
vt 0.3891075 0.40431937500000004
vt 0.687735 0.6043425
vt 0.447916875 0.604166875
vt 0.34375 0.44964625
vt 0.32886375 0.04166666666666652
vt 0.604046875 0.13473729166666648
vt 0.604046875 0.2906841666666665
vt 0.304166875 0.10103041666666657
vt 0.40625 0.34375
vt 0.678525 0.34375
vt 0.678525 0.500519375
vt 0.40625 0.416666875
vt 0.575598125 0.3436
vt 0.630293125 0.3436
vt 0.717708125 0.696875
vt 0.490625 0.696875
vt 0.29842375 0.40431937500000004
vt 0 0.6043425
vt 0.239583125 0.604166875
vt 0.34375 0.44964625
vt 0.275183125 0.09374999999999967
vt 0 0.18682062499999963
vt 0 0.34276749999999967
vt 0.29988 0.15311374999999972
vt 0.270833125 0.34375
vt 0 0.34375
vt 0 0.500519375
vt 0.270833125 0.416666875
vt 0.447916875 0.604166875
vt 0.687735 0.6043425
vt 0.3891075 0.40431937500000004
vt 0.34375 0.44964625
vt 0.604046875 0.2906841666666665
vt 0.604046875 0.13473729166666648
vt 0.32886375 0.04166666666666652
vt 0.304166875 0.10103041666666657
vt 0.678525 0.500519375
vt 0.678525 0.34375
vt 0.40625 0.34375
vt 0.40625 0.416666875
vt 0.490625 0.696875
vt 0.575598125 0.3436
vt 0.630293125 0.3436
vt 0.717708125 0.696875
vt 0.604166875 0
vt 0.604166875 0.322916875
vt 0.71875 0.322916875
vt 0.71875 0
vt 0.333333125 0.989583125
vt 0.333333125 0.666666875
vt 0.270833125 0.666666875
vt 0.270833125 0.989583125
vt 0.6875 0.666666875
vt 0.6875 0.34375
vt 0.927083125 0.34375
vt 0.927083125 0.666666875
vt 0.53125 0.989583125
vt 0.53125 0.666666875
vt 0.46875 0.666666875
vt 0.46875 0.989583125
vt 0.604166875 0.322916875
vt 0.604166875 0
vt 0.760416875 0
vt 0.760416875 0.322916875
vt 0.895833125 0.322916875
vt 0.895833125 0
vt 0.833333125 0
vt 0.833333125 0.322916875
vt 0.604166875 0.322916875
vt 0.604166875 0
vt 0.885416875 0
vt 0.885416875 0.322916875
vt 1 0.666666875
vt 1 0.34375
vt 0.927083125 0.34375
vt 0.927083125 0.666666875
vt 0.5625 0.677083125
vt 0.5625 0.354166875
vt 0.833333125 0.354166875
vt 0.833333125 0.677083125
vt 0 0.989583125
vt 0 0.666666875
vt 0.15625 0.666666875
vt 0.15625 0.989583125
vt 0.40625 0.989583125
vt 0.40625 0.666666875
vt 0.34375 0.666666875
vt 0.34375 0.989583125
vt 0.270833125 0.989583125
vt 0.270833125 0.666666875
vt 0.208333125 0.666666875
vt 0.208333125 0.989583125
vt 0.46875 0.989583125
vt 0.46875 0.666666875
vt 0.40625 0.666666875
vt 0.40625 0.989583125
vt 0.958333125 0.322916875
vt 0.958333125 0
vt 0.895833125 0
vt 0.895833125 0.322916875
vt 0.604166875 0.322916875
vt 0.604166875 0
vt 0.885416875 0
vt 0.885416875 0.322916875
vt 1 0.322916875
vt 1 0
vt 0.666666875 0
vt 0.666666875 0.322916875
vt 0.6875 0.34375
vt 0.6875 0.666666875
vt 1 0.666666875
vt 1 0.34375
vt 0.864583125 0.34375
vt 0.864583125 0.666666875
vt 0.6875 0.666666875
vt 0.6875 0.34375
vt 0.5 0.0030925000000000535
vt 0.5 0.33024062499999995
vt 0.1062825 0.33024062499999995
vt 0.1062825 0.0030925000000000535
vt 0.71875 0
vt 0.71875 0.322916875
vt 0.833333125 0.322916875
vt 0.833333125 0
vt 0.739583125 0
vt 0.739583125 0.322916875
vt 0.604166875 0.322916875
vt 0.604166875 0
vt 0.52181 0.666666875
vt 0.52181 0.364583125
vt 0.848958125 0.364583125
vt 0.848958125 0.666666875
vt 0.96875 0.8125
vt 0.96875 0.541666875
vt 0.760416875 0.541666875
vt 0.760416875 0.8125
vt 0.927083125 0.666666875
vt 0.6875 0.666666875
vt 0.6875 0.34375
vt 0.927083125 0.34375
vt 0.604166875 0.989583125
vt 0.604166875 0.666666875
vt 0.53125 0.666666875
vt 0.53125 0.989583125
vt 0.885416875 0.677083125
vt 0.885416875 0.354166875
vt 0.614583125 0.354166875
vt 0.614583125 0.677083125
vt 0.677083125 0.322916875
vt 0.677083125 0
vt 0.833333125 0
vt 0.833333125 0.322916875
vt 0.927083125 0.666666875
vt 0.927083125 0.34375
vt 0.6875 0.34375
vt 0.6875 0.666666875
vt 0 0.989583125
vt 0 0.666666875
vt 0.15625 0.666666875
vt 0.15625 0.989583125
vt 0.6875 0.34375
vt 0.6875 0.666666875
vt 1 0.666666875
vt 1 0.34375
vt 0.5 0.0030925000000000535
vt 0.5 0.33024062499999995
vt 0.1062825 0.33024062499999995
vt 0.1062825 0.0030925000000000535
vt 0.52181 0.666666875
vt 0.52181 0.364583125
vt 0.848958125 0.364583125
vt 0.848958125 0.666666875
vt 0.739583125 0
vt 0.739583125 0.322916875
vt 0.604166875 0.322916875
vt 0.604166875 0
vt 0.864583125 0.34375
vt 0.864583125 0.666666875
vt 0.6875 0.666666875
vt 0.6875 0.34375
vt 1 0.322916875
vt 1 0
vt 0.666666875 0
vt 0.666666875 0.322916875
vt 0.927083125 0.666666875
vt 0.6875 0.666666875
vt 0.6875 0.34375
vt 0.927083125 0.34375
vn 0 0.019438668184787476 0.9998110512387838
vn 0 0.019438668184787476 0.9998110512387838
vn 0 0.01943866818478752 -0.9998110512387838
vn 0 0.019438668184787525 -0.9998110512387838
vn 8.706969130213877e-7 0.0296596371504238 -0.9995600561863941
vn 0.022651889607821517 0 -0.9997434130301611
vn 0.022702616599711605 0 -0.9997422623854243
vn -8.695607273689341e-7 0.029659638348485846 -0.9995600561508453
vn -0.022643514089729033 0 -0.9997436027650631
vn -0.022694203543726747 0 -0.9997424533976318
vn 0 0.013185417619832641 -0.9999130686025615
vn 8.706969130575296e-7 0.029659637150423718 0.999560056186394
vn 0.022651889607821465 0 0.9997434130301611
vn 0.02270261659971155 0 0.9997422623854243
vn 0 0.029659890151140005 0.999560048679529
vn -0.02263932865228885 0 0.9997436975536148
vn -0.022689999352959553 0 0.9997425488241274
vn 0 0.013185417619832612 0.9999130686025615
vn 0 1 0
vn -0.38268610474155296 -0.9238784255721839 0
vn 0 1 0
vn -0.7071067811865474 -0.7071067811865477 0
vn 1 0 0
vn -0.9238784255721839 -0.3826861047415531 0
vn 0.31912514341684134 -0.9477125845102938 0
vn -0.9999650732131699 -0.008357772058401922 0
vn 0 -1 0
vn 1 0 0
vn 0 -1 0
vn 0.38268610474155296 -0.9238784255721839 0
vn 0.7071067811865472 -0.7071067811865478 0
vn 0.9238784255721839 -0.38268610474155296 0
vn -0.3189661086507578 -0.9477661217474451 0
vn 0.5543698541797081 0.8322704233425674 0.0000848878839212546
vn -0.573875109474383 -0.8189428299495423 0
vn 0.840837588235345 0.5412874280629968 -0.0002653893637868157
vn -0.817853489808205 -0.5754265106931903 0
vn 0 1 0
vn 0.9678044951210196 0.25170301338195333 -0.00022864381197238822
vn -0.9780368065484618 -0.20843225526891707 0
vn 0 1 0
vn 0.2862948495838547 0.9581415642690329 0.00004383889884252094
vn 0.9999650732131699 -0.008357772058402007 0
vn 0 -1 0
vn -0.9999999882763674 0 -0.00015312499820479495
vn 0 1 0
vn -0.9999999882763674 0 -0.00015312499820479495
vn 0.5740712318046204 -0.8188053619843523 0
vn 0.8113972471405696 -0.5844950875180267 0
vn 0.9778594600123912 -0.2092626972593893 0
vn -0.9676571228159568 0.25226908780812657 0
vn -0.8401018140615114 0.542428743717143 0
vn -0.5545667552091066 0.83213923956081 0
vn -0.2864416515065733 0.9580976882772376 0
usemtl m_keystones
f 41/97/25 42/98/25 43/99/25 44/100/25
f 47/101/26 46/102/26 45/103/26 48/104/26
f 51/105/27 50/106/27 49/107/27 52/108/27
f 53/109/28 54/110/28 55/111/28 56/112/28
f 58/113/29 59/114/29 60/115/29 49/116/29
f 61/117/30 62/118/30 63/119/30 60/120/30
f 64/121/31 65/122/31 66/123/31 63/124/31
f 67/125/32 68/126/32 69/127/32 53/128/32
f 70/129/33 71/130/33 72/131/33 67/132/33
f 73/133/34 74/134/34 75/135/34 70/136/34
f 52/137/35 56/138/35 76/139/35 77/140/35
f 78/141/36 79/142/36 80/143/36 41/144/36
f 81/145/37 82/146/37 83/147/37 78/148/37
f 57/149/38 84/150/38 85/151/38 81/152/38
f 86/153/39 87/154/39 88/155/39 45/156/39
f 89/157/40 90/158/40 91/159/40 88/160/40
f 92/161/41 93/162/41 94/163/41 91/164/41
f 95/165/42 48/166/42 44/167/42 96/168/42
f 51/169/43 43/170/43 42/171/43 50/172/43
f 49/173/44 41/174/44 44/175/44 52/176/44
f 58/177/45 80/178/45 79/179/45 59/180/45
f 60/181/46 78/182/46 41/183/46 49/184/46
f 61/185/47 83/186/47 82/187/47 62/188/47
f 63/189/48 81/190/48 78/191/48 60/192/48
f 62/193/49 82/194/49 81/195/49 63/196/49
f 66/197/50 57/198/50 81/199/50 63/200/50
f 65/201/51 84/202/51 57/203/51 66/204/51
f 64/205/52 85/206/52 84/207/52 65/208/52
f 52/209/53 44/210/53 48/211/53 56/212/53
f 56/213/54 48/214/54 45/215/54 53/216/54
f 53/217/55 45/218/55 88/219/55 67/220/55
f 67/221/56 88/222/56 91/223/56 70/224/56
f 70/225/57 91/226/57 90/227/57 71/228/57
f 72/229/58 89/230/58 88/231/58 67/232/58
f 67/233/59 88/234/59 87/235/59 68/236/59
f 69/237/60 86/238/60 45/239/60 53/240/60
f 53/241/61 45/242/61 46/243/61 54/244/61
f 54/245/62 46/246/62 47/247/62 55/248/62
f 55/249/63 47/250/63 48/251/63 56/252/63
f 56/253/64 48/254/64 95/255/64 76/256/64
f 76/257/65 95/258/65 96/259/65 77/260/65
f 75/261/66 92/262/66 91/263/66 70/264/66
f 70/265/67 91/266/67 94/267/67 73/268/67
f 73/269/68 94/270/68 93/271/68 74/272/68
f 71/273/69 90/274/69 89/275/69 72/276/69
f 68/277/70 87/278/70 86/279/70 69/280/70
f 74/281/71 93/282/71 92/283/71 75/284/71
f 59/285/72 79/286/72 78/287/72 60/288/72
f 50/289/73 42/290/73 41/291/73 49/292/73
f 77/293/74 96/294/74 44/295/74 52/296/74
f 52/297/75 44/298/75 43/299/75 51/300/75
f 49/301/76 41/302/76 80/303/76 58/304/76
f 60/305/77 78/306/77 83/307/77 61/308/77
f 81/309/78 85/310/78 64/311/78 63/312/78