mtllib generic_arch.mtl

o arch
v 0.9913 -0.513585 0.04365312499999996
v 1.548673125 -0.513585 0.04365312499999996
v 1.538271875 -0.15275375 0.04365312499999996
v 0.9913 -0.212335 0.04365312499999996
v 0.9913 -0.513585 -0.5512877303622284
v 0.9913 -0.212335 -0.5512877303622284
v 1.538271875 -0.15275375 -0.5512877303622284
v 1.548673125 -0.513585 -0.5512877303622284
v 1.536493125 -0.133333125 0.04365312499999996
v 1.45206875 0.240835 0.04365312499999996
v 0.92866625 0.082331875 0.04365312499999996
v 0.92866625 0.082331875 -0.5512877303622284
v 1.45206875 0.240835 -0.5512877303622284
v 1.536493125 -0.133331875 -0.5512877303622284
v 1.28454375 0.629208125 0.04365312499999996
v 0.806136875 0.357538125 0.04365312499999996
v 1.444135 0.26192125 0.04365312499999996
v 1.444135 0.26192125 -0.5512877303622284
v 0.806136875 0.357538125 -0.5512877303622284
v 1.28454375 0.629208125 -0.5512877303622284
v 1.039458125 0.96879625 0.04365312499999996
v 0.629066875 0.60125375 0.04365312499999996
v 1.276113125 0.643508125 0.04365312499999996
v 0.629066875 0.60125375 -0.5512877303622284
v 1.039458125 0.96879625 -0.5512877303622284
v 1.276113125 0.643508125 -0.5512877303622284
v 0.40519375 0.80283 -0.5512877303622284
v 0.741815 1.24430375 -0.5512877303622284
v 1.028506875 0.98527125 -0.5512877303622284
v 0.741815 1.24430375 0.04365312499999996
v 0.40519375 0.80283 0.04365312499999996
v 1.028506875 0.98527 0.04365312499999996
v 0.37805625 1.45207625 0.04365312499999996
v 0.14430375 0.95345375 0.04365312499999996
v 0.71869 1.26024 0.04365312499999996
v 0.14430375 0.953455 -0.5515450408591676
v 0.37805625 1.45207625 -0.5512877303622284
v 0.71869 1.26024 -0.5512877303622284
v -0.001113125 0.99939875 -0.5518062499999999
v 0.000828125 1.587836875 -0.5518062499999999
v 0.35243625 1.46180125 -0.5518062499999999
v 0.000828125 1.587836875 0.04365312499999996
v -0.001113125 0.99939875 0.04365312499999996
v 0.35243625 1.46180125 0.04365312499999996
vt 0 1
vt 0 0.5
vt 0.3125 0.5
vt 0.25 1
vt 0 0
vt 0.25 0
vt 0.3125 0.5
vt 0 0.5
vt 0.515625 0.5
vt 0.5 0
vt 0.84375 0
vt 0.78125 0.5
vt 0.514323125 0
vt 0.78125 0
vt 0.84375 0.5
vt 0.5 0.5
vt 0.34375 0
vt 0.28125 0.5
vt 0.015625 0.5
vt 0 0.0032831250000000534
vt 0 0.49671687499999995
vt 0.015625 0
vt 0.28125 0
vt 0.34375 0.5
vt 0.875 0.5
vt 0.8125 0
vt 0.546875 0
vt 0.53125 0.5
vt 0.514323125 0.5
vt 0.78125 0.5
vt 0.84375 1
vt 0.5 1
vt 0.015625 0.5
vt 0.28125 0.5
vt 0.34375 1
vt 0 1
vt 0.34375 1
vt 0.28125 0.5
vt 0.015625 0.5
vt 0 1
vt 0.84375 1
vt 0.78125 0.5
vt 0.515625 0.5
vt 0.5 1
vt 0.515625 0
vt 0.5 0.5
vt 0.84375 0.5
vt 0.78125 0
vt 0.5 0
vt 0.34236375 0
vt 0.1875 0.5
vt 0.5 0.5
vt 0.3125 0.5
vt 0.15625 0
vt 0 0
vt 0 0.5
vt 0.5 1
vt 0.5 0.5
vt 0.1875 0.5
vt 0.1875 1
vt 0 1
vt 0.5 1
vt 0.5 0.5
vt 0 0.5
vt 0.5 0.5
vt 0.5 1
vt 0.15625 1
vt 0.15625 0.5
vt 0.5 0.5
vt 0 0.5
vt 0 1
vt 0.5 1
vt 1 1
vt 0.5 1
vt 0.5 0.5
vt 1 0.5
vt 1 0.5
vt 1 1
vt 0.6875 1
vt 0.6875 0.5
vt 1 0.5
vt 0.5 0.5
vt 0.5 1
vt 1 1
vt 0.96875 1
vt 0.96875 0.5
vt 0.625 0.5
vt 0.625 1
vt 0 0.5
vt 0.5 0.5
vt 0.5 1
vt 0 1
vt 0.5 1
vt 0 1
vt 0 0.5
vt 0.5 0.5
vt 0.5 1
vt 0.5 0.5
vt 0.15625 0.5
vt 0.15625 1
vt 0.46875 0.5
vt 0.46875 1
vt 0.15625 1
vt 0.15625 0.5
vt 0.5 1
vt 0.5 0.5
vt 0.84375 0.5
vt 0.84375 1
vt 0.5 0.5
vt 0.5 1
vt 0.8125 1
vt 0.8125 0.5
vt 1 1
vt 0.5 1
vt 0.5 0.5
vt 1 0.5
vt 0.5 0.5
vt 1 0.5
vt 1 1
vt 0.5 1
vt 0.5 0.5
vt 0.5 1
vt 0.1875 1
vt 0.1875 0.5
vt 0.5 1
vt 0.5 0.5
vt 0.125 0.5
vt 0.125 1
vt 0.5 1
vt 0 1
vt 0 0.5
vt 0.5 0.5
vt 0.5 0.5
vt 0 0.5
vt 0 1
vt 0.5 1
vt 0.5 1
vt 0.5 0.5
vt 0.8125 0.5
vt 0.8125 1
vt 1 1
vt 1 0.5
vt 0.625 0.5
vt 0.625 1
vt 0.5 0.5
vt 1 0.5
vt 1 1
vt 0.5 1
vt 1 1
vt 0.5 1
vt 0.5 0.5
vt 1 0.5
vt 0.5 1
vt 0.5 0.5
vt 0.34375 0.5
vt 0.34375 1
vt 0.5 0.5
vt 0.5 1
vt 0.125 1
vt 0.125 0.5
vt 0.5 1
vt 0 1
vt 0 0.5
vt 0.5 0.5
vt 0.5 0.5
vt 0 0.5
vt 0 1
vt 0.5 1
vn 0 0 1
vn 0 0 -1
vn 0 0 1
vn 0 0 -1
vn 0 0 1
vn 0 0 -1
vn 0 0 1
vn 0 0 -1
vn 0 0 -1
vn 0 0 1
vn 0 0 1
vn 0.00022992038114590907 0.00040825778043076 -0.9999998902310955
vn 0.0017944048529433799 -0.000005919719122169928 -0.9999983900367944
vn 0 0 1
vn -1 0 0
vn 0 -1 0
vn 0.9995847953185664 0.02881383292690802 0
vn -0.10828871534880609 0.994119486846579 0
vn -0.2898337275000801 0.9570770138308671 0
vn -0.9781473494596539 -0.2079128729661878 0
vn 0.14341063292466188 -0.9896632711987571 -0.0000020793312105752
vn 0.9754773521683425 0.22009983054610918 4.6244056985619144e-7
vn 0.3290041547236589 -0.9443284736650542 0
vn -0.4938004152833607 0.8695752698104866 0
vn 0.9171601515424902 0.398518828190785 0
vn -0.9135458793234575 -0.40673569596376796 0
vn 0.8086393241545626 0.5883047198781021 0
vn -0.8090166254774068 -0.5877857600360435 0
vn -0.6671479551300136 0.7449252351517174 0
vn 0.5198109942850498 -0.8542812945513836 0
vn -0.669130574901265 -0.7431448538019373 0
vn 0.670407401269194 0.741993205036984 0.000001558964219693391
vn -0.7952056424286715 0.6063398273654831 0
vn 0.6930529904779849 -0.720886643229869 -0.0000015146182951417968
vn -0.4999971077188656 -0.8660270736372908 0
vn 0.4907076401500378 0.8713242863012493 0
vn 0.8248603092980875 -0.5653365989785764 0
vn -0.9054427427815352 0.42446841996107443 0
vn -0.30127376221753904 -0.9535376868248469 -0.0000020025634771089416
vn 0.33743147301939314 0.9413500948191182 0
vn 0.9254367575489527 -0.37890210843604627 0
vn -0.9999945583852605 0.003298969516064899 0
usemtl m_keystones
f 1/1/1 2/2/1 3/3/1 4/4/1
f 5/5/2 6/6/2 7/7/2 8/8/2
f 4/9/3 9/10/3 10/11/3 11/12/3
f 6/13/4 12/14/4 13/15/4 14/16/4
f 15/17/5 16/18/5 11/19/5 17/20/5
f 18/21/6 12/22/6 19/23/6 20/24/6
f 21/25/7 22/26/7 16/27/7 23/28/7
f 19/29/8 24/30/8 25/31/8 26/32/8
f 24/33/9 27/34/9 28/35/9 29/36/9
f 30/37/10 31/38/10 22/39/10 32/40/10
f 33/41/11 34/42/11 31/43/11 35/44/11
f 36/45/12 37/46/12 38/47/12 27/48/12
f 36/49/13 39/50/13 40/51/13 41/52/13
f 42/53/14 43/54/14 34/55/14 44/56/14
usemtl m_arch
f 5/57/15 1/58/15 4/59/15 6/60/15
f 5/61/16 8/62/16 2/63/16 1/64/16
f 2/65/17 8/66/17 7/67/17 3/68/17
f 4/69/18 3/70/18 7/71/18 6/72/18
f 11/73/19 10/74/19 13/75/19 12/76/19
f 6/77/20 4/78/20 11/79/20 12/80/20
f 6/81/21 14/82/21 9/83/21 4/84/21
f 9/85/22 14/86/22 13/87/22 10/88/22
f 12/89/23 18/90/23 17/91/23 11/92/23
f 16/93/24 15/94/24 20/95/24 19/96/24
f 17/97/25 18/98/25 20/99/25 15/100/25
f 12/101/26 11/102/26 16/103/26 19/104/26
f 23/105/27 26/106/27 25/107/27 21/108/27
f 19/109/28 16/110/28 22/111/28 24/112/28
f 22/113/29 21/114/29 25/115/29 24/116/29
f 19/117/30 26/118/30 23/119/30 16/120/30
f 24/121/31 22/122/31 31/123/31 27/124/31
f 32/125/32 29/126/32 28/127/32 30/128/32
f 31/129/33 30/130/33 28/131/33 27/132/33
f 24/133/34 29/134/34 32/135/34 22/136/34
f 27/137/35 31/138/35 34/139/35 36/140/35
f 35/141/36 38/142/36 37/143/36 33/144/36
f 27/145/37 38/146/37 35/147/37 31/148/37
f 34/149/38 33/150/38 37/151/38 36/152/38
f 36/153/39 34/154/39 43/155/39 39/156/39
f 44/157/40 41/158/40 40/159/40 42/160/40
f 36/161/41 41/162/41 44/163/41 34/164/41
f 43/165/42 42/166/42 40/167/42 39/168/42
o inner
v 1.443991875 0.16041625 -0.5169950000000001
v 0.95421 0.00251125 -0.5154543749999999
v 0.907548125 0.16524125 -0.5154543749999999
v 1.39733 0.32314625 -0.5169950000000001
v 1.443991875 0.16041625 0.008900000000000685
v 1.39733 0.323145 0.008900000000000685
v 0.95421 0.00251125 0.01044062500000087
v 0.907548125 0.16524125 0.01044062500000087
v 1.52781375 -0.23091 -0.5154543749999999
v 1.00611 -0.29069875 -0.5154543749999999
v 0.98254875 -0.12305875 -0.5154543749999999
v 1.504253125 -0.06327 -0.5154543749999999
v 1.52781375 -0.23091 0.01044062500000087
v 1.504253125 -0.06327125 0.01044062500000087
v 1.00611 -0.29069875 0.01044062500000087
v 0.98254875 -0.12306 0.01044062500000087
v 1.30006875 0.549218125 -0.5159324999999998
v 0.847241875 0.285821875 -0.5154543749999999
v 0.76776625 0.43529375 -0.5154543749999999
v 1.22059375 0.69868875 -0.5159324999999998
v 0.847241875 0.285821875 0.01044062500000087
v 1.30006875 0.549218125 0.009962500000000096
v 1.22059375 0.69869 0.009962500000000096
v 0.76776625 0.43529375 0.01044062500000087
v 0.684551875 0.538626875 0.014254999999999907
v 1.06821125 0.893663125 0.014254999999999907
v 0.959395 1.023345 0.014254999999999907
v 0.57573625 0.668308125 0.014254999999999907
v 1.06821125 0.893663125 -0.51164
v 0.684551875 0.538626875 -0.51164
v 0.57573625 0.668308125 -0.51164
v 0.959395 1.023345 -0.51164
v 0.77909125 1.178273125 -0.5119162499999999
v 0.47372875 0.755041875 -0.5119162499999999
v 0.34032875 0.859265 -0.5119162499999999
v 0.64569125 1.282496875 -0.5119162499999999
v 0.77909125 1.178273125 0.013978750000000928
v 0.64569125 1.28249625 0.013978750000000928
v 0.47372875 0.755041875 0.013978750000000928
v 0.34032875 0.859265 0.013978750000000928
v 0.432731875 1.400876875 -0.5159431250000003
v 0.22184875 0.9235 -0.5154543749999999
v 0.068423125 0.99504375 -0.5154543749999999
v 0.27930625 1.47242125 -0.5159431250000003
v 0.22184875 0.9235 0.01044062500000087
v 0.432731875 1.400878125 0.009951875000000499
v 0.27930625 1.472421875 0.009951875000000499
v 0.068423125 0.99504375 0.01044062500000087
vt 0 0.53125
vt 0 0
vt 0.15625 0
vt 0.15625 0.53125
vt 0 1
vt 0 0.5625
vt 0.15625 0.5625
vt 0.15625 1
vt 0 0
vt 0 0.53125
vt 0.15625 0.53125
vt 0.15625 0
vt 0 0.53125
vt 0 0
vt 0.15625 0
vt 0.15625 0.53125
vt 0 0.5625
vt 0 1
vt 0.15625 1
vt 0.15625 0.5625
vt 0 0
vt 0 0.53125
vt 0.15625 0.53125
vt 0.15625 0
vt 0 0.53125
vt 0 0
vt 0.15625 0
vt 0.15625 0.53125
vt 0 0
vt 0 0.53125
vt 0.15625 0.53125
vt 0.15625 0
vt 0 0.5625
vt 0 1
vt 0.15625 1
vt 0.15625 0.5625
vt 0 0
vt 0 0.53125
vt 0.15625 0.53125
vt 0.15625 0
vt 0 0.53125
vt 0 0
vt 0.15625 0
vt 0.15625 0.53125
vt 0 1
vt 0 0.5625
vt 0.15625 0.5625
vt 0.15625 1
vt 0.15625 0.53125
vt 0.15625 0
vt 0 0
vt 0 0.53125
vt 0 1
vt 0 0.5625
vt 0.15625 0.5625
vt 0.15625 1
vt 0 0
vt 0 0.53125
vt 0.15625 0.53125
vt 0.15625 0
vt 0.15625 0.53125
vt 0.15625 0
vt 0 0
vt 0 0.53125
vt 0 0
vt 0 0.53125
vt 0.15625 0.53125
vt 0.15625 0
vt 0 0.5625
vt 0 1
vt 0.15625 1
vt 0.15625 0.5625
vn -0.002879335934950549 -0.0008256327258629057 -0.9999955138675253
vn 0.9612620115087985 0.27563625528957286 0
vn 0.002879334063298259 0.0008256385312666979 0.9999955138681211
vn 0 0 -1
vn 0.9902677760908697 0.13917518326211495 0
vn 0 0 1
vn -0.0008064483120438296 -0.0004287962777604711 -0.9999995828873491
vn 0.0008064498101518955 0.0004287937022387792 0.9999995828872453
vn 0.8829474485582497 0.46947183417589294 0
vn 0 0 1
vn 0 0 -1
vn 0.7660437551662116 0.6427884295558293 0
vn 0 0 -1
vn 0.6156623828992436 0.7880100445316832 0
vn 0 0 1
vn -0.0003958712016104134 -0.0008489460858087347 -0.9999995612881715
vn 0.00039587034209013236 0.0008489442425668535 0.9999995612900764
vn 0.4226222943283802 0.9063059065966499 -0.000002154198810034175
usemtl m_arch
f 45/169/43 46/170/43 47/171/43 48/172/43
f 49/173/44 45/174/44 48/175/44 50/176/44
f 51/177/45 49/178/45 50/179/45 52/180/45
f 53/181/46 54/182/46 55/183/46 56/184/46
f 57/185/47 53/186/47 56/187/47 58/188/47
f 59/189/48 57/190/48 58/191/48 60/192/48
f 61/193/49 62/194/49 63/195/49 64/196/49
f 65/197/50 66/198/50 67/199/50 68/200/50
f 66/201/51 61/202/51 64/203/51 67/204/51
f 69/205/52 70/206/52 71/207/52 72/208/52
f 73/209/53 74/210/53 75/211/53 76/212/53
f 70/213/54 73/214/54 76/215/54 71/216/54
f 77/217/55 78/218/55 79/219/55 80/220/55
f 81/221/56 77/222/56 80/223/56 82/224/56
f 83/225/57 81/226/57 82/227/57 84/228/57
f 85/229/58 86/230/58 87/231/58 88/232/58
f 89/233/59 90/234/59 91/235/59 92/236/59
f 90/237/60 85/238/60 88/239/60 91/240/60