mtllib generic_arch.mtl

o arch_2_right
v 0.8093343749999999 1.3125 -0.528125
v 0.8093343749999999 1.3125 0.028124999999999956
v 0.83897375 0.8776668750000001 0.028124999999999956
v 0.83897375 0.8776668750000001 -0.528125
v 0.5256025 0.803396875 0.028124999999999956
v 0.5256025 0.803396875 -0.528125
v 0.39648249999999996 1.219673125 -0.528125
v 0.767535 1.307614375 -0.528125
v 0.39648249999999996 1.219673125 0.028124999999999956
v 0.767535 1.307614375 0.028124999999999956
v 0.23780562500000002 0.65886 0.028124999999999956
v 0.23780562500000002 0.65886 -0.528125
v 0.01616625000000005 1.03413875 -0.528125
v 0.35693687500000004 1.20528 -0.528125
v 0.01616625000000005 1.03413875 0.028124999999999956
v 0.35693687500000004 1.20528 0.028124999999999956
v -0.008900625000000106 0.45184875 0.028124999999999956
v -0.008900625000000106 0.45184875 -0.528125
v -0.31111124999999995 0.7658981250000001 -0.528125
v -0.018994374999999897 1.011013125 -0.528125
v -0.31111124999999995 0.7658981250000001 0.028124999999999956
v -0.018994374999999897 1.011013125 0.028124999999999956
v 1.000625 1.3125 -0.528125
v 1.000625 1.3125 0.028124999999999956
v 1.000625 0.8795262500000001 0.028124999999999956
v 1.000625 0.8795262500000001 -0.528125
vt 0.875 0.5
vt 0.5 0.5
vt 0.5 1
vt 0.875 1
vt 0.8125 0.5
vt 0.5 0.5
vt 0.5 1
vt 0.8125 1
vt 0.8359375 0.5
vt 0.5234375 0.5
vt 0.5 0.9375
vt 0.875 0.93749125
vt 0.5 0.4375
vt 0.875 0.4375
vt 0.8359375 0
vt 0.5234375 0
vt 0.5 0.5
vt 0.125 0.5
vt 0.125 1
vt 0.5 1
vt 0.1875 1
vt 0.5 1
vt 0.5 0.5
vt 0.1875 0.5
vt 0.3359375 0.5
vt 0.0234375 0.5
vt 0 0.9375
vt 0.375 0.93749125
vt 0 0.4375
vt 0.375 0.4375
vt 0.3359375 0
vt 0.0234375 0
vt 1 0.5
vt 0.625 0.5
vt 0.625 1
vt 1 1
vt 0.6875 1
vt 1 1
vt 1 0.5
vt 0.6875 0.5
vt 0.8359375 0
vt 0.5234375 0
vt 0.5 0.4375
vt 0.875 0.43749125
vt 0.5 0.9375
vt 0.875 0.9375
vt 0.8359375 0.5
vt 0.5234375 0.5
vt 0.09375 1
vt 0.28125 1
vt 0.28125 0.5
vt 0.09375 0.5
vt 0.46875 0.5
vt 0.3125 0.5
vt 0.3125 1
vt 0.460768125 1
vt 0 0.9375
vt 0.1875 0.9375
vt 0.1875 0.5
vt 0.0234375 0.5
vt 0.3359375 0.5
vt 0.1875 0.5
vt 0.1875 0.9375
vt 0.375 0.9375
vt 0.5625 0.5
vt 1 0.5
vt 1 1
vt 0.5625 1
vt 0.4375 0.5
vt 0.4375 1
vt 0 1
vt 0 0.5
vt 0.9375 0.5
vt 0.9375 1
vt 0.5 1
vt 0.5 0.5
vt 0.0625 0.5
vt 0.0625 1
vt 0.5 1
vt 0.5 0.5
vt 0.46875 0.5
vt 0.46875 1
vt 0.03125 1
vt 0.03125 0.5
vt 1 0.5
vt 1 1
vt 0.5625 1
vt 0.5625 0.5
vt 0.5 0.5
vt 0.5 1
vt 0.0625 1
vt 0.0625 0.5
vt 0.9375 0.5
vt 0.9375 1
vt 0.5 1
vt 0.5 0.5
vn -0.23061634751868731 0.9730447575816542 0
vn 0.23061484000610982 -0.9730451148682453 0
vn 0 0 -1
vn 0 0 1
vn -0.4487987817418144 0.8936328404367554 0
vn 0.4487988129999731 -0.8936328247383348 0
vn 0 0 -1
vn 0 0 1
vn -0.642787360275007 0.7660446524000336 0
vn 0.6427878403982964 -0.7660442495287686 0
vn 0 0 -1
vn 0 0 1
vn 0 1 0
vn 0.011501624701431887 -0.9999338541269754 0
vn 0 0 -1
vn 0 0 1
vn -0.7205578079269401 -0.6933948697787741 0
vn -0.8610433254197516 -0.5085316034919518 0
vn -0.9551090591009025 -0.29625442650429507 0
vn -0.9976849908462353 -0.06800484571078419 0
vn 1 0 0
vn 0.9864753470205405 0.16390969989815882 0
vn 0.9220847029272262 0.3869881143234365 0
vn 0.8079838495595858 0.5892046324078526 0
usemtl m_arch
f 8/1/1 7/2/1 9/3/1 10/4/1
f 3/5/2 5/6/2 6/7/2 4/8/2
usemtl m_keystones
f 4/9/3 6/10/3 7/11/3 8/12/3
f 10/13/4 9/14/4 5/15/4 3/16/4
usemtl m_arch
f 14/17/5 13/18/5 15/19/5 16/20/5
f 5/21/6 11/22/6 12/23/6 6/24/6
usemtl m_keystones
f 6/25/7 12/26/7 13/27/7 14/28/7
f 16/29/8 15/30/8 11/31/8 5/32/8
usemtl m_arch
f 20/33/9 19/34/9 21/35/9 22/36/9
f 11/37/10 17/38/10 18/39/10 12/40/10
usemtl m_keystones
f 12/41/11 18/42/11 19/43/11 20/44/11
f 22/45/12 21/46/12 17/47/12 11/48/12
usemtl m_arch
f 2/49/13 24/50/13 23/51/13 1/52/13
f 4/53/14 26/54/14 25/55/14 3/56/14
usemtl m_keystones
f 1/57/15 23/58/15 26/59/15 4/60/15
f 3/61/16 25/62/16 24/63/16 2/64/16
usemtl m_arch
f 19/65/17 18/66/17 17/67/17 21/68/17
f 12/69/18 11/70/18 15/71/18 13/72/18
f 6/73/19 5/74/19 9/75/19 7/76/19
f 4/77/20 3/78/20 2/79/20 1/80/20
f 23/81/21 24/82/21 25/83/21 26/84/21
f 8/85/22 10/86/22 3/87/22 4/88/22
f 14/89/23 16/90/23 5/91/23 6/92/23
f 20/93/24 22/94/24 11/95/24 12/96/24
o arch_2_right_inner
v 0.823023125 1.296875 -0.503125
v 0.823023125 1.296875 0.0031250000000000444
v 0.8629487499999999 0.8915068749999999 -0.503125
v 0.8629487499999999 0.8915068749999999 0.0031250000000000444
v 0.475870625 1.227821875 -0.503125
v 0.475870625 1.227821875 0.0031250000000000444
v 0.5941125 0.838031875 -0.503125
v 0.5941125 0.838031875 0.0031250000000000444
v 0.14886062499999997 1.09237 -0.503125
v 0.14886062499999997 1.09237 0.0031250000000000444
v 0.34087437499999995 0.7331375 -0.503125
v 0.34087437499999995 0.7331375 0.0031250000000000444
v -0.14544124999999997 0.8957237499999999 -0.503125
v -0.14544124999999997 0.8957237499999999 0.0031250000000000444
v 0.11296625000000005 0.58085375 -0.503125
v 0.11296625000000005 0.58085375 0.0031250000000000444
v 0.9375 1.296875 -0.503125
v 0.9375 1.296875 0.0031250000000000444
v 0.9375 0.8915068749999999 -0.503125
v 0.9375 0.8915068749999999 0.0031250000000000444
vt 0.09375 0.5625
vt 0.4375 0.5625
vt 0.4375 1
vt 0.09375 1
vt 0.3046875 1
vt 0.0390625 1
vt 0 0.59375
vt 0.34375 0.5937537500000001
vt 0.34375 0.40625
vt 0 0.40625
vt 0.0390625 0
vt 0.3046875 0
vt 0.03125 0.5625
vt 0.375 0.5625
vt 0.375 1
vt 0.03125 1
vt 0.3984375 0
vt 0.1328125 0
vt 0.09375 0.40625
vt 0.4375 0.40624625000000003
vt 0.5 0.59375
vt 0.15625 0.59375
vt 0.1953125 1
vt 0.4609375 1
vt 0.15625 0.5625
vt 0.5 0.5625
vt 0.5 1
vt 0.15625 1
vt 0.4609375 1
vt 0.1953125 1
vt 0.15625 0.59375
vt 0.5 0.5937537500000001
vt 0.34375 0.40625
vt 0 0.40625
vt 0.0390625 0
vt 0.3046875 0
vt 0 0.5625
vt 0.125 0.5625
vt 0.125 1
vt 0 1
vt 0.125 0.59375
vt 0.203125 0.59375
vt 0.2421875 1
vt 0.125 1
vt 0.1171875 0.40625
vt 0 0.40625
vt 0.0390625 0
vt 0.1171875 0
vn -0.19509086387985997 0.9807851726196772 0
vn 0 0 -1
vn 0 0 1
vn -0.382683186317065 0.9238796344276773 0
vn 0 0 -1
vn 0 0 1
vn -0.5555702799459548 0.8314695809473571 0
vn 0 0 -1
vn 0 0 1
vn 0 1 0
vn 0 0 -1
vn 0 0 1
usemtl m_arch
f 27/97/25 31/98/25 32/99/25 28/100/25
f 29/101/26 33/102/26 31/103/26 27/104/26
f 28/105/27 32/106/27 34/107/27 30/108/27
f 31/109/28 35/110/28 36/111/28 32/112/28
f 33/113/29 37/114/29 35/115/29 31/116/29
f 32/117/30 36/118/30 38/119/30 34/120/30
f 35/121/31 39/122/31 40/123/31 36/124/31
f 37/125/32 41/126/32 39/127/32 35/128/32
f 36/129/33 40/130/33 42/131/33 38/132/33
f 43/133/34 27/134/34 28/135/34 44/136/34
f 45/137/35 29/138/35 27/139/35 43/140/35
f 44/141/36 28/142/36 30/143/36 46/144/36