mtllib generic_arch.mtl

o arch_3_left_inner
v 1.22914875 1.4375 -0.503125
v 1.22914875 1.4375 0.012499999999999956
v 1.272466875 0.99768125 -0.503125
v 1.272466875 0.99768125 0.012499999999999956
v 0.697854375 1.33181875 -0.503125
v 0.697854375 1.33181875 0.012499999999999956
v 0.826145 0.908901875 -0.503125
v 0.826145 0.908901875 0.012499999999999956
v 0.19738624999999999 1.124518125 -0.503125
v 0.19738624999999999 1.124518125 0.012499999999999956
v 0.40571875 0.734755625 -0.503125
v 0.40571875 0.734755625 0.012499999999999956
v -0.2530231249999999 0.823564375 -0.503125
v -0.2530231249999999 0.823564375 0.012499999999999956
v 0.02734562500000004 0.481935 -0.503125
v 0.02734562500000004 0.481935 0.012499999999999956
vt 0 0.5625
vt 0.5 0.5625
vt 0.5 1
vt 0 1
vt 0.4609375 0
vt 0.0390625 0
vt 0 0.43749625000000003
vt 0.5 0.4375
vt 0 0.4375
vt 0.5 0.4375
vt 0.4609375 0
vt 0.0390625 0
vt 0 0.5625
vt 0.5 0.5625
vt 0.5 1
vt 0 1
vt 0.4609375 0
vt 0.0390625 0
vt 0 0.43749625000000003
vt 0.5 0.4375
vt 0 0.4375
vt 0.5 0.4375
vt 0.4609375 0
vt 0.0390625 0
vt 0 0.5625
vt 0.5 0.5625
vt 0.5 1
vt 0 1
vt 0.4609375 0
vt 0.0390625 0
vt 0 0.43749625000000003
vt 0.5 0.4375
vt 0 0.4375
vt 0.5 0.4375
vt 0.4609375 0
vt 0.0390625 0
vt 0.0625 0.5625
vt 0.5 0.5625
vt 0.5 1
vt 0.0625 1
vt 0.4375 0.5625
vt 0.4375 1
vt 0 1
vt 0 0.5625
vn -0.19509072705712943 0.9807851998354791 0
vn 0 0 -1
vn 0 0 1
vn -0.3826833379650658 0.9238795716130513 0
vn 0 0 -1
vn 0 0 1
vn -0.5555700126214048 0.8314697595678704 0
vn 0 0 -1
vn 0 0 1
vn 0.9951847798450393 0.09801660045513037 0
vn 0.19509123991274854 -0.9807850978217943 0
usemtl m_arch
f 1/1/1 5/2/1 6/3/1 2/4/1
f 3/5/2 7/6/2 5/7/2 1/8/2
usemtl m_big_arch
f 2/9/3 6/10/3 8/11/3 4/12/3
f 5/13/4 9/14/4 10/15/4 6/16/4
f 7/17/5 11/18/5 9/19/5 5/20/5
usemtl m_arch
f 6/21/6 10/22/6 12/23/6 8/24/6
f 9/25/7 13/26/7 14/27/7 10/28/7
f 11/29/8 15/30/8 13/31/8 9/32/8
usemtl m_big_arch
f 10/33/9 14/34/9 16/35/9 12/36/9
f 3/37/10 1/38/10 2/39/10 4/40/10
f 3/41/11 4/42/11 8/43/11 7/44/11
o arch_3_left
v 0.25533249999999996 1.16236 0.039062499999999944
v -0.014420625000000076 0.42807125 -0.5296875000000001
v -0.014420625000000076 0.42807125 0.039062499999999944
v 1.05001125 0.949745625 0.039062499999999944
v 1.05001125 0.949745625 -0.5296875000000001
v -0.05705312499999993 0.978725 -0.5296875000000001
v -0.31015875000000004 0.784510625 -0.5296875000000001
v -0.31015875000000004 0.784510625 0.039062499999999944
v -0.05705312499999993 0.978725 0.039062499999999944
v 0.21854062500000004 0.605339375 0.039062499999999944
v 0.21854062500000004 0.605339375 -0.5296875000000001
v 0.479831875 0.756195625 0.039062499999999944
v 0.479831875 0.756195625 -0.5296875000000001
v -0.020957499999999962 1.002843125 -0.5296875000000001
v 0.25533249999999996 1.16236 -0.5296875000000001
v -0.020957499999999962 1.002843125 0.039062499999999944
v 0.75857875 0.87165625 0.039062499999999944
v 0.75857875 0.87165625 -0.5296875000000001
v 0.2942675 1.18156 -0.5296875000000001
v 0.5890150000000001 1.30364875 -0.5296875000000001
v 0.2942675 1.18156 0.039062499999999944
v 0.5890150000000001 1.30364875 0.039062499999999944
v 0.6301224999999999 1.3176025 -0.5296875000000001
v 0.938284375 1.400174375 -0.5296875000000001
v 0.6301224999999999 1.3176025 0.039062499999999944
v 0.938284375 1.400174375 0.039062499999999944
vt 0.46875 0.5
vt 0.15625 0.5
vt 0.15625 1
vt 0.46875 1
vt 0.25 1
vt 0.5 1
vt 0.5 0.5
vt 0.25 0.5
vt 0.1953125 0
vt 0.4921875 0
vt 0.5 0.46875
vt 0.1875 0.4687475
vt 0.5 0.46875
vt 0.1875 0.46875
vt 0.1953125 0
vt 0.4921875 0
vt 0.5 0.5
vt 0.8125 0.5
vt 0.8125 1
vt 0.5 1
vt 0.75 0.5
vt 1 0.5
vt 1 1
vt 0.75 1
vt 0.6953125 0
vt 0.9921875 0
vt 1 0.46875
vt 0.6875 0.4687475
vt 1 0.46875
vt 0.6875 0.46875
vt 0.6953125 0
vt 0.9921875 0
vt 0.5 0.5
vt 0.1875 0.5
vt 0.1875 1
vt 0.5 1
vt 0.21875 1
vt 0.46875 1
vt 0.46875 0.5
vt 0.21875 0.5
vt 0.1953125 0
vt 0.4921875 0
vt 0.5 0.46875
vt 0.1875 0.4687475
vt 0.5 0.46875
vt 0.1875 0.46875
vt 0.1953125 0
vt 0.4921875 0
vt 0.5 0.5
vt 0.8125 0.5
vt 0.8125 1
vt 0.5 1
vt 0.75 1
vt 0.5 1
vt 0.5 0.5
vt 0.75 0.5
vt 0.6953125 0
vt 0.9921875 0
vt 1 0.46875
vt 0.6875 0.4687475
vt 1 0.46875
vt 0.6875 0.46875
vt 0.6953125 0
vt 0.9921875 0
vt 0.03125 0.5
vt 0.03125 1
vt 0.5 1
vt 0.5 0.5
vt 0.53125 0.5
vt 0.53125 1
vt 1 1
vt 1 0.5
vt 0 0.5
vt 0 1
vt 0.46875 1
vt 0.46875 0.5
vt 0.96875 0.5
vt 0.96875 1
vt 0.5 1
vt 0.5 0.5
vt 0.96875 0.5
vt 0.96875 1
vt 0.5 1
vt 0.5 0.5
vt 0.46875 0.5
vt 0.46875 1
vt 0 1
vt 0 0.5
vt 0.96875 0.5
vt 0.96875 1
vt 0.5 1
vt 0.5 0.5
vt 0.46875 0.5
vt 0.46875 1
vt 0 1
vt 0 0.5
vn -0.25881948218641077 0.965925709172687 0
vn 0.25881988615885715 -0.9659256009283098 0
vn 0 0 -1
vn 0 0 1
vn -0.382684336730078 0.9238791579105248 0
vn 0.38268311807753297 -0.9238796626933927 0
vn 0 0 -1
vn 0 0 1
vn -0.5000018081031774 0.8660243598730658 0
vn 0.4999991957808507 -0.8660258681000832 0
vn 0 0 -1
vn 0 0 1
vn -0.6087606361675768 0.7933539486590128 0
vn 0.6055542848323966 -0.795804001071322 0
vn 0 0 -1
vn 0 0 1
vn 0.9705871877295442 0.24074989307423283 0
vn 0.9308596869828034 0.3653768508680829 0
vn 0.8752049391192984 0.4837523276855475 0
vn 0.8045744932494843 0.5938517363890886 0
vn -0.7695942860974483 -0.6385331900584017 0
vn -0.8565447442817099 -0.5160727671979798 0
vn -0.9165782126374168 -0.39985544902926906 0
vn -0.9609280124543952 -0.2767984011522575 0
usemtl m_big_arch
f 40/45/12 39/46/12 41/47/12 42/48/12
f 20/49/13 33/50/13 34/51/13 21/52/13
usemtl m_arch
f 21/53/14 34/54/14 39/55/14 40/56/14
f 42/57/15 41/58/15 33/59/15 20/60/15
usemtl m_big_arch
f 36/61/16 35/62/16 37/63/16 38/64/16
f 33/65/17 28/66/17 29/67/17 34/68/17
usemtl m_arch
f 34/69/18 29/70/18 35/71/18 36/72/18
f 38/73/19 37/74/19 28/75/19 33/76/19
f 31/77/20 30/78/20 32/79/20 17/80/20
f 28/81/21 26/82/21 27/83/21 29/84/21
usemtl m_big_arch
f 29/85/22 27/86/22 30/87/22 31/88/22
f 17/89/23 32/90/23 26/91/23 28/92/23
usemtl m_arch
f 22/93/24 23/94/24 24/95/24 25/96/24
f 26/97/25 19/98/25 18/99/25 27/100/25
usemtl m_big_arch
f 27/101/26 18/102/26 23/103/26 22/104/26
f 25/105/27 24/106/27 19/107/27 26/108/27
f 40/109/28 42/110/28 20/111/28 21/112/28
usemtl m_arch
f 36/113/29 38/114/29 33/115/29 34/116/29
usemtl m_big_arch
f 31/117/30 17/118/30 28/119/30 29/120/30
usemtl m_arch
f 22/121/31 25/122/31 26/123/31 27/124/31
f 18/125/32 19/126/32 24/127/32 23/128/32
f 27/129/33 26/130/33 32/131/33 30/132/33
usemtl m_big_arch
f 29/133/34 28/134/34 37/135/34 35/136/34
usemtl m_arch
f 34/137/35 33/138/35 41/139/35 39/140/35