# Blender v3.2.2 OBJ File: ''
# www.blender.org
mtllib generic_arch.mtl
o arch_1
v 0.693523 0.258846 0.039063
v 0.988131 0.136815 0.039063
v 0.988131 0.136815 -0.039062
v 0.693523 0.258846 -0.039062
v 0.596343 -0.140652 -0.039063
v 0.774361 -0.214390 -0.039063
v 0.774361 -0.214390 0.039062
v 0.596343 -0.140652 0.039062
v 1.017025 0.117509 0.039063
v 1.242509 -0.107975 0.039062
v 1.242509 -0.107975 -0.039063
v 1.017025 0.117509 -0.039062
v 0.910610 -0.350639 -0.039063
v 0.910610 -0.350639 0.039062
v 1.261815 -0.136869 0.039062
v 1.383846 -0.431477 0.039062
v 1.383846 -0.431477 -0.039063
v 1.261815 -0.136869 -0.039063
v 0.984348 -0.528657 -0.039063
v 0.984348 -0.528657 0.039062
v 1.390625 -0.465559 0.039062
v 1.390625 -0.750000 0.039062
v 1.390625 -0.750000 -0.039063
v 1.390625 -0.465559 -0.039063
v 0.986198 -0.750000 -0.039063
v 0.986198 -0.750000 0.039062
v 0.659441 0.265625 -0.039062
v 0.659441 0.265625 0.039063
v 0.011869 0.136815 -0.039062
v 0.011869 0.136815 0.039063
v 0.306477 0.258846 0.039063
v 0.306477 0.258846 -0.039062
v 0.225639 -0.214390 0.039062
v 0.225639 -0.214390 -0.039063
v 0.403657 -0.140652 -0.039063
v 0.403657 -0.140652 0.039062
v -0.242509 -0.107975 -0.039063
v -0.242509 -0.107975 0.039062
v -0.017025 0.117509 0.039063
v -0.017025 0.117509 -0.039062
v 0.089390 -0.350639 0.039062
v 0.089390 -0.350639 -0.039063
v -0.383846 -0.431477 -0.039063
v -0.383846 -0.431477 0.039062
v -0.261815 -0.136869 0.039062
v -0.261815 -0.136869 -0.039063
v 0.015652 -0.528657 0.039062
v 0.015652 -0.528657 -0.039063
v 0.013802 -0.750000 0.039062
v 0.013802 -0.750000 -0.039063
v -0.390625 -0.750000 0.039062
v -0.390625 -0.465559 0.039062
v -0.390625 -0.750000 -0.039063
v -0.390625 -0.465559 -0.039063
v 0.340559 0.265625 -0.039062
v 0.340559 0.265625 0.039063
v 1.390625 -0.465559 0.039062
v 1.390625 -0.465559 -0.039063
v 0.984348 -0.528657 -0.039063
v 0.984348 -0.528657 0.039062
vt 0.656250 1.000000
vt 0.968750 1.000000
vt 0.968750 0.937500
vt 0.656250 0.937500
vt 0.687500 0.937500
vt 0.500000 0.937500
vt 0.500000 1.000000
vt 0.687500 1.000000
vt 0.156250 1.000000
vt 0.468750 1.000000
vt 0.468750 0.937500
vt 0.156250 0.937500
vt 0.281250 1.000000
vt 0.468750 1.000000
vt 0.468750 0.937500
vt 0.281250 0.937500
vt 0.656250 0.937500
vt 0.968750 0.937500
vt 0.968750 1.000000
vt 0.656250 1.000000
vt 0.781250 1.000000
vt 0.968750 1.000000
vt 0.968750 0.937500
vt 0.781250 0.937500
vt 0.187500 0.937500
vt 0.468750 0.937500
vt 0.468750 1.000000
vt 0.187500 1.000000
vt 0.250000 1.000000
vt 0.468750 1.000000
vt 0.468750 0.937500
vt 0.250000 0.937500
vt 0.500000 0.937500
vt 0.500000 1.000000
vt 0.093750 1.000000
vt 0.093750 0.937500
vt 0.906250 0.937500
vt 0.906250 1.000000
vt 0.500000 1.000000
vt 0.500000 0.937500
vt 0.093750 0.937500
vt 0.093750 1.000000
vt 0.973650 0.937500
vt 0.973650 1.000000
vt 0.562500 1.000000
vt 0.562500 0.937500
vt 0.093750 0.937500
vt 0.093750 1.000000
vt 0.500000 1.000000
vt 0.500000 0.937500
vt 0.562500 0.937500
vt 0.562500 1.000000
vt 0.968750 1.000000
vt 0.968750 0.937500
vt 0.906250 1.000000
vt 0.906250 0.937500
vt 0.500000 0.937500
vt 0.500395 1.000000
vt 0.968750 1.000000
vt 0.968750 0.937500
vt 0.656250 0.937500
vt 0.656250 1.000000
vt 0.968750 0.937500
vt 0.968750 1.000000
vt 0.781250 1.000000
vt 0.781250 0.937500
vt 0.468750 1.000000
vt 0.468750 0.937500
vt 0.156250 0.937500
vt 0.156250 1.000000
vt 0.468750 1.000000
vt 0.468750 0.937500
vt 0.281250 0.937500
vt 0.281250 1.000000
vt 0.968750 0.937500
vt 0.968750 1.000000
vt 0.656250 1.000000
vt 0.656250 0.937500
vt 1.000000 0.937500
vt 1.000000 1.000000
vt 0.812500 1.000000
vt 0.812500 0.937500
vt 0.468750 1.000000
vt 0.468750 0.937500
vt 0.250000 0.937500
vt 0.250000 1.000000
vt 0.156250 1.000000
vt 0.468750 1.000000
vt 0.468750 0.937500
vt 0.156250 0.937500
vt 0.218750 1.000000
vt 0.406250 1.000000
vt 0.406250 0.937500
vt 0.218750 0.937500
vt 0.093750 1.000000
vt 0.500000 1.000000
vt 0.500000 0.937500
vt 0.093750 0.937500
vt 0.562500 1.000000
vt 0.562500 0.937500
vt 0.093750 1.000000
vt 0.500000 1.000000
vt 0.500000 0.937500
vt 0.093750 0.937500
vt 0.562500 0.937500
vt 0.968750 0.937500
vt 0.968750 1.000000
vt 0.562500 1.000000
vt 0.500000 0.937500
vt 0.093750 0.937500
vt 0.093750 1.000000
vt 0.500000 1.000000
vt 0.500000 0.937500
vt 0.093750 0.937500
vt 0.093750 1.000000
vt 0.500000 1.000000
vt 0.500000 0.937500
vt 0.906250 0.937500
vt 0.906250 1.000000
vt 0.500000 1.000000
vt 0.500000 1.000000
vt 0.093750 1.000000
vt 0.093750 0.937500
vt 0.500000 0.937500
vt 0.968750 1.000000
vt 0.562500 1.000000
vt 0.562500 0.937500
vt 0.968355 0.937500
vt 0.468750 0.937500
vt 0.468750 1.000000
vt 0.187500 1.000000
vt 0.187500 0.937500
vt 0.093750 0.937500
vt 0.093750 1.000000
vt 0.500000 1.000000
vt 0.500000 0.937500
vt 0.093750 1.000000
vt 0.093750 0.937500
vt 0.742188 0.000000
vt 0.554688 0.000000
vt 0.531250 0.406250
vt 0.812500 0.406248
vt 0.500000 0.906250
vt 0.781250 0.906250
vt 0.750000 0.500000
vt 0.562500 0.500000
vt 0.250000 0.000000
vt 0.054688 0.000000
vt 0.031250 0.406250
vt 0.312500 0.406248
vt 0.312500 0.406250
vt 0.023438 0.406250
vt 0.054688 0.000000
vt 0.250000 0.000000
vt 0.710938 0.500000
vt 0.523438 0.500000
vt 0.500000 0.906250
vt 0.781250 0.906248
vt 0.812500 0.406250
vt 0.523438 0.406250
vt 0.554688 0.000000
vt 0.742188 0.000000
vt 0.250000 0.500000
vt 0.034592 0.500000
vt 0.031250 0.903876
vt 0.312500 0.906250
vt 0.312500 0.406250
vt 0.031250 0.406250
vt 0.031250 0.001850
vt 0.250000 0.000000
vt 0.781250 0.906248
vt 0.726562 0.500000
vt 0.531250 0.500000
vt 0.500000 0.906250
vt 0.554688 0.000000
vt 0.523438 0.406250
vt 0.812500 0.406250
vt 0.742188 0.000000
vt 0.031250 0.406248
vt 0.085938 0.000000
vt 0.281250 0.000000
vt 0.312500 0.406250
vt 0.054688 0.000000
vt 0.023438 0.406250
vt 0.312500 0.406250
vt 0.250000 0.000000
vt 0.500000 0.906248
vt 0.554688 0.500000
vt 0.750000 0.500000
vt 0.781250 0.906250
vt 0.523438 0.500000
vt 0.500000 0.906250
vt 0.781250 0.906250
vt 0.710938 0.500000
vt 0.031250 0.406250
vt 0.031250 0.000000
vt 0.250000 0.000000
vt 0.312500 0.406250
vt 0.000000 0.501850
vt 0.000000 0.906250
vt 0.281250 0.906250
vt 0.218750 0.500000
vt 0.000000 0.906250
vt 0.312500 0.906250
vt 0.250000 0.500003
vt 0.062500 0.500000
vt 0.250000 0.500000
vt 0.062500 0.500000
vt 0.000000 0.906250
vt 0.312500 0.906250
vn 0.3827 0.9239 0.0000
vn -0.3827 -0.9239 0.0000
vn 0.7071 0.7071 0.0000
vn -0.7071 -0.7071 0.0000
vn 0.9239 0.3827 0.0000
vn -0.9239 -0.3827 0.0000
vn 1.0000 -0.0000 0.0000
vn -1.0000 -0.0084 0.0000
vn 0.9882 -0.1535 0.0000
vn 0.8542 -0.5199 0.0000
vn 0.5902 -0.8072 0.0000
vn 0.2364 -0.9717 0.0000
vn 0.0000 -1.0000 0.0000
vn -0.5199 0.8542 0.0000
vn -0.9717 0.2364 0.0000
vn -0.3827 0.9239 0.0000
vn 0.3827 -0.9239 0.0000
vn -0.7071 0.7071 0.0000
vn 0.7071 -0.7071 0.0000
vn -0.9239 0.3827 0.0000
vn 0.9239 -0.3827 0.0000
vn 1.0000 -0.0084 0.0000
vn 0.0000 1.0000 0.0000
vn -0.9882 -0.1535 0.0000
vn -0.8542 -0.5199 0.0000
vn -0.5902 -0.8072 0.0000
vn -0.2364 -0.9717 0.0000
vn 0.1535 0.9882 0.0000
vn 0.5199 0.8542 0.0000
vn 0.8072 0.5902 0.0000
vn 0.9717 0.2364 0.0000
vn -1.0000 0.0000 0.0000
vn -0.1535 0.9882 0.0000
vn -0.8072 0.5902 0.0000
vn 0.0000 -0.0000 1.0000
vn 0.0000 0.0000 -1.0000
usemtl m_arch
s 1
f 1/1/1 2/2/1 3/3/1 4/4/1
f 5/5/2 6/6/2 7/7/2 8/8/2
f 9/9/3 10/10/3 11/11/3 12/12/3
f 6/13/4 13/14/4 14/15/4 7/16/4
f 15/17/5 16/18/5 17/19/5 18/20/5
f 13/21/6 19/22/6 20/23/6 14/24/6
f 21/25/7 22/26/7 23/27/7 24/28/7
f 19/29/8 25/30/8 26/31/8 20/32/8
f 8/33/9 5/34/9 27/35/9 28/36/9
f 7/7/10 6/6/10 3/37/10 2/38/10
f 14/39/11 13/40/11 11/41/11 10/42/11
f 20/43/12 19/44/12 17/45/12 16/46/12
f 26/47/13 25/48/13 23/49/13 22/50/13
f 15/51/14 18/52/14 13/53/14 14/54/14
f 1/55/15 4/56/15 5/57/15 8/58/15
f 29/59/16 30/60/16 31/61/16 32/62/16
f 33/63/17 34/64/17 35/65/17 36/66/17
f 37/67/18 38/68/18 39/69/18 40/70/18
f 41/71/19 42/72/19 34/73/19 33/74/19
f 43/75/20 44/76/20 45/77/20 46/78/20
f 47/79/21 48/80/21 42/81/21 41/82/21
f 49/83/22 50/84/22 48/85/22 47/86/22
f 27/87/23 55/88/23 56/89/23 28/90/23
f 8/91/13 36/92/13 35/93/13 5/94/13
f 55/95/24 35/96/24 36/97/24 56/98/24
f 29/99/25 34/64/25 33/63/25 30/100/25
f 37/101/26 42/102/26 41/103/26 38/104/26
f 43/105/27 48/106/27 47/107/27 44/108/27
f 53/109/13 50/110/13 49/111/13 51/112/13
f 48/113/28 54/114/28 52/115/28 47/116/28
f 42/117/29 46/118/29 45/119/29 41/120/29
f 34/121/30 40/122/30 39/123/30 33/124/30
f 35/125/31 32/126/31 31/127/31 36/128/31
f 53/129/32 51/130/32 52/131/32 54/132/32
f 57/133/33 58/134/33 59/135/33 60/136/33
f 9/137/34 12/138/34 6/6/34 7/7/34
usemtl m_keystones
f 8/139/35 7/140/35 2/141/35 1/142/35
f 4/143/36 3/144/36 6/145/36 5/146/36
f 7/147/35 14/148/35 10/149/35 9/150/35
f 12/151/36 11/152/36 13/153/36 6/154/36
f 14/155/35 20/156/35 16/157/35 15/158/35
f 18/159/36 17/160/36 19/161/36 13/162/36
f 20/163/35 26/164/35 22/165/35 21/166/35
f 24/167/36 23/168/36 25/169/36 19/170/36
f 30/171/35 33/172/35 36/173/35 31/174/35
f 34/175/36 29/176/36 32/177/36 35/178/36
f 38/179/35 41/180/35 33/181/35 39/182/35
f 42/183/36 37/184/36 40/185/36 34/186/36
f 44/187/35 47/188/35 41/189/35 45/190/35
f 48/191/36 43/192/36 46/193/36 42/194/36
f 51/195/35 49/196/35 47/197/35 52/198/35
f 50/199/36 53/200/36 54/201/36 48/202/36
f 28/203/35 56/204/35 36/205/35 8/206/35
f 5/207/36 35/208/36 55/209/36 27/210/36
o arch_1_inner
v 0.638586 0.250000 0.010938
v 0.902193 0.164349 0.010938
v 0.902193 0.164349 -0.010937
v 0.638586 0.250000 -0.010937
v 0.580920 -0.114093 0.010937
v 0.734838 -0.164104 0.010937
v 0.734838 -0.164104 -0.010938
v 0.580920 -0.114093 -0.010938
v 1.126431 0.001431 0.010937
v 1.126431 0.001431 -0.010937
v 0.865769 -0.259231 0.010937
v 0.865769 -0.259231 -0.010938
v 1.289349 -0.222807 0.010937
v 1.289349 -0.222807 -0.010938
v 0.960896 -0.390162 0.010937
v 0.960896 -0.390162 -0.010938
v 1.375000 -0.486414 0.010937
v 1.375000 -0.486414 -0.010938
v 1.010907 -0.544080 0.010937
v 1.010907 -0.544080 -0.010938
v 0.097807 0.164349 -0.010937
v 0.097807 0.164349 0.010938
v 0.361414 0.250000 0.010938
v 0.361414 0.250000 -0.010937
v 0.265162 -0.164104 0.010937
v 0.419080 -0.114093 0.010937
v 0.265162 -0.164104 -0.010938
v 0.419080 -0.114093 -0.010938
v -0.126431 0.001431 -0.010937
v -0.126431 0.001431 0.010937
v 0.134231 -0.259231 0.010937
v 0.134231 -0.259231 -0.010938
v -0.289349 -0.222807 -0.010938
v -0.289349 -0.222807 0.010937
v 0.039104 -0.390162 0.010937
v 0.039104 -0.390162 -0.010938
v -0.375000 -0.486414 -0.010938
v -0.375000 -0.486414 0.010937
v -0.010907 -0.544080 0.010937
v -0.010907 -0.544080 -0.010938
vt 0.031250 0.968750
vt 0.312500 0.968750
vt 0.312500 1.000000
vt 0.031250 1.000000
vt 0.437500 1.000000
vt 0.281250 1.000000
vt 0.218750 0.625003
vt 0.500000 0.625000
vt 0.000000 0.625000
vt 0.281250 0.625000
vt 0.218750 0.999998
vt 0.062500 1.000000
vt 0.187500 0.968750
vt 0.468750 0.968750
vt 0.468750 1.000000
vt 0.187500 1.000000
vt 0.437500 0.000000
vt 0.281250 0.000000
vt 0.218750 0.374997
vt 0.500000 0.375000
vt 0.000000 0.375000
vt 0.281250 0.375000
vt 0.218750 0.000002
vt 0.062500 0.000000
vt 0.031250 0.968750
vt 0.312500 0.968750
vt 0.312500 1.000000
vt 0.031250 1.000000
vt 0.218750 1.000000
vt 0.062500 1.000000
vt 0.000000 0.625003
vt 0.281250 0.625000
vt 0.218750 0.625000
vt 0.500000 0.625000
vt 0.437500 0.999998
vt 0.281250 1.000000
vt 0.187500 0.968750
vt 0.468750 0.968750
vt 0.468750 1.000000
vt 0.187500 1.000000
vt 0.218750 0.000000
vt 0.062500 0.000000
vt 0.000000 0.374997
vt 0.281250 0.375000
vt 0.218750 0.375000
vt 0.500000 0.375000
vt 0.437500 0.000002
vt 0.281250 0.000000
vt 0.312500 1.000000
vt 0.312500 0.968750
vt 0.031250 0.968750
vt 0.031250 1.000000
vt 0.000000 0.625003
vt 0.062500 1.000000
vt 0.218750 1.000000
vt 0.281250 0.625000
vt 0.437500 1.000000
vt 0.500000 0.625000
vt 0.218750 0.625000
vt 0.281250 1.000000
vt 0.468750 1.000000
vt 0.468750 0.968750
vt 0.187500 0.968750
vt 0.187500 1.000000
vt 0.000000 0.374997
vt 0.062500 0.000000
vt 0.218750 0.000000
vt 0.281250 0.375000
vt 0.437500 0.000000
vt 0.500000 0.375000
vt 0.218750 0.375000
vt 0.281250 0.000000
vt 0.312500 1.000000
vt 0.312500 0.968750
vt 0.031250 0.968750
vt 0.031250 1.000000
vt 0.218750 0.625003
vt 0.281250 1.000000
vt 0.437500 1.000000
vt 0.500000 0.625000
vt 0.218750 1.000000
vt 0.281250 0.625000
vt 0.000000 0.625000
vt 0.062500 1.000000
vt 0.468750 1.000000
vt 0.468750 0.968750
vt 0.187500 0.968750
vt 0.187500 1.000000
vt 0.218750 0.374997
vt 0.281250 0.000000
vt 0.437500 0.000000
vt 0.500000 0.375000
vt 0.218750 0.000000
vt 0.281250 0.375000
vt 0.000000 0.375000
vt 0.062500 0.000000
vn 0.3090 0.9511 0.0000
vn -0.0000 -0.0000 1.0000
vn -0.0000 0.0000 -1.0000
vn 0.5878 0.8090 0.0000
vn 0.8090 0.5878 0.0000
vn 0.9511 0.3090 0.0000
vn -0.3090 0.9511 0.0000
vn -0.5878 0.8090 0.0000
vn -0.8090 0.5878 0.0000
vn -0.9511 0.3090 0.0000
usemtl m_arch
s 1
f 61/211/37 62/212/37 63/213/37 64/214/37
f 65/215/38 66/216/38 62/217/38 61/218/38
f 64/219/39 63/220/39 67/221/39 68/222/39
f 62/223/40 69/224/40 70/225/40 63/226/40
f 66/227/38 71/228/38 69/229/38 62/230/38
f 63/231/39 70/232/39 72/233/39 67/234/39
f 69/235/41 73/236/41 74/237/41 70/238/41
f 71/239/38 75/240/38 73/241/38 69/242/38
f 70/243/39 74/244/39 76/245/39 72/246/39
f 73/247/42 77/248/42 78/249/42 74/250/42
f 75/251/38 79/252/38 77/253/38 73/254/38
f 74/255/39 78/256/39 80/257/39 76/258/39
f 81/259/43 82/260/43 83/261/43 84/262/43
f 82/263/38 85/264/38 86/265/38 83/266/38
f 87/267/39 81/268/39 84/269/39 88/270/39
f 89/271/44 90/272/44 82/273/44 81/274/44
f 90/275/38 91/276/38 85/277/38 82/278/38
f 92/279/39 89/280/39 81/281/39 87/282/39
f 93/283/45 94/284/45 90/285/45 89/286/45
f 94/287/38 95/288/38 91/289/38 90/290/38
f 96/291/39 93/292/39 89/293/39 92/294/39
f 97/295/46 98/296/46 94/297/46 93/298/46
f 98/299/38 99/300/38 95/301/38 94/302/38
f 100/303/39 97/304/39 93/305/39 96/306/39
