# Blender v3.2.2 OBJ File: ''
# www.blender.org
mtllib generic_arch.mtl
o arch_inner
v 0.614723 1.203125 1.015625
v 0.831738 1.128624 1.015625
v 0.831738 1.128624 -0.015625
v 0.614723 1.203125 -0.015625
v 0.582414 1.009506 1.015625
v 0.738312 0.955986 1.015625
v 0.738312 0.955987 -0.015625
v 0.582414 1.009506 -0.015625
v 1.012804 0.987694 1.015625
v 1.012804 0.987695 -0.015625
v 0.868385 0.854747 1.015625
v 0.868385 0.854747 -0.015625
v 1.138300 0.795609 1.015625
v 1.138300 0.795609 -0.015625
v 0.958537 0.716758 1.015625
v 0.958537 0.716758 -0.015625
v 1.194626 0.573183 1.015625
v 1.194626 0.573183 -0.015625
v 0.999000 0.556973 1.015625
v 0.999000 0.556973 -0.015625
v 0.168262 1.128624 -0.015625
v 0.168262 1.128624 1.015625
v 0.385277 1.203125 1.015625
v 0.385277 1.203125 -0.015625
v 0.261688 0.955986 1.015625
v 0.417586 1.009506 1.015625
v 0.261688 0.955987 -0.015625
v 0.417586 1.009506 -0.015625
v -0.012804 0.987695 -0.015625
v -0.012804 0.987694 1.015625
v 0.131615 0.854747 1.015625
v 0.131615 0.854747 -0.015625
v -0.138300 0.795609 -0.015625
v -0.138300 0.795609 1.015625
v 0.041463 0.716758 1.015625
v 0.041463 0.716758 -0.015625
v -0.194626 0.573183 -0.015625
v -0.194626 0.573183 1.015625
v 0.001000 0.556973 1.015625
v 0.001000 0.556973 -0.015625
vt 0.250000 0.000000
vt 0.468750 0.000000
vt 0.468750 1.000000
vt 0.250000 1.000000
vt 0.031250 0.187500
vt 0.187500 0.187500
vt 0.218750 0.000001
vt 0.000000 0.000000
vt 0.468750 1.000000
vt 0.250000 1.000000
vt 0.281250 0.812501
vt 0.437500 0.812500
vt 0.000000 0.000000
vt 0.218750 0.000000
vt 0.218750 1.000000
vt 0.000000 1.000000
vt 0.250000 0.187500
vt 0.406250 0.187500
vt 0.437500 0.000001
vt 0.187500 0.812501
vt 0.031250 0.812500
vt 0.312500 0.000000
vt 0.093750 0.000000
vt 0.093750 1.000000
vt 0.312500 1.000000
vt 0.156250 0.187500
vt 0.312500 0.187500
vt 0.343750 0.000001
vt 0.125000 0.000000
vt 0.125000 1.000000
vt 0.343750 1.000000
vt 0.312500 0.812501
vt 0.156250 0.812500
vt 0.218750 0.000000
vt 0.437500 0.000000
vt 0.437500 1.000000
vt 0.218750 1.000000
vt 0.468750 0.187500
vt 0.500000 0.000001
vt 0.281250 0.000000
vt 0.281250 1.000000
vt 0.500000 1.000000
vt 0.468750 0.812501
vt 0.375000 1.000000
vt 0.375000 0.000000
vt 0.156250 0.000000
vt 0.156250 1.000000
vt 0.250000 0.999999
vt 0.281250 0.812500
vt 0.437500 0.812500
vt 0.468750 1.000000
vt 0.187500 0.187499
vt 0.218750 0.000000
vt 0.000000 0.000000
vt 0.031250 0.187500
vt 0.000000 1.000000
vt 0.000000 0.000000
vt 0.218750 0.000000
vt 0.218750 1.000000
vt 0.218750 0.999999
vt 0.187500 0.812500
vt 0.031250 0.812500
vt 0.000000 1.000000
vt 0.406250 0.187499
vt 0.437500 0.000000
vt 0.250000 0.187500
vt 0.468750 1.000000
vt 0.468750 0.000000
vt 0.250000 0.000000
vt 0.250000 1.000000
vt 0.343750 0.999999
vt 0.312500 0.812500
vt 0.156250 0.812500
vt 0.125000 1.000000
vt 0.156250 0.187499
vt 0.125000 0.000000
vt 0.343750 0.000000
vt 0.312500 0.187500
vt 0.125000 1.000000
vt 0.125000 0.000000
vt 0.343750 0.000000
vt 0.343750 1.000000
vt 0.500000 0.999999
vt 0.468750 0.812500
vt 0.281250 1.000000
vt 0.468750 0.187499
vt 0.500000 0.000000
vt 0.281250 0.000000
vt 0.312500 0.187500
vn 0.3247 0.9458 0.0000
vn 0.0000 -0.0000 1.0000
vn 0.0000 0.0000 -1.0000
vn 0.6142 0.7891 0.0000
vn 0.8372 0.5469 0.0000
vn 0.9694 0.2455 0.0000
vn -0.3247 0.9458 0.0000
vn -0.6142 0.7891 0.0000
vn -0.8372 0.5469 0.0000
vn -0.9694 0.2455 0.0000
usemtl m_arch
s 1
f 1/1/1 2/2/1 3/3/1 4/4/1
f 5/5/2 6/6/2 2/7/2 1/8/2
f 4/9/3 3/10/3 7/11/3 8/12/3
f 2/13/4 9/14/4 10/15/4 3/16/4
f 6/17/2 11/18/2 9/19/2 2/7/2
f 3/16/3 10/15/3 12/20/3 7/21/3
f 9/22/5 13/23/5 14/24/5 10/25/5
f 11/26/2 15/27/2 13/28/2 9/29/2
f 10/30/3 14/31/3 16/32/3 12/33/3
f 13/34/6 17/35/6 18/36/6 14/37/6
f 15/27/2 19/38/2 17/39/2 13/40/2
f 14/41/3 18/42/3 20/43/3 16/32/3
f 21/44/7 22/45/7 23/46/7 24/47/7
f 22/48/2 25/49/2 26/50/2 23/51/2
f 27/52/3 21/53/3 24/54/3 28/55/3
f 29/56/8 30/57/8 22/58/8 21/59/8
f 30/60/2 31/61/2 25/62/2 22/63/2
f 32/64/3 29/65/3 21/53/3 27/66/3
f 33/67/9 34/68/9 30/69/9 29/70/9
f 34/71/2 35/72/2 31/73/2 30/74/2
f 36/75/3 33/76/3 29/77/3 32/78/3
f 37/79/10 38/80/10 34/81/10 33/82/10
f 38/83/2 39/84/2 35/72/2 34/85/2
f 40/86/3 37/87/3 33/88/3 36/89/3
o arch
v 0.114633 1.117058 -0.025000
v 0.114633 1.117058 1.025000
v 0.347218 1.213398 1.025000
v 0.347218 1.213398 -0.025000
v 0.227712 0.923133 1.025000
v 0.227712 0.923133 -0.025000
v 0.404385 0.996314 -0.025000
v 0.404385 0.996313 1.025000
v -0.086191 0.923803 -0.025000
v -0.086191 0.923803 1.025000
v 0.091822 1.101816 1.025000
v 0.091822 1.101816 -0.025000
v 0.092492 0.787913 1.025000
v 0.092492 0.787913 -0.025000
v -0.197773 0.668407 -0.025000
v -0.197773 0.668406 1.025000
v -0.101433 0.900992 1.025000
v -0.101433 0.900992 -0.025000
v 0.019311 0.611240 1.025000
v 0.019311 0.611240 -0.025000
v -0.203125 0.421875 -0.025000
v -0.203125 0.421875 1.025000
v -0.203125 0.641499 1.025000
v -0.203125 0.641499 -0.025000
v 0.017475 0.421875 1.025000
v 0.017475 0.421875 -0.025000
v 0.652782 1.213398 1.025000
v 0.885367 1.117058 1.025000
v 0.885367 1.117058 -0.025000
v 0.652782 1.213398 -0.025000
v 0.595615 0.996314 -0.025000
v 0.772288 0.923133 -0.025000
v 0.772288 0.923133 1.025000
v 0.595615 0.996313 1.025000
v 0.908178 1.101816 1.025000
v 1.086191 0.923803 1.025000
v 1.086191 0.923803 -0.025000
v 0.908178 1.101816 -0.025000
v 0.907508 0.787913 -0.025000
v 0.907508 0.787913 1.025000
v 1.101433 0.900992 1.025000
v 1.197773 0.668406 1.025000
v 1.197773 0.668407 -0.025000
v 1.101433 0.900992 -0.025000
v 0.980689 0.611240 -0.025000
v 0.980689 0.611240 1.025000
v 1.203125 0.641499 1.025000
v 1.203125 0.421875 1.025000
v 1.203125 0.421875 -0.025000
v 1.203125 0.641499 -0.025000
v 0.982525 0.421875 -0.025000
v 0.982525 0.421875 1.025000
v 0.374126 1.218750 1.025000
v 0.625874 1.218750 1.025000
v 0.625874 1.218750 -0.025000
v 0.374126 1.218750 -0.025000
vt 1.000000 1.000000
vt 1.000000 0.000000
vt 0.750000 0.000000
vt 0.750000 1.000000
vt 0.687500 0.000000
vt 0.687500 1.000000
vt 0.500000 1.000000
vt 0.500000 0.000000
vt 0.500000 1.000000
vt 0.500000 0.000000
vt 0.250000 0.000000
vt 0.250000 1.000000
vt 0.500000 1.000000
vt 0.500000 0.000000
vt 0.312500 0.000000
vt 0.312500 1.000000
vt 1.000000 1.000000
vt 1.000000 0.000000
vt 0.750000 0.000000
vt 0.750000 1.000000
vt 1.000000 0.000000
vt 1.000000 1.000000
vt 0.812500 1.000000
vt 0.812500 0.000000
vt 0.500000 1.000000
vt 0.500000 0.000000
vt 0.281250 0.000000
vt 0.281250 1.000000
vt 0.500000 0.000000
vt 0.500000 1.000000
vt 0.312500 1.000000
vt 0.312500 0.000000
vt 0.281250 1.000000
vt 0.281250 0.000000
vt 0.781250 1.000000
vt 0.781250 0.000000
vt 0.000000 0.000000
vt 0.000000 1.000000
vt 0.218750 1.000000
vt 0.218750 0.000000
vt 0.781250 1.000000
vt 0.781250 0.000000
vt 0.500000 1.000000
vt 0.500000 0.000000
vt 0.718750 0.000000
vt 0.718750 1.000000
vt 0.000000 1.000000
vt 0.000000 0.000000
vt 0.218750 0.000000
vt 0.218750 1.000000
vt 0.718750 1.000000
vt 0.718750 0.000000
vt 0.500000 0.000000
vt 0.500000 1.000000
vt 0.000000 1.000000
vt 0.000000 0.000000
vt 0.218750 0.000000
vt 0.218750 1.000000
vt 1.000000 0.000000
vt 0.750000 0.000000
vt 0.750000 1.000000
vt 1.000000 1.000000
vt 0.812500 0.000000
vt 1.000000 0.000000
vt 1.000000 1.000000
vt 0.812500 1.000000
vt 0.250000 0.000000
vt 0.500000 0.000000
vt 0.500000 1.000000
vt 0.250000 1.000000
vt 0.312500 1.000000
vt 0.500000 1.000000
vt 0.500000 0.000000
vt 0.312500 0.000000
vt 0.750000 0.000000
vt 1.000000 0.000000
vt 1.000000 1.000000
vt 0.750000 1.000000
vt 0.812500 1.000000
vt 1.000000 1.000000
vt 1.000000 0.000000
vt 0.812500 0.000000
vt 0.281250 1.000000
vt 0.500000 1.000000
vt 0.500000 0.000000
vt 0.281250 0.000000
vt 0.312500 0.000000
vt 0.500000 0.000000
vt 0.500000 1.000000
vt 0.312500 1.000000
vt 0.500000 0.000000
vt 0.250000 0.000000
vt 0.250000 1.000000
vt 0.500000 1.000000
vt 0.312500 1.000000
vt 0.500000 1.000000
vt 0.500000 0.000000
vt 0.312500 0.000000
vt 0.281250 1.000000
vt 0.281250 0.000000
vt 0.718750 1.000000
vt 0.500000 1.000000
vt 0.500000 0.000000
vt 0.718750 0.000000
vt 0.843750 1.000000
vt 0.625000 1.000000
vt 0.625000 0.000000
vt 0.843750 0.000000
vt 0.718750 1.000000
vt 0.500000 1.000000
vt 0.500000 0.000000
vt 0.718750 0.000000
vt 0.000000 1.000000
vt 0.218750 1.000000
vt 0.218750 0.000000
vt 0.000000 0.000000
vt 1.000000 0.000000
vt 0.781250 0.000000
vt 0.781250 1.000000
vt 1.000000 1.000000
vt 0.218750 0.000000
vt 0.000000 0.000000
vt 0.000000 1.000000
vt 0.218750 1.000000
vt 0.968750 0.000000
vt 0.968750 1.000000
vt 0.218750 1.000000
vt 0.000000 1.000000
vt 0.000000 0.000000
vt 0.218750 0.000000
vt 0.000000 0.000000
vt 0.000000 1.000000
vt 0.218750 1.000000
vt 0.218750 0.000000
vt 0.750000 0.312500
vt 0.726562 0.531250
vt 0.523438 0.531250
vt 0.500000 0.312503
vt 0.523438 0.531250
vt 0.500000 0.312500
vt 0.750000 0.312500
vt 0.726562 0.531250
vt 0.000000 0.312500
vt 0.023438 0.531250
vt 0.226562 0.531250
vt 0.250000 0.312503
vt 0.531250 0.218750
vt 0.554688 0.000000
vt 0.757812 0.000000
vt 0.781250 0.218747
vt 0.523438 0.500000
vt 0.500000 0.718750
vt 0.750000 0.718750
vt 0.726562 0.500000
vt 0.218750 0.000000
vt 0.001807 0.000000
vt 0.000000 0.187500
vt 0.218750 0.218750
vt 0.000000 0.528713
vt 0.001842 0.312500
vt 0.218750 0.313788
vt 0.187500 0.531250
vt 0.726562 0.500000
vt 0.523438 0.500000
vt 0.500000 0.718750
vt 0.750000 0.718750
vt 0.531250 0.218750
vt 0.781250 0.218750
vt 0.757812 0.000000
vt 0.554688 0.000000
vt 0.226562 0.000000
vt 0.023438 0.000000
vt 0.000000 0.218750
vt 0.250000 0.218750
vt 0.726562 0.531250
vt 0.523438 0.531250
vt 0.500000 0.312500
vt 0.750000 0.312500
vt 0.750000 0.718750
vt 0.500000 0.718750
vt 0.523438 0.500000
vt 0.726562 0.500000
vt 0.000000 0.687500
vt 0.000000 0.502132
vt 0.216657 0.500000
vt 0.218750 0.718750
vt 0.218750 0.218750
vt 0.218750 0.000000
vt 0.001807 0.000000
vt 0.000000 0.187500
vt 0.226562 0.500000
vt 0.023438 0.500000
vt 0.000000 0.718750
vt 0.250000 0.718750
vt 0.000000 0.718750
vt 0.250000 0.718750
vt 0.226562 0.500000
vt 0.023438 0.500000
vt 0.023438 0.531250
vt 0.000000 0.312500
vt 0.250000 0.312500
vt 0.226562 0.531250
vt 0.312500 0.718750
vt 0.062500 0.718750
vt 0.085938 0.500000
vt 0.289062 0.500000
vn -0.3827 0.9239 0.0000
vn 0.3827 -0.9239 -0.0000
vn -0.7071 0.7071 0.0000
vn 0.7071 -0.7071 -0.0000
vn -0.9239 0.3827 0.0000
vn 0.9239 -0.3827 -0.0000
vn -1.0000 0.0000 0.0000
vn 1.0000 -0.0097 -0.0000
vn 0.0000 -1.0000 -0.0000
vn -0.2547 -0.9670 -0.0000
vn -0.6053 -0.7960 -0.0000
vn -0.8639 -0.5037 -0.0000
vn 0.9670 0.2547 0.0000
vn 0.7960 0.6053 0.0000
vn 0.5037 0.8639 0.0000
vn 0.1348 0.9909 0.0000
vn 0.3827 0.9239 0.0000
vn -0.3827 -0.9239 -0.0000
vn 0.7071 0.7071 0.0000
vn -0.7071 -0.7071 -0.0000
vn 0.9239 0.3827 0.0000
vn -0.9239 -0.3827 -0.0000
vn 1.0000 0.0000 0.0000
vn -1.0000 -0.0097 -0.0000
vn 0.0000 1.0000 0.0000
vn 0.2547 -0.9670 -0.0000
vn 0.6053 -0.7960 -0.0000
vn 0.8639 -0.5037 -0.0000
vn 0.9909 -0.1348 -0.0000
vn -0.9670 0.2547 0.0000
vn -0.7960 0.6053 0.0000
vn -0.5037 0.8639 0.0000
vn -0.1348 0.9909 0.0000
vn -0.9909 -0.1348 -0.0000
vn 0.0000 -0.0000 1.0000
vn 0.0000 0.0000 -1.0000
usemtl m_arch
s 1
f 41/90/11 42/91/11 43/92/11 44/93/11
f 45/94/12 46/95/12 47/96/12 48/97/12
f 49/98/13 50/99/13 51/100/13 52/101/13
f 53/102/14 54/103/14 46/104/14 45/105/14
f 55/106/15 56/107/15 57/108/15 58/109/15
f 59/110/16 60/111/16 54/112/16 53/113/16
f 61/114/17 62/115/17 63/116/17 64/117/17
f 65/118/18 66/119/18 60/120/18 59/121/18
f 61/114/19 66/122/19 65/123/19 62/115/19
f 56/107/20 55/106/20 60/124/20 59/125/20
f 50/126/21 49/127/21 54/128/21 53/129/21
f 42/91/22 41/90/22 46/130/22 45/131/22
f 44/132/23 43/133/23 48/134/23 47/135/23
f 52/136/24 51/137/24 45/138/24 46/139/24
f 58/140/25 57/141/25 53/142/25 54/143/25
f 64/144/26 63/145/26 59/146/26 60/147/26
f 67/148/27 68/149/27 69/150/27 70/151/27
f 71/152/28 72/153/28 73/154/28 74/155/28
f 75/156/29 76/157/29 77/158/29 78/159/29
f 72/160/30 79/161/30 80/162/30 73/163/30
f 81/164/31 82/165/31 83/166/31 84/167/31
f 79/168/32 85/169/32 86/170/32 80/171/32
f 87/172/33 88/173/33 89/174/33 90/175/33
f 85/176/34 91/177/34 92/178/34 86/179/34
f 93/180/35 94/181/35 95/182/35 96/183/35
f 47/184/19 71/185/19 74/186/19 48/187/19
f 92/188/19 91/189/19 89/174/19 88/173/19
f 85/190/36 83/191/36 82/192/36 86/193/36
f 79/194/37 77/195/37 76/196/37 80/197/37
f 72/198/38 69/199/38 68/200/38 73/201/38
f 71/202/39 95/203/39 94/204/39 74/205/39
f 74/206/40 67/207/40 70/208/40 71/209/40
f 73/210/41 75/211/41 78/212/41 72/213/41
f 80/214/42 81/164/42 84/167/42 79/215/42
f 86/216/43 87/217/43 90/218/43 85/219/43
f 93/220/44 96/221/44 47/222/44 48/223/44
usemtl m_keystones
f 42/224/45 45/225/45 48/226/45 43/227/45
f 46/228/46 41/229/46 44/230/46 47/231/46
f 50/232/45 53/233/45 45/234/45 51/235/45
f 56/236/45 59/237/45 53/238/45 57/239/45
f 60/240/46 55/241/46 58/242/46 54/243/46
f 62/244/45 65/245/45 59/246/45 63/247/45
f 66/248/46 61/249/46 64/250/46 60/251/46
f 74/252/45 73/253/45 68/254/45 67/255/45
f 70/256/46 69/257/46 72/258/46 71/259/46
f 73/260/45 80/261/45 76/262/45 75/263/45
f 80/264/45 86/265/45 82/266/45 81/267/45
f 84/268/46 83/269/46 85/270/46 79/271/46
f 86/272/45 92/273/45 88/274/45 87/275/45
f 90/276/46 89/277/46 91/278/46 85/279/46
f 48/280/45 74/281/45 94/282/45 93/283/45
f 96/284/46 95/285/46 71/286/46 47/287/46
f 54/288/46 49/289/46 52/290/46 46/291/46
f 78/292/46 77/293/46 79/294/46 72/295/46
