# Blender v3.2.2 OBJ File: ''
# www.blender.org
mtllib generic_arch.mtl
o arch_3_left
v 0.334756 0.471792 0.045313
v 0.790244 0.208816 0.045313
v 0.790244 0.208816 -0.045312
v 0.334756 0.471792 -0.045312
v 0.073407 -0.115672 -0.045313
v 0.412159 -0.311251 -0.045313
v 0.412159 -0.311251 0.045312
v 0.073407 -0.115672 0.045312
v 0.816650 0.188554 0.045313
v 1.188554 -0.183350 0.045312
v 1.188554 -0.183350 -0.045313
v 0.816650 0.188554 -0.045312
v 0.688749 -0.587841 -0.045313
v 0.688749 -0.587841 0.045312
v 1.208816 -0.209756 0.045312
v 1.471792 -0.665244 0.045312
v 1.471792 -0.665244 -0.045313
v 1.208816 -0.209756 -0.045313
v 0.884328 -0.926593 -0.045313
v 0.884328 -0.926593 0.045312
v 1.484529 -0.695994 0.045312
v 1.620656 -1.204025 0.045312
v 1.620656 -1.204025 -0.045313
v 1.484529 -0.695994 -0.045313
v 0.985566 -1.304421 -0.045313
v 0.985566 -1.304421 0.045312
v 1.625000 -1.237024 0.045312
v 1.625000 -1.687500 0.045312
v 1.625000 -1.687500 -0.045313
v 1.625000 -1.237024 -0.045313
v 0.987087 -1.687500 -0.045313
v 0.987087 -1.684032 0.045312
vt 0.000000 1.000000
vt 0.500000 1.000000
vt 0.500000 0.937500
vt 0.000000 0.937500
vt 0.500000 0.625000
vt 0.000000 0.625000
vt 0.062500 0.000000
vt 0.484375 0.000000
vt 0.625000 1.000000
vt 1.000000 1.000000
vt 1.000000 0.937500
vt 0.625000 0.937500
vt 0.562500 0.000000
vt 0.984375 0.000000
vt 1.000000 0.625000
vt 0.500000 0.624998
vt 0.125000 1.000000
vt 0.500000 1.000000
vt 0.500000 0.937500
vt 0.125000 0.937500
vt 0.062500 0.000000
vt 0.484375 0.000000
vt 0.500000 0.625000
vt 0.000000 0.624998
vt 0.500000 1.000000
vt 1.000000 1.000000
vt 1.000000 0.937500
vt 0.500000 0.937500
vt 0.500000 0.625000
vt 1.000000 0.625000
vt 0.984375 0.000000
vt 0.562500 0.000000
vt 0.000000 1.000000
vt 0.500000 1.000000
vt 0.500000 0.937500
vt 0.000000 0.937500
vt 0.062500 0.625000
vt 0.500000 0.625000
vt 0.500000 0.000000
vt 0.125000 0.000002
vt 0.500000 0.937500
vt 0.500000 1.000000
vt 0.000000 1.000000
vt 0.000000 0.937500
vt 1.000000 0.937500
vt 1.000000 1.000000
vt 0.500000 0.937500
vt 0.500000 1.000000
vt 0.000000 1.000000
vt 0.000000 0.937500
vt 0.500000 1.000000
vt 0.500000 0.937500
vt 0.500000 0.937500
vt 0.500000 1.000000
vt 0.000000 1.000000
vt 0.000000 0.937500
vt 0.125000 1.000000
vt 0.125000 0.937500
vt 0.062500 0.000000
vt 0.484375 0.000000
vt 0.500000 0.625000
vt 0.000000 0.624998
vt 0.500000 1.000000
vt 1.000000 1.000000
vt 1.000000 0.937500
vt 0.500000 0.937500
vt 1.000000 0.625000
vt 0.500000 0.625000
vt 0.562500 0.000000
vt 0.984375 0.000000
vt 0.000000 1.000000
vt 0.500000 1.000000
vt 0.500000 0.937500
vt 0.000000 0.937500
vt 0.000000 0.625000
vt 0.500000 0.625000
vt 0.484375 0.000000
vt 0.062500 0.000002
vt 0.625000 1.000000
vt 1.000000 1.000000
vt 1.000000 0.937500
vt 0.625000 0.937500
vt 0.562500 0.000000
vt 0.984375 0.000000
vt 1.000000 0.625000
vt 0.500000 0.624998
vt 0.125000 1.000000
vt 0.125000 0.937500
vt 0.125000 0.000000
vt 0.500000 0.000000
vt 0.500000 0.623239
vt 0.062500 0.625000
vt 0.500000 0.937500
vt 0.500000 1.000000
vt 0.000000 1.000000
vt 0.000000 0.937500
vt 0.500000 0.937500
vt 0.500000 1.000000
vt 0.000000 1.000000
vt 0.000000 0.937500
vt 0.500000 1.000000
vt 0.500000 0.937500
vt 0.000000 1.000000
vt 0.000000 0.937500
vt 1.000000 0.937500
vt 1.000000 1.000000
vn 0.5000 0.8660 0.0000
vn -0.0000 0.0000 -1.0000
vn -0.7071 -0.7071 0.0000
vn -0.0000 -0.0000 1.0000
vn -0.8660 -0.5000 0.0000
vn 0.9659 0.2588 0.0000
vn 1.0000 -0.0000 0.0000
vn -0.5880 0.8088 0.0000
vn -0.3586 0.9335 0.0000
vn 0.0000 -0.9993 0.0383
vn -0.0000 -0.9993 0.0382
vn 0.6291 -0.7773 0.0000
vn 0.8088 -0.5880 0.0000
vn -0.5000 -0.8660 0.0000
vn 0.7071 0.7071 0.0000
vn 0.8660 0.5000 0.0000
vn -0.9659 -0.2588 0.0000
vn -1.0000 -0.0040 0.0001
vn -0.9137 0.4065 0.0000
vn -0.1048 0.9945 0.0000
vn 0.1561 -0.9877 0.0000
vn 0.4065 -0.9137 0.0000
vn -0.7773 0.6291 0.0000
usemtl m_big_arch
s 1
f 1/1/1 2/2/1 3/3/1 4/4/1
f 4/5/2 3/6/2 6/7/2 5/8/2
f 6/9/3 13/10/3 14/11/3 7/12/3
f 7/13/4 14/14/4 10/15/4 9/16/4
f 13/17/5 19/18/5 20/19/5 14/20/5
f 14/21/4 20/22/4 16/23/4 15/24/4
f 21/25/6 22/26/6 23/27/6 24/28/6
f 24/29/2 23/30/2 25/31/2 19/32/2
f 27/33/7 28/34/7 29/35/7 30/36/7
f 30/37/2 29/38/2 31/39/2 25/40/2
f 15/41/8 18/42/8 13/43/8 14/44/8
f 21/45/9 24/46/9 19/18/9 20/19/9
f 32/47/10 31/48/11 29/49/10 28/50/11
f 14/11/12 13/10/12 11/51/12 10/52/12
f 7/53/13 6/54/13 3/55/13 2/56/13
usemtl m_arch
f 5/57/14 6/54/14 7/53/14 8/58/14
f 8/59/4 7/60/4 2/61/4 1/62/4
f 9/63/15 10/64/15 11/65/15 12/66/15
f 12/67/2 11/68/2 13/69/2 6/70/2
f 15/71/16 16/72/16 17/73/16 18/74/16
f 18/75/2 17/76/2 19/77/2 13/78/2
f 19/79/17 25/80/17 26/81/17 20/82/17
f 20/83/4 26/84/4 22/85/4 21/86/4
f 25/87/18 31/48/18 32/47/18 26/88/18
f 26/89/4 32/90/4 28/91/4 27/92/4
f 1/93/19 4/94/19 5/95/19 8/96/19
f 27/97/20 30/98/20 25/99/20 26/100/20
f 26/81/21 25/80/21 23/101/21 22/102/21
f 20/19/22 19/18/22 17/103/22 16/104/22
f 9/105/23 12/106/23 6/54/23 7/53/23
o arch_3_left_inner
v 0.115282 0.528313 0.007813
v 0.499164 0.369304 0.007813
v 0.499164 0.369304 -0.007812
v 0.115282 0.528313 -0.007812
v -0.059489 -0.047830 0.007812
v 0.215351 -0.161672 0.007812
v 0.215351 -0.161672 -0.007813
v -0.059489 -0.047830 -0.007813
v 0.844648 0.138459 0.007813
v 0.844648 0.138459 -0.007812
v 0.462700 -0.326946 0.007812
v 0.462700 -0.326946 -0.007813
v 1.138459 -0.155352 0.007812
v 1.138459 -0.155352 -0.007813
v 0.673054 -0.537300 0.007812
v 0.673054 -0.537300 -0.007813
v 1.369304 -0.500836 0.007812
v 1.369304 -0.500836 -0.007813
v 0.838328 -0.784649 0.007812
v 0.838328 -0.784649 -0.007813
v 1.528313 -0.884718 0.007812
v 1.528313 -0.884718 -0.007813
v 0.952170 -1.059489 0.007812
v 0.952170 -1.059489 -0.007813
v 1.609375 -1.292245 0.007812
v 1.609375 -1.292245 -0.007813
v 1.010206 -1.351258 0.007812
v 1.010206 -1.351258 -0.007813
v 1.609375 -1.500000 0.007812
v 1.609375 -1.500000 -0.007813
v 1.010206 -1.500000 0.007812
v 1.010206 -1.500000 -0.007813
vt 0.093750 0.968750
vt 0.500000 0.968750
vt 0.500000 1.000000
vt 0.093750 1.000000
vt 0.406250 0.000000
vt 0.125000 0.000000
vt 0.062500 0.593750
vt 0.468750 0.593742
vt 0.062500 0.593750
vt 0.468750 0.593750
vt 0.406250 0.000000
vt 0.125000 0.000000
vt 0.093750 0.968750
vt 0.500000 0.968750
vt 0.500000 1.000000
vt 0.093750 1.000000
vt 0.406250 0.000000
vt 0.125000 0.000000
vt 0.062500 0.593750
vt 0.468750 0.593742
vt 0.062500 0.593750
vt 0.468750 0.593750
vt 0.406250 0.000000
vt 0.125000 0.000000
vt 0.093750 0.968750
vt 0.500000 0.968750
vt 0.500000 1.000000
vt 0.093750 1.000000
vt 0.406250 0.000000
vt 0.125000 0.000000
vt 0.062500 0.593750
vt 0.468750 0.593742
vt 0.062500 0.593750
vt 0.468750 0.593750
vt 0.406250 0.000000
vt 0.125000 0.000000
vt 0.281250 0.968750
vt 0.500000 0.968750
vt 0.500000 1.000000
vt 0.281250 1.000000
vt 0.343750 0.000000
vt 0.500000 0.000000
vt 0.500000 0.593750
vt 0.281250 0.593750
vt 0.062500 0.593750
vt 0.468750 0.593750
vt 0.406250 0.000000
vt 0.125000 0.000000
vt 0.093750 0.968750
vt 0.500000 0.968750
vt 0.500000 1.000000
vt 0.093750 1.000000
vt 0.406250 0.000000
vt 0.125000 0.000000
vt 0.062500 0.593750
vt 0.468750 0.593742
vt 0.062500 0.593750
vt 0.468750 0.593750
vt 0.406250 0.000000
vt 0.125000 0.000000
vt 0.093750 0.968750
vt 0.500000 0.968750
vt 0.500000 1.000000
vt 0.093750 1.000000
vt 0.406250 0.000000
vt 0.125000 0.000000
vt 0.062500 0.593750
vt 0.468750 0.593742
vt 0.062500 0.593750
vt 0.468750 0.593750
vt 0.406250 0.000000
vt 0.125000 0.000000
vt 0.093750 0.968750
vt 0.500000 0.968750
vt 0.500000 1.000000
vt 0.093750 1.000000
vt 0.406250 0.000000
vt 0.125000 0.000000
vt 0.062500 0.593750
vt 0.468750 0.593742
vt 0.281250 0.593750
vt 0.500000 0.593750
vt 0.500000 0.000000
vt 0.343750 0.000000
vn 0.3827 0.9239 0.0000
vn 0.0000 -0.0000 1.0000
vn 0.0000 0.0000 -1.0000
vn 0.7071 0.7071 0.0000
vn 0.9239 0.3827 0.0000
vn 1.0000 0.0000 0.0000
vn 0.5556 0.8315 0.0000
vn 0.8315 0.5556 0.0000
vn 0.9808 0.1951 0.0000
usemtl m_arch
s 1
f 33/107/24 34/108/24 35/109/24 36/110/24
f 37/111/25 38/112/25 34/113/25 33/114/25
f 35/115/26 42/116/26 44/117/26 39/118/26
f 41/119/27 45/120/27 46/121/27 42/122/27
f 43/123/25 47/124/25 45/125/25 41/126/25
f 46/127/26 50/128/26 52/129/26 48/130/26
f 49/131/28 53/132/28 54/133/28 50/134/28
f 51/135/25 55/136/25 53/137/25 49/138/25
f 54/139/26 58/140/26 60/141/26 56/142/26
f 57/143/29 61/144/29 62/145/29 58/146/29
f 59/147/25 63/148/25 61/149/25 57/150/25
usemtl m_big_arch
f 36/151/26 35/152/26 39/153/26 40/154/26
f 34/155/30 41/156/30 42/157/30 35/158/30
f 38/159/25 43/160/25 41/161/25 34/162/25
f 42/163/26 46/164/26 48/165/26 44/166/26
f 45/167/31 49/168/31 50/169/31 46/170/31
f 47/171/25 51/172/25 49/173/25 45/174/25
f 50/175/26 54/176/26 56/177/26 52/178/26
f 53/179/32 57/180/32 58/181/32 54/182/32
f 55/183/25 59/184/25 57/185/25 53/186/25
f 58/187/26 62/188/26 64/189/26 60/190/26
