mtllib generic_arch.mtl

o arch_3_middle_inner
v 0.292245 1.609375 0.00625
v 0.292245 1.609375 -0.5187499999999999
v 0.3512575 1.01020625 0.00625
v 0.3512575 1.01020625 -0.5187499999999999
v -0.115281875 1.528313125 0.00625
v -0.115281875 1.528313125 -0.5187499999999999
v 0.05948875 0.95217 0.00625
v 0.05948875 0.95217 -0.5187499999999999
v 0.707755 1.609375 0.00625
v 0.707755 1.609375 -0.5187499999999999
v 0.6487425 1.01020625 0.00625
v 0.6487425 1.01020625 -0.5187499999999999
v 1.115281875 1.528313125 0.00625
v 1.115281875 1.528313125 -0.5187499999999999
v 0.94051125 0.95217 0.00625
v 0.94051125 0.95217 -0.5187499999999999
vt 0.09375 1
vt 0.09375 0.5625
vt 0.5 0.5625
vt 0.5 1
vt 0.0625 0.59375
vt 0.125 0
vt 0.40625 0
vt 0.46875 0.593749375
vt 0.40625 0
vt 0.46875 0.59375
vt 0.0625 0.59375
vt 0.125 6.249999999763389e-7
vt 0.09375 0.5625
vt 0.5 0.5625
vt 0.5 1
vt 0.09375 1
vt 0.40625 0
vt 0.125 0
vt 0.0625 0.59375
vt 0.46875 0.593741875
vt 0.0625 0.59375
vt 0.46875 0.59375
vt 0.40625 0
vt 0.125 0
vn -0.19508971899134028 0.9807854003521259 0
vn 0 0 1
vn 0 0 -1
vn 0.19508971899134028 0.9807854003521259 0
vn 0 0 1
vn 0 0 -1
usemtl m_big_arch
f 6/1/1 5/2/1 1/3/1 2/4/1
f 5/5/2 7/6/2 3/7/2 1/8/2
usemtl m_arch
f 8/9/3 6/10/3 2/11/3 4/12/3
usemtl m_big_arch
f 9/13/4 13/14/4 14/15/4 10/16/4
f 11/17/5 15/18/5 13/19/5 9/20/5
usemtl m_arch
f 10/21/6 14/22/6 16/23/6 12/24/6
o arch_3_middle
v 0.30442125 0.98556625 -0.5484375
v 0.30442125 0.98556625 0.035937500000000004
v 0.237024375 1.625 0.035937500000000004
v 0.237024375 1.625 -0.5484375
v -0.0734075 0.8843275 -0.5484375
v -0.0734075 0.8843275 0.035937500000000004
v -0.304005625 1.484529375 0.035937500000000004
v 0.204025 1.620655625 0.035937500000000004
v -0.304005625 1.484529375 -0.5484375
v 0.204025 1.620655625 -0.5484375
v 0.69557875 0.98556625 -0.5484375
v 0.69557875 0.98556625 0.035937500000000004
v 0.762975625 1.625 0.035937500000000004
v 0.762975625 1.625 -0.5484375
v 1.0734075 0.8843275 -0.5484375
v 1.0734075 0.8843275 0.035937500000000004
v 1.304005625 1.484529375 0.035937500000000004
v 0.795975 1.620655625 0.035937500000000004
v 1.304005625 1.484529375 -0.5484375
v 0.795975 1.620655625 -0.5484375
vt 0.5 1
vt 0.5 0.5
vt 1 0.5
vt 1 1
vt 1 0.5
vt 1 1
vt 0.625 1
vt 0.625 0.5
vt 0.5 0.624848125
vt 0.5625 0
vt 0.984375 0
vt 1 0.625
vt 0.984375 0
vt 1 0.625
vt 0.5 0.625
vt 0.5625 0
vt 1 1
vt 0.5 1
vt 0.5 0.5
vt 1 0.5
vt 1 1
vt 0.5 1
vt 0.5 0.5
vt 1 0.5
vt 0.5 1
vt 0 1
vt 0 0.5
vt 0.5 0.5
vt 0.5 1
vt 1 1
vt 1 0.5
vt 0.5 0.5
vt 1 1
vt 0.625 1
vt 0.625 0.5
vt 1 0.5
vt 0.5625 0
vt 0.984375 0
vt 1 0.625
vt 0.5 0.6249981250000001
vt 1 0.625
vt 0.5 0.625
vt 0.5625 0
vt 0.984375 0
vt 0.5 1
vt 0.5 0.5
vt 0 0.5
vt 0 1
vt 0.0625 1
vt 0.0625 0.5
vt 0.4375 0.5
vt 0.4375 1
vt 0.453125 0
vt 0.5 0.625
vt 0 0.625
vt 0.046875 0
vt 0 0.625
vt 0.046875 0
vt 0.453125 0
vt 0.5 0.625
vt 1 0.5
vt 1 1
vt 0.5 1
vt 0.5 0.5
vt 1 0.5
vt 1 1
vt 0.5 1
vt 0.5 0.5
vt 0.5 0.5
vt 0.5 1
vt 0 1
vt 0 0.5
vn -0.2588187866396618 0.9659258955439456 0
vn 0.2588186671819092 -0.9659259275525118 0
vn 0 0 1
vn 0 0 -1
vn 0.9877344417047236 0.15614311598741173 0
vn -0.9334751677804151 -0.3586420376048045 0
vn -0.9944911852931466 -0.10482023838091749 0
vn 0.25881878663966174 0.9659258955439456 0
vn -0.2588186671819092 -0.9659259275525118 0
vn 0 0 1
vn 0 0 -1
vn 0 1 0
vn 0 -1 0
vn 0 0 1
vn 0 0 -1
vn -0.9877344417047236 0.15614311598741173 0
vn 0.9334751677804151 -0.3586420376048045 0
vn 0.9944911852931466 -0.10482023838091759 0
usemtl m_arch
f 25/25/7 23/26/7 24/27/7 26/28/7
usemtl m_big_arch
f 22/29/8 21/30/8 17/31/8 18/32/8
f 23/33/9 22/34/9 18/35/9 24/36/9
usemtl m_arch
f 21/37/10 25/38/10 26/39/10 17/40/10
usemtl m_big_arch
f 17/41/11 26/42/11 24/43/11 18/44/11
usemtl m_arch
f 25/45/12 21/46/12 22/47/12 23/48/12
usemtl m_big_arch
f 20/49/13 17/50/13 18/51/13 19/52/13
f 34/53/14 33/54/14 35/55/14 36/56/14
usemtl m_arch
f 27/57/15 31/58/15 32/59/15 28/60/15
f 28/61/16 32/62/16 33/63/16 34/64/16
usemtl m_big_arch
f 36/65/17 35/66/17 31/67/17 27/68/17
usemtl m_arch
f 29/69/18 30/70/18 20/71/18 19/72/18
usemtl m_big_arch
f 27/73/19 28/74/19 18/75/19 17/76/19
f 28/77/20 29/78/20 19/79/20 18/80/20
usemtl m_arch
f 30/81/21 27/82/21 17/83/21 20/84/21
usemtl m_big_arch
f 34/85/22 36/86/22 27/87/22 28/88/22
usemtl m_arch
f 32/89/23 31/90/23 35/91/23 33/92/23
f 28/93/24 27/94/24 30/95/24 29/96/24