mtllib generic_arch.mtl

o arch_3_left
v 0.0734075 0.8843275 -0.5453125
v 0.0734075 0.8843275 0.0453125
v 0.412159375 0.68874875 -0.5453125
v 0.412159375 0.68874875 0.0453125
v 0.79024375 1.20881625 0.0453125
v 0.33475625 1.471791875 0.0453125
v 0.79024375 1.20881625 -0.5453125
v 0.33475625 1.471791875 -0.5453125
v 0.68874875 0.412159375 -0.5453125
v 0.68874875 0.412159375 0.0453125
v 1.18855375 0.81665 0.0453125
v 0.81665 1.18855375 0.0453125
v 1.18855375 0.81665 -0.5453125
v 0.81665 1.18855375 -0.5453125
v 1.20881625 0.79024375 -0.5453125
v 1.471791875 0.33475625 -0.5453125
v 0.8843275 0.0734075 -0.5453125
v 0.8843275 0.0734075 0.0453125
v 1.471791875 0.33475625 0.0453125
v 1.20881625 0.79024375 0.0453125
v 0.98556625 -0.30442125 -0.5453125
v 0.98556625 -0.30442125 0.0453125
v 1.620655625 -0.204025 0.0453125
v 1.484529375 0.304005625 0.0453125
v 1.620655625 -0.204025 -0.5453125
v 1.484529375 0.304005625 -0.5453125
v 1.625 -0.237024375 -0.5453125
v 1.625 -0.6875 -0.5453125
v 0.98708625 -0.6875 -0.5453125
v 1.625 -0.237024375 0.0453125
v 1.625 -0.6875 0.0453125
v 0.98708625 -0.684031875 0.0453125
vt 0 1
vt 0.5 1
vt 0.5 0.5
vt 0 0.5
vt 0.125 1
vt 0.5 1
vt 0.5 0.5
vt 0.125 0.5
vt 0.0625 0
vt 0.484375 0
vt 0.5 0.625
vt 0 0.6249981250000001
vt 0.5 0.625
vt 0 0.625
vt 0.0625 0
vt 0.484375 0
vt 0.5 1
vt 1 1
vt 1 0.5
vt 0.5 0.5
vt 0.625 1
vt 1 1
vt 1 0.5
vt 0.625 0.5
vt 0.5625 0
vt 0.984375 0
vt 1 0.625
vt 0.5 0.6249981250000001
vt 1 0.625
vt 0.5 0.625
vt 0.5625 0
vt 0.984375 0
vt 0 1
vt 0.5 1
vt 0.5 0.5
vt 0 0.5
vt 0.125 1
vt 0.5 1
vt 0.5 0.5
vt 0.125 0.5
vt 0.0625 0
vt 0.484375 0
vt 0.5 0.625
vt 0 0.6249981250000001
vt 0 0.625
vt 0.5 0.625
vt 0.484375 0
vt 0.0625 0.0000012499999999526779
vt 0.5 1
vt 1 1
vt 1 0.5
vt 0.5 0.5
vt 0.625 1
vt 1 1
vt 1 0.5
vt 0.625 0.5
vt 0.5625 0
vt 0.984375 0
vt 1 0.625
vt 0.5 0.6249981250000001
vt 0.5 0.625
vt 1 0.625
vt 0.984375 0
vt 0.5625 0
vt 0 1
vt 0.5 1
vt 0.5 0.5
vt 0 0.5
vt 0.125 1
vt 0.5 1
vt 0.5 0.5
vt 0.125 0.5
vt 0.125 0
vt 0.5 0
vt 0.5 0.623239375
vt 0.0625 0.625
vt 0.0625 0.625
vt 0.5 0.625
vt 0.5 0
vt 0.125 0.0000012499999999526779
vt 0.5 0.5
vt 0.5 1
vt 0 1
vt 0 0.5
vt 0.5 0.5
vt 0.5 1
vt 0 1
vt 0 0.5
vt 1 0.5
vt 1 1
vt 0.5 1
vt 0.5 0.5
vt 0.5 0.5
vt 0.5 1
vt 0 1
vt 0 0.5
vt 0.5 0.5
vt 0.5 1
vt 0 1
vt 0 0.5
vt 1 0.5
vt 1 1
vt 0.5 1
vt 0.5 0.5
vt 0.5 0.5
vt 0.5 1
vt 0 1
vt 0 0.5
vt 1 0.5
vt 1 1
vt 0.5 1
vt 0.5 0.5
vt 0.5 0.5
vt 0.5 1
vt 0 1
vt 0 0.5
vt 1 0.5
vt 1 1
vt 0.5 1
vt 0.5 0.5
vn 0.49999970662099064 0.8660255731668225 0
vn -0.500000505769061 -0.8660251117783383 0
vn 0 0 1
vn 0 0 -1
vn 0.7071067811865476 0.7071067811865476 0
vn -0.7071067811865476 -0.7071067811865476 0
vn 0 0 1
vn 0 0 -1
vn 0.8660255731668225 0.49999970662099064 0
vn -0.8660251117783383 -0.500000505769061 0
vn 0 0 1
vn 0 0 -1
vn 0.9659258955439456 0.2588187866396618 0
vn -0.9659259275525117 -0.2588186671819092 0
vn 0 0 1
vn 0 0 -1
vn 1 0 0
vn -0.9999921278945523 -0.003967821327598558 0.00002329887888554999
vn 0 0 1
vn 0 0 -1
vn -0.9136651817960834 0.40646763164307476 0
vn -0.5880226288830158 0.8088444769679196 0
vn -0.3586420376048045 0.9334751677804151 0
vn -0.10482023838091749 0.9944911852931466 0
vn 0 -0.9999827605023601 0.00587185644235732
vn 0.15614311598741173 -0.9877344417047236 0
vn 0.40646763164307476 -0.9136651817960834 0
vn 0.6290916562138928 -0.7773311315533822 0
vn 0.8088444769679196 -0.5880226288830158 0
vn -0.7773311315533822 0.6290916562138928 0
usemtl m_big_arch
f 6/1/1 5/2/1 7/3/1 8/4/1
usemtl m_arch
f 1/5/2 3/6/2 4/7/2 2/8/2
f 2/9/3 4/10/3 5/11/3 6/12/3
usemtl m_big_arch
f 8/13/4 7/14/4 3/15/4 1/16/4
usemtl m_arch
f 12/17/5 11/18/5 13/19/5 14/20/5
usemtl m_big_arch
f 3/21/6 9/22/6 10/23/6 4/24/6
f 4/25/7 10/26/7 11/27/7 12/28/7
usemtl m_arch
f 14/29/8 13/30/8 9/31/8 3/32/8
f 20/33/9 19/34/9 16/35/9 15/36/9
usemtl m_big_arch
f 9/37/10 17/38/10 18/39/10 10/40/10
f 10/41/11 18/42/11 19/43/11 20/44/11
usemtl m_arch
f 15/45/12 16/46/12 17/47/12 9/48/12
usemtl m_big_arch
f 24/49/13 23/50/13 25/51/13 26/52/13
usemtl m_arch
f 17/53/14 21/54/14 22/55/14 18/56/14
f 18/57/15 22/58/15 23/59/15 24/60/15
usemtl m_big_arch
f 26/61/16 25/62/16 21/63/16 17/64/16
f 30/65/17 31/66/17 28/67/17 27/68/17
usemtl m_arch
f 21/69/18 29/70/18 32/71/18 22/72/18
f 22/73/19 32/74/19 31/75/19 30/76/19
usemtl m_big_arch
f 27/77/20 28/78/20 29/79/20 21/80/20
usemtl m_arch
f 6/81/21 8/82/21 1/83/21 2/84/21
usemtl m_big_arch
f 20/85/22 15/86/22 9/87/22 10/88/22
f 24/89/23 26/90/23 17/91/23 18/92/23
usemtl m_arch
f 30/93/24 27/94/24 21/95/24 22/96/24
usemtl m_big_arch
f 32/97/25 29/98/25 28/99/25 31/100/25
usemtl m_arch
f 22/101/26 21/102/26 25/103/26 23/104/26
f 18/105/27 17/106/27 16/107/27 19/108/27
usemtl m_big_arch
f 10/109/28 9/110/28 13/111/28 11/112/28
f 4/113/29 3/114/29 7/115/29 5/116/29
usemtl m_arch
f 12/117/30 14/118/30 3/119/30 4/120/30
o arch_3_left_inner
v 0.115281875 1.528313125 0.0078125
v 0.115281875 1.528313125 -0.5078125
v -0.05948875 0.95217 0.0078125
v -0.05948875 0.95217 -0.5078125
v 0.49916375 1.36930375 0.0078125
v 0.49916375 1.36930375 -0.5078125
v 0.21535125 0.8383275 0.0078125
v 0.21535125 0.8383275 -0.5078125
v 0.844648125 1.13845875 0.0078125
v 0.844648125 1.13845875 -0.5078125
v 0.462700625 0.67305375 0.0078125
v 0.462700625 0.67305375 -0.5078125
v 1.13845875 0.844648125 0.0078125
v 1.13845875 0.844648125 -0.5078125
v 0.67305375 0.462700625 0.0078125
v 0.67305375 0.462700625 -0.5078125
v 1.36930375 0.49916375 0.0078125
v 1.36930375 0.49916375 -0.5078125
v 0.8383275 0.21535125 0.0078125
v 0.8383275 0.21535125 -0.5078125
v 1.528313125 0.115281875 0.0078125
v 1.528313125 0.115281875 -0.5078125
v 0.95217 -0.05948875 0.0078125
v 0.95217 -0.05948875 -0.5078125
v 1.609375 -0.292245 0.0078125
v 1.609375 -0.292245 -0.5078125
v 1.01020625 -0.3512575 0.0078125
v 1.01020625 -0.3512575 -0.5078125
v 1.609375 -0.5 0.0078125
v 1.609375 -0.5 -0.5078125
v 1.01020625 -0.5 0.0078125
v 1.01020625 -0.5 -0.5078125
vt 0.09375 0.5625
vt 0.5 0.5625
vt 0.5 1
vt 0.09375 1
vt 0.40625 0
vt 0.125 0
vt 0.0625 0.59375
vt 0.46875 0.593741875
vt 0.0625 0.59375
vt 0.46875 0.59375
vt 0.40625 0
vt 0.125 0
vt 0.09375 0.5625
vt 0.5 0.5625
vt 0.5 1
vt 0.09375 1
vt 0.40625 0
vt 0.125 0
vt 0.0625 0.59375
vt 0.46875 0.593741875
vt 0.0625 0.59375
vt 0.46875 0.59375
vt 0.40625 0
vt 0.125 0
vt 0.09375 0.5625
vt 0.5 0.5625
vt 0.5 1
vt 0.09375 1
vt 0.40625 0
vt 0.125 0
vt 0.0625 0.59375
vt 0.46875 0.593741875
vt 0.0625 0.59375
vt 0.46875 0.59375
vt 0.40625 0
vt 0.125 0
vt 0.09375 0.5625
vt 0.5 0.5625
vt 0.5 1
vt 0.09375 1
vt 0.40625 0
vt 0.125 0
vt 0.0625 0.59375
vt 0.46875 0.593741875
vt 0.0625 0.59375
vt 0.46875 0.59375
vt 0.40625 0
vt 0.125 0
vt 0.09375 0.5625
vt 0.5 0.5625
vt 0.5 1
vt 0.09375 1
vt 0.40625 0
vt 0.125 0
vt 0.0625 0.59375
vt 0.46875 0.593741875
vt 0.0625 0.59375
vt 0.46875 0.59375
vt 0.40625 0
vt 0.125 0
vt 0.09375 0.5625
vt 0.5 0.5625
vt 0.5 1
vt 0.09375 1
vt 0.40625 0
vt 0.125 0
vt 0.0625 0.59375
vt 0.46875 0.593741875
vt 0.0625 0.59375
vt 0.46875 0.59375
vt 0.40625 0
vt 0.125 0
vt 0.28125 0.5625
vt 0.5 0.5625
vt 0.5 1
vt 0.28125 1
vt 0.34375 0
vt 0.5 0
vt 0.5 0.59375
vt 0.28125 0.59375
vt 0.28125 0.59375
vt 0.5 0.59375
vt 0.5 0
vt 0.34375 0
vt 0.3125 1
vt 0.3125 0.5625
vt 0 0.5625
vt 0 1
vt 0.03125 0.40625
vt 0.46875 0.40625
vt 0.46875 1
vt 0.03125 1
vn 0.3826840404690011 0.9238792806261651 0
vn 0 0 1
vn 0 0 -1
vn 0.5555697686260095 0.8314699226002361 0
vn 0 0 1
vn 0 0 -1
vn 0.7071067811865476 0.7071067811865476 0
vn 0 0 1
vn 0 0 -1
vn 0.8314699226002361 0.5555697686260095 0
vn 0 0 1
vn 0 0 -1
vn 0.9238792806261651 0.3826840404690011 0
vn 0 0 1
vn 0 0 -1
vn 0.980785400352126 0.1950897189913403 0
vn 0 0 1
vn 0 0 -1
vn 1 0 0
vn 0 0 1
vn 0 0 -1
vn -0.38268356009589294 -0.9238794796034454 0
vn -0.9569405577743869 0.29028394527849 0
usemtl m_arch
f 33/121/31 37/122/31 38/123/31 34/124/31
f 35/125/32 39/126/32 37/127/32 33/128/32
usemtl m_big_arch
f 34/129/33 38/130/33 40/131/33 36/132/33
f 37/133/34 41/134/34 42/135/34 38/136/34
f 39/137/35 43/138/35 41/139/35 37/140/35
usemtl m_arch
f 38/141/36 42/142/36 44/143/36 40/144/36
f 41/145/37 45/146/37 46/147/37 42/148/37
f 43/149/38 47/150/38 45/151/38 41/152/38
usemtl m_big_arch
f 42/153/39 46/154/39 48/155/39 44/156/39
f 45/157/40 49/158/40 50/159/40 46/160/40
f 47/161/41 51/162/41 49/163/41 45/164/41
usemtl m_arch
f 46/165/42 50/166/42 52/167/42 48/168/42
f 49/169/43 53/170/43 54/171/43 50/172/43
f 51/173/44 55/174/44 53/175/44 49/176/44
usemtl m_big_arch
f 50/177/45 54/178/45 56/179/45 52/180/45
f 53/181/46 57/182/46 58/183/46 54/184/46
f 55/185/47 59/186/47 57/187/47 53/188/47
usemtl m_arch
f 54/189/48 58/190/48 60/191/48 56/192/48
f 57/193/49 61/194/49 62/195/49 58/196/49
f 59/197/50 63/198/50 61/199/50 57/200/50
usemtl m_big_arch
f 58/201/51 62/202/51 64/203/51 60/204/51
usemtl m_arch
f 40/205/52 39/206/52 35/207/52 36/208/52
f 36/209/53 35/210/53 33/211/53 34/212/53