mtllib generic_arch.mtl

o arch_3_right_inner
v 0.8847181249999999 1.528313125 -0.5078125000000001
v 0.884718125 1.528313125 0.007812499999999889
v 1.05948875 0.95217 -0.5078125000000001
v 1.05948875 0.95217 0.007812499999999889
v 0.5008362499999999 1.36930375 -0.5078125000000001
v 0.50083625 1.36930375 0.007812499999999889
v 0.7846487499999999 0.8383275 -0.5078125000000001
v 0.78464875 0.8383275 0.007812499999999889
v 0.15535187499999994 1.13845875 -0.5078125
v 0.155351875 1.13845875 0.0078125
v 0.5372993749999999 0.67305375 -0.5078125000000001
v 0.537299375 0.67305375 0.007812499999999889
v -0.13845875000000005 0.844648125 -0.5078125
v -0.13845875 0.844648125 0.0078125
v 0.32694624999999994 0.462700625 -0.5078125
v 0.32694625 0.462700625 0.0078125
v -0.36930375000000004 0.49916375 -0.5078125
v -0.36930375 0.49916375 0.0078125
v 0.16167249999999994 0.21535125 -0.5078125
v 0.1616725 0.21535125 0.0078125
v -0.5283131250000002 0.115281875 -0.5078124999999999
v -0.528313125 0.115281875 0.007812500000000111
v 0.047829999999999935 -0.05948875 -0.5078125
v 0.04783 -0.05948875 0.0078125
v -0.6093750000000001 -0.292245 -0.5078124999999999
v -0.609375 -0.292245 0.007812500000000111
v -0.010206250000000062 -0.3512575 -0.5078125
v -0.010206249999999998 -0.3512575 0.0078125
v -0.6093750000000001 -0.5 -0.5078124999999999
v -0.609375 -0.5 0.007812500000000111
v -0.010206250000000062 -0.5 -0.5078125
v -0.010206249999999998 -0.5 0.0078125
vt 0.09375 0.5625
vt 0.5 0.5625
vt 0.5 1
vt 0.09375 1
vt 0.40625 0
vt 0.125 0
vt 0.0625 0.59375
vt 0.46875 0.593741875
vt 0.0625 0.59375
vt 0.46875 0.59375
vt 0.40625 0
vt 0.125 0
vt 0.09375 0.5625
vt 0.5 0.5625
vt 0.5 1
vt 0.09375 1
vt 0.40625 0
vt 0.125 0
vt 0.0625 0.59375
vt 0.46875 0.593741875
vt 0.0625 0.59375
vt 0.46875 0.59375
vt 0.40625 0
vt 0.125 0
vt 0.09375 0.5625
vt 0.5 0.5625
vt 0.5 1
vt 0.09375 1
vt 0.40625 0
vt 0.125 0
vt 0.0625 0.59375
vt 0.46875 0.593741875
vt 0.0625 0.59375
vt 0.46875 0.59375
vt 0.40625 0
vt 0.125 0
vt 0.09375 0.5625
vt 0.5 0.5625
vt 0.5 1
vt 0.09375 1
vt 0.40625 0
vt 0.125 0
vt 0.0625 0.59375
vt 0.46875 0.593741875
vt 0.0625 0.59375
vt 0.46875 0.59375
vt 0.40625 0
vt 0.125 0
vt 0.09375 0.5625
vt 0.5 0.5625
vt 0.5 1
vt 0.09375 1
vt 0.40625 0
vt 0.125 0
vt 0.0625 0.59375
vt 0.46875 0.593741875
vt 0.0625 0.59375
vt 0.46875 0.59375
vt 0.40625 0
vt 0.125 0
vt 0.09375 0.5625
vt 0.5 0.5625
vt 0.5 1
vt 0.09375 1
vt 0.40625 0
vt 0.125 0
vt 0.0625 0.59375
vt 0.46875 0.593741875
vt 0.0625 0.59375
vt 0.46875 0.59375
vt 0.40625 0
vt 0.125 0
vt 0.28125 0.5625
vt 0.5 0.5625
vt 0.5 1
vt 0.28125 1
vt 0.34375 0
vt 0.5 0
vt 0.5 0.59375
vt 0.28125 0.59375
vt 0.28125 0.59375
vt 0.5 0.59375
vt 0.5 0
vt 0.34375 0
vt 0.28124999999999994 1
vt 0.28124999999999994 0.5625
vt 0 0.5625
vt 0 1
vt 0.03125 0.40625
vt 0.46875 0.40625
vt 0.46875 1
vt 0.03125 1
vn -0.3826840404690011 0.9238792806261651 4.686527852451384e-17
vn -1.2246467991473532e-16 0 -1
vn 1.2246467991473532e-16 0 1
vn -0.5555697686260095 0.8314699226002361 6.803767388508781e-17
vn -1.2246467991473532e-16 0 -1
vn 1.2246467991473532e-16 0 1
vn -0.7071067811865477 0.7071067811865475 8.659560562354935e-17
vn -1.2246467991473532e-16 0 -1
vn 1.2246467991473532e-16 0 1
vn -0.8314699226002359 0.5555697686260095 1.0182569792996764e-16
vn -1.2246467991473532e-16 0 -1
vn 1.2246467991473532e-16 0 1
vn -0.923879280626165 0.38268404046900145 1.1314258038173921e-16
vn -1.2246467991473532e-16 0 -1
vn 1.2246467991473532e-16 0 1
vn -0.9807854003521259 0.19508971899134003 1.2011157011916864e-16
vn -1.2246467991473532e-16 0 -1
vn 1.2246467991473532e-16 0 1
vn -1 0 1.2246467991473532e-16
vn -1.2246467991473532e-16 0 -1
vn 1.2246467991473532e-16 0 1
vn 0.38268356009589294 -0.9238794796034456 -4.6865219695774906e-17
vn 0.9569405577743869 0.29028394527849005 -1.1719141910526857e-16
usemtl m_arch
f 1/1/1 5/2/1 6/3/1 2/4/1
f 3/5/2 7/6/2 5/7/2 1/8/2
usemtl m_big_arch
f 2/9/3 6/10/3 8/11/3 4/12/3
f 5/13/4 9/14/4 10/15/4 6/16/4
f 7/17/5 11/18/5 9/19/5 5/20/5
usemtl m_arch
f 6/21/6 10/22/6 12/23/6 8/24/6
f 9/25/7 13/26/7 14/27/7 10/28/7
f 11/29/8 15/30/8 13/31/8 9/32/8
usemtl m_big_arch
f 10/33/9 14/34/9 16/35/9 12/36/9
f 13/37/10 17/38/10 18/39/10 14/40/10
f 15/41/11 19/42/11 17/43/11 13/44/11
usemtl m_arch
f 14/45/12 18/46/12 20/47/12 16/48/12
f 17/49/13 21/50/13 22/51/13 18/52/13
f 19/53/14 23/54/14 21/55/14 17/56/14
usemtl m_big_arch
f 18/57/15 22/58/15 24/59/15 20/60/15
f 21/61/16 25/62/16 26/63/16 22/64/16
f 23/65/17 27/66/17 25/67/17 21/68/17
usemtl m_arch
f 22/69/18 26/70/18 28/71/18 24/72/18
f 25/73/19 29/74/19 30/75/19 26/76/19
f 27/77/20 31/78/20 29/79/20 25/80/20
usemtl m_big_arch
f 26/81/21 30/82/21 32/83/21 28/84/21
usemtl m_arch
f 8/85/22 7/86/22 3/87/22 4/88/22
f 4/89/23 3/90/23 1/91/23 2/92/23
o arch_3_right
v 0.9265925 0.8843275 0.048437499999999856
v 0.9265924999999999 0.8843275 -0.5421875000000002
v 0.587840625 0.68874875 0.048437499999999856
v 0.5878406249999999 0.68874875 -0.5421875
v 0.20975624999999995 1.20881625 -0.5421875
v 0.6652437499999999 1.471791875 -0.5421875
v 0.20975625 1.20881625 0.04843749999999997
v 0.66524375 1.471791875 0.048437499999999856
v 0.31125125 0.412159375 0.04843749999999997
v 0.3112512499999999 0.412159375 -0.5421875
v -0.18855375000000005 0.81665 -0.5421875
v 0.18334999999999996 1.18855375 -0.5421875
v -0.18855375 0.81665 0.04843749999999997
v 0.18335 1.18855375 0.04843749999999997
v -0.20881625 0.79024375 0.04843749999999997
v -0.471791875 0.33475625 0.04843750000000008
v 0.11567250000000001 0.0734075 0.04843749999999997
v 0.11567249999999994 0.0734075 -0.5421875
v -0.4717918750000001 0.33475625 -0.5421874999999999
v -0.20881625000000006 0.79024375 -0.5421874999999999
v 0.014433750000000006 -0.30442125 0.04843749999999997
v 0.014433749999999934 -0.30442125 -0.5421875
v -0.6206556250000002 -0.204025 -0.5421874999999999
v -0.48452937500000004 0.304005625 -0.5421874999999999
v -0.620655625 -0.204025 0.04843750000000008
v -0.484529375 0.304005625 0.04843750000000008
v -0.625 -0.237024375 0.04843750000000008
v -0.625 -0.6875 0.04843750000000008
v 0.012913750000000005 -0.6875 0.04843749999999997
v -0.6250000000000001 -0.237024375 -0.5421874999999999
v -0.6250000000000001 -0.6875 -0.5421874999999999
v 0.012913749999999934 -0.684031875 -0.5421875
vt 0 1
vt 0.5 1
vt 0.5 0.5
vt 0 0.5
vt 0.125 1
vt 0.5 1
vt 0.5 0.5
vt 0.125 0.5
vt 0.0625 0
vt 0.484375 0
vt 0.5 0.625
vt 0 0.6249981250000001
vt 0.5 0.625
vt 0 0.625
vt 0.0625 0
vt 0.484375 0
vt 0.5 1
vt 1 1
vt 1 0.5
vt 0.5 0.5
vt 0.625 1
vt 1 1
vt 1 0.5
vt 0.625 0.5
vt 0.5625 0
vt 0.984375 0
vt 1 0.625
vt 0.5 0.6249981250000001
vt 1 0.625
vt 0.5 0.625
vt 0.5625 0
vt 0.984375 0
vt 0 1
vt 0.5 1
vt 0.5 0.5
vt 0 0.5
vt 0.125 1
vt 0.5 1
vt 0.5 0.5
vt 0.125 0.5
vt 0.0625 0
vt 0.484375 0
vt 0.5 0.625
vt 0 0.6249981250000001
vt 0 0.625
vt 0.5 0.625
vt 0.484375 0
vt 0.0625 0.0000012499999999526779
vt 0.5 1
vt 1 1
vt 1 0.5
vt 0.5 0.5
vt 0.625 1
vt 1 1
vt 1 0.5
vt 0.625 0.5
vt 0.5625 0
vt 0.984375 0
vt 1 0.625
vt 0.5 0.6249981250000001
vt 0.5 0.625
vt 1 0.625
vt 0.984375 0
vt 0.5625 0
vt 0 1
vt 0.5 1
vt 0.5 0.5
vt 0 0.5
vt 0.125 1
vt 0.5 1
vt 0.5 0.5
vt 0.125 0.5
vt 0.125 0
vt 0.5 0
vt 0.5 0.623239375
vt 0.0625 0.625
vt 0.0625 0.625
vt 0.5 0.625
vt 0.5 0
vt 0.125 0.0000012499999999526779
vt 0.5 0.5
vt 0.5 1
vt 0 1
vt 0 0.5
vt 0.5 0.5
vt 0.5 1
vt 0 1
vt 0 0.5
vt 1 0.5
vt 1 1
vt 0.5 1
vt 0.5 0.5
vt 0.5 0.5
vt 0.5 1
vt 0 1
vt 0 0.5
vt 0.5 0.5
vt 0.5 1
vt 0 1
vt 0 0.5
vt 1 0.5
vt 1 1
vt 0.5 1
vt 0.5 0.5
vt 0.5 0.5
vt 0.5 1
vt 0 1
vt 0 0.5
vt 1 0.5
vt 1 1
vt 0.5 1
vt 0.5 0.5
vt 0.5 0.5
vt 0.5 1
vt 0 1
vt 0 0.5
vt 1 0.5
vt 1 1
vt 0.5 1
vt 0.5 0.5
vn -0.49999970662099064 0.8660255731668225 6.123230402880118e-17
vn 0.5000005057690609 -0.8660251117783383 -6.123240189621381e-17
vn -1.2246467991473532e-16 0 -1
vn 1.2246467991473532e-16 0 1
vn -0.7071067811865477 0.7071067811865475 8.659560562354937e-17
vn 0.7071067811865476 -0.7071067811865476 -8.659560562354934e-17
vn -1.2246467991473532e-16 0 -1
vn 1.2246467991473532e-16 0 1
vn -0.8660255731668227 0.4999997066209906 1.0605754461585013e-16
vn 0.8660251117783385 -0.5000005057690609 -1.060574881120571e-16
vn -1.2246467991473532e-16 0 -1
vn 1.2246467991473532e-16 0 1
vn -0.9659258955439456 0.2588187866396619 1.1829180561914336e-16
vn 0.9659259275525117 -0.2588186671819094 -1.1829180953906218e-16
vn -1.2246467991473532e-16 0 -1
vn 1.2246467991473532e-16 0 1
vn -1 0 1.2246467991473532e-16
vn 0.9999921278945523 -0.003967821327598359 -0.000023298878885671017
vn -1.2246467991473532e-16 0 -1
vn 1.2246467991473532e-16 0 1
vn 0.9136651817960831 0.4064676316430747 -1.118917140378958e-16
vn 0.5880226288830156 0.8088444769679195 -7.20120030287797e-17
vn 0.35864203760480445 0.9334751677804151 -4.392098233924084e-17
vn 0.10482023838091749 0.9944911852931466 -1.2836776941905314e-17
vn -7.190950197185657e-19 -0.9999827605023601 -0.00587185644235732
vn -0.1561431159874117 -0.9877344417047236 1.9122016720287765e-17
vn -0.40646763164307476 -0.9136651817960834 4.977792840486969e-17
vn -0.6290916562138928 -0.777331131553382 7.70415083152651e-17
vn -0.8088444769679196 -0.5880226288830158 9.905487997267778e-17
vn 0.7773311315533822 0.6290916562138928 -9.519560821344395e-17
usemtl m_big_arch
f 38/93/24 37/94/24 39/95/24 40/96/24
usemtl m_arch
f 33/97/25 35/98/25 36/99/25 34/100/25
f 34/101/26 36/102/26 37/103/26 38/104/26
usemtl m_big_arch
f 40/105/27 39/106/27 35/107/27 33/108/27
usemtl m_arch
f 44/109/28 43/110/28 45/111/28 46/112/28
usemtl m_big_arch
f 35/113/29 41/114/29 42/115/29 36/116/29
f 36/117/30 42/118/30 43/119/30 44/120/30
usemtl m_arch
f 46/121/31 45/122/31 41/123/31 35/124/31
f 52/125/32 51/126/32 48/127/32 47/128/32
usemtl m_big_arch
f 41/129/33 49/130/33 50/131/33 42/132/33
f 42/133/34 50/134/34 51/135/34 52/136/34
usemtl m_arch
f 47/137/35 48/138/35 49/139/35 41/140/35
usemtl m_big_arch
f 56/141/36 55/142/36 57/143/36 58/144/36
usemtl m_arch
f 49/145/37 53/146/37 54/147/37 50/148/37
f 50/149/38 54/150/38 55/151/38 56/152/38
usemtl m_big_arch
f 58/153/39 57/154/39 53/155/39 49/156/39
f 62/157/40 63/158/40 60/159/40 59/160/40
usemtl m_arch
f 53/161/41 61/162/41 64/163/41 54/164/41
f 54/165/42 64/166/42 63/167/42 62/168/42
usemtl m_big_arch
f 59/169/43 60/170/43 61/171/43 53/172/43
usemtl m_arch
f 38/173/44 40/174/44 33/175/44 34/176/44
usemtl m_big_arch
f 52/177/45 47/178/45 41/179/45 42/180/45
f 56/181/46 58/182/46 49/183/46 50/184/46
usemtl m_arch
f 62/185/47 59/186/47 53/187/47 54/188/47
usemtl m_big_arch
f 64/189/48 61/190/48 60/191/48 63/192/48
usemtl m_arch
f 54/193/49 53/194/49 57/195/49 55/196/49
f 50/197/50 49/198/50 48/199/50 51/200/50
usemtl m_big_arch
f 42/201/51 41/202/51 45/203/51 43/204/51
f 36/205/52 35/206/52 39/207/52 37/208/52
usemtl m_arch
f 44/209/53 46/210/53 35/211/53 36/212/53