mtllib generic_arch.mtl

o arch_3_right
v 0.7446675 1.16236 -0.534375
v 1.014420625 0.42807125 0.034375000000000044
v 1.014420625 0.42807125 -0.534375
v -0.05001125 0.949745625 -0.534375
v -0.05001125 0.949745625 0.034375000000000044
v 1.057053125 0.978725 0.034375000000000044
v 1.31015875 0.784510625 0.034375000000000044
v 1.31015875 0.784510625 -0.534375
v 1.057053125 0.978725 -0.534375
v 0.781459375 0.605339375 -0.534375
v 0.781459375 0.605339375 0.034375000000000044
v 0.520168125 0.756195625 -0.534375
v 0.520168125 0.756195625 0.034375000000000044
v 1.0209575 1.002843125 0.034375000000000044
v 0.7446675 1.16236 0.034375000000000044
v 1.0209575 1.002843125 -0.534375
v 0.24142125 0.87165625 -0.534375
v 0.24142125 0.87165625 0.034375000000000044
v 0.7057325 1.18156 0.034375000000000044
v 0.410985 1.30364875 0.034375000000000044
v 0.7057325 1.18156 -0.534375
v 0.410985 1.30364875 -0.534375
v 0.3698775 1.3176025 0.034375000000000044
v 0.061715625 1.400174375 0.034375000000000044
v 0.3698775 1.3176025 -0.534375
v 0.061715625 1.400174375 -0.534375
vt 0.46875 0.5
vt 0.15625 0.5
vt 0.15625 1
vt 0.46875 1
vt 0.25 1
vt 0.5 1
vt 0.5 0.5
vt 0.25 0.5
vt 0.1953125 0
vt 0.4921875 0
vt 0.5 0.46875
vt 0.1875 0.4687475
vt 0.5 0.46875
vt 0.1875 0.46875
vt 0.1953125 0
vt 0.4921875 0
vt 0.5 0.5
vt 0.8125 0.5
vt 0.8125 1
vt 0.5 1
vt 0.75 0.5
vt 1 0.5
vt 1 1
vt 0.75 1
vt 0.6953125 0
vt 0.9921875 0
vt 1 0.46875
vt 0.6875 0.4687475
vt 1 0.46875
vt 0.6875 0.46875
vt 0.6953125 0
vt 0.9921875 0
vt 0.5 0.5
vt 0.1875 0.5
vt 0.1875 1
vt 0.5 1
vt 0.21875 1
vt 0.46875 1
vt 0.46875 0.5
vt 0.21875 0.5
vt 0.1953125 0
vt 0.4921875 0
vt 0.5 0.46875
vt 0.1875 0.4687475
vt 0.5 0.46875
vt 0.1875 0.46875
vt 0.1953125 0
vt 0.4921875 0
vt 0.5 0.5
vt 0.8125 0.5
vt 0.8125 1
vt 0.5 1
vt 0.75 1
vt 0.5 1
vt 0.5 0.5
vt 0.75 0.5
vt 0.6953125 0
vt 0.9921875 0
vt 1 0.46875
vt 0.6875 0.4687475
vt 1 0.46875
vt 0.6875 0.46875
vt 0.6953125 0
vt 0.9921875 0
vt 0.03125 0.5
vt 0.03125 1
vt 0.5 1
vt 0.5 0.5
vt 0.53125 0.5
vt 0.53125 1
vt 1 1
vt 1 0.5
vt 0 0.5
vt 0 1
vt 0.46875 1
vt 0.46875 0.5
vt 0.96875 0.5
vt 0.96875 1
vt 0.5 1
vt 0.5 0.5
vt 0.96875 0.5
vt 0.96875 1
vt 0.5 1
vt 0.5 0.5
vt 0.46875 0.5
vt 0.46875 1
vt 0 1
vt 0 0.5
vt 0.96875 0.5
vt 0.96875 1
vt 0.5 1
vt 0.5 0.5
vt 0.46875 0.5
vt 0.46875 1
vt 0 1
vt 0 0.5
vn 0.25881948218641077 0.965925709172687 0
vn -0.25881988615885715 -0.9659256009283098 0
vn 0 0 1
vn 0 0 -1
vn 0.382684336730078 0.9238791579105248 0
vn -0.38268311807753297 -0.9238796626933927 0
vn 0 0 1
vn 0 0 -1
vn 0.5000018081031774 0.8660243598730658 0
vn -0.4999991957808507 -0.8660258681000832 0
vn 0 0 1
vn 0 0 -1
vn 0.6087606361675768 0.7933539486590128 0
vn -0.6055542848323966 -0.795804001071322 0
vn 0 0 1
vn 0 0 -1
vn -0.9705871877295442 0.24074989307423283 0
vn -0.9308596869828034 0.3653768508680829 0
vn -0.8752049391192984 0.4837523276855475 0
vn -0.8045744932494843 0.5938517363890886 0
vn 0.7695942860974483 -0.6385331900584017 0
vn 0.8565447442817099 -0.5160727671979798 0
vn 0.9165782126374168 -0.39985544902926906 0
vn 0.9609280124543952 -0.2767984011522575 0
usemtl m_big_arch
f 24/1/1 23/2/1 25/3/1 26/4/1
f 4/5/2 17/6/2 18/7/2 5/8/2
usemtl m_arch
f 5/9/3 18/10/3 23/11/3 24/12/3
f 26/13/4 25/14/4 17/15/4 4/16/4
usemtl m_big_arch
f 20/17/5 19/18/5 21/19/5 22/20/5
f 17/21/6 12/22/6 13/23/6 18/24/6
usemtl m_arch
f 18/25/7 13/26/7 19/27/7 20/28/7
f 22/29/8 21/30/8 12/31/8 17/32/8
f 15/33/9 14/34/9 16/35/9 1/36/9
f 12/37/10 10/38/10 11/39/10 13/40/10
usemtl m_big_arch
f 13/41/11 11/42/11 14/43/11 15/44/11
f 1/45/12 16/46/12 10/47/12 12/48/12
usemtl m_arch
f 6/49/13 7/50/13 8/51/13 9/52/13
f 10/53/14 3/54/14 2/55/14 11/56/14
usemtl m_big_arch
f 11/57/15 2/58/15 7/59/15 6/60/15
f 9/61/16 8/62/16 3/63/16 10/64/16
f 24/65/17 26/66/17 4/67/17 5/68/17
usemtl m_arch
f 20/69/18 22/70/18 17/71/18 18/72/18
usemtl m_big_arch
f 15/73/19 1/74/19 12/75/19 13/76/19
usemtl m_arch
f 6/77/20 9/78/20 10/79/20 11/80/20
f 2/81/21 3/82/21 8/83/21 7/84/21
f 11/85/22 10/86/22 16/87/22 14/88/22
usemtl m_big_arch
f 13/89/23 12/90/23 21/91/23 19/92/23
usemtl m_arch
f 18/93/24 17/94/24 25/95/24 23/96/24
o arch_3_right_inner
v -0.22914875 1.4375 0.0078125
v -0.22914875 1.4375 -0.5078125
v -0.272466875 0.99768125 0.0078125
v -0.272466875 0.99768125 -0.5078125
v 0.302145625 1.33181875 0.0078125
v 0.302145625 1.33181875 -0.5078125
v 0.173855 0.908901875 0.0078125
v 0.173855 0.908901875 -0.5078125
v 0.80261375 1.124518125 0.0078125
v 0.80261375 1.124518125 -0.5078125
v 0.59428125 0.734755625 0.0078125
v 0.59428125 0.734755625 -0.5078125
v 1.253023125 0.823564375 0.0078125
v 1.253023125 0.823564375 -0.5078125
v 0.972654375 0.481935 0.0078125
v 0.972654375 0.481935 -0.5078125
vt 0 0.5625
vt 0.5 0.5625
vt 0.5 1
vt 0 1
vt 0.4609375 0
vt 0.0390625 0
vt 0 0.43749625000000003
vt 0.5 0.4375
vt 0 0.4375
vt 0.5 0.4375
vt 0.4609375 0
vt 0.0390625 0
vt 0 0.5625
vt 0.5 0.5625
vt 0.5 1
vt 0 1
vt 0.4609375 0
vt 0.0390625 0
vt 0 0.43749625000000003
vt 0.5 0.4375
vt 0 0.4375
vt 0.5 0.4375
vt 0.4609375 0
vt 0.0390625 0
vt 0 0.5625
vt 0.5 0.5625
vt 0.5 1
vt 0 1
vt 0.4609375 0
vt 0.0390625 0
vt 0 0.43749625000000003
vt 0.5 0.4375
vt 0 0.4375
vt 0.5 0.4375
vt 0.4609375 0
vt 0.0390625 0
vt 0.0625 0.5625
vt 0.5 0.5625
vt 0.5 1
vt 0.0625 1
vt 0.4375 0.5625
vt 0.4375 1
vt 0 1
vt 0 0.5625
vn 0.19509072705712943 0.9807851998354791 0
vn 0 0 1
vn 0 0 -1
vn 0.3826833379650658 0.9238795716130513 0
vn 0 0 1
vn 0 0 -1
vn 0.5555700126214048 0.8314697595678704 0
vn 0 0 1
vn 0 0 -1
vn -0.9951847798450393 0.09801660045513037 0
vn -0.19509123991274854 -0.9807850978217943 0
usemtl m_arch
f 27/97/25 31/98/25 32/99/25 28/100/25
f 29/101/26 33/102/26 31/103/26 27/104/26
usemtl m_big_arch
f 28/105/27 32/106/27 34/107/27 30/108/27
f 31/109/28 35/110/28 36/111/28 32/112/28
f 33/113/29 37/114/29 35/115/29 31/116/29
usemtl m_arch
f 32/117/30 36/118/30 38/119/30 34/120/30
f 35/121/31 39/122/31 40/123/31 36/124/31
f 37/125/32 41/126/32 39/127/32 35/128/32
usemtl m_big_arch
f 36/129/33 40/130/33 42/131/33 38/132/33
f 29/133/34 27/134/34 28/135/34 30/136/34
f 29/137/35 30/138/35 34/139/35 33/140/35