mtllib generic_arch.mtl

o arch_1_inner
v 0.63858625 1.25 0.0109375
v 0.63858625 1.25 -0.5109375
v 0.58092 0.885906875 0.0109375
v 0.58092 0.885906875 -0.5109375
v 0.902193125 1.16434875 0.0109375
v 0.902193125 1.16434875 -0.5109375
v 0.734838125 0.835895625 0.0109375
v 0.734838125 0.835895625 -0.5109375
v 1.126430625 1.001430625 0.0109375
v 1.126430625 1.001430625 -0.5109375
v 0.86576875 0.74076875 0.0109375
v 0.86576875 0.74076875 -0.5109375
v 1.28934875 0.777193125 0.0109375
v 1.28934875 0.777193125 -0.5109375
v 0.960895625 0.609838125 0.0109375
v 0.960895625 0.609838125 -0.5109375
v 1.375 0.51358625 0.0109375
v 1.375 0.51358625 -0.5109375
v 1.010906875 0.45592 0.0109375
v 1.010906875 0.45592 -0.5109375
v 0.36141375 1.25 0.0109375
v 0.36141375 1.25 -0.5109375
v 0.41908 0.885906875 0.0109375
v 0.41908 0.885906875 -0.5109375
v 0.097806875 1.16434875 0.0109375
v 0.097806875 1.16434875 -0.5109375
v 0.265161875 0.835895625 0.0109375
v 0.265161875 0.835895625 -0.5109375
v -0.126430625 1.001430625 0.0109375
v -0.126430625 1.001430625 -0.5109375
v 0.13423125 0.74076875 0.0109375
v 0.13423125 0.74076875 -0.5109375
v -0.28934875 0.777193125 0.0109375
v -0.28934875 0.777193125 -0.5109375
v 0.039104375 0.609838125 0.0109375
v 0.039104375 0.609838125 -0.5109375
v -0.375 0.51358625 0.0109375
v -0.375 0.51358625 -0.5109375
v -0.010906875 0.45592 0.0109375
v -0.010906875 0.45592 -0.5109375
vt 0.03125 0.5625
vt 0.3125 0.5625
vt 0.3125 1
vt 0.03125 1
vt 0.4375 1
vt 0.28125 1
vt 0.21875 0.625003125
vt 0.5 0.625
vt 0 0.625
vt 0.28125 0.625
vt 0.21875 0.999998125
vt 0.0625 1
vt 0.1875 0.5625
vt 0.46875 0.5625
vt 0.46875 1
vt 0.1875 1
vt 0.4375 0
vt 0.28125 0
vt 0.21875 0.374996875
vt 0.5 0.375
vt 0 0.375
vt 0.28125 0.375
vt 0.21875 0.000001875000000040039
vt 0.0625 0
vt 0.03125 0.5625
vt 0.3125 0.5625
vt 0.3125 1
vt 0.03125 1
vt 0.21875 1
vt 0.0625 1
vt 0 0.625003125
vt 0.28125 0.625
vt 0.21875 0.625
vt 0.5 0.625
vt 0.4375 0.999998125
vt 0.28125 1
vt 0.1875 0.5625
vt 0.46875 0.5625
vt 0.46875 1
vt 0.1875 1
vt 0.21875 0
vt 0.0625 0
vt 0 0.374996875
vt 0.28125 0.375
vt 0.21875 0.375
vt 0.5 0.375
vt 0.4375 0.000001875000000040039
vt 0.28125 0
vt 0.3125 1
vt 0.3125 0.5625
vt 0.03125 0.5625
vt 0.03125 1
vt 0 0.625003125
vt 0.0625 1
vt 0.21875 1
vt 0.28125 0.625
vt 0.4375 1
vt 0.5 0.625
vt 0.21875 0.625
vt 0.28125 1
vt 0.46875 1
vt 0.46875 0.5625
vt 0.1875 0.5625
vt 0.1875 1
vt 0 0.374996875
vt 0.0625 0
vt 0.21875 0
vt 0.28125 0.375
vt 0.4375 0
vt 0.5 0.375
vt 0.21875 0.375
vt 0.28125 0
vt 0.3125 1
vt 0.3125 0.5625
vt 0.03125 0.5625
vt 0.03125 1
vt 0.21875 0.625003125
vt 0.28125 1
vt 0.4375 1
vt 0.5 0.625
vt 0.21875 1
vt 0.28125 0.625
vt 0 0.625
vt 0.0625 1
vt 0.46875 1
vt 0.46875 0.5625
vt 0.1875 0.5625
vt 0.1875 1
vt 0.21875 0.374996875
vt 0.28125 0
vt 0.4375 0
vt 0.5 0.375
vt 0.21875 0
vt 0.28125 0.375
vt 0 0.375
vt 0.0625 0
vn 0.3090175956453534 0.9510563209303459 0
vn 0 0 1
vn 0 0 -1
vn 0.5877853582623963 0.809016917383281 0
vn 0 0 1
vn 0 0 -1
vn 0.809016917383281 0.5877853582623963 0
vn 0 0 1
vn 0 0 -1
vn 0.9510563209303459 0.3090175956453534 0
vn 0 0 1
vn 0 0 -1
vn -0.3090175956453536 0.9510563209303459 0
vn 0 0 1
vn 0 0 -1
vn -0.5877853582623963 0.809016917383281 0
vn 0 0 1
vn 0 0 -1
vn -0.809016917383281 0.5877853582623962 0
vn 0 0 1
vn 0 0 -1
vn -0.9510563209303459 0.30901759564535364 0
vn 0 0 1
vn 0 0 -1
usemtl m_arch
f 1/1/1 5/2/1 6/3/1 2/4/1
f 3/5/2 7/6/2 5/7/2 1/8/2
f 2/9/3 6/10/3 8/11/3 4/12/3
f 5/13/4 9/14/4 10/15/4 6/16/4
f 7/17/5 11/18/5 9/19/5 5/20/5
f 6/21/6 10/22/6 12/23/6 8/24/6
f 9/25/7 13/26/7 14/27/7 10/28/7
f 11/29/8 15/30/8 13/31/8 9/32/8
f 10/33/9 14/34/9 16/35/9 12/36/9
f 13/37/10 17/38/10 18/39/10 14/40/10
f 15/41/11 19/42/11 17/43/11 13/44/11
f 14/45/12 18/46/12 20/47/12 16/48/12
f 26/49/13 25/50/13 21/51/13 22/52/13
f 25/53/14 27/54/14 23/55/14 21/56/14
f 28/57/15 26/58/15 22/59/15 24/60/15
f 30/61/16 29/62/16 25/63/16 26/64/16
f 29/65/17 31/66/17 27/67/17 25/68/17
f 32/69/18 30/70/18 26/71/18 28/72/18
f 34/73/19 33/74/19 29/75/19 30/76/19
f 33/77/20 35/78/20 31/79/20 29/80/20
f 36/81/21 34/82/21 30/83/21 32/84/21
f 38/85/22 37/86/22 33/87/22 34/88/22
f 37/89/23 39/90/23 35/91/23 33/92/23
f 40/93/24 38/94/24 34/95/24 36/96/24
o arch_1
v 0.910610625 0.64936125 0.0390625
v 0.984348125 0.4713425 0.0390625
v 1.383845625 0.56852375 0.0390625
v 1.261815 0.86313125 0.0390625
v 1.383845625 0.56852375 -0.5390625
v 1.261815 0.86313125 -0.5390625
v 0.984348125 0.4713425 -0.5390625
v 0.910610625 0.64936125 -0.5390625
v 0.77436125 0.785610625 0.0390625
v 1.24250875 0.892025625 0.0390625
v 1.017025625 1.11750875 0.0390625
v 1.24250875 0.892025625 -0.5390625
v 1.017025625 1.11750875 -0.5390625
v 0.77436125 0.785610625 -0.5390625
v 0.5963425 0.859348125 0.0390625
v 0.98813125 1.136815 0.0390625
v 0.69352375 1.258845625 0.0390625
v 0.98813125 1.136815 -0.5390625
v 0.69352375 1.258845625 -0.5390625
v 0.5963425 0.859348125 -0.5390625
v 0.659440625 1.265625 0.0390625
v 0.659440625 1.265625 -0.5390625
v 1.390625 0.534440625 0.0390625
v 1.390625 0.25 0.0390625
v 1.390625 0.25 -0.5390625
v 1.390625 0.534440625 -0.5390625
v 0.986198125 0.25 -0.5390625
v 0.986198125 0.25 0.0390625
v 0.089389375 0.64936125 0.0390625
v 0.015651875 0.4713425 0.0390625
v -0.383845625 0.56852375 0.0390625
v -0.261815 0.86313125 0.0390625
v -0.383845625 0.56852375 -0.5390625
v -0.261815 0.86313125 -0.5390625
v 0.015651875 0.4713425 -0.5390625
v 0.089389375 0.64936125 -0.5390625
v 0.22563875 0.785610625 0.0390625
v -0.24250875 0.892025625 0.0390625
v -0.017025625 1.11750875 0.0390625
v -0.24250875 0.892025625 -0.5390625
v -0.017025625 1.11750875 -0.5390625
v 0.22563875 0.785610625 -0.5390625
v 0.4036575 0.859348125 0.0390625
v 0.01186875 1.136815 0.0390625
v 0.30647625 1.258845625 0.0390625
v 0.01186875 1.136815 -0.5390625
v 0.30647625 1.258845625 -0.5390625
v 0.4036575 0.859348125 -0.5390625
v 0.340559375 1.265625 0.0390625
v 0.340559375 1.265625 -0.5390625
v -0.390625 0.534440625 0.0390625
v -0.390625 0.25 0.0390625
v -0.390625 0.25 -0.5390625
v -0.390625 0.534440625 -0.5390625
v 0.013801875 0.25 -0.5390625
v 0.013801875 0.25 0.0390625
v 1.390625 0.534440625 -0.5390625
v 0.984348125 0.4713425 -0.5390625
v 1.390625 0.534440625 0.0390625
v 0.984348125 0.4713425 0.0390625
vt 0.65625 1
vt 0.96875 1
vt 0.96875 0.5
vt 0.65625 0.5
vt 0.6875 0.5
vt 0.5 0.5
vt 0.5 1
vt 0.6875 1
vt 0.7421875 0
vt 0.5546875 0
vt 0.53125 0.40625
vt 0.8125 0.40624812499999996
vt 0.5 0.90625
vt 0.78125 0.90625
vt 0.75 0.5
vt 0.5625 0.5
vt 0.15625 1
vt 0.46875 1
vt 0.46875 0.5
vt 0.15625 0.5
vt 0.28125 1
vt 0.46875 1
vt 0.46875 0.5
vt 0.28125 0.5
vt 0.25 0
vt 0.0546875 0
vt 0.03125 0.40625
vt 0.3125 0.40624812499999996
vt 0.3125 0.40625
vt 0.0234375 0.40625
vt 0.0546875 0
vt 0.25 0
vt 0.65625 0.5
vt 0.96875 0.5
vt 0.96875 1
vt 0.65625 1
vt 0.78125 1
vt 0.96875 1
vt 0.96875 0.5
vt 0.78125 0.5
vt 0.7109375 0.5
vt 0.5234375 0.5
vt 0.5 0.90625
vt 0.78125 0.906248125
vt 0.8125 0.40625
vt 0.5234375 0.40625
vt 0.5546875 0
vt 0.7421875 0
vt 0.1875 0.5
vt 0.46875 0.5
vt 0.46875 1
vt 0.1875 1
vt 0.25 1
vt 0.46875 1
vt 0.46875 0.5
vt 0.25 0.5
vt 0.25 0.5
vt 0.0345925 0.5
vt 0.03125 0.903875625
vt 0.3125 0.90625
vt 0.3125 0.40625
vt 0.03125 0.40625
vt 0.03125 0.0018500000000000183
vt 0.25 0
vt 0.5 0.5
vt 0.5 1
vt 0.09375 1
vt 0.09375 0.5
vt 0.5 1
vt 0.5 0.5
vt 0.90625 0.5
vt 0.90625 1
vt 0.5 1
vt 0.5 0.5
vt 0.09375 0.5
vt 0.09375 1
vt 0.97365 0.5
vt 0.97365 1
vt 0.5625 1
vt 0.5625 0.5
vt 0.09375 0.5
vt 0.09375 1
vt 0.5 1
vt 0.5 0.5
vt 0.5625 0.5
vt 0.5625 1
vt 0.96875 1
vt 0.96875 0.5
vt 0.90625 1
vt 0.90625 0.5
vt 0.5 0.5
vt 0.500395 1
vt 0.96875 1
vt 0.96875 0.5
vt 0.65625 0.5
vt 0.65625 1
vt 0.96875 0.5
vt 0.96875 1
vt 0.78125 1
vt 0.78125 0.5
vt 0.78125 0.906248125
vt 0.7265625 0.5
vt 0.53125 0.5
vt 0.5 0.90625
vt 0.5546875 0
vt 0.5234375 0.40625
vt 0.8125 0.40625
vt 0.7421875 0
vt 0.46875 1
vt 0.46875 0.5
vt 0.15625 0.5
vt 0.15625 1
vt 0.46875 1
vt 0.46875 0.5
vt 0.28125 0.5
vt 0.28125 1
vt 0.03125 0.40624812499999996
vt 0.0859375 0
vt 0.28125 0
vt 0.3125 0.40625
vt 0.0546875 0
vt 0.0234375 0.40625
vt 0.3125 0.40625
vt 0.25 0
vt 0.96875 0.5
vt 0.96875 1
vt 0.65625 1
vt 0.65625 0.5
vt 1 0.5
vt 1 1
vt 0.8125 1
vt 0.8125 0.5
vt 0.5 0.906248125
vt 0.5546875 0.5
vt 0.75 0.5
vt 0.78125 0.90625
vt 0.5234375 0.5
vt 0.5 0.90625
vt 0.78125 0.90625
vt 0.7109375 0.5
vt 0.46875 1
vt 0.46875 0.5
vt 0.25 0.5
vt 0.25 1
vt 0.03125 0.40625
vt 0.03125 0
vt 0.25 0
vt 0.3125 0.40625
vt 0 0.50185
vt 0 0.90625
vt 0.28125 0.90625
vt 0.21875 0.5
vt 0.15625 1
vt 0.46875 1
vt 0.46875 0.5
vt 0.15625 0.5
vt 0.21875 1
vt 0.40625 1
vt 0.40625 0.5
vt 0.21875 0.5
vt 0 0.90625
vt 0.3125 0.90625
vt 0.25 0.5000025
vt 0.0625 0.5
vt 0.25 0.5
vt 0.0625 0.5
vt 0 0.90625
vt 0.3125 0.90625
vt 0.09375 1
vt 0.5 1
vt 0.5 0.5
vt 0.09375 0.5
vt 0.5625 1
vt 0.96875 1
vt 0.96875 0.5
vt 0.5625 0.5
vt 0.09375 1
vt 0.5 1
vt 0.5 0.5
vt 0.09375 0.5
vt 0.5625 0.5
vt 0.96875 0.5
vt 0.96875 1
vt 0.5625 1
vt 0.5 0.5
vt 0.09375 0.5
vt 0.09375 1
vt 0.5 1
vt 0.5 0.5
vt 0.09375 0.5
vt 0.09375 1
vt 0.5 1
vt 0.5 0.5
vt 0.90625 0.5
vt 0.90625 1
vt 0.5 1
vt 0.5 1
vt 0.09375 1
vt 0.09375 0.5
vt 0.5 0.5
vt 0.96875 1
vt 0.5625 1
vt 0.5625 0.5
vt 0.968355 0.5
vt 0.46875 0.5
vt 0.46875 1
vt 0.1875 1
vt 0.1875 0.5
vt 0.09375 0.5
vt 0.09375 1
vt 0.5 1
vt 0.5 0.5
vt 0.09375 1
vt 0.09375 0.5
vt 0.5 0.5
vt 0.5 1
vn 0.3826839755325133 0.9238793075237864 0
vn -0.3826821893434243 -0.9238800473867395 0
vn 0 0 1
vn 0 0 -1
vn 0.7071067811865476 0.7071067811865476 0
vn -0.7071067811865476 -0.7071067811865476 0
vn 0 0 1
vn 0 0 -1
vn 0.9238793075237864 0.3826839755325133 0
vn -0.9238800473867395 -0.3826821893434243 0
vn 0 0 1
vn 0 0 -1
vn 1 0 0
vn -0.9999650730159357 -0.00835779565641257 0
vn 0 0 1
vn 0 0 -1
vn 0.9881535654521102 -0.1534683390288776 0
vn 0.8542056592891385 -0.5199352763935222 0
vn 0.5902122839283176 -0.8072480782882788 0
vn 0.2363657761339015 -0.9716641497310778 0
vn 0 -1 0
vn -0.5199352763935222 0.8542056592891385 0
vn -0.9716641497310778 0.2363657761339015 0
vn -0.3826839755325133 0.9238793075237864 0
vn 0.3826821893434243 -0.9238800473867395 0
vn 0 0 1
vn 0 0 -1
vn -0.7071067811865476 0.7071067811865476 0
vn 0.7071067811865476 -0.7071067811865476 0
vn 0 0 1
vn 0 0 -1
vn -0.9238793075237864 0.38268397553251315 0
vn 0.9238800473867393 -0.3826821893434242 0
vn 0 0 1
vn 0 0 -1
vn 0.9999650730159357 -0.008357795656412483 0
vn 0 0 1
vn 0 0 -1
vn 0 1 0
vn 0 -1 0
vn 0 0 1
vn 0 0 -1
vn -0.9881535654521102 -0.1534683390288776 0
vn -0.8542056592891385 -0.5199352763935221 0
vn -0.5902122839283177 -0.8072480782882789 0
vn -0.23636577613390147 -0.9716641497310778 0
vn 0 -1 0
vn 0.1534683390288776 0.9881535654521102 0
vn 0.519935276393522 0.8542056592891386 0
vn 0.8072480782882788 0.5902122839283175 0
vn 0.9716641497310778 0.2363657761339015 0
vn -1 0 0
vn -0.1534683390288776 0.9881535654521102 0
vn -0.8072480782882788 0.5902122839283176 0
usemtl m_arch
f 57/97/25 56/98/25 58/99/25 59/100/25
f 60/101/26 54/102/26 49/103/26 55/104/26
usemtl m_keystones
f 55/105/27 49/106/27 56/107/27 57/108/27
f 59/109/28 58/110/28 54/111/28 60/112/28
usemtl m_arch
f 51/113/29 50/114/29 52/115/29 53/116/29
f 54/117/30 48/118/30 41/119/30 49/120/30
usemtl m_keystones
f 49/121/31 41/122/31 50/123/31 51/124/31
f 53/125/32 52/126/32 48/127/32 54/128/32
usemtl m_arch
f 44/129/33 43/130/33 45/131/33 46/132/33
f 48/133/34 47/134/34 42/135/34 41/136/34
usemtl m_keystones
f 41/137/35 42/138/35 43/139/35 44/140/35
f 46/141/36 45/142/36 47/143/36 48/144/36
usemtl m_arch
f 63/145/37 64/146/37 65/147/37 66/148/37
f 47/149/38 67/150/38 68/151/38 42/152/38
usemtl m_keystones
f 42/153/39 68/154/39 64/155/39 63/156/39
f 66/157/40 65/158/40 67/159/40 47/160/40
usemtl m_arch
f 55/161/41 60/162/41 62/163/41 61/164/41
f 49/165/42 54/166/42 58/167/42 56/168/42
f 41/169/43 48/170/43 52/171/43 50/172/43
f 42/173/44 47/174/44 45/175/44 43/176/44
f 68/177/45 67/178/45 65/179/45 64/180/45
f 44/181/46 46/182/46 48/183/46 41/184/46
f 57/185/47 59/186/47 60/187/47 55/188/47
f 86/189/48 84/190/48 85/191/48 87/192/48
f 77/193/49 82/194/49 88/195/49 83/196/49
usemtl m_keystones
f 84/197/50 77/198/50 83/199/50 85/200/50
f 82/201/51 86/202/51 87/203/51 88/204/51
usemtl m_arch
f 80/205/52 78/206/52 79/207/52 81/208/52
f 69/209/53 76/210/53 82/211/53 77/212/53
usemtl m_keystones
f 78/213/54 69/214/54 77/215/54 79/216/54
f 76/217/55 80/218/55 81/219/55 82/220/55
usemtl m_arch
f 73/221/56 71/222/56 72/223/56 74/224/56
f 70/225/57 75/226/57 76/227/57 69/228/57
usemtl m_keystones
f 71/229/58 70/230/58 69/231/58 72/232/58
f 75/233/59 73/234/59 74/235/59 76/236/59
usemtl m_arch
f 96/237/60 95/238/60 75/239/60 70/240/60
usemtl m_keystones
f 92/241/61 96/242/61 70/243/61 91/244/61
f 95/245/62 93/246/62 94/247/62 75/248/62
usemtl m_arch
f 62/249/63 90/250/63 89/251/63 61/252/63
f 55/253/64 83/254/64 88/255/64 60/256/64
usemtl m_keystones
f 61/257/65 89/258/65 83/259/65 55/260/65
f 60/261/66 88/262/66 90/263/66 62/264/66
usemtl m_arch
f 90/265/67 88/266/67 83/267/67 89/268/67
f 86/269/68 82/270/68 77/271/68 84/272/68
f 80/273/69 76/274/69 69/275/69 78/276/69
f 73/277/70 75/278/70 70/279/70 71/280/70
f 93/281/71 95/282/71 96/283/71 92/284/71
f 75/285/72 94/286/72 91/287/72 70/288/72
f 76/289/73 74/290/73 72/291/73 69/292/73
f 82/293/74 81/294/74 79/295/74 77/296/74
f 88/297/75 87/298/75 85/299/75 83/300/75
f 93/301/76 92/302/76 91/303/76 94/304/76
f 99/305/77 97/306/77 98/307/77 100/308/77
f 51/309/78 53/310/78 54/311/78 49/312/78