# Blender v3.2.2 OBJ File: ''
# www.blender.org
mtllib generic_arch.mtl
o arch_3_middle
v -0.304006 1.484529 -0.048437
v -0.304006 1.484529 0.035938
v 0.204025 1.620656 0.035938
v 0.204025 1.620656 -0.048437
v -0.073407 0.884328 0.035938
v -0.073407 0.884328 -0.048437
v 0.304421 0.985566 -0.048437
v 0.304421 0.985566 0.035938
v 0.237024 1.625000 -0.048437
v 0.237024 1.625000 0.035938
v 0.795975 1.620656 0.035938
v 1.304006 1.484529 0.035938
v 1.304006 1.484529 -0.048437
v 0.795975 1.620656 -0.048437
v 0.695579 0.985566 -0.048437
v 1.073407 0.884328 -0.048437
v 1.073407 0.884328 0.035938
v 0.695579 0.985566 0.035938
v 0.762976 1.625000 0.035938
v 0.762976 1.625000 -0.048437
vt 0.500000 1.000000
vt 0.500000 0.937500
vt 1.000000 0.937500
vt 1.000000 1.000000
vt 0.984375 0.000000
vt 1.000000 0.625000
vt 0.500000 0.625000
vt 0.562500 0.000000
vt 1.000000 1.000000
vt 0.500000 1.000000
vt 0.500000 0.937500
vt 1.000000 0.937500
vt 1.000000 1.000000
vt 0.625000 1.000000
vt 0.625000 0.937500
vt 1.000000 0.937500
vt 0.562500 0.000000
vt 0.984375 0.000000
vt 1.000000 0.625000
vt 0.500000 0.624998
vt 0.500000 1.000000
vt 0.500000 0.937500
vt 0.000000 0.937500
vt 0.000000 1.000000
vt 0.000000 0.625000
vt 0.046875 0.000000
vt 0.453125 0.000000
vt 0.500000 0.625000
vt 1.000000 0.937500
vt 1.000000 1.000000
vt 0.500000 1.000000
vt 0.500000 0.937500
vt 0.500000 0.937500
vt 0.500000 1.000000
vt 0.000000 1.000000
vt 0.000000 0.937500
vt 1.000000 0.937500
vt 1.000000 1.000000
vt 0.625000 1.000000
vt 0.625000 0.937500
vt 0.500000 0.624848
vt 0.562500 0.000000
vt 0.984375 0.000000
vt 1.000000 0.625000
vt 1.000000 1.000000
vt 0.500000 1.000000
vt 0.500000 0.937500
vt 1.000000 0.937500
vt 0.500000 1.000000
vt 0.000000 1.000000
vt 0.000000 0.937500
vt 0.500000 0.937500
vt 0.500000 1.000000
vt 1.000000 1.000000
vt 1.000000 0.937500
vt 0.500000 0.937500
vt 1.000000 0.625000
vt 0.500000 0.625000
vt 0.562500 0.000000
vt 0.984375 0.000000
vt 0.062500 1.000000
vt 0.062500 0.937500
vt 0.437500 0.937500
vt 0.437500 1.000000
vt 0.453125 0.000000
vt 0.500000 0.625000
vt 0.000000 0.625000
vt 0.046875 0.000000
vt 1.000000 0.937500
vt 1.000000 1.000000
vn -0.2588 0.9659 0.0000
vn 0.0000 0.0000 -1.0000
vn -0.9335 -0.3586 0.0000
vn -0.2588 -0.9659 0.0000
vn -0.0000 -0.0000 1.0000
vn 0.0000 1.0000 0.0000
vn 0.9335 -0.3586 0.0000
vn 0.9945 -0.1048 0.0000
vn 0.2588 -0.9659 0.0000
vn 0.9877 0.1561 0.0000
vn -0.9945 -0.1048 0.0000
vn 0.2588 0.9659 0.0000
vn 0.0000 -1.0000 0.0000
vn -0.9877 0.1561 0.0000
usemtl m_arch
s 1
f 1/1/1 2/2/1 3/3/1 4/4/1
f 6/5/2 1/6/2 4/7/2 7/8/2
f 1/9/3 6/10/3 5/11/3 2/12/3
f 15/13/4 16/14/4 17/15/4 18/16/4
f 18/17/5 17/18/5 12/19/5 11/20/5
f 19/21/6 20/22/6 9/23/6 10/24/6
f 20/25/2 15/26/2 7/27/2 9/28/2
f 17/29/7 16/30/7 13/31/7 12/32/7
f 18/33/8 15/34/8 20/35/8 19/36/8
usemtl m_big_arch
f 5/37/9 6/38/9 7/39/9 8/40/9
f 2/41/5 5/42/5 8/43/5 3/44/5
f 7/45/10 4/46/10 3/47/10 8/48/10
f 9/49/11 7/50/11 8/51/11 10/52/11
f 11/53/12 12/54/12 13/55/12 14/56/12
f 14/57/2 13/58/2 16/59/2 15/60/2
f 15/61/13 18/62/13 8/63/13 7/64/13
f 18/65/5 19/66/5 10/67/5 8/68/5
f 11/69/14 14/70/14 15/34/14 18/33/14
o arch_3_middle_inner
v -0.115282 1.528313 -0.018750
v -0.115282 1.528313 0.006250
v 0.292245 1.609375 0.006250
v 0.292245 1.609375 -0.018750
v 0.059489 0.952170 0.006250
v 0.351258 1.010206 0.006250
v 0.059489 0.952170 -0.018750
v 0.351258 1.010206 -0.018750
v 0.707755 1.609375 0.006250
v 1.115282 1.528313 0.006250
v 1.115282 1.528313 -0.018750
v 0.707755 1.609375 -0.018750
v 0.648742 1.010206 0.006250
v 0.940511 0.952170 0.006250
v 0.940511 0.952170 -0.018750
v 0.648742 1.010206 -0.018750
vt 0.093750 1.000000
vt 0.093750 0.968750
vt 0.500000 0.968750
vt 0.500000 1.000000
vt 0.062500 0.593750
vt 0.125000 0.000000
vt 0.406250 0.000000
vt 0.468750 0.593749
vt 0.093750 0.968750
vt 0.500000 0.968750
vt 0.500000 1.000000
vt 0.093750 1.000000
vt 0.406250 0.000000
vt 0.125000 0.000000
vt 0.062500 0.593750
vt 0.468750 0.593742
vt 0.406250 0.000000
vt 0.468750 0.593750
vt 0.062500 0.593750
vt 0.125000 0.000001
vt 0.062500 0.593750
vt 0.468750 0.593750
vt 0.406250 0.000000
vt 0.125000 0.000000
vn -0.1951 0.9808 0.0000
vn 0.0000 -0.0000 1.0000
vn 0.1951 0.9808 0.0000
vn 0.0000 0.0000 -1.0000
usemtl m_big_arch
s 1
f 21/71/15 22/72/15 23/73/15 24/74/15
f 22/75/16 25/76/16 26/77/16 23/78/16
f 29/79/17 30/80/17 31/81/17 32/82/17
f 33/83/16 34/84/16 30/85/16 29/86/16
usemtl m_arch
f 27/87/18 21/88/18 24/89/18 28/90/18
f 32/91/18 31/92/18 35/93/18 36/94/18
