# Blender v3.2.2 OBJ File: ''
# www.blender.org
mtllib generic_arch.mtl
o arch_3_left
v 0.938285 0.400174 -0.029687
v 0.630123 0.317603 -0.029687
v 0.630123 0.317603 0.039063
v 0.938285 0.400174 0.039063
v 1.050011 -0.050254 0.039062
v 0.758579 -0.128344 0.039062
v 0.758579 -0.128344 -0.029688
v 1.050011 -0.050254 -0.029688
v 0.589015 0.303649 -0.029687
v 0.294267 0.181560 -0.029687
v 0.294267 0.181560 0.039063
v 0.589015 0.303649 0.039063
v 0.479832 -0.243804 0.039062
v 0.479832 -0.243804 -0.029688
v 0.255333 0.162360 -0.029687
v -0.020958 0.002843 -0.029687
v -0.020958 0.002843 0.039062
v 0.255333 0.162360 0.039063
v 0.218541 -0.394661 0.039062
v 0.218541 -0.394661 -0.029688
v -0.057053 -0.021275 -0.029688
v -0.310159 -0.215490 -0.029688
v -0.310159 -0.215490 0.039062
v -0.057053 -0.021275 0.039062
v -0.014421 -0.571929 0.039062
v -0.014421 -0.571929 -0.029688
vt 0.468750 0.937500
vt 0.156250 0.937500
vt 0.156250 1.000000
vt 0.468750 1.000000
vt 0.250000 1.000000
vt 0.500000 1.000000
vt 0.500000 0.937500
vt 0.250000 0.937500
vt 0.500000 0.937500
vt 0.812500 0.937500
vt 0.812500 1.000000
vt 0.500000 1.000000
vt 0.750000 0.937500
vt 1.000000 0.937500
vt 1.000000 1.000000
vt 0.750000 1.000000
vt 0.195312 0.000000
vt 0.492188 0.000000
vt 0.500000 0.468750
vt 0.187500 0.468748
vt 0.500000 0.468750
vt 0.187500 0.468750
vt 0.195312 0.000000
vt 0.492188 0.000000
vt 0.695312 0.000000
vt 0.992188 0.000000
vt 1.000000 0.468750
vt 0.687500 0.468748
vt 1.000000 0.468750
vt 0.687500 0.468750
vt 0.695312 0.000000
vt 0.992188 0.000000
vt 0.031250 0.937500
vt 0.031250 1.000000
vt 0.500000 1.000000
vt 0.500000 0.937500
vt 0.000000 0.937500
vt 0.000000 1.000000
vt 0.468750 1.000000
vt 0.468750 0.937500
vt 0.968750 0.937500
vt 0.968750 1.000000
vt 0.500000 1.000000
vt 0.500000 0.937500
vt 0.195312 0.000000
vt 0.492188 0.000000
vt 0.500000 0.468750
vt 0.187500 0.468748
vt 0.500000 0.468750
vt 0.187500 0.468750
vt 0.195312 0.000000
vt 0.492188 0.000000
vt 0.695312 0.000000
vt 0.992188 0.000000
vt 1.000000 0.468750
vt 0.687500 0.468748
vt 1.000000 0.468750
vt 0.687500 0.468750
vt 0.695312 0.000000
vt 0.992188 0.000000
vt 0.500000 0.937500
vt 0.187500 0.937500
vt 0.187500 1.000000
vt 0.500000 1.000000
vt 0.218750 1.000000
vt 0.468750 1.000000
vt 0.468750 0.937500
vt 0.218750 0.937500
vt 0.500000 0.937500
vt 0.812500 0.937500
vt 0.812500 1.000000
vt 0.500000 1.000000
vt 0.750000 1.000000
vt 0.500000 1.000000
vt 0.500000 0.937500
vt 0.750000 0.937500
vt 0.531250 0.937500
vt 0.531250 1.000000
vt 1.000000 1.000000
vt 1.000000 0.937500
vt 0.968750 0.937500
vt 0.968750 1.000000
vt 0.500000 1.000000
vt 0.500000 0.937500
vt 0.968750 0.937500
vt 0.968750 1.000000
vt 0.500000 1.000000
vt 0.500000 0.937500
vt 0.000000 1.000000
vt 0.000000 0.937500
vt 0.468750 0.937500
vt 0.468750 1.000000
vt 0.000000 1.000000
vt 0.000000 0.937500
vn -0.2588 0.9659 0.0000
vn 0.2588 -0.9659 -0.0000
vn -0.3827 0.9239 0.0000
vn 0.3827 -0.9239 0.0000
vn 0.0000 0.0000 -1.0000
vn 0.0000 -0.0000 1.0000
vn 0.9706 0.2407 0.0000
vn 0.8752 0.4838 0.0000
vn -0.9166 -0.3999 0.0000
vn -0.5000 0.8660 0.0000
vn 0.5000 -0.8660 0.0000
vn -0.6088 0.7934 0.0000
vn 0.6056 -0.7958 0.0000
vn 0.9309 0.3654 0.0000
vn 0.8046 0.5939 0.0000
vn -0.7696 -0.6385 0.0000
vn -0.8565 -0.5161 -0.0000
vn -0.9609 -0.2768 0.0000
usemtl m_big_arch
s 1
f 1/1/1 2/2/1 3/3/1 4/4/1
f 5/5/2 6/6/2 7/7/2 8/8/2
f 9/9/3 10/10/3 11/11/3 12/12/3
f 6/13/4 13/14/4 14/15/4 7/16/4
f 14/17/5 20/18/5 16/19/5 15/20/5
f 18/21/6 17/22/6 19/23/6 13/24/6
f 20/25/5 26/26/5 22/27/5 21/28/5
f 24/29/6 23/30/6 25/31/6 19/32/6
f 1/33/7 4/34/7 5/35/7 8/36/7
f 15/37/8 18/38/8 13/39/8 14/40/8
f 14/41/9 13/42/9 11/43/9 10/44/9
usemtl m_arch
f 8/45/5 7/46/5 2/47/5 1/48/5
f 4/49/6 3/50/6 6/51/6 5/52/6
f 7/53/5 14/54/5 10/55/5 9/56/5
f 12/57/6 11/58/6 13/59/6 6/60/6
f 15/61/10 16/62/10 17/63/10 18/64/10
f 13/65/11 19/66/11 20/67/11 14/68/11
f 21/69/12 22/70/12 23/71/12 24/72/12
f 19/73/13 25/74/13 26/75/13 20/76/13
f 9/77/14 12/78/14 6/79/14 7/80/14
f 21/81/15 24/82/15 19/83/15 20/84/15
f 26/85/16 25/86/16 23/87/16 22/88/16
f 20/67/17 19/66/17 17/89/17 16/90/17
f 7/91/18 6/92/18 3/93/18 2/94/18
o arch_3_left_inner
v 1.229149 0.437500 -0.003125
v 0.697855 0.331819 -0.003125
v 0.697855 0.331819 0.012500
v 1.229149 0.437500 0.012500
v 1.272467 -0.002319 -0.003125
v 0.826145 -0.091098 -0.003125
v 0.826145 -0.091098 0.012500
v 1.272467 -0.002319 0.012500
v 0.197387 0.124518 -0.003125
v 0.197387 0.124518 0.012500
v 0.405719 -0.265244 -0.003125
v 0.405719 -0.265244 0.012500
v -0.253023 -0.176436 -0.003125
v -0.253023 -0.176436 0.012500
v 0.027345 -0.518065 -0.003125
v 0.027345 -0.518065 0.012500
vt 0.000000 0.968750
vt 0.500000 0.968750
vt 0.500000 1.000000
vt 0.000000 1.000000
vt 0.460938 0.000000
vt 0.039062 0.000000
vt 0.000000 0.437497
vt 0.500000 0.437500
vt 0.000000 0.437500
vt 0.500000 0.437500
vt 0.460938 0.000000
vt 0.039062 0.000000
vt 0.000000 0.968750
vt 0.500000 0.968750
vt 0.500000 1.000000
vt 0.000000 1.000000
vt 0.460938 0.000000
vt 0.039062 0.000000
vt 0.000000 0.437497
vt 0.500000 0.437500
vt 0.000000 0.437500
vt 0.500000 0.437500
vt 0.460938 0.000000
vt 0.039062 0.000000
vt 0.000000 0.968750
vt 0.500000 0.968750
vt 0.500000 1.000000
vt 0.000000 1.000000
vt 0.460938 0.000000
vt 0.039062 0.000000
vt 0.000000 0.437497
vt 0.500000 0.437500
vt 0.000000 0.437500
vt 0.500000 0.437500
vt 0.460938 0.000000
vt 0.039062 0.000000
vt 0.062500 0.968750
vt 0.500000 0.968750
vt 0.500000 1.000000
vt 0.062500 1.000000
vt 0.437500 0.968750
vt 0.437500 1.000000
vt 0.000000 1.000000
vt 0.000000 0.968750
vn -0.1951 0.9808 0.0000
vn 0.0000 0.0000 -1.0000
vn -0.0000 -0.0000 1.0000
vn -0.5556 0.8315 0.0000
vn -0.3827 0.9239 0.0000
vn 0.9952 0.0980 0.0000
vn 0.1951 -0.9808 0.0000
usemtl m_arch
s 1
f 27/95/19 28/96/19 29/97/19 30/98/19
f 31/99/20 32/100/20 28/101/20 27/102/20
f 29/103/21 36/104/21 38/105/21 33/106/21
f 35/107/22 39/108/22 40/109/22 36/110/22
f 37/111/20 41/112/20 39/113/20 35/114/20
usemtl m_big_arch
f 30/115/21 29/116/21 33/117/21 34/118/21
f 28/119/23 35/120/23 36/121/23 29/122/23
f 32/123/20 37/124/20 35/125/20 28/126/20
f 36/127/21 40/128/21 42/129/21 38/130/21
f 31/131/24 27/132/24 30/133/24 34/134/24
f 31/135/25 34/136/25 33/137/25 32/138/25
