mtllib generic_arch.mtl

o arch_2_left
v 0.131075625 0.995619375 -0.5437500000000001
v 0.131075625 0.995619375 0.0375
v 0.177730625 1.5 0.0375
v 0.177730625 1.5 -0.5437500000000001
v 0.384295 0.927769375 -0.5437500000000001
v 0.384295 0.927769375 0.0375
v 0.559903125 1.40288875 0.0375
v 0.21655375 1.49488875 0.0375
v 0.559903125 1.40288875 -0.5437500000000001
v 0.611324375 0.79669375 -0.5437500000000001
v 0.611324375 0.79669375 0.0375
v 0.903919375 1.2101725 0.0375
v 0.596080625 1.38790375 0.0375
v 0.903919375 1.2101725 -0.5437500000000001
v 0.596080625 1.38790375 -0.5437500000000001
v 0.79669375 0.611324375 0.0375
v 1.186335 0.934985625 0.0375
v 0.934985625 1.186335 0.0375
v 1.186335 0.934985625 -0.5437500000000001
v 0.934985625 1.186335 -0.5437500000000001
v 0.79669375 0.611324375 -0.5437500000000001
v 0.927769375 0.384295 -0.5437500000000001
v 0.927769375 0.384295 0.0375
v 1.38790375 0.596080625 0.0375
v 1.2101725 0.903919375 0.0375
v 1.38790375 0.596080625 -0.5437500000000001
v 1.2101725 0.903919375 -0.5437500000000001
v 0.995619375 0.131233125 -0.5437500000000001
v 1.49488875 0.21655375 0.0375
v 1.40288875 0.559903125 0.0375
v 1.49488875 0.21655375 -0.5437500000000001
v 1.40288875 0.559903125 -0.5437500000000001
v 1.5 0.181355 0.0375
v 1.5 -0.125 0.0375
v 1.5 -0.125 -0.5437500000000001
v 1.5 0.181355 -0.5437500000000001
v 0.99731875 -0.125 -0.5437500000000001
v 0.99731875 -0.125 0.0375
v -0.000625 1.5 0.0375
v -0.000625 1.5 -0.5437500000000001
v -0.000625 0.99731875 -0.5437500000000001
v -0.000625 0.99731875 0.0375
v 0.995619375 0.131233125 0.0375
v 0.21655375 1.49488875 -0.5437500000000001
vt 0.75 1
vt 1 1
vt 1 0.5
vt 0.75 0.5
vt 0.546875 0.5
vt 0.8046875 0.5
vt 0.84375 1
vt 0.53125 1
vt 0.125 0.5
vt 0.46875 0.5
vt 0.46875 1
vt 0.125 1
vt 0.21875 1
vt 0.46875 1
vt 0.46875 0.5
vt 0.21875 0.5
vt 0.046875 0
vt 0.3046875 0
vt 0.34375 0.5
vt 0.03125 0.5
vt 0.0078125 1
vt 0.328125 1
vt 0.28125 0.5
vt 0.0234375 0.5
vt 0.625 0.5
vt 0.96875 0.5
vt 0.96875 1
vt 0.625 1
vt 0.75 1
vt 0.5 1
vt 0.5 0.5
vt 0.75 0.5
vt 0.8125 0
vt 0.5546875 0
vt 0.515625 0.5
vt 0.828125 0.5
vt 0.5078125 1
vt 0.828125 1
vt 0.78125 0.5
vt 0.5234375 0.5
vt 0.125 0.5
vt 0.46875 0.5
vt 0.46875 1
vt 0.125 1
vt 0.21875 0.5
vt 0.46875 0.5
vt 0.46875 1
vt 0.21875 1
vt 0.3515625 0.5
vt 0.0625 0.5
vt 0.0234375 1
vt 0.375 1
vt 0.328125 0.5
vt 0.0078125 0.5
vt 0.0546875 0
vt 0.3125 0
vt 0.625 0.5
vt 0.96875 0.5
vt 0.96875 1
vt 0.625 1
vt 0.75 0.5
vt 1 0.5
vt 1 1
vt 0.75 1
vt 0.8203125 0.5
vt 0.53125 0.5
vt 0.4921875 1
vt 0.84375 1
vt 0.828125 0.5
vt 0.5078125 0.5
vt 0.5546875 0
vt 0.8125 0
vt 0.15625 0.5
vt 0.46875 0.5
vt 0.46875 1
vt 0.15625 1
vt 0.1875 1
vt 0.4375 1
vt 0.4375 0.5
vt 0.1875 0.5
vt 0.25 0.5
vt 0 0.5
vt 0 0.998315
vt 0.3125 1
vt 0.34375 0.5
vt 0.03125 0.5
vt 0.03125 0.0016850000000000476
vt 0.28125 0
vt 0.1875 1
vt 0 1
vt 0 0.5
vt 0.1875 0.5
vt 0 0.5
vt 0.125 0.5
vt 0.125 1
vt 0 1
vt 0.03125 0.5
vt 0.21875 0.5
vt 0.21875 0.002282499999999965
vt 0.078125 0
vt 0.046875 0.5
vt 0.1875 0.5
vt 0.1875 0.9977175
vt 0 1
vt 0.5 0.5
vt 0.5 1
vt 0 1
vt 0 0.5
vt 1 0.5
vt 1 1
vt 0.5 1
vt 0.5 0.5
vt 0 0.5
vt 0 1
vt 0.5 1
vt 0.5 0.5
vt 0.5 0.5
vt 0.5 1
vt 0 1
vt 0 0.5
vt 0.5 0.5
vt 0.5 1
vt 1 1
vt 1 0.5
vt 1 0.5
vt 1 1
vt 0.5 1
vt 0.5 0.5
vt 0.5 0.5
vt 0.5 1
vt 0 1
vt 0 0.5
vt 0 0.5
vt 0 1
vt 0.5 1
vt 0.5 0.5
vt 0.5 0.5
vt 0.5 1
vt 1 1
vt 1 0.5
vt 1 0.5
vt 1 1
vt 0.5 1
vt 0.5 0.5
vt 0 0.5
vt 0 1
vt 0.5 1
vt 0.5 0.5
vt 0 1
vt 0.5 1
vt 0.5 0.5
vt 0 0.5
vt 0 1
vt 0 0.5
vt 0.5 0.5
vt 0.5 1
vt 0.5 0.5
vt 0.5 1
vt 1 1
vt 1 0.5
vt 0.625 0.5
vt 0.96875 0.5
vt 0.96875 1
vt 0.625 1
vt 0.5390625 0.5
vt 0.859375 0.5
vt 0.8125 0
vt 0.5546875 0
vn -0.2588193047739441 -0.9659257567102827 0
vn 0 0 1
vn 0.5000009807390269 0.866024837553757 0
vn -0.5000004412431115 -0.8660251490324598 0
vn 0 0 1
vn 0 0 -1
vn 0.7071067811865476 0.7071067811865476 0
vn -0.7071067811865476 -0.7071067811865476 0
vn 0 0 1
vn 0 0 -1
vn 0.866024837553757 0.5000009807390269 0
vn -0.8660251490324598 -0.5000004412431115 0
vn 0 0 1
vn 0 0 -1
vn 0.9659259583377325 0.25881855228969464 0
vn -0.9658854758371721 -0.258969588111809 0
vn 0 0 1
vn 0 0 -1
vn 1 0 0
vn -0.9999780080580202 -0.006631998214296674 0
vn 0 0 1
vn 0 0 -1
vn 0 1 0
vn -0.012902243618262376 -0.9999167625905745 0
vn 0 0 1
vn 0 0 -1
vn 0.995749171862577 -0.09210638813346277 0
vn 0.9379813195362765 -0.34668580040288044 0
vn -0.9083976289120185 0.4181073400300726 0
vn 0.8162905096094648 -0.5776415877700637 0
vn -0.7692298770139151 0.6389721404796592 0
vn 0.6389721404796592 -0.7692298770139151 0
vn 0.4181073400300726 -0.9083976289120185 0
vn -0.5776415877700637 0.8162905096094648 0
vn -0.34668580040288044 0.9379813195362765 0
vn 0.16844899596342944 -0.9857103711328763 0
vn -0.098886065968866 0.9950987619111991 0
vn 0 -1 0
vn -1 0 0
vn -0.9856586962832631 0.16875110204433783 0
vn 0.25881855228969464 0.9659259583377325 0
vn 0 0 -1
usemtl m_arch
f 1/1/1 5/2/1 6/3/1 2/4/1
usemtl m_keystones
f 2/5/2 6/6/2 7/7/2 8/8/2
usemtl m_arch
f 13/9/3 12/10/3 14/11/3 15/12/3
f 5/13/4 10/14/4 11/15/4 6/16/4
usemtl m_keystones
f 6/17/5 11/18/5 12/19/5 13/20/5
f 15/21/6 14/22/6 10/23/6 5/24/6
usemtl m_arch
f 18/25/7 17/26/7 19/27/7 20/28/7
f 10/29/8 21/30/8 16/31/8 11/32/8
usemtl m_keystones
f 11/33/9 16/34/9 17/35/9 18/36/9
f 20/37/10 19/38/10 21/39/10 10/40/10
usemtl m_arch
f 25/41/11 24/42/11 26/43/11 27/44/11
f 21/45/12 22/46/12 23/47/12 16/48/12
usemtl m_keystones
f 16/49/13 23/50/13 24/51/13 25/52/13
f 27/53/14 26/54/14 22/55/14 21/56/14
usemtl m_arch
f 30/57/15 29/58/15 31/59/15 32/60/15
f 22/61/16 28/62/16 43/63/16 23/64/16
usemtl m_keystones
f 23/65/17 43/66/17 29/67/17 30/68/17
f 32/69/18 31/70/18 28/71/18 22/72/18
usemtl m_arch
f 33/73/19 34/74/19 35/75/19 36/76/19
f 28/77/20 37/78/20 38/79/20 43/80/20
usemtl m_keystones
f 43/81/21 38/82/21 34/83/21 33/84/21
f 36/85/22 35/86/22 37/87/22 28/88/22
usemtl m_arch
f 4/89/23 40/90/23 39/91/23 3/92/23
f 2/93/24 42/94/24 41/95/24 1/96/24
usemtl m_keystones
f 3/97/25 39/98/25 42/99/25 2/100/25
f 1/101/26 41/102/26 40/103/26 4/104/26
usemtl m_arch
f 2/105/27 1/106/27 4/107/27 3/108/27
f 6/109/28 5/110/28 9/111/28 7/112/28
f 13/113/29 15/114/29 5/115/29 6/116/29
f 11/117/30 10/118/30 14/119/30 12/120/30
f 18/121/31 20/122/31 10/123/31 11/124/31
f 16/125/32 21/126/32 19/127/32 17/128/32
f 23/129/33 22/130/33 26/131/33 24/132/33
f 25/133/34 27/134/34 21/135/34 16/136/34
f 30/137/35 32/138/35 22/139/35 23/140/35
f 43/141/36 28/142/36 31/143/36 29/144/36
f 33/145/37 36/146/37 28/147/37 43/148/37
f 37/149/38 35/150/38 34/151/38 38/152/38
f 41/153/39 42/154/39 39/155/39 40/156/39
f 8/157/40 44/158/40 1/159/40 2/160/40
f 8/161/41 7/162/41 9/163/41 44/164/41
usemtl m_keystones
f 44/165/42 9/166/42 5/167/42 1/168/42
o arch_2_left_inner
v 0.232626875 1.46875 0.015625
v 0.232626875 1.46875 -0.5093749999999999
v 0.16252125 1.026120625 0.015625
v 0.16252125 1.026120625 -0.5093749999999999
v 0.67511 1.32497875 0.015625
v 0.67511 1.32497875 -0.5093749999999999
v 0.471655625 0.925676875 0.015625
v 0.471655625 0.925676875 -0.5093749999999999
v 1.05150875 1.05150875 0.015625
v 1.05150875 1.05150875 -0.5093749999999999
v 0.73462125 0.73462125 0.015625
v 0.73462125 0.73462125 -0.5093749999999999
v 1.32497875 0.67511 0.015625
v 1.32497875 0.67511 -0.5093749999999999
v 0.925676875 0.471655625 0.015625
v 0.925676875 0.471655625 -0.5093749999999999
v 1.46875 0.232626875 0.015625
v 1.46875 0.232626875 -0.5093749999999999
v 1.026120625 0.16252125 0.015625
v 1.026120625 0.16252125 -0.5093749999999999
v 1.46875 0 0.015625
v 1.46875 0 -0.5093749999999999
v 1.026120625 0 0.015625
v 1.026120625 0 -0.5093749999999999
v 0.0625 1.46875 0.015625
v 0.0625 1.46875 -0.5093749999999999
v 0.0625 1.026120625 0.015625
v 0.0625 1.026120625 -0.5093749999999999
vt 0 1
vt 0.46875 1
vt 0.46875 0.5625
vt 0 0.5625
vt 0.0703125 0.5625
vt 0.3984375 0.5625
vt 0.46875 1
vt 0 1
vt 0 0.15625
vt 0.46875 0.15625
vt 0.3984375 0.59375
vt 0.0703125 0.59375
vt 0 1
vt 0.46875 1
vt 0.46875 0.5625
vt 0 0.5625
vt 0.5 0.7734375
vt 0.5 0.4453125
vt 0.0625 0.375
vt 0.0625 0.84375
vt 0 1
vt 0.46875 1
vt 0.3984375 0.5625
vt 0.0703125 0.5625
vt 0 1
vt 0.46875 1
vt 0.46875 0.5625
vt 0 0.5625
vt 0.5 0.0703125
vt 0.5 0.3984375
vt 0.0625 0.46875
vt 0.0625 0
vt 0.0625 0.65625
vt 0.0625 0.1875
vt 0.5 0.2578125
vt 0.5 0.5859375
vt 0 1
vt 0.46875 1
vt 0.46875 0.5625
vt 0 0.5625
vt 0.0703125 0.5625
vt 0.3984375 0.5625
vt 0.46875 1
vt 0 1
vt 0.03125 0.46875
vt 0.03125 0
vt 0.46875 0.0703125
vt 0.46875 0.3984375
vt 0 1
vt 0.25 1
vt 0.25 0.5625
vt 0 0.5625
vt 0.3515625 0.59375
vt 0.5 0.59375
vt 0.5 0.15625
vt 0.28125 0.15625
vt 0.46875 0.15625
vt 0.25 0.15625
vt 0.25 0.59375
vt 0.3984375 0.59375
vt 0 1
vt 0.15625 1
vt 0.15625 0.5625
vt 0 0.5625
vt 0 0.5625
vt 0.09375 0.5625
vt 0.15625 1
vt 0 1
vt 0 1
vt 0.15625 1
vt 0.09375 0.5625
vt 0 0.5625
vn 0.3090165422449363 0.9510566632009808 0
vn 0 0 1
vn 0 0 -1
vn 0.587785675220883 0.8090166870993025 0
vn 0 0 1
vn 0 0 -1
vn 0.8090166870993025 0.587785675220883 0
vn 0 0 1
vn 0 0 -1
vn 0.9510566632009808 0.3090165422449363 0
vn 0 0 1
vn 0 0 -1
vn 1 0 0
vn 0 0 1
vn 0 0 -1
vn 0 1 0
vn 0 0 1
vn 0 0 -1
usemtl m_arch
f 45/169/43 49/170/43 50/171/43 46/172/43
f 47/173/44 51/174/44 49/175/44 45/176/44
f 46/177/45 50/178/45 52/179/45 48/180/45
f 49/181/46 53/182/46 54/183/46 50/184/46
f 51/185/47 55/186/47 53/187/47 49/188/47
f 50/189/48 54/190/48 56/191/48 52/192/48
f 53/193/49 57/194/49 58/195/49 54/196/49
f 55/197/50 59/198/50 57/199/50 53/200/50
f 54/201/51 58/202/51 60/203/51 56/204/51
f 57/205/52 61/206/52 62/207/52 58/208/52
f 59/209/53 63/210/53 61/211/53 57/212/53
f 58/213/54 62/214/54 64/215/54 60/216/54
f 61/217/55 65/218/55 66/219/55 62/220/55
f 63/221/56 67/222/56 65/223/56 61/224/56
f 62/225/57 66/226/57 68/227/57 64/228/57
f 69/229/58 45/230/58 46/231/58 70/232/58
f 71/233/59 47/234/59 45/235/59 69/236/59
f 70/237/60 46/238/60 48/239/60 72/240/60