# Blender v3.2.2 OBJ File: ''
# www.blender.org
mtllib generic_arch.mtl
o arch_3_middle
v 0.702835 0.450286 0.042188
v 1.019138 0.408644 0.042188
v 1.019138 0.408644 -0.035937
v 0.702835 0.450286 -0.035937
v 0.650857 -0.010873 -0.035937
v 0.949989 -0.050254 -0.035938
v 0.949989 -0.050254 0.042187
v 0.650857 -0.010873 0.042188
v -0.019138 0.408644 0.042188
v 0.297165 0.450286 0.042188
v 0.297165 0.450286 -0.035937
v -0.019138 0.408644 -0.035937
v 0.050011 -0.050254 -0.035938
v 0.349143 -0.010873 -0.035937
v 0.349143 -0.010873 0.042188
v 0.050011 -0.050254 0.042187
v 0.340484 0.453125 0.042188
v 0.659516 0.453125 0.042188
v 0.659516 0.453125 -0.035937
v 0.340484 0.453125 -0.035937
vt 0.500000 0.937500
vt 0.812500 0.937500
vt 0.812500 1.000000
vt 0.500000 1.000000
vt 0.750000 1.000000
vt 0.500000 1.000000
vt 0.500000 0.937500
vt 0.750000 0.937500
vt 0.500000 0.937500
vt 0.750000 0.937500
vt 0.750000 1.000000
vt 0.500000 1.000000
vt 0.695312 0.000000
vt 0.992188 0.000000
vt 1.000000 0.468750
vt 0.687500 0.468748
vt 1.000000 0.468750
vt 0.687500 0.468750
vt 0.695312 0.000000
vt 0.992188 0.000000
vt 0.468750 0.937500
vt 0.156250 0.937500
vt 0.156250 1.000000
vt 0.468750 1.000000
vt 0.218750 0.937500
vt 0.468750 0.937500
vt 0.468750 1.000000
vt 0.218750 1.000000
vt 0.531250 0.937500
vt 0.531250 1.000000
vt 1.000000 1.000000
vt 1.000000 0.937500
vt 0.968750 0.937500
vt 0.968750 1.000000
vt 0.500000 1.000000
vt 0.500000 0.937500
vt 0.031250 1.000000
vt 0.031250 0.937500
vt 1.000000 1.000000
vt 0.531250 1.000000
vt 0.531250 0.937500
vt 1.000000 0.937500
vt 0.695312 0.000000
vt 0.992188 0.000000
vt 1.000000 0.468750
vt 0.687500 0.468748
vt 1.000000 0.468750
vt 0.687500 0.468750
vt 0.695312 0.000000
vt 0.992188 0.000000
vt 1.000000 0.937500
vt 0.687500 0.937500
vt 0.687500 1.000000
vt 1.000000 1.000000
vt 0.195312 0.000000
vt 0.492188 0.000000
vt 0.500000 0.468750
vt 0.187500 0.468748
vt 0.500000 0.468750
vt 0.187500 0.468750
vt 0.195312 0.000000
vt 0.492188 0.000000
vt 0.000000 0.937500
vt 0.000000 1.000000
vt 0.468750 1.000000
vt 0.468750 0.937500
vt 1.000000 0.937500
vt 1.000000 1.000000
vt 0.531250 1.000000
vt 0.531250 0.937500
vn 0.1305 0.9914 0.0000
vn -0.1305 -0.9914 -0.0000
vn 0.1305 -0.9914 -0.0000
vn -0.0000 -0.0000 1.0000
vn 0.0000 0.0000 -1.0000
vn 0.0000 1.0000 0.0000
vn 0.0000 -1.0000 -0.0000
vn -0.9888 -0.1490 0.0000
vn -0.9937 0.1120 0.0000
vn 0.9998 -0.0187 0.0000
vn 0.9888 -0.1490 0.0000
vn -0.1305 0.9914 0.0000
vn -0.9998 -0.0187 0.0000
vn 0.9937 0.1120 0.0000
usemtl m_arch
s 1
f 1/1/1 2/2/1 3/3/1 4/4/1
f 5/5/2 6/6/2 7/7/2 8/8/2
f 13/9/3 14/10/3 15/11/3 16/12/3
f 16/13/4 15/14/4 10/15/4 9/16/4
f 12/17/5 11/18/5 14/19/5 13/20/5
f 17/21/6 18/22/6 19/23/6 20/24/6
f 14/25/7 5/26/7 8/27/7 15/28/7
f 9/29/8 12/30/8 13/31/8 16/32/8
f 1/33/9 4/34/9 5/35/9 8/36/9
f 8/36/10 5/35/10 19/37/10 18/38/10
f 6/39/11 3/40/11 2/41/11 7/42/11
usemtl m_big_arch
f 8/43/4 7/44/4 2/45/4 1/46/4
f 4/47/5 3/48/5 6/49/5 5/50/5
f 9/51/12 10/52/12 11/53/12 12/54/12
f 15/55/4 8/56/4 18/57/4 17/58/4
f 20/59/5 19/60/5 5/61/5 14/62/5
f 17/63/13 20/64/13 14/65/13 15/66/13
f 15/67/14 14/68/14 11/69/14 10/70/14
o arch_3_middle_inner
v 0.229149 0.437500 0.010938
v 0.770851 0.437500 0.010938
v 0.770851 0.437500 -0.004687
v 0.229149 0.437500 -0.004687
v 0.272467 -0.002319 0.010937
v 0.727533 -0.002319 0.010937
v 0.727533 -0.002319 -0.004688
v 0.272467 -0.002319 -0.004688
vt 0.000000 0.968750
vt 0.500000 0.968750
vt 0.500000 1.000000
vt 0.000000 1.000000
vt 0.460938 0.000000
vt 0.039062 0.000000
vt 0.000000 0.437497
vt 0.500000 0.437500
vt 0.000000 0.437500
vt 0.500000 0.437500
vt 0.460938 0.000000
vt 0.039062 0.000000
vn 0.0000 1.0000 0.0000
vn 0.0000 -0.0000 1.0000
vn 0.0000 0.0000 -1.0000
usemtl m_big_arch
s 1
f 21/71/15 22/72/15 23/73/15 24/74/15
f 25/75/16 26/76/16 22/77/16 21/78/16
usemtl m_arch
f 24/79/17 23/80/17 27/81/17 28/82/17
