mtllib generic_arch.mtl

o arch_1
v -0.029476875 0.724256875 0.026562500000000044
v -0.029476875 0.724256875 -0.5203125
v 1.029476875 0.724256875 0.026562500000000044
v 1.029476875 0.724256875 -0.5203125
v -0.352678125 0.984520625 0.026562500000000044
v -0.172020625 1.165178125 0.026562500000000044
v -0.172020625 1.165178125 -0.5203125
v -0.352678125 0.984520625 -0.5203125
v 0.092036875 0.8441675 -0.5203125
v 0.092036875 0.8441675 0.026562500000000044
v -0.149691875 1.182311875 0.026562500000000044
v 0.071566875 1.310055625 0.026562500000000044
v 0.071566875 1.310055625 -0.5203125
v -0.149691875 1.182311875 -0.5203125
v 0.24354375 0.93164 -0.5203125
v 0.24354375 0.93164 0.026562500000000044
v 0.4125275 0.976919375 0.026562500000000044
v 0.344351875 1.38695125 0.026562500000000044
v 0.097569375 1.32082625 0.026562500000000044
v 0.344351875 1.38695125 -0.5203125
v 0.097569375 1.32082625 -0.5203125
v 0.4125275 0.976919375 -0.5203125
v 0.5874725 0.976919375 0.026562500000000044
v 0.627744375 1.390625 0.026562500000000044
v 0.372255625 1.390625 0.026562500000000044
v 0.627744375 1.390625 -0.5203125
v 0.372255625 1.390625 -0.5203125
v 0.5874725 0.976919375 -0.5203125
v 0.75645625 0.93164 0.026562500000000044
v 0.902430625 1.32082625 0.026562500000000044
v 0.655648125 1.38695125 0.026562500000000044
v 0.902430625 1.32082625 -0.5203125
v 0.655648125 1.38695125 -0.5203125
v 0.75645625 0.93164 -0.5203125
v 0.907963125 0.8441675 0.026562500000000044
v 1.149691875 1.182311875 0.026562500000000044
v 0.928433125 1.310055625 0.026562500000000044
v 1.149691875 1.182311875 -0.5203125
v 0.928433125 1.310055625 -0.5203125
v 0.907963125 0.8441675 -0.5203125
v 1.172020625 1.165178125 0.026562500000000044
v 1.352678125 0.984520625 0.026562500000000044
v 1.352678125 0.984520625 -0.5203125
v 1.172020625 1.165178125 -0.5203125
vt 0.96875 0.5
vt 0.71875 0.5
vt 0.71875 1
vt 0.96875 1
vt 0.84375 1
vt 1 1
vt 1 0.5
vt 0.84375 0.5
vt 0.6875 0.53125
vt 0.5234375 0.53125
vt 0.5 0.125
vt 0.75 0.125
vt 0.5625 0.90625
vt 0.8125 0.90625
vt 0.75 0.5
vt 0.5859375 0.5
vt 0.46875 0.5
vt 0.21875 0.5
vt 0.21875 1
vt 0.46875 1
vt 0.3125 0.5
vt 0.46875 0.5
vt 0.46875 1
vt 0.3125 1
vt 0.1875 0.53125
vt 0.0234375 0.53125
vt 0 0.125
vt 0.25 0.125
vt 0 0.40625
vt 0.25 0.40625
vt 0.1875 0
vt 0.0234375 0
vt 0.75 1
vt 0.5 1
vt 0.5 0.5
vt 0.75 0.5
vt 0.6875 0.5
vt 0.5234375 0.5
vt 0.5 0.90625
vt 0.75 0.90625
vt 0.75 0.40625
vt 0.5 0.40625
vt 0.5234375 0
vt 0.6875 0
vt 1 0.5
vt 0.75 0.5
vt 0.75 1
vt 1 1
vt 1 1
vt 0.84375 1
vt 0.84375 0.5
vt 1 0.5
vt 0.5234375 0
vt 0.6875 0
vt 0.75 0.40625
vt 0.5 0.40625
vt 0.5 0.90625
vt 0.75 0.90625
vt 0.6875 0.5
vt 0.5234375 0.5
vt 0.5 1
vt 0.25 1
vt 0.25 0.5
vt 0.5 0.5
vt 0.5 0.5
vt 0.34375 0.5
vt 0.34375 1
vt 0.5 1
vt 0.1875 0
vt 0.0234375 0
vt 0 0.40625
vt 0.25 0.40625
vt 0 0.125
vt 0.25 0.125
vt 0.1875 0.53125
vt 0.0234375 0.53125
vt 0.5 1
vt 0.75 1
vt 0.75 0.5
vt 0.5 0.5
vt 1 0.5
vt 0.84375 0.5
vt 0.84375 1
vt 1 1
vt 0.75 0.5
vt 0.5859375 0.5
vt 0.5625 0.90625
vt 0.8125 0.90625
vt 0.5 0.125
vt 0.75 0.125
vt 0.6875 0.53125
vt 0.5234375 0.53125
vt 0.5 0.5
vt 0.25 0.5
vt 0.25 1
vt 0.5 1
vt 0.46875 1
vt 0.3125 1
vt 0.3125 0.5
vt 0.46875 0.5
vt 0.203125 0.5
vt 0.0234375 0.5
vt 0 0.90625
vt 0.25 0.90625
vt 0 0.90625
vt 0.25 0.90625
vt 0.203125 0.5
vt 0.0234375 0.5
vt 0.8125 0.5
vt 0.96875 0.5
vt 0.96875 1
vt 0.8125 1
vt 0.5 0.5
vt 0.5 1
vt 0.90625 1
vt 0.90625 0.5
vt 0 0.5
vt 0 1
vt 0.40625 1
vt 0.40625 0.5
vt 0.96875 1
vt 0.96875 0.5
vt 0.5625 0.5
vt 0.5625 1
vt 0.00000625 0.5
vt 0.00000625 1
vt 0.40625625 1
vt 0.40625625 0.5
vt 0.5625 1
vt 0.5625 0.5
vt 0.96875 0.5
vt 0.96875 1
vt 0 1
vt 0 0.5
vt 0.40625 0.5
vt 0.40625 1
vt 1 0.5
vt 1 1
vt 0.59375 1
vt 0.59375 0.5
vt 0.5002 0.5
vt 0.90645 0.5
vt 0.90645 1
vt 0.5007075 1
vt 0 1
vt 0.40625 1
vt 0.40625 0.5
vt 0 0.5
vt 0 1
vt 0.40625 1
vt 0.40625 0.5
vt 0 0.5
vt 0.40625 0.5
vt 0.40625 1
vt 0 1
vt 0 0.5
vt 0.5625 0.5
vt 0.5625 1
vt 0.96875 1
vt 0.96875 0.5
vt 0.40625 0.5
vt 0.40625 1
vt 0 1
vt 0 0.5
vt 0.90625 1
vt 0.90625 0.5
vt 0.5 0.5
vt 0.5 1
vn 0.25881841850795984 0.9659259941843571 0
vn -0.2588207285389443 -0.9659253752120659 0
vn 0 0 1
vn 0 0 -1
vn 0.4999998565300209 0.8660254866168541 0
vn -0.4999998496728111 -0.8660254905758642 0
vn 0 0 1
vn 0 0 -1
vn 0.7071067811865476 0.7071067811865476 0
vn 0 0 1
vn 0 0 -1
vn -0.7071067811865474 0.7071067811865477 0
vn 0.7023959101802172 -0.7117864745568745 0
vn 0 0 1
vn 0 0 -1
vn -0.4999998565300209 0.8660254866168539 0
vn 0.49999984967281097 -0.8660254905758644 0
vn 0 0 1
vn 0 0 -1
vn -0.2588184185079599 0.9659259941843571 0
vn 0.2588207285389444 -0.9659253752120658 0
vn 0 0 1
vn 0 0 -1
vn 0 1 0
vn 0 -1 0
vn 0 0 1
vn 0 0 -1
vn -0.7023959101802171 -0.7117864745568748 0
vn 0.93630581777742 -0.3511857280644492 0
vn 0.8135091872599675 -0.58155206322704 0
vn 0.6271938860758928 -0.7788631646631006 0
vn 0.9952954544611656 -0.09688631652066206 0
vn 0.9864574494717093 0.16401737829196744 0
vn 0.9103938703262079 0.413742674705508 0
vn 0.7722892347688552 0.6352710743140572 0
vn -0.6271938860758927 -0.7788631646631007 0
vn -0.8135091872599676 -0.58155206322704 0
vn -0.93630581777742 -0.3511857280644492 0
vn -0.9952954544611656 -0.09688631652066193 0
vn -0.9864574494717093 0.16401737829196755 0
vn -0.9103938703262081 0.41374267470550785 0
vn -0.772289234768855 0.6352710743140572 0
usemtl m_arch
f 31/1/1 30/2/1 32/3/1 33/4/1
f 28/5/2 34/6/2 29/7/2 23/8/2
usemtl m_keystones
f 23/9/3 29/10/3 30/11/3 31/12/3
f 33/13/4 32/14/4 34/15/4 28/16/4
usemtl m_arch
f 37/17/5 36/18/5 38/19/5 39/20/5
f 34/21/6 40/22/6 35/23/6 29/24/6
usemtl m_keystones
f 29/25/7 35/26/7 36/27/7 37/28/7
f 39/29/8 38/30/8 40/31/8 34/32/8
usemtl m_arch
f 41/33/9 42/34/9 43/35/9 44/36/9
usemtl m_keystones
f 35/37/10 3/38/10 42/39/10 41/40/10
f 44/41/11 43/42/11 4/43/11 40/44/11
usemtl m_arch
f 5/45/12 6/46/12 7/47/12 8/48/12
f 2/49/13 9/50/13 10/51/13 1/52/13
usemtl m_keystones
f 1/53/14 10/54/14 6/55/14 5/56/14
f 8/57/15 7/58/15 9/59/15 2/60/15
usemtl m_arch
f 11/61/16 12/62/16 13/63/16 14/64/16
f 9/65/17 15/66/17 16/67/17 10/68/17
usemtl m_keystones
f 10/69/18 16/70/18 12/71/18 11/72/18
f 14/73/19 13/74/19 15/75/19 9/76/19
usemtl m_arch
f 19/77/20 18/78/20 20/79/20 21/80/20
f 15/81/21 22/82/21 17/83/21 16/84/21
usemtl m_keystones
f 16/85/22 17/86/22 18/87/22 19/88/22
f 21/89/23 20/90/23 22/91/23 15/92/23
usemtl m_arch
f 25/93/24 24/94/24 26/95/24 27/96/24
f 22/97/25 28/98/25 23/99/25 17/100/25
usemtl m_keystones
f 17/101/26 23/102/26 24/103/26 25/104/26
f 27/105/27 26/106/27 28/107/27 22/108/27
usemtl m_arch
f 40/109/28 4/110/28 3/111/28 35/112/28
f 29/113/29 34/114/29 32/115/29 30/116/29
f 35/117/30 40/118/30 38/119/30 36/120/30
f 3/121/31 4/122/31 43/123/31 42/124/31
f 23/125/32 28/126/32 26/127/32 24/128/32
f 17/129/33 22/130/33 20/131/33 18/132/33
f 16/133/34 15/134/34 13/135/34 12/136/34
f 10/137/35 9/138/35 7/139/35 6/140/35
f 1/141/36 5/142/36 8/143/36 2/144/36
f 10/145/37 11/146/37 14/147/37 9/148/37
f 16/149/38 19/150/38 21/151/38 15/152/38
f 25/153/39 27/154/39 22/155/39 17/156/39
f 31/157/40 33/158/40 28/159/40 23/160/40
f 37/161/41 39/162/41 34/163/41 29/164/41
f 41/165/42 44/166/42 40/167/42 35/168/42
o arch_1_inner
v 0.611673125 1.375 0.0015625000000000222
v 0.611673125 1.375 -0.5015625
v 0.571231875 0.9902275 0.0015625000000000222
v 0.571231875 0.9902275 -0.5015625
v 0.830139375 1.32856375 0.0015625000000000222
v 0.830139375 1.32856375 -0.5015625
v 0.710583125 0.9606075 0.0015625000000000222
v 0.710583125 0.9606075 -0.5015625
v 1.03417625 1.237720625 0.0015625000000000222
v 1.03417625 1.237720625 -0.5015625
v 0.840730625 0.9026625 0.0015625000000000222
v 0.840730625 0.9026625 -0.5015625
v 1.2148675 1.106440625 0.0015625000000000222
v 1.2148675 1.106440625 -0.5015625
v 0.95598625 0.81892375 0.0015625000000000222
v 0.95598625 0.81892375 -0.5015625
v -0.2148675 1.106440625 0.0015625000000000222
v -0.2148675 1.106440625 -0.5015625
v 0.04401375 0.81892375 0.0015625000000000222
v 0.04401375 0.81892375 -0.5015625
v -0.03417625 1.237720625 0.0015625000000000222
v -0.03417625 1.237720625 -0.5015625
v 0.159269375 0.9026625 0.0015625000000000222
v 0.159269375 0.9026625 -0.5015625
v 0.169860625 1.32856375 0.0015625000000000222
v 0.169860625 1.32856375 -0.5015625
v 0.289416875 0.9606075 0.0015625000000000222
v 0.289416875 0.9606075 -0.5015625
v 0.388326875 1.375 0.0015625000000000222
v 0.388326875 1.375 -0.5015625
v 0.428768125 0.9902275 0.0015625000000000222
v 0.428768125 0.9902275 -0.5015625
vt 0 0.5625
vt 0.21875 0.5625
vt 0.21875 1
vt 0 1
vt 0.0390625 0
vt 0.1796875 0
vt 0.21875 0.375
vt 0 0.37499625000000003
vt 0.5 0.625
vt 0.28125 0.625
vt 0.3203125 1
vt 0.4609375 1
vt 0.34375 0.5625
vt 0.125 0.5625
vt 0.125 1
vt 0.34375 1
vt 0.1640625 0
vt 0.3046875 0
vt 0.34375 0.375
vt 0.125 0.37499625000000003
vt 0.375 0.625
vt 0.15625 0.625
vt 0.1953125 1
vt 0.3359375 1
vt 0.28125 0.5625
vt 0.5 0.5625
vt 0.5 1
vt 0.28125 1
vt 0.3203125 0
vt 0.4609375 0
vt 0.5 0.375
vt 0.28125 0.37499625000000003
vt 0.21875 0.625
vt 0 0.625
vt 0.0390625 1
vt 0.1796875 1
vt 0.5 0.5625
vt 0.28125 0.5625
vt 0.28125 1
vt 0.5 1
vt 0.0390625 1
vt 0.1796875 1
vt 0.21875 0.625
vt 0 0.6250037500000001
vt 0 0.375
vt 0.21875 0.375
vt 0.1796875 0
vt 0.0390625 0
vt 0.125 0.5625
vt 0.34375 0.5625
vt 0.34375 1
vt 0.125 1
vt 0.1953125 1
vt 0.3359375 1
vt 0.375 0.625
vt 0.15625 0.6250037500000001
vt 0.125 0.375
vt 0.34375 0.375
vt 0.3046875 0
vt 0.1640625 0
vt 0.21875 0.5625
vt 0 0.5625
vt 0 1
vt 0.21875 1
vt 0.3203125 1
vt 0.4609375 1
vt 0.5 0.625
vt 0.28125 0.6250037500000001
vt 0.28125 0.375
vt 0.5 0.375
vt 0.4609375 0
vt 0.3203125 0
vn 0.207910898568195 0.9781477691313137 0
vn 0 0 1
vn 0 0 -1
vn 0.4067368500458676 0.9135453654935618 0
vn 0 0 1
vn 0 0 -1
vn 0.5877856110877269 0.8090167336948154 0
vn 0 0 1
vn 0 0 -1
vn -0.5877856110877269 0.8090167336948154 0
vn 0 0 1
vn -5.2446283175146216e-17 -9.629143703483521e-17 -1
vn -0.4067368500458678 0.9135453654935619 0
vn 0 0 1
vn 2.3380282614489465e-17 -5.251294251796437e-17 -1
vn -0.20791089856819495 0.9781477691313137 0
vn 0 0 1
vn 9.902857077810661e-17 1.0408330085908175e-17 -1
usemtl m_arch
f 45/169/43 49/170/43 50/171/43 46/172/43
f 47/173/44 51/174/44 49/175/44 45/176/44
f 46/177/45 50/178/45 52/179/45 48/180/45
f 49/181/46 53/182/46 54/183/46 50/184/46
f 51/185/47 55/186/47 53/187/47 49/188/47
f 50/189/48 54/190/48 56/191/48 52/192/48
f 53/193/49 57/194/49 58/195/49 54/196/49
f 55/197/50 59/198/50 57/199/50 53/200/50
f 54/201/51 58/202/51 60/203/51 56/204/51
f 61/205/52 65/206/52 66/207/52 62/208/52
f 63/209/53 67/210/53 65/211/53 61/212/53
f 62/213/54 66/214/54 68/215/54 64/216/54
f 65/217/55 69/218/55 70/219/55 66/220/55
f 67/221/56 71/222/56 69/223/56 65/224/56
f 66/225/57 70/226/57 72/227/57 68/228/57
f 69/229/58 73/230/58 74/231/58 70/232/58
f 71/233/59 75/234/59 73/235/59 69/236/59
f 70/237/60 74/238/60 76/239/60 72/240/60