mtllib generic_arch.mtl

o arch_3_middle
v 0.349143125 0.989126875 -0.5359374999999997
v 0.650856875 0.989126875 -0.5359374999999997
v 0.650856875 0.9891268749999998 0.04218750000000021
v 0.65951625 1.4531249999999998 0.04218750000000032
v 0.34048375 1.4531249999999998 0.04218750000000032
v 0.65951625 1.453125 -0.5359374999999997
v 0.34048375 1.453125 -0.5359374999999997
v 0.05001124999999995 0.949745625 -0.5359374999999998
v 0.05001124999999995 0.9497456249999999 0.04218750000000021
v 0.297165 1.4502856249999998 0.04218750000000032
v -0.019138125000000006 1.4086437499999998 0.04218750000000032
v 0.297165 1.450285625 -0.5359374999999997
v -0.019138125000000006 1.40864375 -0.5359374999999997
v 0.94998875 0.949745625 -0.5359374999999998
v 0.94998875 0.9497456249999999 0.04218750000000021
v 1.019138125 1.4086437499999998 0.04218750000000032
v 0.702835 1.4502856249999998 0.04218750000000032
v 1.019138125 1.40864375 -0.5359374999999997
v 0.702835 1.450285625 -0.5359374999999997
v 0.349143125 0.9891268749999998 0.04218750000000021
vt 0.5 0.5
vt 0.8125 0.5
vt 0.8125 1
vt 0.5 1
vt 0.75 1
vt 0.5 1
vt 0.5 0.5
vt 0.75 0.5
vt 0.6953125 0
vt 0.9921875 0
vt 1 0.46875
vt 0.6875 0.4687475
vt 1 0.46875
vt 0.6875 0.46875
vt 0.6953125 0
vt 0.9921875 0
vt 1 0.5
vt 0.6875 0.5
vt 0.6875 1
vt 1 1
vt 0.5 0.5
vt 0.75 0.5
vt 0.75 1
vt 0.5 1
vt 0.6953125 0
vt 0.9921875 0
vt 1 0.46875
vt 0.6875 0.4687475
vt 1 0.46875
vt 0.6875 0.46875
vt 0.6953125 0
vt 0.9921875 0
vt 0.46875 0.5
vt 0.15625 0.5
vt 0.15625 1
vt 0.46875 1
vt 0.21875 0.5
vt 0.46875 0.5
vt 0.46875 1
vt 0.21875 1
vt 0.1953125 0
vt 0.4921875 0
vt 0.5 0.46875
vt 0.1875 0.4687475
vt 0.5 0.46875
vt 0.1875 0.46875
vt 0.1953125 0
vt 0.4921875 0
vt 0.53125 0.5
vt 0.53125 1
vt 1 1
vt 1 0.5
vt 0 0.5
vt 0 1
vt 0.46875 1
vt 0.46875 0.5
vt 0.96875 0.5
vt 0.96875 1
vt 0.5 1
vt 0.5 0.5
vt 0.5 0.5
vt 0.5 1
vt 0.03125 1
vt 0.03125 0.5
vt 1 0.5
vt 1 1
vt 0.53125 1
vt 0.53125 0.5
vt 1 1
vt 0.53125 1
vt 0.53125 0.5
vt 1 0.5
vn 0.13052551006711754 0.9914449511807092 2.2014500248983752e-16
vn -0.13052551309678245 -0.9914449507818484 -2.2014500240127263e-16
vn 0 -2.220446049250313e-16 1
vn 0 2.220446049250313e-16 -1
vn -0.13052551006711754 0.9914449511807092 2.2014500248983752e-16
vn 0.13052551309678243 -0.9914449507818484 -2.2014500240127263e-16
vn 0 -2.220446049250313e-16 1
vn 0 2.220446049250313e-16 -1
vn 0 1 2.220446049250313e-16
vn 0 -1 -2.220446049250313e-16
vn 0 -2.220446049250313e-16 1
vn 0 2.220446049250313e-16 -1
vn -0.9888366650297189 -0.14900352308889775 -3.308542841671208e-17
vn -0.9998259006214253 -0.01865927240157205 -4.143190768595606e-18
vn -0.9937078906608593 0.11200280370752254 2.4869618299732674e-17
vn 0.9998259006214253 -0.01865927240157205 -4.143190768595606e-18
vn 0.9937078906608593 0.11200280370752254 2.4869618299732674e-17
vn 0.9888366650297189 -0.14900352308889786 -3.3085428416712106e-17
usemtl m_arch
f 17/1/1 16/2/1 18/3/1 19/4/1
f 2/5/2 14/6/2 15/7/2 3/8/2
usemtl m_big_arch
f 3/9/3 15/10/3 16/11/3 17/12/3
f 19/13/4 18/14/4 14/15/4 2/16/4
f 11/17/5 10/18/5 12/19/5 13/20/5
usemtl m_arch
f 8/21/6 1/22/6 20/23/6 9/24/6
f 9/25/7 20/26/7 10/27/7 11/28/7
f 13/29/8 12/30/8 1/31/8 8/32/8
f 5/33/9 4/34/9 6/35/9 7/36/9
f 1/37/10 2/38/10 3/39/10 20/40/10
usemtl m_big_arch
f 20/41/11 3/42/11 4/43/11 5/44/11
f 7/45/12 6/46/12 2/47/12 1/48/12
usemtl m_arch
f 11/49/13 13/50/13 8/51/13 9/52/13
usemtl m_big_arch
f 5/53/14 7/54/14 1/55/14 20/56/14
usemtl m_arch
f 17/57/15 19/58/15 2/59/15 3/60/15
f 3/61/16 2/62/16 6/63/16 4/64/16
usemtl m_big_arch
f 20/65/17 1/66/17 12/67/17 10/68/17
usemtl m_arch
f 14/69/18 18/70/18 16/71/18 15/72/18
o arch_3_middle_inner
v 0.77085125 1.4374999999999998 0.010937500000000322
v 0.77085125 1.4375 -0.5046874999999997
v 0.727533125 0.9976812499999999 0.010937500000000211
v 0.727533125 0.99768125 -0.5046874999999998
v 0.22914875 1.4374999999999998 0.010937500000000322
v 0.22914875 1.4375 -0.5046874999999997
v 0.272466875 0.9976812499999999 0.010937500000000211
v 0.272466875 0.99768125 -0.5046874999999998
vt 0 0.5625
vt 0.5 0.5625
vt 0.5 1
vt 0 1
vt 0.4609375 0
vt 0.0390625 0
vt 0 0.43749625000000003
vt 0.5 0.4375
vt 0 0.4375
vt 0.5 0.4375
vt 0.4609375 0
vt 0.0390625 0
vn 0 1 2.220446049250313e-16
vn 0 -2.220446049250313e-16 1
vn 0 2.220446049250313e-16 -1
usemtl m_big_arch
f 25/73/19 21/74/19 22/75/19 26/76/19
f 27/77/20 23/78/20 21/79/20 25/80/20
usemtl m_arch
f 26/81/21 22/82/21 24/83/21 28/84/21