mtllib generic_arch.mtl

o arch
v -0.611468125 0.08142875 -0.5474768749999991
v 0.008699999999999992 0.02599625 -0.5474768749999994
v 0.008699999999999992 -0.36650375 -0.5474768749999994
v -0.622646875 -0.36650375 -0.5474768749999991
v -0.622646875 -0.36650375 0.05465437500000007
v -0.611468125 0.08142875 0.05465437500000007
v 0.008700000000000006 -0.36650375 0.05465437499999966
v 0.008700000000000006 0.02599625 0.05465437499999966
v -0.60885125 0.108906875 -0.5474768749999991
v -0.60885125 0.108906875 0.05465437500000007
v -0.50733875 0.58785625 0.054654374999999984
v -0.50733875 0.587855 -0.5474768749999991
v 0.09030625 0.40991875 0.054654374999999575
v 0.09030625 0.40991875 -0.5474768749999995
v -0.49951125 0.609731875 0.054654374999999984
v 0.24995 0.76848625 0.05465437499999949
v -0.28964 1.07566125 0.0546543749999999
v -0.49951125 0.609731875 -0.5474768749999991
v -0.28964 1.07566125 -0.5474768749999992
v 0.24995 0.768485 -0.5474768749999995
v 0.48065625 1.086025 -0.5474768749999998
v 0.019281249999999993 1.48956 -0.5474768749999994
v 0.019281250000000007 1.48956 0.05465437499999966
v 0.48065625 1.086025 0.05465437499999933
v -0.27984875 1.094436875 -0.5474768749999992
v -0.27984875 1.094438125 0.054654374999999825
v 0.77234 1.348658125 -0.5474768750000001
v 0.40535 1.83816375 -0.5474768749999998
v 0.40535 1.83816375 0.05465437499999933
v 0.77234 1.34865875 0.05465437499999909
v 0.038671875 1.512536875 -0.5474768749999994
v 0.038671875 1.512536875 0.05465437499999966
v 0.422721875 1.85573 0.05465437499999933
v 1.112255 1.54490875 0.05465437499999884
v 0.850535 2.10412375 0.054654374999999006
v 0.422721875 1.85573 -0.5474768749999998
v 0.850535 2.10412375 -0.5474768750000001
v 1.112255 1.544908125 -0.5474768750000002
vt 0.0625 0
vt 0.125 0.625
vt 0.5 0.625
vt 0.5 0
vt 0.5 0.90625
vt 0.5 1
vt 0.0625 1
vt 0.0625 0.90625
vt 0.5 0.625
vt 0.5 0
vt 0.125 0
vt 0.0625 0.625
vt 0.5 1
vt 0.49481125 0.90625
vt 0.09375 0.906493125
vt 0.09893875 1
vt 0 1
vt 0.5 1
vt 0.5 0.90625
vt 0 0.90625
vt 0.5 0.90625
vt 0 0.90625
vt 0 1
vt 0.5 1
vt 1 0.999781875
vt 0.993393125 0.90625
vt 0.5 0.90625
vt 0.506605625 1
vt 1 0.6247125
vt 0.984375 0
vt 0.59375 0
vt 0.53125 0.625
vt 1 1
vt 0.99481125 0.90625
vt 0.59375 0.906493125
vt 0.59893875 1
vt 1 1
vt 0.5 1
vt 0.5 0.90625
vt 1 0.90625
vt 0.53125 0.0002874999999999961
vt 0.59375 0.625
vt 0.984375 0.625
vt 1 0
vt 1 0.90625
vt 0.5 0.90625
vt 0.5 1
vt 1 1
vt 0.5 0.6247125
vt 0.484375 0
vt 0.09375 0
vt 0.03125 0.625
vt 0.5 0.999781875
vt 0.493393125 0.90625
vt 0 0.90625
vt 0.006605625 1
vt 0.5 1
vt 0 1
vt 0 0.90625
vt 0.5 0.90625
vt 0.5 0.90625
vt 0.49481125 1
vt 0.09375 0.999756875
vt 0.09893875 0.90625
vt 0.03125 0.0002874999999999961
vt 0.09375 0.625
vt 0.484375 0.625
vt 0.5 0
vt 0.5 0.90625
vt 0 0.90625
vt 0 1
vt 0.5 1
vt 1 1
vt 0.5 1
vt 0.5 0.90625
vt 1 0.90625
vt 1 0.999781875
vt 0.993393125 0.90625
vt 0.5 0.90625
vt 0.506605625 1
vt 0.984375 0
vt 0.59375 0
vt 0.53125 0.625
vt 1 0.625
vt 0.5 0.90625
vt 1 0.90625
vt 1 1
vt 0.5 1
vt 0.984375 0
vt 1 0.62089375
vt 0.53125 0.625
vt 0.59375 0
vt 1 0.90625
vt 0.99481125 1
vt 0.59375 0.999756875
vt 0.59893875 0.90625
vt 0.5 0.90625
vt 0 0.90625
vt 0 1
vt 0.5 1
vt 0.03125 0.6247125
vt 0.09375 0
vt 0.484375 0
vt 0.5 0.625
vt 0.5 0.6247125
vt 0.484375 0
vt 0.09375 0
vt 0.03125 0.625
vt 0.5 1
vt 0.49481125 0.90625
vt 0.09375 0.906493125
vt 0.09893875 1
vt 0 1
vt 0.5 1
vt 0.5 0.90625
vt 0 0.90625
vt 0.4921875 0.90625
vt 0.493393125 1
vt 0 1
vt 0 0.90625
vt 0.53125 0.6247125
vt 0.59375 0
vt 0.984375 0
vt 1 0.625
vt 1 1
vt 0.5 1
vt 0.5 0.90625
vt 1 0.90625
vt 0.5078125 0.90625
vt 0.506606875 1
vt 1 1
vt 1 0.90625
vt 0.53125 0.6247125
vt 0.59375 0
vt 0.984375 0
vt 1 0.625
vt 1 0.90625
vt 0.5 0.90625
vt 0.5 1
vt 1 1
vt 1 1
vt 0.99481125 0.90625
vt 0.59375 0.906493125
vt 0.59893875 1
vn -5.370590553771963e-16 0 -1
vn -0.999688736256225 0.02494855912536887 0
vn 6.484466092122915e-16 0 1
vn 1 0 -2.304777871571103e-17
vn 0 -1 0
vn 0.08902809048751842 0.9960291155905768 0
vn -0.9782684503968576 0.20734232312321324 0
vn 6.728491698908727e-16 7.3863942010379e-17 1
vn 0.9781470808058561 -0.2079141368714074 -2.254411746983209e-17
vn 0.2853504020777645 0.9584232614195565 -0.0000019896477333305786
vn -7.798117605029575e-16 -1.2342279752286248e-16 -1
vn -0.1330632020773089 -0.9911075543314829 0
vn 6.714925550452261e-16 -6.674576680154927e-17 1
vn -0.9117727638520482 0.41069505365611303 0
vn 0.49472881916360767 0.8690474069284038 0
vn 0.9135456754584893 -0.4067361538529524 0
vn -4.924450258982966e-16 2.1925033547705952e-16 -1
vn -0.32085922345443063 -0.947126896843406 0
vn 0.6583492446604587 0.752712609204206 -7.520283350187595e-17
vn -0.7972909710703968 0.6035951519421388 -0.0000012530390008808068
vn 7.009955291637206e-16 -6.706236672725267e-18 1
vn -0.5240063257104215 -0.8517143714957133 0.0000017681244152887641
vn -6.6477580136081e-16 -5.869112182176703e-17 -1
vn 0.8090170723278496 -0.5877851449982266 0.0000012202180692087093
vn 0.8001092138813316 0.5998543538745033 0
vn -1.0474483350379334e-15 -1.0487347737428817e-16 -1
vn 7.868856238812865e-16 5.079140453947678e-17 1
vn 0.6691304612136911 -0.743144956166664 0
vn -0.6943992921577955 -0.7195898992139568 0
vn -0.6640115056487262 0.7477223551333153 0
vn 7.234317731052414e-16 1.9846468206838692e-17 1
vn -0.8232781788730777 -0.5676381243287211 0
vn -0.502114547686408 0.8648011222250316 0
vn -3.4737673856122675e-16 3.59554732510763e-17 -1
vn 0.9057154138309341 0.4238862927119251 0
vn 0.499999967990389 -0.8660254222647289 8.989167874860593e-7
usemtl m_big_arch
f 1/1/1 2/2/1 3/3/1 4/4/1
f 4/5/2 5/6/2 6/7/2 1/8/2
usemtl m_arch
f 5/9/3 7/10/3 8/11/3 6/12/3
usemtl m_big_arch
f 7/13/4 3/14/4 2/15/4 8/16/4
f 7/17/5 5/18/5 4/19/5 3/20/5
f 2/21/6 1/22/6 6/23/6 8/24/6
f 9/25/7 10/26/7 11/27/7 12/28/7
usemtl m_arch
f 10/29/8 8/30/8 13/31/8 11/32/8
usemtl m_big_arch
f 8/33/9 2/34/9 14/35/9 13/36/9
f 14/37/10 12/38/10 11/39/10 13/40/10
f 12/41/11 14/42/11 2/43/11 9/44/11
f 8/45/12 10/46/12 9/47/12 2/48/12
f 15/49/13 13/50/13 16/51/13 17/52/13
usemtl m_arch
f 18/53/14 15/54/14 17/55/14 19/56/14
f 20/57/15 19/58/15 17/59/15 16/60/15
f 13/61/16 14/62/16 20/63/16 16/64/16
f 19/65/17 20/66/17 14/67/17 18/68/17
f 13/69/18 15/70/18 18/71/18 14/72/18
f 21/73/19 22/74/19 23/75/19 24/76/19
f 25/77/20 26/78/20 23/79/20 22/80/20
usemtl m_big_arch
f 16/81/21 24/82/21 23/83/21 26/84/21
usemtl m_arch
f 16/85/22 26/86/22 25/87/22 20/88/22
f 20/89/23 25/90/23 22/91/23 21/92/23
f 16/93/24 20/94/24 21/95/24 24/96/24
usemtl m_big_arch
f 27/97/25 28/98/25 29/99/25 30/100/25
f 28/101/26 27/102/26 21/103/26 31/104/26
usemtl m_arch
f 32/105/27 24/106/27 30/107/27 29/108/27
usemtl m_big_arch
f 24/109/28 21/110/28 27/111/28 30/112/28
f 24/113/29 32/114/29 31/115/29 21/116/29
f 31/117/30 32/118/30 29/119/30 28/120/30
usemtl m_arch
f 33/121/31 30/122/31 34/123/31 35/124/31
usemtl m_big_arch
f 30/125/32 33/126/32 36/127/32 27/128/32
f 36/129/33 33/130/33 35/131/33 37/132/33
f 37/133/34 38/134/34 27/135/34 36/136/34
f 38/137/35 37/138/35 35/139/35 34/140/35
f 30/141/36 27/142/36 38/143/36 34/144/36
o arch_inner
v -0.043406875 1.39134 0.01957937499999892
v 0.391716875 0.99297375 0.019579374999997998
v 0.63808875 1.25717625 0.019579374999997536
v 0.202965 1.646903125 0.019579374999998345
v 0.391716875 0.99297375 -0.5124018749999985
v 0.63808875 1.25717625 -0.5124018749999989
v 0.202965 1.646903125 -0.512401874999998
v -0.043406875 1.39133875 -0.5124018749999976
v 0.28952625 1.71825 -0.5124018749999982
v 0.28952625 1.71825125 0.01957937499999823
v 0.528118125 1.899366875 0.01957937499999777
v 0.528118125 1.89936625 -0.5124018749999987
v 0.645786875 1.254068125 -0.5124018749999989
v 0.88437875 1.43386 -0.5124018749999993
v 0.645786875 1.254068125 0.019579374999997536
v 0.88437875 1.43386 0.01957937499999696
v 1.24822875 1.61539875 -0.5124018750000001
v 0.99597625 2.15372625 -0.5124018749999996
v 0.99597625 2.153726875 0.019579374999996728
v 1.24822875 1.61539875 0.019579374999996266
v 0.72521625 2.023051875 0.019579374999997307
v 0.97747 1.489141875 0.019579374999996842
v 0.97747 1.489141875 -0.5124018749999996
v 0.72521625 2.023051875 -0.5124018749999991
v 0.15334625 0.632543125 -0.5124018749999979
v -0.331638125 0.957778125 -0.5124018749999968
v -0.14691375 1.255065 -0.5124018749999973
v 0.35049125 0.93758125 -0.5124018749999982
v 0.15334625 0.632543125 0.01957937499999846
v 0.35049125 0.93758125 0.019579374999998112
v -0.331638125 0.957778125 0.0195793749999995
v -0.14691375 1.255065 0.019579374999999153
v 0.04132 0.28690625 -0.5124018749999977
v -0.514563125 0.467413125 -0.5124018749999966
v -0.39711125 0.810981875 -0.5124018749999968
v -0.39711125 0.810983125 0.019579374999999614
v -0.514563125 0.467413125 0.019579374999999843
v 0.04132 0.28690625 0.01957937499999869
v -0.607971875 -0.065338125 0.019579375000000076
v -0.03368 -0.166601875 0.01957937499999892
v 0.02905 0.18916 0.01957937499999869
v -0.545241875 0.290423125 0.01957937499999996
v -0.03368 -0.166601875 -0.5124018749999976
v -0.607971875 -0.06533875 -0.5124018749999963
v -0.545241875 0.290423125 -0.5124018749999965
v 0.02905 0.18916 -0.5124018749999977
vt 0 0.59126375
vt 0 0.0015068750000000186
vt 0.31054375 0
vt 0.3125 0.59375
vt 0.5 1
vt 0.5 0.5625
vt 0.125 0.5625
vt 0.125 1
vt 0 0.002486250000000023
vt 0 0.592243125
vt 0.31054375 0.59375
vt 0.3125 0
vt 0.5 0.5625
vt 0.5 1
vt 0.125 1
vt 0.125 0.5625
vt 0 0.002486250000000023
vt 0 0.592243125
vt 0.31054375 0.59375
vt 0.3125 0
vt 0.3125 0.59126375
vt 0.3125 0.0015068750000000186
vt 0.00195625 0
vt 0 0.59375
vt 0.3125 0.59126375
vt 0.3125 0.0015068750000000186
vt 0.00195625 0
vt 0 0.59375
vt 0 0.002486250000000023
vt 0 0.592243125
vt 0.31054375 0.59375
vt 0.3125 0
vt 0.5 0.5625
vt 0.5 1
vt 0.125 1
vt 0.125 0.5625
vt 0 0.59126375
vt 0 0.0015068750000000186
vt 0.31054375 0
vt 0.3125 0.59375
vt 0.5 0.5625
vt 0.5 1
vt 0.125 1
vt 0.125 0.5625
vt 0 0.59126375
vt 0 0.0015068750000000186
vt 0.31054375 0
vt 0.3125 0.59375
vt 0 0.59126375
vt 0 0.0015068750000000186
vt 0.31054375 0
vt 0.3125 0.59375
vt 0.5 1
vt 0.5 0.5625
vt 0.125 0.5625
vt 0.125 1
vt 0 0.59126375
vt 0 0.0015068750000000186
vt 0.31054375 0
vt 0.3125 0.59375
vt 0 0.59126375
vt 0 0.0015068750000000186
vt 0.31054375 0
vt 0.3125 0.59375
vt 0 0.59126375
vt 0 0.0015068750000000186
vt 0.31054375 0
vt 0.3125 0.59375
vt 0.5 0.5625
vt 0.5 1
vt 0.125 1
vt 0.125 0.5625
vt 0.5 0.5625
vt 0.5 1
vt 0.125 1
vt 0.125 0.5625
vt 0.43750000000000167 1
vt 1.6583956430338276e-15 1
vt 1.6583956430338276e-15 0.5
vt 0.43750000000000167 0.5
vn 2.0067195605877484e-15 -1.247634527733412e-16 1
vn -0.719934369127217 0.6940421486817187 -0.0000016307956075882571
vn -1.929305475696295e-15 1.222290769008809e-16 -1
vn -0.6046299002084838 0.7965065497347628 -0.0000018715569150806872
vn -1.8644218709168265e-15 4.122767134318019e-18 -1
vn 2.2430486105333132e-15 2.2667887701272414e-16 1
vn 2.0758022253952315e-15 1.0998670946883947e-16 1
vn -1.6625008326792706e-15 4.6294582286516813e-17 -1
vn -0.43464999916341873 0.9005994549339014 0
vn -2.4997582611294154e-15 -3.1399041708235547e-16 -1
vn -0.8493821243048681 0.5277783691203625 0
vn 2.029323595320521e-15 -1.741628362163006e-16 1
vn -1.9865618733926203e-15 3.283421995872623e-17 -1
vn -0.9462358519636209 0.3234775300676708 0
vn 2.0723927043018925e-15 8.406585396663755e-19 1
vn 2.0611485085450315e-15 2.802089259505631e-16 1
vn -2.115768632250849e-15 6.099547299322131e-17 -1
vn -0.984807898372103 0.1736473532878639 -2.0401018984339521e-7
vn 0.42261825173967177 -0.9063077917002059 0
vn 0.9055163370763728 0.4243113989601747 -4.985037052449786e-7
usemtl m_arch
f 39/145/37 40/146/37 41/147/37 42/148/37
f 46/149/38 39/150/38 42/151/38 45/152/38
f 43/153/39 46/154/39 45/155/39 44/156/39
f 47/157/40 48/158/40 49/159/40 50/160/40
f 51/161/41 47/162/41 50/163/41 52/164/41
f 48/165/42 53/166/42 54/167/42 49/168/42
f 59/169/43 60/170/43 58/171/43 57/172/43
f 61/173/44 62/174/44 56/175/44 55/176/44
f 62/177/45 59/178/45 57/179/45 56/180/45
f 63/181/46 64/182/46 65/183/46 66/184/46
f 64/185/47 69/186/47 70/187/47 65/188/47
f 69/189/48 67/190/48 68/191/48 70/192/48
f 71/193/49 72/194/49 73/195/49 63/196/49
f 72/197/50 75/198/50 74/199/50 73/200/50
f 75/201/51 76/202/51 67/203/51 74/204/51
f 77/205/52 78/206/52 79/207/52 80/208/52
f 81/209/53 82/210/53 83/211/53 84/212/53
f 82/213/54 77/214/54 80/215/54 83/216/54
f 60/217/55 61/218/55 55/219/55 58/220/55
f 56/221/56 57/222/56 58/223/56 55/224/56