# Blender v3.2.2 OBJ File: ''
# www.blender.org
mtllib generic_arch.mtl
o arch_2_left_inner
v 0.232627 1.468750 0.015625
v 0.675110 1.324978 0.015625
v 0.675110 1.324978 -0.009375
v 0.232627 1.468750 -0.009375
v 0.162522 1.026121 0.015625
v 0.471656 0.925677 0.015625
v 0.471656 0.925677 -0.009375
v 0.162522 1.026121 -0.009375
v 1.051509 1.051509 0.015625
v 1.051509 1.051509 -0.009375
v 0.734621 0.734621 0.015625
v 0.734621 0.734621 -0.009375
v 1.324978 0.675110 0.015625
v 1.324978 0.675110 -0.009375
v 0.925677 0.471656 0.015625
v 0.925677 0.471656 -0.009375
v 1.468750 0.232627 0.015625
v 1.468750 0.232627 -0.009375
v 1.026121 0.162522 0.015625
v 1.026121 0.162522 -0.009375
v 1.468750 -0.000000 0.015625
v 1.468750 0.000000 -0.009375
v 1.026121 -0.000000 0.015625
v 1.026121 0.000000 -0.009375
v 0.062500 1.468750 0.015625
v 0.062500 1.468750 -0.009375
v 0.062500 1.026121 0.015625
v 0.062500 1.026121 -0.009375
vt 0.000000 1.000000
vt 0.468750 1.000000
vt 0.468750 0.968750
vt 0.000000 0.968750
vt 0.070312 0.562500
vt 0.398438 0.562500
vt 0.000000 0.156250
vt 0.468750 0.156250
vt 0.398438 0.593750
vt 0.070312 0.593750
vt 0.000000 1.000000
vt 0.468750 1.000000
vt 0.468750 0.968750
vt 0.000000 0.968750
vt 0.500000 0.773438
vt 0.500000 0.445312
vt 0.062500 0.375000
vt 0.062500 0.843750
vt 0.000000 1.000000
vt 0.468750 1.000000
vt 0.398438 0.562500
vt 0.070312 0.562500
vt 0.000000 1.000000
vt 0.468750 1.000000
vt 0.468750 0.968750
vt 0.000000 0.968750
vt 0.500000 0.070312
vt 0.500000 0.398438
vt 0.062500 0.468750
vt 0.062500 0.000000
vt 0.062500 0.656250
vt 0.062500 0.187500
vt 0.500000 0.257812
vt 0.500000 0.585938
vt 0.000000 1.000000
vt 0.468750 1.000000
vt 0.468750 0.968750
vt 0.000000 0.968750
vt 0.070312 0.562500
vt 0.398438 0.562500
vt 0.031250 0.468750
vt 0.031250 0.000000
vt 0.468750 0.070312
vt 0.468750 0.398438
vt 0.000000 1.000000
vt 0.250000 1.000000
vt 0.250000 0.968750
vt 0.000000 0.968750
vt 0.351562 0.593750
vt 0.500000 0.593750
vt 0.500000 0.156250
vt 0.281250 0.156250
vt 0.468750 0.156250
vt 0.250000 0.156250
vt 0.250000 0.593750
vt 0.398438 0.593750
vt 0.000000 1.000000
vt 0.156250 1.000000
vt 0.156250 0.968750
vt 0.000000 0.968750
vt 0.000000 0.562500
vt 0.093750 0.562500
vt 0.000000 1.000000
vt 0.156250 1.000000
vt 0.093750 0.562500
vt 0.000000 0.562500
vn 0.3090 0.9511 0.0000
vn 0.0000 -0.0000 1.0000
vn 0.0000 0.0000 -1.0000
vn 0.5878 0.8090 0.0000
vn 0.8090 0.5878 0.0000
vn 0.9511 0.3090 0.0000
vn 1.0000 0.0000 0.0000
vn 0.0000 1.0000 0.0000
usemtl m_arch
s 1
f 1/1/1 2/2/1 3/3/1 4/4/1
f 5/5/2 6/6/2 2/2/2 1/1/2
f 4/7/3 3/8/3 7/9/3 8/10/3
f 2/11/4 9/12/4 10/13/4 3/14/4
f 6/15/2 11/16/2 9/17/2 2/18/2
f 3/19/3 10/20/3 12/21/3 7/22/3
f 9/23/5 13/24/5 14/25/5 10/26/5
f 11/27/2 15/28/2 13/29/2 9/30/2
f 10/31/3 14/32/3 16/33/3 12/34/3
f 13/35/6 17/36/6 18/37/6 14/38/6
f 15/39/2 19/40/2 17/36/2 13/35/2
f 14/41/3 18/42/3 20/43/3 16/44/3
f 17/45/7 21/46/7 22/47/7 18/48/7
f 19/49/2 23/50/2 21/51/2 17/52/2
f 18/53/3 22/54/3 24/55/3 20/56/3
f 25/57/8 1/58/8 4/59/8 26/60/8
f 27/61/2 5/62/2 1/58/2 25/57/2
f 26/63/3 4/64/3 8/65/3 28/66/3
o arch_2_left
v 0.131076 0.995619 -0.043750
v 0.384295 0.927769 -0.043750
v 0.384295 0.927769 0.037500
v 0.131076 0.995619 0.037500
v 0.559903 1.402889 0.037500
v 0.216554 1.494889 0.037500
v 0.596081 1.387904 0.037500
v 0.903919 1.210173 0.037500
v 0.903919 1.210173 -0.043750
v 0.596081 1.387904 -0.043750
v 0.611325 0.796694 -0.043750
v 0.611325 0.796694 0.037500
v 0.934985 1.186335 0.037500
v 1.186335 0.934985 0.037500
v 1.186335 0.934985 -0.043750
v 0.934985 1.186335 -0.043750
v 0.796694 0.611325 -0.043750
v 0.796694 0.611325 0.037500
v 1.210173 0.903919 0.037500
v 1.387904 0.596081 0.037500
v 1.387904 0.596081 -0.043750
v 1.210173 0.903919 -0.043750
v 0.927769 0.384295 -0.043750
v 0.927769 0.384295 0.037500
v 1.402889 0.559903 0.037500
v 1.494889 0.216554 0.037500
v 1.494889 0.216554 -0.043750
v 1.402889 0.559903 -0.043750
v 0.995619 0.131233 -0.043750
v 0.995619 0.131233 0.037500
v 1.500000 0.181355 0.037500
v 1.500000 -0.125000 0.037500
v 1.500000 -0.125000 -0.043750
v 1.500000 0.181355 -0.043750
v 0.997318 -0.125000 -0.043750
v 0.997318 -0.125000 0.037500
v 0.177731 1.500000 -0.043750
v -0.000000 1.500000 -0.043750
v -0.000000 1.500000 0.037500
v 0.177731 1.500000 0.037500
v -0.000000 0.997318 0.037500
v -0.000000 0.997318 -0.043750
v 0.559903 1.402889 -0.043750
v 0.216554 1.494889 -0.043750
vt 0.750000 1.000000
vt 1.000000 1.000000
vt 1.000000 0.937500
vt 0.750000 0.937500
vt 0.125000 0.937500
vt 0.468750 0.937500
vt 0.468750 1.000000
vt 0.125000 1.000000
vt 0.218750 1.000000
vt 0.468750 1.000000
vt 0.468750 0.937500
vt 0.218750 0.937500
vt 0.625000 0.937500
vt 0.968750 0.937500
vt 0.968750 1.000000
vt 0.625000 1.000000
vt 0.750000 1.000000
vt 0.500000 1.000000
vt 0.500000 0.937500
vt 0.750000 0.937500
vt 0.125000 0.937500
vt 0.468750 0.937500
vt 0.468750 1.000000
vt 0.125000 1.000000
vt 0.218750 0.937500
vt 0.468750 0.937500
vt 0.468750 1.000000
vt 0.218750 1.000000
vt 0.625000 0.937500
vt 0.968750 0.937500
vt 0.968750 1.000000
vt 0.625000 1.000000
vt 0.750000 0.937500
vt 1.000000 0.937500
vt 1.000000 1.000000
vt 0.750000 1.000000
vt 0.156250 0.937500
vt 0.468750 0.937500
vt 0.468750 1.000000
vt 0.156250 1.000000
vt 0.187500 1.000000
vt 0.437500 1.000000
vt 0.437500 0.937500
vt 0.187500 0.937500
vt 0.187500 1.000000
vt 0.000000 1.000000
vt 0.000000 0.937500
vt 0.187500 0.937500
vt 0.000000 0.937500
vt 0.125000 0.937500
vt 0.125000 1.000000
vt 0.000000 1.000000
vt 0.500000 0.937500
vt 0.500000 1.000000
vt 0.000000 1.000000
vt 0.000000 0.937500
vt 0.500000 1.000000
vt 0.500000 0.937500
vt 0.000000 0.937500
vt 0.000000 1.000000
vt 0.500000 1.000000
vt 0.500000 0.937500
vt 0.500000 0.937500
vt 0.500000 1.000000
vt 0.000000 1.000000
vt 0.000000 0.937500
vt 0.500000 0.937500
vt 0.500000 1.000000
vt 1.000000 1.000000
vt 1.000000 0.937500
vt 1.000000 0.937500
vt 1.000000 1.000000
vt 0.500000 1.000000
vt 0.500000 0.937500
vt 0.500000 0.937500
vt 0.500000 1.000000
vt 0.000000 1.000000
vt 0.000000 0.937500
vt 0.000000 0.937500
vt 0.000000 1.000000
vt 0.500000 0.937500
vt 0.500000 1.000000
vt 1.000000 1.000000
vt 1.000000 0.937500
vt 1.000000 0.937500
vt 1.000000 1.000000
vt 0.500000 1.000000
vt 0.500000 0.937500
vt 0.000000 0.937500
vt 0.000000 1.000000
vt 0.500000 1.000000
vt 0.500000 0.937500
vt 0.000000 1.000000
vt 0.500000 1.000000
vt 0.500000 0.937500
vt 0.000000 0.937500
vt 0.000000 1.000000
vt 0.000000 0.937500
vt 0.500000 0.937500
vt 0.500000 1.000000
vt 0.500000 0.937500
vt 0.500000 1.000000
vt 1.000000 1.000000
vt 1.000000 0.937500
vt 0.625000 0.937500
vt 0.968750 0.937500
vt 0.968750 1.000000
vt 0.625000 1.000000
vt 0.546875 0.500000
vt 0.804688 0.500000
vt 0.843750 1.000000
vt 0.531250 1.000000
vt 0.046875 0.000000
vt 0.304688 0.000000
vt 0.343750 0.500000
vt 0.031250 0.500000
vt 0.007812 1.000000
vt 0.328125 1.000000
vt 0.281250 0.500000
vt 0.023438 0.500000
vt 0.812500 0.000000
vt 0.554688 0.000000
vt 0.515625 0.500000
vt 0.828125 0.500000
vt 0.507812 1.000000
vt 0.828125 1.000000
vt 0.781250 0.500000
vt 0.523438 0.500000
vt 0.351562 0.500000
vt 0.062500 0.500000
vt 0.023438 1.000000
vt 0.375000 1.000000
vt 0.328125 0.500000
vt 0.007812 0.500000
vt 0.054688 0.000000
vt 0.312500 0.000000
vt 0.820312 0.500000
vt 0.531250 0.500000
vt 0.492188 1.000000
vt 0.843750 1.000000
vt 0.828125 0.500000
vt 0.507812 0.500000
vt 0.554688 0.000000
vt 0.812500 0.000000
vt 0.250000 0.500000
vt 0.000000 0.500000
vt 0.000000 0.998315
vt 0.312500 1.000000
vt 0.343750 0.500000
vt 0.031250 0.500000
vt 0.031250 0.001685
vt 0.281250 0.000000
vt 0.031250 0.500000
vt 0.218750 0.500000
vt 0.218750 0.002282
vt 0.078125 0.000000
vt 0.046875 0.500000
vt 0.187500 0.500000
vt 0.187500 0.997718
vt 0.539062 0.500000
vt 0.859375 0.500000
vt 0.812500 0.000000
vt 0.554688 0.000000
vn -0.2588 -0.9659 0.0000
vn 0.5000 0.8660 0.0000
vn -0.5000 -0.8660 0.0000
vn 0.7071 0.7071 0.0000
vn -0.7071 -0.7071 0.0000
vn 0.8660 0.5000 0.0000
vn -0.8660 -0.5000 0.0000
vn 0.9659 0.2588 0.0000
vn -0.9659 -0.2590 0.0000
vn 1.0000 0.0000 0.0000
vn -1.0000 -0.0066 -0.0000
vn 0.0000 1.0000 0.0000
vn -0.0130 -0.9999 0.0000
vn 0.9957 -0.0921 0.0000
vn 0.9380 -0.3467 0.0000
vn -0.9084 0.4181 0.0000
vn 0.8163 -0.5776 0.0000
vn -0.7692 0.6390 0.0000
vn 0.6390 -0.7692 0.0000
vn 0.4181 -0.9084 0.0000
vn -0.5776 0.8163 0.0000
vn -0.3467 0.9380 0.0000
vn 0.1684 -0.9857 0.0000
vn -0.0989 0.9951 0.0000
vn 0.0000 -1.0000 -0.0000
vn -1.0000 0.0000 0.0000
vn -0.9857 0.1688 0.0000
vn 0.2588 0.9659 0.0000
vn -0.0000 -0.0000 1.0000
vn -0.0000 0.0000 -1.0000
usemtl m_arch
s 1
f 29/67/9 30/68/9 31/69/9 32/70/9
f 35/71/10 36/72/10 37/73/10 38/74/10
f 30/75/11 39/76/11 40/77/11 31/78/11
f 41/79/12 42/80/12 43/81/12 44/82/12
f 39/83/13 45/84/13 46/85/13 40/86/13
f 47/87/14 48/88/14 49/89/14 50/90/14
f 45/91/15 51/92/15 52/93/15 46/94/15
f 53/95/16 54/96/16 55/97/16 56/98/16
f 51/99/17 57/100/17 58/101/17 52/102/17
f 59/103/18 60/104/18 61/105/18 62/106/18
f 57/107/19 63/108/19 64/109/19 58/110/19
f 65/111/20 66/112/20 67/113/20 68/114/20
f 32/115/21 69/116/21 70/117/21 29/118/21
f 32/119/22 29/120/22 65/121/22 68/122/22
f 31/69/23 30/68/23 71/123/23 33/124/23
f 35/125/24 38/126/24 30/127/24 31/128/24
f 40/129/25 39/130/25 37/131/25 36/132/25
f 41/133/26 44/134/26 39/135/26 40/136/26
f 46/137/27 45/138/27 43/139/27 42/140/27
f 52/141/28 51/142/28 49/143/28 48/144/28
f 47/145/29 50/146/29 45/84/29 46/85/29
f 53/147/30 56/148/30 51/149/30 52/150/30
f 58/151/31 57/152/31 55/153/31 54/154/31
f 59/155/32 62/156/32 57/157/32 58/158/32
f 63/159/33 61/160/33 60/161/33 64/162/33
f 70/163/34 69/164/34 67/165/34 66/166/34
f 34/167/35 72/168/35 29/169/35 32/170/35
f 34/171/36 33/172/36 71/173/36 72/174/36
usemtl m_keystones
f 32/175/37 31/176/37 33/177/37 34/178/37
f 31/179/37 40/180/37 36/181/37 35/182/37
f 38/183/38 37/184/38 39/185/38 30/186/38
f 40/187/37 46/188/37 42/189/37 41/190/37
f 44/191/38 43/192/38 45/193/38 39/194/38
f 46/195/37 52/196/37 48/197/37 47/198/37
f 50/199/38 49/200/38 51/201/38 45/202/38
f 52/203/37 58/204/37 54/205/37 53/206/37
f 56/207/38 55/208/38 57/209/38 51/210/38
f 58/211/37 64/212/37 60/213/37 59/214/37
f 62/215/38 61/216/38 63/217/38 57/218/38
f 68/219/37 67/220/37 69/221/37 32/222/37
f 29/223/38 70/224/38 66/225/38 65/121/38
f 72/226/38 71/227/38 30/228/38 29/229/38
