mtllib generic_arch.mtl

o ashlar_3_middle
v 0.887745 0.54490875 -0.5533696276887146
v 0.887745 0.5449081250000001 0.050906864439766775
v 0.513048125 0.66712875 0.051485740549852554
v 0.513048125 0.667129375 -0.5548431305143878
v 1.13223125 1.113845 0.050906864439766775
v 0.707926875 1.267173125 0.050906864439766775
v 1.13223125 1.113845 -0.5533696276887146
v 0.707926875 1.267173125 -0.5533696276887146
v 0.112255 0.54490875 -0.5533696276887146
v 0.112255 0.5449081250000001 0.050906864439766775
v 0.48696125 0.66712875 0.051485740549852554
v 0.48696125 0.667129375 -0.5548431305143878
v -0.13223125 1.113845 0.050906864439766775
v 0.292073125 1.267173125 0.050906864439766775
v -0.13223125 1.113845 -0.5533696276887146
v 0.292073125 1.267173125 -0.5533696276887146
v 0.27986 1.29888 0.05206812500000002
v 0.27986 1.29888 -0.5563131250000001
v 0.71986125 1.29888 0.05206812500000002
v 0.71986125 1.29888 -0.5563131250000001
vt 0 1
vt 0 0.5625
vt 0.40625 0.5625
vt 0.40625 1
vt 0.484375 0
vt 0.5 0.625
vt 0.03125 0.625
vt 0.09375 0
vt 0.0625 0.5625
vt 0.0625 1
vt 0.5 1
vt 0.5 0.5625
vt 0.5 1
vt 0 1
vt 0 0.5625
vt 0.5 0.5625
vt 0.03125 0.6247125
vt 0.09375 0
vt 0.484375 0
vt 0.5 0.625
vt 0.09375 0.5625
vt 0.496848125 0.5625
vt 0.5 1
vt 0.0969125 1
vt 0.5 0.625
vt 0.03125 0.625
vt 0.09375 0
vt 0.484375 0
vt 0.5 1
vt 0.0625 1
vt 0.0625 0.5625
vt 0.5 0.5625
vt 0 0.5625
vt 0 1
vt 0.5 1
vt 0.5 0.5625
vt 0.09375 0
vt 0.484375 0
vt 0.5 0.625
vt 0.03125 0.625
vt 1 0.5625
vt 0.5 0.5625
vt 0.5 1
vt 1 1
vt 0.921875 0
vt 1 0.625
vt 0.5625 0.625
vt 0.890625 0
vt 0.4375 1
vt 0.4375 0.5625
vt 0.46875 0.5625
vt 0.46875 1
vt 1 1
vt 0.5 1
vt 0.5 0.5625
vt 1 0.5625
vt 0.5625 0.625
vt 0.890625 0
vt 0.921875 0
vt 1 0.625
vt 0.53125 0.5625
vt 0.53125 1
vt 0.9375 1
vt 0.9375 0.5625
vn -0.3101051377289363 -0.9507022686168107 -9.833063599248463e-7
vn 0 0 1
vn 0.33985446088128474 0.9404780409021208 0
vn 0.9187607825494463 -0.3948146710155655 0
vn 0.0034490398227689516 -0.0014821393651212164 -0.9999929536687763
vn 0.3100981251150274 -0.9507045560000109 -9.83308725776862e-7
vn 0 0 1
vn -0.33985446088128485 0.9404780409021208 0
vn -0.9187607825494463 -0.3948146710155655 0
vn -0.00344896413875959 -0.0014821068417943343 -0.9999929539780165
vn -0.9502430357427644 -0.31150950711394904 0
vn 0 -0.0009218568268546112 0.9999995750899052
vn 0 -0.9999999999994688 -0.000001030793732342822
vn 0.9503711663429129 -0.31111837969495104 0
vn 0 -0.0023268524762497717 -0.9999972928751127
vn 0 1 0
usemtl m_arch
f 1/1/1 2/2/1 3/3/1 4/4/1
f 2/5/2 5/6/2 6/7/2 3/8/2
f 5/9/3 7/10/3 8/11/3 6/12/3
f 1/13/4 7/14/4 5/15/4 2/16/4
usemtl m_big_arch
f 7/17/5 1/18/5 4/19/5 8/20/5
f 11/21/6 10/22/6 9/23/6 12/24/6
f 14/25/7 13/26/7 10/27/7 11/28/7
f 16/29/8 15/30/8 13/31/8 14/32/8
f 13/33/9 15/34/9 9/35/9 10/36/9
usemtl m_arch
f 12/37/10 9/38/10 15/39/10 16/40/10
f 11/41/11 17/42/11 18/43/11 12/44/11
usemtl m_big_arch
f 3/45/12 19/46/12 17/47/12 11/48/12
usemtl m_arch
f 4/49/13 3/50/13 11/51/13 12/52/13
f 4/53/14 20/54/14 19/55/14 3/56/14
usemtl m_big_arch
f 20/57/15 4/58/15 12/59/15 18/60/15
usemtl m_arch
f 19/61/16 20/62/16 18/63/16 17/64/16