# Blender v3.2.2 OBJ File: ''
# www.blender.org
mtllib generic_arch.mtl
o arch
v 0.991300 -0.513585 1.059277
v 1.548673 -0.513585 1.059277
v 1.538272 -0.152754 1.059277
v 0.991300 -0.212335 1.059277
v 0.991300 -0.513585 -0.066455
v 0.991300 -0.212335 -0.066455
v 1.548673 -0.513585 -0.066455
v 1.538272 -0.152754 -0.066455
v 0.928666 0.082332 1.059277
v 1.452069 0.240835 1.059277
v 1.452069 0.240835 -0.066455
v 0.928666 0.082332 -0.066455
v 1.536493 -0.133333 1.059277
v 1.536493 -0.133332 -0.066455
v 1.444135 0.261921 -0.066455
v 1.444135 0.261921 1.059277
v 1.284544 0.629208 1.059277
v 0.806137 0.357538 1.059277
v 1.284544 0.629208 -0.066455
v 0.806137 0.357538 -0.066455
v 1.039458 0.968796 1.059277
v 0.629067 0.601254 1.059277
v 1.276113 0.643508 1.059277
v 1.276113 0.643508 -0.066455
v 1.039458 0.968796 -0.066455
v 0.629067 0.601254 -0.066455
v 0.405194 0.802830 -0.066455
v 0.741815 1.244304 -0.066455
v 1.028507 0.985271 -0.066455
v 0.741815 1.244304 1.059278
v 0.405194 0.802830 1.059277
v 1.028507 0.985270 1.059277
v 0.144304 0.953454 1.059277
v 0.144304 0.953455 -0.066943
v 0.378056 1.452076 1.059278
v 0.718690 1.260240 1.059278
v 0.378056 1.452076 -0.066455
v 0.718690 1.260240 -0.066455
v -0.001113 0.999399 -0.067431
v 0.000828 1.587837 -0.067431
v 0.352436 1.461801 -0.067431
v 0.000828 1.587837 1.059278
v -0.001113 0.999399 1.059277
v 0.352436 1.461801 1.059278
vt 0.000000 1.000000
vt 0.000000 0.500000
vt 0.312500 0.500000
vt 0.250000 1.000000
vt 0.000000 0.000000
vt 0.250000 0.000000
vt 0.312500 0.500000
vt 0.000000 0.500000
vt 0.515625 0.500000
vt 0.500000 0.000000
vt 0.843750 0.000000
vt 0.781250 0.500000
vt 0.514323 0.000000
vt 0.781250 0.000000
vt 0.843750 0.500000
vt 0.500000 0.500000
vt 0.343750 0.000000
vt 0.281250 0.500000
vt 0.015625 0.500000
vt 0.000000 0.003283
vt 0.000000 0.496717
vt 0.015625 0.000000
vt 0.281250 0.000000
vt 0.343750 0.500000
vt 0.875000 0.500000
vt 0.812500 0.000000
vt 0.546875 0.000000
vt 0.531250 0.500000
vt 0.514323 0.500000
vt 0.781250 0.500000
vt 0.843750 1.000000
vt 0.500000 1.000000
vt 0.015625 0.500000
vt 0.281250 0.500000
vt 0.343750 1.000000
vt 0.000000 1.000000
vt 0.343750 1.000000
vt 0.281250 0.500000
vt 0.015625 0.500000
vt 0.000000 1.000000
vt 0.843750 1.000000
vt 0.781250 0.500000
vt 0.515625 0.500000
vt 0.500000 1.000000
vt 0.515625 0.000000
vt 0.500000 0.500000
vt 0.843750 0.500000
vt 0.781250 0.000000
vt 0.500000 0.000000
vt 0.342364 0.000000
vt 0.187500 0.500000
vt 0.500000 0.500000
vt 0.312500 0.500000
vt 0.156250 0.000000
vt 0.000000 0.000000
vt 0.000000 0.500000
vt 0.500000 1.000000
vt 0.500000 0.000000
vt 0.187500 0.000000
vt 0.187500 1.000000
vt 0.000000 1.000000
vt 0.500000 1.000000
vt 0.500000 0.000000
vt 0.000000 0.000000
vt 0.156250 1.000000
vt 0.156250 0.000000
vt 0.500000 0.000000
vt 0.000000 0.000000
vt 0.000000 1.000000
vt 0.500000 1.000000
vt 1.000000 1.000000
vt 0.500000 1.000000
vt 0.500000 0.000000
vt 1.000000 0.000000
vt 1.000000 0.000000
vt 1.000000 1.000000
vt 0.687500 1.000000
vt 0.687500 0.000000
vt 0.500000 0.000000
vt 0.500000 1.000000
vt 0.968750 1.000000
vt 0.968750 0.000000
vt 0.625000 0.000000
vt 0.625000 1.000000
vt 0.000000 0.000000
vt 0.500000 0.000000
vt 0.500000 1.000000
vt 0.000000 1.000000
vt 0.500000 1.000000
vt 0.000000 1.000000
vt 0.000000 0.000000
vt 0.500000 0.000000
vt 0.156250 0.000000
vt 0.156250 1.000000
vt 0.468750 0.000000
vt 0.468750 1.000000
vt 0.156250 1.000000
vt 0.156250 0.000000
vt 0.500000 1.000000
vt 0.500000 0.000000
vt 0.843750 0.000000
vt 0.843750 1.000000
vt 0.812500 1.000000
vt 0.812500 0.000000
vt 1.000000 1.000000
vt 0.500000 1.000000
vt 0.500000 0.000000
vt 1.000000 0.000000
vt 1.000000 0.000000
vt 1.000000 1.000000
vt 0.500000 0.000000
vt 0.500000 1.000000
vt 0.187500 1.000000
vt 0.187500 0.000000
vt 0.500000 1.000000
vt 0.500000 0.000000
vt 0.125000 0.000000
vt 0.125000 1.000000
vt 0.500000 1.000000
vt 0.000000 1.000000
vt 0.000000 0.000000
vt 0.500000 0.000000
vt 0.000000 0.000000
vt 0.500000 1.000000
vt 0.500000 0.000000
vt 0.812500 0.000000
vt 0.812500 1.000000
vt 1.000000 1.000000
vt 1.000000 0.000000
vt 0.625000 0.000000
vt 0.625000 1.000000
vt 1.000000 1.000000
vt 0.500000 1.000000
vt 0.500000 0.000000
vt 1.000000 0.000000
vt 0.500000 1.000000
vt 0.500000 0.000000
vt 0.343750 0.000000
vt 0.343750 1.000000
vt 0.500000 0.000000
vt 0.500000 1.000000
vt 0.125000 1.000000
vt 0.125000 0.000000
vt 0.000000 1.000000
vt 0.000000 0.000000
vt 0.500000 0.000000
vt 0.000000 0.000000
vt 0.000000 1.000000
vt 0.500000 1.000000
vn 0.0000 -0.0000 1.0000
vn 0.0000 0.0000 -1.0000
vn 0.0005 0.0007 -1.0000
vn 0.0033 -0.0000 -1.0000
vn 0.0034 -0.0000 -1.0000
vn -1.0000 -0.0000 0.0000
vn 0.0000 -1.0000 -0.0000
vn 0.9996 0.0288 0.0000
vn -0.1083 0.9941 0.0000
vn -0.2898 0.9571 0.0000
vn -0.9781 -0.2079 -0.0000
vn 0.1434 -0.9897 -0.0000
vn 0.9755 0.2201 0.0000
vn 0.3290 -0.9443 -0.0000
vn -0.4938 0.8696 0.0000
vn 0.9172 0.3985 0.0000
vn -0.9135 -0.4067 -0.0000
vn 0.8086 0.5883 0.0000
vn -0.8090 -0.5878 -0.0000
vn -0.6671 0.7449 0.0000
vn 0.5198 -0.8543 -0.0000
vn -0.6691 -0.7431 -0.0000
vn 0.6704 0.7420 0.0000
vn -0.7952 0.6063 0.0000
vn 0.6931 -0.7209 -0.0000
vn -0.5000 -0.8660 -0.0000
vn 0.4907 0.8713 0.0000
vn 0.8249 -0.5653 -0.0000
vn -0.9054 0.4245 0.0000
vn -0.3013 -0.9535 -0.0000
vn 0.3374 0.9413 0.0000
vn 0.9254 -0.3789 -0.0000
vn -1.0000 0.0033 0.0000
usemtl m_keystones
s 1
f 1/1/1 2/2/1 3/3/1 4/4/1
f 5/5/2 6/6/2 8/7/2 7/8/2
f 4/9/1 13/10/1 10/11/1 9/12/1
f 6/13/2 12/14/2 11/15/2 14/16/2
f 17/17/1 18/18/1 9/19/1 16/20/1
f 15/21/2 12/22/2 20/23/2 19/24/2
f 21/25/1 22/26/1 18/27/1 23/28/1
f 20/29/2 26/30/2 25/31/2 24/32/2
f 26/33/2 27/34/2 28/35/2 29/36/2
f 30/37/1 31/38/1 22/39/1 32/40/1
f 35/41/1 33/42/1 31/43/1 36/44/1
f 34/45/3 37/46/3 38/47/3 27/48/3
f 34/49/4 39/50/5 40/51/4 41/52/4
f 42/53/1 43/54/1 33/55/1 44/56/1
usemtl m_arch
f 5/57/6 1/58/6 4/59/6 6/60/6
f 5/61/7 7/62/7 2/63/7 1/64/7
f 2/63/8 7/62/8 8/65/8 3/66/8
f 4/67/9 3/68/9 8/69/9 6/70/9
f 9/71/10 10/72/10 11/73/10 12/74/10
f 6/75/11 4/76/11 9/77/11 12/78/11
f 6/75/12 14/79/12 13/80/12 4/76/12
f 13/81/13 14/82/13 11/83/13 10/84/13
f 12/85/14 15/86/14 16/87/14 9/88/14
f 18/89/15 17/90/15 19/91/15 20/92/15
f 16/87/16 15/86/16 19/93/16 17/94/16
f 12/95/17 9/96/17 18/97/17 20/98/17
f 23/99/18 24/100/18 25/101/18 21/102/18
f 20/92/19 18/89/19 22/103/19 26/104/19
f 22/105/20 21/106/20 25/107/20 26/108/20
f 20/92/21 24/109/21 23/110/21 18/89/21
f 26/111/22 22/112/22 31/113/22 27/114/22
f 32/115/23 29/116/23 28/117/23 30/118/23
f 31/119/24 30/120/24 28/121/24 27/122/24
f 26/111/25 29/123/25 32/40/25 22/112/25
f 27/124/26 31/125/26 33/126/26 34/127/26
f 36/128/27 38/129/27 37/130/27 35/131/27
f 27/122/28 38/129/28 36/128/28 31/119/28
f 33/132/29 35/133/29 37/134/29 34/135/29
f 34/136/30 33/137/30 43/138/30 39/139/30
f 44/140/31 41/141/31 40/142/31 42/143/31
f 34/136/32 41/144/32 44/145/32 33/137/32
f 43/146/33 42/147/33 40/148/33 39/149/33
o inner
v 1.443992 0.160416 -0.034903
v 0.954210 0.002511 -0.031787
v 0.907548 0.165241 -0.031787
v 1.397330 0.323146 -0.034903
v 1.443992 0.160416 1.027597
v 1.397330 0.323145 1.027597
v 0.954210 0.002511 1.030713
v 0.907548 0.165241 1.030713
v 1.527814 -0.230910 -0.031787
v 1.006110 -0.290699 -0.031787
v 0.982549 -0.123059 -0.031787
v 1.504253 -0.063270 -0.031787
v 1.527814 -0.230910 1.030713
v 1.504253 -0.063271 1.030713
v 1.006110 -0.290699 1.030713
v 0.982549 -0.123060 1.030713
v 1.300069 0.549218 -0.032756
v 0.847242 0.285822 -0.031787
v 0.767766 0.435294 -0.031787
v 1.220594 0.698689 -0.032756
v 0.847242 0.285822 1.030713
v 1.300069 0.549218 1.029744
v 1.220594 0.698690 1.029744
v 0.767766 0.435294 1.030713
v 0.684552 0.538627 1.038413
v 1.068211 0.893663 1.038413
v 0.959395 1.023345 1.038413
v 0.575736 0.668308 1.038413
v 1.068211 0.893663 -0.024087
v 0.684552 0.538627 -0.024087
v 0.575736 0.668308 -0.024087
v 0.959395 1.023345 -0.024087
v 0.779091 1.178273 -0.024640
v 0.473729 0.755042 -0.024640
v 0.340329 0.859265 -0.024640
v 0.645691 1.282497 -0.024640
v 0.779091 1.178273 1.037860
v 0.645691 1.282496 1.037860
v 0.473729 0.755042 1.037860
v 0.340329 0.859265 1.037860
v 0.432732 1.400877 -0.032785
v 0.221849 0.923500 -0.031787
v 0.068423 0.995044 -0.031787
v 0.279306 1.472421 -0.032785
v 0.221849 0.923500 1.030713
v 0.432732 1.400878 1.029715
v 0.279306 1.472422 1.029715
v 0.068423 0.995044 1.030713
vt 0.000000 0.531250
vt 0.000000 0.000000
vt 0.156250 0.000000
vt 0.156250 0.531250
vt 0.000000 1.000000
vt 0.000000 0.000000
vt 0.156250 0.000000
vt 0.156250 1.000000
vt 0.000000 0.000000
vt 0.000000 0.531250
vt 0.156250 0.531250
vt 0.156250 0.000000
vt 0.000000 0.531250
vt 0.000000 0.000000
vt 0.156250 0.000000
vt 0.156250 0.531250
vt 0.000000 0.000000
vt 0.000000 1.000000
vt 0.156250 1.000000
vt 0.156250 0.000000
vt 0.000000 0.000000
vt 0.000000 0.531250
vt 0.156250 0.531250
vt 0.156250 0.000000
vt 0.000000 0.531250
vt 0.000000 0.000000
vt 0.156250 0.000000
vt 0.156250 0.531250
vt 0.000000 0.000000
vt 0.000000 0.531250
vt 0.156250 0.531250
vt 0.156250 0.000000
vt 0.000000 0.000000
vt 0.000000 1.000000
vt 0.156250 1.000000
vt 0.156250 0.000000
vt 0.000000 0.000000
vt 0.000000 0.531250
vt 0.156250 0.531250
vt 0.156250 0.000000
vt 0.000000 0.531250
vt 0.000000 0.000000
vt 0.156250 0.000000
vt 0.156250 0.531250
vt 0.000000 1.000000
vt 0.000000 0.000000
vt 0.156250 0.000000
vt 0.156250 1.000000
vt 0.156250 0.531250
vt 0.156250 0.000000
vt 0.000000 0.000000
vt 0.000000 0.531250
vt 0.000000 1.000000
vt 0.000000 0.000000
vt 0.156250 0.000000
vt 0.156250 1.000000
vt 0.000000 0.000000
vt 0.000000 0.531250
vt 0.156250 0.531250
vt 0.156250 0.000000
vt 0.156250 0.531250
vt 0.156250 0.000000
vt 0.000000 0.000000
vt 0.000000 0.531250
vt 0.000000 0.000000
vt 0.000000 0.531250
vt 0.156250 0.531250
vt 0.156250 0.000000
vt 0.000000 0.000000
vt 0.000000 1.000000
vt 0.156250 1.000000
vt 0.156250 0.000000
vn -0.0058 -0.0017 -1.0000
vn 0.9613 0.2756 0.0000
vn 0.0058 0.0017 1.0000
vn 0.0000 0.0000 -1.0000
vn 0.9903 0.1392 0.0000
vn 0.0000 0.0000 1.0000
vn -0.0016 -0.0009 -1.0000
vn 0.0016 0.0009 1.0000
vn 0.8829 0.4695 -0.0000
vn 0.7660 0.6428 0.0000
vn 0.6157 0.7880 0.0000
vn -0.0008 -0.0017 -1.0000
vn 0.0008 0.0017 1.0000
vn 0.4226 0.9063 -0.0000
usemtl m_arch
s 1
f 45/150/34 46/151/34 47/152/34 48/153/34
f 49/154/35 45/155/35 48/156/35 50/157/35
f 51/158/36 49/159/36 50/160/36 52/161/36
f 53/162/37 54/163/37 55/164/37 56/165/37
f 57/166/38 53/167/38 56/168/38 58/169/38
f 59/170/39 57/171/39 58/172/39 60/173/39
f 61/174/40 62/175/40 63/176/40 64/177/40
f 65/178/41 66/179/41 67/180/41 68/181/41
f 66/182/42 61/183/42 64/184/42 67/185/42
f 69/186/39 70/187/39 71/188/39 72/189/39
f 73/190/37 74/191/37 75/192/37 76/193/37
f 70/194/43 73/195/43 76/196/43 71/197/43
f 77/198/37 78/199/37 79/200/37 80/201/37
f 81/202/44 77/203/44 80/204/44 82/205/44
f 83/206/39 81/207/39 82/208/39 84/209/39
f 85/210/45 86/211/45 87/212/45 88/213/45
f 89/214/46 90/215/46 91/216/46 92/217/46
f 90/218/47 85/219/47 88/220/47 91/221/47
