mtllib generic_arch.mtl

o base_keystones
v 0.99097875 0.107568125 0.04262624999999998
v 0.99097875 -0.11179125 0.04262624999999998
v 1.36608375 -0.11179125 0.04262624999999998
v 1.36608375 0.107568125 0.04262624999999998
v 1.36608375 -0.11179 -0.5424806249999999
v 0.99097875 -0.11179 -0.5424806249999999
v 0.99097875 0.107568125 -0.5424806249999999
v 1.36608375 0.107568125 -0.5424806249999999
v -0.36500625 0.107568125 0.04262624999999998
v -0.36500625 -0.11179125 0.04262624999999998
v 0.0087 -0.11179125 0.04262624999999998
v 0.0087 0.107568125 0.04262624999999998
v 0.0087 0.107568125 -0.5424806249999999
v 0.0087 -0.11179 -0.5424806249999999
v -0.36500625 -0.11179 -0.5424806249999999
v -0.36500625 0.107568125 -0.5424806249999999
vt 0.21875 0.875
vt 0 0.875
vt 0 0.5
vt 0.21875 0.5
vt 0 0.375
vt 0 0
vt 0.21875 0
vt 0.21875 0.375
vt 0.21875 0.375
vt 0 0.375
vt 0 0
vt 0.21875 0
vt 0.21875 0.875
vt 0 0.875
vt 0 0.5
vt 0.21875 0.5
vt 0.28125 1
vt 0.5 1
vt 0.5 0.5
vt 0.28125 0.5
vt 0.5 0.5
vt 0.5 1
vt 0.125 1
vt 0.125 0.5
vt 0.28125 0.5
vt 0.5 0.5
vt 0.5 1
vt 0.28125 1
vt 0.5 1
vt 0.5 0.5
vt 0.125 0.5
vt 0.125 1
vt 0.5 1
vt 0.125 1
vt 0.125 0.5
vt 0.5 0.5
vt 0.5 0.5
vt 0.5 1
vt 0.28125 1
vt 0.28125 0.5
vt 0.5 1
vt 0.5 0.5
vt 0.28125 0.5
vt 0.28125 1
vt 0.5 0.5
vt 0.125 0.5
vt 0.125 1
vt 0.5 1
vn 0 0 1
vn 0 0 -1
vn 0 0 1
vn 0 0 -1
vn 1 0 0
vn 0 -0.9999999999977182 -0.0000021363618398629467
vn -1 0 0
vn 0 1 0
vn 0 -0.9999999999977182 -0.0000021363618398629467
vn 1 0 0
vn -1 0 0
vn 0 1 0
usemtl m_keystones
f 1/1/1 2/2/1 3/3/1 4/4/1
f 5/5/2 6/6/2 7/7/2 8/8/2
f 9/9/3 10/10/3 11/11/3 12/12/3
f 13/13/4 14/14/4 15/15/4 16/16/4
usemtl m_arch
f 4/17/5 3/18/5 5/19/5 8/20/5
f 2/21/6 6/22/6 5/23/6 3/24/6
f 7/25/7 6/26/7 2/27/7 1/28/7
f 7/29/8 1/30/8 4/31/8 8/32/8
f 15/33/9 14/34/9 11/35/9 10/36/9
f 11/37/10 14/38/10 13/39/10 12/40/10
f 15/41/11 10/42/11 9/43/11 16/44/11
f 9/45/12 12/46/12 13/47/12 16/48/12
o keystones2
v 1.26012625 0.565058125 0.04042937499999999
v 1.31172625 0.331153125 0.04042937499999999
v 1.31172625 0.331153125 -0.5446774999999999
v 1.26012625 0.565058125 -0.5446774999999999
v 0.95231625 0.47847125 -0.5446774999999999
v 0.9913 0.295068125 -0.5446774999999999
v 0.9913 0.295068125 0.04042937499999999
v 0.95231625 0.47847125 0.04042937499999999
v 0.876053125 0.64976125 -0.5446774999999999
v 0.876053125 0.64976125 0.04042937499999999
v 1.159091875 0.79518375 0.04042937499999999
v 1.159091875 0.79518375 -0.5446774999999999
v 1.25248875 0.584495 0.04042937499999999
v 1.25248875 0.584495 -0.5446774999999999
v 0.765843125 0.801451875 -0.5446774999999999
v 0.765843125 0.80145125 0.04042937499999999
v 1.017573125 0.999428125 0.04042937499999999
v 1.017573125 0.999428125 -0.5446774999999999
v 1.14834125 0.81291125 0.04042937499999999
v 1.14834125 0.81291125 -0.5446774999999999
v 0.62650375 0.926913125 0.04042937499999999
v 0.62650375 0.926913125 -0.5446774999999999
v 1.00411375 1.011305 -0.5446774999999999
v 1.00411375 1.011305 0.04042937499999999
v 0.81148875 1.17991875 0.04042937499999999
v 0.81148875 1.17991875 -0.5446774999999999
v 0.47913625 1.011996875 -0.5446774999999999
v 0.47913625 1.01199625 0.04042937499999999
v 0.79691875 1.19135625 -0.5446774999999999
v 0.79691875 1.19135625 0.04042937499999999
v 0.612328125 1.30779375 -0.5446774999999999
v 0.612328125 1.30779375 0.04042937499999999
v 1.314298125 0.107568125 0.04042937499999999
v 1.314298125 0.107568125 -0.5446774999999999
v 1.314208125 0.313605 -0.5446774999999999
v 1.314208125 0.313605 0.04042937499999999
v 0.9913 0.107568125 -0.5446774999999999
v 0.9913 0.107568125 0.04042937499999999
vt 0.28125 0.5
vt 0.5 0.5
vt 0.5 1
vt 0.28125 1
vt 0.3125 1
vt 0.5 1
vt 0.5 0.5
vt 0.3125 0.5
vt 0.5 0.5
vt 0.5 1
vt 0.1875 1
vt 0.1875 0.5
vt 0.5 0.5
vt 0.1875 0.5
vt 0.1875 1
vt 0.5 1
vt 1 0.5
vt 1 1
vt 0.6875 1
vt 0.6875 0.5
vt 0.5 1
vt 0.5 0.5
vt 0.71875 0.5
vt 0.71875 1
vt 1 0.5
vt 1 1
vt 0.8125 1
vt 0.8125 0.5
vt 0.5 0.5
vt 0.8125 0.5
vt 0.8125 1
vt 0.5 1
vt 0.46875 0.5
vt 0.46875 1
vt 0.15625 1
vt 0.15625 0.5
vt 0.5 1
vt 0.5 0.5
vt 0.28125 0.5
vt 0.28125 1
vt 0.5 0.5
vt 0.5 1
vt 0.3125 1
vt 0.3125 0.5
vt 0 0.5
vt 0.3125 0.5
vt 0.3125 1
vt 0 1
vt 0.96875 0.5
vt 0.96875 1
vt 0.78125 1
vt 0.78125 0.5
vt 1 0.5
vt 0.6875 0.5
vt 0.6875 1
vt 1 1
vt 0.5 0.5
vt 0.5 1
vt 0.8125 1
vt 0.8125 0.5
vt 0.96875 1
vt 0.96875 0.5
vt 0.75 0.5
vt 0.75 1
vt 0.28125 0.5
vt 0.46875 0.5
vt 0.46875 1
vt 0.28125 1
vt 0 0.5
vt 0.3125 0.5
vt 0.3125 1
vt 0 1
vt 0.5 1
vt 0.5 0.5
vt 0.28125 0.5
vt 0.28125 1
vt 0.96875 0.5
vt 0.96875 1
vt 0.78125 1
vt 0.78125 0.5
vt 0.5 1
vt 0.5 0.5
vt 0.6875 0.5
vt 0.6875 1
vt 1 0.5
vt 0.6875 0.5
vt 0.6875 1
vt 1 1
vt 0.226561875 0
vt 0.210938125 0.3125
vt 0.023438125 0.3125
vt 0 0
vt 0.023438125 0.8125
vt 0.046875 0.5
vt 0.234375 0.5
vt 0.265625 0.81070625
vt 0.515625 0
vt 0.703125 0
vt 0.726561875 0.3125
vt 0.5 0.3125
vt 0.734375 0.53125
vt 0.71875 0.84375
vt 0.53125 0.84375
vt 0.507811875 0.53125
vt 0.023438125 0.53125
vt 0 0.84375
vt 0.226561875 0.84375
vt 0.210938125 0.53125
vt 0.054688125 0
vt 0.234375 0
vt 0.242188125 0.3125
vt 0.023438125 0.3125
vt 0.523438125 0.53125
vt 0.710938125 0.53125
vt 0.75 0.84375
vt 0.5 0.84375
vt 0.546875 0
vt 0.515625 0.3125
vt 0.765625 0.3125
vt 0.734375 0
vt 0.21875 0.8125
vt 0.1875 0.5
vt 0.015625 0.5
vt 0 0.8125
vt 0.21875 0.3125
vt 0.171875 0
vt 0 0
vt 0 0.3125
vt 0.5 0.3125
vt 0.5 0
vt 0.703125 0
vt 0.679688125 0.3125
vt 0.6875 0.5
vt 0.703125 0.81240875
vt 0.5 0.8125
vt 0.5 0.5
vn 0.9765208675891573 0.2154228287877583 0
vn -0.9781473704119197 -0.20791277439408765 0
vn 0.11190822765283365 -0.9937185459593685 0
vn -0.2707899542767936 0.9626384579180141 0
vn -0.4569993335667089 0.8894670365559276 0
vn 0.9142017577120019 0.4052593567041808 0
vn -0.9135456488911015 -0.4067362135243633 0
vn 0.3330450082722208 -0.942910930292441 0
vn -0.6181864112522429 0.7860315266847557 8.396238793923608e-7
vn 0.8188061942851299 0.5740700446812238 0
vn -0.8090150569327592 -0.5877879189436311 0
vn 0.5139793872044944 -0.8578025352777249 0
vn -0.6691310134738249 -0.743144458908806 -7.938127318755671e-7
vn 0.6609384158840418 -0.7504401444543687 0
vn -0.8072447677399034 0.590216811821342 0
vn 0.658652549825681 0.7524472198155355 0
vn -0.5000047785880057 -0.8660226448477888 0
vn 0.8405766838090294 -0.5416925683786099 0
vn 0.5335145197793272 0.8457909063028723 0
vn 0.9999999045963364 0.00043681497020286195 0
vn -1 0 0
vn -0.05731167831830292 0.9983563349467662 0
vn 0 0 1
vn 0 0 -1
vn 0 0 -1
vn 0 0 1
vn 0 0 1
vn 0 0 -1
vn 0 0 -1
vn 0 0 1
vn 0 0 -1
vn 0 0 1
vn 0 0 1
vn 0 0 -1
usemtl m_arch
f 17/49/13 18/50/13 19/51/13 20/52/13
f 21/53/14 22/54/14 23/55/14 24/56/14
f 23/57/15 22/58/15 19/59/15 18/60/15
f 24/61/16 17/62/16 20/63/16 21/64/16
f 25/65/17 26/66/17 27/67/17 28/68/17
f 29/69/18 30/70/18 28/71/18 27/72/18
f 21/73/19 24/74/19 26/75/19 25/76/19
f 21/77/20 30/78/20 29/79/20 24/80/20
f 31/81/21 32/82/21 33/83/21 34/84/21
f 35/85/22 36/86/22 34/87/22 33/88/22
f 25/89/23 26/90/23 32/91/23 31/92/23
f 25/93/24 36/94/24 35/95/24 26/96/24
f 31/97/25 32/98/25 37/99/25 38/100/25
f 31/101/26 39/102/26 40/103/26 32/104/26
f 38/105/27 37/106/27 41/107/27 42/108/27
f 40/109/28 39/110/28 42/111/28 41/112/28
f 43/113/29 38/114/29 37/115/29 44/116/29
f 38/117/30 45/118/30 46/119/30 37/120/30
f 46/121/31 45/122/31 47/123/31 48/124/31
f 49/125/32 50/126/32 51/127/32 52/128/32
f 53/129/33 54/130/33 23/131/33 22/132/33
f 23/133/34 52/134/34 51/135/34 22/136/34
usemtl m_keystones
f 17/137/35 24/138/35 23/139/35 18/140/35
f 19/141/36 22/142/36 21/143/36 20/144/36
f 21/145/37 25/146/37 28/147/37 30/148/37
f 27/149/38 26/150/38 24/151/38 29/152/38
f 26/153/39 35/154/39 33/155/39 32/156/39
f 25/157/40 31/158/40 34/159/40 36/160/40
f 31/161/41 38/162/41 42/163/41 39/164/41
f 32/165/42 40/166/42 41/167/42 37/168/42
f 45/169/43 38/170/43 43/171/43 47/172/43
f 48/173/44 44/174/44 37/175/44 46/176/44
f 54/177/45 49/178/45 52/179/45 23/180/45
f 22/181/46 51/182/46 50/183/46 53/184/46
o keystones1
v 0.18546 1.177035 0.04262750000000004
v 0.37349625 0.926913125 0.04262750000000004
v 0.37349625 0.926913125 -0.5430205527726002
v 0.18546 1.177035 -0.5428328710391426
v 0.00024 1.01867875 -0.5428328710391426
v 0.234156875 0.801451875 -0.5428328710391426
v 0.234156875 0.80145125 0.04262750000000004
v 0.00024 1.01867875 0.04262750000000004
v -0.142416875 0.82028 -0.5428328710391426
v 0.123946875 0.64976125 -0.5428328710391426
v 0.123946875 0.64976125 0.04262750000000004
v -0.142416875 0.82028 0.04262750000000004
v -0.012261875 1.003558125 0.04262750000000004
v -0.012261875 1.003558125 -0.5428328710391426
v 0.04768375 0.47847125 0.04262750000000004
v 0.04768375 0.47847125 -0.5428328710391426
v -0.254965 0.576913125 -0.5428328710391426
v -0.254965 0.576911875 0.04262750000000004
v -0.15243125 0.80417625 0.04262750000000004
v -0.15243125 0.80417625 -0.5428328710391426
v 0.0087 0.295068125 0.04262750000000004
v 0.0087 0.295068125 -0.5428328710391426
v -0.30927375 0.33539 -0.5428328710391426
v -0.30927375 0.33539 0.04262750000000004
v -0.262615 0.56005125 0.04262750000000004
v -0.262615 0.56005125 -0.5428328710391426
v -0.314298125 0.107568125 -0.5428328710391426
v -0.314298125 0.107568125 0.04262750000000004
v -0.314298125 0.313415 0.04262750000000004
v -0.314298125 0.313415 -0.5428328710391426
v 0.0087 0.107568125 0.04262750000000004
v 0.0087 0.107568125 -0.5428328710391426
v 0.200121875 1.189231875 -0.5432125
v 0.200121875 1.189231875 0.04262750000000004
v 0.520441875 1.011751875 -0.5432125
v 0.520441875 1.011751875 0.04262750000000004
v 0.38237375 1.307483125 0.04262750000000004
v 0.38237375 1.307483125 -0.5432125
vt 0.6875 0.5
vt 1 0.5
vt 1 1
vt 0.6875 1
vt 0.8125 1
vt 0.5 1
vt 0.5 0.5
vt 0.8125 0.5
vt 1 0.5
vt 1 1
vt 0.8125 1
vt 0.8125 0.5
vt 1 1
vt 1 0.5
vt 0.78125 0.5
vt 0.78125 1
vt 0.993375 0.5
vt 0.5 0.5
vt 0.5 1
vt 0.993375 1
vt 0.5 1
vt 0.5 0.5
vt 0.28125 0.5
vt 0.28125 1
vt 0.3125 0.5
vt 0 0.5
vt 0 1
vt 0.3125 1
vt 0.5 0.5
vt 0.5 1
vt 0.3125 1
vt 0.3125 0.5
vt 1 1
vt 1 0.5
vt 0.8125 0.5
vt 0.8125 1
vt 0.8125 0.5
vt 0.5 0.5
vt 0.5 1
vt 0.8125 1
vt 0.6875 1
vt 1 1
vt 1 0.5
vt 0.6875 0.5
vt 0.5 0.5
vt 0.5 1
vt 0.71875 1
vt 0.71875 0.5
vt 0.46875 1
vt 0.46875 0.5
vt 0.28125 0.5
vt 0.28125 1
vt 0.1875 0.5
vt 0.5 0.5
vt 0.5 1
vt 0.1875 1
vt 0.1875 1
vt 0.5 1
vt 0.5 0.5
vt 0.1875 0.5
vt 0.5 0.5
vt 0.5 1
vt 0.28125 1
vt 0.28125 0.5
vt 1 0.5
vt 1 1
vt 0.8125 1
vt 0.8125 0.5
vt 0.5 1
vt 0.5 0.5
vt 0.6875 0.5
vt 0.6875 1
vt 0.8125 1
vt 0.5 1
vt 0.5 0.5
vt 0.8125 0.5
vt 0.3125 0.5
vt 0 0.5
vt 0 1
vt 0.3125 1
vt 0.5 1
vt 0.5 0.5
vt 0.3125 0.5
vt 0.3125 1
vt 0.5 0.5
vt 0.5 1
vt 0.28125 1
vt 0.28125 0.5
vt 0.5 0.84375
vt 0.53125 0.53125
vt 0.71875 0.53125
vt 0.75 0.84375
vt 0.5 0.3125
vt 0.742188125 0.3125
vt 0.710938125 0
vt 0.53125 0
vt 0.234375 0
vt 0.257811875 0.3125
vt 0.03125 0.3125
vt 0.046875 0
vt 0 0.84375
vt 0.21875 0.84375
vt 0.195311875 0.53125
vt 0.015625 0.53125
vt 0.53125 0.84375
vt 0.5 0.53125
vt 0.75 0.53125
vt 0.722835 0.84283875
vt 0.5 0.3125
vt 0.53125 0
vt 0.71875 0
vt 0.75 0.3125
vt 0 0
vt 0.21875 0
vt 0.203125 0.3125
vt 0.023438125 0.3125
vt 0.234375 0.5
vt 0.25 0.8125
vt 0.03125 0.8125
vt 0.054688125 0.5
vt 0.5 0
vt 0.703125 0
vt 0.6875 0.3125
vt 0.5 0.3125
vt 0.53125 0.8125
vt 0.53125 0.5
vt 0.71875 0.5
vt 0.734375 0.8125
vt 0.21875 0.8125
vt 0.1875 0.5
vt 0.015625 0.5
vt 0 0.8125
vt 0 0.3125
vt 0.21875 0.3125
vt 0.171875 0
vt 0 0
vn 0.7993171185449786 0.6009094307805071 0
vn -0.680481963322381 -0.7327648310285545 -7.822528084205148e-7
vn 0.6691291719957839 -0.7431461169807775 -7.933352044879138e-7
vn -0.6498357382285945 0.7600746761476121 0
vn -0.5391567624501558 -0.8422054295148342 0
vn -0.8153251672514278 0.5790033433810475 0
vn 0.6341611992414624 0.773200862244701 8.254197258825515e-7
vn 0.8090162085793468 -0.587786333845811 0
vn 0.9135456488911015 -0.4067362135243634 0
vn -0.3093163493561539 -0.9509591978739055 0
vn 0.4877452964238908 0.8729859826001624 0
vn -0.9115236561331499 0.411247643529886 8.780432969803606e-7
vn 0.9781473704119198 -0.20791277439408778 0
vn -0.12580137762140534 -0.9920554487469724 0
vn 0.2542671943120049 0.9671340103091718 0
vn -0.9791069958282373 0.20334574182953583 0
vn -1 0 0
vn 1 0 0
vn 0.05671038753570371 0.9983906710028646 0
vn -0.834252477824542 -0.5513826287104194 0
vn 0.4999984699690365 -0.8660262871464252 0
vn -0.5443006623021863 0.8388902127319173 0
vn 0 0 1
vn -0.00039052424624028527 0.00045677326211390876 -0.9999998194244838
vn 0 0 1
vn 0 0 -1
vn 0 0 -1
vn 0 0 1
vn 0 0 -1
vn 0 0 1
vn 0 0 -1
vn 0 0 1
vn 0 0 1
vn 0 0 -1
usemtl m_arch
f 55/185/47 56/186/47 57/187/47 58/188/47
f 59/189/48 60/190/48 61/191/48 62/192/48
f 61/193/49 60/194/49 57/195/49 56/196/49
f 59/197/50 62/198/50 55/199/50 58/200/50
f 63/201/51 64/202/51 65/203/51 66/204/51
f 63/205/52 66/206/52 67/207/52 68/208/52
f 67/209/53 61/210/53 60/211/53 68/212/53
f 65/213/54 64/214/54 60/215/54 61/216/54
f 69/217/55 70/218/55 64/219/55 65/220/55
f 71/221/56 70/222/56 69/223/56 72/224/56
f 73/225/57 65/226/57 64/227/57 74/228/57
f 71/229/58 72/230/58 73/231/58 74/232/58
f 75/233/59 76/234/59 70/235/59 69/236/59
f 77/237/60 76/238/60 75/239/60 78/240/60
f 79/241/61 69/242/61 70/243/61 80/244/61
f 77/245/62 78/246/62 79/247/62 80/248/62
f 81/249/63 82/250/63 83/251/63 84/252/63
f 85/253/64 86/254/64 76/255/64 75/256/64
f 83/257/65 75/258/65 76/259/65 84/260/65
f 87/261/66 57/262/66 56/263/66 88/264/66
f 56/265/67 57/266/67 89/267/67 90/268/67
f 87/269/68 88/270/68 91/271/68 92/272/68
usemtl m_keystones
f 62/273/69 61/274/69 56/275/69 55/276/69
f 59/277/70 58/278/70 57/279/70 60/280/70
f 61/281/71 67/282/71 66/283/71 65/284/71
f 63/285/72 68/286/72 60/287/72 64/288/72
f 70/289/73 71/290/73 74/291/73 64/292/73
f 72/293/74 69/294/74 65/295/74 73/296/74
f 77/297/75 80/298/75 70/299/75 76/300/75
f 69/301/76 79/302/76 78/303/76 75/304/76
f 81/305/77 84/306/77 76/307/77 86/308/77
f 82/309/78 85/310/78 75/311/78 83/312/78
f 88/313/79 56/314/79 90/315/79 91/316/79
f 87/317/80 92/318/80 89/319/80 57/320/80
o center_keystone
v 0.38078875 1.32423625 -0.5417475
v 0.407168125 1.001238125 -0.5417475
v 0.407168125 1.001238125 0.03847624999999999
v 0.38078875 1.32423625 0.03847624999999999
v 0.612823125 1.32423625 0.03847624999999999
v 0.594668125 1.001238125 0.03847624999999999
v 0.594668125 1.001238125 -0.5417475
v 0.612823125 1.32423625 -0.5417475
vt 0.6875 1
vt 1 1
vt 1 0.5
vt 0.6875 0.5
vt 0.6875 0.5
vt 1 0.5
vt 1 1
vt 0.6875 1
vt 0.65625 1
vt 0.65625 0.5
vt 0.875 0.5
vt 0.875 1
vt 0.75 0.8125
vt 0.726561875 0.5
vt 0.539061875 0.5
vt 0.515625 0.8125
vt 0.539061875 0.5
vt 0.515625 0.8125
vt 0.75 0.8125
vt 0.726561875 0.5
vn -0.9966815670657037 -0.08139934810214093 0
vn 0.9984240771898661 -0.05611917753820414 0
vn 0 1 0
vn 0 0 1
vn 0 0 -1
usemtl m_arch
f 93/321/81 94/322/81 95/323/81 96/324/81
f 97/325/82 98/326/82 99/327/82 100/328/82
f 93/329/83 96/330/83 97/331/83 100/332/83
usemtl m_keystones
f 96/333/84 95/334/84 98/335/84 97/336/84
f 94/337/85 93/338/85 100/339/85 99/340/85
o mortar
v 1.31118375 0.282903125 -0.514599375
v 1.015021875 0.24128 -0.514599375
v 0.991873125 0.39123625 -0.514599375
v 1.28072875 0.453265 -0.514599375
v 1.31118375 0.282903125 0.013525624999999986
v 1.28072875 0.45326375 0.013525624999999986
v 1.015021875 0.24128 0.013525624999999986
v 0.991873125 0.391235 0.013525624999999986
v 1.23310875 0.61871625 0.013525624999999986
v 0.945621875 0.53628125 0.013525624999999986
v 0.945621875 0.53628125 -0.514599375
v 1.23310875 0.61871625 -0.514599375
v 1.189531875 0.71592125 -0.514599375
v 0.925466875 0.575515 -0.514599375
v 0.84599125 0.724986875 -0.514599375
v 1.11005625 0.865391875 -0.514599375
v 1.189531875 0.71592125 0.013525624999999986
v 1.11005625 0.865391875 0.013525624999999986
v 0.925466875 0.575515 0.013525624999999986
v 0.84599125 0.72498625 0.013525624999999986
v 1.041148125 0.9458 -0.514599375
v 0.812045 0.75356 -0.514599375
v 0.70323 0.883241875 -0.514599375
v 0.92654625 1.075481875 -0.514599375
v 1.041148125 0.9458 0.013525624999999986
v 0.92654625 1.075481875 0.013525624999999986
v 0.812045 0.75356 0.013525624999999986
v 0.70323 0.883241875 0.013525624999999986
v 0.86967625 1.125265 -0.514599375
v 0.685548125 0.889593125 -0.514599375
v 0.552148125 0.99381625 -0.514599375
v 0.73627625 1.229488125 -0.514599375
v 0.86967625 1.125265 0.013525624999999986
v 0.73627625 1.229488125 0.013525624999999986
v 0.685548125 0.889593125 0.013525624999999986
v 0.552148125 0.99381625 0.013525624999999986
v 0.13032375 1.125265 0.013525624999999986
v 0.314451875 0.889593125 0.013525624999999986
v 0.447851875 0.99381625 0.013525624999999986
v 0.26372375 1.229488125 0.013525624999999986
v 0.314451875 0.889593125 -0.514599375
v 0.13032375 1.125265 -0.514599375
v 0.26372375 1.229488125 -0.514599375
v 0.447851875 0.99381625 -0.514599375
v -0.041148125 0.9458 -0.514599375
v -0.041148125 0.9458 0.013525624999999986
v 0.067668125 1.075481875 0.013525624999999986
v 0.067668125 1.075481875 -0.514599375
v 0.187955 0.75356 0.013525624999999986
v 0.29677 0.883241875 0.013525624999999986
v 0.187955 0.75356 -0.514599375
v 0.29677 0.883241875 -0.514599375
v 0.074533125 0.575515 -0.514599375
v -0.189531875 0.71592125 -0.514599375
v -0.11005625 0.865391875 -0.514599375
v 0.15400875 0.724986875 -0.514599375
v -0.189531875 0.71592125 0.013525624999999986
v -0.11005625 0.865391875 0.013525624999999986
v 0.074533125 0.575515 0.013525624999999986
v 0.15400875 0.72498625 0.013525624999999986
v -0.280621875 0.453265 -0.514599375
v -0.280621875 0.45326375 0.013525624999999986
v -0.23310875 0.61871625 0.013525624999999986
v -0.23310875 0.61871625 -0.514599375
v 0.008126875 0.391235 0.013525624999999986
v 0.054378125 0.53628125 0.013525624999999986
v 0.008126875 0.39123625 -0.514599375
v 0.054378125 0.53628125 -0.514599375
v -0.31118375 0.282903125 -0.514599375
v -0.31118375 0.282903125 0.013525624999999986
v -0.015021875 0.24128 0.013525624999999986
v -0.015021875 0.24128 -0.514599375
vt 0.5 1
vt 0.484375 0.703125
vt 0.328125 0.703125
vt 0.328125 1
vt 0.5 1
vt 0.5 0.5625
vt 0.34375 0.5625
vt 0.34375 1
vt 0.5 0.703125
vt 0.484375 1
vt 0.328125 1
vt 0.328125 0.703125
vt 0.328125 0.703125
vt 0.328125 1
vt 0.171875 1
vt 0.15625 0.703125
vt 0.328125 1
vt 0.328125 0.703125
vt 0.171875 0.703125
vt 0.15625 1
vt 0.34375 1
vt 0.34375 0.5625
vt 0.1875 0.5625
vt 0.1875 1
vt 0.15625 0.999996875
vt 0.15625 0.703125
vt 0 0.703128125
vt 0 1
vt 0.1875 1
vt 0.1875 0.5625
vt 0.03125 0.5625
vt 0.03125 1
vt 0.15625 0.703128125
vt 0.15625 1
vt 0 0.999996875
vt 0 0.703125
vt 0.5 0.999996875
vt 0.5 0.703125
vt 0.34375 0.703128125
vt 0.34375 1
vt 0.5 1
vt 0.5 0.5625
vt 0.34375 0.5625
vt 0.34375 1
vt 0.5 0.703128125
vt 0.5 1
vt 0.34375 1
vt 0.34375 0.703125
vt 0.34375 0.999996875
vt 0.34375 0.703125
vt 0.1875 0.703128125
vt 0.1875 1
vt 0.34375 1
vt 0.34375 0.5625
vt 0.1875 0.5625
vt 0.1875 1
vt 0.34375 0.703128125
vt 0.34375 1
vt 0.1875 1
vt 0.1875 0.703125
vt 0.34375 0.999996875
vt 0.34375 0.703125
vt 0.1875 0.703128125
vt 0.1875 1
vt 0.34375 0.703128125
vt 0.34375 1
vt 0.1875 0.999996875
vt 0.1875 0.703125
vt 0.34375 1
vt 0.34375 0.5625
vt 0.1875 0.5625
vt 0.1875 1
vt 0.5 1
vt 0.5 0.5625
vt 0.34375 0.5625
vt 0.34375 1
vt 0.5 0.999996875
vt 0.5 0.703125
vt 0.34375 0.703128125
vt 0.34375 1
vt 0.5 0.703128125
vt 0.5 1
vt 0.34375 1
vt 0.34375 0.703125
vt 0.15625 0.703128125
vt 0.15625 1
vt 0 0.999996875
vt 0 0.703125
vt 0.1875 1
vt 0.1875 0.5625
vt 0.03125 0.5625
vt 0.03125 1
vt 0.15625 0.999996875
vt 0.15625 0.703125
vt 0 0.703128125
vt 0 1
vt 0.34375 1
vt 0.34375 0.5625
vt 0.1875 0.5625
vt 0.1875 1
vt 0.328125 1
vt 0.328125 0.703125
vt 0.171875 0.703125
vt 0.15625 1
vt 0.328125 0.703125
vt 0.328125 1
vt 0.171875 1
vt 0.15625 0.703125
vt 0.5 1
vt 0.5 0.5625
vt 0.34375 0.5625
vt 0.34375 1
vt 0.5 1
vt 0.484375 0.703125
vt 0.328125 0.703125
vt 0.328125 1
vt 0.5 0.703125
vt 0.484375 1
vt 0.328125 1
vt 0.328125 0.703125
vn 0 0 -1
vn 0.9843943231291211 0.17597675014376019 0
vn 0 0 1
vn 0 0 1
vn 0 0 -1
vn 0.9609878768954502 0.2765904923520453 6.546520528794656e-7
vn 0 0 -1
vn 0.8829459181616255 0.4694747124198748 0
vn 0 0 1
vn 0 0 -1
vn 0.7493311275091713 0.6621954857486075 0
vn 0 0 1
vn 0 0 -1
vn 0.6156600903380932 0.7880118356756395 0
vn 0 0 1
vn 0 0 1
vn 0 0 -1
vn -0.6156600903380935 0.7880118356756391 0
vn -0.7660437551662119 0.6427884295558292 0
vn 0 0 1
vn 0 0 -1
vn 0 0 -1
vn -0.8829459181616254 0.46947471241987504 0
vn 0 0 1
vn -0.9611532855487306 0.2760151475525457 6.532902900404649e-7
vn 0 0 1
vn 0 0 -1
vn -0.9842869490667271 0.1765763344758135 0
vn 0 0 1
vn 0 0 -1
usemtl m_arch
f 101/341/86 102/342/86 103/343/86 104/344/86
f 105/345/87 101/346/87 104/347/87 106/348/87
f 107/349/88 105/350/88 106/351/88 108/352/88
f 108/353/89 106/354/89 109/355/89 110/356/89
f 104/357/90 103/358/90 111/359/90 112/360/90
f 106/361/91 104/362/91 112/363/91 109/364/91
f 113/365/92 114/366/92 115/367/92 116/368/92
f 117/369/93 113/370/93 116/371/93 118/372/93
f 119/373/94 117/374/94 118/375/94 120/376/94
f 121/377/95 122/378/95 123/379/95 124/380/95
f 125/381/96 121/382/96 124/383/96 126/384/96
f 127/385/97 125/386/97 126/387/97 128/388/97
f 129/389/98 130/390/98 131/391/98 132/392/98
f 133/393/99 129/394/99 132/395/99 134/396/99
f 135/397/100 133/398/100 134/399/100 136/400/100
f 137/401/101 138/402/101 139/403/101 140/404/101
f 141/405/102 142/406/102 143/407/102 144/408/102
f 142/409/103 137/410/103 140/411/103 143/412/103
f 145/413/104 146/414/104 147/415/104 148/416/104
f 146/417/105 149/418/105 150/419/105 147/420/105
f 151/421/106 145/422/106 148/423/106 152/424/106
f 153/425/107 154/426/107 155/427/107 156/428/107
f 154/429/108 157/430/108 158/431/108 155/432/108
f 157/433/109 159/434/109 160/435/109 158/436/109
f 161/437/110 162/438/110 163/439/110 164/440/110
f 162/441/111 165/442/111 166/443/111 163/444/111
f 167/445/112 161/446/112 164/447/112 168/448/112
f 169/449/113 170/450/113 162/451/113 161/452/113
f 170/453/114 171/454/114 165/455/114 162/456/114
f 172/457/115 169/458/115 161/459/115 167/460/115