mtllib brick_arch.mtl

o bricks
v -0.5811045568735147 -0.5937247599731952 0.039062499999975686
v 0.03264327032584119 -0.5937247875016585 0.03906249999997563
v -0.5811045568735149 -0.5937247599731926 -0.5390625000000031
v 0.032643270325841134 -0.593724787501656 -0.5390625000000027
v -0.5811045500143484 -0.43977443494490565 0.03906249999997696
v 0.0326682546584966 -0.43929626969662405 0.03906249999997691
v -0.5811045500143486 -0.4397744349449031 -0.5390625000000007
v 0.03266825465849654 -0.4392962696966215 -0.5390625000000007
v 0.9770485371655857 0.8648805092661335 0.03906249999999323
v 0.9770485371655857 0.8648805092661359 -0.5390624999999865
v 0.586797640236774 1.3646541647536221 0.03906249999999739
v 0.8360061112358828 0.8018742801394575 0.03906249999999156
v 0.5867976402367742 1.3646541647536248 -0.5390624999999778
v 0.8360061112358826 0.8018742801394602 -0.5390624999999867
v 0.7269692779456455 1.4272713968689317 0.03906249999999983
v 0.7269692779456456 1.4272713968689343 -0.5390624999999793
v 0.395826680633053 1.2579813140425657 0.03906249999999739
v 0.7023003130557482 0.7244209308445605 0.03906249999999245
v 0.39582668063305293 1.2579813140425684 -0.5390624999999818
v 0.7023003130557484 0.7244209308445632 -0.539062499999988
v 0.5287069865306723 1.334956470596623 0.03906249999999739
v 0.5287069865306723 1.3349564705966261 -0.5390624999999793
v 0.21701504673405253 1.1318641390533113 0.039062499999997446
v 0.5773960513297811 0.6333690564844722 0.03906249999998995
v 0.21701504673405247 1.131864139053314 -0.5390624999999833
v 0.5773960513297811 0.6333690564844746 -0.5390624999999885
v 0.34114815638201385 1.2223538641228244 0.03906249999999739
v 0.341148156382014 1.222353864122827 -0.5390624999999833
v 0.05232183621951009 0.9876844059467585 0.03906249999999495
v 0.4626618032873477 0.5297162404485117 0.03906249999998834
v 0.05232183621951003 0.9876844059467614 -0.5390624999999849
v 0.46266180328734785 0.5297162404485144 -0.5390624999999896
v 0.16634772129198744 1.0906972751676722 0.03906249999999578
v 0.16634772129198738 1.090697275167675 -0.5390624999999851
v -0.09644853763190508 0.8270217780503709 0.039062499999992506
v 0.35935462135968715 0.41459812467991486 0.0390624999999879
v -0.0964485376319052 0.8270217780503734 -0.5390624999999862
v 0.3593546213596873 0.4145981246799174 -0.5390624999999913
v 0.0062208314067830894 0.9414291608706732 0.039062499999992506
v 0.006220831406782978 0.9414291608706759 -0.5390624999999862
v -0.22766611547207716 0.6516365087361978 0.03906249999999051
v 0.2686063606504148 0.289275967345057 0.0390624999999859
v -0.22766611547207727 0.6516365087362003 -0.5390624999999891
v 0.268606360650415 0.28927596734505956 -0.5390624999999933
v -0.13747812955931238 0.7761849339284242 0.039062499999992895
v -0.1374781295593125 0.7761849339284269 -0.5390624999999873
v -0.33989325005914517 0.4634501557165721 0.03906249999998762
v 0.19141127809415742 0.15512282422504653 0.03906249999998429
v -0.3398932500591453 0.4634501557165748 -0.5390624999999907
v 0.19141127809415737 0.15512282422504908 -0.5390624999999949
v -0.2631747657190131 0.5967750446708845 0.039062499999989286
v -0.2631747657190132 0.5967750446708867 -0.5390624999999887
v -0.43190035742153454 0.2645245280557029 0.03906249999998518
v 0.12861513916951012 0.01360850522925583 0.039062499999982625
v -0.43190035742153443 0.26452452805570537 -0.5390624999999931
v 0.12861513916951006 0.013608505229258383 -0.5390624999999958
v -0.3694919184228407 0.4051651453886901 0.03906249999998762
v -0.3694919184228408 0.40516514538869297 -0.5390624999999911
v -0.5026793884372585 0.05703909655810724 0.039062499999983125
v 0.08090595151546814 -0.13371652914962184 0.03906249999998179
v -0.5026793884372582 0.05703909655810979 -0.5390624999999956
v 0.08090595151546809 -0.13371652914961918 -0.5390624999999978
v -0.45526475469747885 0.2034545542353281 0.03906249999998557
v -0.45526475469747874 0.20345455423533076 -0.539062499999994
v -0.5514548732310443 -0.15673288496961046 0.03906249999998146
v 0.04880642697575882 -0.2852381550051859 0.03906249999998018
v -0.5514548732310445 -0.1567328849696079 -0.5390624999999982
v 0.04880642697575899 -0.2852381550051833 -0.5390624999999993
v -0.5195535293995812 -0.006146745341871873 0.039062499999983125
v -0.5195535293995814 -0.006146745341869209 -0.5390624999999964
v -0.5776924173845652 -0.3744492859631684 0.03906249999997774
v -0.5776924173845654 -0.37444928596316585 -0.5390624999999998
v -0.5616538812602212 -0.22134231764284912 0.03906249999998063
v -0.5616538812602214 -0.22134231764284645 -0.5390624999999989
v 0.7878356077485558 1.4507139611113633 0.03906249999999978
v 0.7878356077485558 1.4507139611113655 -0.5390624999999769
v 0.9337628274731395 1.4982872212893699 0.03906249999999978
v 1.1234213102446193 0.912625373566961 0.03906249999999156
v 0.9337628274731395 1.4982872212893725 -0.5390624999999769
v 1.1234213102446193 0.9126253735669635 -0.5390624999999865
vt 0 0.625
vt 0.46875 0.625
vt 0.46875 0
vt 0 0
vt 0 0
vt 0.46875 2.220446049250313e-16
vt 0.46875 0.625
vt 0 0.6249999999999998
vt 0 0.0625
vt 0.4687312507499701 0.0625
vt 0.4687499999999999 0.21875
vt 0 0.21826401626924008
vt 0.4687499999999999 0.21875
vt 0.000018749250029814757 0.21875
vt 0 0.375
vt 0.4687499999999999 0.3745140162692401
vt 0 0
vt 0.46875 0
vt 0.46875 0.15625
vt 0 0.15625
vt 0 0.15625
vt 0.46875 0.15625
vt 0.46875 0
vt 0 1.1102230246251565e-16
vt 0 0.375
vt 0.46875 0.375
vt 0.46875 1
vt 0 1
vt 0 0.375
vt 0.46875 0.375
vt 0.46875 1
vt 0 1
vt 0.5312500000000001 1
vt 0.9999812507499702 1
vt 1 0.84375
vt 0.5312500000000001 0.8442359837307599
vt 0.4687499999999999 0.375
vt 0.000018749250029814757 0.375
vt 0 0.53125
vt 0.4687499999999999 0.5307640162692401
vt 0 0
vt 0.0625 0
vt 0.0625 0.15625
vt 0 0.15625
vt 0 0.9375
vt 0.46875 0.9375
vt 0.46875 0.78125
vt 0 0.7812500000000001
vt 0 0
vt 0.46875 2.220446049250313e-16
vt 0.46875 0.625
vt 0 0.6249999999999998
vt 0 0
vt 0.46875 2.220446049250313e-16
vt 0.46875 0.625
vt 0 0.6249999999999998
vt 0.5312500000000001 0.84375
vt 0.9999812507499702 0.84375
vt 1 0.6875
vt 0.5312500000000001 0.6879859837307599
vt 0.4687499999999999 0.53125
vt 0.000018749250029814757 0.53125
vt 0 0.6875
vt 0.4687499999999999 0.6870140162692401
vt 0 0
vt 0.46875 0
vt 0.46875 0.15625
vt 0 0.15625
vt 0 0.78125
vt 0.46875 0.78125
vt 0.46875 0.625
vt 0 0.6250000000000001
vt 0 0.375
vt 0.46875 0.375
vt 0.46875 1
vt 0 1
vt 0 0.375
vt 0.46875 0.375
vt 0.46875 1
vt 0 1
vt 0.5312500000000001 0.6875
vt 0.9999812507499702 0.6875
vt 1 0.53125
vt 0.5312500000000001 0.5317359837307599
vt 0.4687499999999999 0.6875
vt 0.000018749250029814757 0.6875
vt 0 0.84375
vt 0.4687499999999999 0.8432640162692401
vt 0 0
vt 0.46875 0
vt 0.46875 0.15625
vt 0 0.15625
vt 0 0.625
vt 0.46875 0.625
vt 0.46875 0.46875
vt 0 0.4687500000000001
vt 0 0
vt 0.46875 2.220446049250313e-16
vt 0.46875 0.625
vt 0 0.6249999999999998
vt 0 0
vt 0.46875 2.220446049250313e-16
vt 0.46875 0.625
vt 0 0.6249999999999998
vt 0.5312500000000001 0.53125
vt 0.9999812507499702 0.53125
vt 1 0.375
vt 0.5312500000000001 0.3754859837307599
vt 0.4687499999999999 0.84375
vt 0.000018749250029814757 0.84375
vt 0 1
vt 0.4687499999999999 0.9995140162692401
vt 0 0
vt 0.46875 0
vt 0.46875 0.15625
vt 0 0.15625
vt 0 0.46875
vt 0.46875 0.46875
vt 0.46875 0.3125
vt 0 0.3125000000000001
vt 0 0.375
vt 0.46875 0.375
vt 0.46875 1
vt 0 1
vt 0 0.375
vt 0.46875 0.375
vt 0.46875 1
vt 0 1
vt 0.5312500000000001 0.21875
vt 0.9999812507499702 0.21875
vt 1 0.375
vt 0.5312500000000001 0.3745140162692401
vt 1 0.0625
vt 0.53126874925003 0.0625
vt 0.5312500000000001 0.21875
vt 1 0.21826401626924008
vt 0 0
vt 0.46875 0
vt 0.46875 0.15625
vt 0 0.15625
vt 0 0.3125
vt 0.46875 0.3125
vt 0.46875 0.15625
vt 0 0.1562500000000001
vt 0 0
vt 0.46875 2.220446049250313e-16
vt 0.46875 0.625
vt 0 0.6249999999999998
vt 0 0
vt 0.46875 2.220446049250313e-16
vt 0.46875 0.625
vt 0 0.6249999999999998
vt 0.5312500000000001 0.0625
vt 0.9999812507499702 0.0625
vt 1 0.21875
vt 0.5312500000000001 0.21826401626924008
vt 1 0.21875
vt 0.53126874925003 0.21875
vt 0.5312500000000001 0.375
vt 1 0.3745140162692401
vt 0 0
vt 0.46875 0
vt 0.46875 0.15625
vt 0 0.15625
vt 0 0.15625
vt 0.46875 0.15625
vt 0.46875 0
vt 0 1.1102230246251565e-16
vt 0 0.375
vt 0.46875 0.375
vt 0.46875 1
vt 0 1
vt 0 0.375
vt 0.46875 0.375
vt 0.46875 1
vt 0 1
vt 0 0.84375
vt 0.4687312507499701 0.84375
vt 0.4687499999999999 1
vt 0 0.9995140162692401
vt 1 0.375
vt 0.53126874925003 0.375
vt 0.5312500000000001 0.53125
vt 1 0.5307640162692401
vt 0 0
vt 0.46875 0
vt 0.46875 0.15625
vt 0 0.15625
vt 0 0.9375
vt 0.46875 0.9375
vt 0.46875 0.78125
vt 0 0.7812500000000001
vt 0 0
vt 0.46875 2.220446049250313e-16
vt 0.46875 0.625
vt 0 0.6249999999999998
vt 0 0
vt 0.46875 2.220446049250313e-16
vt 0.46875 0.625
vt 0 0.6249999999999998
vt 0 0.6875
vt 0.4687312507499701 0.6875
vt 0.4687499999999999 0.84375
vt 0 0.8432640162692401
vt 1 0.53125
vt 0.53126874925003 0.53125
vt 0.5312500000000001 0.6875
vt 1 0.6870140162692401
vt 0 0
vt 0.46875 0
vt 0.46875 0.15625
vt 0 0.15625
vt 0 0.78125
vt 0.46875 0.78125
vt 0.46875 0.625
vt 0 0.6250000000000001
vt 0 0.375
vt 0.46875 0.375
vt 0.46875 1
vt 0 1
vt 0 0.375
vt 0.46875 0.375
vt 0.46875 1
vt 0 1
vt 0 0.53125
vt 0.4687312507499701 0.53125
vt 0.4687499999999999 0.6875
vt 0 0.6870140162692401
vt 1 0.6875
vt 0.53126874925003 0.6875
vt 0.5312500000000001 0.84375
vt 1 0.8432640162692401
vt 0 0
vt 0.46875 0
vt 0.46875 0.15625
vt 0 0.15625
vt 0 0.625
vt 0.46875 0.625
vt 0.46875 0.46875
vt 0 0.4687500000000001
vt 0 0
vt 0.46875 2.220446049250313e-16
vt 0.46875 0.625
vt 0 0.6249999999999998
vt 0 0
vt 0.46875 2.220446049250313e-16
vt 0.46875 0.625
vt 0 0.6249999999999998
vt 0 0.375
vt 0.4687312507499701 0.375
vt 0.4687499999999999 0.53125
vt 0 0.5307640162692401
vt 1 0.84375
vt 0.53126874925003 0.84375
vt 0.5312500000000001 1
vt 1 0.9995140162692401
vt 0 0
vt 0.46875 0
vt 0.46875 0.15625
vt 0 0.15625
vt 0 0.46875
vt 0.46875 0.46875
vt 0.46875 0.3125
vt 0 0.3125000000000001
vt 0 0.375
vt 0.46875 0.375
vt 0.46875 1
vt 0 1
vt 0 0.375
vt 0.46875 0.375
vt 0.46875 1
vt 0 1
vt 0 0.21875
vt 0.4687312507499701 0.21875
vt 0.4687499999999999 0.375
vt 0 0.3745140162692401
vt 0.4687499999999999 0.0625
vt 0.000018749250029814757 0.0625
vt 0 0.21875
vt 0.4687499999999999 0.21826401626924008
vt 0 0
vt 0.46875 0
vt 0.46875 0.15625
vt 0 0.15625
vt 0 0.3125
vt 0.46875 0.3125
vt 0.46875 0.15625
vt 0 0.1562500000000001
vt 0 0
vt 1.40625 2.220446049250313e-16
vt 1.40625 0.625
vt 0 0.6249999999999998
vt 0 0
vt 0.46875 2.220446049250313e-16
vt 0.46875 0.625
vt 0 0.6249999999999998
vt 0 0.21875
vt 0.4687312507499701 0.21875
vt 0.4687499999999999 0.0625
vt 0 0.06298598373075992
vt 0.4687499999999999 0.21875
vt 0.000018749250029814757 0.21875
vt 0 0.375
vt 0.4687499999999999 0.3745140162692401
vt 0 0
vt 1 0
vt 1 0.15625
vt 0 0.15625
vt 0 0.15625
vt 1.40625 0.15625
vt 1.40625 0
vt 0 1.1102230246251565e-16
vn -4.485305221822819e-8 -0.9999999999999991 -4.3208679822375826e-15
vn -0.0007790587975453667 0.9999996965336491 4.416981343156352e-15
vn 1.2246430908669265e-16 -8.267621139261124e-15 1
vn 6.011055339756958e-16 1.5865446524802265e-14 -1
vn -0.9999999999999991 4.4554412891027106e-8 1.2246487028943007e-16
vn 0.9999999869126868 -0.00016178574193125237 -1.231870349729564e-16
vn -0.9143629965334894 -0.4048954316490843 -1.754155851227223e-15
vn 0.9137344976014046 0.4063117865544992 1.9362329677767712e-15
vn -5.909157899721591e-15 -1.2929195530423446e-14 1
vn -1.5339232137354117e-14 9.24101818495489e-15 -1
vn -0.4078713825988932 0.9130393941429183 3.8290760948930315e-15
vn 0.4078713825988945 -0.9130393941429179 -3.8290760948930015e-15
vn -0.8671334645062773 -0.49807585238931346 -2.3559245277409234e-15
vn 0.8663601991391993 0.4994196685629102 2.7456956481315668e-15
vn 8.819955958094304e-15 -4.2636987044619255e-15 1
vn 9.322139649379744e-15 1.6869222518142172e-14 -1
vn -0.5012530597022995 0.8653007397079256 4.049492745873782e-15
vn 0.5012530597023004 -0.865300739707925 -4.0494927458737855e-15
vn -0.8104038376636115 -0.5858716752840089 -2.5316021385590445e-15
vn 0.8094939406191557 0.5871282313948724 2.917804197980814e-15
vn -5.851110712843957e-15 -1.9240425234755966e-14 1
vn -4.906933851399587e-15 6.563298051961001e-15 -1
vn -0.589070147451538 0.8080819026444186 4.10689565770457e-15
vn 0.5890701474515365 -0.8080819026444195 -3.683405666955588e-15
vn -0.7447732450078425 -0.6673176256629885 -3.270459429072519e-15
vn 0.7437363635284281 0.6684730522358474 3.2466065249095574e-15
vn -4.90605324741796e-16 -1.4852305210798546e-14 1
vn -5.084928101081474e-15 5.492996050084322e-15 -1
vn -0.6703641925900364 0.7420322427584322 3.787065156430416e-15
vn 0.6703641925900368 -0.7420322427584316 -3.0883341060180592e-15
vn -0.6709404454223786 -0.7415112397640513 -3.4506979503846863e-15
vn 0.6697876650329563 0.7425526808043321 3.3403449161945295e-15
vn 3.707485538167557e-15 -7.0748865756732485e-15 1
vn -6.1715337391202336e-15 5.4284442862883924e-15 -1
vn -0.7442549701309363 0.6678956051924575 2.9129028254335248e-15
vn 0.7442549701309372 -0.6678956051924565 -2.883574937831203e-15
vn -0.5896981652029157 -0.8076237205260349 -3.721455331503695e-15
vn 0.5884419153261009 0.8085394933380495 3.654435223676727e-15
vn -1.7055293191249575e-15 -1.5065375187501287e-14 1
vn 8.493615222527664e-16 1.2667261642786822e-14 -1
vn -0.8099490815575036 0.5865002005832195 2.57706476448444e-15
vn 0.8099490815575033 -0.5865002005832199 -2.3786124900449096e-15
vn -0.5019260151950755 -0.8649105591160238 -3.758744234945756e-15
vn 0.5005799529219479 0.8656903087898471 3.263615340772423e-15
vn -4.768338233073328e-16 -1.1655041782179346e-14 1
vn 9.64603677548897e-16 1.5196153740831944e-14 -1
vn -0.8667470486066355 0.498747986193114 2.4048383878606583e-15
vn 0.8667470486066362 -0.4987479861931132 -1.9761617941248525e-15
vn -0.4085819038975591 -0.9127216595476663 -3.981351832822395e-15
vn 0.4071607751529798 0.9133565038783185 4.510528957278169e-15
vn -5.544155135852351e-16 -1.146759625306637e-14 1
vn 1.5487881014087504e-15 1.3467668181419391e-14 -1
vn -0.914048985826318 0.405603811014985 1.4744881162803267e-15
vn 0.9140489858263194 -0.4056038110149817 -1.903445028585424e-15
vn -0.31069193168725495 -0.9505106646347754 -4.3427843883717855e-15
vn 0.3092114101584726 0.9509933248071771 4.463951283455746e-15
vn 4.3023695190938065e-16 -5.7515739746513674e-15 1
vn -2.5325494465657746e-16 1.0658120609197564e-14 -1
vn -0.9513589861872312 0.30808453288148635 7.464920224720188e-16
vn 0.9513589861872308 -0.3080845328814882 -1.477282527050899e-15
vn -0.20933883258060954 -0.9778431638937747 -4.4676804838512276e-15
vn 0.20781533804221738 0.978168076188545 4.482854096636492e-15
vn -1.0709231667477703e-16 -1.0575749212120442e-14 1
vn 1.961031948508055e-16 1.0991528156063374e-14 -1
vn -0.9782883840359761 0.2072482512840063 1.0351979379567056e-15
vn 0.9782883840359756 -0.20724825128400795 -1.0749975972672107e-15
vn -0.10564911649163462 -0.994403471526793 -4.426970712674055e-15
vn 0.10409961544217548 0.9945668756120883 4.5711364600376604e-15
vn -8.5207588693411e-16 -2.115714985591334e-14 1
vn -1.0282706016750197e-15 5.170789591882603e-15 -1
vn -0.9945580675838785 0.10418373291364356 5.819660397118567e-16
vn 0.9945580675838788 -0.10418373291364162 -2.0998265508383977e-16
vn -0.9515973112819682 -0.30734761616275674 -1.3647035099440516e-15
vn 0.951359013657744 0.3080844480530695 1.3034305006258805e-15
vn 1.3714974500696589e-14 -6.791072157858948e-15 1
vn -4.873670215589919e-15 1.457394787674559e-14 -1
vn -0.3099516807711916 0.9507523103243628 3.689580552878114e-15
vn 0.3101063841294754 -0.9507018620588382 -4.0545486042367296e-15
usemtl m_arch
f 4/1/1 2/2/1 1/3/1 3/4/1
f 7/5/2 5/6/2 6/7/2 8/8/2
usemtl m_keystones
f 1/9/3 2/10/3 6/11/3 5/12/3
f 4/13/4 3/14/4 7/15/4 8/16/4
f 3/17/5 1/18/5 5/19/5 7/20/5
usemtl m_arch
f 8/21/6 6/22/6 2/23/6 4/24/6
f 14/25/7 12/26/7 11/27/7 13/28/7
f 16/29/8 15/30/8 9/31/8 10/32/8
usemtl m_keystones
f 11/33/9 12/34/9 9/35/9 15/36/9
f 14/37/10 13/38/10 16/39/10 10/40/10
f 13/41/11 11/42/11 15/43/11 16/44/11
usemtl m_arch
f 10/45/12 9/46/12 12/47/12 14/48/12
f 20/49/13 18/50/13 17/51/13 19/52/13
f 22/53/14 21/54/14 12/55/14 14/56/14
usemtl m_keystones
f 17/57/15 18/58/15 12/59/15 21/60/15
f 20/61/16 19/62/16 22/63/16 14/64/16
f 19/65/17 17/66/17 21/67/17 22/68/17
usemtl m_arch
f 14/69/18 12/70/18 18/71/18 20/72/18
f 26/73/19 24/74/19 23/75/19 25/76/19
f 28/77/20 27/78/20 18/79/20 20/80/20
usemtl m_keystones
f 23/81/21 24/82/21 18/83/21 27/84/21
f 26/85/22 25/86/22 28/87/22 20/88/22
f 25/89/23 23/90/23 27/91/23 28/92/23
usemtl m_arch
f 20/93/24 18/94/24 24/95/24 26/96/24
f 32/97/25 30/98/25 29/99/25 31/100/25
f 34/101/26 33/102/26 24/103/26 26/104/26
usemtl m_keystones
f 29/105/27 30/106/27 24/107/27 33/108/27
f 32/109/28 31/110/28 34/111/28 26/112/28
f 31/113/29 29/114/29 33/115/29 34/116/29
usemtl m_arch
f 26/117/30 24/118/30 30/119/30 32/120/30
f 38/121/31 36/122/31 35/123/31 37/124/31
f 40/125/32 39/126/32 30/127/32 32/128/32
usemtl m_keystones
f 35/129/33 36/130/33 30/131/33 39/132/33
f 38/133/34 37/134/34 40/135/34 32/136/34
f 37/137/35 35/138/35 39/139/35 40/140/35
usemtl m_arch
f 32/141/36 30/142/36 36/143/36 38/144/36
f 44/145/37 42/146/37 41/147/37 43/148/37
f 46/149/38 45/150/38 36/151/38 38/152/38
usemtl m_keystones
f 41/153/39 42/154/39 36/155/39 45/156/39
f 44/157/40 43/158/40 46/159/40 38/160/40
f 43/161/41 41/162/41 45/163/41 46/164/41
usemtl m_arch
f 38/165/42 36/166/42 42/167/42 44/168/42
f 50/169/43 48/170/43 47/171/43 49/172/43
f 52/173/44 51/174/44 42/175/44 44/176/44
usemtl m_keystones
f 47/177/45 48/178/45 42/179/45 51/180/45
f 50/181/46 49/182/46 52/183/46 44/184/46
f 49/185/47 47/186/47 51/187/47 52/188/47
usemtl m_arch
f 44/189/48 42/190/48 48/191/48 50/192/48
f 56/193/49 54/194/49 53/195/49 55/196/49
f 58/197/50 57/198/50 48/199/50 50/200/50
usemtl m_keystones
f 53/201/51 54/202/51 48/203/51 57/204/51
f 56/205/52 55/206/52 58/207/52 50/208/52
f 55/209/53 53/210/53 57/211/53 58/212/53
usemtl m_arch
f 50/213/54 48/214/54 54/215/54 56/216/54
f 62/217/55 60/218/55 59/219/55 61/220/55
f 64/221/56 63/222/56 54/223/56 56/224/56
usemtl m_keystones
f 59/225/57 60/226/57 54/227/57 63/228/57
f 62/229/58 61/230/58 64/231/58 56/232/58
f 61/233/59 59/234/59 63/235/59 64/236/59
usemtl m_arch
f 56/237/60 54/238/60 60/239/60 62/240/60
f 68/241/61 66/242/61 65/243/61 67/244/61
f 70/245/62 69/246/62 60/247/62 62/248/62
usemtl m_keystones
f 65/249/63 66/250/63 60/251/63 69/252/63
f 68/253/64 67/254/64 70/255/64 62/256/64
f 67/257/65 65/258/65 69/259/65 70/260/65
usemtl m_arch
f 62/261/66 60/262/66 66/263/66 68/264/66
f 8/265/67 6/266/67 71/267/67 72/268/67
f 74/269/68 73/270/68 66/271/68 68/272/68
usemtl m_keystones
f 71/273/69 6/274/69 66/275/69 73/276/69
f 8/277/70 72/278/70 74/279/70 68/280/70
f 72/281/71 71/282/71 73/283/71 74/284/71
usemtl m_arch
f 68/285/72 66/286/72 6/287/72 8/288/72
f 10/289/73 9/290/73 75/291/73 76/292/73
f 79/293/74 77/294/74 78/295/74 80/296/74
usemtl m_keystones
f 75/297/75 9/298/75 78/299/75 77/300/75
f 10/301/76 76/302/76 79/303/76 80/304/76
f 76/305/77 75/306/77 77/307/77 79/308/77
usemtl m_arch
f 80/309/78 78/310/78 9/311/78 10/312/78
o mortar
v 0.7989540533839077 1.5012767667272309 -0.5078124999999013
v 0.7989540533839077 1.5012767667272309 0.0078124999999974465
v 1.0084989918430614 0.8997345615952026 -0.5078124999999324
v 1.0084989918430616 0.8997345615952026 0.0078124999999718
v 0.3694469101201907 1.293505429231981 -0.5078124999999122
v 0.3694469101201908 1.2935054292319808 0.007812499999993838
v 0.706993674579741 0.7538832899406445 -0.5078124999999397
v 0.7069936745797412 0.753883289940644 0.007812499999960865
v -0.0032654204737339043 0.9949385589678292 -0.5078124999999286
v -0.0032654204737336823 0.9949385589678292 0.007812499999979239
v 0.445357165743671 0.5442953928470731 -0.5078124999999469
v 0.4453571657436711 0.544295392847073 0.007812499999955369
v -0.3004935858307296 0.6205475455164963 -0.5078124999999415
v -0.3004935858307294 0.6205475455164958 0.007812499999957312
v 0.23670901238680908 0.28148048263760184 -0.5078124999999616
v 0.2367090123868092 0.2814804826376018 0.0078124999999426015
v -0.5073333246230651 0.1891059176131585 -0.507812499999967
v -0.5073333246230649 0.18910591761315837 0.007812499999938993
v 0.09151170415728249 -0.021382803670372486 -0.5078124999999745
v 0.0915117041572826 -0.02138280367037268 0.0078124999999279465
v -0.6134128286601594 -0.27775203997576564 -0.507812499999989
v -0.6134128286601592 -0.2777520399757656 0.0078124999999152345
v 0.017046040380878202 -0.34910763625442054 -0.5078124999999909
v 0.017046040380878313 -0.3491076362544205 0.007812499999913292
v -0.6134128286601594 -0.6249748545568835 -0.5078125000000054
v -0.6134128286601592 -0.6249748545568836 0.007812499999898748
v 0.017046040380878202 -0.6249748545568835 -0.5078125000000056
v 0.017046040380878313 -0.6249748545568836 0.007812499999898637
vt 0 0.46875
vt 0 0
vt 0.4375 0
vt 0.4375 0.46875
vt 0.9999999999999998 0.40625
vt 1 0.0625
vt 0.5 0
vt 0.5000023720110424 0.46875
vt 6.661338147750939e-16 0.46875
vt 0 0
vt 0.5 0.0625
vt 0.49999833488356715 0.40625
vt 0 0.5625
vt 0 0.09375
vt 0.4375 0.09375
vt 0.4375 0.5625
vt 0.9999999999999998 0.9375
vt 1 0.59375
vt 0.5 0.53125
vt 0.5000023720110424 1
vt 6.661338147750939e-16 1
vt 0 0.53125
vt 0.5 0.59375
vt 0.49999833488356715 0.9375
vt 0 1
vt 0 0.53125
vt 0.4375 0.53125
vt 0.4375 1
vt 0.4999999999999998 0.9375
vt 0.5 0.59375
vt 0 0.53125
vt 0.0000023720110423619545 1
vt 0.5000000000000007 1
vt 0.5 0.53125
vt 1 0.59375
vt 0.9999983348835672 0.9375
vt 0 0.46875
vt 0 0
vt 0.4375 0
vt 0.4375 0.46875
vt 0.4999999999999998 0.40625
vt 0.5 0.0625
vt 0 0
vt 0.0000023720110423619545 0.46875
vt 0.5000000000000007 0.46875
vt 0.5 0
vt 1 0.0625
vt 0.9999983348835672 0.40625
vt 0 0.8125
vt 0 0.34375
vt 0.4375 0.34375
vt 0.4375 0.8125
vt 0.9999999999999998 0.6875
vt 1 0.34375
vt 0.5 0.28125
vt 0.5000023720110424 0.75
vt 6.857259857978908e-16 0.75
vt 0 0.28125
vt 0.5 0.34375
vt 0.49999833488356715 0.6875
vt 0 0.34375
vt 0 0
vt 0.4375 0
vt 0.4375 0.34375
vt 0.4375 0.28125
vt 0.4375 0
vt 0 0
vt 0 0.28125
vt 1 0.28125
vt 1 0
vt 0.5 0
vt 0.5 0.34375
vt 0 0.34375
vt 0 0
vt 0.5 0
vt 0.5 0.28125
vt 0 0.9999999999999999
vt 0 0.375
vt 0.4375 0.375
vt 0.4375 1
vt 0 0.625
vt 0 0
vt 0.4375 0
vt 0.4375 0.625
vn -0.43546803059316996 0.9002041959085207 3.917900912291647e-16
vn -3.3735426013224427e-16 5.068356435790508e-14 -1
vn 1.6266467948771778e-14 -5.100655766030378e-14 1
vn -0.6252018268090676 0.7804631162038375 7.656514160228025e-17
vn -2.6577215633337738e-15 3.812618874141804e-14 -1
vn 1.7985130177374073e-15 -5.1176568229796086e-14 1
vn -0.78319473122699 0.621776497608492 6.589425023383162e-16
vn -1.5959023529852393e-15 5.693122191088475e-14 -1
vn -6.392298920076708e-15 -5.3543071106924063e-14 1
vn -0.9017286238521517 0.4323025432792465 2.229344561459559e-16
vn 2.197045387330295e-15 4.141076530062841e-14 -1
vn 3.0577978555417286e-15 -4.3866475160506515e-14 1
vn -0.9751439486640462 0.22157228929604922 1.1942069154393352e-16
vn 2.6629240360726196e-15 4.950459450057159e-14 -1
vn -2.6733246453851213e-15 -5.037443948614735e-14 1
vn -1 0 1.2246467991473532e-16
vn 1 0 -1.2246467991473532e-16
vn -1.2246467991473532e-16 5.312318011263039e-14 -1
vn 1.2246467991473532e-16 -4.7481937313286574e-14 1
vn -2.6368602636550665e-32 -1 -2.153159805334037e-16
vn 0.9443442942594473 0.3289587419413358 -1.1564882172578985e-16
usemtl m_mortar
f 81/313/79 85/314/79 86/315/79 82/316/79
f 83/317/80 87/318/80 85/319/80 81/320/80
f 82/321/81 86/322/81 88/323/81 84/324/81
f 85/325/82 89/326/82 90/327/82 86/328/82
f 87/329/83 91/330/83 89/331/83 85/332/83
f 86/333/84 90/334/84 92/335/84 88/336/84
f 89/337/85 93/338/85 94/339/85 90/340/85
f 91/341/86 95/342/86 93/343/86 89/344/86
f 90/345/87 94/346/87 96/347/87 92/348/87
f 93/349/88 97/350/88 98/351/88 94/352/88
f 95/353/89 99/354/89 97/355/89 93/356/89
f 94/357/90 98/358/90 100/359/90 96/360/90
f 97/361/91 101/362/91 102/363/91 98/364/91
f 99/365/92 103/366/92 101/367/92 97/368/92
f 98/369/93 102/370/93 104/371/93 100/372/93
f 101/373/94 105/374/94 106/375/94 102/376/94
f 104/377/95 108/378/95 107/379/95 103/380/95
f 103/381/96 107/382/96 105/383/96 101/384/96
f 102/385/97 106/386/97 108/387/97 104/388/97
f 105/389/98 107/390/98 108/391/98 106/392/98
f 83/393/99 81/394/99 82/395/99 84/396/99