mtllib brick_arch.mtl

o arch_2_left_inner
v 0.8475712521588409 1.40625 -0.5054687500000004
v 0.8475712521588409 1.40625 0.011718749999999556
v 0.875039847111267 1.0046733562910914 -0.5054687500000004
v 0.8750398471112671 1.0046733562910917 0.011718749999999556
v 0.5765121514561724 1.3689937841453232 -0.5054687500000004
v 0.5765121514561725 1.3689937841453235 0.011718749999999556
v 0.658406248362065 0.9748977534965222 -0.5054687500000004
v 0.6584062483620651 0.9748977534965224 0.011718749999999556
v 0.31305076391573017 1.2951753652458744 -0.5054687500000004
v 0.31305076391573017 1.2951753652458744 0.011718749999999556
v 0.44784483069931424 0.915901211049843 -0.5054687500000004
v 0.44784483069931424 0.915901211049843 0.011718749999999556
v 0.06209487669930358 1.186169840775938 -0.5054687500000004
v 0.06209487669930358 1.1861698407759382 0.011718749999999556
v 0.24727795493656968 0.82878272291109 -0.5054687500000004
v 0.24727795493656968 0.82878272291109 0.011718749999999556
v -0.1716806768410386 1.0440077774100165 -0.5054687500000004
v -0.17168067684103838 1.0440077774100165 0.011718749999999778
v 0.060441802482189 0.7151651416797782 -0.5054687500000004
v 0.060441802482189 0.7151651416797784 0.011718749999999556
v -0.3839211004631735 0.8713373854076631 -0.5054687500000002
v -0.3839211004631733 0.8713373854076631 0.011718749999999778
v -0.10918322265117908 0.5771649479215284 -0.5054687500000004
v -0.10918322265117886 0.5771649479215286 0.011718749999999778
v 0.9999999999999999 1.40625 -0.5054687500000004
v 0.9999999999999999 1.40625 0.011718749999999556
v 0.9999999999999999 1.0046733562910914 -0.5054687500000004
v 0.9999999999999999 1.0046733562910917 0.011718749999999556
vt 0 0.5625
vt 0 0.28125
vt 0.4375 0.28125
vt 0.4375 0.5625
vt 0.40625 0.75
vt 0.40625 0.53125
vt 7.481576136392221e-7 0.5
vt 0 0.78125
vt 0.5312500000000004 0.84375
vt 0.53125 0.5625
vt 0.9375 0.59375
vt 0.9375 0.8125
vt 0 0.28125
vt 0 0
vt 0.4375 0
vt 0.4375 0.28125
vt 0.9375 0.96875
vt 0.9375 0.75
vt 0.5312507481576136 0.71875
vt 0.53125 1
vt 4.440892098500626e-16 1
vt 0 0.71875
vt 0.40625 0.75
vt 0.40625 0.96875
vt 0 1
vt 0 0.71875
vt 0.4375 0.71875
vt 0.4375 1
vt 0.9375 0.6875
vt 0.9375 0.46875
vt 0.5312507481576136 0.4375
vt 0.53125 0.71875
vt 4.440892098500626e-16 0.75
vt 0 0.46875
vt 0.40625 0.5
vt 0.40625 0.71875
vt 0 0.71875
vt 0 0.4375
vt 0.4375 0.4375
vt 0.4375 0.71875
vt 0.9375 0.5
vt 0.9375 0.28125
vt 0.5312507481576136 0.25
vt 0.53125 0.53125
vt 4.440892098500626e-16 0.53125
vt 0 0.25
vt 0.40625 0.28125
vt 0.40625 0.5
vt 0 0.4375
vt 0 0.15625
vt 0.4375 0.15625
vt 0.4375 0.4375
vt 0.4375 0.375
vt 0.4375 0.59375
vt 0 0.5937499999999999
vt 0 0.375
vt 0.9375 0.25
vt 0.9375 0.03125
vt 0.5312507481576136 0
vt 0.53125 0.28125
vt 4.440892098500626e-16 0.28125
vt 0 0
vt 0.40625 0.03125
vt 0.40625 0.25
vt 0 0.75
vt 0 0.5625
vt 0.4375 0.5625
vt 0.4375 0.75
vt 0.40625 0.84375
vt 0.40625 0.96875
vt 0 1
vt 0 0.84375
vt 0.53125 0.84375
vt 0.53125 1
vt 0.9375 0.96875
vt 0.9375 0.84375
vt 0 0.59375
vt 0.4375 0.59375
vt 0.4375 1
vt 0 1
vt 0 0
vt 0.4375 0
vt 0.4375 0.40625
vt 0 0.40625
vn -0.1361666490962458 0.9906859460363309 -4.1238860449306525e-16
vn -1.2246467991473532e-16 0 -1
vn 1.2246467991473532e-16 0 1
vn -0.2697967711570243 0.9629172873477995 3.304057522177407e-17
vn -1.2246467991473532e-16 0 -1
vn 1.2246467991473532e-16 0 1
vn -0.3984010898462417 0.9172113015054529 -3.4349721539345135e-16
vn -1.2246467991473532e-16 0 -1
vn 1.2246467991473532e-16 0 1
vn -0.5195839500354333 0.8544194045464887 6.363068212992317e-17
vn -1.2246467991473532e-16 0 -1
vn 1.2246467991473532e-16 0 1
vn -0.6310879443260526 0.7757112907044201 7.728598309993834e-17
vn 0.6310879443260519 -0.7757112907044206 2.6016842421861077e-16
vn -1.2246467991473532e-16 0 -1
vn 1.2246467991473532e-16 0 1
vn 0 1 0
vn -1.2246467991473532e-16 0 -1
vn 1.2246467991473532e-16 0 1
vn -0.7308359642781238 -0.6825531432186546 3.8254278741086803e-16
vn 1 0 -1.2246467991473532e-16
usemtl m_mortar
f 1/1/1 5/2/1 6/3/1 2/4/1
f 3/5/2 7/6/2 5/7/2 1/8/2
f 2/9/3 6/10/3 8/11/3 4/12/3
f 5/13/4 9/14/4 10/15/4 6/16/4
f 7/17/5 11/18/5 9/19/5 5/20/5
f 6/21/6 10/22/6 12/23/6 8/24/6
f 9/25/7 13/26/7 14/27/7 10/28/7
f 11/29/8 15/30/8 13/31/8 9/32/8
f 10/33/9 14/34/9 16/35/9 12/36/9
f 13/37/10 17/38/10 18/39/10 14/40/10
f 15/41/11 19/42/11 17/43/11 13/44/11
f 14/45/12 18/46/12 20/47/12 16/48/12
f 17/49/13 21/50/13 22/51/13 18/52/13
f 20/53/14 24/54/14 23/55/14 19/56/14
f 19/57/15 23/58/15 21/59/15 17/60/15
f 18/61/16 22/62/16 24/63/16 20/64/16
f 25/65/17 1/66/17 2/67/17 26/68/17
f 27/69/18 3/70/18 1/71/18 25/72/18
f 26/73/19 2/74/19 4/75/19 28/76/19
f 23/77/20 24/78/20 22/79/20 21/80/20
f 25/81/21 26/82/21 28/83/21 27/84/21
o arch_2_left
v 0.7136549482049122 1.3578623415476407 0.043749999999998845
v 0.7502425125733976 0.9846430205478627 0.043749999999998845
v 0.7136549482049122 1.3578623415476407 -0.5375000000000001
v 0.7502425125733976 0.9846430205478625 -0.5375000000000001
v 0.8691525617474429 1.3731775197241347 0.043749999999998845
v 0.9060794946855141 0.9999916236110302 0.04374999999999951
v 0.8691525617474428 1.3731775197241347 -0.5375000000000001
v 0.906079494685514 0.9999916236110302 -0.5374999999999996
v 0.523667078499245 1.3219295893863494 0.043749999999998845
v 0.5966603543050362 0.9540936298594254 0.043749999999998845
v 0.523667078499245 1.3219295893863499 -0.5375000000000001
v 0.5966603543050362 0.9540936298594254 -0.5375000000000001
v 0.6769147785622498 1.3524124522013696 0.043749999999998845
v 0.6769147785622497 1.3524124522013696 -0.5375000000000001
v 0.33811607792619836 1.2675477955622818 0.043749999999998845
v 0.44681210002110205 0.9086376588780445 0.043749999999998845
v 0.33811607792619824 1.2675477955622814 -0.5375000000000001
v 0.44681210002110205 0.9086376588780447 -0.5375000000000001
v 0.4876380053843559 1.3129047763832913 0.043749999999998845
v 0.4876380053843558 1.312904776383291 -0.5375000000000001
v 0.15878890405378543 1.195240686478073 0.043749999999998845
v 0.3021408703257379 0.8487128734530311 0.043749999999998845
v 0.1587889040537852 1.195240686478073 -0.5375
v 0.30214087032573766 0.8487128734530309 -0.5375000000000001
v 0.3031450810086739 1.2550349727851184 0.043749999999998845
v 0.3031450810086739 1.255034972785118 -0.5375000000000001
v -0.012587424403398217 1.1057046191212931 0.04374999999999907
v 0.16403992824624813 0.7748963820262489 0.043749999999998845
v -0.012587424403398217 1.1057046191212927 -0.5375
v 0.16403992824624802 0.7748963820262487 -0.5375
v 0.1252127731510323 1.1793603592503552 0.043749999999998845
v 0.1252127731510323 1.1793603592503548 -0.5375
v -0.17436245971847764 0.9998018747659796 0.04374999999999818
v 0.03383926134851323 0.6878990777623357 0.04374999999999907
v -0.17436245971847808 0.9998018747659787 -0.5375000000000003
v 0.033839261348513006 0.6878990777623353 -0.5375
v -0.04444533279620566 1.0866097236752925 0.04374999999999818
v -0.04444533279620544 1.0866097236752916 -0.5375000000000003
v -0.32497821986614106 0.8785523547326037 0.04374999999999907
v -0.08708073830477381 0.5886734347215774 0.04374999999999907
v -0.32497821986614106 0.8785523547326035 -0.5374999999999999
v -0.08708073830477425 0.5886734347215772 -0.5375
v -0.20419533652821342 0.977676305383173 0.04374999999999907
v -0.20419533652821364 0.9776763053831727 -0.5374999999999999
v 1.0006249999999999 0.9999916236110304 0.04374999999999951
v 1.0006249999999999 0.9999916236110304 -0.5374999999999996
v 1.0006249999999999 1.3749999999999998 0.04374999999999951
v 1.0006249999999999 1.3749999999999996 -0.5374999999999996
v 0.9062500000000001 1.3749999999999996 0.04374999999999951
v 0.9062499999999999 1.3749999999999998 -0.5374999999999993
vt 0 0
vt 0.46875 0
vt 0.46875 0.375
vt 0 0.375
vt 0 0.9375
vt 0.46875 0.9375
vt 0.46875 0.5625
vt 0 0.5625
vt 0.625 0.21875
vt 1 0.21875
vt 1 0.0625
vt 0.625 0.0625
vt 1 0.21875
vt 0.625 0.21875
vt 0.625 0.375
vt 1 0.375
vt 0 0.0625
vt 0.46875 0.0625
vt 0.46875 0.21875
vt 0 0.21875
vt 0.46875 0.78125
vt 0 0.78125
vt 0 0.625
vt 0.46875 0.625
vt 0 0.5625
vt 0.46875 0.5625
vt 0.46875 0.9375
vt 0 0.9375
vt 0 0.9375
vt 0.46875 0.9375
vt 0.46875 0.5625
vt 0 0.5625
vt 0.09375 1
vt 0.46875 1
vt 0.46875 0.84375
vt 0.09375 0.84375
vt 1 0.375
vt 0.625 0.375
vt 0.625 0.53125
vt 1 0.53125
vt 0 0.84375
vt 0.46875 0.84375
vt 0.46875 1
vt 0 1
vt 0.46875 0.9375
vt 0 0.9375
vt 0 0.78125
vt 0.46875 0.78125
vt 0 0
vt 0.46875 0
vt 0.46875 0.375
vt 0 0.375
vt 0 0.375
vt 0.46875 0.375
vt 0.46875 0
vt 0 0
vt 0.09375 0.84375
vt 0.46875 0.84375
vt 0.46875 0.6875
vt 0.09375 0.6875
vt 1 0.53125
vt 0.625 0.53125
vt 0.625 0.6875
vt 1 0.6875
vt 0 0.6875
vt 0.46875 0.6875
vt 0.46875 0.84375
vt 0 0.84375
vt 0.46875 0.78125
vt 0 0.78125
vt 0 0.625
vt 0.46875 0.625
vt 0 0.5625
vt 0.46875 0.5625
vt 0.46875 0.9375
vt 0 0.9375
vt 0 0.9375
vt 0.46875 0.9375
vt 0.46875 0.5625
vt 0 0.5625
vt 0.09375 0.6875
vt 0.46875 0.6875
vt 0.46875 0.53125
vt 0.09375 0.53125
vt 1 0.6875
vt 0.625 0.6875
vt 0.625 0.84375
vt 1 0.84375
vt 0 0.53125
vt 0.46875 0.53125
vt 0.46875 0.6875
vt 0 0.6875
vt 0.46875 0.625
vt 0 0.625
vt 0 0.46875
vt 0.46875 0.46875
vt 0 0
vt 0.46875 0
vt 0.46875 0.375
vt 0 0.375
vt 0 0.375
vt 0.46875 0.375
vt 0.46875 0
vt 0 0
vt 0.09375 0.53125
vt 0.46875 0.53125
vt 0.46875 0.375
vt 0.09375 0.375
vt 1 0.84375
vt 0.625 0.84375
vt 0.625 1
vt 1 1
vt 0 0.375
vt 0.46875 0.375
vt 0.46875 0.53125
vt 0 0.53125
vt 0.46875 0.46875
vt 0 0.46875
vt 0 0.3125
vt 0.46875 0.3125
vt 0 0.5625000000000002
vt 0.46875 0.5625000000000002
vt 0.46875 0.9375
vt 0 0.9375
vt 0 0.9374999999999998
vt 0.46875 0.9374999999999998
vt 0.46875 0.5625
vt 0 0.5625
vt 0.09375 0.375
vt 0.46875 0.375
vt 0.46875 0.21875
vt 0.09375 0.21875
vt 0.46875 0.0625
vt 0.09375 0.0625
vt 0.09375 0.21875
vt 0.46875 0.21875
vt 0 0.21875
vt 0.46875 0.21875
vt 0.46875 0.375
vt 0 0.375
vt 0.46875 0.3125
vt 0 0.3125
vt 0 0.15625
vt 0.46875 0.15625
vt 0 0
vt 0.46875 0
vt 0.46875 0.375
vt 0 0.375
vt 0 0.9375
vt 0.46875 0.9375
vt 0.46875 0.5625
vt 0 0.5625
vt 0.09375 0.21875
vt 0.46875 0.21875
vt 0.46875 0.0625
vt 0.09375 0.0625
vt 0.46875 0.21875
vt 0.09375 0.21875
vt 0.09375 0.375
vt 0.46875 0.375
vt 0 0.0625
vt 0.46875 0.0625
vt 0.46875 0.21875
vt 0 0.21875
vt 0.46875 0.15625
vt 0 0.15625
vt 0 0
vt 0.46875 0
vt 0 0
vt 0.46875 0
vt 0.46875 0.375
vt 0 0.375
vt 0 0.5625
vt 0.46875 0.5625
vt 0.46875 0.9375
vt 0 0.9375
vt 1 0
vt 0.625 0
vt 0.625 0.09375
vt 1 0.09375
vt 0.09375 0
vt 0.46875 0
vt 0.46875 0.09375
vt 0.09375 0.09375
vt 0.46875 0.90625
vt 0 0.90625
vt 0 0.8125
vt 0.46875 0.8125
vt 0 0.09375
vt 0.46875 0.09375
vt 0.46875 0
vt 0 0
vn -0.9952291893227148 -0.09756464892599183 1.5915131258605081e-16
vn 0.9951400582917209 0.09846961147049697 -9.810977955973007e-17
vn -4.1112131175597766e-15 -4.150373526096695e-16 1
vn -1.2246467991473532e-16 0 -1
vn -0.09801714032956144 0.9951847266721969 1.2003637716617435e-17
vn 0.09801714032955988 -0.9951847266721969 -2.37048082544444e-17
vn -0.9808738808673346 -0.19464436758420195 1.2012240585714237e-16
vn 0.9806964771858994 0.19553623611793064 -2.1376019063578438e-16
vn 1.2246467991473532e-16 0 1
vn -1.2246467991473532e-16 0 -1
vn -0.19509032201612922 0.9807852804032303 7.546038834533315e-16
vn 0.1950903220161298 -0.9807852804032303 3.5078029192915974e-16
vn -0.9570722207389963 -0.28984955457914013 6.481470335016694e-18
vn 0.9568082529015504 0.29071973992056865 -3.196118227465556e-16
vn 1.2246467991473532e-16 0 1
vn -1.2246467991473532e-16 0 -1
vn -0.29028467725446094 0.9569403357322094 -6.401300432803408e-16
vn 0.2902846772544607 -0.9569403357322095 -3.554962008411978e-17
vn -0.9240534319360462 -0.3822633319155986 6.121928793556391e-16
vn 0.923705442097164 0.3831034537041963 -4.058216956827057e-16
vn 1.2246467991473532e-16 0 1
vn -1.2246467991473532e-16 0 -1
vn -0.3826834323650914 0.9238795325112862 1.930549529579717e-16
vn 0.38268343236509117 -0.9238795325112862 -3.9979847853892605e-16
vn -0.882135503444563 -0.4709957043993156 4.564498309414359e-16
vn 0.881706842936623 0.4717976718030022 -4.684429016194585e-16
vn 1.2246467991473532e-16 0 1
vn -1.2246467991473532e-16 0 -1
vn -0.47139673682599714 0.8819212643483553 -6.160799558505578e-16
vn 0.47139673682599625 -0.8819212643483558 9.90959370829152e-17
vn -0.8317221278305911 -0.5551921307772237 8.437649642976244e-16
vn 0.8312169248886142 0.5559482204115022 -6.337757523172382e-16
vn -1.1933605727029974e-15 1.9692716557284648e-15 1
vn 4.532088681055229e-16 -8.615563493812048e-16 -1
vn -0.5555702330196044 0.8314696123025438 -9.902538707650004e-16
vn 0.5555702330196036 -0.8314696123025446 1.4347651461327551e-16
vn -0.7730104533627367 -0.6343932841636459 6.32311908914386e-16
vn 0.7727219334645353 0.6347446837452286 -3.371113722542465e-16
vn 1.2246467991473532e-16 0 1
vn -1.2246467991473532e-16 0 -1
vn -0.6343932841636442 0.7730104533627383 -4.599546606874156e-16
vn 0.6343518881938877 -0.7730444243022839 2.7060896257720184e-16
vn 1 0 -1.2246467991473532e-16
vn -0.9999998966373013 0.00045467063563739077 2.418434747693061e-16
vn 1.2246467991473532e-16 0 1
vn -1.2246467991473532e-16 0 -1
vn 2.348547444814499e-15 -1 -2.876141110937771e-31
vn -2.3527905157619257e-15 1 3.820122235269372e-16
usemtl m_arch
f 32/85/22 30/86/22 29/87/22 31/88/22
f 35/89/23 33/90/23 34/91/23 36/92/23
usemtl m_keystones
f 29/93/24 30/94/24 34/95/24 33/96/24
f 32/97/25 31/98/25 35/99/25 36/100/25
f 31/101/26 29/102/26 33/103/26 35/104/26
usemtl m_arch
f 36/105/27 34/106/27 30/107/27 32/108/27
f 40/109/28 38/110/28 37/111/28 39/112/28
f 42/113/29 41/114/29 30/115/29 32/116/29
usemtl m_keystones
f 37/117/30 38/118/30 30/119/30 41/120/30
f 40/121/31 39/122/31 42/123/31 32/124/31
f 39/125/32 37/126/32 41/127/32 42/128/32
usemtl m_arch
f 32/129/33 30/130/33 38/131/33 40/132/33
f 46/133/34 44/134/34 43/135/34 45/136/34
f 48/137/35 47/138/35 38/139/35 40/140/35
usemtl m_keystones
f 43/141/36 44/142/36 38/143/36 47/144/36
f 46/145/37 45/146/37 48/147/37 40/148/37
f 45/149/38 43/150/38 47/151/38 48/152/38
usemtl m_arch
f 40/153/39 38/154/39 44/155/39 46/156/39
f 52/157/40 50/158/40 49/159/40 51/160/40
f 54/161/41 53/162/41 44/163/41 46/164/41
usemtl m_keystones
f 49/165/42 50/166/42 44/167/42 53/168/42
f 52/169/43 51/170/43 54/171/43 46/172/43
f 51/173/44 49/174/44 53/175/44 54/176/44
usemtl m_arch
f 46/177/45 44/178/45 50/179/45 52/180/45
f 58/181/46 56/182/46 55/183/46 57/184/46
f 60/185/47 59/186/47 50/187/47 52/188/47
usemtl m_keystones
f 55/189/48 56/190/48 50/191/48 59/192/48
f 58/193/49 57/194/49 60/195/49 52/196/49
f 57/197/50 55/198/50 59/199/50 60/200/50
usemtl m_arch
f 52/201/51 50/202/51 56/203/51 58/204/51
f 64/205/52 62/206/52 61/207/52 63/208/52
f 66/209/53 65/210/53 56/211/53 58/212/53
usemtl m_keystones
f 61/213/54 62/214/54 56/215/54 65/216/54
f 64/217/55 63/218/55 66/219/55 58/220/55
f 63/221/56 61/222/56 65/223/56 66/224/56
usemtl m_arch
f 58/225/57 56/226/57 62/227/57 64/228/57
f 70/229/58 68/230/58 67/231/58 69/232/58
f 72/233/59 71/234/59 62/235/59 64/236/59
usemtl m_keystones
f 67/237/60 68/238/60 62/239/60 71/240/60
f 70/241/61 69/242/61 72/243/61 64/244/61
f 69/245/62 67/246/62 71/247/62 72/248/62
usemtl m_arch
f 64/249/63 62/250/63 68/251/63 70/252/63
f 76/253/64 75/254/64 73/255/64 74/256/64
f 36/257/65 34/258/65 77/259/65 78/260/65
usemtl m_keystones
f 73/261/66 75/262/66 77/263/66 34/264/66
f 76/265/67 74/266/67 36/267/67 78/268/67
usemtl m_arch
f 74/269/68 73/270/68 34/271/68 36/272/68
usemtl m_keystones
f 78/273/69 77/274/69 75/275/69 76/276/69