mtllib brick_arch.mtl

o cube.024
v 0.9347963333333335 1.010992 0.005468749999999797
v 0.7118280000000001 1.495703 0.005468749999999824
v 0.711828 1.495703 -0.5082812500000001
v 0.9347963333333333 1.010992 -0.5082812500000001
v 0.9273640000000001 1.578768 0.0054687499999997976
v 0.927364 1.578768 -0.5082812500000001
v 0.7662570000000001 0.9200675 0.0054687499999998175
v 0.503499 1.394095 0.00546874999999985
v 0.5034989999999999 1.394095 -0.5082812500000001
v 0.766257 0.9200675 -0.5082812500000001
v 1 1.01099375 0.005468749999999789
v 1 1.578768 0.005468749999999789
v 1 1.578768 -0.5082812500000001
v 1 1.01099375 -0.5082812500000001
v 0.6178 0.8273010000000001 -0.5082812500000001
v 0.306933 1.271266 -0.50828125
v 0.30693300000000007 1.271266 0.005468749999999874
v 0.6178000000000001 0.8273015 0.005468749999999836
v 0.12428200000000006 1.128564 0.005468749999999896
v 0.47641800000000006 0.7162655 0.005468749999999853
v 0.476418 0.7162655 -0.5082812500000001
v 0.124282 1.128564 -0.50828125
v 0.3477080000000001 0.5975955 0.005468749999999869
v -0.04523599999999999 0.970485 0.005468749999999916
v -0.045236000000000054 0.970485 -0.50828125
v 0.347708 0.5975955 -0.50828125
v 0.24377750000000004 0.47469800000000006 0.005468749999999882
v -0.19422599999999995 0.792926 0.005468749999999935
v -0.194226 0.792926 -0.50828125
v 0.24377749999999998 0.4746975 -0.50828125
v -0.31705500000000003 0.59636 0.00546874999999995
v 0.15697250000000001 0.333602 0.005468749999999892
v 0.15697249999999996 0.333602 -0.50828125
v -0.3170550000000001 0.596359 -0.50828125
v 0.08331599999999995 0.18521749999999998 -0.50828125
v -0.4186639999999999 0.38803 -0.50828125
v -0.41866399999999987 0.388031 0.005468749999999962
v 0.083316 0.185218 0.005468749999999901
v 0.033223500000000135 0.027313 0.005468749999999907
v -0.49028999999999984 0.167588 0.005468749999999971
v -0.4902899999999999 0.167588 -0.5082812499999999
v 0.03322350000000007 0.027313 -0.50828125
v -0.538481 -0.059134 -0.5082812499999999
v -0.5384809999999999 -0.059134 0.005468749999999977
v -0.002718500000000006 -0.1392045 0.005468749999999911
v -0.0027185000000000694 -0.1392045 -0.50828125
v -0.5586819999999999 -0.290039 -0.5082812499999999
v -0.5586819999999998 -0.290039 0.00546874999999998
v -0.016990499999999846 -0.31369 0.005468749999999913
v -0.01699049999999991 -0.31369 -0.50828125
v -0.5586819999999998 -0.498877 0.00546874999999998
v -0.015957999999999854 -0.498877 0.005468749999999913
v -0.5586819999999999 -0.498877 -0.5082812499999999
v -0.015957999999999917 -0.498877 -0.50828125
vt 0.0625 0.40625
vt 0.5 0.21875
vt 0 0.2187500000000001
vt 0.5 0.37500000000000056
vt 0.0625 0.1875
vt 0 0.3750000000000001
vt 0 0.78125
vt 0.4375 0.78125
vt 0.4375 1
vt 0 1
vt 0 0.5625
vt 0.4375 0.5625
vt 0.4375 0.78125
vt 0 0.78125
vt 0.5 0.5625
vt 0 0.59375
vt 0 0.375
vt 0.5 0.40625
vt 0 0
vt 0.5 0.03125
vt 0.5 0.1875
vt 0 0.21875
vt 0 0
vt 0.5 0
vt 0.5 0.0625
vt 0 0.0625
vt 0 0.9375
vt 0.4375 0.9375
vt 0.4375 1
vt 0 1
vt 0 0.125
vt 0.5 0.125
vt 0.5 0.0625
vt 0 0.0625
vt 0.5 0.75
vt 0 0.78125
vt 0 0.5625
vt 0.5 0.59375
vt 1 0.75
vt 0.5 0.78125
vt 0.5 0.9375
vt 1 0.96875
vt 0 0.34375
vt 0.4375 0.34375
vt 0.4375 0.5625
vt 0 0.5625
vt 1 0.5625
vt 0.5 0.59375
vt 0.5 0.75
vt 1 0.78125
vt 0.5 0.9375
vt 0 0.96875
vt 0 0.75
vt 0.5 0.78125
vt 0 0.125
vt 0.4375 0.125
vt 0.4375 0.34375
vt 0 0.34375
vt 0 0.65625
vt 0.4375 0.65625
vt 0.4375 0.875
vt 0 0.875
vt 0.5 0.1875
vt 1 0.21875
vt 1 0
vt 0.5 0.03125
vt 1 0.375
vt 0.5 0.40625
vt 0.5 0.5625
vt 1 0.59375
vt 0 0.4375
vt 0.4375 0.4375
vt 0.4375 0.65625
vt 0 0.65625
vt 0.5 0.375
vt 1 0.40625
vt 1 0.1875
vt 0.5 0.21875
vt 1 0.1875
vt 0.5 0.21875
vt 0.5 0.375
vt 1 0.40625
vt 1 0
vt 0.5 0.03125
vt 0.5 0.1875
vt 1 0.21875
vt 0 0.21875
vt 0.4375 0.21875
vt 0.4375 0.4375
vt 0 0.4375
vt 0.5 0.5625
vt 1 0.59375
vt 1 0.375
vt 0.5 0.40625
vt 0.5 0.75
vt 1 0.78125
vt 1 0.5625
vt 0.5 0.59375
vt 0 0.75
vt 0.5 0.78125
vt 0.5 0.9375
vt 0 0.96875
vt 0 0
vt 0.4375 0
vt 0.4375 0.21875
vt 0 0.21875
vt 0 0.5625
vt 0.5 0.59375
vt 0.5 0.75
vt 0 0.78125
vt 0.5 0.9375
vt 1 0.96875
vt 1 0.75
vt 0.5 0.78125
vt 0 0.78125
vt 0.4375 0.78125
vt 0.4375 1
vt 0 1
vt 0 0.5625
vt 0.4375 0.5625
vt 0.4375 0.78125
vt 0 0.78125
vt 0 0.375
vt 0.5 0.40625
vt 0.5 0.5625
vt 0 0.59375
vt 0.5 0.40625
vt 0 0.375
vt 0 0.59375
vt 0.5 0.5625
vt 0 0.34375
vt 0.4375 0.34375
vt 0.4375 0.5625
vt 0 0.5625
vt 0 0.1875
vt 0.5 0.21875
vt 0.5 0.375
vt 0 0.40625
vt 0.5 0.375
vt 0 0.40625
vt 0 0.1875
vt 0.5 0.21875
vt 0 0
vt 0.5 0
vt 0.5 0.1875
vt 0 0.21875
vt 0 0.125
vt 0.4375 0.125
vt 0.4375 0.34375
vt 0 0.34375
vt 0.5 0
vt 0 0
vt 0 0.21875
vt 0.5 0.1875
vt 0 0.4999999999999998
vt 0 0
vt 0.4375 2.220446049250313e-16
vt 0.4375 0.5
vt 0 0
vt 0.4375 0
vt 0.4375 0.1875
vt 0 0.1875
vt 0 0.5
vt 0.5 0.5
vt 0.5 1
vt 0 1
vn 1.2246467991473532e-16 0 1
vn -1.2246467991473532e-16 0 -1
vn -0.3596070703822455 0.9331038285909553 4.403916476943739e-17
vn -0.4383682106774051 0.8987954783305767 5.368462260540368e-17
vn -1.2246467991473532e-16 0 -1
vn 1.2246467991473532e-16 0 1
vn 1.2246467991473532e-16 0 1
vn 0 1 0
vn -1.2246467991473532e-16 0 -1
vn -1.2246467991473532e-16 0 -1
vn 1.2246467991473532e-16 0 1
vn -0.5299221528408676 0.8480462911471874 6.48967468273843e-17
vn 1.2246467991473532e-16 0 1
vn -1.2246467991473532e-16 0 -1
vn -0.6156598653248299 0.7880120114745793 7.539658834335434e-17
vn -0.6820004545258836 0.7313517484948594 8.352096736521635e-17
vn -1.2246467991473532e-16 0 -1
vn 1.2246467991473532e-16 0 1
vn -0.7660437875605963 0.6427883909497869 9.381330724427993e-17
vn -1.2246467991473532e-16 0 -1
vn 1.2246467991473532e-16 0 1
vn 1.2246467991473532e-16 0 1
vn -0.8480462911467366 0.5299221528405856 -0.000001031478642924512
vn -1.2246467991473532e-16 0 -1
vn -1.2246467991473532e-16 0 -1
vn 1.2246467991473532e-16 0 1
vn -0.8987937784748217 0.4383716959091054 -8.532782401268368e-7
vn 1.2246467991473532e-16 0 1
vn -1.2246467991473532e-16 0 -1
vn -0.9510568619309065 0.30901593061545646 1.164708741770811e-16
vn -0.9781478190066498 0.20791066392211413 1.1978855956394583e-16
vn 1.2246467991473532e-16 0 1
vn -1.2246467991473532e-16 0 -1
vn -0.9961949115469744 0.08715330290881682 1.2199869097528829e-16
vn 1.2246467991473532e-16 0 1
vn -1.2246467991473532e-16 0 -1
vn 1.2246467991473532e-16 0 1
vn -1 0 1.2246467991473532e-16
vn -1.2246467991473532e-16 0 -1
vn 0 -1 0
vn 0.9999844575668737 0.005575358704648755 -1.224627765156374e-16
vn 1 0 -1.2246467991473532e-16
usemtl m_mortar
f 2/1/1 1/2/1 5/3/1
f 4/4/2 3/5/2 6/6/2
f 3/7/3 2/8/3 5/9/3 6/10/3
f 9/11/4 8/12/4 2/13/4 3/14/4
f 10/15/5 9/16/5 3/17/5 4/18/5
f 8/19/6 7/20/6 1/21/6 2/22/6
f 5/23/7 1/24/7 11/25/7 12/26/7
f 6/27/8 5/28/8 12/29/8 13/30/8
f 4/31/9 6/32/9 13/33/9 14/34/9
f 15/35/10 16/36/10 9/37/10 10/38/10
f 17/39/11 18/40/11 7/41/11 8/42/11
f 16/43/12 17/44/12 8/45/12 9/46/12
f 19/47/13 20/48/13 18/49/13 17/50/13
f 21/51/14 22/52/14 16/53/14 15/54/14
f 22/55/15 19/56/15 17/57/15 16/58/15
f 25/59/16 24/60/16 19/61/16 22/62/16
f 26/63/17 25/64/17 22/65/17 21/66/17
f 24/67/18 23/68/18 20/69/18 19/70/18
f 29/71/19 28/72/19 24/73/19 25/74/19
f 30/75/20 29/76/20 25/77/20 26/78/20
f 28/79/21 27/80/21 23/81/21 24/82/21
f 31/83/22 32/84/22 27/85/22 28/86/22
f 34/87/23 31/88/23 28/89/23 29/90/23
f 33/91/24 34/92/24 29/93/24 30/94/24
f 35/95/25 36/96/25 34/97/25 33/98/25
f 37/99/26 38/100/26 32/101/26 31/102/26
f 36/103/27 37/104/27 31/105/27 34/106/27
f 40/107/28 39/108/28 38/109/28 37/110/28
f 42/111/29 41/112/29 36/113/29 35/114/29
f 41/115/30 40/116/30 37/117/30 36/118/30
f 43/119/31 44/120/31 40/121/31 41/122/31
f 44/123/32 45/124/32 39/125/32 40/126/32
f 46/127/33 43/128/33 41/129/33 42/130/33
f 47/131/34 48/132/34 44/133/34 43/134/34
f 48/135/35 49/136/35 45/137/35 44/138/35
f 50/139/36 47/140/36 43/141/36 46/142/36
f 51/143/37 52/144/37 49/145/37 48/146/37
f 53/147/38 51/148/38 48/149/38 47/150/38
f 54/151/39 53/152/39 47/153/39 50/154/39
f 52/155/40 51/156/40 53/157/40 54/158/40
f 52/159/41 54/160/41 50/161/41 49/162/41
f 11/163/42 14/164/42 13/165/42 12/166/42
o cube.006
v 0.16935599999999995 0.27696599999999977 -0.5333118854613734
v -0.29313100000000003 0.5439829999999998 -0.5333118854613734
v -0.21500600000000003 0.6792989999999998 -0.5333118854613734
v 0.24748099999999995 0.4124049999999999 -0.5333118854613734
v -0.21500599999999997 0.6792989999999998 0.0348214665674991
v 0.247481 0.4124049999999999 0.03482146656749904
v -0.293131 0.5439829999999998 0.034821466567499106
v 0.169356 0.27696599999999977 0.03482200000000011
v -0.38206099999999993 0.3514359999999998 0.03482146656749912
v 0.10580300000000004 0.13422500000000007 0.03482200000000012
v -0.31850799999999996 0.49417699999999976 0.03482146656749911
v -0.318508 0.49417699999999976 -0.5333118854613734
v 0.10580299999999997 0.13422500000000007 -0.5333118854613734
v -0.382061 0.3514349999999998 -0.5333118854613734
v 0.057519000000000056 -0.014378000000000002 0.034822000000000124
v -0.447405 0.14968200000000006 0.034822000000000186
v -0.44740500000000005 0.14968200000000006 -0.5333118854613734
v 0.05751899999999999 -0.014378000000000002 -0.5333118854613734
v -0.399121 0.29828399999999977 0.03482200000000018
v -0.39912100000000006 0.29828399999999977 -0.5333118854613734
v 0.02503299999999997 -0.16721399999999995 -0.5333118854613734
v -0.4942740000000001 -0.056832000000000014 -0.5333118854613733
v -0.46178699999999995 0.09600400000000006 -0.5333118854613733
v -0.4617869999999999 0.09600400000000006 0.034822000000000186
v -0.49427400000000005 -0.05683100000000001 0.03482200000000019
v 0.025033000000000038 -0.16721299999999995 0.03482200000000013
v -0.5161919999999999 -0.2674390000000002 0.03482200000000019
v 0.008700000000000105 -0.3226070000000002 0.03482200000000013
v -0.499859 -0.11204499999999995 0.03482200000000019
v -0.49985900000000005 -0.11204499999999995 -0.5333118854613733
v 0.008700000000000036 -0.32260800000000023 -0.5333118854613734
v -0.516192 -0.2674390000000002 -0.5333118854613733
v 0.008700000000000036 -0.47885800000000023 -0.5333113520288725
v -0.5159579999999999 -0.47885800000000023 -0.5333113520288724
v -0.5159579999999999 -0.32260800000000023 -0.5333118854613733
v 0.008700000000000105 -0.4788570000000002 0.03482200000000013
v -0.5159579999999998 -0.4788570000000002 0.03482200000000019
v -0.5159579999999998 -0.3226070000000002 0.03482200000000019
v 0.339322 0.538936 -0.5333118854613734
v -0.09271999999999993 0.852832 -0.5333118854613734
v -0.09271999999999986 0.852833 0.034821466567499085
v 0.33932200000000007 0.538936 0.03482146656749903
v -0.18456099999999998 0.726424 -0.5333118854613734
v -0.18456099999999992 0.726424 0.03482146656749909
v 0.443874 0.655052 -0.5336199427306867
v 0.04933200000000004 1.010299 -0.5333118854613734
v 0.04933200000000011 1.010299 0.034821466567499064
v 0.44387400000000005 0.655052 0.034821466567499015
v -0.05522000000000005 0.894183 -0.5333118854613734
v -0.05521999999999998 0.894183 0.03482146656749908
v 0.09071799999999995 1.047271 -0.533928
v 0.20683399999999996 1.151823 -0.533928
v 0.55999 0.759604 -0.5338663885461374
v 0.09071800000000002 1.047271 0.03482146656749906
v 0.20683400000000002 1.151823 0.03482146656749904
v 0.5599900000000001 0.759604 0.034821466567499
v 0.2516040000000001 1.184061 0.03482146656749904
v 0.6863990000000001 0.851445 0.03482146656749899
v 0.3780130000000001 1.275903 0.03482146656749902
v 0.25160400000000005 1.184061 -0.5338047770922747
v 0.37801300000000004 1.275903 -0.5338047770922747
v 0.686399 0.851445 -0.5338047770922748
v 0.42407 1.305813 0.03482146656749902
v 0.8217160000000001 0.92957 0.03482146656749897
v 0.559386 1.383938 0.034821466567499
v 0.42406999999999995 1.305812 -0.5338047770922747
v 0.5593859999999999 1.383937 -0.5338047770922748
v 0.821716 0.92957 -0.5338047770922748
v 0.6083180000000001 1.408869 0.034821466567498995
v 0.9999340000000001 0.9965459999999999 0.03321983548332007
v 0.7782160000000001 1.48869 0.034821466567498974
v 0.608318 1.408869 -0.5338047770922748
v 0.778216 1.48869 -0.5338047770922748
v 0.999934 0.9965459999999999 -0.5325725480150217
v 0.926276 1.547302 -0.5284085739124076
v 0.9262760000000001 1.547302 0.03454941599200134
v 0.8164930000000001 1.502833 0.030309161041747978
v 0.816493 1.502832 -0.532648828862661
v 1.002297 1.550424 -0.5313403189377687
v 1.002297 1.550424 0.031617670966640685
vt 1 0.375
vt 0.53125 0.375
vt 0.53125 0.53125
vt 1 0.53125
vt 0 0.3125
vt 0 0.8125
vt 0.4687500000000002 0.8125
vt 0.4687500000000002 0.3125
vt 0 0.84375
vt 0.4687500000000002 0.84375
vt 0.4687500000000002 1
vt 0 1
vt 0 0.84375
vt 0.46875 0.84375
vt 0.46875 1
vt 0 1
vt 0 0.09375
vt 0 0.59375
vt 0.4687500000000002 0.59375
vt 0.4687500000000002 0.09375
vt 0 0.8125
vt 0.4687500000000002 0.8125
vt 0.4687500000000002 0.96875
vt 0 0.96875
vt 0 0.6875
vt 0.46875 0.6875
vt 0.46875 0.84375
vt 0 0.84375
vt 0 0.3125
vt 0 0.8125
vt 0.4687500000000002 0.8125
vt 0.4687500000000002 0.3125
vt 1 0.53125
vt 0.53125 0.53125
vt 0.53125 0.6875
vt 1 0.6875
vt 0 0.6875
vt 0.4687500000000002 0.6875
vt 0.4687500000000002 0.84375
vt 0 0.84375
vt 0 0.09375
vt 0 0.59375
vt 0.4687500000000002 0.59375
vt 0.4687500000000002 0.09375
vt 0 0.625
vt 0.4687500000000002 0.625
vt 0.4687500000000002 0.78125
vt 0 0.78125
vt 0 0.09375
vt 0 0.59375
vt 0.4687500000000002 0.59375
vt 0.4687500000000002 0.09375
vt 0 0.53125
vt 0.46875 0.53125
vt 0.46875 0.6875
vt 0 0.6875
vt 0 0.53125
vt 0.4687500000000002 0.53125
vt 0.4687500000000002 0.6875
vt 0 0.6875
vt 1 0.6875
vt 0.53125 0.6875
vt 0.53125 0.84375
vt 1 0.84375
vt 0 0.3125
vt 0 0.8125
vt 0.4687500000000002 0.8125
vt 0.4687500000000002 0.3125
vt 0 0.46875
vt 0.4687500000000002 0.46875
vt 0.4687500000000002 0.625
vt 0 0.625
vt 1 0.84375
vt 0.53125 0.84375
vt 0.53125 1
vt 1 1
vt 0 0.3125
vt 0 0.8125
vt 0.4687500000000002 0.8125
vt 0.4687500000000002 0.3125
vt 0 0.375
vt 0.4687500000000002 0.375
vt 0.4687500000000002 0.53125
vt 0 0.53125
vt 0 0.09375
vt 0 0.59375
vt 0.4687500000000002 0.59375
vt 0.4687500000000002 0.09375
vt 0 0.375
vt 0.46875 0.375
vt 0.46875 0.53125
vt 0 0.53125
vt 0 0.3125
vt 0.4687500000000002 0.3125
vt 0.4687500000000002 0.46875
vt 0 0.46875
vt 0 0.21875
vt 0.46875 0.21875
vt 0.46875 0.375
vt 0 0.375
vt 0 0.3125
vt 0 0.8125
vt 0.4687500000000002 0.8125
vt 0.4687500000000002 0.3125
vt 0.46875 0.0625
vt 0 0.0625
vt 0 0.21875
vt 0.46875 0.21875
vt 0 0.21875
vt 0.4687500000000002 0.21875
vt 0.4687500000000002 0.375
vt 0 0.375
vt 0 0.09375
vt 0 0.59375
vt 0.4687500000000002 0.59375
vt 0.4687500000000002 0.09375
vt 0 0.15625
vt 0.4687500000000002 0.15625
vt 0.4687500000000002 0.3125
vt 0 0.3125
vt 0.46875 0.21875
vt 0 0.21875
vt 0 0.375
vt 0.46875 0.375
vt 0 0.53125
vt 0 0.03125
vt 0.4687500000000002 0.03125
vt 0.4687500000000002 0.53125
vt 0 0.0625
vt 0.4687500000000002 0.0625
vt 0.4687500000000002 0.21875
vt 0 0.21875
vt 0 0.0625
vt 0.46875 0.0625
vt 0.46875 0.21875
vt 0 0.21875
vt 0 0
vt 0.4687500000000002 0
vt 0.4687500000000002 0.15625
vt 0 0.15625
vt 0 0.3125
vt 0 0.8125
vt 0.4687500000000002 0.8125
vt 0.4687500000000002 0.3125
vt 0 0.3125
vt 0 0.8125
vt 0.4687500000000002 0.8125
vt 0.4687500000000002 0.3125
vt 1 0.21875
vt 0.53125 0.21875
vt 0.53125 0.375
vt 1 0.375
vt 0 0.09375
vt 0 0.59375
vt 0.4687500000000002 0.59375
vt 0.4687500000000002 0.09375
vt 0 0.0625
vt 0.4687500000000002 0.0625
vt 0.4687500000000002 0.21875
vt 0 0.21875
vt 0.53125 0.0625
vt 1 0.0625
vt 1 0.21875
vt 0.53125 0.21875
vt 0 0
vt 0.4687500000000002 0
vt 0.4687500000000002 0.15625
vt 0 0.15625
vt 0 0.3125
vt 0 0.8125
vt 0.4687500000000002 0.8125
vt 0.4687500000000002 0.3125
vt 0 0.21875
vt 0.4687500000000002 0.21875
vt 0.4687500000000002 0.375
vt 0 0.375
vt 0 0.09375
vt 0 0.59375
vt 0.4687500000000002 0.59375
vt 0.4687500000000002 0.09375
vt 1 0.0625
vt 0.53125 0.0625
vt 0.53125 0.21875
vt 1 0.21875
vt 0.53125 0.21875
vt 1 0.21875
vt 1 0.375
vt 0.53125 0.375
vt 0 0.15625
vt 0.4687500000000002 0.15625
vt 0.4687500000000002 0.3125
vt 0 0.3125
vt 0.46875 0.84375
vt 0 0.84375
vt 0 1
vt 0.46875 1
vt 0 0.09375
vt 0 0.59375
vt 0.4687500000000002 0.59375
vt 0.4687500000000002 0.09375
vt 0 0.375
vt 0.4687500000000002 0.375
vt 0.4687500000000002 0.53125
vt 0 0.53125
vt 0.53125 0.375
vt 1 0.375
vt 1 0.53125
vt 0.53125 0.53125
vt 0 0.3125
vt 0 0.8125
vt 0.4687500000000002 0.8125
vt 0.4687500000000002 0.3125
vt 0 0.3125
vt 0.4687500000000002 0.3125
vt 0.4687500000000002 0.46875
vt 0 0.46875
vt 0.53125 0.53125
vt 1 0.53125
vt 1 0.6875
vt 0.53125 0.6875
vt 0.46875 0.6875
vt 0 0.6875
vt 0 0.84375
vt 0.46875 0.84375
vt 0 0.3125
vt 0 0.8125
vt 0.4687500000000002 0.8125
vt 0.4687500000000002 0.3125
vt 0 0.53125
vt 0.4687500000000002 0.53125
vt 0.4687500000000002 0.6875
vt 0 0.6875
vt 0 0.09375
vt 0 0.59375
vt 0.4687500000000002 0.59375
vt 0.4687500000000002 0.09375
vt 0 0.46875
vt 0.4687500000000002 0.46875
vt 0.4687500000000002 0.625
vt 0 0.625
vt 0.53125 0.6875
vt 1 0.6875
vt 1 0.84375
vt 0.53125 0.84375
vt 0.46875 0.53125
vt 0 0.53125
vt 0 0.6875
vt 0.46875 0.6875
vt 0 0.3125
vt 0 0.8125
vt 0.4687500000000002 0.8125
vt 0.4687500000000002 0.3125
vt 0 0.6875
vt 0.4687500000000002 0.6875
vt 0.4687500000000002 0.84375
vt 0 0.84375
vt 0 0.09375
vt 0 0.59375
vt 0.4687500000000002 0.59375
vt 0.4687500000000002 0.09375
vt 0 0.6875
vt 0.4687500000000002 0.6875
vt 0.4687500000000002 0.84375
vt 0 0.84375
vt 0.53125 1
vt 1 1
vt 1 0.84375
vt 0.53125 0.84375
vt 0 0.09375
vt 0 0.59375
vt 0.4687500000000002 0.59375
vt 0.4687500000000002 0.09375
vt 0.46875 0.375
vt 0 0.375
vt 0 0.53125
vt 0.46875 0.53125
vt 0 1
vt 0.4687500000000002 1
vt 0.4687500000000002 0.84375
vt 0 0.84375
vt 0 0.3125
vt 0 0.8125
vt 0.4687500000000002 0.8125
vt 0.4687500000000002 0.3125
vt 0 0.0625
vt 0.4687500000000002 0.0625
vt 0.4687500000000002 0.25
vt 0 0.25
vt 0 0.09375
vt 0 0.59375
vt 0.4687500000000002 0.59375
vt 0.4687500000000002 0.09375
vt 0 0.3046875
vt 0 0.375
vt 0.46875 0.375
vt 0.03125 0.21875
vt 0.46875 0.0625
vt 0 0.0625
vt 0 0.125
vt 0.03125 0.21875
vt 0 0.17500000000000004
vt 0.4687500000000002 0.17500000000000004
vt 0.4687500000000002 0.0625
vt 0 0.0625
vt 1.1102230246251565e-16 0.5
vt 0.46875000000000056 0.5
vt 0.46875000000000056 1
vt 1.1102230246251565e-16 1
vt 0.4687500000000002 0.17500000000000004
vt 0 0.17500000000000004
vt 0 0.25
vt 0.4687500000000002 0.25
vn -1.2246467991473532e-16 0 -1
vn 0.4998272368489767 0.8661251256625206 -6.121118257337652e-17
vn -0.8660246528353989 0.5000013006796353 1.0605743190775689e-16
vn 8.405798659243087e-7 0.000003453674340777843 0.9999999999936828
vn -0.5000000085012813 -0.8660253988762215 6.123234099847436e-17
vn 0.8662212532886671 -0.49966062517573995 -1.0608150851933748e-16
vn -9.125157082027967e-7 4.0628208301185703e-7 0.9999999999995012
vn 0.4067365691114571 0.9135454905736445 -4.981086374585222e-17
vn -1.2246467991473532e-16 0 -1
vn -0.9135440017112908 0.40673991313468205 -7.159233155918413e-7
vn -0.40673656911239825 -0.9135454905718106 0.000001607977224616393
vn 0.9135440017115247 -0.4067399131347869 -1.1187687375762829e-16
vn -0.30901741569851116 -0.9510563793987261 3.784371890159687e-17
vn 1.2246467991473532e-16 0 1
vn -0.9510559834286095 0.3090186343647264 1.1647076659157848e-16
vn -1.2246467991473532e-16 0 -1
vn 0.30901571199838956 0.9510569329635994 -3.7843510258506815e-17
vn 0.9510565945771804 -0.30901675344753843 -1.164708414356926e-16
vn -1.2246467991473532e-16 0 -1
vn 0.20791187497068042 0.9781475615908759 -2.5461861218756846e-17
vn -0.9781464060189395 0.2079173114295641 -3.659653414139687e-7
vn -0.20791149191291095 -0.9781476430108 0.0000017216850958106607
vn 1.2246467991473532e-16 0 1
vn 0.978147984247209 -0.20790988652055048 3.659522724715878e-7
vn 1.2246467991473532e-16 0 1
vn 0.10452963966718111 0.9945217717229972 -1.2801188863443954e-17
vn -1.2246467991473532e-16 0 -1
vn -0.9945216076379261 0.10453120080279904 1.217937703476666e-16
vn -0.10452776565219146 -0.9945219686903657 1.2800959362798092e-17
vn 0.9945216076379092 -0.10453120080279722 1.8399043502170195e-7
vn -1.2246467991402165e-16 -0.0000034139680060519596 -0.9999999999941724
vn 2.155562236941927e-22 -0.9999999999984511 0.000001760150141610392
vn -1 0 1.2246467991473532e-16
vn 1.2246467991473532e-16 0 1
vn 1 0 -1.2246467991473532e-16
vn -2.155560213040547e-22 0.9999999999984511 -0.0000017601484889694987
vn 0.5877841653291233 0.8090177840976788 -0.0000014239927672170566
vn -1.2246467991473532e-16 0 -1
vn -0.587934883341456 -0.8089082599097803 7.200125729911866e-17
vn -0.8090185599579162 0.587783097446345 9.907619899032631e-17
vn 1.2246467991473532e-16 0 1
vn 0.8092880626500787 -0.5874119777907856 -9.910920355125815e-17
vn 0.6691303853678753 0.7431450244585096 -8.194483846530034e-17
vn -0.7431426486876757 0.6691330239208538 9.10087266025248e-17
vn -0.6691303853678751 -0.7431450244585097 8.194483846530032e-17
vn -1.2246467991473532e-16 0 -1
vn 1.2246467991473532e-16 0 1
vn 0.7431426486876758 -0.6691330239208538 -9.100872660252481e-17
vn 0.0003905606160813049 -0.00043375867029718247 -0.9999998296578961
vn -0.7431444239722417 -0.6691310522752364 9.100894401218095e-17
vn -0.6691330239208538 0.7431426486876758 8.194516159484629e-17
vn 1.2246467991473532e-16 0 1
vn 0.7431444239722417 0.6691310522752364 -9.100894401218095e-17
vn 0.6691330239208538 -0.7431426486876758 -8.194516159484629e-17
vn 1.2246467991473532e-16 0 1
vn -0.00006902487306983623 0.00009500408505770182 -0.9999999931048954
vn 0.8090177089033552 0.5877842688272339 -9.907609476620192e-17
vn -0.5877872862982728 0.8090155165793251 7.198318187446887e-17
vn -0.8090170503966121 -0.5877851751852591 9.907601412238439e-17
vn 0.587783097446345 -0.8090185599579162 -7.198266888805833e-17
vn 1.2246467991473532e-16 0 1
vn -1.2246467991473532e-16 0 -1
vn 0.8660245039831029 0.5000015584976186 -8.793149526264083e-7
vn -0.5000013006790555 0.8660246528343946 -0.0000015230121057277475
vn -0.8660258058076609 -0.49999930367393386 8.793109872195213e-7
vn 0.4999985293991281 -0.8660262528345833 -6.12321598607026e-17
vn 0.007698481288881465 0.0034275901057266986 0.9999644918755425
vn -0.9135452194260071 -0.40673717811860877 1.1187702288464259e-16
vn -1.2246467991473532e-16 0 -1
vn -0.4252256087459264 0.905087388966754 5.2075118066618356e-17
vn 0.9117458830961638 0.4107547256662992 -1.116566677369494e-16
vn 0.35178760736430725 -0.9360798466503252 -4.3081556733840477e-17
vn -0.9401884363504245 -0.3406548167171245 6.051158753313187e-7
vn -0.038634099451124886 0.0023878868387805174 -0.999250571356377
vn 0.038424340098386064 0.00272655469724197 0.9992577925577997
vn -0.37543955597682765 0.9268468804543297 4.597808505003255e-17
vn 0.999990899541187 -0.0042662436414080875 -1.224635654299597e-16
vn -0.0410330122521813 0.9991577912950049 5.025094711400795e-18
usemtl m_keystones
f 55/167/43 56/168/43 57/169/43 58/170/43
usemtl m_arch
f 58/171/44 57/172/44 59/173/44 60/174/44
usemtl m_keystones
f 56/175/45 61/176/45 59/177/45 57/178/45
f 61/179/46 62/180/46 60/181/46 59/182/46
usemtl m_arch
f 62/183/47 61/184/47 56/185/47 55/186/47
f 62/187/48 55/188/48 58/189/48 60/190/48
usemtl m_keystones
f 63/191/49 64/192/49 62/193/49 65/194/49
usemtl m_arch
f 55/195/50 66/196/50 65/197/50 62/198/50
usemtl m_keystones
f 67/199/51 68/200/51 66/201/51 55/202/51
f 68/203/52 63/204/52 65/205/52 66/206/52
usemtl m_arch
f 64/207/53 63/208/53 68/209/53 67/210/53
f 64/211/54 67/212/54 55/213/54 62/214/54
f 69/215/55 70/216/55 71/217/55 72/218/55
usemtl m_keystones
f 70/219/56 69/220/56 64/221/56 73/222/56
f 71/223/57 70/224/57 73/225/57 74/226/57
f 72/227/58 71/228/58 74/229/58 67/230/58
usemtl m_arch
f 67/231/59 74/232/59 73/233/59 64/234/59
f 69/235/60 72/236/60 67/237/60 64/238/60
usemtl m_keystones
f 75/239/61 76/240/61 77/241/61 72/242/61
usemtl m_arch
f 72/243/62 77/244/62 78/245/62 69/246/62
usemtl m_keystones
f 76/247/63 79/248/63 78/249/63 77/250/63
usemtl m_arch
f 80/251/64 79/252/64 76/253/64 75/254/64
usemtl m_keystones
f 79/255/65 80/256/65 69/257/65 78/258/65
usemtl m_arch
f 80/259/66 75/260/66 72/261/66 69/262/66
usemtl m_keystones
f 81/263/67 82/264/67 80/265/67 83/266/67
usemtl m_arch
f 75/267/68 84/268/68 83/269/68 80/270/68
usemtl m_keystones
f 85/271/69 86/272/69 84/273/69 75/274/69
f 86/275/70 81/276/70 83/277/70 84/278/70
usemtl m_arch
f 82/279/71 81/280/71 86/281/71 85/282/71
f 82/283/72 85/284/72 75/285/72 80/286/72
usemtl m_keystones
f 87/287/73 88/288/73 89/289/73 85/290/73
usemtl m_arch
f 90/291/74 91/292/74 88/293/74 87/294/74
usemtl m_keystones
f 88/295/75 91/296/75 92/297/75 89/298/75
f 91/299/76 90/300/76 82/301/76 92/302/76
usemtl m_arch
f 90/303/77 87/304/77 85/305/77 82/306/77
f 85/307/78 89/308/78 92/309/78 82/310/78
f 93/311/79 94/312/79 95/313/79 96/314/79
usemtl m_keystones
f 58/315/80 97/316/80 94/317/80 93/318/80
usemtl m_arch
f 60/319/81 98/320/81 97/321/81 58/322/81
usemtl m_keystones
f 97/323/82 98/324/82 95/325/82 94/326/82
f 98/327/83 60/328/83 96/329/83 95/330/83
usemtl m_arch
f 60/331/84 58/332/84 93/333/84 96/334/84
f 99/335/85 100/336/85 101/337/85 102/338/85
usemtl m_keystones
f 103/339/86 104/340/86 101/341/86 100/342/86
usemtl m_arch
f 96/343/87 104/344/87 103/345/87 93/346/87
usemtl m_keystones
f 93/347/88 103/348/88 100/349/88 99/350/88
f 104/351/89 96/352/89 102/353/89 101/354/89
usemtl m_arch
f 96/355/90 93/356/90 99/357/90 102/358/90
usemtl m_keystones
f 99/359/91 105/360/91 106/361/91 107/362/91
usemtl m_arch
f 102/363/92 108/364/92 105/365/92 99/366/92
usemtl m_keystones
f 105/367/93 108/368/93 109/369/93 106/370/93
f 108/371/94 102/372/94 110/373/94 109/374/94
usemtl m_arch
f 107/375/95 106/376/95 109/377/95 110/378/95
f 102/379/96 99/380/96 107/381/96 110/382/96
usemtl m_keystones
f 111/383/97 110/384/97 112/385/97 113/386/97
f 107/387/98 114/388/98 115/389/98 116/390/98
usemtl m_arch
f 116/391/99 115/392/99 113/393/99 112/394/99
usemtl m_keystones
f 114/395/100 111/396/100 113/397/100 115/398/100
usemtl m_arch
f 110/399/101 111/400/101 114/401/101 107/402/101
f 110/403/102 107/404/102 116/405/102 112/406/102
usemtl m_keystones
f 117/407/103 112/408/103 118/409/103 119/410/103
f 116/411/104 120/412/104 121/413/104 122/414/104
usemtl m_arch
f 122/415/105 121/416/105 119/417/105 118/418/105
usemtl m_keystones
f 120/419/106 117/420/106 119/421/106 121/422/106
usemtl m_arch
f 112/423/107 117/424/107 120/425/107 116/426/107
f 112/427/108 116/428/108 122/429/108 118/430/108
usemtl m_keystones
f 123/431/109 118/432/109 124/433/109 125/434/109
usemtl m_arch
f 118/435/110 123/436/110 126/437/110 122/438/110
usemtl m_keystones
f 122/439/111 126/440/111 127/441/111 128/442/111
f 126/443/112 123/444/112 125/445/112 127/446/112
usemtl m_arch
f 128/447/113 127/448/113 125/449/113 124/450/113
f 118/451/114 122/452/114 128/453/114 124/454/114
f 124/455/115 131/456/115 132/457/115 128/458/115
usemtl m_keystones
f 129/459/116 133/460/116 128/461/116 132/462/116
f 124/463/117 134/464/117 130/465/117 131/466/117
f 130/467/118 129/468/118 132/469/118 131/470/118
usemtl m_arch
f 133/471/119 134/472/119 124/473/119 128/474/119
usemtl m_keystones
f 129/475/120 130/476/120 134/477/120 133/478/120