# Blender v3.2.2 OBJ File: ''
# www.blender.org
mtllib brick_arch.mtl
o mortar_2
v 0.170770 0.500000 0.007813
v 0.503747 0.424000 0.007813
v 0.503747 0.424000 -0.014062
v 0.170770 0.500000 -0.014062
v 0.113753 -0.006035 0.007812
v 0.335556 -0.056660 0.007812
v 0.335556 -0.056660 -0.014063
v 0.113753 -0.006035 -0.014063
v 0.811463 0.275812 0.007813
v 0.811463 0.275812 -0.014062
v 0.540533 -0.155371 0.007812
v 0.540533 -0.155371 -0.014063
v 1.078490 0.062865 0.007813
v 1.078490 0.062865 -0.014062
v 0.718405 -0.297220 0.007812
v 0.718405 -0.297220 -0.014063
v 1.291437 -0.204162 0.007812
v 1.291437 -0.204162 -0.014063
v 0.860254 -0.475092 0.007812
v 0.860254 -0.475092 -0.014063
v 1.439625 -0.511878 0.007812
v 1.439625 -0.511878 -0.014063
v 0.958965 -0.680069 0.007812
v 0.958965 -0.680069 -0.014063
v 1.515625 -0.844855 0.007812
v 1.515625 -0.844855 -0.014063
v 1.009590 -0.901872 0.007812
v 1.009590 -0.901872 -0.014063
v 1.515625 -1.125000 0.007812
v 1.515625 -1.125000 -0.014063
v 1.009590 -1.125000 -0.014063
v 1.009590 -1.125000 0.007812
v 0.000000 0.500000 0.007813
v 0.000000 0.500000 -0.014062
v 0.000000 -0.006035 0.007812
v 0.000000 -0.006035 -0.014063
vt 0.000000 0.437500
vt 0.000000 0.156250
vt 0.031250 0.156250
vt 0.031250 0.437500
vt 1.000000 0.281250
vt 1.000000 0.046875
vt 0.500000 0.000000
vt 0.500000 0.328125
vt 0.000000 0.328125
vt 0.000000 0.000000
vt 0.500000 0.046875
vt 0.500000 0.281250
vt 0.000000 0.718750
vt 0.000000 0.437500
vt 0.031250 0.437500
vt 0.031250 0.718750
vt 0.500000 0.953125
vt 0.500000 0.718750
vt 0.000000 0.671875
vt 0.000000 1.000000
vt 0.500000 1.000000
vt 0.500000 0.671875
vt 1.000000 0.718750
vt 1.000000 0.953125
vt 0.000000 1.000000
vt 0.000000 0.718750
vt 0.031250 0.718750
vt 0.031250 1.000000
vt 0.500000 0.625000
vt 0.500000 0.390625
vt 0.000000 0.343750
vt 0.500000 0.343750
vt 1.000000 0.390625
vt 1.000000 0.625000
vt 0.000000 0.281250
vt 0.000000 0.000000
vt 0.031250 0.000000
vt 0.031250 0.281250
vt 0.500000 0.281250
vt 0.500000 0.046875
vt 0.000000 0.328125
vt 0.500000 0.328125
vt 0.500000 0.000000
vt 1.000000 0.046875
vt 1.000000 0.281250
vt 0.000000 0.843750
vt 0.000000 0.562500
vt 0.031250 0.562500
vt 0.031250 0.843750
vt 1.000000 0.953125
vt 1.000000 0.718750
vt 0.500000 0.671875
vt 0.500000 1.000000
vt 0.000000 1.000000
vt 0.000000 0.671875
vt 0.500000 0.718750
vt 0.500000 0.953125
vt 0.000000 0.281250
vt 0.031250 0.281250
vt 1.000000 0.625000
vt 1.000000 0.390625
vt 0.500000 0.343750
vt 0.000000 0.343750
vt 0.500000 0.390625
vt 0.500000 0.625000
vt 0.000000 0.000000
vt 0.031250 0.000000
vt 0.031250 0.000000
vt 0.031250 0.218750
vt 0.000000 0.218750
vt 0.000000 0.000000
vt 1.000000 0.265625
vt 1.000000 0.031250
vt 0.500000 0.031250
vt 0.500000 0.312500
vt 0.000000 0.312500
vt 0.000000 0.031250
vt 0.500000 0.031250
vt 0.500000 0.265625
vt 0.000000 1.000000
vt 0.000000 0.843750
vt 0.031250 0.843750
vt 0.031250 1.000000
vt 0.500000 0.000000
vt 0.500000 0.093750
vt 0.000000 0.140625
vt 0.000000 0.000000
vt 0.500000 0.000000
vt 0.500000 0.140625
vt 1.000000 0.093750
vt 1.000000 0.000000
vt 0.000000 1.000000
vt 0.000000 0.500000
vt 0.031250 0.500000
vt 0.031250 1.000000
vt 0.000000 0.500000
vt 0.000000 0.000000
vt 0.031250 0.000000
vt 0.031250 0.500000
vn 0.2225 0.9749 0.0000
vn 0.0000 -0.0000 1.0000
vn 0.0000 0.0000 -1.0000
vn 0.4339 0.9010 0.0000
vn 0.6235 0.7818 0.0000
vn 0.7818 0.6235 0.0000
vn 0.9010 0.4339 0.0000
vn 0.9749 0.2225 0.0000
vn 1.0000 0.0000 0.0000
vn -1.0000 0.0000 0.0000
vn 0.0000 1.0000 0.0000
vn 0.0000 -1.0000 0.0000
usemtl m_mortar
s 1
f 1/1/1 2/2/1 3/3/1 4/4/1
f 5/5/2 6/6/2 2/7/2 1/8/2
f 4/9/3 3/10/3 7/11/3 8/12/3
f 2/13/4 9/14/4 10/15/4 3/16/4
f 6/17/2 11/18/2 9/19/2 2/20/2
f 3/21/3 10/22/3 12/23/3 7/24/3
f 9/25/5 13/26/5 14/27/5 10/28/5
f 11/29/2 15/30/2 13/31/2 9/19/2
f 10/22/3 14/32/3 16/33/3 12/34/3
f 13/35/6 17/36/6 18/37/6 14/38/6
f 15/39/2 19/40/2 17/36/2 13/41/2
f 14/42/3 18/43/3 20/44/3 16/45/3
f 17/46/7 21/47/7 22/48/7 18/49/7
f 19/50/2 23/51/2 21/52/2 17/53/2
f 18/54/3 22/55/3 24/56/3 20/57/3
f 21/47/8 25/58/8 26/59/8 22/48/8
f 23/60/2 27/61/2 25/62/2 21/52/2
f 22/55/3 26/63/3 28/64/3 24/65/3
f 25/58/9 29/66/9 30/67/9 26/59/9
f 28/68/10 31/69/10 32/70/10 27/71/10
f 27/72/2 32/73/2 29/74/2 25/75/2
f 26/76/3 30/77/3 31/78/3 28/79/3
f 33/80/11 1/81/11 4/82/11 34/83/11
f 35/84/2 5/85/2 1/86/2 33/87/2
f 34/88/3 4/89/3 8/90/3 36/91/3
f 34/92/10 36/93/10 35/94/10 33/95/10
f 29/96/12 32/97/12 31/98/12 30/99/12
o bricks_2
v 1.484375 -1.093750 0.035937
v 1.484375 -1.093750 -0.035938
v 1.484375 -0.937500 -0.035938
v 1.484375 -0.937500 0.035937
v 0.984522 -0.939371 0.035937
v 0.984522 -0.939371 -0.035938
v 0.984375 -1.093750 -0.035938
v 0.984375 -1.093750 0.035937
v 1.478514 -0.863025 0.035937
v 1.478514 -0.863025 -0.035938
v 1.454071 -0.708699 -0.035938
v 1.454071 -0.708699 0.035937
v 0.960665 -0.788741 0.035937
v 0.960665 -0.788741 -0.035938
v 1.436631 -0.636058 0.035937
v 1.436631 -0.636058 -0.035938
v 1.388347 -0.487455 -0.035938
v 1.388347 -0.487455 0.035937
v 0.913537 -0.643698 0.035937
v 0.913537 -0.643698 -0.035938
v 1.359759 -0.418436 0.035937
v 1.359759 -0.418436 -0.035938
v 1.288823 -0.279217 -0.035938
v 1.288823 -0.279217 0.035937
v 0.844300 -0.507812 0.035937
v 0.844300 -0.507812 -0.035938
v 1.249789 -0.215520 0.035937
v 1.249789 -0.215520 -0.035938
v 1.157948 -0.089111 -0.035938
v 1.157948 -0.089111 0.035937
v 0.754658 -0.384431 0.035937
v 0.754658 -0.384431 -0.035938
v 1.109431 -0.032305 0.035937
v 1.109431 -0.032305 -0.035938
v 0.998945 0.078181 -0.035937
v 0.998945 0.078181 0.035938
v 0.646819 -0.276592 0.035937
v 0.646819 -0.276592 -0.035938
v -0.006250 -0.046875 0.035937
v 0.000000 -0.046875 -0.035938
v 0.091879 -0.046728 -0.035938
v 0.091879 -0.046728 0.035937
v 0.093750 0.453125 0.035938
v 0.093750 0.453125 -0.035937
v -0.006250 0.453125 -0.035937
v 0.000000 0.453125 0.035938
v 0.242509 -0.070585 -0.035938
v 0.242509 -0.070585 0.035937
v 0.322551 0.422821 0.035938
v 0.322551 0.422821 -0.035937
v 0.168225 0.447264 -0.035937
v 0.168225 0.447264 0.035938
v 0.387552 -0.117713 -0.035938
v 0.387552 -0.117713 0.035937
v 0.543795 0.357097 0.035938
v 0.543795 0.357097 -0.035937
v 0.395192 0.405381 -0.035937
v 0.395192 0.405381 0.035938
v 0.523438 -0.186950 -0.035938
v 0.523438 -0.186950 0.035937
v 0.752033 0.257573 0.035938
v 0.752033 0.257573 -0.035937
v 0.612814 0.328509 -0.035937
v 0.612814 0.328509 0.035938
v 0.942139 0.126698 0.035938
v 0.942139 0.126698 -0.035937
v 0.815730 0.218539 -0.035937
v 0.815730 0.218539 0.035938
vt 0.000000 0.062500
vt 0.062500 0.062500
vt 0.062500 0.218750
vt 0.000000 0.218750
vt 0.000000 0.218750
vt 0.000000 0.062500
vt 0.468750 0.062500
vt 0.468609 0.216881
vt 0.531250 0.220615
vt 0.531250 0.373132
vt 1.000000 0.375000
vt 0.999998 0.218750
vt 0.000000 0.218750
vt 0.062500 0.218750
vt 0.062500 0.375000
vt 0.000000 0.375000
vt 0.000000 0.375000
vt 0.000000 0.218750
vt 0.468750 0.218750
vt 0.468609 0.373131
vt 0.531250 0.064365
vt 0.531250 0.216882
vt 1.000000 0.218750
vt 0.999998 0.062500
vt 0.000000 0.375000
vt 0.062500 0.375000
vt 0.062500 0.531250
vt 0.000000 0.531250
vt 0.000000 0.531250
vt 0.000000 0.375000
vt 0.468750 0.375000
vt 0.468609 0.529381
vt 0.000000 0.845615
vt 0.000000 0.998132
vt 0.468750 1.000000
vt 0.468748 0.843750
vt 0.000000 0.531250
vt 0.062500 0.531250
vt 0.062500 0.687500
vt 0.000000 0.687500
vt 0.000000 0.687500
vt 0.000000 0.531250
vt 0.468750 0.531250
vt 0.468609 0.685631
vt 0.000000 0.689365
vt 0.000000 0.841882
vt 0.468750 0.843750
vt 0.468748 0.687500
vt 0.000000 0.687500
vt 0.062500 0.687500
vt 0.062500 0.843750
vt 0.000000 0.843750
vt 0.000000 0.843750
vt 0.000000 0.687500
vt 0.468750 0.687500
vt 0.468609 0.841881
vt 0.000000 0.533115
vt 0.000000 0.685632
vt 0.468750 0.687500
vt 0.468748 0.531250
vt 0.000000 0.843750
vt 0.062500 0.843750
vt 0.062500 1.000000
vt 0.000000 1.000000
vt 0.000000 1.000000
vt 0.000000 0.843750
vt 0.468750 0.843750
vt 0.468609 0.998131
vt 0.000000 0.376865
vt 0.000000 0.529382
vt 0.468750 0.531250
vt 0.468748 0.375000
vt 0.000000 0.000000
vt 0.062500 0.000000
vt 0.062500 0.093750
vt 0.000000 0.093750
vt 1.000000 0.093750
vt 1.000000 0.000000
vt 0.531250 0.000000
vt 0.531402 0.093750
vt 0.468750 0.000000
vt 0.468750 0.091300
vt 0.000000 0.093750
vt 0.000000 0.000000
vt 0.000000 0.531250
vt 0.062500 0.531250
vt 0.062500 0.687500
vt 0.000000 0.687500
vt 1.000000 0.687500
vt 1.000000 0.531250
vt 0.531250 0.531250
vt 0.531391 0.685631
vt 1.000000 0.841885
vt 1.000000 0.689368
vt 0.531250 0.687500
vt 0.531252 0.843750
vt 0.000000 0.375000
vt 0.062500 0.375000
vt 0.062500 0.531250
vt 0.000000 0.531250
vt 1.000000 0.531250
vt 1.000000 0.375000
vt 0.531250 0.375000
vt 0.531391 0.529381
vt 1.000000 0.998135
vt 1.000000 0.845618
vt 0.531250 0.843750
vt 0.531252 1.000000
vt 0.000000 0.218750
vt 0.062500 0.218750
vt 0.062500 0.375000
vt 0.000000 0.375000
vt 1.000000 0.375000
vt 1.000000 0.218750
vt 0.531250 0.218750
vt 0.531391 0.373131
vt 0.468750 0.216885
vt 0.468750 0.064368
vt 0.000000 0.062500
vt 0.000002 0.218750
vt 0.000000 0.062500
vt 0.062500 0.062500
vt 0.062500 0.218750
vt 0.000000 0.218750
vt 1.000000 0.218750
vt 1.000000 0.062500
vt 0.531250 0.062500
vt 0.531391 0.216881
vt 0.468750 0.373135
vt 0.468750 0.220618
vt 0.000000 0.218750
vt 0.000002 0.375000
vt 0.000000 0.156250
vt 0.062500 0.156250
vt 0.062500 0.000000
vt 0.000000 0.000000
vt 0.000000 0.500000
vt 0.062500 0.500000
vt 0.062500 1.000000
vt 0.000000 1.000000
vt 0.000000 0.500000
vt 0.062500 0.500000
vt 0.062500 0.000000
vt 0.000000 0.000000
vt 0.000000 0.312500
vt 0.062500 0.312500
vt 0.000000 0.000000
vt 0.062500 0.000000
vt 0.062500 0.500000
vt 0.000000 0.500000
vt 0.000000 0.000000
vt 0.062500 0.000000
vt 0.062500 0.500000
vt 0.000000 0.500000
vt 0.000000 0.468750
vt 0.062500 0.468750
vt 0.000000 0.500000
vt 0.062500 0.500000
vt 0.062500 1.000000
vt 0.000000 1.000000
vt 0.062500 1.000000
vt 0.000000 1.000000
vt 0.000000 0.625000
vt 0.062500 0.625000
vt 0.000000 0.000000
vt 0.062500 0.000000
vt 0.062500 0.500000
vt 0.000000 0.500000
vt 0.000000 0.000000
vt 0.062500 0.000000
vt 0.062500 0.500000
vt 0.000000 0.500000
vt 0.000000 0.781250
vt 0.062500 0.781250
vt 0.000000 0.500000
vt 0.062500 0.500000
vt 0.062500 1.000000
vt 0.000000 1.000000
vt 0.062500 1.000000
vt 0.000000 1.000000
vt 0.000000 0.937500
vt 0.062500 0.937500
vt 0.000000 0.000000
vt 0.062500 0.000000
vt 0.062500 0.500000
vt 0.000000 0.500000
vt 0.000000 0.000000
vt 0.062500 0.000000
vt 0.062500 0.500000
vt 0.000000 0.500000
vt 0.000000 0.906250
vt 0.062500 0.906250
vt 0.062500 0.812500
vt 0.000000 0.812500
vt 0.000000 0.500000
vt 0.062500 0.500000
vt 0.062500 1.000000
vt 0.000000 1.000000
vt 0.000000 0.500000
vt 0.062500 0.500000
vt 0.062500 1.000000
vt 0.000000 1.000000
vt 0.000000 0.750000
vt 0.062500 0.750000
vt 0.062500 0.593750
vt 0.000000 0.593750
vt 0.000000 0.000000
vt 0.062500 0.000000
vt 0.062500 0.500000
vt 0.000000 0.500000
vt 0.000000 0.000000
vt 0.062500 0.000000
vt 0.000000 0.562500
vt 0.062500 0.562500
vt 0.062500 0.406250
vt 0.000000 0.406250
vt 0.000000 0.500000
vt 0.062500 0.500000
vt 0.062500 1.000000
vt 0.000000 1.000000
vt 0.000000 0.500000
vt 0.062500 0.500000
vt 0.062500 1.000000
vt 0.000000 1.000000
vt 0.000000 0.375000
vt 0.062500 0.375000
vt 0.062500 0.218750
vt 0.000000 0.218750
vt 0.000000 0.000000
vt 0.062500 0.000000
vt 0.062500 0.500000
vt 0.000000 0.500000
vt 0.000000 0.000000
vt 0.062500 0.000000
vt 0.000000 0.156250
vt 0.062500 0.156250
vt 0.062500 0.000000
vt 0.000000 0.000000
vt 0.062500 1.000000
vt 0.000000 1.000000
vt 0.000000 0.500000
vt 0.062500 0.500000
vt 0.062500 1.000000
vt 0.000000 1.000000
vn 1.0000 0.0000 0.0000
vn 0.0000 0.0000 -1.0000
vn 0.0000 -0.0000 1.0000
vn 0.9877 0.1564 0.0000
vn 0.9511 0.3090 0.0000
vn 0.8910 0.4540 0.0000
vn 0.8090 0.5878 0.0000
vn 0.7071 0.7071 0.0000
vn 0.0000 1.0000 0.0000
vn 0.1564 0.9877 0.0000
vn 0.3090 0.9511 0.0000
vn 0.4540 0.8910 0.0000
vn 0.5878 0.8090 0.0000
vn -1.0000 0.0010 0.0000
vn -0.0037 1.0000 0.0000
vn 0.0000 -1.0000 0.0000
vn -0.9877 -0.1564 0.0000
vn -0.1601 0.9871 0.0000
vn 0.1527 -0.9883 0.0000
vn -0.9511 -0.3090 0.0000
vn -0.3126 0.9499 0.0000
vn 0.3055 -0.9522 0.0000
vn -0.8910 -0.4540 0.0000
vn -0.4573 0.8893 0.0000
vn 0.4507 -0.8927 0.0000
vn -0.8090 -0.5878 0.0000
vn -0.5908 0.8068 0.0000
vn 0.5848 -0.8112 0.0000
vn -0.7071 -0.7071 0.0000
vn -0.7097 0.7045 0.0000
vn 0.7045 -0.7097 -0.0000
vn 0.0016 -1.0000 0.0001
vn 1.0000 -0.0037 -0.0000
vn -0.9962 -0.0124 0.0866
vn -0.9962 -0.0125 0.0866
vn -0.1564 -0.9877 -0.0000
vn 0.9871 -0.1601 -0.0000
vn -0.9883 0.1527 0.0000
vn -0.3090 -0.9511 -0.0000
vn 0.9499 -0.3126 -0.0000
vn -0.9522 0.3055 0.0000
vn -0.4540 -0.8910 -0.0000
vn 0.8893 -0.4573 0.0000
vn -0.8927 0.4507 0.0000
vn -0.5878 -0.8090 0.0000
vn 0.8068 -0.5908 0.0000
vn -0.8112 0.5848 0.0000
usemtl m_keystones
s 1
f 37/100/13 38/101/13 39/102/13 40/103/13
f 39/104/14 38/105/14 43/106/14 42/107/14
f 37/108/15 40/109/15 41/110/15 44/111/15
f 45/112/16 46/113/16 47/114/16 48/115/16
f 47/116/14 46/117/14 42/118/14 50/119/14
f 45/120/15 48/121/15 49/122/15 41/123/15
f 51/124/17 52/125/17 53/126/17 54/127/17
f 53/128/14 52/129/14 50/130/14 56/131/14
f 51/132/15 54/133/15 55/134/15 49/135/15
f 57/136/18 58/137/18 59/138/18 60/139/18
f 59/140/14 58/141/14 56/142/14 62/143/14
f 57/144/15 60/145/15 61/146/15 55/147/15
f 63/148/19 64/149/19 65/150/19 66/151/19
f 65/152/14 64/153/14 62/154/14 68/155/14
f 63/156/15 66/157/15 67/158/15 61/159/15
f 69/160/20 70/161/20 71/162/20 72/163/20
f 71/164/14 70/165/14 68/166/14 74/167/14
f 69/168/15 72/169/15 73/170/15 67/171/15
f 79/172/21 80/173/21 81/174/21 82/175/21
f 77/176/14 76/177/14 81/178/14 80/179/14
f 75/180/15 78/181/15 79/182/15 82/183/15
f 85/184/22 86/185/22 87/186/22 88/187/22
f 83/188/14 77/189/14 87/190/14 86/191/14
f 78/192/15 84/193/15 85/194/15 88/195/15
f 91/196/23 92/197/23 93/198/23 94/199/23
f 89/200/14 83/201/14 93/202/14 92/203/14
f 84/204/15 90/205/15 91/206/15 94/207/15
f 97/208/24 98/209/24 99/210/24 100/211/24
f 95/212/14 89/213/14 99/214/14 98/215/14
f 90/216/15 96/217/15 97/218/15 100/219/15
f 101/220/25 102/221/25 103/222/25 104/223/25
f 74/224/14 95/225/14 103/226/14 102/227/14
f 96/228/15 73/229/15 101/230/15 104/231/15
usemtl m_arch
f 41/232/26 42/233/26 43/234/26 44/235/26
f 40/236/27 39/237/27 42/238/27 41/239/27
f 44/240/28 43/241/28 38/242/28 37/243/28
f 49/244/29 50/245/29 42/233/29 41/232/29
f 48/246/30 47/247/30 50/248/30 49/249/30
f 41/250/31 42/251/31 46/252/31 45/253/31
f 55/254/32 56/255/32 50/245/32 49/244/32
f 54/256/33 53/257/33 56/258/33 55/259/33
f 49/249/34 50/248/34 52/260/34 51/261/34
f 61/262/35 62/263/35 56/255/35 55/254/35
f 60/264/36 59/265/36 62/266/36 61/267/36
f 55/268/37 56/269/37 58/270/37 57/271/37
f 67/272/38 68/273/38 62/263/38 61/262/38
f 66/274/39 65/275/39 68/276/39 67/277/39
f 61/267/40 62/266/40 64/278/40 63/279/40
f 73/280/41 74/281/41 68/273/41 67/272/41
f 72/282/42 71/283/42 74/284/42 73/285/42
f 67/286/43 68/287/43 70/288/43 69/289/43
f 75/290/44 76/291/44 77/292/44 78/293/44
f 78/294/45 77/295/45 80/296/45 79/297/45
f 82/298/46 81/299/47 76/300/47 75/301/47
f 78/302/48 77/303/48 83/304/48 84/305/48
f 84/306/49 83/307/49 86/308/49 85/309/49
f 88/310/50 87/311/50 77/295/50 78/294/50
f 84/312/51 83/313/51 89/314/51 90/315/51
f 90/316/52 89/317/52 92/318/52 91/319/52
f 94/320/53 93/321/53 83/322/53 84/323/53
f 90/324/54 89/325/54 95/326/54 96/327/54
f 96/328/55 95/329/55 98/330/55 97/331/55
f 100/332/56 99/333/56 89/317/56 90/316/56
f 96/334/57 95/335/57 74/336/57 73/337/57
f 73/285/58 74/284/58 102/338/58 101/339/58
f 104/340/59 103/341/59 95/342/59 96/343/59
