mtllib brick_arch.mtl

o mortar
v 1.0126374999999999 1.7559235 0.011562499999999896
v 1.0126374999999999 1.7559235 -0.5084375000000001
v 1.1696559999999998 1.8219915 -0.5084375000000001
v 1.1696559999999998 1.8219915 0.011562499999999877
v 0.770926 2.240721 0.011562499999999925
v 0.9842869999999999 2.331287 0.0115624999999999
v 0.770926 2.24072 -0.5084375000000001
v 0.9842869999999999 2.331287 -0.5084375000000001
v 0.3803239999999999 1.991879 0.011562499999999974
v 0.7103995000000001 1.5617165 0.011562499999999932
v 0.861521 1.6675335 0.011562499999999915
v 0.570193 2.124827 0.01156249999999995
v 0.7103995000000001 1.5617165 -0.5084375000000001
v 0.3803239999999999 1.991879 -0.5084375000000001
v 0.570193 2.124827 -0.5084375000000001
v 0.861521 1.6675335 -0.5084375000000001
v 0.569075 1.4431315 0.01156249999999995
v 0.569075 1.4431315 -0.5084375000000001
v 0.20276499999999986 1.842889 0.011562499999999995
v 0.20276499999999986 1.842889 -0.5084375
v 0.4386245 1.3126805 -0.5084375000000001
v 0.03886600000000007 1.678991 -0.5084375
v 0.03886600000000007 1.678991 0.011562500000000015
v 0.4386245 1.312681 0.011562499999999965
v -0.11012400000000022 1.501432 -0.5084375
v -0.11012400000000011 1.501432 0.011562500000000033
v 0.32003899999999996 1.1713565 0.01156249999999998
v 0.32003899999999996 1.1713565 -0.5084375
v -0.24307100000000004 1.311563 0.01156250000000005
v 0.21422249999999998 1.020235 0.011562499999999993
v 0.21422249999999998 1.020235 -0.5084375
v -0.24307100000000015 1.311563 -0.5084375
v -0.358965 1.11083 0.011562500000000064
v 0.13103949999999998 0.8823369999999999 0.011562500000000003
v -0.3589650000000001 1.110829 -0.5084375
v 0.13103949999999998 0.8823369999999999 -0.5084375
v 0.07887250000000012 0.7299755 0.01156250000000001
v -0.4382410000000001 0.893021 0.011562500000000073
v -0.4382410000000002 0.893021 -0.5084375
v 0.07887250000000012 0.7299755 -0.5084375
v 0.03112399999999993 0.551776 -0.5084375
v -0.4982310000000002 0.669132 -0.5084375
v -0.4982310000000001 0.669132 0.011562500000000081
v 0.03112399999999993 0.5517765 0.011562500000000015
v -0.538481 0.440866 0.011562500000000085
v -0.0009109999999998841 0.3700935 0.011562500000000019
v -0.538481 0.440866 -0.5084375
v -0.0009109999999999951 0.3700935 -0.5084375
v -0.015957999999999917 0.001123 0.011562500000000022
v -0.5586819999999999 0.001123 0.011562500000000088
v -0.5586819999999999 0.001123 -0.5084374999999999
v -0.015958000000000028 0.001123 -0.5084375
v -0.5586819999999999 0.209961 0.011562500000000088
v -0.5586819999999999 0.209961 -0.5084374999999999
v -0.01699050000000002 0.18631 -0.5084375
v -0.01699049999999991 0.18631 0.011562500000000022
vt 0 0.375
vt 0.5 0.40625
vt 0.5 0.5625
vt 0.000002818285250470731 0.59375
vt 0 0
vt 0.4375 0
vt 0.4375 0.21875
vt 0 0.21875
vt 0.5 0.40625
vt 1 0.375
vt 1 0.59375
vt 0.5 0.5625
vt 0 0
vt 0.5 0.03125
vt 0.5 0.1875
vt 0.000002818285250470731 0.21875
vt 0.5 0.03125
vt 1 0
vt 1 0.21875
vt 0.5 0.1875
vt 0 0.5625
vt 0.4375 0.5625
vt 0.4375 0.78125
vt 0 0.78125
vt 0.5 0.21875
vt 1 0.1875
vt 1 0.40625
vt 0.5 0.375
vt 0 0.1875
vt 0.5 0.21875
vt 0.5 0.375
vt 0.000002818285250470731 0.40625
vt 0 0.78125
vt 0.4375 0.78125
vt 0.4375 1
vt 0 1
vt 1 0.75
vt 0.5 0.78125
vt 0.5 0.9375
vt 0.9999971817147495 0.96875
vt 0 0.34375
vt 0.4375 0.34375
vt 0.4375 0.5625
vt 0 0.5625
vt 0.5 0.78125
vt 0 0.75
vt 0 0.96875
vt 0.5 0.9375
vt 0.5 0.59375
vt 0 0.5625
vt 0 0.78125
vt 0.5 0.75
vt 1 0.5625
vt 0.5 0.59375
vt 0.5 0.75
vt 0.9999971817147495 0.78125
vt 0 0.125
vt 0.4375 0.125
vt 0.4375 0.34375
vt 0 0.34375
vt 0 0.65625
vt 0.4375 0.65625
vt 0.4375 0.875
vt 0 0.875
vt 0.5 0.40625
vt 0 0.375
vt 0 0.59375
vt 0.5 0.5625
vt 1 0.375
vt 0.5 0.40625
vt 0.5 0.5625
vt 0.9999971817147495 0.59375
vt 1 0.1875
vt 0.5 0.21875
vt 0.5 0.375
vt 0.9999971817147495 0.40625
vt 0.5 0.21875
vt 0 0.1875
vt 0 0.40625
vt 0.5 0.375
vt 0 0.4375
vt 0.4375 0.4375
vt 0.4375 0.65625
vt 0 0.65625
vt 1 0
vt 0.5 0.03125
vt 0.5 0.1875
vt 0.9999971817147495 0.21875
vt 0 0.21875
vt 0.4375 0.21875
vt 0.4375 0.4375
vt 0 0.4375
vt 0.5 0.03125
vt 0 0
vt 0 0.21875
vt 0.5 0.1875
vt 0 0
vt 0.4375 0
vt 0.4375 0.21875
vt 0 0.21875
vt 0.5 0.78125
vt 1 0.75
vt 1 0.96875
vt 0.5 0.9375
vt 0 0.75
vt 0.5 0.78125
vt 0.5 0.9375
vt 0.000002818285250470731 0.96875
vt 0.5 0.59375
vt 1 0.5625
vt 1 0.78125
vt 0.5 0.75
vt 0 0.5625
vt 0.5 0.59375
vt 0.5 0.75
vt 0.000002818285250470731 0.78125
vt 0 0.78125
vt 0.4375 0.78125
vt 0.4375 1
vt 0 1
vt 0 0.375
vt 0.5 0.40625
vt 0.5 0.5625
vt 0.000002818285250470731 0.59375
vt 0 0.5625
vt 0.4375 0.5625
vt 0.4375 0.78125
vt 0 0.78125
vt 0.5 0.40625
vt 1 0.375
vt 1 0.59375
vt 0.5 0.5625
vt 0 0.5
vt 0 0
vt 0.4375 0
vt 0.4375 0.5
vt 0 0.125
vt 0.4375 0.125
vt 0.4375 0.34375
vt 0 0.34375
vt 0 0.8125
vt 0.4375 0.8125
vt 0.4375 1
vt 0 1
vt 0.5 0
vt 1 0
vt 1 0.21875
vt 0.5 0.1875
vt 0 0
vt 0.5 0
vt 0.5 0.203125
vt 0 0.21875
vt 0 0.34375
vt 0.4375 0.34375
vt 0.4375 0.5625
vt 0 0.5625
vt 0 0.1875
vt 0.5 0.21875
vt 0.5 0.375
vt 0.000002818285250470731 0.40625
vt 0.5 0.21875
vt 1 0.1875
vt 1 0.40625
vt 0.5 0.375
vt 0 0.0625
vt 0.4375 0.0625
vt 0.4375 0.21875
vt 0 0.21875
vt 0 0.5
vt 0.5 0.5
vt 0.5 1
vt 0 1
vn 1.2246467991473532e-16 0 1
vn -0.39072977129039654 0.9205054295463014 -0.0000017702027493270874
vn -1.2246467991473532e-16 0 -1
vn 1.2246467991473532e-16 0 1
vn -1.2246467991473532e-16 0 -1
vn -0.5735772901478514 0.8191514464533695 7.024295924431789e-17
vn -1.2246467991473532e-16 0 -1
vn 1.2246467991473532e-16 0 1
vn -0.5000024216669324 0.866024005629869 6.123263652603339e-17
vn 1.2246467991473532e-16 0 1
vn -0.6427883909497868 0.7660437875605963 7.871887455057339e-17
vn -1.2246467991473532e-16 0 -1
vn -1.2246467991473532e-16 0 -1
vn 1.2246467991473532e-16 0 1
vn -0.7071046240348362 0.7071089383316782 8.659534144865548e-17
vn -0.7660437875605954 0.6427883909497878 9.381330724427983e-17
vn -1.2246467991473532e-16 0 -1
vn 1.2246467991473532e-16 0 1
vn 1.2246467991473532e-16 0 1
vn -1.2246467991473532e-16 0 -1
vn -0.819153473511804 0.5735743952039233 1.003173679346667e-16
vn 1.2246467991473532e-16 0 1
vn -0.8660240056294695 0.5000024216666998 -9.61543118404647e-7
vn -1.2246467991473532e-16 0 -1
vn -0.9396926107404748 0.3420201709252694 1.1507915479257422e-16
vn -1.2246467991473532e-16 0 -1
vn 1.2246467991473532e-16 0 1
vn -1.2246467991473532e-16 0 -1
vn 1.2246467991473532e-16 0 1
vn -0.9659267719194169 0.2588155159362265 1.1829191294418494e-16
vn 1.2246467991473532e-16 0 1
vn -0.9848073506039081 0.17365045982234414 1.2060411696938612e-16
vn -1.2246467991473532e-16 0 -1
vn 0 -1 0
vn -1 0 1.2246467991473532e-16
vn 0.9999844575668737 0.005575358704648755 -1.224627765156374e-16
vn -1.2246467991473532e-16 0 -1
vn 1.2246467991473532e-16 0 1
vn -0.9961949115469744 0.08715330290881682 1.2199869097528829e-16
vn 1.2246467991473532e-16 0 1
vn -1.2246467991473532e-16 0 -1
vn 0.387832346351732 -0.9217299339412334 -4.749576415654563e-17
vn 0.9396922664368426 0.3420211168901569 -1.150791126275401e-16
usemtl m_mortar
f 5/1/1 1/2/1 4/3/1 6/4/1
f 7/5/2 5/6/2 6/7/2 8/8/2
f 2/9/3 7/10/3 8/11/3 3/12/3
f 9/13/4 10/14/4 11/15/4 12/16/4
f 13/17/5 14/18/5 15/19/5 16/20/5
f 14/21/6 9/22/6 12/23/6 15/24/6
f 16/25/7 15/26/7 7/27/7 2/28/7
f 12/29/8 11/30/8 1/31/8 5/32/8
f 15/33/9 12/34/9 5/35/9 7/36/9
f 19/37/10 17/38/10 10/39/10 9/40/10
f 20/41/11 19/42/11 9/43/11 14/44/11
f 18/45/12 20/46/12 14/47/12 13/48/12
f 21/49/13 22/50/13 20/51/13 18/52/13
f 23/53/14 24/54/14 17/55/14 19/56/14
f 22/57/15 23/58/15 19/59/15 20/60/15
f 25/61/16 26/62/16 23/63/16 22/64/16
f 28/65/17 25/66/17 22/67/17 21/68/17
f 26/69/18 27/70/18 24/71/18 23/72/18
f 29/73/19 30/74/19 27/75/19 26/76/19
f 31/77/20 32/78/20 25/79/20 28/80/20
f 32/81/21 29/82/21 26/83/21 25/84/21
f 33/85/22 34/86/22 30/87/22 29/88/22
f 35/89/23 33/90/23 29/91/23 32/92/23
f 36/93/24 35/94/24 32/95/24 31/96/24
f 39/97/25 38/98/25 33/99/25 35/100/25
f 40/101/26 39/102/26 35/103/26 36/104/26
f 38/105/27 37/106/27 34/107/27 33/108/27
f 41/109/28 42/110/28 39/111/28 40/112/28
f 43/113/29 44/114/29 37/115/29 38/116/29
f 42/117/30 43/118/30 38/119/30 39/120/30
f 45/121/31 46/122/31 44/123/31 43/124/31
f 47/125/32 45/126/32 43/127/32 42/128/32
f 48/129/33 47/130/33 42/131/33 41/132/33
f 49/133/34 50/134/34 51/135/34 52/136/34
f 51/137/35 50/138/35 53/139/35 54/140/35
f 49/141/36 52/142/36 55/143/36 56/144/36
f 52/145/37 51/146/37 54/147/37 55/148/37
f 50/149/38 49/150/38 56/151/38 53/152/38
f 54/153/39 53/154/39 45/155/39 47/156/39
f 53/157/40 56/158/40 46/159/40 45/160/40
f 55/161/41 54/162/41 47/163/41 48/164/41
f 1/165/42 2/166/42 3/167/42 4/168/42
f 8/169/43 6/170/43 4/171/43 3/172/43
o bricks
v 0.008700000000000152 0.036767 -0.5322950120046317
v -0.5159579999999999 0.036767 -0.5322950120046317
v -0.5159579999999999 0.193017 -0.5322950120046317
v 0.008700000000000152 0.193017 -0.5322950120046317
v 0.008700000000000152 0.036768 0.037174000000000026
v -0.5159579999999999 0.036768 0.03717400000000009
v -0.5159579999999999 0.193018 0.03717400000000009
v 0.008700000000000152 0.193018 0.037174000000000026
v -0.517074 0.239017 -0.5322950120046317
v -0.517074 0.239017 0.03717400000000009
v -0.5034559999999999 0.394672 0.03717400000000009
v -0.5034559999999999 0.394672 -0.5322950120046317
v 0.022317999999999838 0.348673 0.037174000000000026
v 0.022317999999999838 0.348673 -0.5322950120046317
v 0.04945099999999991 0.502549 -0.5322950120046317
v -0.47339200000000015 0.59474 -0.5322950120046317
v -0.47339200000000003 0.59474 0.03717400000000009
v 0.04945099999999991 0.502549 0.03717400000000002
v -0.500524 0.440864 -0.5322950120046317
v -0.500524 0.440864 0.03717400000000009
v -0.4633670000000002 0.639958 -0.5322950120046317
v -0.422926 0.790884 -0.5322950120046317
v 0.08989100000000017 0.653475 -0.5322950120046317
v -0.4633670000000001 0.639958 0.03717400000000009
v 0.08989100000000017 0.653475 0.03717400000000002
v -0.4229259999999999 0.790884 0.03717400000000008
v 0.14333200000000001 0.800302 -0.5322950120046317
v -0.3584950000000001 0.982952 -0.5322950120046317
v -0.358495 0.982952 0.037174000000000075
v 0.14333200000000001 0.800302 0.03717400000000001
v -0.4119360000000002 0.836125 -0.5322950120046317
v -0.4119360000000001 0.836125 0.03717400000000008
v -0.3406659999999999 1.025994 0.03717400000000007
v -0.340666 1.025994 -0.5322950120046317
v 0.20936600000000016 0.941913 -0.5322950120046317
v -0.2746320000000001 1.167605 -0.5322955447529035
v -0.274632 1.167605 0.03717400000000006
v 0.20936600000000016 0.941913 0.037174000000000006
v -0.25312 1.208929 0.03717400000000006
v -0.2531200000000001 1.208929 -0.5322955447529035
v -0.174995 1.344246 0.03717400000000005
v -0.17499500000000012 1.344246 -0.5322955447529035
v 0.28749100000000016 1.077229 -0.5322950120046317
v 0.28749100000000016 1.077229 0.03717399999999999
v -0.14740300000000006 1.381745 -0.5322955447529035
v -0.05778200000000011 1.509738 -0.5322955447529035
v 0.37711300000000003 1.205222 -0.5326042723764519
v -0.14740299999999995 1.381746 0.03717400000000005
v -0.057782 1.509738 0.03717400000000003
v 0.37711300000000003 1.205222 0.037173999999999985
v -0.027193000000000023 1.544474 0.03717400000000003
v -0.027193000000000134 1.544474 -0.532913
v 0.07324299999999995 1.664168 -0.532913
v 0.4775480000000001 1.324916 -0.5328512012004629
v 0.07324299999999995 1.664169 0.03717400000000002
v 0.4775480000000001 1.324916 0.03717399999999997
v 0.588034 1.435401 -0.5327894024009266
v 0.21704400000000001 1.806391 -0.5327894024009265
v 0.21704400000000001 1.806391 0.037173467251728064
v 0.588034 1.435402 0.03717399999999996
v 0.10655899999999985 1.695905 -0.5327894024009265
v 0.10655899999999985 1.695905 0.03717346725172807
v 0.25078999999999985 1.837313 0.03717346725172806
v 0.7077279999999999 1.535837 0.03717399999999994
v 0.37048400000000004 1.937749 0.03717346725172804
v 0.7077279999999999 1.535837 -0.5327894024009266
v 0.37048400000000004 1.937748 -0.5327894024009266
v 0.25078999999999985 1.837313 -0.5327894024009265
v 0.40679599999999994 1.965612 -0.5327894024009266
v 0.542788 2.060834 -0.5327894024009266
v 0.84372 1.63106 -0.5327894024009266
v 0.40679599999999994 1.965612 0.037173467251728036
v 0.542788 2.060835 0.03717346725172802
v 0.84372 1.63106 0.03717399999999992
v 0.581391 2.085427 0.037173467251728015
v 0.9874939999999999 1.714068 0.03717346725172797
v 0.7251650000000001 2.168435 0.037173467251728
v 0.9874939999999999 1.714067 -0.5327894024009266
v 0.7251650000000001 2.168435 -0.5327894024009266
v 0.581391 2.085427 -0.5327894024009266
v 0.7657639999999999 2.189569 -0.5327894024009266
v 0.9162250000000001 2.25973 -0.5327894024009266
v 1.1379549999999998 1.784229 -0.5327894024009266
v 0.9162250000000001 2.259731 0.037173467251727974
v 1.1379549999999998 1.784229 0.037173467251727946
v 0.7657639999999999 2.189569 0.037173467251727994
vt 1 0.0625
vt 0.53125 0.0625
vt 0.53125 0.21875
vt 1 0.21875
vt 0 0.59375
vt 0 0.09375
vt 0.46875 0.09375
vt 0.46875 0.59375
vt 0 0.0625
vt 0.46875 0.0625
vt 0.46875 0.21875
vt 0 0.21875
vt 0 0.0625
vt 0.46875 0.0625
vt 0.46875 0.21875
vt 0 0.21875
vt 0 0
vt 0.46875 0
vt 0.46875 0.15625
vt 0 0.15625
vt 0 0.3125
vt 0 0.8125
vt 0.46875 0.8125
vt 0.46875 0.3125
vt 0 0.21875
vt 0.46875 0.21875
vt 0.46875 0.375
vt 0 0.375
vt 0 0.21875
vt 0.46875 0.21875
vt 0.46875 0.375
vt 0 0.375
vt 0.46875 0.84375
vt 0 0.84375
vt 0 1
vt 0.46875 1
vt 0 0.3125
vt 0 0.8125
vt 0.46875 0.8125
vt 0.46875 0.3125
vt 0 0.3125
vt 0 0.8125
vt 0.46875 0.8125
vt 0.46875 0.3125
vt 0 0.15625
vt 0.46875 0.15625
vt 0.46875 0.3125
vt 0 0.3125
vt 0 0.3125
vt 0 0.8125
vt 0.46875 0.8125
vt 0.46875 0.3125
vt 0 0.375
vt 0.46875 0.375
vt 0.46875 0.53125
vt 0 0.53125
vt 0.46875 0.6875
vt 0 0.6875
vt 0 0.84375
vt 0.46875 0.84375
vt 0 0.375
vt 0.46875 0.375
vt 0.46875 0.53125
vt 0 0.53125
vt 0 0.3125
vt 0 0.8125
vt 0.46875 0.8125
vt 0.46875 0.3125
vt 0 0.3125
vt 0.46875 0.3125
vt 0.46875 0.46875
vt 0 0.46875
vt 0.46875 0.53125
vt 0 0.53125
vt 0 0.6875
vt 0.46875 0.6875
vt 0 0.3125
vt 0 0.8125
vt 0.46875 0.8125
vt 0.46875 0.3125
vt 0 0.53125
vt 0.46875 0.53125
vt 0.46875 0.6875
vt 0 0.6875
vt 0 0.53125
vt 0.46875 0.53125
vt 0.46875 0.6875
vt 0 0.6875
vt 0 0.3125
vt 0 0.8125
vt 0.46875 0.8125
vt 0.46875 0.3125
vt 0 0.46875
vt 0.46875 0.46875
vt 0.46875 0.625
vt 0 0.625
vt 0 0.3125
vt 0 0.8125
vt 0.46875 0.8125
vt 0.46875 0.3125
vt 0.46875 0.375
vt 0 0.375
vt 0 0.53125
vt 0.46875 0.53125
vt 0 0.3125
vt 0 0.8125
vt 0.46875 0.8125
vt 0.46875 0.3125
vt 0 0.6875
vt 0.46875 0.6875
vt 0.46875 0.84375
vt 0 0.84375
vt 0 0.6875
vt 0.46875 0.6875
vt 0.46875 0.84375
vt 0 0.84375
vt 0 0.625
vt 0.46875 0.625
vt 0.46875 0.78125
vt 0 0.78125
vt 0 0.3125
vt 0 0.8125
vt 0.46875 0.8125
vt 0.46875 0.3125
vt 0 0.3125
vt 0 0.8125
vt 0.46875 0.8125
vt 0.46875 0.3125
vt 0.46875 0.21875
vt 0 0.21875
vt 0 0.375
vt 0.46875 0.375
vt 0 0.84375
vt 0.46875 0.84375
vt 0.46875 1
vt 0 1
vt 0 0.84375
vt 0.46875 0.84375
vt 0.46875 1
vt 0 1
vt 0 0.21875
vt 0.46875 0.21875
vt 0.46875 0.375
vt 0 0.375
vt 0 0.3125
vt 0 0.8125
vt 0.46875 0.8125
vt 0.46875 0.3125
vt 0 0.0625
vt 0.46875 0.0625
vt 0.46875 0.21875
vt 0 0.21875
vt 0 0.3125
vt 0 0.8125
vt 0.46875 0.8125
vt 0.46875 0.3125
vt 0.46875 0.0625
vt 0 0.0625
vt 0 0.21875
vt 0.46875 0.21875
vt 0.53125 0.0625
vt 1 0.0625
vt 1 0.21875
vt 0.53125 0.21875
vt 0 0.8125
vt 0.46875 0.8125
vt 0.46875 0.96875
vt 0 0.96875
vt 1 0.84375
vt 0.53125 0.84375
vt 0.53125 1
vt 1 1
vt 0 0.21875
vt 0.46875 0.21875
vt 0.46875 0.375
vt 0 0.375
vt 0 0.3125
vt 0 0.8125
vt 0.46875 0.8125
vt 0.46875 0.3125
vt 0 0.3125
vt 0 0.8125
vt 0.46875 0.8125
vt 0.46875 0.3125
vt 0.53125 0.21875
vt 1 0.21875
vt 1 0.375
vt 0.53125 0.375
vt 0 0
vt 0.46875 0
vt 0.46875 0.15625
vt 0 0.15625
vt 0 0.3125
vt 0 0.8125
vt 0.46875 0.8125
vt 0.46875 0.3125
vt 1 0.6875
vt 0.53125 0.6875
vt 0.53125 0.84375
vt 1 0.84375
vt 0 0.375
vt 0.46875 0.375
vt 0.46875 0.53125
vt 0 0.53125
vt 0 0.3125
vt 0 0.8125
vt 0.46875 0.8125
vt 0.46875 0.3125
vt 0.53125 0.375
vt 1 0.375
vt 1 0.53125
vt 0.53125 0.53125
vt 0 0.15625
vt 0.46875 0.15625
vt 0.46875 0.3125
vt 0 0.3125
vt 0 0.3125
vt 0 0.8125
vt 0.46875 0.8125
vt 0.46875 0.3125
vt 0 0.53125
vt 0.46875 0.53125
vt 0.46875 0.6875
vt 0 0.6875
vt 0 0.3125
vt 0 0.8125
vt 0.46875 0.8125
vt 0.46875 0.3125
vt 1 0.53125
vt 0.53125 0.53125
vt 0.53125 0.6875
vt 1 0.6875
vt 0.53125 0.53125
vt 1 0.53125
vt 1 0.6875
vt 0.53125 0.6875
vt 0 0.3125
vt 0.46875 0.3125
vt 0.46875 0.46875
vt 0 0.46875
vt 0.53125 0.6875
vt 1 0.6875
vt 1 0.84375
vt 0.53125 0.84375
vt 0 0.3125
vt 0 0.8125
vt 0.46875 0.8125
vt 0.46875 0.3125
vt 0 0.6875
vt 0.46875 0.6875
vt 0.46875 0.84375
vt 0 0.84375
vt 1 0.375
vt 0.53125 0.375
vt 0.53125 0.53125
vt 1 0.53125
vt 0 0.3125
vt 0 0.8125
vt 0.46875 0.8125
vt 0.46875 0.3125
vt 0 0.46875
vt 0.46875 0.46875
vt 0.46875 0.625
vt 0 0.625
vt 1 0.21875
vt 0.53125 0.21875
vt 0.53125 0.375
vt 1 0.375
vt 0 0.84375
vt 0.46875 0.84375
vt 0.46875 1
vt 0 1
vt 0 0.3125
vt 0 0.8125
vt 0.46875 0.8125
vt 0.46875 0.3125
vt 0.53125 0.84375
vt 1 0.84375
vt 1 1
vt 0.53125 1
vt 0 0.3125
vt 0 0.8125
vt 0.46875 0.8125
vt 0.46875 0.3125
vt 0 0.625
vt 0.46875 0.625
vt 0.46875 0.78125
vt 0 0.78125
vt 0 0.0625
vt 0.46875 0.0625
vt 0.46875 0.21875
vt 0 0.21875
vt 0 0.3125
vt 0 0.8125
vt 0.46875 0.8125
vt 0.46875 0.3125
vt 0 0.0625
vt 0.46875 0.0625
vt 0.46875 0.21875
vt 0 0.21875
vt 1 0.0625
vt 0.53125 0.0625
vt 0.53125 0.21875
vt 1 0.21875
vt 0 0.3125
vt 0 0.8125
vt 0.46875 0.8125
vt 0.46875 0.3125
vt 0 0.8125
vt 0.46875 0.8125
vt 0.46875 0.96875
vt 0 0.96875
vt 0.46875 0.84375
vt 0 0.84375
vt 0 1
vt 0.46875 1
vt 0 1
vt 0 0.5
vt 0.46875 0.5
vt 0.46875 1
vt 0 0.375
vt 0.46875 0.375
vt 0.46875 0.21875
vt 0 0.21875
vt 0 0.3125
vt 0 0.8125
vt 0.46875 0.8125
vt 0.46875 0.3125
vt 0 0.375
vt 0.46875 0.375
vt 0.46875 0.21875
vt 0 0.21875
vt 0 0
vt 0.46875 0
vt 0.46875 0.15625
vt 0 0.15625
vn -1.2246467991473532e-16 0 -1
vn 2.1505064776671808e-22 -0.9999999999984582 0.0000017560218008689909
vn -1 0 1.2246467991473532e-16
vn 1.2246467991473532e-16 0 1
vn 1 0 -1.2246467991473532e-16
vn -2.1505064776671808e-22 0.9999999999984582 -0.0000017560218008689909
vn -0.9961947247203047 0.08715543838129991 1.2199866809562e-16
vn 1.2246467991473532e-16 0 1
vn -1.2246467991473532e-16 0 -1
vn 0.08715524525673482 0.9961947416164364 -1.0673439213256283e-17
vn -0.08715524525673474 -0.9961947416164364 1.0673439213256274e-17
vn 0.9961947733348121 -0.08715488271106257 1.5304587397104307e-7
vn 0.1736475792645537 0.9848078585265051 -2.1265695212602202e-17
vn -0.9848082898252861 0.1736451332211624 1.2060423199083156e-16
vn -1.2246467991473532e-16 0 -1
vn 1.2246467991473532e-16 0 1
vn -0.17364790137235214 -0.9848078017303569 2.1265734659430633e-17
vn 0.9848071953589745 -0.1736513402458806 -1.2060409795736504e-16
vn -1.2246467991473532e-16 0 -1
vn -0.25881874816664074 -0.9659259058527488 3.1696155150160146e-17
vn 1.2246467991473532e-16 0 1
vn -0.9659250259925644 0.25882203183126473 1.1829169912981179e-16
vn 0.25881921905815164 0.9659257796777807 -3.16962128177383e-17
vn 0.9659266259916197 -0.2588160605535252 -1.1829189507318396e-16
vn 0.34201999326897026 0.9396926754020666 -4.188536900012437e-17
vn -1.2246467991473532e-16 0 -1
vn -0.3420199932689699 -0.9396926754020666 4.1885369000124334e-17
vn -0.9396919164674948 0.342022078418407 1.1507906976865595e-16
vn 1.2246467991473532e-16 0 1
vn 0.9396919164674953 -0.342022078418406 -1.15079069768656e-16
vn -0.4226183018362532 -0.9063077683397851 5.175581506048575e-17
vn 0.422618301836253 0.9063077683397853 -5.175581506048572e-17
vn -0.0000014409516783710035 -0.000003090130489201814 -0.9999999999941874
vn -0.9063085071866652 0.42261671737057305 1.1099078123661656e-16
vn 1.2246467991473532e-16 0 1
vn 0.9063085071866647 -0.4226167173705739 -1.1099078123661648e-16
vn -0.49999941492828076 -0.86602574157549 6.123226830674683e-17
vn -0.8660262528345833 0.4999985293991276 1.0605762785114489e-16
vn 0.5000008193359834 0.8660249307400714 -6.123244029708661e-17
vn 8.639434521127861e-7 -4.98796028628176e-7 -0.9999999999995024
vn 1.2246467991473532e-16 0 1
vn 0.866024652835399 -0.5000013006796353 -1.0605743190775692e-16
vn 8.219942070346983e-7 -5.755622794967853e-7 -0.9999999999994966
vn -0.8191519337217614 0.5735765942564993 -0.0000010072120615353787
vn -0.5735776280448601 -0.819151209853445 0.0000014384460370200667
vn 0.5735754791687173 0.8191527145144404 -7.024273746333791e-17
vn 1.2246467991473532e-16 0 1
vn 0.8191510322456439 -0.5735778816960223 -1.0031706896578782e-16
vn -0.6427864806056042 -0.7660453905289566 7.871864060088453e-17
vn 0.00044809722510965813 -0.00037600124401495353 -0.9999998289159562
vn -0.7660445387749303 0.6427874956881975 9.381339924150289e-17
vn 0.6427874136918671 0.7660446075768139 -0.0000013437328118858038
vn 1.2246467991473532e-16 0 1
vn 0.766045045836723 -0.6427868913948178 -9.381346133866302e-17
vn 0.7071067811865478 0.7071067811865474 -8.659560562354937e-17
vn -0.7071099811774112 0.7071035811812024 8.659599750940618e-17
vn -0.7071067811865472 -0.7071067811865478 8.659560562354929e-17
vn -0.00008328963766706352 0.0000832888838190539 -0.9999999930628991
vn -7.18010873436679e-7 7.180108735591424e-7 0.9999999999994845
vn 0.7071035811812024 -0.7071099811774112 -8.659521373591902e-17
vn -6.526987796777703e-7 7.778575969473737e-7 0.9999999999994845
vn 0.7660438535996651 0.6427883122466548 -0.0000011277722575966596
vn -0.6427906470686136 0.7660418944425383 7.871915084544336e-17
vn -1.2246467991473532e-16 0 -1
vn -0.7660438536001518 -0.6427883122470641 9.381331533179296e-17
vn 0.6427906470680338 -0.766041894441846 0.0000013440194427873135
vn -1.2246467991473532e-16 0 -1
vn -0.5735779579582461 0.8191509788460541 7.024304102750411e-17
vn -0.8191517709147955 -0.5735768267696615 1.0031715942666902e-16
vn -5.824219426074442e-7 8.317814481346499e-7 0.9999999999994846
vn 0.81915114385678 0.5735777222984837 -0.000001006342260126502
vn 0.573577957958246 -0.8191509788460541 -7.02430410275041e-17
vn 0.0000022713812511979476 0.00000248388955217325 0.9999999999943358
vn 0.8660258058079959 0.4999993036741266 -1.0605757310617695e-16
vn -0.5000001915367083 0.8660252932006404 6.123236341384933e-17
vn -1.2246467991473532e-16 0 -1
vn -0.8660253293079244 -0.5000001289970848 1.060575147517482e-16
vn 0.49999567387886895 -0.8660279014572312 -6.123181016032807e-17
vn -1.2246467991473532e-16 0 -1
vn 0.9063076101910815 0.42261864098638774 -7.414845134724567e-7
vn -0.42262263275172113 0.9063057487879043 5.175634544466226e-17
vn -0.9063076101913304 -0.422618640986504 1.1099067138637e-16
vn 1.2246467991473532e-16 0 1
vn 0.4226226327511885 -0.906305748786758 0.0000015901136669394246
usemtl m_keystones
f 57/173/44 58/174/44 59/175/44 60/176/44
usemtl m_arch
f 61/177/45 62/178/45 58/179/45 57/180/45
usemtl m_keystones
f 58/181/46 62/182/46 63/183/46 59/184/46
f 62/185/47 61/186/47 64/187/47 63/188/47
usemtl m_arch
f 61/189/48 57/190/48 60/191/48 64/192/48
f 60/193/49 59/194/49 63/195/49 64/196/49
usemtl m_keystones
f 65/197/50 66/198/50 67/199/50 68/200/50
f 66/201/51 64/202/51 69/203/51 67/204/51
f 60/205/52 65/206/52 68/207/52 70/208/52
usemtl m_arch
f 70/209/53 68/210/53 67/211/53 69/212/53
f 64/213/54 66/214/54 65/215/54 60/216/54
f 64/217/55 60/218/55 70/219/55 69/220/55
f 71/221/56 72/222/56 73/223/56 74/224/56
usemtl m_keystones
f 75/225/57 76/226/57 73/227/57 72/228/57
f 70/229/58 75/230/58 72/231/58 71/232/58
f 76/233/59 69/234/59 74/235/59 73/236/59
usemtl m_arch
f 69/237/60 76/238/60 75/239/60 70/240/60
f 69/241/61 70/242/61 71/243/61 74/244/61
usemtl m_keystones
f 71/245/62 77/246/62 78/247/62 79/248/62
usemtl m_arch
f 74/249/63 80/250/63 77/251/63 71/252/63
usemtl m_keystones
f 80/253/64 74/254/64 81/255/64 82/256/64
f 77/257/65 80/258/65 82/259/65 78/260/65
usemtl m_arch
f 79/261/66 78/262/66 82/263/66 81/264/66
f 74/265/67 71/266/67 79/267/67 81/268/67
f 83/269/68 84/270/68 85/271/68 86/272/68
usemtl m_keystones
f 79/273/69 87/274/69 84/275/69 83/276/69
usemtl m_arch
f 81/277/70 88/278/70 87/279/70 79/280/70
usemtl m_keystones
f 87/281/71 88/282/71 85/283/71 84/284/71
f 88/285/72 81/286/72 86/287/72 85/288/72
usemtl m_arch
f 81/289/73 79/290/73 83/291/73 86/292/73
f 86/293/74 89/294/74 90/295/74 83/296/74
f 91/297/75 92/298/75 93/299/75 94/300/75
usemtl m_keystones
f 83/301/76 90/302/76 92/303/76 91/304/76
f 90/305/77 89/306/77 93/307/77 92/308/77
f 89/309/78 86/310/78 94/311/78 93/312/78
usemtl m_arch
f 86/313/79 83/314/79 91/315/79 94/316/79
f 94/317/80 95/318/80 96/319/80 91/320/80
usemtl m_keystones
f 96/321/81 95/322/81 97/323/81 98/324/81
usemtl m_arch
f 99/325/82 98/326/82 97/327/82 100/328/82
usemtl m_keystones
f 91/329/83 96/330/83 98/331/83 99/332/83
f 95/333/84 94/334/84 100/335/84 97/336/84
usemtl m_arch
f 94/337/85 91/338/85 99/339/85 100/340/85
usemtl m_keystones
f 99/341/86 101/342/86 102/343/86 103/344/86
f 101/345/87 104/346/87 105/347/87 102/348/87
usemtl m_arch
f 100/349/88 104/350/88 101/351/88 99/352/88
f 103/353/89 102/354/89 105/355/89 106/356/89
usemtl m_keystones
f 104/357/90 100/358/90 106/359/90 105/360/90
usemtl m_arch
f 100/361/91 99/362/91 103/363/91 106/364/91
f 106/365/92 107/366/92 108/367/92 103/368/92
usemtl m_keystones
f 103/369/93 108/370/93 109/371/93 110/372/93
f 108/373/94 107/374/94 111/375/94 109/376/94
usemtl m_arch
f 110/377/95 109/378/95 111/379/95 112/380/95
usemtl m_keystones
f 107/381/96 106/382/96 112/383/96 111/384/96
usemtl m_arch
f 106/385/97 103/386/97 110/387/97 112/388/97
f 113/389/98 114/390/98 115/391/98 116/392/98
usemtl m_keystones
f 117/393/99 118/394/99 115/395/99 114/396/99
usemtl m_arch
f 112/397/100 118/398/100 117/399/100 110/400/100
usemtl m_keystones
f 110/401/101 117/402/101 114/403/101 113/404/101
f 118/405/102 112/406/102 116/407/102 115/408/102
usemtl m_arch
f 112/409/103 110/410/103 113/411/103 116/412/103
usemtl m_keystones
f 119/413/104 116/414/104 120/415/104 121/416/104
usemtl m_arch
f 122/417/105 123/418/105 121/419/105 120/420/105
usemtl m_keystones
f 124/421/106 119/422/106 121/423/106 123/424/106
f 113/425/107 124/426/107 123/427/107 122/428/107
usemtl m_arch
f 116/429/108 119/430/108 124/431/108 113/432/108
f 116/433/109 113/434/109 122/435/109 120/436/109
usemtl m_keystones
f 122/437/110 125/438/110 126/439/110 127/440/110
f 125/441/111 128/442/111 129/443/111 126/444/111
usemtl m_arch
f 120/445/112 128/446/112 125/447/112 122/448/112
usemtl m_keystones
f 128/449/113 120/450/113 130/451/113 129/452/113
usemtl m_arch
f 127/453/114 126/454/114 129/455/114 130/456/114
f 120/457/115 122/458/115 127/459/115 130/460/115
usemtl m_keystones
f 131/461/116 130/462/116 132/463/116 133/464/116
usemtl m_arch
f 134/465/117 135/466/117 133/467/117 132/468/117
usemtl m_keystones
f 136/469/118 131/470/118 133/471/118 135/472/118
f 127/473/119 136/474/119 135/475/119 134/476/119
usemtl m_arch
f 130/477/120 131/478/120 136/479/120 127/480/120
f 130/481/121 127/482/121 134/483/121 132/484/121
usemtl m_keystones
f 134/485/122 137/486/122 138/487/122 139/488/122
usemtl m_arch
f 139/489/123 138/490/123 140/491/123 141/492/123
usemtl m_keystones
f 137/493/124 142/494/124 140/495/124 138/496/124
usemtl m_arch
f 132/497/125 142/498/125 137/499/125 134/500/125
usemtl m_keystones
f 142/501/126 132/502/126 141/503/126 140/504/126
usemtl m_arch
f 132/505/127 134/506/127 139/507/127 141/508/127