mtllib brick_arch.mtl

o bricks_3
v -0.484375 0.06250000000000001 0.024999999999999863
v -0.484375 -0.09375 0.024999999999999988
v -0.484375 0.0625 -0.5374999999999972
v -0.484375 -0.09375 -0.537499999999997
v 0.015477738733596036 0.06062886819936425 0.024999999999999738
v 0.015625 -0.09375 0.024999999999999925
v 0.015477738733595925 0.06062886819936425 -0.5374999999999973
v 0.015624999999999889 -0.09375 -0.5374999999999971
v -0.4540708076678406 0.2913012721368342 0.02499999999999955
v -0.4785136928303766 0.13697496891884395 0.02499999999999955
v -0.4540708076678406 0.2913012721368342 -0.5374999999999975
v -0.4785136928303766 0.13697496891884395 -0.5374999999999973
v 0.039335204891627784 0.21125898129094517 0.024999999999999488
v 0.03933520489162767 0.21125898129094517 -0.5374999999999976
v -0.3883473056229638 0.512545000823763 0.02499999999999892
v -0.43663121099404956 0.3639424201526452 0.02499999999999942
v -0.3883473056229638 0.512545000823763 -0.5374999999999981
v -0.43663121099404956 0.3639424201526452 -0.5374999999999973
v 0.08646268721248962 0.35630245777837943 0.024999999999999356
v 0.08646268721248951 0.35630245777837943 -0.5374999999999974
v -0.28882282460951325 0.7207834311946755 0.024999999999998905
v -0.35975884019381743 0.5815636617902431 0.024999999999998412
v -0.28882282460951325 0.7207834311946755 -0.5374999999999974
v -0.35975884019381743 0.5815636617902431 -0.5374999999999984
v 0.15569975067429542 0.49218784589884623 0.02499999999999885
v 0.1556997506742953 0.49218784589884623 -0.5374999999999976
v -0.15794798765285445 0.9108890419901126 0.024999999999998884
v -0.24978943332355352 0.784480136619027 0.0249999999999984
v -0.15794798765285445 0.9108890419901126 -0.5374999999999974
v -0.24978943332355352 0.784480136619027 -0.5374999999999979
v 0.24534154898997618 0.6155691964190725 0.024999999999998836
v 0.24534154898997607 0.6155691964190724 -0.5374999999999979
v 0.0010546324124574014 1.0781808021479409 0.02499999999999787
v -0.10943080214794065 0.9676953675875428 0.024999999999998385
v 0.0010546324124572903 1.0781808021479407 -0.5374999999999984
v -0.10943080214794065 0.9676953675875428 -0.5374999999999979
v 0.3531808035809274 0.723408451010024 0.024999999999998822
v 0.3531808035809273 0.7234084510100238 -0.5374999999999979
v 0.9081211318006358 0.953272261266404 0.02499999999999776
v 1 0.953125 0.024999999999998246
v 0.9081211318006357 0.9532722612664036 -0.537499999999998
v 1.0062499999999999 0.9531249999999999 -0.537499999999998
v 0.9062500000000003 1.453125 0.02499999999999676
v 1.00625 1.453125 0.024999999999996747
v 0.9062500000000002 1.453125 -0.5374999999999995
v 0.9999999999999999 1.453125 -0.5374999999999995
v 0.7574910187090549 0.9294147951083724 0.024999999999998274
v 0.7574910187090548 0.9294147951083722 -0.5374999999999995
v 0.6774487278631657 1.4228208076678408 0.024999999999997788
v 0.8317750310811559 1.447263692830377 0.024999999999997767
v 0.6774487278631656 1.4228208076678404 -0.5375000000000005
v 0.8317750310811559 1.4472636928303766 -0.5374999999999975
v 0.6124475422216205 0.8822873127875104 0.024999999999997795
v 0.6124475422216205 0.8822873127875102 -0.5374999999999985
v 0.45620499917623714 1.3570973056229643 0.024999999999997816
v 0.6048075798473548 1.40538121099405 0.024999999999996796
v 0.456204999176237 1.3570973056229638 -0.5374999999999994
v 0.6048075798473547 1.4053812109940496 -0.5375000000000005
v 0.47656215410115355 0.8130502493257046 0.024999999999998808
v 0.47656215410115343 0.8130502493257044 -0.5374999999999989
v 0.24796656880532453 1.2575728246095133 0.024999999999997836
v 0.3871863382097569 1.3285088401938174 0.024999999999996823
v 0.24796656880532442 1.2575728246095128 -0.5374999999999994
v 0.3871863382097568 1.328508840193817 -0.5374999999999994
v 0.057860958009887 1.1266979876528547 0.024999999999997864
v 0.1842698633809725 1.2185394333235537 0.024999999999997843
v 0.05786095800988689 1.1266979876528542 -0.5374999999999994
v 0.1842698633809724 1.2185394333235533 -0.5374999999999994
vt 0 0.0625
vt 0.46875 0.0625
vt 0.46875 0.21875
vt 0 0.21875
vt 0 0.15625
vt 0.46875 0.15625
vt 0.46875 0
vt 0 0
vt 0 0.21875
vt 0 0.0625
vt 0.46875 0.0625
vt 0.468609375 0.21688125000000003
vt 0.53125 0.2206149717000353
vt 0.5312500000000001 0.3731317226084865
vt 1 0.375
vt 0.9999978757682169 0.21875
vt 0 0.5
vt 0.46875 0.5
vt 0.46875 1
vt 0 1
vt 0 0.5
vt 0.46875 0.5
vt 0.46875 0
vt 0 0
vt 0 0.21875
vt 0.46875 0.21875
vt 0.46875 0.375
vt 0 0.375
vt 0 0.3125
vt 0.46875 0.3125
vt 0.46875 0.15625
vt 0 0.15625
vt 0 0.375
vt 0 0.21875
vt 0.46875 0.21875
vt 0.468609375 0.37313125
vt 0.53125 0.0643649717000353
vt 0.5312500000000001 0.21688172260848648
vt 1 0.21875
vt 0.9999978757682169 0.0625
vt 0 0
vt 0.46875 0
vt 0.46875 0.5
vt 0 0.5
vt 0 0
vt 0.46875 0
vt 0.46875 0.5
vt 0 0.5
vt 0 0.375
vt 0.46875 0.375
vt 0.46875 0.53125
vt 0 0.53125
vt 0 0.46875
vt 0.46875 0.46875
vt 0.46875 0.3125
vt 0 0.3125
vt 0 0.53125
vt 0 0.375
vt 0.46875 0.375
vt 0.468609375 0.52938125
vt 0 0.8456149717000353
vt 1.1102230246251565e-16 0.9981317226084865
vt 0.46875 1
vt 0.4687478757682168 0.84375
vt 0 0.5
vt 0.46875 0.5
vt 0.46875 1
vt 0 1
vt 0 0.5
vt 0.46875 0.5
vt 0.46875 1
vt 0 1
vt 0 0.53125
vt 0.46875 0.53125
vt 0.46875 0.6875
vt 0 0.6875
vt 0 0.625
vt 0.46875 0.625
vt 0.46875 0.46875
vt 0 0.46875
vt 0 0.6875
vt 0 0.53125
vt 0.46875 0.53125
vt 0.468609375 0.68563125
vt 0 0.6893649717000353
vt 1.1102230246251565e-16 0.8418817226084865
vt 0.46875 0.84375
vt 0.4687478757682168 0.6875
vt 0 0
vt 0.46875 0
vt 0.46875 0.5
vt 0 0.5
vt 0 0
vt 0.46875 0
vt 0.46875 0.5
vt 0 0.5
vt 0 0.6875
vt 0.46875 0.6875
vt 0.46875 0.84375
vt 0 0.84375
vt 0 0.78125
vt 0.46875 0.78125
vt 0.46875 0.625
vt 0 0.625
vt 0 0.84375
vt 0 0.6875
vt 0.46875 0.6875
vt 0.468609375 0.84188125
vt 0 0.5331149717000353
vt 1.1102230246251565e-16 0.6856317226084865
vt 0.46875 0.6875
vt 0.4687478757682168 0.53125
vt 0 0.5
vt 0.46875 0.5
vt 0.46875 1
vt 0 1
vt 0 0.5
vt 0.46875 0.5
vt 0.46875 1
vt 0 1
vt 0 0.84375
vt 0.46875 0.84375
vt 0.46875 1
vt 0 1
vt 0 0.9375
vt 0.46875 0.9375
vt 0.46875 0.78125
vt 0 0.78125
vt 0 1
vt 0 0.84375
vt 0.46875 0.84375
vt 0.468609375 0.99813125
vt 0 0.3768649717000353
vt 1.1102230246251565e-16 0.5293817226084865
vt 0.46875 0.53125
vt 0.4687478757682168 0.375
vt 0 0
vt 0.46875 0
vt 0.46875 0.5
vt 0 0.5
vt 0 0
vt 0.46875 0
vt 0.46875 0.5
vt 0 0.5
vt 0 0.90625
vt 0.46875 0.90625
vt 0.46875 0.8125
vt 0 0.8125
vt 0 0
vt 0.0625 0
vt 0.0625 0.09375
vt 0 0.09375
vt 1 0.09375
vt 0.9999999999999999 0
vt 0.53125 0
vt 0.5314015192483014 0.09375
vt 0.4687499999999998 0
vt 0.46875 0.09130046830063687
vt 0 0.09375
vt 0 0
vt 0 0.5
vt 0.46875 0.5
vt 0.46875 1
vt 0 1
vt 0 0.5
vt 0.46875 0.5
vt 0.46875 1
vt 0 1
vt 0 0.75
vt 0.46875 0.75
vt 0.46875 0.59375
vt 0 0.59375
vt 0 0.53125
vt 0.0625 0.53125
vt 0.0625 0.6875
vt 0 0.6875
vt 1 0.6875
vt 1 0.53125
vt 0.53125 0.53125
vt 0.531390625 0.68563125
vt 1 0.8418850282999647
vt 0.9999999999999999 0.6893682773915135
vt 0.53125 0.6875
vt 0.5312521242317831 0.84375
vt 0 0
vt 0.46875 0
vt 0.46875 0.5
vt 0 0.5
vt 0 0
vt 0.46875 0
vt 0.46875 0.5
vt 0 0.5
vt 0 0.5625
vt 0.46875 0.5625
vt 0.46875 0.40625
vt 0 0.40625
vt 0 0.375
vt 0.46875 0.375
vt 0.46875 0.53125
vt 0 0.53125
vt 1 0.53125
vt 1 0.375
vt 0.53125 0.375
vt 0.531390625 0.52938125
vt 1 0.9981350282999647
vt 0.9999999999999999 0.8456182773915135
vt 0.53125 0.84375
vt 0.5312521242317831 1
vt 0 0.5
vt 0.46875 0.5
vt 0.46875 1
vt 0 1
vt 0 0.5
vt 0.46875 0.5
vt 0.46875 1
vt 0 1
vt 0 0.375
vt 0.46875 0.375
vt 0.46875 0.21875
vt 0 0.21875
vt 0 0.21875
vt 0.46875 0.21875
vt 0.46875 0.375
vt 0 0.375
vt 1 0.375
vt 1 0.21875
vt 0.53125 0.21875
vt 0.531390625 0.37313125
vt 0.46875 0.2168850282999647
vt 0.4687499999999999 0.06436827739151352
vt 0 0.0625
vt 0.0000021242317831404733 0.21875
vt 0 0
vt 0.46875 0
vt 0.46875 0.5
vt 0 0.5
vt 0 0
vt 0.46875 0
vt 0.46875 0.5
vt 0 0.5
vt 0 0.15625
vt 0.46875 0.15625
vt 0.46875 0
vt 0 0
vt 0 0.0625
vt 0.46875 0.0625
vt 0.46875 0.21875
vt 0 0.21875
vt 1 0.21875
vt 1 0.0625
vt 0.53125 0.0625
vt 0.531390625 0.21688125000000003
vt 0.46875 0.3731350282999647
vt 0.4687499999999999 0.22061827739151352
vt 0 0.21875
vt 0.0000021242317831404733 0.375
vt 0 0.5
vt 0.46875 0.5
vt 0.46875 1
vt 0 1
vt 0 0.5
vt 0.46875 0.5
vt 0.46875 1
vt 0 1
vn -1 0 1.2246467991473532e-16
vn 0.9999995450422532 0.0009538947987112952 -1.2246462419848047e-16
vn 1.2246467991473532e-16 7.993605777301127e-16 1
vn -1.2778432310388682e-16 -1.4210854715202005e-15 -1
vn 0.0037433398797129887 0.9999929936787284 -2.512987683231375e-17
vn 0 -1 0
vn -0.987688340595138 0.15643446504023048 1.2095693648649964e-16
vn 0.9876883405951378 -0.1564344650402315 -1.2095693648649962e-16
vn -3.7113014648085664e-16 7.817774032575229e-17 1
vn -3.500255749824931e-16 -1.4027573756731459e-15 -1
vn 0.16013062216418797 0.9870958331617605 -1.96103453878847e-17
vn -0.15273611585603358 -0.9882670079048539 1.8704779539729084e-17
vn -0.9510565162951534 0.30901699437494856 1.164708318489092e-16
vn 0.9510565162951536 -0.30901699437494745 -1.1647083184890926e-16
vn 8.615012285424448e-16 3.12186227322883e-15 1
vn -1.984863467398075e-16 -5.205060980618686e-15 -1
vn 0.3125749570879153 0.9498930972491001 -3.827939206913367e-17
vn -0.30545470151729787 -0.9522066085262055 3.7407412249766903e-17
vn -0.8910065241883678 0.453990499739547 1.0911682878666934e-16
vn 0.8910065241883678 -0.453990499739547 -1.0911682878666934e-16
vn -3.0995924227781183e-15 -1.9468533053219746e-15 1
vn 2.406278494689845e-15 5.888687795040167e-15 -1
vn 0.45732265919133014 0.8893008407677184 -5.600587307562183e-17
vn -0.45065197868117257 -0.8926997222530901 5.5188950322131925e-17
vn -0.8090169943749471 0.5877852522924738 9.907600726170912e-17
vn 0.8090169943749473 -0.5877852522924734 1.6936920850328957e-17
vn -2.5558699900263924e-15 -2.0063320084882625e-15 1
vn 8.3796572087538225e-16 2.8153229579093632e-15 -1
vn 0.5908095596585659 0.806811046166357 -7.235330361415199e-17
vn -0.5847527085017477 -0.811211606117584 7.161155327594105e-17
vn -0.7071067811865476 0.7071067811865476 8.659560562354934e-17
vn 0.7071067811865487 -0.7071067811865465 1.9253194258690069e-16
vn 1.6681845597940375e-15 2.9761464011299698e-15 1
vn -1.858738991976672e-15 -3.28802155572615e-15 -1
vn 0.7097487679824963 0.7044548859560339 -3.649998789612836e-16
vn -0.7044548859560342 -0.709748767982496 2.2635607304093446e-16
vn -0.0016027741755843324 -0.9999987153980728 -0.000017808601950739576
vn 0 1 0
vn -5.3102201133556e-15 3.065510726403802e-15 1
vn -1.271311702465728e-16 -3.109557767016805e-15 -1
vn -0.9999929936787284 -0.003743339879712433 1.2468032435368572e-16
vn 0.9998601759365597 -0.012498252199207032 -0.011109557510406418
vn 0.15643446504023 -0.9876883405951379 5.656712829819054e-16
vn -0.1564344650402319 0.9876883405951377 -7.606142762054651e-16
vn 3.3599529868574885e-15 5.003520153729241e-16 1
vn 1.0250495786575299e-14 -3.4236551495321636e-16 -1
vn -0.9870958331617606 -0.16013062216418816 1.840952921152738e-16
vn 0.9882670079048539 0.15273611585603383 -2.4161173347082644e-16
vn 0.30901699437494873 -0.9510565162951533 3.37582054335009e-16
vn -0.3090169943749488 0.9510565162951533 -7.130077759743603e-16
vn -3.923475385174896e-15 1.8510823689908537e-15 1
vn -5.728299268952956e-15 -3.94909669665599e-15 -1
vn -0.9498930972491002 -0.3125749570879147 1.4597444029648903e-16
vn 0.9522066085262058 0.30545470151729787 -3.5776569893350934e-16
vn 0.4539904997395465 -0.891006524188368 3.4092615776529555e-16
vn -0.4539904997395471 0.8910065241883677 -6.478446579616253e-16
vn 5.063776273337994e-15 4.733717204037092e-15 1
vn 2.9712990468785564e-15 3.4218558525092783e-16 -1
vn -0.8893008407677185 -0.45732265919132975 2.894342169163529e-16
vn 0.89269972225309 0.4506519786811724 -4.651102855321698e-16
vn 0.5877852522924727 -0.8090169943749478 2.4737326080806224e-16
vn -0.5877852522924738 0.8090169943749469 -5.667294543967237e-16
vn -1.0525122744082194e-15 1.6172170369004008e-15 1
vn -3.58082722877177e-15 -6.386566211891174e-15 -1
vn -0.8068110461663568 -0.5908095596585664 3.3202554587211354e-16
vn 0.811211606117584 0.5847527085017478 -5.610023132884885e-16
usemtl m_keystones
f 4/1/1 2/2/1 1/3/1 3/4/1
usemtl m_arch
f 7/5/2 5/6/2 6/7/2 8/8/2
usemtl m_keystones
f 1/9/3 2/10/3 6/11/3 5/12/3
f 4/13/4 3/14/4 7/15/4 8/16/4
usemtl m_arch
f 3/17/5 1/18/5 5/19/5 7/20/5
f 8/21/6 6/22/6 2/23/6 4/24/6
usemtl m_keystones
f 12/25/7 10/26/7 9/27/7 11/28/7
usemtl m_arch
f 14/29/8 13/30/8 5/31/8 7/32/8
usemtl m_keystones
f 9/33/9 10/34/9 5/35/9 13/36/9
f 12/37/10 11/38/10 14/39/10 7/40/10
usemtl m_arch
f 11/41/11 9/42/11 13/43/11 14/44/11
f 7/45/12 5/46/12 10/47/12 12/48/12
usemtl m_keystones
f 18/49/13 16/50/13 15/51/13 17/52/13
usemtl m_arch
f 20/53/14 19/54/14 13/55/14 14/56/14
usemtl m_keystones
f 15/57/15 16/58/15 13/59/15 19/60/15
f 18/61/16 17/62/16 20/63/16 14/64/16
usemtl m_arch
f 17/65/17 15/66/17 19/67/17 20/68/17
f 14/69/18 13/70/18 16/71/18 18/72/18
usemtl m_keystones
f 24/73/19 22/74/19 21/75/19 23/76/19
usemtl m_arch
f 26/77/20 25/78/20 19/79/20 20/80/20
usemtl m_keystones
f 21/81/21 22/82/21 19/83/21 25/84/21
f 24/85/22 23/86/22 26/87/22 20/88/22
usemtl m_arch
f 23/89/23 21/90/23 25/91/23 26/92/23
f 20/93/24 19/94/24 22/95/24 24/96/24
usemtl m_keystones
f 30/97/25 28/98/25 27/99/25 29/100/25
usemtl m_arch
f 32/101/26 31/102/26 25/103/26 26/104/26
usemtl m_keystones
f 27/105/27 28/106/27 25/107/27 31/108/27
f 30/109/28 29/110/28 32/111/28 26/112/28
usemtl m_arch
f 29/113/29 27/114/29 31/115/29 32/116/29
f 26/117/30 25/118/30 28/119/30 30/120/30
usemtl m_keystones
f 36/121/31 34/122/31 33/123/31 35/124/31
usemtl m_arch
f 38/125/32 37/126/32 31/127/32 32/128/32
usemtl m_keystones
f 33/129/33 34/130/33 31/131/33 37/132/33
f 36/133/34 35/134/34 38/135/34 32/136/34
usemtl m_arch
f 35/137/35 33/138/35 37/139/35 38/140/35
f 32/141/36 31/142/36 34/143/36 36/144/36
f 42/145/37 40/146/37 39/147/37 41/148/37
usemtl m_keystones
f 45/149/38 43/150/38 44/151/38 46/152/38
f 39/153/39 40/154/39 44/155/39 43/156/39
f 42/157/40 41/158/40 45/159/40 46/160/40
usemtl m_arch
f 41/161/41 39/162/41 43/163/41 45/164/41
f 46/165/42 44/166/42 40/167/42 42/168/42
f 41/169/43 39/170/43 47/171/43 48/172/43
usemtl m_keystones
f 51/173/44 49/174/44 50/175/44 52/176/44
f 47/177/45 39/178/45 50/179/45 49/180/45
f 41/181/46 48/182/46 51/183/46 52/184/46
usemtl m_arch
f 48/185/47 47/186/47 49/187/47 51/188/47
f 52/189/48 50/190/48 39/191/48 41/192/48
f 48/193/49 47/194/49 53/195/49 54/196/49
usemtl m_keystones
f 57/197/50 55/198/50 56/199/50 58/200/50
f 53/201/51 47/202/51 56/203/51 55/204/51
f 48/205/52 54/206/52 57/207/52 58/208/52
usemtl m_arch
f 54/209/53 53/210/53 55/211/53 57/212/53
f 58/213/54 56/214/54 47/215/54 48/216/54
f 54/217/55 53/218/55 59/219/55 60/220/55
usemtl m_keystones
f 63/221/56 61/222/56 62/223/56 64/224/56
f 59/225/57 53/226/57 62/227/57 61/228/57
f 54/229/58 60/230/58 63/231/58 64/232/58
usemtl m_arch
f 60/233/59 59/234/59 61/235/59 63/236/59
f 64/237/60 62/238/60 53/239/60 54/240/60
f 60/241/61 59/242/61 37/243/61 38/244/61
usemtl m_keystones
f 67/245/62 65/246/62 66/247/62 68/248/62
f 37/249/63 59/250/63 66/251/63 65/252/63
f 60/253/64 38/254/64 67/255/64 68/256/64
usemtl m_arch
f 38/257/65 37/258/65 65/259/65 67/260/65
f 68/261/66 66/262/66 59/263/66 60/264/66
o mortar_3
v 0.8292300754638942 1.5 -0.5171874999999977
v 0.8292300754638942 1.5 0.004687499999995265
v 0.8862465003247955 0.9939652332543323 -0.5171874999999937
v 0.8862465003247956 0.9939652332543323 0.004687499999996583
v 0.4962533434810277 1.4240002338011526 -0.5171875000000004
v 0.4962533434810278 1.4240002338011526 0.004687499999992659
v 0.6644435764413498 0.9433401632772804 -0.5171874999999937
v 0.6644435764413499 0.9433401632772804 0.004687499999996611
v 0.1885365723188741 1.2758116470280552 -0.5171874999999923
v 0.18853657231887422 1.2758116470280552 0.004687499999995345
v 0.4594668527967355 0.8446285757237092 -0.5171874999999937
v 0.4594668527967356 0.8446285757237093 0.004687499999996635
v -0.07849003420316003 1.0628650342031603 -0.5171874999999923
v -0.07849003420316003 1.0628650342031603 0.004687499999995376
v 0.28159471822275217 0.7027802817772478 -0.5171874999999949
v 0.2815947182227523 0.7027802817772477 0.004687499999996656
v -0.29143664702805516 0.7958384276811258 -0.5171874999999935
v -0.29143664702805516 0.7958384276811259 0.004687499999996729
v 0.1397464242762907 0.5249081472032645 -0.5171874999999923
v 0.1397464242762908 0.5249081472032645 0.004687499999997999
v -0.4396252338011528 0.4881216565189723 -0.5171874999999928
v -0.4396252338011528 0.4881216565189723 0.004687499999998734
v 0.04103483672271924 0.31993142355865023 -0.5171874999999923
v 0.04103483672271935 0.31993142355865023 0.004687499999998675
v -0.515625 0.1551449245361059 -0.5171874999999915
v -0.515625 0.1551449245361059 0.0046874999999994005
v -0.009590233254332059 0.09812849967520451 -0.5171874999999915
v -0.009590233254332059 0.09812849967520451 0.0046874999999993415
v -0.515625 -0.125 -0.5171874999999901
v -0.515625 -0.12499999999999999 0.00468750000000023
v -0.009590233254332059 -0.125 -0.5171874999999903
v -0.009590233254332059 -0.12499999999999999 0.004687500000000171
v 0.9999999999999999 1.5 -0.5171874999999977
v 1 1.5 0.004687499999995244
v 0.9999999999999999 0.9939652332543323 -0.5171874999999937
v 1 0.9939652332543323 0.004687499999996569
vt 1.1102230246251565e-16 0.4374999999999999
vt 1.1102230246251565e-16 0.15625
vt 0.4375000000000001 0.15625
vt 0.4375000000000001 0.4375
vt 1 0.28125
vt 1 0.046875
vt 0.5000002578709046 0
vt 0.5 0.328125
vt 2.220446049250313e-16 0.328125
vt 0 0
vt 0.5 0.046875
vt 0.5 0.28125
vt 1.1102230246251565e-16 0.7187499999999999
vt 1.1102230246251565e-16 0.4375
vt 0.4375000000000001 0.4375
vt 0.4375000000000001 0.71875
vt 0.5 0.953125
vt 0.5 0.71875
vt 2.5787090462969786e-7 0.671875
vt 0 1
vt 0.5000000000000002 1
vt 0.5 0.671875
vt 1 0.71875
vt 1 0.953125
vt 1.1102230246251565e-16 0.9999999999999999
vt 1.1102230246251565e-16 0.71875
vt 0.4375000000000001 0.71875
vt 0.4375000000000001 1
vt 0.5 0.625
vt 0.5 0.390625
vt 2.5787090462969786e-7 0.34375
vt 0 0.671875
vt 0.5000000000000002 0.671875
vt 0.5 0.34375
vt 1 0.390625
vt 1 0.625
vt 1.1102230246251565e-16 0.2812499999999999
vt 1.1102230246251565e-16 0
vt 0.4375000000000001 0
vt 0.4375000000000001 0.28125
vt 0.5 0.28125
vt 0.5 0.046875
vt 2.5787090462969786e-7 0
vt 0 0.328125
vt 0.5000000000000002 0.328125
vt 0.5 0
vt 1 0.046875
vt 1 0.28125
vt 1.1102230246251565e-16 0.8437499999999999
vt 1.1102230246251565e-16 0.5625
vt 0.4375000000000001 0.5625
vt 0.4375000000000001 0.84375
vt 1 0.953125
vt 1 0.71875
vt 0.5000002578709046 0.671875
vt 0.5 1
vt 2.220446049250313e-16 1
vt 0 0.671875
vt 0.5 0.71875
vt 0.5 0.953125
vt 1.1102230246251565e-16 0.5624999999999999
vt 1.1102230246251565e-16 0.28125
vt 0.4375000000000001 0.28125
vt 0.4375000000000001 0.5625
vt 1 0.625
vt 1 0.390625
vt 0.5000002578709046 0.34375
vt 0.5 0.671875
vt 2.220446049250313e-16 0.671875
vt 0 0.34375
vt 0.5 0.390625
vt 0.5 0.625
vt 0 0.2812499999999999
vt 0 0
vt 0.4375 0
vt 0.4375 0.28125
vt 0.4375 0
vt 0.4375 0.21875
vt 0 0.21875
vt 0 0
vt 1 0.265625
vt 1 0.03125
vt 0.5 0.03125
vt 0.5 0.3125
vt 0 0.3125
vt 0 0.03125
vt 0.5 0.03125
vt 0.5 0.265625
vt 1.1102230246251565e-16 0.9999999999999999
vt 1.1102230246251565e-16 0.84375
vt 0.4375000000000001 0.8437500000000001
vt 0.4375000000000001 1
vt 0.5 0
vt 0.5 0.09375
vt 0 0.140625
vt 0 0
vt 0.5 0
vt 0.5 0.140625
vt 1 0.09375
vt 1 0
vt 0 0.9999999999999998
vt 0 0.5
vt 0.4375 0.5000000000000002
vt 0.4375 1
vt 0 0.4999999999999998
vt 0 0
vt 0.4375 2.220446049250313e-16
vt 0.4375 0.5
vn -0.22252093395631506 0.9749279121818235 2.7250954951288082e-17
vn 2.8067553726303225e-15 -1.2833751590803236e-14 -1
vn -8.986477480858162e-15 5.0773546745510004e-15 1
vn -0.4338837391175577 0.9009688679024194 5.3135433231240226e-17
vn -1.2647760359742838e-15 2.372033972405213e-15 -1
vn 5.590371845280041e-15 6.5094168680952154e-15 1
vn -0.6234898018587336 0.7818314824680297 7.635547901473156e-17
vn 7.615153063986593e-16 8.283724744038465e-15 -1
vn -1.5104842893822632e-15 2.047653240925628e-15 1
vn -0.7818314824680298 0.6234898018587337 -2.1042711428335934e-17
vn -4.334615687054149e-15 -1.1620981722873637e-14 -1
vn 1.5239941462629897e-16 4.939411291117181e-15 1
vn -0.900968867902419 0.4338837391175583 1.103368640208112e-16
vn 1.0635523062878713e-15 -5.711556780297754e-16 -1
vn 2.0570768151935925e-15 5.528803837252819e-15 1
vn -0.9749279121818237 0.2225209339563144 1.1939423470528823e-16
vn -2.9345572350630886e-16 -3.4647860823249237e-15 -1
vn 3.3993104556296195e-16 1.930067377677541e-15 1
vn -1 0 1.2246467991473532e-16
vn 1 0 -1.2246467991473532e-16
vn -1.2246467991473532e-16 -5.473282565272342e-15 -1
vn 1.2246467991473532e-16 2.959888789311421e-15 1
vn 0 1 0
vn -1.2246467991473532e-16 -7.898277255442709e-15 -1
vn 1.2246467991473532e-16 2.619046798245759e-15 1
vn 1 0 -1.2246467991473532e-16
vn 3.256601373525547e-33 -1 2.659216825449525e-17
usemtl m_mortar
f 69/265/67 73/266/67 74/267/67 70/268/67
f 71/269/68 75/270/68 73/271/68 69/272/68
f 70/273/69 74/274/69 76/275/69 72/276/69
f 73/277/70 77/278/70 78/279/70 74/280/70
f 75/281/71 79/282/71 77/283/71 73/284/71
f 74/285/72 78/286/72 80/287/72 76/288/72
f 77/289/73 81/290/73 82/291/73 78/292/73
f 79/293/74 83/294/74 81/295/74 77/296/74
f 78/297/75 82/298/75 84/299/75 80/300/75
f 81/301/76 85/302/76 86/303/76 82/304/76
f 83/305/77 87/306/77 85/307/77 81/308/77
f 82/309/78 86/310/78 88/311/78 84/312/78
f 85/313/79 89/314/79 90/315/79 86/316/79
f 87/317/80 91/318/80 89/319/80 85/320/80
f 86/321/81 90/322/81 92/323/81 88/324/81
f 89/325/82 93/326/82 94/327/82 90/328/82
f 91/329/83 95/330/83 93/331/83 89/332/83
f 90/333/84 94/334/84 96/335/84 92/336/84
f 93/337/85 97/338/85 98/339/85 94/340/85
f 96/341/86 100/342/86 99/343/86 95/344/86
f 95/345/87 99/346/87 97/347/87 93/348/87
f 94/349/88 98/350/88 100/351/88 96/352/88
f 101/353/89 69/354/89 70/355/89 102/356/89
f 103/357/90 71/358/90 69/359/90 101/360/90
f 102/361/91 70/362/91 72/363/91 104/364/91
f 102/365/92 104/366/92 103/367/92 101/368/92
f 97/369/93 99/370/93 100/371/93 98/372/93