mtllib brick_arch.mtl

o mortar
v 0.592471 1.444918 -0.5083622477064216
v 0.529971 0.969333 -0.5081426911314968
v 0.469326 0.969333 -0.5081426911314968
v 0.4071775 1.444918 -0.5087588455657491
v 0.592471 1.444918 0.009121811926606216
v 0.529971 0.969332 0.008868623853212299
v 0.469326 0.969332 0.008868623853212299
v 0.4071775 1.444918 0.008725214067278553
v 1.491544 0.187256 0.009375000000000022
v 1.491544 0.187256 -0.5085818042813448
v 1.455284 0.41619 -0.5085818042813448
v 1.455284 0.41619 0.009375000000000022
v 1.383658 0.636633 -0.5085818042813448
v 1.383658 0.636633 0.009375000000000022
v 0.874175 0.5954305 -0.5085818042813448
v 1.278429 0.843157 0.009375000000000022
v 1.278429 0.843157 -0.5085818042813448
v 1.142187 1.030677 -0.5085818042813448
v 1.142187 1.030677 0.009375000000000022
v 0.984109 1.200196 0.009375000000000022
v 0.6670905 0.8481115 -0.5085818042813448
v 0.984109 1.200196 -0.5085818042813448
v 0.5479315 0.937904 -0.5085818042813448
v 0.798995 1.339689 -0.5085818042813448
v 0.798995 1.339689 0.009375000000000022
v 0.501559 0.9586680000000001 -0.5085818042813448
v 1.015958 -0.044531 -0.5085818042813448
v 1.491544 -0.044531 -0.5085818042813448
v 1.491544 -0.044531 0.009375000000000022
v 1.015958 -0.044531 0.009375000000000022
v 1.0188855 0.150057 -0.5085818042813448
v 0.9456285 0.4551955 -0.5085818042813448
v 0.775898 0.7287315 -0.5085818042813448
v 0.9942645 0.30550900000000003 -0.5085818042813448
v 0.9942645 0.30550900000000003 0.009375000000000022
v 0.9456285 0.4551955 0.009375000000000022
v 0.874175 0.5954305 0.009375000000000022
v 0.775898 0.7287315 0.009375000000000022
v 0.6670905 0.8481115 0.009375000000000022
v 0.5479315 0.937904 0.009375000000000022
v 0.501559 0.9586680000000001 0.009375000000000022
v 1.0188855 0.150057 0.009375000000000022
v -0.491544 0.187256 -0.509375
v -0.491544 0.187256 0.008581804281344807
v -0.455284 0.41619 0.008581804281344807
v -0.455284 0.41619 -0.509375
v -0.38365800000000005 0.636633 0.008581804281344807
v -0.38365800000000005 0.636633 -0.509375
v 0.12582499999999996 0.5954305 0.008581804281344807
v -0.27842900000000004 0.843157 -0.509375
v -0.27842900000000004 0.843157 0.008581804281344807
v -0.14218700000000006 1.030677 0.008581804281344807
v -0.14218700000000006 1.030677 -0.509375
v 0.01589099999999999 1.200196 -0.509375
v 0.33290949999999997 0.8481115 0.008581804281344807
v 0.01589099999999999 1.200196 0.008581804281344807
v 0.4520685 0.937904 0.008581804281344807
v 0.201005 1.339689 0.008581804281344807
v 0.201005 1.339689 -0.509375
v 0.498441 0.9586680000000001 0.008581804281344807
v -0.015957999999999917 -0.044531 0.008581804281344807
v -0.491544 -0.044531 0.008581804281344807
v -0.491544 -0.044531 -0.509375
v -0.015957999999999917 -0.044531 -0.509375
v -0.01888550000000011 0.150057 0.008581804281344807
v 0.05437150000000002 0.4551955 0.008581804281344807
v 0.22410200000000002 0.7287315 0.008581804281344807
v 0.0057355000000000045 0.30550900000000003 0.008581804281344807
v 0.0057355000000000045 0.30550900000000003 -0.509375
v 0.05437150000000002 0.4551955 -0.509375
v 0.12582499999999996 0.5954305 -0.509375
v 0.22410200000000002 0.7287315 -0.509375
v 0.33290949999999997 0.8481115 -0.509375
v 0.4520685 0.937904 -0.509375
v 0.498441 0.9586680000000001 -0.509375
v -0.01888550000000011 0.150057 -0.509375
vt 0 0.8125
vt 0.46875 0.875
vt 0.46875 0.9375
vt 0 1
vt 0.46875 0.9375
vt 0 1
vt 0 0.8125
vt 0.46875 0.875
vt 0.625 1
vt 0.6249999999999999 0.5625
vt 0.40625 0.5625
vt 0.4062500000000001 1
vt 1 0
vt 0.53125 0
vt 0.53125 0.1875
vt 1 0.21875
vt 0.1875 1
vt 0.1874999999999999 0.5625
vt 0 0.5625
vt 1.1102230246251565e-16 1
vt 0.875 1
vt 0.8749999999999999 0.5625
vt 0.65625 0.5625
vt 0.6562500000000001 1
vt 0.9999971523614951 0.1875
vt 0.53125 0.21875
vt 0.53125 0.375
vt 1 0.40625
vt 0.65625 1
vt 0.6562499999999999 0.5625
vt 0.4375 0.5625
vt 0.4375000000000001 1
vt 0.9999971523614951 0.375
vt 0.53125 0.40625
vt 0.53125 0.5625
vt 1 0.59375
vt 0.4375 1
vt 0.4374999999999999 0.5625
vt 0.21875 0.5625
vt 0.2187500000000001 1
vt 0.9999971523614951 0.5625
vt 0.53125 0.59375
vt 0.53125 0.75
vt 1 0.78125
vt 0.21875 1
vt 0.2187499999999999 0.5625
vt 0 0.5625
vt 1.1102230246251565e-16 1
vt 0.9999971523614951 0.75
vt 0.53125 0.78125
vt 0.53125 0.9375
vt 1 0.96875
vt 1 1
vt 0.9999999999999999 0.5625
vt 0.78125 0.5625
vt 0.7812500000000001 1
vt 0.9999971523614951 0.1875
vt 0.53125 0.21875
vt 0.53125 0.375
vt 1 0.40625
vt 0.78125 1
vt 0.7812499999999999 0.5625
vt 0.5625 0.5625
vt 0.5625000000000001 1
vt 0.9999971523614951 0.375
vt 0.53125 0.40625
vt 0.53125 0.5625
vt 1 0.59375
vt 0.5625 1
vt 0.5624999999999999 0.5625
vt 0.34375 0.5625
vt 0.3437500000000001 1
vt 1 0
vt 0.53125 0
vt 0.53125 0.046875
vt 1 0.21875
vt 0.34375 1
vt 0.3437499999999999 0.5625
vt 0.125 0.5625
vt 0.1250000000000001 1
vt 0 0.5625
vt 0.46875 0.5625
vt 0.46875 1
vt 0 1
vt 0.46875 0.1875
vt 0.46875 0
vt 0 0
vt 0 0.21875
vt 0.46875 0.375
vt 0.46875 0.21875
vt 0.0000026868602920508656 0.1875
vt 0 0.40625
vt 0.46875 0.5625
vt 0.46875 0.40625
vt 0.0000026868602920508656 0.375
vt 0 0.59375
vt 0.46875 0.75
vt 0.46875 0.59375
vt 0.0000026868602920508656 0.5625
vt 0 0.78125
vt 0.46875 0.9375
vt 0.46875 0.78125
vt 0.0000026868602920508656 0.75
vt 0 0.96875
vt 0.46875 0.375
vt 0.46875 0.21875
vt 0.000002686860292033799 0.1875
vt 0 0.40625
vt 0.46875 0.5625
vt 0.46875 0.40625
vt 0.0000026868602920508656 0.375
vt 0 0.59375
vt 0.53125 0.046875
vt 0.53125 0
vt 1 2.220446049250313e-16
vt 1 0.21875
vt 1 0
vt 0.53125 0
vt 0.53125 0.1875
vt 1 0.21875
vt 1 1
vt 0.9999999999999999 0.5625
vt 0.8125 0.5625
vt 0.8125000000000001 1
vt 0.875 1
vt 0.8749999999999999 0.5625
vt 0.65625 0.5625
vt 0.6562500000000001 1
vt 0.9999971523614951 0.1875
vt 0.53125 0.21875
vt 0.53125 0.375
vt 1 0.40625
vt 0.65625 1
vt 0.6562499999999999 0.5625
vt 0.4375 0.5625
vt 0.4375000000000001 1
vt 0.9999971523614951 0.375
vt 0.53125 0.40625
vt 0.53125 0.5625
vt 1 0.59375
vt 0.4375 1
vt 0.4374999999999999 0.5625
vt 0.21875 0.5625
vt 0.2187500000000001 1
vt 0.9999971523614951 0.5625
vt 0.53125 0.59375
vt 0.53125 0.75
vt 1 0.78125
vt 0.21875 1
vt 0.2187499999999999 0.5625
vt 0 0.5625
vt 1.1102230246251565e-16 1
vt 0.9999971523614951 0.75
vt 0.53125 0.78125
vt 0.53125 0.9375
vt 1 0.96875
vt 1 1
vt 0.9999999999999999 0.5625
vt 0.78125 0.5625
vt 0.7812500000000001 1
vt 0.9999971523614951 0.1875
vt 0.53125 0.21875
vt 0.53125 0.375
vt 1 0.40625
vt 0.78125 1
vt 0.7812499999999999 0.5625
vt 0.5625 0.5625
vt 0.5625000000000001 1
vt 0.9999971523614951 0.375
vt 0.53125 0.40625
vt 0.53125 0.5625
vt 1 0.59375
vt 0.5625 1
vt 0.5624999999999999 0.5625
vt 0.34375 0.5625
vt 0.3437500000000001 1
vt 1 0
vt 0.53125 0
vt 0.53125 0.046875
vt 1 0.21875
vt 0.34375 1
vt 0.3437499999999999 0.5625
vt 0.125 0.5625
vt 0.1250000000000001 1
vt 0.53125 0.5625
vt 1 0.5625
vt 1 1
vt 0.53125 1
vt 0.46875 0.1875
vt 0.46875 0
vt 0 0
vt 0 0.21875
vt 0.46875 0.375
vt 0.46875 0.21875
vt 0.0000026868602920508656 0.1875
vt 0 0.40625
vt 0.46875 0.5625
vt 0.46875 0.40625
vt 0.0000026868602920508656 0.375
vt 0 0.59375
vt 0.46875 0.75
vt 0.46875 0.59375
vt 0.0000026868602920508656 0.5625
vt 0 0.78125
vt 0.46875 0.9375
vt 0.46875 0.78125
vt 0.0000026868602920508656 0.75
vt 0 0.96875
vt 0.46875 0.375
vt 0.46875 0.21875
vt 0.000002686860292033799 0.1875
vt 0 0.40625
vt 0.46875 0.5625
vt 0.46875 0.40625
vt 0.0000026868602920508656 0.375
vt 0 0.59375
vt 0.53125 0.046875
vt 0.53125 0
vt 1 2.220446049250313e-16
vt 1 0.21875
vn 0 -0.0004616557534997357 -0.999999893436977
vn -0.002140371563921963 -0.0002510886836776832 0.9999976778793246
vn 0 1 0
vn 0 0 -1
vn -0.999886849106681 0.015042904756511207 0
vn 1 0 0
vn 0 0 -1
vn 0.9876880629310506 0.15643621813221212 0
vn 0 0 -1
vn 0.9510568619309065 0.3090159306154565 0
vn 0 0 -1
vn 0.8910069324384844 0.45398969850268867 0
vn 0 0 -1
vn 0.8090154656507837 0.5877873563950194 0
vn 0 0 -1
vn 0.7313559070650489 0.6819959950036801 0
vn 0 0 -1
vn 0.6018139102641644 0.7986363486672495 0
vn 0 0 -1
vn 0.45398969850268867 0.8910069324384844 0
vn 0 -1 0
vn 0 0 1
vn 0 0 1
vn 0 0 1
vn 0 0 1
vn 0 0 1
vn 0 0 1
vn 0 0 1
vn 0 0 1
vn 0 0 1
vn 0.999886849106681 0.015042904756511207 0
vn -1 0 0
vn 0 0 1
vn -0.9876880629310506 0.15643621813221212 0
vn 0 0 1
vn -0.9510568619309065 0.3090159306154565 0
vn 0 0 1
vn -0.8910069324384844 0.45398969850268867 0
vn 0 0 1
vn -0.8090154656507837 0.5877873563950194 0
vn 0 0 1
vn -0.7313559070650489 0.6819959950036801 0
vn 0 0 1
vn -0.6018139102641644 0.7986363486672495 0
vn 0 0 1
vn -0.45460384756319755 0.8906937418556039 0
vn 0 -1 0
vn 0 0 -1
vn 0 0 -1
vn 0 0 -1
vn 0 0 -1
vn 0 0 -1
vn 0 0 -1
vn 0 0 -1
vn 0 0 -1
usemtl m_mortar
f 1/1/1 2/2/1 3/3/1 4/4/1
f 6/5/2 5/6/2 8/7/2 7/8/2
f 5/9/3 1/10/3 4/11/3 8/12/3
f 28/13/4 27/14/4 31/15/4 10/16/4
f 27/17/5 30/18/5 42/19/5 31/20/5
f 29/21/6 28/22/6 10/23/6 9/24/6
f 10/25/7 31/26/7 34/27/7 11/28/7
f 9/29/8 10/30/8 11/31/8 12/32/8
f 11/33/9 34/34/9 32/35/9 13/36/9
f 12/37/10 11/38/10 13/39/10 14/40/10
f 13/41/11 32/42/11 15/43/11 17/44/11
f 14/45/12 13/46/12 17/47/12 16/48/12
f 17/49/13 15/50/13 33/51/13 18/52/13
f 16/53/14 17/54/14 18/55/14 19/56/14
f 18/57/15 33/58/15 21/59/15 22/60/15
f 19/61/16 18/62/16 22/63/16 20/64/16
f 22/65/17 21/66/17 23/67/17 24/68/17
f 20/69/18 22/70/18 24/71/18 25/72/18
f 24/73/19 23/74/19 26/75/19 1/76/19
f 25/77/20 24/78/20 1/79/20 5/80/20
f 27/81/21 28/82/21 29/83/21 30/84/21
f 42/85/22 30/86/22 29/87/22 9/88/22
f 35/89/23 42/90/23 9/91/23 12/92/23
f 36/93/24 35/94/24 12/95/24 14/96/24
f 37/97/25 36/98/25 14/99/25 16/100/25
f 38/101/26 37/102/26 16/103/26 19/104/26
f 39/105/27 38/106/27 19/107/27 20/108/27
f 40/109/28 39/110/28 20/111/28 25/112/28
f 41/113/29 40/114/29 25/115/29 5/116/29
f 62/117/30 61/118/30 65/119/30 44/120/30
f 61/121/31 64/122/31 76/123/31 65/124/31
f 63/125/32 62/126/32 44/127/32 43/128/32
f 44/129/33 65/130/33 68/131/33 45/132/33
f 43/133/34 44/134/34 45/135/34 46/136/34
f 45/137/35 68/138/35 66/139/35 47/140/35
f 46/141/36 45/142/36 47/143/36 48/144/36
f 47/145/37 66/146/37 49/147/37 51/148/37
f 48/149/38 47/150/38 51/151/38 50/152/38
f 51/153/39 49/154/39 67/155/39 52/156/39
f 50/157/40 51/158/40 52/159/40 53/160/40
f 52/161/41 67/162/41 55/163/41 56/164/41
f 53/165/42 52/166/42 56/167/42 54/168/42
f 56/169/43 55/170/43 57/171/43 58/172/43
f 54/173/44 56/174/44 58/175/44 59/176/44
f 58/177/45 57/178/45 60/179/45 8/180/45
f 59/181/46 58/182/46 8/183/46 4/184/46
f 61/185/47 62/186/47 63/187/47 64/188/47
f 76/189/48 64/190/48 63/191/48 43/192/48
f 69/193/49 76/194/49 43/195/49 46/196/49
f 70/197/50 69/198/50 46/199/50 48/200/50
f 71/201/51 70/202/51 48/203/51 50/204/51
f 72/205/52 71/206/52 50/207/52 53/208/52
f 73/209/53 72/210/53 53/211/53 54/212/53
f 74/213/54 73/214/54 54/215/54 59/216/54
f 75/217/55 74/218/55 59/219/55 4/220/55
o bricks_selection
v 0.578125 1.4145120000000002 -0.5302826458163625
v 0.421875 1.4145120000000002 -0.5304127199321912
v 0.578125 1.414512 0.02707728145396837
v 0.42187500000000006 1.414512 0.026817133222310163
v 0.578125 1.236054780156599 -0.5287905581044539
v 0.421875 1.236054780156599 -0.5287905581044539
v 0.421875 1.2360547801565989 0.025196009910468664
v 0.578125 1.2360547801565989 0.025196009910468664
v 0.515417375 0.925917875 -0.5316237592800594
v 0.728224 1.343576 -0.5302826458163625
v 0.271776 1.343576 -0.5304127199321912
v 0.5 1.2483395000000004 -0.5316237592800594
v 0.48458262500000004 0.925917875 -0.5312035497861103
v 0.46093774507263224 1.3314252287285508 -0.5316237592800594
v 0.515417375 0.925917875 0.026667522026210144
v 0.728224 1.343576 0.02707728145396837
v 0.2717760000000001 1.343576 0.026817133222310163
v 0.5 1.2483395000000004 0.026791105417696248
v 0.48458262500000004 0.925917875 0.02664801711389697
v 0.46093774507263224 1.3314252287285508 0.026804119238356683
v 0.963372 0.309359 -0.5323649999999999
v 0.015292 0.000635 0.027945480742052498
v 0.015292 0.000635 -0.5323649999999999
v 0.0137385 0.1559585 -0.5323649999999999
v 0.0137385 0.1559585 0.027945480742052498
v -0.453458 0.000635 -0.5323649999999999
v -0.453458 0.000635 0.027945480742052498
v -0.453458 0.156885 0.027945480742052498
v -0.453458 0.156885 -0.5323649999999999
v 0.036628 0.309359 -0.5323649999999999
v 0.036628 0.309359 0.027945480742052498
v -0.450794 0.228361 -0.5323649999999999
v -0.450794 0.228361 0.027945480742052498
v -0.426351 0.382687 -0.5323649999999999
v -0.426351 0.382687 0.027945480742052498
v 0.084912 0.457961 -0.5323649999999999
v 0.084912 0.457961 0.027945480742052498
v -0.40918 0.45421 -0.5323649999999999
v -0.40918 0.45421 0.027945480742052498
v -0.360896 0.602813 -0.5323649999999999
v -0.360896 0.602813 0.027945480742052498
v 0.155848 0.597181 -0.5323649999999999
v 0.155848 0.597181 0.027945480742052498
v -0.332748 0.670769 -0.5323649999999999
v -0.332748 0.670769 0.027945480742052498
v -0.261812 0.809989 -0.5323649999999999
v -0.261812 0.809989 0.027945480742052498
v 0.247689 0.72359 -0.5323649999999999
v 0.247689 0.72359 0.027945480742052498
v -0.223379 0.872705 -0.5323649999999999
v -0.223379 0.872705 0.027945480742052498
v -0.131537 0.999114 -0.5323649999999999
v -0.131537 0.999114 0.027945480742052498
v 0.358175 0.834075 -0.5323649999999999
v 0.358175 0.834075 0.027945480742052498
v -0.083767 1.055046 -0.5323649999999999
v -0.083767 1.055046 0.027945480742052498
v 0.026718 1.165532 -0.5323649999999999
v 0.026718 1.165532 0.027945999999999915
v 0.08265 1.213302 -0.5323649999999999
v 0.08265 1.213302 0.027945999999999915
v 0.209059 1.305143 0.027945999999999915
v 0.209059 1.305144 -0.5323649999999999
v 0.641825 0.834075 0.027945480742052498
v 0.91735 1.213302 0.027945999999999915
v 0.790941 1.305143 0.027945999999999915
v 0.91735 1.213302 -0.5323649999999999
v 0.641825 0.834075 -0.5323649999999999
v 0.790941 1.305144 -0.5323649999999999
v 1.083767 1.055046 -0.5323649999999999
v 0.752311 0.72359 -0.5323649999999999
v 0.973282 1.165532 -0.5323649999999999
v 1.083767 1.055046 0.027945480742052498
v 0.973282 1.165532 0.027945999999999915
v 0.752311 0.72359 0.027945480742052498
v 0.844152 0.597181 -0.5323649999999999
v 1.223379 0.872705 -0.5323649999999999
v 1.223379 0.872705 0.027945480742052498
v 0.844152 0.597181 0.027945480742052498
v 1.131537 0.999114 0.027945480742052498
v 1.131537 0.999114 -0.5323649999999999
v 0.915088 0.457961 -0.5323649999999999
v 1.332748 0.670769 -0.5323649999999999
v 1.332748 0.670769 0.027945480742052498
v 0.915088 0.457961 0.027945480742052498
v 1.261811 0.809989 0.027945480742052498
v 1.261811 0.809989 -0.5323649999999999
v 1.40918 0.45421 -0.5323649999999999
v 1.40918 0.45421 0.027945480742052498
v 0.963372 0.309359 0.027945480742052498
v 1.360896 0.602813 0.027945480742052498
v 1.360896 0.602813 -0.5323649999999999
v 1.450794 0.228361 -0.5323649999999999
v 0.9862615 0.1559585 -0.5323649999999999
v 1.426351 0.382687 -0.5323649999999999
v 1.450794 0.228361 0.027945480742052498
v 1.426351 0.382687 0.027945480742052498
v 0.9862615 0.1559585 0.027945480742052498
v 1.453458 0.000635 0.027945480742052498
v 1.453458 0.000635 -0.5323649999999999
v 1.453458 0.156885 -0.5323649999999999
v 1.453458 0.156885 0.027945480742052498
v 0.984708 0.000635 0.027945480742052498
v 0.984708 0.000635 -0.5323649999999999
vt 1.1102230246251565e-16 0.5278805134828383
vt 1.1102230246251565e-16 0.375
vt 0.46874999999999994 0.37836948651716173
vt 0.4686318115919192 0.53125
vt 0.7187368692881402 0.53125
vt 0.53125 0.53125
vt 0.53125 0.375
vt 0.71875 0.375
vt 0.7187368692881402 0.53125
vt 0.53125 0.53125
vt 0.53125 0.375
vt 0.71875 0.375
vt 0.53125 0.53125
vt 0.5312500000000002 0.375
vt 0.71875 0.375
vt 1 0.53125
vt 0.71875 0.375
vt 0.625 0.375
vt 1 0.21875
vt 1 0.2421875
vt 0.53125 0.21875
vt 1 0.21875
vt 0.625 0.375
vt 0.53125 0.375
vt 0.53125 0.53125
vt 0.5312500000000002 0.6875
vt 0.71875 0.6875
vt 1 0.53125
vt 0.71875 0.21875
vt 0.625 0.21875
vt 1 0.375
vt 1 0.3515625
vt 0.53125 0.375
vt 1 0.375
vt 0.625 0.21875
vt 0.53125 0.21875
vt 0.46875 1
vt 0 1
vt 0.00024233389871860465 0.8125
vt 0.46875 0.8125
vt 0.001016096272533913 1
vt 0 0.8125
vt 0.46872820705045465 0.8125
vt 0.46875 1
vt 0 0
vt 0.46875 0
vt 0.46875 0.15625
vt 0 0.15625
vt 0 0
vt 0 0.46875
vt 0.46875 0.46875
vt 0.46875 0
vt 0 0.0625
vt 0.46875 0.0625
vt 0.46875 0.21875
vt 0 0.21875
vt 0.46875 0.6875
vt 0 0.6875
vt 0 0.84375
vt 0.46875 0.84375
vt 0.46875 0.0625
vt 0 0.0625
vt 0 0.21875
vt 0.46875 0.21875
vt 0 0.125
vt 0 0.59375
vt 0.46875 0.59375
vt 0.46875 0.125
vt 0 0.15625
vt 0.46875 0.15625
vt 0.46875 0.3125
vt 0 0.3125
vt 0 0.8125
vt 0 0.34375
vt 0.46875 0.34375
vt 0.46875 0.8125
vt 0.46875 0.53125
vt 0 0.53125
vt 0 0.6875
vt 0.46875 0.6875
vt 0.46875 0.21875
vt 0 0.21875
vt 0 0.375
vt 0.46875 0.375
vt 0 0.125
vt 0 0.59375
vt 0.46875 0.59375
vt 0.46875 0.125
vt 0 0.21875
vt 0.46875 0.21875
vt 0.46875 0.375
vt 0 0.375
vt 0 0.8125
vt 0 0.34375
vt 0.46875 0.34375
vt 0.46875 0.8125
vt 0.46875 0.375
vt 0 0.375
vt 0 0.53125
vt 0.46875 0.53125
vt 0.46875 0.375
vt 0 0.375
vt 0 0.53125
vt 0.46875 0.53125
vt 0 0.125
vt 0 0.59375
vt 0.46875 0.59375
vt 0.46875 0.125
vt 0 0.375
vt 0.46875 0.375
vt 0.46875 0.53125
vt 0 0.53125
vt 0 0.8125
vt 0 0.34375
vt 0.46875 0.34375
vt 0.46875 0.8125
vt 0.46875 0.21875
vt 0 0.21875
vt 0 0.375
vt 0.46875 0.375
vt 0.46875 0.53125
vt 0 0.53125
vt 0 0.6875
vt 0.46875 0.6875
vt 0 0.125
vt 0 0.59375
vt 0.46875 0.59375
vt 0.46875 0.125
vt 0 0.53125
vt 0.46875 0.53125
vt 0.46875 0.6875
vt 0 0.6875
vt 0 0.8125
vt 0 0.34375
vt 0.46875 0.34375
vt 0.46875 0.8125
vt 0.46875 0.0625
vt 0 0.0625
vt 0 0.21875
vt 0.46875 0.21875
vt 0.46875 0.6875
vt 0 0.6875
vt 0 0.84375
vt 0.46875 0.84375
vt 0 0.125
vt 0 0.59375
vt 0.46875 0.59375
vt 0.46875 0.125
vt 0 0.6875
vt 0.46875 0.6875
vt 0.46875 0.84375
vt 0 0.84375
vt 0 0.8125
vt 0 0.34375
vt 0.46875 0.34375
vt 0.46875 0.8125
vt 1 0.84375
vt 0.53125 0.84375
vt 0.53125 1
vt 1 1
vt 0.46875 0.84375
vt 0 0.84375
vt 0 1
vt 0.46875 1
vt 0 0.125
vt 0 0.59375
vt 0.46875 0.59375
vt 0.46875 0.125
vt 0 0.84375
vt 0.46875 0.84375
vt 0.46875 1
vt 0 1
vt 0 0.8125
vt 0 0.34375
vt 0.46875 0.34375
vt 0.46875 0.8125
vt 0.53125 0.0625
vt 1 0.0625
vt 1 0.21875
vt 0.53125 0.21875
vt 1 0.6875
vt 0.53125 0.6875
vt 0.53125 0.84375
vt 1 0.84375
vt 0.46875 0.0625
vt 0 0.0625
vt 0 0.21875
vt 0.46875 0.21875
vt 0 0.125
vt 0 0.59375
vt 0.46875 0.59375
vt 0.46875 0.125
vt 1 0.6875
vt 0.53125 0.6875
vt 0.53125 0.84375
vt 1 0.84375
vt 0.53125 0.0625
vt 1 0.0625
vt 1 0.21875
vt 0.53125 0.21875
vt 0 0.125
vt 0 0.59375
vt 0.46875 0.59375
vt 0.46875 0.125
vt 0 0.0625
vt 0.46875 0.0625
vt 0.46875 0.21875
vt 0 0.21875
vt 0 0.34375
vt 0 0.8125
vt 0.46875 0.8125
vt 0.46875 0.34375
vt 0 0.40625
vt 0.46875 0.40625
vt 0.46875 0.5625
vt 0 0.5625
vt 0 0.84375
vt 0.46875 0.84375
vt 0.46875 1
vt 0 1
vt 0 0.84375
vt 0.46875 0.84375
vt 0.46875 1
vt 0 1
vt 1 0.84375
vt 0.53125 0.84375
vt 0.53125 1
vt 1 1
vt 0 0.125
vt 0 0.59375
vt 0.46875 0.59375
vt 0.46875 0.125
vt 0 0.34375
vt 0 0.8125
vt 0.46875 0.8125
vt 0.46875 0.34375
vt 0 0.8125
vt 0.46875 0.8125
vt 0.46875 0.96875
vt 0 0.96875
vt 0 0.34375
vt 0 0.8125
vt 0.46875 0.8125
vt 0.46875 0.34375
vt 0 0.125
vt 0 0.59375
vt 0.46875 0.59375
vt 0.46875 0.125
vt 0.46875 0.0625
vt 0 0.0625
vt 0 0.21875
vt 0.46875 0.21875
vt 0 0.6875
vt 0.46875 0.6875
vt 0.46875 0.84375
vt 0 0.84375
vt 0 0.6875
vt 0.46875 0.6875
vt 0.46875 0.84375
vt 0 0.84375
vt 0 0.625
vt 0.46875 0.625
vt 0.46875 0.78125
vt 0 0.78125
vt 0 0.34375
vt 0 0.8125
vt 0.46875 0.8125
vt 0.46875 0.34375
vt 0 0.125
vt 0 0.59375
vt 0.46875 0.59375
vt 0.46875 0.125
vt 0.46875 0.21875
vt 0 0.21875
vt 0 0.375
vt 0.46875 0.375
vt 0 0.53125
vt 0.46875 0.53125
vt 0.46875 0.6875
vt 0 0.6875
vt 0 0.53125
vt 0.46875 0.53125
vt 0.46875 0.6875
vt 0 0.6875
vt 0 0.46875
vt 0.46875 0.46875
vt 0.46875 0.625
vt 0 0.625
vt 0 0.34375
vt 0 0.8125
vt 0.46875 0.8125
vt 0.46875 0.34375
vt 0 0.125
vt 0 0.59375
vt 0.46875 0.59375
vt 0.46875 0.125
vt 0.46875 0.375
vt 0 0.375
vt 0 0.53125
vt 0.46875 0.53125
vt 0 0.375
vt 0.46875 0.375
vt 0.46875 0.53125
vt 0 0.53125
vt 0 0.375
vt 0.46875 0.375
vt 0.46875 0.53125
vt 0 0.53125
vt 0 0.3125
vt 0.46875 0.3125
vt 0.46875 0.46875
vt 0 0.46875
vt 0 0.21875
vt 0.46875 0.21875
vt 0.46875 0.375
vt 0 0.375
vt 0 0.21875
vt 0.46875 0.21875
vt 0.46875 0.375
vt 0 0.375
vt 0 0.34375
vt 0 0.8125
vt 0.46875 0.8125
vt 0.46875 0.34375
vt 0.46875 0.53125
vt 0 0.53125
vt 0 0.6875
vt 0.46875 0.6875
vt 0 0.125
vt 0 0.59375
vt 0.46875 0.59375
vt 0.46875 0.125
vt 0 0.15625
vt 0.46875 0.15625
vt 0.46875 0.3125
vt 0 0.3125
vt 0 0.0625
vt 0.46875 0.0625
vt 0.46875 0.21875
vt 0 0.21875
vt 0.46875 0.6875
vt 0 0.6875
vt 0 0.84375
vt 0.46875 0.84375
vt 0 0.0625
vt 0.46875 0.0625
vt 0.46875 0.21875
vt 0 0.21875
vt 1.1102230246251565e-16 0.4687499999999999
vt 1.1102230246251565e-16 0
vt 0.46874999999999994 1.1102230246251565e-16
vt 0.46874999999999994 0.46875
vt 0 0
vt 0.46875 0
vt 0.46875 0.15625
vt 0 0.15625
vt 0 0.125
vt 0 0.59375
vt 0.46875 0.59375
vt 0.46875 0.125
vt 0 0.3125
vt 0.46875 0.3125
vt 0.46875 0.46875
vt 0 0.46875
vt 0 0.46875
vt 0.46875 0.46875
vt 0.46875 0.625
vt 0 0.625
vt 0 0.625
vt 0.46875 0.625
vt 0.46875 0.78125
vt 0 0.78125
vt 0 0.84375
vt 0.46875 0.84375
vt 0.46875 1
vt 0 1
vt 0 0.21875
vt 0.46875 0.21875
vt 0.46875 0.375
vt 0 0.375
vt 0 0.34375
vt 0 0.8125
vt 0.46875 0.8125
vt 0.46875 0.34375
vt 0 0.21875
vt 0.46875 0.21875
vt 0.46875 0.375
vt 0 0.375
vt 0.46875 0.21875
vt 0 0.21875
vt 0 0.375
vt 0.46875 0.375
vt 0 0.34375
vt 0 0.8125
vt 0.46875 0.8125
vt 0.46875 0.34375
vt 0.46873284676433247 0.34375
vt 0 0.34375
vt 0 0.3125
vt 0.46875 0.3125
vn -6.63292881965378e-19 1 3.983863820502746e-16
vn 0 -0.00836074641468033 -0.9999650483488858
vn 0 -0.009083725663447366 0.9999587421129291
vn -0.0031206554215808782 -0.006603237539808664 0.9999733290261958
vn 0.0025161852572016183 0.0011829693434164909 0.9999961346901717
vn 0.0064928766099592115 0.0014148288516651747 0.9999779201625646
vn -0.0006659239191865689 -0.0014090802180273057 0.999998785518399
vn -0.0005544065638220577 -0.0004172821083402877 0.999999759254473
vn 0.0000442363415773885 -0.00038237567946502023 0.9999999259159903
vn 0.904973536738549 -0.42546785754381317 -1.695006004455614e-16
vn -0.9049735367385492 -0.4254678575438127 0
vn 0.9999499866896259 0.01000120589815664 0
vn 0 -1 0
vn 0 0 1
vn 0 0 -1
vn -1 0 0
vn 0.001983101710262073 0.9999980336518702 0
vn 0.9890501057326462 -0.1475801082471531 0
vn -0.1540016698596169 -0.9880705873977069 0
vn 0 0 -1
vn -0.9876881795470517 0.15643548185444175 0
vn 0.15643307110741925 0.9876885613713976 0
vn 0 0 1
vn -0.3090154507993692 -0.9510570178318768 0
vn 0 0 -1
vn -0.9510565945771804 0.3090167534475385 0
vn 0.3090173804175245 0.9510563908622301 0
vn 0 0 1
vn -0.4539898235794384 -0.891006868708828 0
vn 0 0 -1
vn -0.8910068687088281 0.45398982357943846 0
vn 0.4539898235794385 0.891006868708828 0
vn 0 0 1
vn -0.5877844937355734 -0.8090175454982517 0
vn 0 0 -1
vn -0.809015516579325 0.5877872862982729 0
vn 0.5877855081964598 0.8090168084497563 0
vn 0 0 1
vn -0.7071067811865476 -0.7071067811865476 0
vn 0 0 -1
vn -0.7071099811774116 0.7071035811812019 0
vn 0.7071067811865476 0.7071067811865476 0
vn 0 0 1
vn -0.8090165310387213 -0.5877858900195494 0
vn 0.006718312875517307 0.004879778905459494 0.999965525420722
vn 0 0 -1
vn -0.5877830974463442 0.8090185599579168 0
vn 0.809016543953363 0.587785872244099 0
vn -6.511160350522894e-7 -8.961893585100884e-7 0.9999999999993865
vn -0.0038378879951592253 0.0027883934684667633 -0.9999887476754935
vn -0.8090165456346726 0.5877858699290425 0.0000010490350359258601
vn 0.5877872862982729 0.8090155165793252 0
vn 0.8090165310387214 -0.5877858900195494 0
vn -0.587795136170137 -0.8090098132252354 0
vn 0 0 -1
vn 0.7071099811774119 0.7071035811812018 0
vn 0.0000023498918293121664 -0.0000023498918293121664 0.9999999999944781
vn -0.7071067811865476 0.7071067811865476 0
vn 0.7071067811865476 -0.7071067811865476 0
vn -0.7071035811812024 -0.7071099811774111 0
vn 0.5877844937355734 -0.8090175454982517 0
vn -0.5877855081964597 0.8090168084497564 0
vn 0 0 1
vn 0 0 -1
vn 0.8090155165793252 0.5877872862982729 0
vn -0.8090185599579162 -0.5877830974463452 0
vn 0.4539898235794384 -0.8910068687088281 0
vn -0.4539906865302792 0.8910064290137113 0
vn 0 0 1
vn 0 0 -1
vn 0.891004279853623 0.45399490446757984 0
vn -0.8910068687088278 -0.45398982357943857 0
vn 0.30901545079936915 -0.9510570178318768 0
vn -0.30901738041752447 0.9510563908622301 0
vn 0 0 1
vn 0 0 -1
vn 0.9510565945771804 0.3090167534475385 0
vn -0.9510559834286098 -0.30901863436472576 0
vn 0 0 -1
vn 0.9876881795470517 0.15643548185444175 0
vn 0.1540016698596169 -0.9880705873977069 0
vn 0 0 1
vn -0.15643307110741927 0.9876885613713976 0
vn -0.9890501057326462 -0.14758010824715312 0
vn 1 0 0
vn 0 0 1
vn 0 0 -1
vn 0 -1 0
vn -0.9999499866896259 0.010001205898156552 0
vn -0.0019831017102620732 0.9999980336518702 0
vn 0.9510559834286098 -0.3090186343647258 0
vn 0.8910068687088278 -0.45398982357943846 0
vn 0.8090185599579165 -0.5877830974463449 0
vn 0.7071035811812022 -0.7071099811774113 0
vn 0.587795136170137 -0.8090098132252354 0
vn 0.8910072308397678 -0.45398911285541704 0
vn 0.42728168601984157 0.9041185546110873 0
vn -0.4272816860198404 0.9041185546110878 4.256573504940648e-17
vn -0.891007230839768 -0.45398911285541704 1.0626155260300786e-16
vn 0 -1 0
usemtl m_keystones
f 80/221/56 79/222/56 77/223/56 78/224/56
f 77/225/57 81/226/57 82/227/57 78/228/57
f 80/229/58 83/230/58 84/231/58 79/232/58
f 86/233/59 77/234/59 88/235/59 85/236/59
f 88/237/60 90/238/60 89/239/60 85/240/60
f 87/241/61 89/242/61 90/243/61 78/244/61
f 92/245/62 79/246/62 94/247/62 91/248/62
f 94/249/63 96/250/63 95/251/63 91/252/63
f 93/253/64 95/254/64 96/255/64 80/256/64
usemtl m_arch
f 77/257/65 79/258/65 94/259/65 88/260/65
f 78/261/66 88/262/66 94/263/66 80/264/66
f 98/265/67 99/266/67 100/267/67 101/268/67
f 102/269/68 99/270/68 98/271/68 103/272/68
usemtl m_keystones
f 103/273/69 98/274/69 101/275/69 104/276/69
f 99/277/70 102/278/70 105/279/70 100/280/70
f 102/281/71 103/282/71 104/283/71 105/284/71
usemtl m_arch
f 104/285/72 101/286/72 100/287/72 105/288/72
f 101/289/73 100/290/73 106/291/73 107/292/73
f 108/293/74 100/294/74 101/295/74 109/296/74
usemtl m_keystones
f 100/297/75 108/298/75 110/299/75 106/300/75
f 108/301/76 109/302/76 111/303/76 110/304/76
usemtl m_arch
f 111/305/77 107/306/77 106/307/77 110/308/77
usemtl m_keystones
f 109/309/78 101/310/78 107/311/78 111/312/78
usemtl m_arch
f 114/313/79 106/314/79 107/315/79 115/316/79
usemtl m_keystones
f 106/317/80 114/318/80 116/319/80 112/320/80
f 114/321/81 115/322/81 117/323/81 116/324/81
usemtl m_arch
f 117/325/82 113/326/82 112/327/82 116/328/82
usemtl m_keystones
f 115/329/83 107/330/83 113/331/83 117/332/83
usemtl m_arch
f 120/333/84 112/334/84 113/335/84 121/336/84
usemtl m_keystones
f 112/337/85 120/338/85 122/339/85 118/340/85
f 120/341/86 121/342/86 123/343/86 122/344/86
usemtl m_arch
f 123/345/87 119/346/87 118/347/87 122/348/87
usemtl m_keystones
f 121/349/88 113/350/88 119/351/88 123/352/88
usemtl m_arch
f 126/353/89 118/354/89 119/355/89 127/356/89
usemtl m_keystones
f 118/357/90 126/358/90 128/359/90 124/360/90
f 126/361/91 127/362/91 129/363/91 128/364/91
usemtl m_arch
f 129/365/92 125/366/92 124/367/92 128/368/92
usemtl m_keystones
f 127/369/93 119/370/93 125/371/93 129/372/93
usemtl m_arch
f 132/373/94 124/374/94 125/375/94 133/376/94
usemtl m_keystones
f 124/377/95 132/378/95 134/379/95 130/380/95
f 132/381/96 133/382/96 135/383/96 134/384/96
usemtl m_arch
f 135/385/97 131/386/97 130/387/97 134/388/97
usemtl m_keystones
f 133/389/98 125/390/98 131/391/98 135/392/98
usemtl m_arch
f 136/393/99 130/394/99 131/395/99 137/396/99
usemtl m_keystones
f 137/397/100 131/398/100 95/399/100 138/400/100
f 130/401/101 136/402/101 139/403/101 89/404/101
f 136/405/102 137/406/102 138/407/102 139/408/102
usemtl m_arch
f 138/409/103 95/410/103 89/411/103 139/412/103
usemtl m_keystones
f 140/413/104 141/414/104 142/415/104 91/416/104
f 143/417/105 144/418/105 85/419/105 145/420/105
usemtl m_arch
f 91/421/106 142/422/106 145/423/106 85/424/106
usemtl m_keystones
f 141/425/107 143/426/107 145/427/107 142/428/107
usemtl m_arch
f 144/429/108 143/430/108 141/431/108 140/432/108
f 144/433/109 140/434/109 91/435/109 85/436/109
usemtl m_keystones
f 146/437/110 147/438/110 144/439/110 148/440/110
f 149/441/111 146/442/111 148/443/111 150/444/111
f 151/445/112 149/446/112 150/447/112 140/448/112
usemtl m_arch
f 140/449/113 150/450/113 148/451/113 144/452/113
f 147/453/114 146/454/114 149/455/114 151/456/114
f 147/457/115 151/458/115 140/459/115 144/460/115
f 152/461/116 153/462/116 154/463/116 155/464/116
f 151/465/117 156/466/117 157/467/117 147/468/117
usemtl m_keystones
f 155/469/118 154/470/118 156/471/118 151/472/118
f 153/473/119 152/474/119 147/475/119 157/476/119
f 154/477/120 153/478/120 157/479/120 156/480/120
usemtl m_arch
f 152/481/121 155/482/121 151/483/121 147/484/121
f 158/485/122 159/486/122 160/487/122 161/488/122
f 155/489/123 162/490/123 163/491/123 152/492/123
usemtl m_keystones
f 161/493/124 160/494/124 162/495/124 155/496/124
f 159/497/125 158/498/125 152/499/125 163/500/125
f 160/501/126 159/502/126 163/503/126 162/504/126
usemtl m_arch
f 158/505/127 161/506/127 155/507/127 152/508/127
f 97/509/128 164/510/128 165/511/128 166/512/128
f 161/513/129 167/514/129 168/515/129 158/516/129
usemtl m_keystones
f 166/517/130 165/518/130 167/519/130 161/520/130
f 164/521/131 97/522/131 158/523/131 168/524/131
f 165/525/132 164/526/132 168/527/132 167/528/132
usemtl m_arch
f 97/529/133 166/530/133 161/531/133 158/532/133
usemtl m_keystones
f 169/533/134 170/534/134 97/535/134 171/536/134
f 172/537/135 169/538/135 171/539/135 173/540/135
usemtl m_arch
f 170/541/136 169/542/136 172/543/136 174/544/136
usemtl m_keystones
f 174/545/137 172/546/137 173/547/137 166/548/137
usemtl m_arch
f 166/549/138 173/550/138 171/551/138 97/552/138
f 170/553/139 174/554/139 166/555/139 97/556/139
usemtl m_keystones
f 175/557/140 176/558/140 177/559/140 178/560/140
f 179/561/141 175/562/141 178/563/141 174/564/141
f 176/565/142 180/566/142 170/567/142 177/568/142
usemtl m_arch
f 180/569/143 176/570/143 175/571/143 179/572/143
f 180/573/144 179/574/144 174/575/144 170/576/144
f 174/577/145 178/578/145 177/579/145 170/580/145
f 107/581/146 106/582/146 112/583/146 113/584/146
f 113/585/147 112/586/147 118/587/147 119/588/147
f 119/589/148 118/590/148 124/591/148 125/592/148
f 125/593/149 124/594/149 130/595/149 131/596/149
f 131/597/150 130/598/150 89/599/150 95/600/150
f 85/601/151 86/602/151 92/603/151 91/604/151
usemtl m_keystones
f 92/605/152 86/606/152 77/607/152 79/608/152
f 87/609/153 93/610/153 80/611/153 78/612/153
usemtl m_arch
f 95/613/154 93/614/154 87/615/154 89/616/154
f 95/617/155 89/618/155 85/619/155 91/620/155