mtllib brick_arch.mtl

o arch_2_right
v 0.28634505179508773 1.3578623415476407 -0.540624999999999
v 0.2497574874266023 0.9846430205478627 -0.540624999999999
v 0.28634505179508773 1.3578623415476407 0.04062499999999991
v 0.2497574874266023 0.9846430205478625 0.04062499999999991
v 0.130847438252557 1.3731775197241347 -0.540624999999999
v 0.09392050531448583 0.9999916236110302 -0.5406249999999997
v 0.130847438252557 1.3731775197241347 0.04062499999999991
v 0.0939205053144859 0.9999916236110302 0.04062499999999952
v 0.47633292150075496 1.3219295893863494 -0.540624999999999
v 0.40333964569496367 0.9540936298594254 -0.540624999999999
v 0.4763329215007549 1.3219295893863499 0.04062499999999991
v 0.40333964569496367 0.9540936298594254 0.04062499999999991
v 0.3230852214377501 1.3524124522013696 -0.540624999999999
v 0.32308522143775015 1.3524124522013696 0.04062499999999991
v 0.6618839220738015 1.2675477955622818 -0.540624999999999
v 0.5531878999788978 0.9086376588780445 -0.540624999999999
v 0.6618839220738016 1.2675477955622814 0.04062499999999991
v 0.5531878999788978 0.9086376588780447 0.04062499999999991
v 0.5123619946156439 1.3129047763832913 -0.540624999999999
v 0.512361994615644 1.312904776383291 0.04062499999999991
v 0.8412110959462145 1.195240686478073 -0.540624999999999
v 0.697859129674262 0.8487128734530311 -0.540624999999999
v 0.8412110959462147 1.195240686478073 0.04062499999999991
v 0.6978591296742622 0.8487128734530309 0.04062499999999991
v 0.696854918991326 1.2550349727851184 -0.540624999999999
v 0.696854918991326 1.255034972785118 0.04062499999999991
v 1.012587424403398 1.1057046191212931 -0.540624999999999
v 0.8359600717537518 0.7748963820262489 -0.540624999999999
v 1.012587424403398 1.1057046191212927 0.04062499999999991
v 0.8359600717537519 0.7748963820262487 0.04062499999999991
v 0.8747872268489676 1.1793603592503552 -0.540624999999999
v 0.8747872268489676 1.1793603592503548 0.04062499999999991
v 1.1743624597184776 0.9998018747659796 -0.5406249999999981
v 0.9661607386514867 0.6878990777623357 -0.540624999999999
v 1.1743624597184779 0.9998018747659787 0.0406250000000003
v 0.9661607386514869 0.6878990777623353 0.04062499999999991
v 1.0444453327962055 1.0866097236752925 -0.5406249999999981
v 1.0444453327962053 1.0866097236752916 0.0406250000000003
v 1.324978219866141 0.8785523547326037 -0.540624999999999
v 1.0870807383047738 0.5886734347215774 -0.540624999999999
v 1.3249782198661408 0.8785523547326035 0.04062499999999991
v 1.087080738304774 0.5886734347215772 0.04062499999999991
v 1.2041953365282134 0.977676305383173 -0.540624999999999
v 1.2041953365282134 0.9776763053831727 0.04062499999999991
v -0.0006250000000000006 0.9999916236110304 -0.5406249999999997
v -0.0006250000000000006 0.9999916236110304 0.04062499999999952
v -0.0006250000000000006 1.3749999999999998 -0.5406249999999997
v -0.0006250000000000006 1.3749999999999996 0.04062499999999952
v 0.09374999999999982 1.3749999999999996 -0.5406249999999997
v 0.09374999999999996 1.3749999999999998 0.040624999999999134
vt 0 0
vt 0.46875 0
vt 0.46875 0.375
vt 0 0.375
vt 0 0.9375
vt 0.46875 0.9375
vt 0.46875 0.5625
vt 0 0.5625
vt 0.625 0.21875
vt 1 0.21875
vt 1 0.0625
vt 0.625 0.0625
vt 1 0.21875
vt 0.625 0.21875
vt 0.625 0.375
vt 1 0.375
vt 0 0.0625
vt 0.46875 0.0625
vt 0.46875 0.21875
vt 0 0.21875
vt 0.46875 0.78125
vt 0 0.78125
vt 0 0.625
vt 0.46875 0.625
vt 0 0.5625
vt 0.46875 0.5625
vt 0.46875 0.9375
vt 0 0.9375
vt 0 0.9375
vt 0.46875 0.9375
vt 0.46875 0.5625
vt 0 0.5625
vt 0.09375 1
vt 0.46875 1
vt 0.46875 0.84375
vt 0.09375 0.84375
vt 1 0.375
vt 0.625 0.375
vt 0.625 0.53125
vt 1 0.53125
vt 0 0.84375
vt 0.46875 0.84375
vt 0.46875 1
vt 0 1
vt 0.46875 0.9375
vt 0 0.9375
vt 0 0.78125
vt 0.46875 0.78125
vt 0 0
vt 0.46875 0
vt 0.46875 0.375
vt 0 0.375
vt 0 0.375
vt 0.46875 0.375
vt 0.46875 0
vt 0 0
vt 0.09375 0.84375
vt 0.46875 0.84375
vt 0.46875 0.6875
vt 0.09375 0.6875
vt 1 0.53125
vt 0.625 0.53125
vt 0.625 0.6875
vt 1 0.6875
vt 0 0.6875
vt 0.46875 0.6875
vt 0.46875 0.84375
vt 0 0.84375
vt 0.46875 0.78125
vt 0 0.78125
vt 0 0.625
vt 0.46875 0.625
vt 0 0.5625
vt 0.46875 0.5625
vt 0.46875 0.9375
vt 0 0.9375
vt 0 0.9375
vt 0.46875 0.9375
vt 0.46875 0.5625
vt 0 0.5625
vt 0.09375 0.6875
vt 0.46875 0.6875
vt 0.46875 0.53125
vt 0.09375 0.53125
vt 1 0.6875
vt 0.625 0.6875
vt 0.625 0.84375
vt 1 0.84375
vt 0 0.53125
vt 0.46875 0.53125
vt 0.46875 0.6875
vt 0 0.6875
vt 0.46875 0.625
vt 0 0.625
vt 0 0.46875
vt 0.46875 0.46875
vt 0 0
vt 0.46875 0
vt 0.46875 0.375
vt 0 0.375
vt 0 0.375
vt 0.46875 0.375
vt 0.46875 0
vt 0 0
vt 0.09375 0.53125
vt 0.46875 0.53125
vt 0.46875 0.375
vt 0.09375 0.375
vt 1 0.84375
vt 0.625 0.84375
vt 0.625 1
vt 1 1
vt 0 0.375
vt 0.46875 0.375
vt 0.46875 0.53125
vt 0 0.53125
vt 0.46875 0.46875
vt 0 0.46875
vt 0 0.3125
vt 0.46875 0.3125
vt 0 0.5625000000000002
vt 0.46875 0.5625000000000002
vt 0.46875 0.9375
vt 0 0.9375
vt 0 0.9374999999999998
vt 0.46875 0.9374999999999998
vt 0.46875 0.5625
vt 0 0.5625
vt 0.09375 0.375
vt 0.46875 0.375
vt 0.46875 0.21875
vt 0.09375 0.21875
vt 0.46875 0.0625
vt 0.09375 0.0625
vt 0.09375 0.21875
vt 0.46875 0.21875
vt 0 0.21875
vt 0.46875 0.21875
vt 0.46875 0.375
vt 0 0.375
vt 0.46875 0.3125
vt 0 0.3125
vt 0 0.15625
vt 0.46875 0.15625
vt 0 0
vt 0.46875 0
vt 0.46875 0.375
vt 0 0.375
vt 0 0.9375
vt 0.46875 0.9375
vt 0.46875 0.5625
vt 0 0.5625
vt 0.09375 0.21875
vt 0.46875 0.21875
vt 0.46875 0.0625
vt 0.09375 0.0625
vt 0.46875 0.21875
vt 0.09375 0.21875
vt 0.09375 0.375
vt 0.46875 0.375
vt 0 0.0625
vt 0.46875 0.0625
vt 0.46875 0.21875
vt 0 0.21875
vt 0.46875 0.15625
vt 0 0.15625
vt 0 0
vt 0.46875 0
vt 0 0
vt 0.46875 0
vt 0.46875 0.375
vt 0 0.375
vt 0 0.5625
vt 0.46875 0.5625
vt 0.46875 0.9375
vt 0 0.9375
vt 1 0
vt 0.625 0
vt 0.625 0.09375
vt 1 0.09375
vt 0.09375 0
vt 0.46875 0
vt 0.46875 0.09375
vt 0.09375 0.09375
vt 0.46875 0.90625
vt 0 0.90625
vt 0 0.8125
vt 0.46875 0.8125
vt 0 0.09375
vt 0.46875 0.09375
vt 0.46875 0
vt 0 0
vn 0.9952291893227148 -0.09756464892599183 -3.727088847384305e-17
vn -0.9951400582917209 0.09846961147049697 -2.375972914929658e-17
vn 4.233677797474512e-15 -4.150373526096695e-16 -1
vn 0 0 1
vn 0.09801714032956144 0.9951847266721969 0
vn -0.09801714032955988 -0.9951847266721969 1.1701170537827155e-17
vn 0.9808738808673346 -0.19464436758420195 0
vn -0.9806964771858994 0.19553623611793064 9.36595104637047e-17
vn 0 0 -1
vn 0 0 1
vn 0.19509032201612922 0.9807852804032303 -7.307122096131636e-16
vn -0.1950903220161298 -0.9807852804032303 -3.746719657693277e-16
vn 0.9570722207389963 -0.28984955457914013 1.107260728330694e-16
vn -0.9568082529015504 0.29071973992056865 2.0243660631519015e-16
vn 0 0 -1
vn 0 0 1
vn 0.29028467725446094 0.9569403357322094 6.756796633644606e-16
vn -0.2902846772544607 -0.9569403357322095 0
vn 0.9240534319360462 -0.3822633319155986 -4.990289715894785e-16
vn -0.923705442097164 0.3831034537041963 2.927004043807774e-16
vn 0 0 -1
vn 0 0 1
vn 0.3826834323650914 0.9238795325112862 -1.461897489047085e-16
vn -0.38268343236509117 -0.9238795325112862 3.529332744856629e-16
vn 0.882135503444563 -0.4709957043993156 -3.484193888706736e-16
vn -0.881706842936623 0.4717976718030022 3.604649553205932e-16
vn 0 0 -1
vn 0 0 1
vn 0.47139673682599714 0.8819212643483553 6.738094063388042e-16
vn -0.47139673682599625 -0.8819212643483558 -1.5682538757116156e-16
vn 0.8317221278305911 -0.5551921307772237 -7.419083801348485e-16
vn -0.8312169248886142 0.5559482204115022 5.319810376710435e-16
vn 1.3158252526177327e-15 1.9692716557284648e-15 -1
vn -5.756735480202582e-16 -8.615563493812048e-16 1
vn 0.5555702330196044 0.8314696123025438 1.0582916015219012e-15
vn -0.5555702330196036 -0.8314696123025446 -2.115142453701762e-16
vn 0.7730104533627367 -0.6343932841636459 -5.37645431172574e-16
vn -0.7727219334645353 0.6347446837452286 2.4248022800941675e-16
vn 0 0 -1
vn 0 0 1
vn 0.6343932841636442 0.7730104533627383 5.37645431172574e-16
vn -0.6343518881938877 -0.7730444243022839 -3.4829466351817427e-16
vn -1 0 0
vn 0.9999998966373013 0.00045467063563739077 -1.1937880751285054e-16
vn 0 0 -1
vn 0 0 1
vn -2.348547444814499e-15 -1 0
vn 2.3527905157619257e-15 1 -3.820122235269369e-16
usemtl m_arch
f 4/1/1 2/2/1 1/3/1 3/4/1
f 7/5/2 5/6/2 6/7/2 8/8/2
usemtl m_keystones
f 1/9/3 2/10/3 6/11/3 5/12/3
f 4/13/4 3/14/4 7/15/4 8/16/4
f 3/17/5 1/18/5 5/19/5 7/20/5
usemtl m_arch
f 8/21/6 6/22/6 2/23/6 4/24/6
f 12/25/7 10/26/7 9/27/7 11/28/7
f 14/29/8 13/30/8 2/31/8 4/32/8
usemtl m_keystones
f 9/33/9 10/34/9 2/35/9 13/36/9
f 12/37/10 11/38/10 14/39/10 4/40/10
f 11/41/11 9/42/11 13/43/11 14/44/11
usemtl m_arch
f 4/45/12 2/46/12 10/47/12 12/48/12
f 18/49/13 16/50/13 15/51/13 17/52/13
f 20/53/14 19/54/14 10/55/14 12/56/14
usemtl m_keystones
f 15/57/15 16/58/15 10/59/15 19/60/15
f 18/61/16 17/62/16 20/63/16 12/64/16
f 17/65/17 15/66/17 19/67/17 20/68/17
usemtl m_arch
f 12/69/18 10/70/18 16/71/18 18/72/18
f 24/73/19 22/74/19 21/75/19 23/76/19
f 26/77/20 25/78/20 16/79/20 18/80/20
usemtl m_keystones
f 21/81/21 22/82/21 16/83/21 25/84/21
f 24/85/22 23/86/22 26/87/22 18/88/22
f 23/89/23 21/90/23 25/91/23 26/92/23
usemtl m_arch
f 18/93/24 16/94/24 22/95/24 24/96/24
f 30/97/25 28/98/25 27/99/25 29/100/25
f 32/101/26 31/102/26 22/103/26 24/104/26
usemtl m_keystones
f 27/105/27 28/106/27 22/107/27 31/108/27
f 30/109/28 29/110/28 32/111/28 24/112/28
f 29/113/29 27/114/29 31/115/29 32/116/29
usemtl m_arch
f 24/117/30 22/118/30 28/119/30 30/120/30
f 36/121/31 34/122/31 33/123/31 35/124/31
f 38/125/32 37/126/32 28/127/32 30/128/32
usemtl m_keystones
f 33/129/33 34/130/33 28/131/33 37/132/33
f 36/133/34 35/134/34 38/135/34 30/136/34
f 35/137/35 33/138/35 37/139/35 38/140/35
usemtl m_arch
f 30/141/36 28/142/36 34/143/36 36/144/36
f 42/145/37 40/146/37 39/147/37 41/148/37
f 44/149/38 43/150/38 34/151/38 36/152/38
usemtl m_keystones
f 39/153/39 40/154/39 34/155/39 43/156/39
f 42/157/40 41/158/40 44/159/40 36/160/40
f 41/161/41 39/162/41 43/163/41 44/164/41
usemtl m_arch
f 36/165/42 34/166/42 40/167/42 42/168/42
f 48/169/43 47/170/43 45/171/43 46/172/43
f 8/173/44 6/174/44 49/175/44 50/176/44
usemtl m_keystones
f 45/177/45 47/178/45 49/179/45 6/180/45
f 48/181/46 46/182/46 8/183/46 50/184/46
usemtl m_arch
f 46/185/47 45/186/47 6/187/47 8/188/47
usemtl m_keystones
f 50/189/48 49/190/48 47/191/48 48/192/48
o arch_2_right_inner
v 0.15242874784115898 1.40625 0.008593750000000233
v 0.15242874784115898 1.40625 -0.5085937499999997
v 0.12496015288873275 1.0046733562910914 0.008593750000000233
v 0.12496015288873275 1.0046733562910917 -0.5085937499999997
v 0.42348784854382737 1.3689937841453232 0.008593750000000233
v 0.42348784854382737 1.3689937841453235 -0.5085937499999997
v 0.3415937516379348 0.9748977534965222 0.008593750000000233
v 0.3415937516379348 0.9748977534965224 -0.5085937499999997
v 0.6869492360842697 1.2951753652458744 0.008593750000000233
v 0.6869492360842697 1.2951753652458744 -0.5085937499999997
v 0.5521551693006856 0.915901211049843 0.008593750000000233
v 0.5521551693006856 0.915901211049843 -0.5085937499999997
v 0.9379051233006963 1.186169840775938 0.008593750000000233
v 0.9379051233006963 1.1861698407759382 -0.5085937499999997
v 0.7527220450634302 0.82878272291109 0.008593750000000233
v 0.7527220450634302 0.82878272291109 -0.5085937499999997
v 1.1716806768410384 1.0440077774100165 0.008593750000000233
v 1.1716806768410384 1.0440077774100165 -0.5085937499999997
v 0.9395581975178109 0.7151651416797782 0.008593750000000233
v 0.9395581975178109 0.7151651416797784 -0.5085937499999997
v 1.3839211004631733 0.8713373854076631 0.008593750000000233
v 1.3839211004631733 0.8713373854076631 -0.5085937499999997
v 1.1091832226511789 0.5771649479215284 0.008593750000000233
v 1.1091832226511789 0.5771649479215286 -0.5085937499999997
v 0 1.40625 0.008593750000000233
v 0 1.40625 -0.5085937499999997
v 0 1.0046733562910914 0.008593750000000233
v 0 1.0046733562910917 -0.5085937499999997
vt 0 0.5625
vt 0 0.28125
vt 0.4375 0.28125
vt 0.4375 0.5625
vt 0.40625 0.75
vt 0.40625 0.53125
vt 7.481576136392221e-7 0.5
vt 0 0.78125
vt 0.5312500000000004 0.84375
vt 0.53125 0.5625
vt 0.9375 0.59375
vt 0.9375 0.8125
vt 0 0.28125
vt 0 0
vt 0.4375 0
vt 0.4375 0.28125
vt 0.9375 0.96875
vt 0.9375 0.75
vt 0.5312507481576136 0.71875
vt 0.53125 1
vt 4.440892098500626e-16 1
vt 0 0.71875
vt 0.40625 0.75
vt 0.40625 0.96875
vt 0 1
vt 0 0.71875
vt 0.4375 0.71875
vt 0.4375 1
vt 0.9375 0.6875
vt 0.9375 0.46875
vt 0.5312507481576136 0.4375
vt 0.53125 0.71875
vt 4.440892098500626e-16 0.75
vt 0 0.46875
vt 0.40625 0.5
vt 0.40625 0.71875
vt 0 0.71875
vt 0 0.4375
vt 0.4375 0.4375
vt 0.4375 0.71875
vt 0.9375 0.5
vt 0.9375 0.28125
vt 0.5312507481576136 0.25
vt 0.53125 0.53125
vt 4.440892098500626e-16 0.53125
vt 0 0.25
vt 0.40625 0.28125
vt 0.40625 0.5
vt 0 0.4375
vt 0 0.15625
vt 0.4375 0.15625
vt 0.4375 0.4375
vt 0.4375 0.375
vt 0.4375 0.59375
vt 0 0.5937499999999999
vt 0 0.375
vt 0.9375 0.25
vt 0.9375 0.03125
vt 0.5312507481576136 0
vt 0.53125 0.28125
vt 4.440892098500626e-16 0.28125
vt 0 0
vt 0.40625 0.03125
vt 0.40625 0.25
vt 0 0.75
vt 0 0.5625
vt 0.4375 0.5625
vt 0.4375 0.75
vt 0.40625 0.84375
vt 0.40625 0.96875
vt 0 1
vt 0 0.84375
vt 0.53125 0.84375
vt 0.53125 1
vt 0.9375 0.96875
vt 0.9375 0.84375
vt 0 0.59375
vt 0.4375 0.59375
vt 0.4375 1
vt 0 1
vt 0 0
vt 0.4375 0
vt 0.4375 0.40625
vt 0 0.40625
vn 0.1361666490962458 0.9906859460363309 4.290642095896991e-16
vn 0 0 1
vn 0 0 -1
vn 0.2697967711570243 0.9629172873477995 0
vn 0 0 1
vn 0 0 -1
vn 0.3984010898462417 0.9172113015054529 3.9228727733915304e-16
vn 0 0 1
vn 0 0 -1
vn 0.5195839500354333 0.8544194045464887 0
vn 0 0 1
vn 0 0 -1
vn 0.6310879443260526 0.7757112907044201 0
vn -0.6310879443260519 -0.7757112907044206 -3.37454407318549e-16
vn 0 0 1
vn 0 0 -1
vn 0 1 0
vn 0 0 1
vn 0 0 -1
vn 0.7308359642781238 -0.6825531432186546 -2.9304119497537064e-16
vn -1 0 0
usemtl m_mortar
f 51/193/49 55/194/49 56/195/49 52/196/49
f 53/197/50 57/198/50 55/199/50 51/200/50
f 52/201/51 56/202/51 58/203/51 54/204/51
f 55/205/52 59/206/52 60/207/52 56/208/52
f 57/209/53 61/210/53 59/211/53 55/212/53
f 56/213/54 60/214/54 62/215/54 58/216/54
f 59/217/55 63/218/55 64/219/55 60/220/55
f 61/221/56 65/222/56 63/223/56 59/224/56
f 60/225/57 64/226/57 66/227/57 62/228/57
f 63/229/58 67/230/58 68/231/58 64/232/58
f 65/233/59 69/234/59 67/235/59 63/236/59
f 64/237/60 68/238/60 70/239/60 66/240/60
f 67/241/61 71/242/61 72/243/61 68/244/61
f 70/245/62 74/246/62 73/247/62 69/248/62
f 69/249/63 73/250/63 71/251/63 67/252/63
f 68/253/64 72/254/64 74/255/64 70/256/64
f 75/257/65 51/258/65 52/259/65 76/260/65
f 77/261/66 53/262/66 51/263/66 75/264/66
f 76/265/67 52/266/67 54/267/67 78/268/67
f 73/269/68 74/270/68 72/271/68 71/272/68
f 75/273/69 76/274/69 78/275/69 77/276/69