mtllib brick_arch.mtl

o arch_3_right
v 1.4290362371807883 0.49113650901671324 -0.5437500000000051
v 1.03077127816869 0.1888369515855266 -0.5437500000000044
v 1.429036237180788 0.4911365090167181 0.04999999999999133
v 1.0307712781686897 0.18883695158553127 0.04999999999999205
v 1.3345676254835426 0.6155943087079945 -0.5437500000000051
v 0.9363428662724389 0.31324615806487666 -0.5437500000000044
v 1.334567625483542 0.6155943087079989 0.04999999999999066
v 0.9363428662724387 0.31324615806488154 0.04999999999999133
v 1.3079554788121315 0.6477628680323746 -0.5437500000000051
v 1.3079554788121308 0.647762868032379 0.04999999999999066
v 1.2034038215685596 0.7638792470132172 -0.5437500000000051
v 0.8318755338196722 0.4292688848777415 -0.5437500000000051
v 1.2034038215685592 0.7638792470132223 0.049999999999990274
v 0.8318755338196719 0.42926888487774617 0.04999999999999133
v 1.1741932117738265 0.7937081396323993 -0.5437500000000066
v 1.1741932117738263 0.7937081396324037 0.049999999999990274
v 1.0602918637392311 0.900668624933757 -0.5437500000000066
v 0.7180660514484114 0.5361431025790897 -0.5437500000000051
v 1.0602918637392307 0.9006686249337621 0.049999999999990274
v 0.7180660514484112 0.5361431025790946 0.04999999999999133
v 1.0286876822610915 0.9279486225980473 -0.5437500000000066
v 1.0286876822610913 0.927948622598052 0.049999999999990274
v 0.906235579553929 1.0250029632665327 -0.5437500000000066
v 0.5957127109054903 0.6331191653207657 -0.5437500000000051
v 0.9062355795539287 1.0250029632665378 0.04999999999998922
v 0.5957127109054898 0.6331191653207704 0.049999999999990274
v 0.8724595070178791 1.0495427163929674 -0.5437500000000066
v 0.8724595070178789 1.049542716392972 0.04999999999998961
v 0.742315563156926 1.1360101459622398 -0.5437500000000066
v 0.46567373296406367 0.7195168556998421 -0.5437500000000051
v 0.7423155631569256 1.1360101459622447 0.04999999999998922
v 0.46567373296406334 0.7195168556998468 0.049999999999990274
v 0.7066045144437314 1.1576375258144256 -0.5437500000000066
v 0.7066045144437312 1.15763752581443 0.04999999999998922
v 0.5696815956868779 1.2329115373928183 -0.5437500000000066
v 0.32886124762151403 0.7947301559949644 -0.5437500000000066
v 0.5696815956868777 1.2329115373928237 0.04999999999998922
v 0.3288612476215138 0.7947301559949689 0.049999999999990274
v 0.5322860581449085 1.2514748434403415 -0.5437500000000066
v 0.532286058144908 1.251474843440346 0.04999999999998922
v 0.38954458038825224 1.3150274439209353 -0.5437500000000071
v 0.18623489616288413 0.8582314989452435 -0.5437500000000066
v 0.3895445803882519 1.3150274439209402 0.04999999999998922
v 0.1862348961628838 0.8582314989452482 0.049999999999990274
v 0.35072685684470817 1.330396467909591 -0.5437500000000071
v 0.35072685684470795 1.3303964679095954 0.04999999999998922
v 0.2031680489951022 1.3817818814624947 -0.5437500000000071
v 0.038795099966764335 0.9095754682555355 -0.5437500000000066
v 0.20316804899510177 1.3817818814624991 0.049999999999988554
v 0.03879509996676411 0.9095754682555404 0.04999999999998961
v 0.1632004178901464 1.3938488207316313 -0.5437500000000071
v 0.16320041789014628 1.3938488207316357 0.049999999999988165
v 0.011859298963797782 1.4327066156011403 -0.543750000000008
v -0.11248564461862998 0.948415035036825 -0.5437500000000066
v 0.011859298963797449 1.4327066156011443 0.049999999999988165
v -0.11248564461863036 0.9484150350368294 0.04999999999998961
vt 0 0
vt 0.46875 0
vt 0.46875 0.4999999999999998
vt 0 0.4999999999999998
vt 0 1
vt 0.46875 1
vt 0.46875 0.5000000000000002
vt 0 0.5000000000000002
vt 0 0.0625
vt 0.4687499999999998 0.0625
vt 0.4687499999999998 0.21875
vt 0 0.21875
vt 1 0.84375
vt 0.5312500000000002 0.84375
vt 0.5312500000000002 1
vt 1 1
vt 0 0.0625
vt 0.46875 0.0625
vt 0.46875 0.21875
vt 0 0.21875
vt 0.46875 0.1875
vt 0 0.1875
vt 0 0.03125
vt 0.46875 0.03125
vt 0 0
vt 0.46875 0
vt 0.46875 0.4999999999999998
vt 0 0.4999999999999998
vt 0 1
vt 0.46875 1
vt 0.46875 0.5000000000000002
vt 0 0.5000000000000002
vt 0 0.375
vt 0.4687499999999998 0.375
vt 0.4687499999999998 0.21875
vt 0 0.21875
vt 1 0.6875
vt 0.5312500000000002 0.6875
vt 0.5312500000000002 0.84375
vt 1 0.84375
vt 0 0.21875
vt 0.46875 0.21875
vt 0.46875 0.375
vt 0 0.375
vt 0.46875 0.34375
vt 0 0.34375
vt 0 0.1875
vt 0.46875 0.1875
vt 0 0.5000000000000002
vt 0.46875 0.5000000000000002
vt 0.46875 1
vt 0 1
vt 0 0.4999999999999998
vt 0.46875 0.4999999999999998
vt 0.46875 0
vt 0 0
vt 0 0.53125
vt 0.4687499999999998 0.53125
vt 0.4687499999999998 0.375
vt 0 0.375
vt 1 0.53125
vt 0.5312500000000002 0.53125
vt 0.5312500000000002 0.6875
vt 1 0.6875
vt 0 0.375
vt 0.46875 0.375
vt 0.46875 0.53125
vt 0 0.53125
vt 0.46875 0.5
vt 0 0.5
vt 0 0.34375
vt 0.46875 0.34375
vt 0 0.5000000000000002
vt 0.46875 0.5000000000000002
vt 0.46875 1
vt 0 1
vt 0 0.4999999999999998
vt 0.46875 0.4999999999999998
vt 0.46875 0
vt 0 0
vt 0 0.6875
vt 0.4687499999999998 0.6875
vt 0.4687499999999998 0.53125
vt 0 0.53125
vt 1 0.375
vt 0.5312500000000002 0.375
vt 0.5312500000000002 0.53125
vt 1 0.53125
vt 0 0.53125
vt 0.46875 0.53125
vt 0.46875 0.6875
vt 0 0.6875
vt 0.46875 0.65625
vt 0 0.65625
vt 0 0.5
vt 0.46875 0.5
vt 0 0
vt 0.46875 0
vt 0.46875 0.4999999999999998
vt 0 0.4999999999999998
vt 0 1
vt 0.46875 1
vt 0.46875 0.5000000000000002
vt 0 0.5000000000000002
vt 0 0.84375
vt 0.4687499999999998 0.84375
vt 0.4687499999999998 0.6875
vt 0 0.6875
vt 1 0.21875
vt 0.5312500000000002 0.21875
vt 0.5312500000000002 0.375
vt 1 0.375
vt 0 0.6875
vt 0.46875 0.6875
vt 0.46875 0.84375
vt 0 0.84375
vt 0.46875 0.8125
vt 0 0.8125
vt 0 0.65625
vt 0.46875 0.65625
vt 0 0.5000000000000002
vt 0.46875 0.5000000000000002
vt 0.46875 1
vt 0 1
vt 0 1
vt 0.46875 1
vt 0.46875 0.5000000000000002
vt 0 0.5000000000000002
vt 0 1
vt 0.4687499999999998 1
vt 0.4687499999999998 0.84375
vt 0 0.84375
vt 1 0.0625
vt 0.5312500000000002 0.0625
vt 0.5312500000000002 0.21875
vt 1 0.21875
vt 0 0.84375
vt 0.46875 0.84375
vt 0.46875 1
vt 0 1
vt 0.46875 0.96875
vt 0 0.96875
vt 0 0.8125
vt 0.46875 0.8125
vt 0 0
vt 0.46875 0
vt 0.46875 0.4999999999999998
vt 0 0.4999999999999998
vt 0 1
vt 0.46875 1
vt 0.46875 0.5000000000000002
vt 0 0.5000000000000002
vt 0.5312500000000002 0.21875
vt 1 0.21875
vt 1 0.0625
vt 0.5312500000000002 0.0625
vt 0.4687499999999998 0.84375
vt 0 0.84375
vt 0 1
vt 0.4687499999999998 1
vt 0 0.0625
vt 0.46875 0.0625
vt 0.46875 0.21875
vt 0 0.21875
vt 0.46875 0.15625
vt 0 0.15625
vt 0 0
vt 0.46875 0
vt 0 0
vt 0.46875 0
vt 0.46875 0.4999999999999998
vt 0 0.4999999999999998
vt 0 0.4999999999999998
vt 0.46875 0.4999999999999998
vt 0.46875 0
vt 0 0
vt 0.5312500000000002 0.375
vt 1 0.375
vt 1 0.21875
vt 0.5312500000000002 0.21875
vt 0.4687499999999998 0.6875
vt 0 0.6875
vt 0 0.84375
vt 0.4687499999999998 0.84375
vt 0 0.21875
vt 0.46875 0.21875
vt 0.46875 0.375
vt 0 0.375
vt 0.46875 0.3125
vt 0 0.3125
vt 0 0.15625
vt 0.46875 0.15625
vt 0 0
vt 0.46875 0
vt 0.46875 0.4999999999999998
vt 0 0.4999999999999998
vt 0 0.5000000000000002
vt 0.46875 0.5000000000000002
vt 0.46875 1
vt 0 1
vt 0.5312500000000002 0.53125
vt 1 0.53125
vt 1 0.375
vt 0.5312500000000002 0.375
vt 0.4687499999999998 0.53125
vt 0 0.53125
vt 0 0.6875
vt 0.4687499999999998 0.6875
vt 0 0.375
vt 0.46875 0.375
vt 0.46875 0.53125
vt 0 0.53125
vt 0.46875 0.46875
vt 0 0.46875
vt 0 0.3125
vt 0.46875 0.3125
vn 0.6045991148623737 -0.7965299180241974 6.4815436829125424e-15
vn -0.604699490424059 0.7964537188568357 -6.635411882512038e-15
vn -1.0612046455675224e-15 -8.05469886141409e-16 -1
vn -1.4279374434434478e-15 4.2684230977907425e-15 1
vn 0.7965299180241988 0.6045991148623718 -4.6763624491611345e-15
vn -0.796540140943087 -0.604585646427673 4.676247816747257e-15
vn 0.6690369483835413 -0.7432291448117726 6.3649962528186534e-15
vn -0.6692242537073311 0.7430604943407136 -6.891830685929952e-15
vn 1.8645053833435203e-15 -4.062599836958051e-15 -1
vn -6.737546914328207e-16 2.7398020145491945e-15 1
vn 0.7431448254773928 0.6691306063588599 -4.170952294936227e-15
vn -0.7431448254773949 -0.6691306063588575 4.977014508801668e-15
vn 0.7288823535778485 -0.6846389666406788 5.6493011543263604e-15
vn -0.7290548896878095 0.6844552343450199 -6.432498573770149e-15
vn -2.1280111235013704e-15 -2.2661016815369953e-15 -1
vn 1.444007548090218e-15 1.5377118553286727e-15 1
vn 0.6845471059286896 0.7289686274214107 -5.1962459383277426e-15
vn -0.6845471059286898 -0.7289686274214106 5.741470530760688e-15
vn 0.783615172763056 -0.6212465380310189 5.404253048603883e-15
vn -0.7837717294423432 0.6210490126608034 -5.634940101201653e-15
vn -1.930925387489877e-15 -2.4362215253866843e-15 -1
vn -3.979253895411886e-15 5.846661393881361e-15 1
vn 0.6211477802783077 0.7836934573258418 -5.922341849140681e-15
vn -0.6211477802783103 -0.7836934573258398 5.690051300135274e-15
vn 0.8328514945380547 -0.5534965113220938 4.969733995778893e-15
vn -0.8329909736540494 0.5532865783758713 -5.175102142029007e-15
vn -1.7202955972531261e-15 -2.5892530256585315e-15 -1
vn -1.3339485027055316e-15 2.4861701179294317e-15 1
vn 0.5533915492433438 0.8329212407100999 -6.334284490862142e-15
vn -0.5533915492433453 -0.8329212407100988 6.230808610507959e-15
vn 0.8762459614818429 -0.48186410427293824 4.2757900637965745e-15
vn -0.8763673846887612 0.48164323627949057 -4.650616287074105e-15
vn 7.225979627139706e-15 -7.521382527184397e-15 -1
vn 1.0162280078290807e-15 1.84851188393897e-15 1
vn 0.48175367410171466 0.8763066800438641 -6.3740843907924925e-15
vn -0.4817536741017176 -0.8763066800438625 6.374084390792466e-15
vn 0.9134941925876896 -0.4068517667511905 3.3846252687508817e-15
vn -0.9135967081889784 0.40662151294079724 -3.857898645027424e-15
vn 0 0 -1
vn 8.579844653488602e-16 1.92706466061207e-15 1
vn 0.4067366430758003 0.9135454576426009 -6.528554863200999e-15
vn -0.40673664307580065 -0.9135454576426008 6.946246953867863e-15
vn 0.9443349182772064 -0.32898565640827304 3.1133743207332876e-15
vn -0.9444178071995794 0.3287476318459777 -3.165201715255915e-15
vn -2.920938013916626e-16 -8.387791424357983e-16 -1
vn -3.3322191515027975e-15 3.3946506844033726e-15 1
vn 0.3288666467385847 0.9443763702374806 -6.940379782653082e-15
vn -0.3288666467385838 -0.9443763702374809 7.646716382332806e-15
vn 0.9685518130187107 -0.24881194806152063 2.4092689183090897e-15
vn -0.9685831611286311 0.24868988716485563 -2.2173767703973957e-15
vn -2.2086761184644515e-16 -8.602829419566127e-16 -1
vn 7.178670123517003e-16 2.7959074171466347e-15 1
vn 0.24868988716485763 0.9685831611286305 -7.197916939999567e-15
vn -0.24867350957078824 -0.968587366032485 7.081705955271211e-15
usemtl m_arch
f 4/1/1 2/2/1 1/3/1 3/4/1
f 7/5/2 5/6/2 6/7/2 8/8/2
usemtl m_keystones
f 1/9/3 2/10/3 6/11/3 5/12/3
f 4/13/4 3/14/4 7/15/4 8/16/4
f 3/17/5 1/18/5 5/19/5 7/20/5
usemtl m_arch
f 8/21/6 6/22/6 2/23/6 4/24/6
f 8/25/7 6/26/7 9/27/7 10/28/7
f 13/29/8 11/30/8 12/31/8 14/32/8
usemtl m_keystones
f 9/33/9 6/34/9 12/35/9 11/36/9
f 8/37/10 10/38/10 13/39/10 14/40/10
f 10/41/11 9/42/11 11/43/11 13/44/11
usemtl m_arch
f 14/45/12 12/46/12 6/47/12 8/48/12
f 14/49/13 12/50/13 15/51/13 16/52/13
f 19/53/14 17/54/14 18/55/14 20/56/14
usemtl m_keystones
f 15/57/15 12/58/15 18/59/15 17/60/15
f 14/61/16 16/62/16 19/63/16 20/64/16
f 16/65/17 15/66/17 17/67/17 19/68/17
usemtl m_arch
f 20/69/18 18/70/18 12/71/18 14/72/18
f 20/73/19 18/74/19 21/75/19 22/76/19
f 25/77/20 23/78/20 24/79/20 26/80/20
usemtl m_keystones
f 21/81/21 18/82/21 24/83/21 23/84/21
f 20/85/22 22/86/22 25/87/22 26/88/22
f 22/89/23 21/90/23 23/91/23 25/92/23
usemtl m_arch
f 26/93/24 24/94/24 18/95/24 20/96/24
f 26/97/25 24/98/25 27/99/25 28/100/25
f 31/101/26 29/102/26 30/103/26 32/104/26
usemtl m_keystones
f 27/105/27 24/106/27 30/107/27 29/108/27
f 26/109/28 28/110/28 31/111/28 32/112/28
f 28/113/29 27/114/29 29/115/29 31/116/29
usemtl m_arch
f 32/117/30 30/118/30 24/119/30 26/120/30
f 32/121/31 30/122/31 33/123/31 34/124/31
f 37/125/32 35/126/32 36/127/32 38/128/32
usemtl m_keystones
f 33/129/33 30/130/33 36/131/33 35/132/33
f 32/133/34 34/134/34 37/135/34 38/136/34
f 34/137/35 33/138/35 35/139/35 37/140/35
usemtl m_arch
f 38/141/36 36/142/36 30/143/36 32/144/36
f 38/145/37 36/146/37 39/147/37 40/148/37
f 43/149/38 41/150/38 42/151/38 44/152/38
usemtl m_keystones
f 39/153/39 36/154/39 42/155/39 41/156/39
f 38/157/40 40/158/40 43/159/40 44/160/40
f 40/161/41 39/162/41 41/163/41 43/164/41
usemtl m_arch
f 44/165/42 42/166/42 36/167/42 38/168/42
f 44/169/43 42/170/43 45/171/43 46/172/43
f 49/173/44 47/174/44 48/175/44 50/176/44
usemtl m_keystones
f 45/177/45 42/178/45 48/179/45 47/180/45
f 44/181/46 46/182/46 49/183/46 50/184/46
f 46/185/47 45/186/47 47/187/47 49/188/47
usemtl m_arch
f 50/189/48 48/190/48 42/191/48 44/192/48
f 50/193/49 48/194/49 51/195/49 52/196/49
f 55/197/50 53/198/50 54/199/50 56/200/50
usemtl m_keystones
f 51/201/51 48/202/51 54/203/51 53/204/51
f 50/205/52 52/206/52 55/207/52 56/208/52
f 52/209/53 51/210/53 53/211/53 55/212/53
usemtl m_arch
f 56/213/54 54/214/54 48/215/54 50/216/54
o arch_3_right_inner
v 0.27512331189604966 1.4084396436546784 0.017187499999996525
v 0.27512331189604966 1.4084396436546767 -0.5109375000000023
v 0.10313871642069106 0.9017893631390361 0.01718749999999758
v 0.10313871642069106 0.9017893631390344 -0.5109375000000023
v 0.5665407063609444 1.2877306065558884 0.017187499999996525
v 0.5665407063609444 1.2877306065558871 -0.5109375000000023
v 0.3298963310385189 0.8078632837929602 0.01718749999999758
v 0.3298963310385189 0.8078632837929587 -0.5109375000000023
v 0.8397092936390549 1.1300166491567216 0.017187499999996525
v 0.8397092936390549 1.1300166491567207 -0.5109375000000023
v 0.5424541893415453 0.6851429470833375 0.01718749999999758
v 0.5424541893415453 0.6851429470833363 -0.5109375000000023
v 1.0899550834654124 0.9379963009948469 0.017187499999996525
v 1.0899550834654124 0.9379963009948455 -0.5109375000000023
v 0.7371753674420338 0.535728131995775 0.01718749999999758
v 0.7371753674420338 0.5357281319957736 -0.5109375000000023
v 1.3129963009948467 0.7149550834654126 0.01718749999999758
v 1.3129963009948467 0.7149550834654113 -0.5109375000000023
v 0.9107281319957747 0.36217536744203405 0.01718749999999758
v 0.9107281319957747 0.3621753674420325 -0.5109375000000023
v 1.5050166491567216 0.46470929363905533 0.01718749999999758
v 1.5050166491567216 0.464709293639054 -0.5109375000000023
v 1.0601429470833375 0.16745418934154555 0.01718749999999758
v 1.0601429470833375 0.167454189341544 -0.5109375000000023
v -0.02955665734016888 1.4900783953614622 0.017187499999996525
v -0.02955665734016888 1.4900783953614605 -0.5109375000000023
v -0.13393876885673894 0.9653140838627245 0.01718749999999758
v -0.13393876885673894 0.9653140838627232 -0.5109375000000023
vt 0 0.6249999999999999
vt 0 0.3125
vt 0.4375 0.3125000000000001
vt 0.4375 0.625
vt 1 0.5625
vt 1 0.3125
vt 0.53125 0.28125
vt 0.5312513945477076 0.59375
vt 0.53125 0.5625
vt 0.53125 0.25
vt 1 0.28125
vt 1 0.53125
vt 0 0.3124999999999999
vt 0 0
vt 0.4375 1.1102230246251565e-16
vt 0.4375 0.3125
vt 1 0.875
vt 1 0.625
vt 0.53125 0.59375
vt 0.5312513945477076 0.90625
vt 0.53125 0.3125
vt 0.53125 0
vt 1 0.03125
vt 1 0.28125
vt 0 0.9999999999999999
vt 0 0.6875
vt 0.4375 0.6875000000000001
vt 0.4375 1
vt 0.46875 0.28125
vt 0.46875 0.03125
vt 0 0
vt 0.0000013945477076449109 0.3125
vt 0 0.875
vt 0 0.5625
vt 0.46875 0.59375
vt 0.46875 0.84375
vt 0 0.6874999999999999
vt 0 0.375
vt 0.4375 0.3750000000000001
vt 0.4375 0.6875
vt 0.46875 0.5625
vt 0.46875 0.3125
vt 0 0.28125
vt 0.0000013945477076449109 0.59375
vt 0 0.59375
vt 0 0.28125
vt 0.46875 0.3125
vt 0.46875 0.5625
vt 0 0.3749999999999999
vt 0 0.0625
vt 0.4375 0.06250000000000011
vt 0.4375 0.375
vt 0 0.25
vt 0 0
vt 0.4375 0
vt 0.4375 0.25
vt 0.46875 0.84375
vt 0.46875 0.59375
vt 0 0.5625
vt 0.0000013945477076449109 0.875
vt 0 0.3125
vt 0 0
vt 0.46875 0.03125
vt 0.46875 0.28125
vt 0 0.9374999999999999
vt 0 0.625
vt 0.4375 0.6250000000000001
vt 0.4375 0.9375
vt 0 0.53125
vt 0 0.28125
vt 0.4375 0.28125
vt 0.4375 0.53125
vt 1 0.28125
vt 1 0.03125
vt 0.53125 0
vt 0.5312513945477076 0.3125
vt 0.53125 0.84375
vt 0.53125 0.53125
vt 1 0.5625
vt 1 0.8125
vt 0.4375 0.4649562500000002
vt 0.4375 1
vt 0 1
vt 0 0.4649562500000002
vt 0 1
vt 0 0.46495624999999996
vt 0.4375 0.46495624999999996
vt 0.4375 1
vn 0.382683432365091 0.9238795325112863 -2.332606185306825e-15
vn 7.559864267968851e-16 1.825112684543015e-15 1
vn 0 0 -1
vn 0.4999999999999999 0.8660254037844387 -1.4578788658167678e-15
vn 9.877438672020364e-16 1.7108225628584911e-15 1
vn 0 0 -1
vn 0.6087614290087204 0.7933533402912354 -1.9993767302629936e-15
vn 1.202600736185022e-15 1.5672597927938343e-15 1
vn 0 0 -1
vn 0.7071067811865476 0.7071067811865476 -1.791108320860597e-15
vn 0 0 1
vn 0 0 -1
vn 0.7933533402912347 0.6087614290087212 -1.5411862295777216e-15
vn -0.7933533402912349 -0.6087614290087211 1.7932952330702828e-15
vn 0 0 1
vn 0 0 -1
vn 0.25881904510252 0.9659258262890685 -3.2489871866773665e-15
vn -0.25881904510252124 -0.9659258262890682 3.2520204599707375e-15
vn 5.112938490302012e-16 1.908174622178172e-15 1
vn 0 0 -1
vn 0.5555702330196025 -0.8314696123025452 2.1609555850522493e-15
vn -0.9807852804032304 0.1950903220161282 -4.911262693300569e-16
usemtl m_mortar
f 57/217/55 61/218/55 62/219/55 58/220/55
f 59/221/56 63/222/56 61/223/56 57/224/56
f 58/225/57 62/226/57 64/227/57 60/228/57
f 61/229/58 65/230/58 66/231/58 62/232/58
f 63/233/59 67/234/59 65/235/59 61/236/59
f 62/237/60 66/238/60 68/239/60 64/240/60
f 65/241/61 69/242/61 70/243/61 66/244/61
f 67/245/62 71/246/62 69/247/62 65/248/62
f 66/249/63 70/250/63 72/251/63 68/252/63
f 69/253/64 73/254/64 74/255/64 70/256/64
f 71/257/65 75/258/65 73/259/65 69/260/65
f 70/261/66 74/262/66 76/263/66 72/264/66
f 73/265/67 77/266/67 78/267/67 74/268/67
f 76/269/68 80/270/68 79/271/68 75/272/68
f 75/273/69 79/274/69 77/275/69 73/276/69
f 74/277/70 78/278/70 80/279/70 76/280/70
f 81/281/71 57/282/71 58/283/71 82/284/71
f 84/285/72 60/286/72 59/287/72 83/288/72
f 83/289/73 59/290/73 57/291/73 81/292/73
f 82/293/74 58/294/74 60/295/74 84/296/74
f 80/297/75 78/298/75 77/299/75 79/300/75
f 82/301/76 84/302/76 83/303/76 81/304/76