mtllib brick_arch.mtl

o bricks_2
v 1.484375 0.0625 -0.5359374999999996
v 1.484375 -0.09375 -0.5359374999999998
v 1.484375 0.06249999999999999 0.03593749999999718
v 1.484375 -0.09375000000000001 0.03593749999999707
v 0.984522261266404 0.06062886819936424 -0.5359374999999995
v 0.984375 -0.09375 -0.5359374999999998
v 0.984522261266404 0.06062886819936423 0.03593749999999718
v 0.984375 -0.09375000000000001 0.03593749999999707
v 1.4540708076678406 0.2913012721368342 -0.5359374999999993
v 1.4785136928303766 0.13697496891884395 -0.5359374999999995
v 1.4540708076678406 0.2913012721368342 0.035937499999997624
v 1.4785136928303766 0.13697496891884395 0.0359374999999974
v 0.9606647951083722 0.21125898129094517 -0.5359374999999993
v 0.9606647951083722 0.21125898129094517 0.03593749999999729
v 1.3883473056229638 0.512545000823763 -0.5359374999999991
v 1.4366312109940496 0.3639424201526452 -0.5359374999999995
v 1.3883473056229638 0.512545000823763 0.03593749999999796
v 1.4366312109940496 0.3639424201526452 0.03593749999999751
v 0.9135373127875104 0.35630245777837943 -0.5359374999999995
v 0.9135373127875104 0.35630245777837943 0.03593749999999751
v 1.2888228246095133 0.7207834311946755 -0.5359374999999988
v 1.3597588401938174 0.5815636617902431 -0.5359374999999988
v 1.2888228246095133 0.7207834311946755 0.03593749999999751
v 1.3597588401938174 0.5815636617902431 0.0359374999999984
v 0.8443002493257046 0.49218784589884623 -0.5359374999999993
v 0.8443002493257046 0.49218784589884623 0.03593749999999796
v 1.1579479876528544 0.9108890419901126 -0.5359374999999984
v 1.2497894333235535 0.784480136619027 -0.535937499999998
v 1.1579479876528544 0.9108890419901126 0.03593749999999707
v 1.2497894333235535 0.784480136619027 0.03593749999999751
v 0.7546584510100238 0.6155691964190724 -0.5359374999999993
v 0.7546584510100238 0.6155691964190724 0.03593749999999796
v 0.9989453675875426 1.0781808021479409 -0.5359374999999984
v 1.1094308021479407 0.9676953675875427 -0.535937499999998
v 0.9989453675875426 1.0781808021479407 0.03593749999999796
v 1.1094308021479407 0.9676953675875427 0.03593749999999796
v 0.6468191964190726 0.723408451010024 -0.5359374999999988
v 0.6468191964190726 0.7234084510100238 0.0359374999999984
v 0.09187886819936418 0.953272261266404 -0.5359374999999984
v 0 0.9531249999999999 -0.535937499999998
v 0.09187886819936418 0.9532722612664036 0.03593749999999796
v -0.00625 0.9531249999999999 0.03593749999999796
v 0.09374999999999967 1.453125 -0.5359374999999966
v -0.00625 1.453125 -0.5359374999999966
v 0.09374999999999967 1.453125 0.035937499999998845
v 0 1.453125 0.035937499999998845
v 0.24250898129094517 0.9294147951083724 -0.535937499999998
v 0.24250898129094517 0.9294147951083722 0.0359374999999984
v 0.3225512721368343 1.4228208076678408 -0.5359374999999984
v 0.16822496891884406 1.447263692830377 -0.5359374999999975
v 0.3225512721368343 1.4228208076678404 0.03593750000000062
v 0.16822496891884406 1.4472636928303766 0.035937499999998845
v 0.3875524577783795 0.8822873127875104 -0.5359374999999984
v 0.38755245777837943 0.8822873127875102 0.03593749999999707
v 0.5437950008237629 1.3570973056229643 -0.5359374999999975
v 0.3951924201526452 1.40538121099405 -0.5359374999999984
v 0.5437950008237629 1.3570973056229638 0.035937499999998845
v 0.3951924201526452 1.4053812109940496 0.03593750000000062
v 0.5234378458988465 0.8130502493257046 -0.5359374999999988
v 0.5234378458988465 0.8130502493257044 0.0359374999999984
v 0.7520334311946755 1.2575728246095133 -0.5359374999999975
v 0.6128136617902431 1.3285088401938174 -0.5359374999999975
v 0.7520334311946755 1.2575728246095128 0.035937499999998845
v 0.6128136617902431 1.328508840193817 0.035937499999998845
v 0.942139041990113 1.1266979876528547 -0.5359374999999975
v 0.8157301366190275 1.2185394333235537 -0.5359374999999975
v 0.942139041990113 1.1266979876528542 0.035937499999998845
v 0.8157301366190275 1.2185394333235533 0.035937499999998845
vt 0 0.0625
vt 0.46875 0.0625
vt 0.46875 0.21875
vt 0 0.21875
vt 0 0.15625
vt 0.46875 0.15625
vt 0.46875 0
vt 0 0
vt 0 0.21875
vt 0 0.0625
vt 0.46875 0.0625
vt 0.468609375 0.21688125000000003
vt 0.53125 0.2206149717000353
vt 0.5312500000000001 0.3731317226084865
vt 1 0.375
vt 0.9999978757682169 0.21875
vt 0 0.5
vt 0.46875 0.5
vt 0.46875 1
vt 0 1
vt 0 0.5
vt 0.46875 0.5
vt 0.46875 0
vt 0 0
vt 0 0.21875
vt 0.46875 0.21875
vt 0.46875 0.375
vt 0 0.375
vt 0 0.3125
vt 0.46875 0.3125
vt 0.46875 0.15625
vt 0 0.15625
vt 0 0.375
vt 0 0.21875
vt 0.46875 0.21875
vt 0.468609375 0.37313125
vt 0.53125 0.0643649717000353
vt 0.5312500000000001 0.21688172260848648
vt 1 0.21875
vt 0.9999978757682169 0.0625
vt 0 0
vt 0.46875 0
vt 0.46875 0.5
vt 0 0.5
vt 0 0
vt 0.46875 0
vt 0.46875 0.5
vt 0 0.5
vt 0 0.375
vt 0.46875 0.375
vt 0.46875 0.53125
vt 0 0.53125
vt 0 0.46875
vt 0.46875 0.46875
vt 0.46875 0.3125
vt 0 0.3125
vt 0 0.53125
vt 0 0.375
vt 0.46875 0.375
vt 0.468609375 0.52938125
vt 0 0.8456149717000353
vt 1.1102230246251565e-16 0.9981317226084865
vt 0.46875 1
vt 0.4687478757682168 0.84375
vt 0 0.5
vt 0.46875 0.5
vt 0.46875 1
vt 0 1
vt 0 0.5
vt 0.46875 0.5
vt 0.46875 1
vt 0 1
vt 0 0.53125
vt 0.46875 0.53125
vt 0.46875 0.6875
vt 0 0.6875
vt 0 0.625
vt 0.46875 0.625
vt 0.46875 0.46875
vt 0 0.46875
vt 0 0.6875
vt 0 0.53125
vt 0.46875 0.53125
vt 0.468609375 0.68563125
vt 0 0.6893649717000353
vt 1.1102230246251565e-16 0.8418817226084865
vt 0.46875 0.84375
vt 0.4687478757682168 0.6875
vt 0 0
vt 0.46875 0
vt 0.46875 0.5
vt 0 0.5
vt 0 0
vt 0.46875 0
vt 0.46875 0.5
vt 0 0.5
vt 0 0.6875
vt 0.46875 0.6875
vt 0.46875 0.84375
vt 0 0.84375
vt 0 0.78125
vt 0.46875 0.78125
vt 0.46875 0.625
vt 0 0.625
vt 0 0.84375
vt 0 0.6875
vt 0.46875 0.6875
vt 0.468609375 0.84188125
vt 0 0.5331149717000353
vt 1.1102230246251565e-16 0.6856317226084865
vt 0.46875 0.6875
vt 0.4687478757682168 0.53125
vt 0 0.5
vt 0.46875 0.5
vt 0.46875 1
vt 0 1
vt 0 0.5
vt 0.46875 0.5
vt 0.46875 1
vt 0 1
vt 0 0.84375
vt 0.46875 0.84375
vt 0.46875 1
vt 0 1
vt 0 0.9375
vt 0.46875 0.9375
vt 0.46875 0.78125
vt 0 0.78125
vt 0 1
vt 0 0.84375
vt 0.46875 0.84375
vt 0.468609375 0.99813125
vt 0 0.3768649717000353
vt 1.1102230246251565e-16 0.5293817226084865
vt 0.46875 0.53125
vt 0.4687478757682168 0.375
vt 0 0
vt 0.46875 0
vt 0.46875 0.5
vt 0 0.5
vt 0 0
vt 0.46875 0
vt 0.46875 0.5
vt 0 0.5
vt 0 0.90625
vt 0.46875 0.90625
vt 0.46875 0.8125
vt 0 0.8125
vt 0 0
vt 0.0625 0
vt 0.0625 0.09375
vt 0 0.09375
vt 1 0.09375
vt 0.9999999999999999 0
vt 0.53125 0
vt 0.5314015192483014 0.09375
vt 0.4687499999999998 0
vt 0.46875 0.09130046830063687
vt 0 0.09375
vt 0 0
vt 0 0.5
vt 0.46875 0.5
vt 0.46875 1
vt 0 1
vt 0 0.5
vt 0.46875 0.5
vt 0.46875 1
vt 0 1
vt 0 0.75
vt 0.46875 0.75
vt 0.46875 0.59375
vt 0 0.59375
vt 0 0.53125
vt 0.0625 0.53125
vt 0.0625 0.6875
vt 0 0.6875
vt 1 0.6875
vt 1 0.53125
vt 0.53125 0.53125
vt 0.531390625 0.68563125
vt 1 0.8418850282999647
vt 0.9999999999999999 0.6893682773915135
vt 0.53125 0.6875
vt 0.5312521242317831 0.84375
vt 0 0
vt 0.46875 0
vt 0.46875 0.5
vt 0 0.5
vt 0 0
vt 0.46875 0
vt 0.46875 0.5
vt 0 0.5
vt 0 0.5625
vt 0.46875 0.5625
vt 0.46875 0.40625
vt 0 0.40625
vt 0 0.375
vt 0.46875 0.375
vt 0.46875 0.53125
vt 0 0.53125
vt 1 0.53125
vt 1 0.375
vt 0.53125 0.375
vt 0.531390625 0.52938125
vt 1 0.9981350282999647
vt 0.9999999999999999 0.8456182773915135
vt 0.53125 0.84375
vt 0.5312521242317831 1
vt 0 0.5
vt 0.46875 0.5
vt 0.46875 1
vt 0 1
vt 0 0.5
vt 0.46875 0.5
vt 0.46875 1
vt 0 1
vt 0 0.375
vt 0.46875 0.375
vt 0.46875 0.21875
vt 0 0.21875
vt 0 0.21875
vt 0.46875 0.21875
vt 0.46875 0.375
vt 0 0.375
vt 1 0.375
vt 1 0.21875
vt 0.53125 0.21875
vt 0.531390625 0.37313125
vt 0.46875 0.2168850282999647
vt 0.4687499999999999 0.06436827739151352
vt 0 0.0625
vt 0.0000021242317831404733 0.21875
vt 0 0
vt 0.46875 0
vt 0.46875 0.5
vt 0 0.5
vt 0 0
vt 0.46875 0
vt 0.46875 0.5
vt 0 0.5
vt 0 0.15625
vt 0.46875 0.15625
vt 0.46875 0
vt 0 0
vt 0 0.0625
vt 0.46875 0.0625
vt 0.46875 0.21875
vt 0 0.21875
vt 1 0.21875
vt 1 0.0625
vt 0.53125 0.0625
vt 0.531390625 0.21688125000000003
vt 0.46875 0.3731350282999647
vt 0.4687499999999999 0.22061827739151352
vt 0 0.21875
vt 0.0000021242317831404733 0.375
vt 0 0.5
vt 0.46875 0.5
vt 0.46875 1
vt 0 1
vt 0 0.5
vt 0.46875 0.5
vt 0.46875 1
vt 0 1
vn 1 0 0
vn -0.9999995450422532 0.0009538947987112953 2.314832718250197e-20
vn 0 1.4210854715202005e-15 -1
vn 2.6598215945757487e-18 -7.105427357601002e-16 1
vn -0.003743339879712975 0.9999929936787284 1.2133499956786549e-17
vn 0 -1 -2.4267169937162023e-17
vn 0.987688340595138 0.1564344650402305 0
vn -0.9876883405951377 -0.1564344650402315 0
vn -5.937647086106379e-17 1.4293951715724276e-15 -1
vn -4.305655401263646e-16 -1.506994362774149e-15 1
vn -0.16013062216418794 0.9870958331617605 0
vn 0.15273611585603364 -0.9882670079048538 -2.3982443424117743e-17
vn 0.9510565162951532 0.30901699437494856 0
vn -0.9510565162951538 -0.30901699437494745 0
vn -1.290638925922089e-15 2.5690813736776617e-15 -1
vn 4.344095247146981e-17 -2.9743205603535348e-15 1
vn -0.3125749570879153 0.9498930972491 0
vn 0.3054547015172979 -0.9522066085262056 0
vn 0.8910065241883678 0.453990499739547 0
vn -0.8910065241883678 -0.453990499739547 0
vn 1.1812244473712106e-15 6.018639175006248e-16 -1
vn -1.8079906483293917e-15 5.458468794660719e-15 1
vn -0.45732265919133014 0.8893008407677184 0
vn 0.45065197868117246 -0.89269972225309 0
vn 0.8090169943749469 0.5877852522924738 0
vn -0.8090169943749472 -0.5877852522924737 0
vn 3.794053300606418e-15 -7.291291902905014e-16 -1
vn -2.4166727327882875e-16 3.3375349376084557e-15 1
vn -0.5908095596585661 0.806811046166357 0
vn 0.5847527085017477 -0.8112116061175841 0
vn 0.7071067811865479 0.7071067811865472 0
vn -0.707106781186549 -0.707106781186546 -2.7455168676437674e-16
vn 3.861403143433771e-15 -1.2663170162301706e-16 -1
vn 6.282220090107692e-16 6.282220090107698e-16 1
vn -0.7097487679824964 0.7044548859560339 2.735220228889469e-16
vn 0.7044548859560342 -0.709748767982496 0
vn 0.0016027741755938053 -0.9999987154032293 0.00001751665765676303
vn 0 1 0
vn -4.799811701944922e-15 2.590659825018249e-15 -1
vn 2.6665659039071292e-18 -1.7768901525810313e-15 1
vn 0.9999929936787284 -0.003743339879712433 -2.1801663598448964e-18
vn -0.9998621823933238 -0.012498277279916575 0.010927455545282315
vn -0.15643446504023 -0.9876883405951379 -5.752416193482191e-16
vn 0.1564344650402319 0.9876883405951377 7.669888257976219e-16
vn 3.1310785213000817e-15 1.3000101795597164e-15 -1
vn -3.569270248822023e-15 -3.921219913495347e-15 1
vn 0.9870958331617605 -0.16013062216418816 -6.217467232322946e-17
vn -0.9882670079048538 0.15273611585603378 1.1860714492865415e-16
vn -0.3090169943749487 -0.9510565162951532 -3.692712016124769e-16
vn 0.3090169943749488 0.9510565162951532 7.385424032249538e-16
vn -3.023497928963484e-15 4.415920448536899e-17 -1
vn 7.199903033868489e-15 -6.110418994693486e-15 1
vn 0.9498930972491001 -0.3125749570879146 -2.916008477573256e-17
vn -0.9522066085262058 0.3054547015172978 2.372006767944109e-16
vn -0.4539904997395465 -0.8910065241883681 -3.900235662297348e-16
vn 0.45399049973954697 0.8910065241883678 6.919106156031745e-16
vn -1.799097367614696e-15 2.8831113828989484e-15 -1
vn -8.172096944986055e-15 3.2034730147824513e-15 1
vn 0.8893008407677185 -0.4573226591913298 -1.775668269873732e-16
vn -0.89269972225309 0.4506519786811724 3.4995354077357885e-16
vn -0.5877852522924726 -0.8090169943749478 -3.1412084615278237e-16
vn 0.5877852522924738 0.8090169943749469 6.28241692305565e-16
vn 1.5584763769144744e-15 2.145058708666504e-15 -1
vn -5.222119796990914e-16 -7.187631275112898e-16 1
vn 0.8068110461663568 -0.5908095596585663 -2.2939641575574856e-16
vn -0.8112116061175839 0.5847527085017477 4.540893871496862e-16
usemtl m_keystones
f 4/1/1 2/2/1 1/3/1 3/4/1
usemtl m_arch
f 7/5/2 5/6/2 6/7/2 8/8/2
usemtl m_keystones
f 1/9/3 2/10/3 6/11/3 5/12/3
f 4/13/4 3/14/4 7/15/4 8/16/4
usemtl m_arch
f 3/17/5 1/18/5 5/19/5 7/20/5
f 8/21/6 6/22/6 2/23/6 4/24/6
usemtl m_keystones
f 12/25/7 10/26/7 9/27/7 11/28/7
usemtl m_arch
f 14/29/8 13/30/8 5/31/8 7/32/8
usemtl m_keystones
f 9/33/9 10/34/9 5/35/9 13/36/9
f 12/37/10 11/38/10 14/39/10 7/40/10
usemtl m_arch
f 11/41/11 9/42/11 13/43/11 14/44/11
f 7/45/12 5/46/12 10/47/12 12/48/12
usemtl m_keystones
f 18/49/13 16/50/13 15/51/13 17/52/13
usemtl m_arch
f 20/53/14 19/54/14 13/55/14 14/56/14
usemtl m_keystones
f 15/57/15 16/58/15 13/59/15 19/60/15
f 18/61/16 17/62/16 20/63/16 14/64/16
usemtl m_arch
f 17/65/17 15/66/17 19/67/17 20/68/17
f 14/69/18 13/70/18 16/71/18 18/72/18
usemtl m_keystones
f 24/73/19 22/74/19 21/75/19 23/76/19
usemtl m_arch
f 26/77/20 25/78/20 19/79/20 20/80/20
usemtl m_keystones
f 21/81/21 22/82/21 19/83/21 25/84/21
f 24/85/22 23/86/22 26/87/22 20/88/22
usemtl m_arch
f 23/89/23 21/90/23 25/91/23 26/92/23
f 20/93/24 19/94/24 22/95/24 24/96/24
usemtl m_keystones
f 30/97/25 28/98/25 27/99/25 29/100/25
usemtl m_arch
f 32/101/26 31/102/26 25/103/26 26/104/26
usemtl m_keystones
f 27/105/27 28/106/27 25/107/27 31/108/27
f 30/109/28 29/110/28 32/111/28 26/112/28
usemtl m_arch
f 29/113/29 27/114/29 31/115/29 32/116/29
f 26/117/30 25/118/30 28/119/30 30/120/30
usemtl m_keystones
f 36/121/31 34/122/31 33/123/31 35/124/31
usemtl m_arch
f 38/125/32 37/126/32 31/127/32 32/128/32
usemtl m_keystones
f 33/129/33 34/130/33 31/131/33 37/132/33
f 36/133/34 35/134/34 38/135/34 32/136/34
usemtl m_arch
f 35/137/35 33/138/35 37/139/35 38/140/35
f 32/141/36 31/142/36 34/143/36 36/144/36
f 42/145/37 40/146/37 39/147/37 41/148/37
usemtl m_keystones
f 45/149/38 43/150/38 44/151/38 46/152/38
f 39/153/39 40/154/39 44/155/39 43/156/39
f 42/157/40 41/158/40 45/159/40 46/160/40
usemtl m_arch
f 41/161/41 39/162/41 43/163/41 45/164/41
f 46/165/42 44/166/42 40/167/42 42/168/42
f 41/169/43 39/170/43 47/171/43 48/172/43
usemtl m_keystones
f 51/173/44 49/174/44 50/175/44 52/176/44
f 47/177/45 39/178/45 50/179/45 49/180/45
f 41/181/46 48/182/46 51/183/46 52/184/46
usemtl m_arch
f 48/185/47 47/186/47 49/187/47 51/188/47
f 52/189/48 50/190/48 39/191/48 41/192/48
f 48/193/49 47/194/49 53/195/49 54/196/49
usemtl m_keystones
f 57/197/50 55/198/50 56/199/50 58/200/50
f 53/201/51 47/202/51 56/203/51 55/204/51
f 48/205/52 54/206/52 57/207/52 58/208/52
usemtl m_arch
f 54/209/53 53/210/53 55/211/53 57/212/53
f 58/213/54 56/214/54 47/215/54 48/216/54
f 54/217/55 53/218/55 59/219/55 60/220/55
usemtl m_keystones
f 63/221/56 61/222/56 62/223/56 64/224/56
f 59/225/57 53/226/57 62/227/57 61/228/57
f 54/229/58 60/230/58 63/231/58 64/232/58
usemtl m_arch
f 60/233/59 59/234/59 61/235/59 63/236/59
f 64/237/60 62/238/60 53/239/60 54/240/60
f 60/241/61 59/242/61 37/243/61 38/244/61
usemtl m_keystones
f 67/245/62 65/246/62 66/247/62 68/248/62
f 37/249/63 59/250/63 66/251/63 65/252/63
f 60/253/64 38/254/64 67/255/64 68/256/64
usemtl m_arch
f 38/257/65 37/258/65 65/259/65 67/260/65
f 68/261/66 66/262/66 59/263/66 60/264/66
o mortar_2
v 0.17076992453610582 1.5 0.0078124999999976685
v 0.17076992453610582 1.5 -0.514062499999995
v 0.11375349967520446 0.9939652332543323 0.007812499999995004
v 0.11375349967520446 0.9939652332543323 -0.5140624999999936
v 0.5037466565189722 1.4240002338011526 0.007812500000000333
v 0.5037466565189722 1.4240002338011528 -0.514062499999995
v 0.3355564235586502 0.9433401632772804 0.007812499999995004
v 0.3355564235586502 0.9433401632772804 -0.5140624999999936
v 0.8114634276811258 1.2758116470280552 0.0078124999999976685
v 0.8114634276811258 1.2758116470280552 -0.514062499999995
v 0.5405331472032644 0.8446285757237092 0.007812499999996336
v 0.5405331472032644 0.8446285757237092 -0.5140624999999936
v 1.07849003420316 1.0628650342031603 0.0078124999999976685
v 1.07849003420316 1.0628650342031603 -0.514062499999995
v 0.7184052817772477 0.7027802817772477 0.007812499999993672
v 0.7184052817772477 0.7027802817772477 -0.5140624999999963
v 1.2914366470280552 0.7958384276811258 0.007812499999995004
v 1.2914366470280552 0.7958384276811258 -0.5140624999999936
v 0.8602535757237092 0.5249081472032645 0.007812499999994338
v 0.8602535757237092 0.5249081472032645 -0.5140624999999976
v 1.4396252338011528 0.4881216565189723 0.007812499999993006
v 1.4396252338011528 0.4881216565189723 -0.5140624999999976
v 0.9589651632772807 0.31993142355865023 0.0078124999999923395
v 0.9589651632772807 0.31993142355865023 -0.514062499999999
v 1.515625 0.1551449245361059 0.007812499999992117
v 1.515625 0.1551449245361059 -0.514062499999999
v 1.009590233254332 0.09812849967520451 0.007812499999991562
v 1.009590233254332 0.09812849967520451 -0.5140624999999991
v 1.515625 -0.125 0.007812499999990563
v 1.515625 -0.125 -0.5140625000000001
v 1.009590233254332 -0.125 0.007812499999990563
v 1.009590233254332 -0.125 -0.5140625000000001
v 0 1.5 0.0078124999999976685
v 0 1.5 -0.514062499999995
v 0 0.9939652332543323 0.007812499999995004
v 0 0.9939652332543323 -0.5140624999999936
vt 1.1102230246251565e-16 0.4374999999999999
vt 1.1102230246251565e-16 0.15625
vt 0.4375000000000001 0.15625
vt 0.4375000000000001 0.4375
vt 1 0.28125
vt 1 0.046875
vt 0.5000002578709046 0
vt 0.5 0.328125
vt 2.220446049250313e-16 0.328125
vt 0 0
vt 0.5 0.046875
vt 0.5 0.28125
vt 1.1102230246251565e-16 0.7187499999999999
vt 1.1102230246251565e-16 0.4375
vt 0.4375000000000001 0.4375
vt 0.4375000000000001 0.71875
vt 0.5 0.953125
vt 0.5 0.71875
vt 2.5787090462969786e-7 0.671875
vt 0 1
vt 0.5000000000000002 1
vt 0.5 0.671875
vt 1 0.71875
vt 1 0.953125
vt 1.1102230246251565e-16 0.9999999999999999
vt 1.1102230246251565e-16 0.71875
vt 0.4375000000000001 0.71875
vt 0.4375000000000001 1
vt 0.5 0.625
vt 0.5 0.390625
vt 2.5787090462969786e-7 0.34375
vt 0 0.671875
vt 0.5000000000000002 0.671875
vt 0.5 0.34375
vt 1 0.390625
vt 1 0.625
vt 1.1102230246251565e-16 0.2812499999999999
vt 1.1102230246251565e-16 0
vt 0.4375000000000001 0
vt 0.4375000000000001 0.28125
vt 0.5 0.28125
vt 0.5 0.046875
vt 2.5787090462969786e-7 0
vt 0 0.328125
vt 0.5000000000000002 0.328125
vt 0.5 0
vt 1 0.046875
vt 1 0.28125
vt 1.1102230246251565e-16 0.8437499999999999
vt 1.1102230246251565e-16 0.5625
vt 0.4375000000000001 0.5625
vt 0.4375000000000001 0.84375
vt 1 0.953125
vt 1 0.71875
vt 0.5000002578709046 0.671875
vt 0.5 1
vt 2.220446049250313e-16 1
vt 0 0.671875
vt 0.5 0.71875
vt 0.5 0.953125
vt 1.1102230246251565e-16 0.5624999999999999
vt 1.1102230246251565e-16 0.28125
vt 0.4375000000000001 0.28125
vt 0.4375000000000001 0.5625
vt 1 0.625
vt 1 0.390625
vt 0.5000002578709046 0.34375
vt 0.5 0.671875
vt 2.220446049250313e-16 0.671875
vt 0 0.34375
vt 0.5 0.390625
vt 0.5 0.625
vt 0 0.2812499999999999
vt 0 0
vt 0.4375 0
vt 0.4375 0.28125
vt 0.4375 0
vt 0.4375 0.21875
vt 0 0.21875
vt 0 0
vt 1 0.265625
vt 1 0.03125
vt 0.5 0.03125
vt 0.5 0.3125
vt 0 0.3125
vt 0 0.03125
vt 0.5 0.03125
vt 0.5 0.265625
vt 1.1102230246251565e-16 0.9999999999999999
vt 1.1102230246251565e-16 0.84375
vt 0.4375000000000001 0.8437500000000001
vt 0.4375000000000001 1
vt 0.5 0
vt 0.5 0.09375
vt 0 0.140625
vt 0 0
vt 0.5 0
vt 0.5 0.140625
vt 1 0.09375
vt 1 0
vt 0 0.9999999999999998
vt 0 0.5
vt 0.4375 0.5000000000000002
vt 0.4375 1
vt 0 0.4999999999999998
vt 0 0
vt 0.4375 2.220446049250313e-16
vt 0.4375 0.5
vn 0.22252093395631506 0.9749279121818236 4.087630878661581e-16
vn -2.3433760420360462e-15 -1.0267001272642588e-14 1
vn -5.820299218989241e-16 -2.550039704110122e-15 -1
vn 0.4338837391175578 0.9009688679024194 0
vn -6.132052997326151e-15 7.632285004255456e-16 1
vn -1.134874433168536e-15 -2.3565910428973667e-15 -1
vn 0.6234898018587336 0.78183148246803 0
vn 3.4094584129672237e-15 -1.4509075549554824e-14 1
vn 1.6318802854165684e-15 2.0463131537260694e-15 -1
vn 0.7818314824680297 0.6234898018587337 0
vn -2.596818205676427e-15 1.6741216004630818e-15 1
vn 8.212467993626786e-15 1.5924376808132571e-15 -1
vn 0.900968867902419 0.43388373911755834 0
vn 1.7334824036427252e-15 -8.914605579478627e-15 1
vn -1.5077126482605593e-15 1.2183576927646957e-14 -1
vn 0.9749279121818237 0.2225209339563144 0
vn -6.84592395795309e-16 -3.6600674191612594e-15 1
vn -1.1776298261502693e-16 3.950760784181046e-15 -1
vn 1 0 0
vn -1 0 0
vn 0 -4.47814028067737e-15 1
vn 0 4.136413621882906e-15 -1
vn 0 1 0
vn 0 -5.26551817029514e-15 1
vn 0 -2.6156187265203065e-15 -1
vn -1 0 0
vn 0 -1 0
usemtl m_mortar
f 69/265/67 73/266/67 74/267/67 70/268/67
f 71/269/68 75/270/68 73/271/68 69/272/68
f 70/273/69 74/274/69 76/275/69 72/276/69
f 73/277/70 77/278/70 78/279/70 74/280/70
f 75/281/71 79/282/71 77/283/71 73/284/71
f 74/285/72 78/286/72 80/287/72 76/288/72
f 77/289/73 81/290/73 82/291/73 78/292/73
f 79/293/74 83/294/74 81/295/74 77/296/74
f 78/297/75 82/298/75 84/299/75 80/300/75
f 81/301/76 85/302/76 86/303/76 82/304/76
f 83/305/77 87/306/77 85/307/77 81/308/77
f 82/309/78 86/310/78 88/311/78 84/312/78
f 85/313/79 89/314/79 90/315/79 86/316/79
f 87/317/80 91/318/80 89/319/80 85/320/80
f 86/321/81 90/322/81 92/323/81 88/324/81
f 89/325/82 93/326/82 94/327/82 90/328/82
f 91/329/83 95/330/83 93/331/83 89/332/83
f 90/333/84 94/334/84 96/335/84 92/336/84
f 93/337/85 97/338/85 98/339/85 94/340/85
f 96/341/86 100/342/86 99/343/86 95/344/86
f 95/345/87 99/346/87 97/347/87 93/348/87
f 94/349/88 98/350/88 100/351/88 96/352/88
f 101/353/89 69/354/89 70/355/89 102/356/89
f 103/357/90 71/358/90 69/359/90 101/360/90
f 102/361/91 70/362/91 72/363/91 104/364/91
f 102/365/92 104/366/92 103/367/92 101/368/92
f 97/369/93 99/370/93 100/371/93 98/372/93