mtllib brick_arch.mtl

o cube.004
v 0.830644 0.27696599999999977 0.033311885461373425
v 1.293131 0.5439829999999998 0.033311885461373425
v 1.215006 0.6792989999999998 0.033311885461373425
v 0.752519 0.4124049999999999 0.033311885461373425
v 1.215006 0.6792989999999998 -0.5348214665674991
v 0.752519 0.4124049999999999 -0.5348214665674991
v 1.293131 0.5439829999999998 -0.5348214665674991
v 0.830644 0.27696599999999977 -0.5348220000000001
v 1.382061 0.3514359999999998 -0.5348214665674991
v 0.894197 0.13422500000000007 -0.5348220000000001
v 1.318508 0.49417699999999976 -0.5348214665674991
v 1.318508 0.49417699999999976 0.033311885461373425
v 0.894197 0.13422500000000007 0.033311885461373425
v 1.382061 0.3514349999999998 0.033311885461373425
v 0.942481 -0.014378000000000002 -0.5348220000000001
v 1.447405 0.14968200000000006 -0.5348220000000001
v 1.447405 0.14968200000000006 0.033311885461373425
v 0.942481 -0.014378000000000002 0.033311885461373425
v 1.399121 0.29828399999999977 -0.5348220000000001
v 1.399121 0.29828399999999977 0.033311885461373425
v 0.974967 -0.16721399999999995 0.033311885461373425
v 1.494274 -0.056832000000000014 0.033311885461373425
v 1.461787 0.09600400000000006 0.033311885461373425
v 1.461787 0.09600400000000006 -0.5348220000000001
v 1.494274 -0.05683100000000001 -0.5348220000000001
v 0.974967 -0.16721299999999995 -0.5348220000000001
v 1.516192 -0.2674390000000002 -0.5348220000000001
v 0.9913 -0.3226070000000002 -0.5348220000000001
v 1.499859 -0.11204499999999995 -0.5348220000000001
v 1.499859 -0.11204499999999995 0.033311885461373425
v 0.9913 -0.32260800000000023 0.033311885461373425
v 1.516192 -0.2674390000000002 0.033311885461373425
v 0.9913 -0.47885800000000023 0.033311352028872476
v 1.515958 -0.47885800000000023 0.033311352028872476
v 1.515958 -0.32260800000000023 0.033311885461373425
v 0.9913 -0.4788570000000002 -0.5348220000000001
v 1.515958 -0.4788570000000002 -0.5348220000000001
v 1.515958 -0.3226070000000002 -0.5348220000000001
v 0.660678 0.538936 0.033311885461373425
v 1.09272 0.852832 0.033311885461373425
v 1.09272 0.852833 -0.5348214665674991
v 0.660678 0.538936 -0.5348214665674991
v 1.184561 0.726424 0.033311885461373425
v 1.184561 0.726424 -0.5348214665674991
v 0.556126 0.655052 0.03361994273068669
v 0.950668 1.010299 0.033311885461373425
v 0.950668 1.010299 -0.5348214665674991
v 0.556126 0.655052 -0.5348214665674991
v 1.05522 0.894183 0.033311885461373425
v 1.05522 0.894183 -0.5348214665674991
v 0.909282 1.047271 0.03392799999999996
v 0.793166 1.151823 0.03392799999999996
v 0.44001 0.759604 0.03386638854613733
v 0.909282 1.047271 -0.5348214665674991
v 0.793166 1.151823 -0.5348214665674991
v 0.44001 0.759604 -0.5348214665674991
v 0.748396 1.184061 -0.5348214665674991
v 0.313601 0.851445 -0.5348214665674991
v 0.621987 1.275903 -0.5348214665674991
v 0.748396 1.184061 0.033804777092274696
v 0.621987 1.275903 0.033804777092274696
v 0.313601 0.851445 0.033804777092274696
v 0.57593 1.305813 -0.5348214665674991
v 0.178284 0.92957 -0.5348214665674991
v 0.440614 1.383938 -0.5348214665674991
v 0.57593 1.305812 0.033804777092274696
v 0.440614 1.383937 0.033804777092274696
v 0.178284 0.92957 0.033804777092274696
v 0.391682 1.408869 -0.5348214665674991
v 0.000066 0.9965459999999999 -0.5332198354833202
v 0.221784 1.48869 -0.5348214665674991
v 0.391682 1.408869 0.033804777092274696
v 0.221784 1.48869 0.033804777092274696
v 0.000066 0.9965459999999999 0.03257254801502163
v 0.073724 1.547302 0.028408573912407475
v 0.073724 1.547302 -0.5345494159920015
v 0.183507 1.502833 -0.5303091610417481
v 0.183507 1.502832 0.03264882886266085
v -0.002297 1.550424 0.03134031893776856
v -0.002297 1.550424 -0.5316176709666408
vt 1 0.375
vt 0.53125 0.375
vt 0.53125 0.53125
vt 1 0.53125
vt 0 0.3125
vt 0 0.8125
vt 0.4687500000000002 0.8125
vt 0.4687500000000002 0.3125
vt 0 0.84375
vt 0.4687500000000002 0.84375
vt 0.4687500000000002 1
vt 0 1
vt 0 0.84375
vt 0.46875 0.84375
vt 0.46875 1
vt 0 1
vt 0 0.09375
vt 0 0.59375
vt 0.4687500000000002 0.59375
vt 0.4687500000000002 0.09375
vt 0 0.8125
vt 0.4687500000000002 0.8125
vt 0.4687500000000002 0.96875
vt 0 0.96875
vt 0 0.6875
vt 0.46875 0.6875
vt 0.46875 0.84375
vt 0 0.84375
vt 0 0.3125
vt 0 0.8125
vt 0.4687500000000002 0.8125
vt 0.4687500000000002 0.3125
vt 1 0.53125
vt 0.53125 0.53125
vt 0.53125 0.6875
vt 1 0.6875
vt 0 0.6875
vt 0.4687500000000002 0.6875
vt 0.4687500000000002 0.84375
vt 0 0.84375
vt 0 0.09375
vt 0 0.59375
vt 0.4687500000000002 0.59375
vt 0.4687500000000002 0.09375
vt 0 0.625
vt 0.4687500000000002 0.625
vt 0.4687500000000002 0.78125
vt 0 0.78125
vt 0 0.09375
vt 0 0.59375
vt 0.4687500000000002 0.59375
vt 0.4687500000000002 0.09375
vt 0 0.53125
vt 0.46875 0.53125
vt 0.46875 0.6875
vt 0 0.6875
vt 0 0.53125
vt 0.4687500000000002 0.53125
vt 0.4687500000000002 0.6875
vt 0 0.6875
vt 1 0.6875
vt 0.53125 0.6875
vt 0.53125 0.84375
vt 1 0.84375
vt 0 0.3125
vt 0 0.8125
vt 0.4687500000000002 0.8125
vt 0.4687500000000002 0.3125
vt 0 0.46875
vt 0.4687500000000002 0.46875
vt 0.4687500000000002 0.625
vt 0 0.625
vt 1 0.84375
vt 0.53125 0.84375
vt 0.53125 1
vt 1 1
vt 0 0.3125
vt 0 0.8125
vt 0.4687500000000002 0.8125
vt 0.4687500000000002 0.3125
vt 0 0.375
vt 0.4687500000000002 0.375
vt 0.4687500000000002 0.53125
vt 0 0.53125
vt 0 0.09375
vt 0 0.59375
vt 0.4687500000000002 0.59375
vt 0.4687500000000002 0.09375
vt 0 0.375
vt 0.46875 0.375
vt 0.46875 0.53125
vt 0 0.53125
vt 0 0.3125
vt 0.4687500000000002 0.3125
vt 0.4687500000000002 0.46875
vt 0 0.46875
vt 0 0.21875
vt 0.46875 0.21875
vt 0.46875 0.375
vt 0 0.375
vt 0 0.3125
vt 0 0.8125
vt 0.4687500000000002 0.8125
vt 0.4687500000000002 0.3125
vt 0.46875 0.0625
vt 0 0.0625
vt 0 0.21875
vt 0.46875 0.21875
vt 0 0.21875
vt 0.4687500000000002 0.21875
vt 0.4687500000000002 0.375
vt 0 0.375
vt 0 0.09375
vt 0 0.59375
vt 0.4687500000000002 0.59375
vt 0.4687500000000002 0.09375
vt 0 0.15625
vt 0.4687500000000002 0.15625
vt 0.4687500000000002 0.3125
vt 0 0.3125
vt 0.46875 0.21875
vt 0 0.21875
vt 0 0.375
vt 0.46875 0.375
vt 0 0.53125
vt 0 0.03125
vt 0.4687500000000002 0.03125
vt 0.4687500000000002 0.53125
vt 0 0.0625
vt 0.4687500000000002 0.0625
vt 0.4687500000000002 0.21875
vt 0 0.21875
vt 0 0.0625
vt 0.46875 0.0625
vt 0.46875 0.21875
vt 0 0.21875
vt 0 0
vt 0.4687500000000002 0
vt 0.4687500000000002 0.15625
vt 0 0.15625
vt 0 0.3125
vt 0 0.8125
vt 0.4687500000000002 0.8125
vt 0.4687500000000002 0.3125
vt 0 0.3125
vt 0 0.8125
vt 0.4687500000000002 0.8125
vt 0.4687500000000002 0.3125
vt 1 0.21875
vt 0.53125 0.21875
vt 0.53125 0.375
vt 1 0.375
vt 0 0.09375
vt 0 0.59375
vt 0.4687500000000002 0.59375
vt 0.4687500000000002 0.09375
vt 0 0.0625
vt 0.4687500000000002 0.0625
vt 0.4687500000000002 0.21875
vt 0 0.21875
vt 0.53125 0.0625
vt 1 0.0625
vt 1 0.21875
vt 0.53125 0.21875
vt 0 0
vt 0.4687500000000002 0
vt 0.4687500000000002 0.15625
vt 0 0.15625
vt 0 0.3125
vt 0 0.8125
vt 0.4687500000000002 0.8125
vt 0.4687500000000002 0.3125
vt 0 0.21875
vt 0.4687500000000002 0.21875
vt 0.4687500000000002 0.375
vt 0 0.375
vt 0 0.09375
vt 0 0.59375
vt 0.4687500000000002 0.59375
vt 0.4687500000000002 0.09375
vt 1 0.0625
vt 0.53125 0.0625
vt 0.53125 0.21875
vt 1 0.21875
vt 0.53125 0.21875
vt 1 0.21875
vt 1 0.375
vt 0.53125 0.375
vt 0 0.15625
vt 0.4687500000000002 0.15625
vt 0.4687500000000002 0.3125
vt 0 0.3125
vt 0.46875 0.84375
vt 0 0.84375
vt 0 1
vt 0.46875 1
vt 0 0.09375
vt 0 0.59375
vt 0.4687500000000002 0.59375
vt 0.4687500000000002 0.09375
vt 0 0.375
vt 0.4687500000000002 0.375
vt 0.4687500000000002 0.53125
vt 0 0.53125
vt 0.53125 0.375
vt 1 0.375
vt 1 0.53125
vt 0.53125 0.53125
vt 0 0.3125
vt 0 0.8125
vt 0.4687500000000002 0.8125
vt 0.4687500000000002 0.3125
vt 0 0.3125
vt 0.4687500000000002 0.3125
vt 0.4687500000000002 0.46875
vt 0 0.46875
vt 0.53125 0.53125
vt 1 0.53125
vt 1 0.6875
vt 0.53125 0.6875
vt 0.46875 0.6875
vt 0 0.6875
vt 0 0.84375
vt 0.46875 0.84375
vt 0 0.3125
vt 0 0.8125
vt 0.4687500000000002 0.8125
vt 0.4687500000000002 0.3125
vt 0 0.53125
vt 0.4687500000000002 0.53125
vt 0.4687500000000002 0.6875
vt 0 0.6875
vt 0 0.09375
vt 0 0.59375
vt 0.4687500000000002 0.59375
vt 0.4687500000000002 0.09375
vt 0 0.46875
vt 0.4687500000000002 0.46875
vt 0.4687500000000002 0.625
vt 0 0.625
vt 0.53125 0.6875
vt 1 0.6875
vt 1 0.84375
vt 0.53125 0.84375
vt 0.46875 0.53125
vt 0 0.53125
vt 0 0.6875
vt 0.46875 0.6875
vt 0 0.3125
vt 0 0.8125
vt 0.4687500000000002 0.8125
vt 0.4687500000000002 0.3125
vt 0 0.6875
vt 0.4687500000000002 0.6875
vt 0.4687500000000002 0.84375
vt 0 0.84375
vt 0 0.09375
vt 0 0.59375
vt 0.4687500000000002 0.59375
vt 0.4687500000000002 0.09375
vt 0 0.6875
vt 0.4687500000000002 0.6875
vt 0.4687500000000002 0.84375
vt 0 0.84375
vt 0.53125 1
vt 1 1
vt 1 0.84375
vt 0.53125 0.84375
vt 0 0.09375
vt 0 0.59375
vt 0.4687500000000002 0.59375
vt 0.4687500000000002 0.09375
vt 0.46875 0.375
vt 0 0.375
vt 0 0.53125
vt 0.46875 0.53125
vt 0 1
vt 0.4687500000000002 1
vt 0.4687500000000002 0.84375
vt 0 0.84375
vt 0 0.3125
vt 0 0.8125
vt 0.4687500000000002 0.8125
vt 0.4687500000000002 0.3125
vt 0 0.0625
vt 0.4687500000000002 0.0625
vt 0.4687500000000002 0.25
vt 0 0.25
vt 0 0.09375
vt 0 0.59375
vt 0.4687500000000002 0.59375
vt 0.4687500000000002 0.09375
vt 0 0.3046875
vt 0 0.375
vt 0.46875 0.375
vt 0.03125 0.21875
vt 0.46875 0.0625
vt 0 0.0625
vt 0 0.125
vt 0.03125 0.21875
vt 0 0.17500000000000004
vt 0.4687500000000002 0.17500000000000004
vt 0.4687500000000002 0.0625
vt 0 0.0625
vt 1.1102230246251565e-16 0.5
vt 0.46875000000000056 0.5
vt 0.46875000000000056 1
vt 1.1102230246251565e-16 1
vt 0.4687500000000002 0.17500000000000004
vt 0 0.17500000000000004
vt 0 0.25
vt 0.4687500000000002 0.25
vn 0 0 1
vn -0.4998272368489767 0.8661251256625206 0
vn 0.8660246528353989 0.5000013006796353 0
vn -8.40579865801844e-7 0.000003453674340777843 -0.9999999999936828
vn 0.5000000085012813 -0.8660253988762215 0
vn -0.8662212532886671 -0.49966062517573995 0
vn 9.125157083252614e-7 4.0628208301185703e-7 -0.9999999999995012
vn -0.4067365691114571 0.9135454905736445 0
vn 0 0 1
vn 0.9135440017112908 0.40673991313468205 7.159233157037181e-7
vn 0.40673656911239825 -0.9135454905718106 -0.000001607977224566582
vn -0.9135440017115247 -0.4067399131347869 0
vn 0.30901741569851116 -0.9510563793987261 0
vn 0 0 -1
vn 0.9510559834286095 0.3090186343647264 0
vn 0 0 1
vn -0.30901571199838956 0.9510569329635994 0
vn -0.9510565945771804 -0.30901675344753843 0
vn 0 0 1
vn -0.20791187497068042 0.9781475615908759 0
vn 0.9781464060189395 0.2079173114295641 3.659653415337571e-7
vn 0.20791149191291095 -0.9781476430108 -0.000001721685095785199
vn 0 0 -1
vn -0.978147984247209 -0.20790988652055048 -3.659522725913764e-7
vn 0 0 -1
vn -0.10452963966718111 0.9945217717229972 0
vn 0 0 1
vn 0.9945216076379261 0.10453120080279904 0
vn 0.10452776565219146 -0.9945219686903657 0
vn -0.9945216076379092 -0.10453120080279722 -1.8399043514349573e-7
vn 0 -0.0000034139680060519596 0.9999999999941724
vn 0 -0.9999999999984511 -0.000001760150141610392
vn 1 0 0
vn 0 0 -1
vn -1 0 0
vn 0 0.9999999999984511 0.0000017601484889694987
vn -0.5877841653291233 0.8090177840976788 0.0000014239927671450738
vn 0 0 1
vn 0.587934883341456 -0.8089082599097803 0
vn 0.8090185599579162 0.587783097446345 0
vn 0 0 -1
vn -0.8092880626500787 -0.5874119777907856 0
vn -0.6691303853678753 0.7431450244585096 0
vn 0.7431426486876757 0.6691330239208538 0
vn 0.6691303853678751 -0.7431450244585097 0
vn 0 0 1
vn 0 0 -1
vn -0.7431426486876758 -0.6691330239208538 0
vn -0.0003905606160814274 -0.00043375867029718247 0.9999998296578961
vn 0.7431444239722417 -0.6691310522752364 0
vn 0.6691330239208538 0.7431426486876758 0
vn 0 0 -1
vn -0.7431444239722417 0.6691310522752364 0
vn -0.6691330239208538 -0.7431426486876758 0
vn 0 0 -1
vn 0.00006902487306971377 0.00009500408505770182 0.9999999931048954
vn -0.8090177089033552 0.5877842688272339 0
vn 0.5877872862982728 0.8090155165793251 0
vn 0.8090170503966121 -0.5877851751852591 0
vn -0.587783097446345 -0.8090185599579162 0
vn 0 0 -1
vn 0 0 1
vn -0.8660245039831029 0.5000015584976185 8.793149525203509e-7
vn 0.5000013006790553 0.8660246528343946 0.0000015230121057889797
vn 0.8660258058076609 -0.49999930367393386 -8.793109871134638e-7
vn -0.4999985293991281 -0.8660262528345833 0
vn -0.0076984812888813425 0.0034275901057266986 -0.9999644918755425
vn 0.9135452194260071 -0.40673717811860877 0
vn 0 0 1
vn 0.42522560874592646 0.905087388966754 0
vn -0.9117458830961638 0.4107547256662992 0
vn -0.35178760736430725 -0.9360798466503252 0
vn 0.9401884363504245 -0.34065481671712455 -6.051158752161788e-7
vn 0.038634099451124775 0.0023878868387805165 0.999250571356377
vn -0.03842434009838594 0.0027265546972419703 -0.9992577925577997
vn 0.3754395559768275 0.9268468804543297 0
vn -0.999990899541187 -0.004266243641408081 0
vn 0.041033012252181304 0.9991577912950049 0
usemtl m_keystones
f 1/1/1 2/2/1 3/3/1 4/4/1
usemtl m_arch
f 4/5/2 3/6/2 5/7/2 6/8/2
usemtl m_keystones
f 2/9/3 7/10/3 5/11/3 3/12/3
f 7/13/4 8/14/4 6/15/4 5/16/4
usemtl m_arch
f 8/17/5 7/18/5 2/19/5 1/20/5
f 8/21/6 1/22/6 4/23/6 6/24/6
usemtl m_keystones
f 9/25/7 10/26/7 8/27/7 11/28/7
usemtl m_arch
f 1/29/8 12/30/8 11/31/8 8/32/8
usemtl m_keystones
f 13/33/9 14/34/9 12/35/9 1/36/9
f 14/37/10 9/38/10 11/39/10 12/40/10
usemtl m_arch
f 10/41/11 9/42/11 14/43/11 13/44/11
f 10/45/12 13/46/12 1/47/12 8/48/12
f 15/49/13 16/50/13 17/51/13 18/52/13
usemtl m_keystones
f 16/53/14 15/54/14 10/55/14 19/56/14
f 17/57/15 16/58/15 19/59/15 20/60/15
f 18/61/16 17/62/16 20/63/16 13/64/16
usemtl m_arch
f 13/65/17 20/66/17 19/67/17 10/68/17
f 15/69/18 18/70/18 13/71/18 10/72/18
usemtl m_keystones
f 21/73/19 22/74/19 23/75/19 18/76/19
usemtl m_arch
f 18/77/20 23/78/20 24/79/20 15/80/20
usemtl m_keystones
f 22/81/21 25/82/21 24/83/21 23/84/21
usemtl m_arch
f 26/85/22 25/86/22 22/87/22 21/88/22
usemtl m_keystones
f 25/89/23 26/90/23 15/91/23 24/92/23
usemtl m_arch
f 26/93/24 21/94/24 18/95/24 15/96/24
usemtl m_keystones
f 27/97/25 28/98/25 26/99/25 29/100/25
usemtl m_arch
f 21/101/26 30/102/26 29/103/26 26/104/26
usemtl m_keystones
f 31/105/27 32/106/27 30/107/27 21/108/27
f 32/109/28 27/110/28 29/111/28 30/112/28
usemtl m_arch
f 28/113/29 27/114/29 32/115/29 31/116/29
f 28/117/30 31/118/30 21/119/30 26/120/30
usemtl m_keystones
f 33/121/31 34/122/31 35/123/31 31/124/31
usemtl m_arch
f 36/125/32 37/126/32 34/127/32 33/128/32
usemtl m_keystones
f 34/129/33 37/130/33 38/131/33 35/132/33
f 37/133/34 36/134/34 28/135/34 38/136/34
usemtl m_arch
f 36/137/35 33/138/35 31/139/35 28/140/35
f 31/141/36 35/142/36 38/143/36 28/144/36
f 39/145/37 40/146/37 41/147/37 42/148/37
usemtl m_keystones
f 4/149/38 43/150/38 40/151/38 39/152/38
usemtl m_arch
f 6/153/39 44/154/39 43/155/39 4/156/39
usemtl m_keystones
f 43/157/40 44/158/40 41/159/40 40/160/40
f 44/161/41 6/162/41 42/163/41 41/164/41
usemtl m_arch
f 6/165/42 4/166/42 39/167/42 42/168/42
f 45/169/43 46/170/43 47/171/43 48/172/43
usemtl m_keystones
f 49/173/44 50/174/44 47/175/44 46/176/44
usemtl m_arch
f 42/177/45 50/178/45 49/179/45 39/180/45
usemtl m_keystones
f 39/181/46 49/182/46 46/183/46 45/184/46
f 50/185/47 42/186/47 48/187/47 47/188/47
usemtl m_arch
f 42/189/48 39/190/48 45/191/48 48/192/48
usemtl m_keystones
f 45/193/49 51/194/49 52/195/49 53/196/49
usemtl m_arch
f 48/197/50 54/198/50 51/199/50 45/200/50
usemtl m_keystones
f 51/201/51 54/202/51 55/203/51 52/204/51
f 54/205/52 48/206/52 56/207/52 55/208/52
usemtl m_arch
f 53/209/53 52/210/53 55/211/53 56/212/53
f 48/213/54 45/214/54 53/215/54 56/216/54
usemtl m_keystones
f 57/217/55 56/218/55 58/219/55 59/220/55
f 53/221/56 60/222/56 61/223/56 62/224/56
usemtl m_arch
f 62/225/57 61/226/57 59/227/57 58/228/57
usemtl m_keystones
f 60/229/58 57/230/58 59/231/58 61/232/58
usemtl m_arch
f 56/233/59 57/234/59 60/235/59 53/236/59
f 56/237/60 53/238/60 62/239/60 58/240/60
usemtl m_keystones
f 63/241/61 58/242/61 64/243/61 65/244/61
f 62/245/62 66/246/62 67/247/62 68/248/62
usemtl m_arch
f 68/249/63 67/250/63 65/251/63 64/252/63
usemtl m_keystones
f 66/253/64 63/254/64 65/255/64 67/256/64
usemtl m_arch
f 58/257/65 63/258/65 66/259/65 62/260/65
f 58/261/66 62/262/66 68/263/66 64/264/66
usemtl m_keystones
f 69/265/67 64/266/67 70/267/67 71/268/67
usemtl m_arch
f 64/269/68 69/270/68 72/271/68 68/272/68
usemtl m_keystones
f 68/273/69 72/274/69 73/275/69 74/276/69
f 72/277/70 69/278/70 71/279/70 73/280/70
usemtl m_arch
f 74/281/71 73/282/71 71/283/71 70/284/71
f 64/285/72 68/286/72 74/287/72 70/288/72
f 70/289/73 77/290/73 78/291/73 74/292/73
usemtl m_keystones
f 75/293/74 79/294/74 74/295/74 78/296/74
f 70/297/75 80/298/75 76/299/75 77/300/75
f 76/301/76 75/302/76 78/303/76 77/304/76
usemtl m_arch
f 79/305/77 80/306/77 70/307/77 74/308/77
usemtl m_keystones
f 75/309/78 76/310/78 80/311/78 79/312/78
o cube.024
v 0.06520366666666667 1.010992 -0.5054687499999999
v 0.288172 1.495703 -0.5054687499999999
v 0.288172 1.495703 0.008281250000000018
v 0.06520366666666667 1.010992 0.008281250000000018
v 0.072636 1.578768 -0.5054687499999999
v 0.072636 1.578768 0.008281250000000018
v 0.23374299999999998 0.9200675 -0.5054687499999999
v 0.496501 1.394095 -0.5054687499999999
v 0.496501 1.394095 0.008281250000000018
v 0.23374299999999998 0.9200675 0.008281250000000018
v 0 1.01099375 -0.5054687499999999
v 0 1.578768 -0.5054687499999999
v 0 1.578768 0.008281250000000018
v 0 1.01099375 0.008281250000000018
v 0.3822 0.8273010000000001 0.008281250000000018
v 0.693067 1.271266 0.008281250000000018
v 0.693067 1.271266 -0.5054687499999999
v 0.3822 0.8273015 -0.5054687499999999
v 0.875718 1.128564 -0.5054687499999999
v 0.523582 0.7162655 -0.5054687499999999
v 0.523582 0.7162655 0.008281250000000018
v 0.875718 1.128564 0.008281250000000018
v 0.652292 0.5975955 -0.5054687499999999
v 1.045236 0.970485 -0.5054687499999999
v 1.045236 0.970485 0.008281250000000018
v 0.652292 0.5975955 0.008281250000000018
v 0.7562225 0.47469800000000006 -0.5054687499999999
v 1.194226 0.792926 -0.5054687499999999
v 1.194226 0.792926 0.008281250000000018
v 0.7562225 0.4746975 0.008281250000000018
v 1.317055 0.59636 -0.5054687499999999
v 0.8430275 0.333602 -0.5054687499999999
v 0.8430275 0.333602 0.008281250000000018
v 1.317055 0.596359 0.008281250000000018
v 0.916684 0.18521749999999998 0.008281250000000018
v 1.418664 0.38803 0.008281250000000018
v 1.418664 0.388031 -0.5054687499999999
v 0.916684 0.185218 -0.5054687499999999
v 0.9667764999999999 0.027313 -0.5054687499999999
v 1.49029 0.167588 -0.5054687499999999
v 1.49029 0.167588 0.008281250000000018
v 0.9667764999999999 0.027313 0.008281250000000018
v 1.538481 -0.059134 0.008281250000000018
v 1.538481 -0.059134 -0.5054687499999999
v 1.0027185 -0.1392045 -0.5054687499999999
v 1.0027185 -0.1392045 0.008281250000000018
v 1.558682 -0.290039 0.008281250000000018
v 1.558682 -0.290039 -0.5054687499999999
v 1.0169905 -0.31369 -0.5054687499999999
v 1.0169905 -0.31369 0.008281250000000018
v 1.558682 -0.498877 -0.5054687499999999
v 1.015958 -0.498877 -0.5054687499999999
v 1.558682 -0.498877 0.008281250000000018
v 1.015958 -0.498877 0.008281250000000018
vt 0.0625 0.40625
vt 0.5 0.21875
vt 0 0.2187500000000001
vt 0.5 0.37500000000000056
vt 0.0625 0.1875
vt 0 0.3750000000000001
vt 0 0.78125
vt 0.4375 0.78125
vt 0.4375 1
vt 0 1
vt 0 0.5625
vt 0.4375 0.5625
vt 0.4375 0.78125
vt 0 0.78125
vt 0.5 0.5625
vt 0 0.59375
vt 0 0.375
vt 0.5 0.40625
vt 0 0
vt 0.5 0.03125
vt 0.5 0.1875
vt 0 0.21875
vt 0 0
vt 0.5 0
vt 0.5 0.0625
vt 0 0.0625
vt 0 0.9375
vt 0.4375 0.9375
vt 0.4375 1
vt 0 1
vt 0 0.125
vt 0.5 0.125
vt 0.5 0.0625
vt 0 0.0625
vt 0.5 0.75
vt 0 0.78125
vt 0 0.5625
vt 0.5 0.59375
vt 1 0.75
vt 0.5 0.78125
vt 0.5 0.9375
vt 1 0.96875
vt 0 0.34375
vt 0.4375 0.34375
vt 0.4375 0.5625
vt 0 0.5625
vt 1 0.5625
vt 0.5 0.59375
vt 0.5 0.75
vt 1 0.78125
vt 0.5 0.9375
vt 0 0.96875
vt 0 0.75
vt 0.5 0.78125
vt 0 0.125
vt 0.4375 0.125
vt 0.4375 0.34375
vt 0 0.34375
vt 0 0.65625
vt 0.4375 0.65625
vt 0.4375 0.875
vt 0 0.875
vt 0.5 0.1875
vt 1 0.21875
vt 1 0
vt 0.5 0.03125
vt 1 0.375
vt 0.5 0.40625
vt 0.5 0.5625
vt 1 0.59375
vt 0 0.4375
vt 0.4375 0.4375
vt 0.4375 0.65625
vt 0 0.65625
vt 0.5 0.375
vt 1 0.40625
vt 1 0.1875
vt 0.5 0.21875
vt 1 0.1875
vt 0.5 0.21875
vt 0.5 0.375
vt 1 0.40625
vt 1 0
vt 0.5 0.03125
vt 0.5 0.1875
vt 1 0.21875
vt 0 0.21875
vt 0.4375 0.21875
vt 0.4375 0.4375
vt 0 0.4375
vt 0.5 0.5625
vt 1 0.59375
vt 1 0.375
vt 0.5 0.40625
vt 0.5 0.75
vt 1 0.78125
vt 1 0.5625
vt 0.5 0.59375
vt 0 0.75
vt 0.5 0.78125
vt 0.5 0.9375
vt 0 0.96875
vt 0 0
vt 0.4375 0
vt 0.4375 0.21875
vt 0 0.21875
vt 0 0.5625
vt 0.5 0.59375
vt 0.5 0.75
vt 0 0.78125
vt 0.5 0.9375
vt 1 0.96875
vt 1 0.75
vt 0.5 0.78125
vt 0 0.78125
vt 0.4375 0.78125
vt 0.4375 1
vt 0 1
vt 0 0.5625
vt 0.4375 0.5625
vt 0.4375 0.78125
vt 0 0.78125
vt 0 0.375
vt 0.5 0.40625
vt 0.5 0.5625
vt 0 0.59375
vt 0.5 0.40625
vt 0 0.375
vt 0 0.59375
vt 0.5 0.5625
vt 0 0.34375
vt 0.4375 0.34375
vt 0.4375 0.5625
vt 0 0.5625
vt 0 0.1875
vt 0.5 0.21875
vt 0.5 0.375
vt 0 0.40625
vt 0.5 0.375
vt 0 0.40625
vt 0 0.1875
vt 0.5 0.21875
vt 0 0
vt 0.5 0
vt 0.5 0.1875
vt 0 0.21875
vt 0 0.125
vt 0.4375 0.125
vt 0.4375 0.34375
vt 0 0.34375
vt 0.5 0
vt 0 0
vt 0 0.21875
vt 0.5 0.1875
vt 0 0.4999999999999998
vt 0 0
vt 0.4375 2.220446049250313e-16
vt 0.4375 0.5
vt 0 0
vt 0.4375 0
vt 0.4375 0.1875
vt 0 0.1875
vt 0 0.5
vt 0.5 0.5
vt 0.5 1
vt 0 1
vn 0 0 -1
vn 0 0 1
vn 0.35960707038224543 0.9331038285909553 0
vn 0.4383682106774052 0.8987954783305767 0
vn 0 0 1
vn 0 0 -1
vn 0 0 -1
vn 0 1 0
vn 0 0 1
vn 0 0 1
vn 0 0 -1
vn 0.5299221528408675 0.8480462911471874 0
vn 0 0 -1
vn 0 0 1
vn 0.6156598653248299 0.7880120114745793 0
vn 0.6820004545258836 0.7313517484948594 0
vn 0 0 1
vn 0 0 -1
vn 0.7660437875605963 0.6427883909497869 0
vn 0 0 1
vn 0 0 -1
vn 0 0 -1
vn 0.8480462911467366 0.5299221528405856 0.0000010314786430283677
vn 0 0 1
vn 0 0 1
vn 0 0 -1
vn 0.8987937784748217 0.4383716959091054 8.532782402369073e-7
vn 0 0 -1
vn 0 0 1
vn 0.9510568619309065 0.30901593061545646 0
vn 0.9781478190066498 0.20791066392211413 0
vn 0 0 -1
vn 0 0 1
vn 0.9961949115469744 0.08715330290881682 0
vn 0 0 -1
vn 0 0 1
vn 0 0 -1
vn 1 0 0
vn 0 0 1
vn 0 -1 0
vn -0.9999844575668737 0.005575358704648755 0
vn -1 0 0
usemtl m_mortar
f 82/313/79 81/314/79 85/315/79
f 84/316/80 83/317/80 86/318/80
f 83/319/81 82/320/81 85/321/81 86/322/81
f 89/323/82 88/324/82 82/325/82 83/326/82
f 90/327/83 89/328/83 83/329/83 84/330/83
f 88/331/84 87/332/84 81/333/84 82/334/84
f 85/335/85 81/336/85 91/337/85 92/338/85
f 86/339/86 85/340/86 92/341/86 93/342/86
f 84/343/87 86/344/87 93/345/87 94/346/87
f 95/347/88 96/348/88 89/349/88 90/350/88
f 97/351/89 98/352/89 87/353/89 88/354/89
f 96/355/90 97/356/90 88/357/90 89/358/90
f 99/359/91 100/360/91 98/361/91 97/362/91
f 101/363/92 102/364/92 96/365/92 95/366/92
f 102/367/93 99/368/93 97/369/93 96/370/93
f 105/371/94 104/372/94 99/373/94 102/374/94
f 106/375/95 105/376/95 102/377/95 101/378/95
f 104/379/96 103/380/96 100/381/96 99/382/96
f 109/383/97 108/384/97 104/385/97 105/386/97
f 110/387/98 109/388/98 105/389/98 106/390/98
f 108/391/99 107/392/99 103/393/99 104/394/99
f 111/395/100 112/396/100 107/397/100 108/398/100
f 114/399/101 111/400/101 108/401/101 109/402/101
f 113/403/102 114/404/102 109/405/102 110/406/102
f 115/407/103 116/408/103 114/409/103 113/410/103
f 117/411/104 118/412/104 112/413/104 111/414/104
f 116/415/105 117/416/105 111/417/105 114/418/105
f 120/419/106 119/420/106 118/421/106 117/422/106
f 122/423/107 121/424/107 116/425/107 115/426/107
f 121/427/108 120/428/108 117/429/108 116/430/108
f 123/431/109 124/432/109 120/433/109 121/434/109
f 124/435/110 125/436/110 119/437/110 120/438/110
f 126/439/111 123/440/111 121/441/111 122/442/111
f 127/443/112 128/444/112 124/445/112 123/446/112
f 128/447/113 129/448/113 125/449/113 124/450/113
f 130/451/114 127/452/114 123/453/114 126/454/114
f 131/455/115 132/456/115 129/457/115 128/458/115
f 133/459/116 131/460/116 128/461/116 127/462/116
f 134/463/117 133/464/117 127/465/117 130/466/117
f 132/467/118 131/468/118 133/469/118 134/470/118
f 132/471/119 134/472/119 130/473/119 129/474/119
f 91/475/120 94/476/120 93/477/120 92/478/120