mtllib brick_arch.mtl

o arch_1
v 0.8125921960714517 1.205977238125736 -0.5343749999999986
v 0.7285256886906563 0.840596731644211 -0.5343749999999994
v 0.8125921960714516 1.205977238125736 0.03437499999999741
v 0.7285256886906566 0.8405967316442133 0.03437499999999643
v 0.6602596231032709 1.2407457542415243 -0.5343749999999986
v 0.5774700922126892 0.8750737895589445 -0.5343749999999987
v 0.6602596231032707 1.2407457542415248 0.03437499999999735
v 0.5774700922126892 0.8750737895589455 0.03437499999999706
v 1.03138506102193 1.1108849048732141 -0.534375000000001
v 0.868124864345412 0.7733697973926614 -0.5343749999999994
v 1.0313850610219306 1.1108849048732186 0.03437499999999494
v 0.8681248643454125 0.7733697973926645 0.034374999999996374
v 0.8906083373469711 1.1786785371062216 -0.5343750000000012
v 0.8906083373469718 1.1786785371062263 0.034374999999994826
v 1.2235394739155199 0.9694849073422399 -0.5343749999999992
v 0.989730432713313 0.6762983928977575 -0.5343749999999989
v 1.22353947391552 0.9694849073422414 0.034374999999996776
v 0.9897304327133134 0.676298392897759 0.034374999999996894
v 1.1013784262303186 1.0669053411764924 -0.5343749999999992
v 1.1013784262303195 1.066905341176494 0.03437499999999666
v 0.5781249999999999 1.2499999999999993 -0.5343749999999992
v 0.578125 1.2500000000000009 0.03437499999999666
v 0.4218749999999999 1.2499999999999996 -0.5343749999999992
v 0.4225299077873105 0.8750737895589447 -0.5343749999999987
v 0.421875 1.2500000000000007 0.03437499999999666
v 0.4225299077873107 0.8750737895589457 0.034374999999997234
v 0.3397403768967291 1.2407457542415243 -0.5343749999999986
v 0.33974037689672915 1.2407457542415248 0.034374999999997234
v 0.18740780392854806 1.2059772381257359 -0.5343749999999986
v 0.2714743113093435 0.840596731644211 -0.5343749999999994
v 0.18740780392854822 1.2059772381257363 0.03437499999999735
v 0.2714743113093432 0.8405967316442134 0.03437499999999649
v 0.10939166265302858 1.1786785371062218 -0.5343750000000013
v 0.10939166265302813 1.1786785371062265 0.034374999999994764
v -0.031385061021930505 1.1108849048732141 -0.534375000000001
v 0.13187769352375184 0.7733714012055014 -0.5343749999999989
v -0.03138506102193084 1.110884904873219 0.03437499999999494
v 0.1318776935237515 0.7733714012055023 0.03437499999999695
v -0.10137075194808887 1.0669105891598036 -0.5343749999999976
v -0.10137075194808831 1.0669105891598014 0.03437499999999867
v -0.2235326497823028 0.9694912213855101 -0.5343749999999976
v 0.01027383287600142 0.6763026665833966 -0.534374999999998
v -0.22353264978230258 0.9694912213855081 0.034374999999998615
v 0.010273832876001698 0.6763026665833941 0.03437499999999804
vt 0 0.625
vt 0.46875 0.625
vt 0.46875 1
vt 0 1
vt 0 1
vt 0.46875 1
vt 0.46875 0.625
vt 0 0.625
vt 0.09375 0.53125
vt 0.46875 0.53125
vt 0.46875 0.375
vt 0.09375 0.375
vt 1 0.84375
vt 0.625 0.84375
vt 0.625 1
vt 1 1
vt 0.46875 0.53125
vt 0 0.53125
vt 0 0.375
vt 0.46875 0.375
vt 0 0.46875
vt 0.46875 0.46875
vt 0.46875 0.3125
vt 0 0.3125
vt 0 0.4375
vt 0.46875 0.4375
vt 0.46875 0.0625
vt 0 0.0625
vt 0 0.0625
vt 0.46875 0.0625
vt 0.46875 0.4375
vt 0 0.4375
vt 0.09375 0.375
vt 0.46875 0.375
vt 0.46875 0.21875
vt 0.09375 0.21875
vt 0.46875 0.0625
vt 0.09375 0.0625
vt 0.09375 0.21875
vt 0.46875 0.21875
vt 0.46875 0.375
vt 0 0.375
vt 0 0.21875
vt 0.46875 0.21875
vt 0 0.3125
vt 0.46875 0.3125
vt 0.46875 0.15625
vt 0 0.15625
vt 0 0.625
vt 0.46875 0.625
vt 0.46875 1
vt 0 1
vt 0 1
vt 0.46875 1
vt 0.46875 0.625
vt 0 0.625
vt 0.09375 0.21875
vt 0.46875 0.21875
vt 0.46875 0.0625
vt 0.09375 0.0625
vt 0.46875 0.21875
vt 0.09375 0.21875
vt 0.09375 0.375
vt 0.46875 0.375
vt 0.46875 0.21875
vt 0 0.21875
vt 0 0.0625
vt 0.46875 0.0625
vt 0 0.15625
vt 0.46875 0.15625
vt 0.46875 0
vt 0 0
vt 0 0.625
vt 0.46875 0.625
vt 0.46875 1
vt 0 1
vt 0 0.0625
vt 0.46875 0.0625
vt 0.46875 0.4375
vt 0 0.4375
vt 0.09375 0.6875
vt 0.46875 0.6875
vt 0.46875 0.53125
vt 0.09375 0.53125
vt 1 0.6875
vt 0.625 0.6875
vt 0.625 0.84375
vt 1 0.84375
vt 0.46875 0.6875
vt 0 0.6875
vt 0 0.53125
vt 0.46875 0.53125
vt 0 0.625
vt 0.46875 0.625
vt 0.46875 0.46875
vt 0 0.46875
vt 0 0.4375
vt 0.46875 0.4375
vt 0.46875 0.0625
vt 0 0.0625
vt 0 0.0625
vt 0.46875 0.0625
vt 0.46875 0.4375
vt 0 0.4375
vt 0.09375 0.84375
vt 0.46875 0.84375
vt 0.46875 0.6875
vt 0.09375 0.6875
vt 1 0.53125
vt 0.625 0.53125
vt 0.625 0.6875
vt 1 0.6875
vt 0.46875 0.84375
vt 0 0.84375
vt 0 0.6875
vt 0.46875 0.6875
vt 0 0.84375
vt 0.46875 0.84375
vt 0.46875 1
vt 0 1
vt 0 0.625
vt 0.46875 0.625
vt 0.46875 1
vt 0 1
vt 0 1
vt 0.46875 1
vt 0.46875 0.625
vt 0 0.625
vt 0.09375 1
vt 0.46875 1
vt 0.46875 0.84375
vt 0.09375 0.84375
vt 1 0.375
vt 0.625 0.375
vt 0.625 0.53125
vt 1 0.53125
vt 0.46875 1
vt 0 1
vt 0 0.84375
vt 0.46875 0.84375
vt 0 0.625
vt 0.46875 0.625
vt 0.46875 0.78125
vt 0 0.78125
vt 0 0.4375
vt 0.46875 0.4375
vt 0.46875 0.0625
vt 0 0.0625
vt 0 0.4375
vt 0.46875 0.4375
vt 0.46875 0.0625
vt 0 0.0625
vt 0.625 0.21875
vt 1 0.21875
vt 1 0.0625
vt 0.625 0.0625
vt 1 0.21875
vt 0.625 0.21875
vt 0.625 0.375
vt 1 0.375
vt 0.46875 0.53125
vt 0 0.53125
vt 0 0.375
vt 0.46875 0.375
vt 0 0.4375
vt 0.46875 0.4375
vt 0.46875 0.59375
vt 0 0.59375
vn 0.974538292831018 -0.2242211314885487 4.91120229200561e-16
vn -0.9753156664802679 0.22081519584972156 -3.628016470649556e-16
vn -3.728593867567599e-15 2.984849935284149e-15 -1
vn -9.26896479453419e-16 -2.4644530147238485e-15 1
vn 0.22251850314104485 0.9749284669963582 4.343651263161582e-17
vn -0.22251850314105068 -0.9749284669963569 1.7073602878413706e-15
vn 0.9002152587456532 -0.4354451606362125 1.5013901143747383e-15
vn -0.9017275407078614 0.43230480257447085 -2.403768351410602e-15
vn -1.9271970609227886e-15 -4.001894836114559e-15 -1
vn 1.0225576248729293e-15 3.7610407683220675e-15 1
vn 0.433879246291249 0.9009710315197363 -7.979538992517579e-15
vn -0.43388119532581 -0.9009700929235367 3.8838977730401645e-15
vn 0.7818307051852867 -0.6234907765392182 9.71736932535541e-16
vn -0.7829136226550452 0.6221304199773177 -9.046681965173009e-16
vn 1.8620071584768723e-15 -2.242254268091989e-15 -1
vn -3.941171383765048e-16 7.16640555619338e-16 1
vn 0.6234907765392167 0.7818307051852879 -2.3491385143892832e-15
vn -0.6238597917975582 -0.7815362820613687 4.880553076543816e-15
vn 0.9999984744104156 -0.001746761815931035 2.7469243611306294e-17
vn -0.9999984744104156 -0.0017467618159309605 2.4741443788420716e-16
vn -8.487320064399784e-31 -1.184470963840181e-15 -1
vn -1.683234478150807e-30 1.0734268109801622e-15 1
vn 1.4210854715201995e-15 1 -2.7328566760004056e-15
vn -7.165494405099633e-16 -1 1.7568364345716888e-15
vn 0.9753156664802681 0.22081519584972129 -7.449091184761035e-16
vn -0.9745382928310179 -0.22422113148854897 4.604262202662364e-16
vn 4.127286091418625e-15 1.2380450938186242e-15 -1
vn 7.36317301576742e-16 1.6670505226473407e-16 1
vn -0.222518503141046 0.9749284669963579 -7.286625497130986e-16
vn 0.2225185031410514 -0.9749284669963566 4.317129175922304e-15
vn 0.9017275407078613 0.432304802574471 -1.3284656470391603e-15
vn -0.9002117733075679 -0.43545236616470945 3.2129158998897363e-15
vn -4.0038458364323495e-16 -5.77456255888396e-15 -1
vn -9.983395590090482e-16 4.631929422970053e-15 1
vn -0.4338792462912475 0.9009710315197372 -7.901327229228763e-15
vn 0.4338792462912444 -0.9009710315197386 1.6610704979563333e-15
vn 0.7829240313411552 0.622117321048461 -5.1302873536476505e-16
vn -0.7818361461389699 -0.6234839537554783 -1.8854834910119655e-15
vn -6.68596566711741e-15 -7.740822285657481e-16 -1
vn 2.583531312714225e-15 -3.809511886449299e-15 1
vn -0.6234839537554786 0.7818361461389696 3.5082669946979154e-15
vn 0.6238546622911786 -0.781540376652134 -3.660763988320677e-15
usemtl m_arch
f 4/1/1 2/2/1 1/3/1 3/4/1
f 7/5/2 5/6/2 6/7/2 8/8/2
usemtl m_keystones
f 1/9/3 2/10/3 6/11/3 5/12/3
f 4/13/4 3/14/4 7/15/4 8/16/4
f 3/17/5 1/18/5 5/19/5 7/20/5
usemtl m_arch
f 8/21/6 6/22/6 2/23/6 4/24/6
f 12/25/7 10/26/7 9/27/7 11/28/7
f 14/29/8 13/30/8 2/31/8 4/32/8
usemtl m_keystones
f 9/33/9 10/34/9 2/35/9 13/36/9
f 12/37/10 11/38/10 14/39/10 4/40/10
f 11/41/11 9/42/11 13/43/11 14/44/11
usemtl m_arch
f 4/45/12 2/46/12 10/47/12 12/48/12
f 18/49/13 16/50/13 15/51/13 17/52/13
f 20/53/14 19/54/14 10/55/14 12/56/14
usemtl m_keystones
f 15/57/15 16/58/15 10/59/15 19/60/15
f 18/61/16 17/62/16 20/63/16 12/64/16
f 17/65/17 15/66/17 19/67/17 20/68/17
usemtl m_arch
f 12/69/18 10/70/18 16/71/18 18/72/18
f 8/73/19 6/74/19 21/75/19 22/76/19
f 25/77/20 23/78/20 24/79/20 26/80/20
usemtl m_keystones
f 21/81/21 6/82/21 24/83/21 23/84/21
f 8/85/22 22/86/22 25/87/22 26/88/22
f 22/89/23 21/90/23 23/91/23 25/92/23
usemtl m_arch
f 26/93/24 24/94/24 6/95/24 8/96/24
f 26/97/25 24/98/25 27/99/25 28/100/25
f 31/101/26 29/102/26 30/103/26 32/104/26
usemtl m_keystones
f 27/105/27 24/106/27 30/107/27 29/108/27
f 26/109/28 28/110/28 31/111/28 32/112/28
f 28/113/29 27/114/29 29/115/29 31/116/29
usemtl m_arch
f 32/117/30 30/118/30 24/119/30 26/120/30
f 32/121/31 30/122/31 33/123/31 34/124/31
f 37/125/32 35/126/32 36/127/32 38/128/32
usemtl m_keystones
f 33/129/33 30/130/33 36/131/33 35/132/33
f 32/133/34 34/134/34 37/135/34 38/136/34
f 34/137/35 33/138/35 35/139/35 37/140/35
usemtl m_arch
f 38/141/36 36/142/36 30/143/36 32/144/36
f 38/145/37 36/146/37 39/147/37 40/148/37
f 43/149/38 41/150/38 42/151/38 44/152/38
usemtl m_keystones
f 39/153/39 36/154/39 42/155/39 41/156/39
f 38/157/40 40/158/40 43/159/40 44/160/40
f 40/161/41 39/162/41 41/163/41 43/164/41
usemtl m_arch
f 44/165/42 42/166/42 36/167/42 38/168/42
o arch_1_inner
v 0.3721589597957706 1.28125 -0.5062499999999998
v 0.3721589597957705 1.28125 0.006250000000000167
v 0.41785932440432905 0.8902583926823597 -0.5062499999999998
v 0.41785932440432894 0.8902583926823596 0.00625000000000006
v 0.12336882295514162 1.2222856543933647 -0.5062499999999998
v 0.12336882295514151 1.2222856543933647 0.006250000000000167
v 0.25800619829567095 0.8523725058306237 -0.5062499999999998
v 0.25800619829567084 0.8523725058306237 0.006250000000000167
v -0.10511702964365233 1.1075357463140998 -0.5062499999999998
v -0.10511702964365255 1.1075357463140996 0.006250000000000167
v 0.11119902067465415 0.7786431700937253 -0.5062499999999998
v 0.11119902067465404 0.7786431700937252 0.00625000000000006
v -0.3009808665456519 0.9431864730086648 -0.5062499999999998
v -0.30098086654565204 0.9431864730086646 0.00625000000000006
v -0.014647795513550665 0.6730451530453676 -0.5062499999999998
v -0.014647795513550887 0.6730451530453674 0.006250000000000167
v 1.3009808665456528 0.9431864730086641 -0.5062499999999998
v 1.3009808665456526 0.943186473008664 0.00625000000000006
v 1.0146477955135513 0.6730451530453673 -0.5062499999999998
v 1.014647795513551 0.673045153045367 0.006250000000000167
v 1.1051170296436523 1.1075357463140998 -0.5062499999999998
v 1.1051170296436523 1.1075357463140996 0.006250000000000167
v 0.8888009793253459 0.7786431700937253 -0.5062499999999998
v 0.8888009793253457 0.7786431700937252 0.00625000000000006
v 0.8766311770448592 1.2222856543933642 -0.5062499999999998
v 0.876631177044859 1.222285654393364 0.00625000000000006
v 0.7419938017043297 0.8523725058306235 -0.5062499999999998
v 0.7419938017043296 0.8523725058306234 0.00625000000000006
v 0.6278410402042294 1.28125 -0.5062499999999998
v 0.6278410402042292 1.28125 0.006250000000000167
v 0.582140675595671 0.8902583926823597 -0.5062499999999998
v 0.5821406755956708 0.8902583926823596 0.00625000000000006
vt 1.1102230246251565e-16 0
vt 1.1102230246251565e-16 0.25
vt 0.4375000000000001 0.25
vt 0.4375000000000001 0
vt 0.90625 0.203125
vt 0.90625 0.046875
vt 0.53125 0
vt 0.53125 0.25
vt 0 0.75
vt 0 0.5
vt 0.375 0.546875
vt 0.375 0.703125
vt 1.1102230246251565e-16 0.25
vt 1.1102230246251565e-16 0.5
vt 0.4375000000000001 0.5
vt 0.4375000000000001 0.25
vt 0.90625 0.453125
vt 0.90625 0.296875
vt 0.53125 0.25
vt 0.53125 0.5
vt 0 0.5
vt 0 0.25
vt 0.375 0.296875
vt 0.375 0.453125
vt 1.1102230246251565e-16 0.5
vt 1.1102230246251565e-16 0.75
vt 0.4375000000000001 0.75
vt 0.4375000000000001 0.5
vt 0.4375 0
vt 0.4375 0.15625
vt 0 0.15625
vt 0 0
vt 0.90625 0.703125
vt 0.90625 0.546875
vt 0.53125 0.5
vt 0.53125 0.75
vt 0 0.25
vt 0 0
vt 0.375 0.046875
vt 0.375 0.203125
vt 1.1102230246251565e-16 0
vt 1.1102230246251565e-16 0.25
vt 0.4375000000000001 0.25
vt 0.4375000000000001 0
vt 0.4375 0.0625
vt 0.4375 0.21875
vt 0 0.21875
vt 0 0.0625
vt 0.375 0.203125
vt 0.375 0.046875
vt 0 0
vt 0 0.25
vt 0.53125 0.75
vt 0.53125 0.5
vt 0.90625 0.546875
vt 0.90625 0.703125
vt 1.1102230246251565e-16 0.25
vt 1.1102230246251565e-16 0.5
vt 0.4375000000000001 0.5
vt 0.4375000000000001 0.25
vt 0.375 0.453125
vt 0.375 0.296875
vt 0 0.25
vt 0 0.5
vt 0.53125 0.25
vt 0.53125 0
vt 0.90625 0.046875
vt 0.90625 0.203125
vt 1.1102230246251565e-16 0.5
vt 1.1102230246251565e-16 0.75
vt 0.4375000000000001 0.75
vt 0.4375000000000001 0.5
vt 0.375 0.703125
vt 0.375 0.546875
vt 0 0.5
vt 0 0.75
vt 0.53125 0.25
vt 0.53125 0
vt 0.90625 0.046875
vt 0.90625 0.203125
vt 1.1102230246251565e-16 0.75
vt 1.1102230246251565e-16 1
vt 0.4375000000000001 1
vt 0.4375000000000001 0.75
vt 0.375 0.953125
vt 0.375 0.796875
vt 0 0.75
vt 0 1
vt 0 1
vt 0 0.75
vt 0.375 0.796875
vt 0.375 0.953125
vt 0 0
vt 0.4375 0
vt 0.4375 0.375
vt 0 0.375
vt 0 1
vt 0.4375 1
vt 0.4375 0.625
vt 0 0.625
vn -0.23061587074244008 0.9730448705798239 -5.295367261063494e-17
vn 0 0 -1
vn 0 0 1
vn -0.4487991802004621 0.8936326403234124 1.8533785413722245e-16
vn 0 0 -1
vn 1.2245879770384628e-16 -2.438355138573088e-16 1
vn -0.6427876096865399 0.7660444431189777 5.295367261063494e-17
vn 0.6427876096865396 -0.7660444431189778 4.120767536963474e-17
vn 0 0 -1
vn -4.636796364888261e-16 -9.654695002550441e-17 1
vn 0.6427876096865398 0.7660444431189779 4.765830534957124e-16
vn -0.6427876096865396 -0.7660444431189779 -3.0905756527225955e-16
vn 0 0 -1
vn 1.755973088123467e-16 -4.398700989968479e-16 1
vn 0.448799180200462 0.8936326403234125 4.765830534957167e-16
vn 0 0 -1
vn -3.9476388422504614e-16 1.4368230342122622e-16 1
vn 0.23061587074244103 0.9730448705798238 7.943050891595214e-17
vn 0 0 -1
vn 3.543328265321442e-16 -3.142743497254851e-16 1
vn 0 1 0
vn 0 0 -1
vn 0 -2.728587820707432e-16 1
vn -0.6862416378687337 -0.7273736415730486 -5.33674727845163e-16
vn 0.6862416378687329 -0.7273736415730494 1.3974937936718968e-16
usemtl m_mortar
f 45/169/43 49/170/43 50/171/43 46/172/43
f 47/173/44 51/174/44 49/175/44 45/176/44
f 46/177/45 50/178/45 52/179/45 48/180/45
f 49/181/46 53/182/46 54/183/46 50/184/46
f 51/185/47 55/186/47 53/187/47 49/188/47
f 50/189/48 54/190/48 56/191/48 52/192/48
f 53/193/49 57/194/49 58/195/49 54/196/49
f 56/197/50 60/198/50 59/199/50 55/200/50
f 55/201/51 59/202/51 57/203/51 53/204/51
f 54/205/52 58/206/52 60/207/52 56/208/52
f 61/209/53 65/210/53 66/211/53 62/212/53
f 64/213/54 68/214/54 67/215/54 63/216/54
f 63/217/55 67/218/55 65/219/55 61/220/55
f 62/221/56 66/222/56 68/223/56 64/224/56
f 65/225/57 69/226/57 70/227/57 66/228/57
f 67/229/58 71/230/58 69/231/58 65/232/58
f 66/233/59 70/234/59 72/235/59 68/236/59
f 69/237/60 73/238/60 74/239/60 70/240/60
f 71/241/61 75/242/61 73/243/61 69/244/61
f 70/245/62 74/246/62 76/247/62 72/248/62
f 73/249/63 45/250/63 46/251/63 74/252/63
f 75/253/64 47/254/64 45/255/64 73/256/64
f 74/257/65 46/258/65 48/259/65 76/260/65
f 59/261/66 60/262/66 58/263/66 57/264/66
f 61/265/67 62/266/67 64/267/67 63/268/67