mtllib brick_arch.mtl

o arch_3_left
v -0.4290362371807883 0.49113650901671324 0.051718750000005365
v -0.030771278168689964 0.1888369515855266 0.05171875000000492
v -0.4290362371807883 0.4911365090167181 -0.5454687499999911
v -0.030771278168689964 0.18883695158553127 -0.5454687499999917
v -0.3345676254835426 0.6155943087079945 0.051718750000005365
v 0.0636571337275611 0.31324615806487666 0.05171875000000492
v -0.33456762548354213 0.6155943087079989 -0.5454687499999904
v 0.0636571337275611 0.31324615806488154 -0.5454687499999911
v -0.3079554788121315 0.6477628680323746 0.051718750000005365
v -0.30795547881213103 0.647762868032379 -0.5454687499999904
v -0.20340382156855963 0.7638792470132172 0.051718750000005365
v 0.16812446618032784 0.4292688848777415 0.051718750000005365
v -0.2034038215685594 0.7638792470132223 -0.54546874999999
v 0.16812446618032784 0.42926888487774617 -0.5454687499999911
v -0.17419321177382652 0.7937081396323993 0.05171875000000692
v -0.17419321177382652 0.7937081396324037 -0.54546874999999
v -0.06029186373923112 0.900668624933757 0.05171875000000692
v 0.2819339485515886 0.5361431025790897 0.051718750000005365
v -0.0602918637392309 0.9006686249337621 -0.5454687499999901
v 0.2819339485515886 0.5361431025790946 -0.5454687499999911
v -0.02868768226109153 0.9279486225980473 0.05171875000000692
v -0.02868768226109153 0.927948622598052 -0.5454687499999901
v 0.09376442044607103 1.0250029632665327 0.05171875000000692
v 0.4042872890945097 0.6331191653207657 0.051718750000005365
v 0.09376442044607103 1.0250029632665378 -0.5454687499999891
v 0.40428728909450995 0.6331191653207704 -0.5454687499999902
v 0.1275404929821209 1.0495427163929674 0.05171875000000692
v 0.1275404929821209 1.049542716392972 -0.5454687499999894
v 0.25768443684307396 1.1360101459622398 0.05171875000000692
v 0.5343262670359362 0.7195168556998421 0.051718750000005365
v 0.2576844368430742 1.1360101459622447 -0.5454687499999891
v 0.5343262670359364 0.7195168556998468 -0.5454687499999902
v 0.2933954855562686 1.1576375258144256 0.05171875000000692
v 0.2933954855562686 1.15763752581443 -0.5454687499999891
v 0.43031840431312207 1.2329115373928183 0.05171875000000692
v 0.6711387523784859 0.7947301559949644 0.0517187500000067
v 0.43031840431312207 1.2329115373928237 -0.5454687499999891
v 0.671138752378486 0.7947301559949689 -0.5454687499999902
v 0.4677139418550915 1.2514748434403415 0.05171875000000692
v 0.46771394185509174 1.251474843440346 -0.5454687499999891
v 0.6104554196117477 1.3150274439209353 0.05171875000000736
v 0.8137651038371158 0.8582314989452435 0.0517187500000067
v 0.6104554196117479 1.3150274439209402 -0.5454687499999891
v 0.813765103837116 0.8582314989452482 -0.5454687499999902
v 0.6492731431552917 1.330396467909591 0.05171875000000736
v 0.6492731431552918 1.3303964679095954 -0.5454687499999891
v 0.7968319510048977 1.3817818814624947 0.05171875000000736
v 0.9612049000332356 0.9095754682555355 0.0517187500000067
v 0.796831951004898 1.3817818814624991 -0.5454687499999884
v 0.9612049000332357 0.9095754682555404 -0.5454687499999895
v 0.8367995821098535 1.3938488207316313 0.05171875000000736
v 0.8367995821098535 1.3938488207316357 -0.5454687499999882
v 0.9881407010362021 1.4327066156011403 0.05171875000000803
v 1.11248564461863 0.948415035036825 0.0517187500000067
v 0.9881407010362023 1.4327066156011443 -0.5454687499999882
v 1.1124856446186302 0.9484150350368294 -0.5454687499999895
vt 0 0
vt 0.46875 0
vt 0.46875 0.4999999999999998
vt 0 0.4999999999999998
vt 0 1
vt 0.46875 1
vt 0.46875 0.5000000000000002
vt 0 0.5000000000000002
vt 0 0.0625
vt 0.4687499999999998 0.0625
vt 0.4687499999999998 0.21875
vt 0 0.21875
vt 1 0.84375
vt 0.5312500000000002 0.84375
vt 0.5312500000000002 1
vt 1 1
vt 0 0.0625
vt 0.46875 0.0625
vt 0.46875 0.21875
vt 0 0.21875
vt 0.46875 0.1875
vt 0 0.1875
vt 0 0.03125
vt 0.46875 0.03125
vt 0 0
vt 0.46875 0
vt 0.46875 0.4999999999999998
vt 0 0.4999999999999998
vt 0 1
vt 0.46875 1
vt 0.46875 0.5000000000000002
vt 0 0.5000000000000002
vt 0 0.375
vt 0.4687499999999998 0.375
vt 0.4687499999999998 0.21875
vt 0 0.21875
vt 1 0.6875
vt 0.5312500000000002 0.6875
vt 0.5312500000000002 0.84375
vt 1 0.84375
vt 0 0.21875
vt 0.46875 0.21875
vt 0.46875 0.375
vt 0 0.375
vt 0.46875 0.34375
vt 0 0.34375
vt 0 0.1875
vt 0.46875 0.1875
vt 0 0.5000000000000002
vt 0.46875 0.5000000000000002
vt 0.46875 1
vt 0 1
vt 0 0.4999999999999998
vt 0.46875 0.4999999999999998
vt 0.46875 0
vt 0 0
vt 0 0.53125
vt 0.4687499999999998 0.53125
vt 0.4687499999999998 0.375
vt 0 0.375
vt 1 0.53125
vt 0.5312500000000002 0.53125
vt 0.5312500000000002 0.6875
vt 1 0.6875
vt 0 0.375
vt 0.46875 0.375
vt 0.46875 0.53125
vt 0 0.53125
vt 0.46875 0.5
vt 0 0.5
vt 0 0.34375
vt 0.46875 0.34375
vt 0 0.5000000000000002
vt 0.46875 0.5000000000000002
vt 0.46875 1
vt 0 1
vt 0 0.4999999999999998
vt 0.46875 0.4999999999999998
vt 0.46875 0
vt 0 0
vt 0 0.6875
vt 0.4687499999999998 0.6875
vt 0.4687499999999998 0.53125
vt 0 0.53125
vt 1 0.375
vt 0.5312500000000002 0.375
vt 0.5312500000000002 0.53125
vt 1 0.53125
vt 0 0.53125
vt 0.46875 0.53125
vt 0.46875 0.6875
vt 0 0.6875
vt 0.46875 0.65625
vt 0 0.65625
vt 0 0.5
vt 0.46875 0.5
vt 0 0
vt 0.46875 0
vt 0.46875 0.4999999999999998
vt 0 0.4999999999999998
vt 0 1
vt 0.46875 1
vt 0.46875 0.5000000000000002
vt 0 0.5000000000000002
vt 0 0.84375
vt 0.4687499999999998 0.84375
vt 0.4687499999999998 0.6875
vt 0 0.6875
vt 1 0.21875
vt 0.5312500000000002 0.21875
vt 0.5312500000000002 0.375
vt 1 0.375
vt 0 0.6875
vt 0.46875 0.6875
vt 0.46875 0.84375
vt 0 0.84375
vt 0.46875 0.8125
vt 0 0.8125
vt 0 0.65625
vt 0.46875 0.65625
vt 0 0.5000000000000002
vt 0.46875 0.5000000000000002
vt 0.46875 1
vt 0 1
vt 0 1
vt 0.46875 1
vt 0.46875 0.5000000000000002
vt 0 0.5000000000000002
vt 0 1
vt 0.4687499999999998 1
vt 0.4687499999999998 0.84375
vt 0 0.84375
vt 1 0.0625
vt 0.5312500000000002 0.0625
vt 0.5312500000000002 0.21875
vt 1 0.21875
vt 0 0.84375
vt 0.46875 0.84375
vt 0.46875 1
vt 0 1
vt 0.46875 0.96875
vt 0 0.96875
vt 0 0.8125
vt 0.46875 0.8125
vt 0 0
vt 0.46875 0
vt 0.46875 0.4999999999999998
vt 0 0.4999999999999998
vt 0 1
vt 0.46875 1
vt 0.46875 0.5000000000000002
vt 0 0.5000000000000002
vt 0.5312500000000002 0.21875
vt 1 0.21875
vt 1 0.0625
vt 0.5312500000000002 0.0625
vt 0.4687499999999998 0.84375
vt 0 0.84375
vt 0 1
vt 0.4687499999999998 1
vt 0 0.0625
vt 0.46875 0.0625
vt 0.46875 0.21875
vt 0 0.21875
vt 0.46875 0.15625
vt 0 0.15625
vt 0 0
vt 0.46875 0
vt 0 0
vt 0.46875 0
vt 0.46875 0.4999999999999998
vt 0 0.4999999999999998
vt 0 0.4999999999999998
vt 0.46875 0.4999999999999998
vt 0.46875 0
vt 0 0
vt 0.5312500000000002 0.375
vt 1 0.375
vt 1 0.21875
vt 0.5312500000000002 0.21875
vt 0.4687499999999998 0.6875
vt 0 0.6875
vt 0 0.84375
vt 0.4687499999999998 0.84375
vt 0 0.21875
vt 0.46875 0.21875
vt 0.46875 0.375
vt 0 0.375
vt 0.46875 0.3125
vt 0 0.3125
vt 0 0.15625
vt 0.46875 0.15625
vt 0 0
vt 0.46875 0
vt 0.46875 0.4999999999999998
vt 0 0.4999999999999998
vt 0 0.5000000000000002
vt 0.46875 0.5000000000000002
vt 0.46875 1
vt 0 1
vt 0.5312500000000002 0.53125
vt 1 0.53125
vt 1 0.375
vt 0.5312500000000002 0.375
vt 0.4687499999999998 0.53125
vt 0 0.53125
vt 0 0.6875
vt 0.4687499999999998 0.6875
vt 0 0.375
vt 0.46875 0.375
vt 0.46875 0.53125
vt 0 0.53125
vt 0.46875 0.46875
vt 0 0.46875
vt 0 0.3125
vt 0.46875 0.3125
vn -0.6045991148623737 -0.7965299180241974 -6.370192917151802e-15
vn 0.6046994904240589 0.7964537188568358 6.523163136066513e-15
vn 8.29934443626417e-16 -5.369799240942727e-16 1
vn 1.6087021035642606e-15 4.484283385525763e-15 -1
vn -0.7965299180241988 0.6045991148623718 4.746991393387491e-15
vn 0.7965401409430871 -0.604585646427673 -4.746878672761312e-15
vn -0.6690369483835413 -0.7432291448117726 -6.246424992729463e-15
vn 0.6692242537073311 0.7430604943407136 6.770203950262651e-15
vn -1.1205389089809448e-15 -2.7083998913053672e-15 1
vn 2.310942524427219e-16 2.5500427904762466e-15 -1
vn -0.7431448254773927 0.6691306063588599 4.237952666850005e-15
vn 0.7431448254773949 -0.6691306063588576 -5.03937506682088e-15
vn -0.7288823535778484 -0.6846389666406788 -5.527520593194407e-15
vn 0.7290548896878094 0.6844552343450199 6.306188682318851e-15
vn 2.2504758034161056e-15 -2.2661016815369953e-15 1
vn -1.5664722280049534e-15 1.5377118553286727e-15 -1
vn -0.6845471059286896 0.7289686274214108 5.2501684166896306e-15
vn 0.68454710592869 -0.7289686274214104 -5.792254615340912e-15
vn -0.7836151727630559 -0.6212465380310188 -5.277180183603526e-15
vn 0.783771729442343 0.6210490126608034 5.506520194579762e-15
vn 2.053390067404612e-15 -2.4362215253866843e-15 1
vn 3.578393178967375e-15 5.625950284771715e-15 -1
vn -0.6211477802783077 0.7836934573258418 5.964320633409842e-15
vn 0.6211477802783103 -0.7836934573258398 -5.733367183325975e-15
vn -0.8328514945380548 -0.5534965113220939 -4.839132576635552e-15
vn 0.8329909736540493 0.5532865783758713 5.043301512050115e-15
vn 1.8427602771678615e-15 -2.5892530256585315e-15 1
vn 9.15595530735733e-16 2.289528653673709e-15 -1
vn -0.5533915492433437 0.8329212407100999 6.365594326919476e-15
vn 0.5533915492433453 -0.8329212407100987 -6.262714069110503e-15
vn -0.8762459614818428 -0.4818641042729383 -4.143868799550674e-15
vn 0.8763673846887612 0.4816432362794905 4.516522597328688e-15
vn -7.103514947224971e-15 -7.521382527184397e-15 1
vn -1.085207003121233e-15 1.7512217847842875e-15 -1
vn -0.48175367410171466 0.8763066800438641 6.396392023262041e-15
vn 0.4817536741017176 -0.8763066800438624 -6.396392023262017e-15
vn -0.9134941925876897 -0.4068517667511905 -3.2532720888044294e-15
vn 0.9135967081889783 0.40662151294079724 3.7238086786521076e-15
vn 1.2246467991473532e-16 0 1
vn -9.352920681399698e-16 1.8256402047903817e-15 -1
vn -0.4067366430758003 0.9135454576426009 6.540786403982256e-15
vn 0.40673664307580076 -0.9135454576426009 -6.9560741969006494e-15
vn -0.9443349182772063 -0.3289856564082731 -2.9798056019552156e-15
vn 0.9444178071995792 0.3287476318459778 3.0313245193273818e-15
vn 5.606053820022292e-16 -1.2581687136536974e-15 1
vn 3.24626619676202e-15 3.2898032915988973e-15 -1
vn -0.3288666467385847 0.9443763702374808 6.940704473818915e-15
vn 0.32886664673858385 -0.9443763702374809 -7.642975295059882e-15
vn -0.9685518130187106 -0.24881194806152052 -2.276787420603745e-15
vn 0.968583161128631 0.2486898871648556 2.085995993376907e-15
vn 4.53766097684403e-16 -1.290424412934919e-15 1
vn -8.127214225606019e-16 2.688372516487149e-15 -1
vn -0.2486898871648576 0.9685831611286305 7.186940387816473e-15
vn 0.24867350957078826 -0.968587366032485 -7.0713963251099e-15
usemtl m_arch
f 4/1/1 2/2/1 1/3/1 3/4/1
f 7/5/2 5/6/2 6/7/2 8/8/2
usemtl m_keystones
f 1/9/3 2/10/3 6/11/3 5/12/3
f 4/13/4 3/14/4 7/15/4 8/16/4
f 3/17/5 1/18/5 5/19/5 7/20/5
usemtl m_arch
f 8/21/6 6/22/6 2/23/6 4/24/6
f 8/25/7 6/26/7 9/27/7 10/28/7
f 13/29/8 11/30/8 12/31/8 14/32/8
usemtl m_keystones
f 9/33/9 6/34/9 12/35/9 11/36/9
f 8/37/10 10/38/10 13/39/10 14/40/10
f 10/41/11 9/42/11 11/43/11 13/44/11
usemtl m_arch
f 14/45/12 12/46/12 6/47/12 8/48/12
f 14/49/13 12/50/13 15/51/13 16/52/13
f 19/53/14 17/54/14 18/55/14 20/56/14
usemtl m_keystones
f 15/57/15 12/58/15 18/59/15 17/60/15
f 14/61/16 16/62/16 19/63/16 20/64/16
f 16/65/17 15/66/17 17/67/17 19/68/17
usemtl m_arch
f 20/69/18 18/70/18 12/71/18 14/72/18
f 20/73/19 18/74/19 21/75/19 22/76/19
f 25/77/20 23/78/20 24/79/20 26/80/20
usemtl m_keystones
f 21/81/21 18/82/21 24/83/21 23/84/21
f 20/85/22 22/86/22 25/87/22 26/88/22
f 22/89/23 21/90/23 23/91/23 25/92/23
usemtl m_arch
f 26/93/24 24/94/24 18/95/24 20/96/24
f 26/97/25 24/98/25 27/99/25 28/100/25
f 31/101/26 29/102/26 30/103/26 32/104/26
usemtl m_keystones
f 27/105/27 24/106/27 30/107/27 29/108/27
f 26/109/28 28/110/28 31/111/28 32/112/28
f 28/113/29 27/114/29 29/115/29 31/116/29
usemtl m_arch
f 32/117/30 30/118/30 24/119/30 26/120/30
f 32/121/31 30/122/31 33/123/31 34/124/31
f 37/125/32 35/126/32 36/127/32 38/128/32
usemtl m_keystones
f 33/129/33 30/130/33 36/131/33 35/132/33
f 32/133/34 34/134/34 37/135/34 38/136/34
f 34/137/35 33/138/35 35/139/35 37/140/35
usemtl m_arch
f 38/141/36 36/142/36 30/143/36 32/144/36
f 38/145/37 36/146/37 39/147/37 40/148/37
f 43/149/38 41/150/38 42/151/38 44/152/38
usemtl m_keystones
f 39/153/39 36/154/39 42/155/39 41/156/39
f 38/157/40 40/158/40 43/159/40 44/160/40
f 40/161/41 39/162/41 41/163/41 43/164/41
usemtl m_arch
f 44/165/42 42/166/42 36/167/42 38/168/42
f 44/169/43 42/170/43 45/171/43 46/172/43
f 49/173/44 47/174/44 48/175/44 50/176/44
usemtl m_keystones
f 45/177/45 42/178/45 48/179/45 47/180/45
f 44/181/46 46/182/46 49/183/46 50/184/46
f 46/185/47 45/186/47 47/187/47 49/188/47
usemtl m_arch
f 50/189/48 48/190/48 42/191/48 44/192/48
f 50/193/49 48/194/49 51/195/49 52/196/49
f 55/197/50 53/198/50 54/199/50 56/200/50
usemtl m_keystones
f 51/201/51 48/202/51 54/203/51 53/204/51
f 50/205/52 52/206/52 55/207/52 56/208/52
f 52/209/53 51/210/53 53/211/53 55/212/53
usemtl m_arch
f 56/213/54 54/214/54 48/215/54 50/216/54
o arch_3_left_inner
v 0.7248766881039502 1.4084396436546784 -0.5109374999999963
v 0.7248766881039502 1.4084396436546767 0.017187500000002354
v 0.8968612835793088 0.9017893631390361 -0.5109374999999974
v 0.8968612835793088 0.9017893631390344 0.017187500000002354
v 0.43345929363905533 1.2877306065558884 -0.5109374999999963
v 0.43345929363905555 1.2877306065558871 0.017187500000002576
v 0.670103668961481 0.8078632837929602 -0.5109374999999974
v 0.670103668961481 0.8078632837929587 0.017187500000002354
v 0.1602907063609449 1.1300166491567216 -0.5109374999999963
v 0.1602907063609451 1.1300166491567207 0.017187500000002576
v 0.45754581065845445 0.6851429470833375 -0.5109374999999974
v 0.4575458106584547 0.6851429470833363 0.017187500000002576
v -0.08995508346541259 0.9379963009948469 -0.5109374999999963
v -0.08995508346541237 0.9379963009948455 0.017187500000002576
v 0.26282463255796595 0.535728131995775 -0.5109374999999974
v 0.2628246325579662 0.5357281319957736 0.017187500000002576
v -0.3129963009948469 0.7149550834654126 -0.5109374999999973
v -0.31299630099484665 0.7149550834654113 0.017187500000002576
v 0.08927186800422504 0.36217536744203405 -0.5109374999999974
v 0.08927186800422526 0.3621753674420325 0.017187500000002576
v -0.5050166491567218 0.46470929363905533 -0.5109374999999973
v -0.5050166491567218 0.464709293639054 0.017187500000002576
v -0.06014294708333767 0.16745418934154555 -0.5109374999999974
v -0.06014294708333745 0.167454189341544 0.017187500000002576
v 1.0295566573401687 1.4900783953614622 -0.5109374999999964
v 1.0295566573401689 1.4900783953614605 0.017187500000002354
v 1.1339387688567388 0.9653140838627245 -0.5109374999999974
v 1.1339387688567388 0.9653140838627232 0.017187500000002354
vt 0 0.6249999999999999
vt 0 0.3125
vt 0.4375 0.3125000000000001
vt 0.4375 0.625
vt 1 0.5625
vt 1 0.3125
vt 0.53125 0.28125
vt 0.5312513945477076 0.59375
vt 0.53125 0.5625
vt 0.53125 0.25
vt 1 0.28125
vt 1 0.53125
vt 0 0.3124999999999999
vt 0 0
vt 0.4375 1.1102230246251565e-16
vt 0.4375 0.3125
vt 1 0.875
vt 1 0.625
vt 0.53125 0.59375
vt 0.5312513945477076 0.90625
vt 0.53125 0.3125
vt 0.53125 0
vt 1 0.03125
vt 1 0.28125
vt 0 0.9999999999999999
vt 0 0.6875
vt 0.4375 0.6875000000000001
vt 0.4375 1
vt 0.46875 0.28125
vt 0.46875 0.03125
vt 0 0
vt 0.0000013945477076449109 0.3125
vt 0 0.875
vt 0 0.5625
vt 0.46875 0.59375
vt 0.46875 0.84375
vt 0 0.6874999999999999
vt 0 0.375
vt 0.4375 0.3750000000000001
vt 0.4375 0.6875
vt 0.46875 0.5625
vt 0.46875 0.3125
vt 0 0.28125
vt 0.0000013945477076449109 0.59375
vt 0 0.59375
vt 0 0.28125
vt 0.46875 0.3125
vt 0.46875 0.5625
vt 0 0.3749999999999999
vt 0 0.0625
vt 0.4375 0.06250000000000011
vt 0.4375 0.375
vt 0 0.25
vt 0 0
vt 0.4375 0
vt 0.4375 0.25
vt 0.46875 0.84375
vt 0.46875 0.59375
vt 0 0.5625
vt 0.0000013945477076449109 0.875
vt 0 0.3125
vt 0 0
vt 0.46875 0.03125
vt 0.46875 0.28125
vt 0 0.9374999999999999
vt 0 0.625
vt 0.4375 0.6250000000000001
vt 0.4375 0.9375
vt 0 0.53125
vt 0 0.28125
vt 0.4375 0.28125
vt 0.4375 0.53125
vt 1 0.28125
vt 1 0.03125
vt 0.53125 0
vt 0.5312513945477076 0.3125
vt 0.53125 0.84375
vt 0.53125 0.53125
vt 1 0.5625
vt 1 0.8125
vt 0.4375 0.4649562500000002
vt 0.4375 1
vt 0 1
vt 0 0.4649562500000002
vt 0 1
vt 0 0.46495624999999996
vt 0.4375 0.46495624999999996
vt 0.4375 1
vn -0.382683432365091 0.9238795325112863 2.379471389360088e-15
vn -8.784511067116204e-16 1.825112684543015e-15 -1
vn 1.2246467991473532e-16 0 1
vn -0.4999999999999999 0.8660254037844387 1.5191112057741354e-15
vn -1.1102085471167718e-15 1.7108225628584911e-15 -1
vn 1.2246467991473532e-16 0 1
vn -0.6087614290087204 0.7933533402912354 2.0739285038109835e-15
vn -1.3250654160997574e-15 1.5672597927938343e-15 -1
vn 1.2246467991473532e-16 0 1
vn -0.7071067811865476 0.7071067811865476 1.8777039264841465e-15
vn -1.2246467991473532e-16 0 -1
vn 1.2246467991473532e-16 0 1
vn -0.7933533402912347 0.6087614290087212 1.6383439924557737e-15
vn 0.7933533402912349 -0.6087614290087211 -1.890452995948335e-15
vn -1.2246467991473532e-16 0 -1
vn 1.2246467991473532e-16 0 1
vn -0.25881904510252 0.9659258262890685 3.280683378191684e-15
vn 0.25881904510252124 -0.9659258262890682 -3.2837166514850554e-15
vn -6.337585289449365e-16 1.908174622178172e-15 -1
vn 1.2246467991473532e-16 0 1
vn -0.5555702330196025 -0.8314696123025452 -2.092917854295349e-15
vn 0.9807852804032304 0.1950903220161282 3.7101471390039133e-16
usemtl m_mortar
f 57/217/55 61/218/55 62/219/55 58/220/55
f 59/221/56 63/222/56 61/223/56 57/224/56
f 58/225/57 62/226/57 64/227/57 60/228/57
f 61/229/58 65/230/58 66/231/58 62/232/58
f 63/233/59 67/234/59 65/235/59 61/236/59
f 62/237/60 66/238/60 68/239/60 64/240/60
f 65/241/61 69/242/61 70/243/61 66/244/61
f 67/245/62 71/246/62 69/247/62 65/248/62
f 66/249/63 70/250/63 72/251/63 68/252/63
f 69/253/64 73/254/64 74/255/64 70/256/64
f 71/257/65 75/258/65 73/259/65 69/260/65
f 70/261/66 74/262/66 76/263/66 72/264/66
f 73/265/67 77/266/67 78/267/67 74/268/67
f 76/269/68 80/270/68 79/271/68 75/272/68
f 75/273/69 79/274/69 77/275/69 73/276/69
f 74/277/70 78/278/70 80/279/70 76/280/70
f 81/281/71 57/282/71 58/283/71 82/284/71
f 84/285/72 60/286/72 59/287/72 83/288/72
f 83/289/73 59/290/73 57/291/73 81/292/73
f 82/293/74 58/294/74 60/295/74 84/296/74
f 80/297/75 78/298/75 77/299/75 79/300/75
f 82/301/76 84/302/76 83/303/76 81/304/76