mtllib brick_arch.mtl

o bricks
v 1.5811045568735147 -0.5937247599731952 -0.5406249999999821
v 0.9673567296741588 -0.5937247875016585 -0.5406249999999821
v 1.5811045568735147 -0.5937247599731926 0.04062499999999791
v 0.9673567296741588 -0.5937247875016559 0.040624999999997136
v 1.5811045500143484 -0.43977443494490565 -0.5406249999999833
v 0.9673317453415033 -0.43929626969662405 -0.5406249999999837
v 1.5811045500143484 -0.43977443494490304 0.04062499999999547
v 0.9673317453415033 -0.4392962696966215 0.04062499999999547
v 0.022951462834414293 0.8648805092661335 -0.5406249999999979
v 0.022951462834414182 0.8648805092661359 0.04062499999998237
v 0.41320235976322583 1.3646541647536221 -0.5406250000000028
v 0.16399388876411725 0.8018742801394575 -0.5406249999999976
v 0.4132023597632257 1.3646541647536248 0.04062499999997404
v 0.16399388876411725 0.8018742801394602 0.04062499999998237
v 0.27303072205435447 1.4272713968689317 -0.5406250000000035
v 0.27303072205435436 1.4272713968689343 0.04062499999997482
v 0.604173319366947 1.2579813140425657 -0.5406250000000019
v 0.2976996869442517 0.7244209308445605 -0.5406249999999964
v 0.604173319366947 1.2579813140425684 0.04062499999997804
v 0.2976996869442516 0.7244209308445634 0.04062499999998326
v 0.4712930134693277 1.334956470596623 -0.5406250000000028
v 0.4712930134693276 1.3349564705966257 0.04062499999997482
v 0.7829849532659474 1.1318641390533113 -0.5406250000000019
v 0.4226039486702189 0.6333690564844724 -0.5406249999999952
v 0.7829849532659474 1.131864139053314 0.04062499999998037
v 0.4226039486702188 0.6333690564844748 0.04062499999998326
v 0.6588518436179861 1.2223538641228244 -0.5406250000000028
v 0.6588518436179859 1.2223538641228275 0.040624999999979594
v 0.9476781637804899 0.9876844059467585 -0.5406249999999996
v 0.5373381967126523 0.5297162404485117 -0.5406249999999944
v 0.9476781637804899 0.9876844059467617 0.04062499999998037
v 0.537338196712652 0.5297162404485144 0.040624999999985145
v 0.8336522787080125 1.0906972751676727 -0.5406250000000004
v 0.8336522787080125 1.0906972751676753 0.04062499999998037
v 1.096448537631905 0.8270217780503709 -0.5406249999999979
v 0.6406453786403128 0.41459812467991475 -0.5406249999999932
v 1.096448537631905 0.8270217780503734 0.04062499999998237
v 0.6406453786403126 0.4145981246799174 0.04062499999998681
v 0.9937791685932169 0.9414291608706732 -0.5406249999999979
v 0.9937791685932169 0.9414291608706759 0.04062499999998204
v 1.2276661154720772 0.6516365087361976 -0.5406249999999959
v 0.7313936393495851 0.289275967345057 -0.5406249999999924
v 1.2276661154720772 0.6516365087362003 0.040624999999984035
v 0.7313936393495849 0.28927596734505945 0.04062499999998792
v 1.1374781295593124 0.7761849339284245 -0.5406249999999968
v 1.1374781295593124 0.7761849339284269 0.04062499999998126
v 1.3398932500591452 0.4634501557165722 -0.5406249999999932
v 0.8085887219058425 0.15512282422504653 -0.5406249999999908
v 1.3398932500591452 0.4634501557165748 0.04062499999998481
v 0.8085887219058425 0.15512282422504897 0.04062499999998914
v 1.263174765719013 0.5967750446708843 -0.5406249999999952
v 1.263174765719013 0.5967750446708869 0.04062499999998437
v 1.4319003574215345 0.2645245280557028 -0.5406249999999917
v 0.8713848608304898 0.01360850522925594 -0.5406249999999888
v 1.4319003574215343 0.2645245280557055 0.040624999999988365
v 0.8713848608304898 0.013608505229258383 0.04062499999999114
v 1.3694919184228407 0.4051651453886901 -0.5406249999999937
v 1.3694919184228407 0.40516514538869275 0.040624999999985145
v 1.5026793884372585 0.05703909655810724 -0.5406249999999893
v 0.9190940484845318 -0.13371652914962184 -0.540624999999988
v 1.502679388437258 0.05703909655810968 0.04062499999998992
v 0.9190940484845318 -0.13371652914961923 0.04062499999999192
v 1.4552647546974788 0.2034545542353281 -0.5406249999999917
v 1.4552647546974786 0.20345455423533076 0.04062499999998914
v 1.5514548732310443 -0.15673288496961052 -0.5406249999999877
v 0.9511935730242411 -0.2852381550051859 -0.5406249999999853
v 1.5514548732310443 -0.15673288496960797 0.04062499999999236
v 0.9511935730242409 -0.28523815500518335 0.040624999999993916
v 1.5195535293995812 -0.006146745341871873 -0.5406249999999897
v 1.5195535293995812 -0.00614674534186932 0.04062499999999114
v 1.5776924173845652 -0.3744492859631684 -0.5406249999999845
v 1.5776924173845652 -0.37444928596316573 0.04062499999999469
v 1.5616538812602212 -0.22134231764284906 -0.5406249999999868
v 1.5616538812602212 -0.2213423176428465 0.04062499999999314
v 0.21216439225144418 1.4507139611113629 -0.5406250000000051
v 0.21216439225144418 1.4507139611113655 0.04062499999997404
v 0.06623717252686034 1.4982872212893699 -0.5406250000000051
v -0.12342131024461933 0.9126253735669613 -0.5406249999999979
v 0.06623717252686034 1.498287221289373 0.040624999999973266
v -0.12342131024461933 0.9126253735669635 0.04062499999998237
vt 0 0.625
vt 0.46875 0.625
vt 0.46875 0
vt 0 0
vt 0 0
vt 0.46875 2.220446049250313e-16
vt 0.46875 0.625
vt 0 0.6249999999999998
vt 0 0.0625
vt 0.4687312507499701 0.0625
vt 0.4687499999999999 0.21875
vt 0 0.21826401626924008
vt 0.4687499999999999 0.21875
vt 0.000018749250029814757 0.21875
vt 0 0.375
vt 0.4687499999999999 0.3745140162692401
vt 0 0
vt 0.46875 0
vt 0.46875 0.15625
vt 0 0.15625
vt 0 0.15625
vt 0.46875 0.15625
vt 0.46875 0
vt 0 1.1102230246251565e-16
vt 0 0.375
vt 0.46875 0.375
vt 0.46875 1
vt 0 1
vt 0 0.375
vt 0.46875 0.375
vt 0.46875 1
vt 0 1
vt 0.5312500000000001 1
vt 0.9999812507499702 1
vt 1 0.84375
vt 0.5312500000000001 0.8442359837307599
vt 0.4687499999999999 0.375
vt 0.000018749250029814757 0.375
vt 0 0.53125
vt 0.4687499999999999 0.5307640162692401
vt 0 0
vt 0.0625 0
vt 0.0625 0.15625
vt 0 0.15625
vt 0 0.9375
vt 0.46875 0.9375
vt 0.46875 0.78125
vt 0 0.7812500000000001
vt 0 0
vt 0.46875 2.220446049250313e-16
vt 0.46875 0.625
vt 0 0.6249999999999998
vt 0 0
vt 0.46875 2.220446049250313e-16
vt 0.46875 0.625
vt 0 0.6249999999999998
vt 0.5312500000000001 0.84375
vt 0.9999812507499702 0.84375
vt 1 0.6875
vt 0.5312500000000001 0.6879859837307599
vt 0.4687499999999999 0.53125
vt 0.000018749250029814757 0.53125
vt 0 0.6875
vt 0.4687499999999999 0.6870140162692401
vt 0 0
vt 0.46875 0
vt 0.46875 0.15625
vt 0 0.15625
vt 0 0.78125
vt 0.46875 0.78125
vt 0.46875 0.625
vt 0 0.6250000000000001
vt 0 0.375
vt 0.46875 0.375
vt 0.46875 1
vt 0 1
vt 0 0.375
vt 0.46875 0.375
vt 0.46875 1
vt 0 1
vt 0.5312500000000001 0.6875
vt 0.9999812507499702 0.6875
vt 1 0.53125
vt 0.5312500000000001 0.5317359837307599
vt 0.4687499999999999 0.6875
vt 0.000018749250029814757 0.6875
vt 0 0.84375
vt 0.4687499999999999 0.8432640162692401
vt 0 0
vt 0.46875 0
vt 0.46875 0.15625
vt 0 0.15625
vt 0 0.625
vt 0.46875 0.625
vt 0.46875 0.46875
vt 0 0.4687500000000001
vt 0 0
vt 0.46875 2.220446049250313e-16
vt 0.46875 0.625
vt 0 0.6249999999999998
vt 0 0
vt 0.46875 2.220446049250313e-16
vt 0.46875 0.625
vt 0 0.6249999999999998
vt 0.5312500000000001 0.53125
vt 0.9999812507499702 0.53125
vt 1 0.375
vt 0.5312500000000001 0.3754859837307599
vt 0.4687499999999999 0.84375
vt 0.000018749250029814757 0.84375
vt 0 1
vt 0.4687499999999999 0.9995140162692401
vt 0 0
vt 0.46875 0
vt 0.46875 0.15625
vt 0 0.15625
vt 0 0.46875
vt 0.46875 0.46875
vt 0.46875 0.3125
vt 0 0.3125000000000001
vt 0 0.375
vt 0.46875 0.375
vt 0.46875 1
vt 0 1
vt 0 0.375
vt 0.46875 0.375
vt 0.46875 1
vt 0 1
vt 0.5312500000000001 0.21875
vt 0.9999812507499702 0.21875
vt 1 0.375
vt 0.5312500000000001 0.3745140162692401
vt 1 0.0625
vt 0.53126874925003 0.0625
vt 0.5312500000000001 0.21875
vt 1 0.21826401626924008
vt 0 0
vt 0.46875 0
vt 0.46875 0.15625
vt 0 0.15625
vt 0 0.3125
vt 0.46875 0.3125
vt 0.46875 0.15625
vt 0 0.1562500000000001
vt 0 0
vt 0.46875 2.220446049250313e-16
vt 0.46875 0.625
vt 0 0.6249999999999998
vt 0 0
vt 0.46875 2.220446049250313e-16
vt 0.46875 0.625
vt 0 0.6249999999999998
vt 0.5312500000000001 0.0625
vt 0.9999812507499702 0.0625
vt 1 0.21875
vt 0.5312500000000001 0.21826401626924008
vt 1 0.21875
vt 0.53126874925003 0.21875
vt 0.5312500000000001 0.375
vt 1 0.3745140162692401
vt 0 0
vt 0.46875 0
vt 0.46875 0.15625
vt 0 0.15625
vt 0 0.15625
vt 0.46875 0.15625
vt 0.46875 0
vt 0 1.1102230246251565e-16
vt 0 0.375
vt 0.46875 0.375
vt 0.46875 1
vt 0 1
vt 0 0.375
vt 0.46875 0.375
vt 0.46875 1
vt 0 1
vt 0 0.84375
vt 0.4687312507499701 0.84375
vt 0.4687499999999999 1
vt 0 0.9995140162692401
vt 1 0.375
vt 0.53126874925003 0.375
vt 0.5312500000000001 0.53125
vt 1 0.5307640162692401
vt 0 0
vt 0.46875 0
vt 0.46875 0.15625
vt 0 0.15625
vt 0 0.9375
vt 0.46875 0.9375
vt 0.46875 0.78125
vt 0 0.7812500000000001
vt 0 0
vt 0.46875 2.220446049250313e-16
vt 0.46875 0.625
vt 0 0.6249999999999998
vt 0 0
vt 0.46875 2.220446049250313e-16
vt 0.46875 0.625
vt 0 0.6249999999999998
vt 0 0.6875
vt 0.4687312507499701 0.6875
vt 0.4687499999999999 0.84375
vt 0 0.8432640162692401
vt 1 0.53125
vt 0.53126874925003 0.53125
vt 0.5312500000000001 0.6875
vt 1 0.6870140162692401
vt 0 0
vt 0.46875 0
vt 0.46875 0.15625
vt 0 0.15625
vt 0 0.78125
vt 0.46875 0.78125
vt 0.46875 0.625
vt 0 0.6250000000000001
vt 0 0.375
vt 0.46875 0.375
vt 0.46875 1
vt 0 1
vt 0 0.375
vt 0.46875 0.375
vt 0.46875 1
vt 0 1
vt 0 0.53125
vt 0.4687312507499701 0.53125
vt 0.4687499999999999 0.6875
vt 0 0.6870140162692401
vt 1 0.6875
vt 0.53126874925003 0.6875
vt 0.5312500000000001 0.84375
vt 1 0.8432640162692401
vt 0 0
vt 0.46875 0
vt 0.46875 0.15625
vt 0 0.15625
vt 0 0.625
vt 0.46875 0.625
vt 0.46875 0.46875
vt 0 0.4687500000000001
vt 0 0
vt 0.46875 2.220446049250313e-16
vt 0.46875 0.625
vt 0 0.6249999999999998
vt 0 0
vt 0.46875 2.220446049250313e-16
vt 0.46875 0.625
vt 0 0.6249999999999998
vt 0 0.375
vt 0.4687312507499701 0.375
vt 0.4687499999999999 0.53125
vt 0 0.5307640162692401
vt 1 0.84375
vt 0.53126874925003 0.84375
vt 0.5312500000000001 1
vt 1 0.9995140162692401
vt 0 0
vt 0.46875 0
vt 0.46875 0.15625
vt 0 0.15625
vt 0 0.46875
vt 0.46875 0.46875
vt 0.46875 0.3125
vt 0 0.3125000000000001
vt 0 0.375
vt 0.46875 0.375
vt 0.46875 1
vt 0 1
vt 0 0.375
vt 0.46875 0.375
vt 0.46875 1
vt 0 1
vt 0 0.21875
vt 0.4687312507499701 0.21875
vt 0.4687499999999999 0.375
vt 0 0.3745140162692401
vt 0.4687499999999999 0.0625
vt 0.000018749250029814757 0.0625
vt 0 0.21875
vt 0.4687499999999999 0.21826401626924008
vt 0 0
vt 0.46875 0
vt 0.46875 0.15625
vt 0 0.15625
vt 0 0.3125
vt 0.46875 0.3125
vt 0.46875 0.15625
vt 0 0.1562500000000001
vt 0 0
vt 0.46875 2.220446049250313e-16
vt 0.46875 0.625
vt 0 0.6249999999999998
vt 0 0
vt 0.46875 2.220446049250313e-16
vt 0.46875 0.625
vt 0 0.6249999999999998
vt 0 0.21875
vt 0.4687312507499701 0.21875
vt 0.4687499999999999 0.0625
vt 0 0.06298598373075992
vt 0.4687499999999999 0.21875
vt 0.000018749250029814757 0.21875
vt 0 0.375
vt 0.4687499999999999 0.3745140162692401
vt 0 0
vt 0.0625 0
vt 0.0625 0.15625
vt 0 0.15625
vt 0 0.15625
vt 0.46875 0.15625
vt 0.46875 0
vt 0 1.1102230246251565e-16
vn 4.48530521730051e-8 -0.9999999999999991 4.393140570559912e-15
vn 0.0007790587975454116 0.999999696533649 -4.4886422642893545e-15
vn 4.67565792472681e-22 -1.0424391871242288e-14 -1
vn -1.266247340597976e-15 1.5865446500623603e-14 1
vn 0.9999999999999991 4.455441289102711e-8 -1.914787162849389e-22
vn -0.9999999869126868 -0.0001617857419312524 7.1847302299258595e-19
vn 0.9143629965334892 -0.4048954316490845 1.8561000496820456e-15
vn -0.9137344976014046 0.4063117865544991 -2.192337770920588e-15
vn -1.1210649078913768e-15 -8.676852756150745e-15 -1
vn 1.0146636912667084e-14 1.0302508978043643e-14 1
vn 0.40787138259889444 0.9130393941429178 -4.107600582601026e-15
vn -0.4078713825988943 -0.9130393941429179 3.758808373476767e-15
vn 0.8671334645062773 -0.49807585238931346 2.6391516215675214e-15
vn -0.8663601991391994 0.4994196685629103 -2.4548931097539276e-15
vn 2.0197950305950302e-15 -1.1564068917410247e-14 -1
vn -1.3929607416959864e-14 1.7780753402591674e-14 1
vn 0.5012530597022994 0.8653007397079255 -3.966665515144057e-15
vn -0.5012530597023004 -0.8653007397079251 3.966665515144056e-15
vn 0.8104038376636113 -0.5858716752840089 2.6167036411340608e-15
vn -0.8094939406191557 0.5871282313948724 -3.449298836575902e-15
vn -8.257811265487293e-17 -1.3525912497012779e-14 -1
vn -1.3356120893951703e-15 6.756153086197701e-15 1
vn 0.589070147451538 0.8080819026444184 -3.704365973052964e-15
vn -0.5890701474515356 -0.8080819026444201 3.900547139053418e-15
vn 0.7447732450078424 -0.6673176256629885 3.3435943630877357e-15
vn -0.7437363635284282 0.6684730522358472 -3.0643785246295416e-15
vn -1.8847644700477595e-15 -9.583947541772428e-15 -1
vn 5.204534807565111e-15 5.7609470769177015e-15 1
vn 0.670364192590038 0.7420322427584307 -3.968515417787715e-15
vn -0.6703641925900375 -0.7420322427584309 2.9900755989411284e-15
vn 0.6709404454223787 -0.7415112397640511 3.655503741079838e-15
vn -0.6697876650329563 0.7425526808043321 -3.403970408159514e-15
vn -4.827503184267358e-16 -1.1041849439354411e-14 -1
vn 3.923210082338495e-15 6.4319311656946285e-15 1
vn 0.7442549701309363 0.6678956051924575 -2.8065871374579244e-15
vn -0.7442549701309376 -0.6678956051924562 2.777416926670667e-15
vn 0.5896981652029154 -0.8076237205260349 3.61901537306276e-15
vn -0.5884419153261012 0.8085394933380493 -3.3975916662536398e-15
vn -1.7209432948806496e-15 -7.447435855524584e-15 -1
vn -5.52208488982627e-15 1.8286315895163116e-14 1
vn 0.8099490815575046 0.5865002005832181 -2.6886029486855584e-15
vn -0.8099490815575029 -0.5865002005832204 2.3791924990961775e-15
vn 0.5019260151950757 -0.8649105591160239 3.634470464238336e-15
vn -0.5005799529219476 0.8656903087898473 -3.9684513569584874e-15
vn 1.852506610312743e-15 -1.0933914412092365e-14 -1
vn 4.660304079381137e-15 6.012535856369756e-15 1
vn 0.8667470486066351 0.49874798619311494 -2.1910700126300346e-15
vn -0.8667470486066362 -0.49874798619311317 1.7646981317637678e-15
vn 0.40858190389755883 -0.9127216595476663 3.8353791368751174e-15
vn -0.4071607751529798 0.9133565038783185 -4.186960187032288e-15
vn 9.962519087778724e-16 -1.3287203253844543e-14 -1
vn -4.418483691802528e-15 2.0932047635259368e-14 1
vn 0.9140489858263181 0.4056038110149847 -1.510169479113999e-15
vn -0.9140489858263193 -0.405603811014982 1.7044017508852135e-15
vn 0.31069193168725495 -0.9505106646347754 4.266503636677699e-15
vn -0.30921141015847237 0.9509933248071771 -4.477615433161042e-15
vn -2.217563375339011e-16 -5.723718896417532e-15 -1
vn 1.5276660182036002e-15 5.802596634573901e-15 1
vn 0.9513589861872314 0.30808453288148635 -5.677511084720424e-16
vn -0.9513589861872308 -0.30808453288148796 1.2946126318435041e-15
vn 0.2093388325806094 -0.9778431638937747 4.329078962688605e-15
vn -0.20781533804221747 0.9781680761885451 -4.297229860330429e-15
vn -5.264378893051598e-17 -1.8329049642094678e-14 -1
vn 8.161815213651216e-16 8.282851380034132e-15 1
vn 0.9782883840359762 0.20724825128400623 -9.104707008933627e-16
vn -0.9782883840359757 -0.207248251284008 9.302635422171397e-16
vn 0.10564911649163457 -0.994403471526793 4.4160385194250854e-15
vn -0.10409961544217552 0.9945668756120883 -4.3692720913864764e-15
vn -1.9915059647325336e-16 -1.0109991052647549e-14 -1
vn 1.9256488696201294e-16 1.0171977869176793e-14 1
vn 0.9945580675838785 0.1041837329136435 -4.726185811549353e-16
vn -0.9945580675838787 -0.1041837329136416 7.278551259770423e-17
vn 0.9515973112819681 -0.30734761616275685 1.4732769110990056e-15
vn -0.9513590136577441 0.30808444805306967 -1.6476883504875668e-15
vn -3.607127702021784e-15 -1.1058472829002816e-14 -1
vn -6.260636834698165e-16 1.4415585183194217e-14 1
vn 0.30995168077119417 0.950752310324362 -4.358388049084723e-15
vn -0.3101063841294767 -0.950701862058838 3.63179732236307e-15
usemtl m_arch
f 4/1/1 2/2/1 1/3/1 3/4/1
f 7/5/2 5/6/2 6/7/2 8/8/2
usemtl m_keystones
f 1/9/3 2/10/3 6/11/3 5/12/3
f 4/13/4 3/14/4 7/15/4 8/16/4
f 3/17/5 1/18/5 5/19/5 7/20/5
usemtl m_arch
f 8/21/6 6/22/6 2/23/6 4/24/6
f 14/25/7 12/26/7 11/27/7 13/28/7
f 16/29/8 15/30/8 9/31/8 10/32/8
usemtl m_keystones
f 11/33/9 12/34/9 9/35/9 15/36/9
f 14/37/10 13/38/10 16/39/10 10/40/10
f 13/41/11 11/42/11 15/43/11 16/44/11
usemtl m_arch
f 10/45/12 9/46/12 12/47/12 14/48/12
f 20/49/13 18/50/13 17/51/13 19/52/13
f 22/53/14 21/54/14 12/55/14 14/56/14
usemtl m_keystones
f 17/57/15 18/58/15 12/59/15 21/60/15
f 20/61/16 19/62/16 22/63/16 14/64/16
f 19/65/17 17/66/17 21/67/17 22/68/17
usemtl m_arch
f 14/69/18 12/70/18 18/71/18 20/72/18
f 26/73/19 24/74/19 23/75/19 25/76/19
f 28/77/20 27/78/20 18/79/20 20/80/20
usemtl m_keystones
f 23/81/21 24/82/21 18/83/21 27/84/21
f 26/85/22 25/86/22 28/87/22 20/88/22
f 25/89/23 23/90/23 27/91/23 28/92/23
usemtl m_arch
f 20/93/24 18/94/24 24/95/24 26/96/24
f 32/97/25 30/98/25 29/99/25 31/100/25
f 34/101/26 33/102/26 24/103/26 26/104/26
usemtl m_keystones
f 29/105/27 30/106/27 24/107/27 33/108/27
f 32/109/28 31/110/28 34/111/28 26/112/28
f 31/113/29 29/114/29 33/115/29 34/116/29
usemtl m_arch
f 26/117/30 24/118/30 30/119/30 32/120/30
f 38/121/31 36/122/31 35/123/31 37/124/31
f 40/125/32 39/126/32 30/127/32 32/128/32
usemtl m_keystones
f 35/129/33 36/130/33 30/131/33 39/132/33
f 38/133/34 37/134/34 40/135/34 32/136/34
f 37/137/35 35/138/35 39/139/35 40/140/35
usemtl m_arch
f 32/141/36 30/142/36 36/143/36 38/144/36
f 44/145/37 42/146/37 41/147/37 43/148/37
f 46/149/38 45/150/38 36/151/38 38/152/38
usemtl m_keystones
f 41/153/39 42/154/39 36/155/39 45/156/39
f 44/157/40 43/158/40 46/159/40 38/160/40
f 43/161/41 41/162/41 45/163/41 46/164/41
usemtl m_arch
f 38/165/42 36/166/42 42/167/42 44/168/42
f 50/169/43 48/170/43 47/171/43 49/172/43
f 52/173/44 51/174/44 42/175/44 44/176/44
usemtl m_keystones
f 47/177/45 48/178/45 42/179/45 51/180/45
f 50/181/46 49/182/46 52/183/46 44/184/46
f 49/185/47 47/186/47 51/187/47 52/188/47
usemtl m_arch
f 44/189/48 42/190/48 48/191/48 50/192/48
f 56/193/49 54/194/49 53/195/49 55/196/49
f 58/197/50 57/198/50 48/199/50 50/200/50
usemtl m_keystones
f 53/201/51 54/202/51 48/203/51 57/204/51
f 56/205/52 55/206/52 58/207/52 50/208/52
f 55/209/53 53/210/53 57/211/53 58/212/53
usemtl m_arch
f 50/213/54 48/214/54 54/215/54 56/216/54
f 62/217/55 60/218/55 59/219/55 61/220/55
f 64/221/56 63/222/56 54/223/56 56/224/56
usemtl m_keystones
f 59/225/57 60/226/57 54/227/57 63/228/57
f 62/229/58 61/230/58 64/231/58 56/232/58
f 61/233/59 59/234/59 63/235/59 64/236/59
usemtl m_arch
f 56/237/60 54/238/60 60/239/60 62/240/60
f 68/241/61 66/242/61 65/243/61 67/244/61
f 70/245/62 69/246/62 60/247/62 62/248/62
usemtl m_keystones
f 65/249/63 66/250/63 60/251/63 69/252/63
f 68/253/64 67/254/64 70/255/64 62/256/64
f 67/257/65 65/258/65 69/259/65 70/260/65
usemtl m_arch
f 62/261/66 60/262/66 66/263/66 68/264/66
f 8/265/67 6/266/67 71/267/67 72/268/67
f 74/269/68 73/270/68 66/271/68 68/272/68
usemtl m_keystones
f 71/273/69 6/274/69 66/275/69 73/276/69
f 8/277/70 72/278/70 74/279/70 68/280/70
f 72/281/71 71/282/71 73/283/71 74/284/71
usemtl m_arch
f 68/285/72 66/286/72 6/287/72 8/288/72
f 10/289/73 9/290/73 75/291/73 76/292/73
f 79/293/74 77/294/74 78/295/74 80/296/74
usemtl m_keystones
f 75/297/75 9/298/75 78/299/75 77/300/75
f 10/301/76 76/302/76 79/303/76 80/304/76
f 76/305/77 75/306/77 77/307/77 79/308/77
usemtl m_arch
f 80/309/78 78/310/78 9/311/78 10/312/78
o mortar
v 0.2010459466160922 1.5012767667272309 0.010937499999927325
v 0.2010459466160922 1.5012767667272309 -0.510937500000003
v -0.008498991843061632 0.8997345615952026 0.010937499999948419
v -0.008498991843061632 0.8997345615952024 -0.5109374999999778
v 0.6305530898798091 1.2935054292319812 0.010937499999937872
v 0.6305530898798091 1.2935054292319808 -0.5109374999999898
v 0.2930063254202588 0.7538832899406444 0.010937499999953748
v 0.2930063254202588 0.753883289940644 -0.5109374999999738
v 1.0032654204737337 0.9949385589678292 0.010937499999947198
v 1.0032654204737337 0.9949385589678292 -0.5109374999999805
v 0.5546428342563288 0.5442953928470731 0.01093749999996041
v 0.5546428342563288 0.5442953928470731 -0.5109374999999646
v 1.3004935858307294 0.6205475455164964 0.010937499999959077
v 1.3004935858307294 0.6205475455164959 -0.5109374999999686
v 0.7632909876131908 0.28148048263760184 0.010937499999969624
v 0.7632909876131908 0.2814804826376017 -0.5109374999999581
v 1.507333324623065 0.18910591761315854 0.010937499999972289
v 1.507333324623065 0.1891059176131584 -0.5109374999999527
v 0.9084882958427174 -0.021382803670372486 0.010937499999980282
v 0.9084882958427174 -0.021382803670372652 -0.5109374999999474
v 1.6134128286601592 -0.27775203997576564 0.010937499999988165
v 1.6134128286601592 -0.2777520399757656 -0.5109374999999381
v 0.9829539596191217 -0.34910763625442054 0.01093749999999083
v 0.9829539596191217 -0.3491076362544205 -0.5109374999999354
v 1.6134128286601592 -0.6249748545568835 0.010937500000000155
v 1.6134128286601592 -0.6249748545568836 -0.5109374999999262
v 0.9829539596191217 -0.6249748545568835 0.010937500000000155
v 0.9829539596191217 -0.6249748545568836 -0.5109374999999262
vt 0 0.46875
vt 0 0
vt 0.4375 0
vt 0.4375 0.46875
vt 0.9999999999999998 0.40625
vt 1 0.0625
vt 0.5 0
vt 0.5000023720110424 0.46875
vt 6.661338147750939e-16 0.46875
vt 0 0
vt 0.5 0.0625
vt 0.49999833488356715 0.40625
vt 0 0.5625
vt 0 0.09375
vt 0.4375 0.09375
vt 0.4375 0.5625
vt 0.9999999999999998 0.9375
vt 1 0.59375
vt 0.5 0.53125
vt 0.5000023720110424 1
vt 6.661338147750939e-16 1
vt 0 0.53125
vt 0.5 0.59375
vt 0.49999833488356715 0.9375
vt 0 1
vt 0 0.53125
vt 0.4375 0.53125
vt 0.4375 1
vt 0.4999999999999998 0.9375
vt 0.5 0.59375
vt 0 0.53125
vt 0.0000023720110423619545 1
vt 0.5000000000000007 1
vt 0.5 0.53125
vt 1 0.59375
vt 0.9999983348835672 0.9375
vt 0 0.46875
vt 0 0
vt 0.4375 0
vt 0.4375 0.46875
vt 0.4999999999999998 0.40625
vt 0.5 0.0625
vt 0 0
vt 0.0000023720110423619545 0.46875
vt 0.5000000000000007 0.46875
vt 0.5 0
vt 1 0.0625
vt 0.9999983348835672 0.40625
vt 0 0.8125
vt 0 0.34375
vt 0.4375 0.34375
vt 0.4375 0.8125
vt 0.9999999999999998 0.6875
vt 1 0.34375
vt 0.5 0.28125
vt 0.5000023720110424 0.75
vt 6.857259857978908e-16 0.75
vt 0 0.28125
vt 0.5 0.34375
vt 0.49999833488356715 0.6875
vt 0 0.34375
vt 0 0
vt 0.4375 0
vt 0.4375 0.34375
vt 0.4375 0.28125
vt 0.4375 0
vt 0 0
vt 0 0.28125
vt 1 0.28125
vt 1 0
vt 0.5 0
vt 0.5 0.34375
vt 0 0.34375
vt 0 0
vt 0.5 0
vt 0.5 0.28125
vt 0 0.9999999999999999
vt 0 0.375
vt 0.4375 0.375
vt 0.4375 1
vt 0 0.625
vt 0 0
vt 0.4375 0
vt 0.4375 0.625
vn 0.4354680305931695 0.9002041959085207 -7.2454897110288e-16
vn -2.6429506807957863e-15 3.1074167425913325e-14 1
vn 1.2787633168461425e-14 -3.7419912903810135e-14 -1
vn 0.6252018268090679 0.7804631162038372 0
vn -1.098868072265226e-15 3.041127006874076e-14 1
vn -1.8631039697967298e-15 -3.337531746079411e-14 -1
vn 0.78319473122699 0.6217764976084921 -5.006573552380121e-16
vn -1.663339258789892e-15 3.374161090239675e-14 1
vn 1.933703249249364e-16 -3.1576375585505254e-14 -1
vn 0.9017286238521517 0.43230254327924644 -5.55785944947024e-17
vn 8.377802120071207e-16 3.559290595926242e-14 1
vn 3.571366488488304e-15 -3.5214496954300146e-14 -1
vn 0.9751439486640462 0.22157228929604922 2.777203594124362e-17
vn 5.692356034600963e-16 3.231219055785169e-14 1
vn -6.828966057038299e-16 -3.130794435060518e-14 -1
vn 1 0 0
vn -1 0 0
vn 0 3.3805660071673884e-14 1
vn 0 -3.4372446203220923e-14 -1
vn 0 -1 2.1273734603598817e-16
vn -0.9443442942594473 0.3289587419413358 0
usemtl m_mortar
f 81/313/79 85/314/79 86/315/79 82/316/79
f 83/317/80 87/318/80 85/319/80 81/320/80
f 82/321/81 86/322/81 88/323/81 84/324/81
f 85/325/82 89/326/82 90/327/82 86/328/82
f 87/329/83 91/330/83 89/331/83 85/332/83
f 86/333/84 90/334/84 92/335/84 88/336/84
f 89/337/85 93/338/85 94/339/85 90/340/85
f 91/341/86 95/342/86 93/343/86 89/344/86
f 90/345/87 94/346/87 96/347/87 92/348/87
f 93/349/88 97/350/88 98/351/88 94/352/88
f 95/353/89 99/354/89 97/355/89 93/356/89
f 94/357/90 98/358/90 100/359/90 96/360/90
f 97/361/91 101/362/91 102/363/91 98/364/91
f 99/365/92 103/366/92 101/367/92 97/368/92
f 98/369/93 102/370/93 104/371/93 100/372/93
f 101/373/94 105/374/94 106/375/94 102/376/94
f 104/377/95 108/378/95 107/379/95 103/380/95
f 103/381/96 107/382/96 105/383/96 101/384/96
f 102/385/97 106/386/97 108/387/97 104/388/97
f 105/389/98 107/390/98 108/391/98 106/392/98
f 83/393/99 81/394/99 82/395/99 84/396/99