# Blender v3.2.2 OBJ File: ''
# www.blender.org
mtllib brick_arch.mtl
o arch_2_right_inner
v 0.152429 1.406250 0.008594
v 0.423488 1.368994 0.008594
v 0.423488 1.368994 -0.008594
v 0.152429 1.406250 -0.008594
v 0.124960 1.004673 0.008594
v 0.341594 0.974898 0.008594
v 0.341594 0.974898 -0.008594
v 0.124960 1.004673 -0.008594
v 0.686949 1.295175 0.008594
v 0.686949 1.295175 -0.008594
v 0.552155 0.915901 0.008594
v 0.552155 0.915901 -0.008594
v 0.937905 1.186170 0.008594
v 0.937905 1.186170 -0.008594
v 0.752722 0.828783 0.008594
v 0.752722 0.828783 -0.008594
v 1.171681 1.044008 0.008594
v 1.171681 1.044008 -0.008594
v 0.939558 0.715165 0.008594
v 0.939558 0.715165 -0.008594
v 1.383921 0.871337 0.008594
v 1.383921 0.871337 -0.008594
v 1.109183 0.577165 -0.008594
v 1.109183 0.577165 0.008594
v 0.000000 1.406250 0.008594
v 0.000000 1.406250 -0.008594
v 0.000000 1.004673 0.008594
v 0.000000 1.004673 -0.008594
vt 0.000000 0.562500
vt 0.000000 0.281250
vt 0.031250 0.281250
vt 0.031250 0.562500
vt 0.406250 0.750000
vt 0.406250 0.531250
vt 0.000001 0.500000
vt 0.000000 0.781250
vt 0.531250 0.843750
vt 0.531250 0.562500
vt 0.937500 0.593750
vt 0.937500 0.812500
vt 0.000000 0.000000
vt 0.031250 0.000000
vt 0.937500 0.968750
vt 0.937500 0.750000
vt 0.531251 0.718750
vt 0.531250 1.000000
vt 0.000000 1.000000
vt 0.000000 0.718750
vt 0.406250 0.750000
vt 0.406250 0.968750
vt 0.000000 1.000000
vt 0.000000 0.718750
vt 0.031250 0.718750
vt 0.031250 1.000000
vt 0.937500 0.687500
vt 0.937500 0.468750
vt 0.531251 0.437500
vt 0.531250 0.718750
vt 0.000000 0.750000
vt 0.000000 0.468750
vt 0.406250 0.500000
vt 0.406250 0.718750
vt 0.000000 0.437500
vt 0.031250 0.437500
vt 0.937500 0.500000
vt 0.937500 0.281250
vt 0.531251 0.250000
vt 0.531250 0.531250
vt 0.000000 0.531250
vt 0.000000 0.250000
vt 0.406250 0.281250
vt 0.000000 0.156250
vt 0.031250 0.156250
vt 0.031250 0.375000
vt 0.031250 0.593750
vt 0.000000 0.593750
vt 0.000000 0.375000
vt 0.937500 0.250000
vt 0.937500 0.031250
vt 0.531251 0.000000
vt 0.531250 0.281250
vt 0.000000 0.281250
vt 0.000000 0.000000
vt 0.406250 0.031250
vt 0.406250 0.250000
vt 0.000000 0.750000
vt 0.031250 0.750000
vt 0.406250 0.843750
vt 0.406250 0.968750
vt 0.000000 1.000000
vt 0.000000 0.843750
vt 0.531250 0.843750
vt 0.531250 1.000000
vt 0.937500 0.968750
vt 0.937500 0.843750
vt 0.031250 1.000000
vt 0.000000 1.000000
vt 0.000000 0.000000
vt 0.031250 0.000000
vt 0.031250 0.406250
vt 0.000000 0.406250
vn 0.1362 0.9907 0.0000
vn 0.0000 -0.0000 1.0000
vn -0.0000 0.0000 -1.0000
vn 0.2698 0.9629 0.0000
vn 0.3984 0.9172 0.0000
vn 0.5196 0.8544 0.0000
vn 0.6311 0.7757 0.0000
vn -0.6311 -0.7757 0.0000
vn 0.0000 1.0000 0.0000
vn 0.7308 -0.6826 0.0000
vn -1.0000 0.0000 0.0000
usemtl m_mortar
s 1
f 1/1/1 2/2/1 3/3/1 4/4/1
f 5/5/2 6/6/2 2/7/2 1/8/2
f 4/9/3 3/10/3 7/11/3 8/12/3
f 2/2/4 9/13/4 10/14/4 3/3/4
f 6/15/2 11/16/2 9/17/2 2/18/2
f 3/19/3 10/20/3 12/21/3 7/22/3
f 9/23/5 13/24/5 14/25/5 10/26/5
f 11/27/2 15/28/2 13/29/2 9/30/2
f 10/31/3 14/32/3 16/33/3 12/34/3
f 13/24/6 17/35/6 18/36/6 14/25/6
f 15/37/2 19/38/2 17/39/2 13/40/2
f 14/41/3 18/42/3 20/43/3 16/33/3
f 17/35/7 21/44/7 22/45/7 18/36/7
f 20/46/8 23/47/8 24/48/8 19/49/8
f 19/50/2 24/51/2 21/52/2 17/53/2
f 18/54/3 22/55/3 23/56/3 20/57/3
f 25/58/9 1/1/9 4/4/9 26/59/9
f 27/60/2 5/61/2 1/62/2 25/63/2
f 26/64/3 4/65/3 8/66/3 28/67/3
f 24/48/10 23/47/10 22/68/10 21/69/10
f 25/70/11 26/71/11 28/72/11 27/73/11
o arch_2_right
v 0.249757 0.984643 0.040625
v 0.249757 0.984643 -0.040625
v 0.286345 1.357862 -0.040625
v 0.286345 1.357862 0.040625
v 0.130847 1.373178 0.040625
v 0.130847 1.373178 -0.040625
v 0.093921 0.999992 -0.040625
v 0.093921 0.999992 0.040625
v 0.403340 0.954094 0.040625
v 0.403340 0.954094 -0.040625
v 0.476333 1.321930 -0.040625
v 0.476333 1.321930 0.040625
v 0.323085 1.352412 0.040625
v 0.323085 1.352412 -0.040625
v 0.553188 0.908638 0.040625
v 0.553188 0.908638 -0.040625
v 0.661884 1.267548 -0.040625
v 0.661884 1.267548 0.040625
v 0.512362 1.312905 0.040625
v 0.512362 1.312905 -0.040625
v 0.697859 0.848713 0.040625
v 0.697859 0.848713 -0.040625
v 0.841211 1.195241 -0.040625
v 0.841211 1.195241 0.040625
v 0.696855 1.255035 0.040625
v 0.696855 1.255035 -0.040625
v 0.835960 0.774896 0.040625
v 0.835960 0.774896 -0.040625
v 1.012587 1.105705 -0.040625
v 1.012587 1.105705 0.040625
v 0.874787 1.179360 0.040625
v 0.874787 1.179360 -0.040625
v 0.966161 0.687899 0.040625
v 0.966161 0.687899 -0.040625
v 1.174362 0.999802 -0.040625
v 1.174362 0.999802 0.040625
v 1.044445 1.086610 0.040625
v 1.044445 1.086610 -0.040625
v 1.087081 0.588673 0.040625
v 1.087081 0.588673 -0.040625
v 1.324978 0.878552 -0.040625
v 1.324978 0.878552 0.040625
v 1.204195 0.977676 0.040625
v 1.204195 0.977676 -0.040625
v -0.000625 1.375000 0.040625
v -0.000625 1.375000 -0.040625
v -0.000625 0.999992 -0.040625
v -0.000625 0.999992 0.040625
v 0.093750 1.375000 -0.040625
v 0.093750 1.375000 0.040625
vt 0.000000 0.000000
vt 0.062500 0.000000
vt 0.062500 0.375000
vt 0.000000 0.375000
vt 0.000000 0.937500
vt 0.062500 0.937500
vt 0.062500 0.562500
vt 0.000000 0.562500
vt 0.062500 0.781250
vt 0.000000 0.781250
vt 0.000000 0.625000
vt 0.062500 0.625000
vt 0.000000 0.562500
vt 0.062500 0.562500
vt 0.062500 0.937500
vt 0.000000 0.937500
vt 0.000000 0.937500
vt 0.062500 0.937500
vt 0.062500 0.562500
vt 0.000000 0.562500
vt 0.062500 0.937500
vt 0.000000 0.937500
vt 0.000000 0.781250
vt 0.062500 0.781250
vt 0.000000 0.000000
vt 0.062500 0.000000
vt 0.062500 0.375000
vt 0.000000 0.375000
vt 0.000000 0.375000
vt 0.062500 0.375000
vt 0.062500 0.000000
vt 0.000000 0.000000
vt 0.000000 0.625000
vt 0.062500 0.625000
vt 0.000000 0.562500
vt 0.062500 0.562500
vt 0.062500 0.937500
vt 0.000000 0.937500
vt 0.000000 0.937500
vt 0.062500 0.937500
vt 0.062500 0.562500
vt 0.000000 0.562500
vt 0.000000 0.468750
vt 0.062500 0.468750
vt 0.000000 0.000000
vt 0.062500 0.000000
vt 0.062500 0.375000
vt 0.000000 0.375000
vt 0.000000 0.375000
vt 0.062500 0.375000
vt 0.062500 0.000000
vt 0.000000 0.000000
vt 0.000000 0.312500
vt 0.062500 0.312500
vt 0.000000 0.562500
vt 0.062500 0.562500
vt 0.062500 0.937500
vt 0.000000 0.937500
vt 0.000000 0.937500
vt 0.062500 0.937500
vt 0.062500 0.562500
vt 0.000000 0.562500
vt 0.000000 0.156250
vt 0.062500 0.156250
vt 0.000000 0.000000
vt 0.062500 0.000000
vt 0.062500 0.375000
vt 0.000000 0.375000
vt 0.000000 0.937500
vt 0.062500 0.937500
vt 0.000000 0.000000
vt 0.062500 0.000000
vt 0.000000 0.000000
vt 0.062500 0.000000
vt 0.062500 0.375000
vt 0.000000 0.375000
vt 0.062500 0.937500
vt 0.000000 0.937500
vt 0.062500 0.906250
vt 0.000000 0.906250
vt 0.000000 0.812500
vt 0.062500 0.812500
vt 0.625000 0.218750
vt 1.000000 0.218750
vt 1.000000 0.062500
vt 0.625000 0.062500
vt 1.000000 0.218750
vt 0.625000 0.218750
vt 0.625000 0.375000
vt 1.000000 0.375000
vt 0.000000 0.062500
vt 0.062500 0.062500
vt 0.062500 0.218750
vt 0.000000 0.218750
vt 0.093750 1.000000
vt 0.468750 1.000000
vt 0.468750 0.843750
vt 0.093750 0.843750
vt 1.000000 0.375000
vt 0.625000 0.375000
vt 0.625000 0.531250
vt 1.000000 0.531250
vt 0.000000 0.843750
vt 0.062500 0.843750
vt 0.062500 1.000000
vt 0.000000 1.000000
vt 0.093750 0.843750
vt 0.468750 0.843750
vt 0.468750 0.687500
vt 0.093750 0.687500
vt 1.000000 0.531250
vt 0.625000 0.531250
vt 0.625000 0.687500
vt 1.000000 0.687500
vt 0.000000 0.687500
vt 0.062500 0.687500
vt 0.062500 0.843750
vt 0.000000 0.843750
vt 0.093750 0.687500
vt 0.468750 0.687500
vt 0.468750 0.531250
vt 0.093750 0.531250
vt 1.000000 0.687500
vt 0.625000 0.687500
vt 0.625000 0.843750
vt 1.000000 0.843750
vt 0.000000 0.531250
vt 0.062500 0.531250
vt 0.062500 0.687500
vt 0.000000 0.687500
vt 0.093750 0.531250
vt 0.468750 0.531250
vt 0.468750 0.375000
vt 0.093750 0.375000
vt 1.000000 0.843750
vt 0.625000 0.843750
vt 0.625000 1.000000
vt 1.000000 1.000000
vt 0.062500 0.531250
vt 0.000000 0.531250
vt 0.093750 0.375000
vt 0.468750 0.375000
vt 0.468750 0.218750
vt 0.093750 0.218750
vt 0.468750 0.062500
vt 0.093750 0.062500
vt 0.093750 0.218750
vt 0.468750 0.218750
vt 0.000000 0.218750
vt 0.062500 0.218750
vt 0.062500 0.375000
vt 0.000000 0.375000
vt 0.093750 0.218750
vt 0.468750 0.218750
vt 0.468750 0.062500
vt 0.093750 0.062500
vt 0.468750 0.218750
vt 0.093750 0.218750
vt 0.093750 0.375000
vt 0.468750 0.375000
vt 0.000000 0.062500
vt 0.062500 0.062500
vt 0.062500 0.218750
vt 0.000000 0.218750
vt 1.000000 0.000000
vt 0.625000 0.000000
vt 0.625000 0.093750
vt 1.000000 0.093750
vt 0.093750 0.000000
vt 0.468750 0.000000
vt 0.468750 0.093750
vt 0.093750 0.093750
vt 0.000000 0.093750
vt 0.062500 0.093750
vn 0.9952 -0.0976 0.0000
vn -0.9951 0.0985 0.0000
vn -0.0980 -0.9952 0.0000
vn 0.9809 -0.1946 0.0000
vn -0.9807 0.1955 0.0000
vn -0.1951 -0.9808 0.0000
vn 0.9571 -0.2898 0.0000
vn -0.9568 0.2907 0.0000
vn -0.2903 -0.9569 0.0000
vn 0.9241 -0.3823 0.0000
vn -0.9237 0.3831 0.0000
vn -0.3827 -0.9239 0.0000
vn 0.8821 -0.4710 0.0000
vn -0.8817 0.4718 0.0000
vn -0.4714 -0.8819 0.0000
vn 0.8317 -0.5552 0.0000
vn -0.8312 0.5559 0.0000
vn -0.5556 -0.8315 0.0000
vn 0.7730 -0.6344 0.0000
vn -0.7727 0.6347 0.0000
vn -0.6344 -0.7730 0.0000
vn -1.0000 0.0000 0.0000
vn 1.0000 0.0005 0.0000
vn 0.0000 -1.0000 0.0000
vn -0.0000 0.0000 -1.0000
vn 0.0000 -0.0000 1.0000
vn 0.0980 0.9952 0.0000
vn 0.1951 0.9808 0.0000
vn 0.2903 0.9569 0.0000
vn 0.3827 0.9239 0.0000
vn 0.4714 0.8819 0.0000
vn 0.5556 0.8315 0.0000
vn 0.6344 0.7730 0.0000
vn 0.0000 1.0000 0.0000
usemtl m_arch
s 1
f 29/74/12 30/75/12 31/76/12 32/77/12
f 33/78/13 34/79/13 35/80/13 36/81/13
f 36/82/14 35/83/14 30/84/14 29/85/14
f 37/86/15 38/87/15 39/88/15 40/89/15
f 41/90/16 42/91/16 30/92/16 29/93/16
f 29/94/17 30/95/17 38/96/17 37/97/17
f 43/98/18 44/99/18 45/100/18 46/101/18
f 47/102/19 48/103/19 38/104/19 37/105/19
f 37/97/20 38/96/20 44/106/20 43/107/20
f 49/108/21 50/109/21 51/110/21 52/111/21
f 53/112/22 54/113/22 44/114/22 43/115/22
f 43/107/23 44/106/23 50/116/23 49/117/23
f 55/118/24 56/119/24 57/120/24 58/121/24
f 59/122/25 60/123/25 50/124/25 49/125/25
f 49/117/26 50/116/26 56/126/26 55/127/26
f 61/128/27 62/129/27 63/130/27 64/131/27
f 65/132/28 66/133/28 56/134/28 55/135/28
f 55/127/29 56/126/29 62/136/29 61/137/29
f 67/138/30 68/139/30 69/140/30 70/141/30
f 71/142/31 72/143/31 62/129/31 61/128/31
f 61/137/32 62/136/32 68/144/32 67/145/32
f 73/146/33 74/147/33 75/148/33 76/149/33
f 36/81/34 35/80/34 77/150/34 78/151/34
f 76/152/35 75/153/35 35/154/35 36/155/35
usemtl m_keystones
f 31/156/36 30/157/36 35/158/36 34/159/36
f 29/160/37 32/161/37 33/162/37 36/163/37
f 32/164/38 31/165/38 34/166/38 33/167/38
f 39/168/36 38/169/36 30/170/36 42/171/36
f 37/172/37 40/173/37 41/174/37 29/175/37
f 40/176/39 39/177/39 42/178/39 41/179/39
f 45/180/36 44/181/36 38/182/36 48/183/36
f 43/184/37 46/185/37 47/186/37 37/187/37
f 46/188/40 45/189/40 48/190/40 47/191/40
f 51/192/36 50/193/36 44/194/36 54/195/36
f 49/196/37 52/197/37 53/198/37 43/199/37
f 52/200/41 51/201/41 54/202/41 53/203/41
f 57/204/36 56/205/36 50/206/36 60/207/36
f 55/208/37 58/209/37 59/210/37 49/211/37
f 58/121/42 57/120/42 60/212/42 59/213/42
f 63/214/36 62/215/36 56/216/36 66/217/36
f 61/218/37 64/219/37 65/220/37 55/221/37
f 64/222/43 63/223/43 66/224/43 65/225/43
f 69/226/36 68/227/36 62/228/36 72/229/36
f 67/230/37 70/231/37 71/232/37 61/233/37
f 70/234/44 69/235/44 72/236/44 71/237/44
f 75/238/36 74/239/36 77/240/36 35/241/36
f 73/242/37 76/243/37 36/244/37 78/245/37
f 78/246/45 77/247/45 74/147/45 73/146/45
