mtllib brick_arch.mtl

o bricks_1
v 0.015625 0.40625 0.02187500000000009
v 0.015625 0.40625 -0.5343749999999999
v 0.015625 0.25 0.02187500000000009
v 0.015625 0.25 -0.5343749999999999
v -0.359375 0.40625 0.02187500000000009
v -0.359375 0.40625 -0.5343749999999999
v -0.359375 0.25 0.02187500000000009
v -0.359375 0.25 -0.5343749999999999
v 1.359375 0.40625 0.02187500000000009
v 1.359375 0.40625 -0.5343749999999999
v 1.359375 0.25 0.02187500000000009
v 1.359375 0.25 -0.5343749999999999
v 0.984375 0.40625 0.02187500000000009
v 0.984375 0.40625 -0.5343749999999999
v 0.984375 0.25 0.02187500000000009
v 0.984375 0.25 -0.5343749999999999
v 1.2931722410056048 0.6679877698765293 0.02187500000000009
v 1.2931722410056048 0.6679877698765293 -0.5343749999999999
v 1.3414561463766903 0.5193851892054115 0.02187500000000009
v 1.3414561463766903 0.5193851892054115 -0.5343749999999999
v 0.9365260473949222 0.5521063969859241 0.02187500000000009
v 0.9365260473949222 0.5521063969859241 -0.5343749999999999
v 0.9848099527660077 0.4035038163148063 0.02187500000000009
v 0.9848099527660077 0.4035038163148063 -0.5343749999999999
v 1.1493282567056209 0.8964574038743868 0.02187500000000009
v 1.1493282567056209 0.8964574038743868 -0.5343749999999999
v 1.24116970237632 0.7700484985033013 0.02187500000000009
v 1.24116970237632 0.7700484985033013 -0.5343749999999999
v 0.8459468838150157 0.6760379342647094 0.02187500000000009
v 0.8459468838150157 0.6760379342647094 -0.5343749999999999
v 0.9377883294857147 0.5496290288936239 0.02187500000000009
v 0.9377883294857147 0.5496290288936239 -0.5343749999999999
v 0.9419234985033014 1.06929470237632 0.02187500000000009
v 0.9419234985033014 1.06929470237632 -0.5343749999999999
v 1.0683324038743869 0.977453256705621 0.02187500000000009
v 1.0683324038743869 0.977453256705621 -0.5343749999999999
v 0.7215040288936239 0.7659133294857146 0.02187500000000009
v 0.7215040288936239 0.7659133294857146 -0.5343749999999999
v 0.8479129342647094 0.6740718838150157 0.02187500000000009
v 0.8479129342647094 0.6740718838150157 -0.5343749999999999
v 0.7239813969859241 0.7646510473949223 0.02187500000000009
v 0.6912601892054115 1.1695811463766903 0.02187500000000009
v 0.6912601892054115 1.1695811463766903 -0.5343749999999999
v 0.8398627698765293 1.121297241005605 0.02187500000000009
v 0.8398627698765293 1.121297241005605 -0.5343749999999999
v 0.5753788163148064 0.8129349527660078 0.02187500000000009
v 0.5753788163148064 0.8129349527660078 -0.5343749999999999
v 0.7239813969859241 0.7646510473949223 -0.5343749999999999
v 0.4218750000000002 1.1875 0.02187500000000009
v 0.4218750000000002 1.1875 -0.5343749999999999
v 0.5781250000000002 1.1875 0.02187500000000009
v 0.5781250000000002 1.1875 -0.5343749999999999
v 0.4218750000000001 0.8125 0.02187500000000009
v 0.4218750000000001 0.8125 -0.5343749999999999
v 0.5781250000000001 0.8125 0.02187500000000009
v 0.5781250000000001 0.8125 -0.5343749999999999
v 0.16013723012347064 1.121297241005605 0.02187500000000009
v 0.16013723012347064 1.121297241005605 -0.5343749999999999
v 0.3087398107945884 1.1695811463766903 0.02187500000000009
v 0.3087398107945884 1.1695811463766903 -0.5343749999999999
v 0.27601860301407594 0.7646510473949223 0.02187500000000009
v 0.27601860301407594 0.7646510473949223 -0.5343749999999999
v 0.4246211836851937 0.8129349527660078 0.02187500000000009
v 0.4246211836851937 0.8129349527660078 -0.5343749999999999
v -0.06833240387438666 0.977453256705621 0.02187500000000009
v -0.06833240387438666 0.977453256705621 -0.5343749999999999
v 0.05807650149669885 1.06929470237632 0.02187500000000009
v 0.05807650149669885 1.06929470237632 -0.5343749999999999
v 0.15208706573529068 0.6740718838150157 0.02187500000000009
v 0.15208706573529068 0.6740718838150157 -0.5343749999999999
v 0.2784959711063762 0.7659133294857146 0.02187500000000009
v 0.2784959711063762 0.7659133294857146 -0.5343749999999999
v -0.24116970237631974 0.7700484985033014 0.02187500000000009
v -0.24116970237631974 0.7700484985033014 -0.5343749999999999
v -0.1493282567056209 0.8964574038743869 0.02187500000000009
v -0.1493282567056209 0.8964574038743869 -0.5343749999999999
v 0.062211670514285444 0.5496290288936239 0.02187500000000009
v 0.062211670514285444 0.5496290288936239 -0.5343749999999999
v 0.1540531161849844 0.6760379342647094 0.02187500000000009
v 0.1540531161849844 0.6760379342647094 -0.5343749999999999
v -0.3414561463766904 0.5193851892054117 0.02187500000000009
v -0.3414561463766904 0.5193851892054117 -0.5343749999999999
v -0.2931722410056049 0.6679877698765294 0.02187500000000009
v -0.2931722410056049 0.6679877698765294 -0.5343749999999999
v 0.015190047233992199 0.40350381631480636 0.02187500000000009
v 0.015190047233992199 0.40350381631480636 -0.5343749999999999
v 0.06347395260507771 0.5521063969859241 0.02187500000000009
v 0.06347395260507771 0.5521063969859241 -0.5343749999999999
vt 0.46875 0
vt 0.46875 0.15625
vt 0 0.15625
vt 0 0
vt 0.46875 0.84375
vt 0.46875 1
vt 0 1
vt 0 0.84375
vt 0 0
vt 0.46875 0
vt 0.46875 0.375
vt 0 0.375
vt 0 0.375
vt 0.46875 0.375
vt 0.46875 0
vt 0 0
vt 0.625 0.0625
vt 0.625 0.21875
vt 1 0.21875
vt 1 0.0625
vt 0.625 0.84375
vt 0.625 1
vt 1 1
vt 1 0.84375
vt 0.46875 0.84375
vt 0.46875 1
vt 0 1
vt 0 0.84375
vt 0.46875 0
vt 0.46875 0.15625
vt 0 0.15625
vt 0 0
vt 0 0.375
vt 0.46875 0.375
vt 0.46875 0
vt 0 0
vt 0 0
vt 0.46875 0
vt 0.46875 0.375
vt 0 0.375
vt 0.09375 0.6875
vt 0.09375 0.84375
vt 0.46875 0.84375
vt 0.46875 0.6875
vt 0.46875 0.0625
vt 0.46875 0.21875
vt 0.09375 0.21875
vt 0.09375 0.0625
vt 0.46875 0.84375
vt 0.46875 1
vt 0 1
vt 0 0.84375
vt 0.46875 0.15625
vt 0.46875 0.3125
vt 0 0.3125
vt 0 0.15625
vt 0 0.9375
vt 0.46875 0.9375
vt 0.46875 0.5625
vt 0 0.5625
vt 0 0.9375
vt 0.46875 0.9375
vt 0.46875 0.5625
vt 0 0.5625
vt 0.09375 0.53125
vt 0.09375 0.6875
vt 0.46875 0.6875
vt 0.46875 0.53125
vt 0.46875 0.21875
vt 0.46875 0.375
vt 0.09375 0.375
vt 0.09375 0.21875
vt 0.46875 0.84375
vt 0.46875 1
vt 0 1
vt 0 0.84375
vt 0.46875 0.3125
vt 0.46875 0.46875
vt 0 0.46875
vt 0 0.3125
vt 0 0.375
vt 0.46875 0.375
vt 0.46875 0
vt 0 0
vt 0 0.375
vt 0.46875 0.375
vt 0.46875 0
vt 0 0
vt 0.09375 0.375
vt 0.09375 0.53125
vt 0.46875 0.53125
vt 0.46875 0.375
vt 0.46875 0.375
vt 0.46875 0.53125
vt 0.09375 0.53125
vt 0.09375 0.375
vt 0.46875 0.84375
vt 0.46875 1
vt 0 1
vt 0 0.84375
vt 0.46875 0.46875
vt 0.46875 0.625
vt 0 0.625
vt 0 0.46875
vt 0 0.9375
vt 0.46875 0.9375
vt 0.46875 0.5625
vt 0 0.5625
vt 0 0.9375
vt 0.46875 0.9375
vt 0.46875 0.5625
vt 0 0.5625
vt 0.09375 0.21875
vt 0.09375 0.375
vt 0.46875 0.375
vt 0.46875 0.21875
vt 0.46875 0.6875
vt 0.46875 0.53125
vt 0.09375 0.53125
vt 0.09375 0.6875
vt 0.46875 0.84375
vt 0.46875 1
vt 0 1
vt 0 0.84375
vt 0.46875 0.625
vt 0.46875 0.78125
vt 0 0.78125
vt 0 0.625
vt 0 0.375
vt 0.46875 0.375
vt 0.46875 0
vt 0 0
vt 0 0.375
vt 0.46875 0.375
vt 0.46875 0
vt 0 0
vt 0.09375 0.0625
vt 0.09375 0.21875
vt 0.46875 0.21875
vt 0.46875 0.0625
vt 0.46875 0.84375
vt 0.46875 0.6875
vt 0.09375 0.6875
vt 0.09375 0.84375
vt 0.46875 0.84375
vt 0.46875 1
vt 0 1
vt 0 0.84375
vt 0.46875 0.78125
vt 0.46875 0.9375
vt 0 0.9375
vt 0 0.78125
vt 0 0.9375
vt 0.46875 0.9375
vt 0.46875 0.5625
vt 0 0.5625
vt 0 0.9375
vt 0.46875 0.9375
vt 0.46875 0.5625
vt 0 0.5625
vt 0.625 0.84375
vt 0.625 1
vt 1 1
vt 1 0.84375
vt 0.46875 1
vt 0.46875 0.84375
vt 0.09375 0.84375
vt 0.09375 1
vt 0.46875 0.84375
vt 0.46875 1
vt 0 1
vt 0 0.84375
vt 0.46875 0
vt 0.46875 0.15625
vt 0 0.15625
vt 0 0
vt 0 0.375
vt 0.46875 0.375
vt 0.46875 0
vt 0 0
vt 0 0.375
vt 0.46875 0.375
vt 0.46875 0
vt 0 0
vt 0.625 0.6875
vt 0.625 0.84375
vt 1 0.84375
vt 1 0.6875
vt 1 0.21875
vt 1 0.0625
vt 0.625 0.0625
vt 0.625 0.21875
vt 0.46875 0.84375
vt 0.46875 1
vt 0 1
vt 0 0.84375
vt 0.46875 0.15625
vt 0.46875 0.3125
vt 0 0.3125
vt 0 0.15625
vt 0 0.9375
vt 0.46875 0.9375
vt 0.46875 0.5625
vt 0 0.5625
vt 0 0.9375
vt 0.46875 0.9375
vt 0.46875 0.5625
vt 0 0.5625
vt 0.625 0.53125
vt 0.625 0.6875
vt 1 0.6875
vt 1 0.53125
vt 1 0.375
vt 1 0.21875
vt 0.625 0.21875
vt 0.625 0.375
vt 0.46875 0.84375
vt 0.46875 1
vt 0 1
vt 0 0.84375
vt 0.46875 0.3125
vt 0.46875 0.46875
vt 0 0.46875
vt 0 0.3125
vt 0 0.375
vt 0.46875 0.375
vt 0.46875 0
vt 0 0
vt 0 0.375
vt 0.46875 0.375
vt 0.46875 0
vt 0 0
vt 0.625 0.53125
vt 0.625 0.375
vt 1 0.375
vt 1 0.53125
vt 1 0.53125
vt 1 0.375
vt 0.625 0.375
vt 0.625 0.53125
vt 0.46875 0.84375
vt 0.46875 1
vt 0 1
vt 0 0.84375
vt 0.46875 0.5625
vt 0.46875 0.40625
vt 0 0.40625
vt 0 0.5625
vt 0 0.5625
vt 0.46875 0.5625
vt 0.46875 0.9375
vt 0 0.9375
vt 0 0.9375
vt 0.46875 0.9375
vt 0.46875 0.5625
vt 0 0.5625
vt 0.625 0.375
vt 0.625 0.21875
vt 1 0.21875
vt 1 0.375
vt 1 0.6875
vt 1 0.53125
vt 0.625 0.53125
vt 0.625 0.6875
vn 1 0 0
vn -1 0 0
vn 0 1 0
vn 0 -1 0
vn 0 0 1
vn 0 0 -1
vn 1 0 0
vn -1 0 0
vn 0 1 0
vn 0 -1 0
vn 0 0 1
vn 0 0 -1
vn 0.9510565162951536 0.3090169943749473 0
vn -0.9510565162951536 -0.3090169943749472 0
vn -0.3090169943749472 0.9510565162951536 0
vn 0.3090169943749473 -0.9510565162951536 0
vn 0 0 1
vn 0 0 -1
vn 0.8090169943749469 0.5877852522924738 0
vn -0.8090169943749473 -0.5877852522924734 0
vn -0.5877852522924732 0.8090169943749476 0
vn 0.5877852522924731 -0.8090169943749475 0
vn 0 0 1
vn 0 0 -1
vn 0.5877852522924734 0.8090169943749473 0
vn -0.5877852522924729 -0.8090169943749476 0
vn -0.8090169943749475 0.5877852522924731 0
vn 0.8090169943749473 -0.5877852522924732 0
vn 0 0 1
vn 0 0 -1
vn 0.309016994374946 0.9510565162951541 0
vn -0.3090169943749473 -0.9510565162951536 0
vn -0.9510565162951536 0.30901699437494723 0
vn 0.9510565162951539 -0.3090169943749471 0
vn 0 0 1
vn 0 0 -1
vn 0 1 0
vn 0 -1 0
vn -1 2.9605947323337506e-16 0
vn 1 -2.9605947323337506e-16 0
vn 0 0 1
vn 0 0 -1
vn -0.309016994374946 0.9510565162951541 0
vn 0.3090169943749473 -0.9510565162951536 0
vn -0.9510565162951538 -0.3090169943749474 0
vn 0.9510565162951535 0.30901699437494756 0
vn 0 0 1
vn 0 0 -1
vn -0.5877852522924734 0.8090169943749473 0
vn 0.5877852522924729 -0.8090169943749476 0
vn -0.8090169943749477 -0.587785252292473 0
vn 0.8090169943749477 0.5877852522924729 0
vn 0 0 1
vn 0 0 -1
vn -0.8090169943749476 0.5877852522924729 0
vn 0.8090169943749473 -0.5877852522924734 0
vn -0.5877852522924735 -0.8090169943749472 0
vn 0.5877852522924732 0.8090169943749473 0
vn 0 0 1
vn 0 0 -1
vn -0.9510565162951536 0.3090169943749473 0
vn 0.9510565162951536 -0.3090169943749473 0
vn -0.3090169943749475 -0.9510565162951538 0
vn 0.3090169943749475 0.9510565162951538 0
vn 0 0 1
vn 0 0 -1
usemtl m_arch
f 4/1/1 2/2/1 1/3/1 3/4/1
f 7/5/2 5/6/2 6/7/2 8/8/2
f 1/9/3 2/10/3 6/11/3 5/12/3
f 4/13/4 3/14/4 7/15/4 8/16/4
usemtl m_keystones
f 3/17/5 1/18/5 5/19/5 7/20/5
f 8/21/6 6/22/6 2/23/6 4/24/6
f 12/25/7 10/26/7 9/27/7 11/28/7
usemtl m_arch
f 15/29/8 13/30/8 14/31/8 16/32/8
f 9/33/9 10/34/9 14/35/9 13/36/9
f 12/37/10 11/38/10 15/39/10 16/40/10
usemtl m_keystones
f 11/41/11 9/42/11 13/43/11 15/44/11
f 16/45/12 14/46/12 10/47/12 12/48/12
f 20/49/13 18/50/13 17/51/13 19/52/13
usemtl m_arch
f 23/53/14 21/54/14 22/55/14 24/56/14
f 17/57/15 18/58/15 22/59/15 21/60/15
f 20/61/16 19/62/16 23/63/16 24/64/16
usemtl m_keystones
f 19/65/17 17/66/17 21/67/17 23/68/17
f 24/69/18 22/70/18 18/71/18 20/72/18
f 28/73/19 26/74/19 25/75/19 27/76/19
usemtl m_arch
f 31/77/20 29/78/20 30/79/20 32/80/20
f 25/81/21 26/82/21 30/83/21 29/84/21
f 28/85/22 27/86/22 31/87/22 32/88/22
usemtl m_keystones
f 27/89/23 25/90/23 29/91/23 31/92/23
f 32/93/24 30/94/24 26/95/24 28/96/24
f 36/97/25 34/98/25 33/99/25 35/100/25
usemtl m_arch
f 39/101/26 37/102/26 38/103/26 40/104/26
f 33/105/27 34/106/27 38/107/27 37/108/27
f 36/109/28 35/110/28 39/111/28 40/112/28
usemtl m_keystones
f 35/113/29 33/114/29 37/115/29 39/116/29
f 40/117/30 38/118/30 34/119/30 36/120/30
f 45/121/31 43/122/31 42/123/31 44/124/31
usemtl m_arch
f 41/125/32 46/126/32 47/127/32 48/128/32
f 42/129/33 43/130/33 47/131/33 46/132/33
f 45/133/34 44/134/34 41/135/34 48/136/34
usemtl m_keystones
f 44/137/35 42/138/35 46/139/35 41/140/35
f 48/141/36 47/142/36 43/143/36 45/144/36
f 52/145/37 50/146/37 49/147/37 51/148/37
usemtl m_arch
f 55/149/38 53/150/38 54/151/38 56/152/38
f 49/153/39 50/154/39 54/155/39 53/156/39
f 52/157/40 51/158/40 55/159/40 56/160/40
usemtl m_keystones
f 51/161/41 49/162/41 53/163/41 55/164/41
f 56/165/42 54/166/42 50/167/42 52/168/42
usemtl m_arch
f 60/169/43 58/170/43 57/171/43 59/172/43
f 63/173/44 61/174/44 62/175/44 64/176/44
f 57/177/45 58/178/45 62/179/45 61/180/45
f 60/181/46 59/182/46 63/183/46 64/184/46
usemtl m_keystones
f 59/185/47 57/186/47 61/187/47 63/188/47
f 64/189/48 62/190/48 58/191/48 60/192/48
usemtl m_arch
f 68/193/49 66/194/49 65/195/49 67/196/49
f 71/197/50 69/198/50 70/199/50 72/200/50
f 65/201/51 66/202/51 70/203/51 69/204/51
f 68/205/52 67/206/52 71/207/52 72/208/52
usemtl m_keystones
f 67/209/53 65/210/53 69/211/53 71/212/53
f 72/213/54 70/214/54 66/215/54 68/216/54
usemtl m_arch
f 76/217/55 74/218/55 73/219/55 75/220/55
f 79/221/56 77/222/56 78/223/56 80/224/56
f 73/225/57 74/226/57 78/227/57 77/228/57
f 76/229/58 75/230/58 79/231/58 80/232/58
usemtl m_keystones
f 75/233/59 73/234/59 77/235/59 79/236/59
f 80/237/60 78/238/60 74/239/60 76/240/60
usemtl m_arch
f 84/241/61 82/242/61 81/243/61 83/244/61
f 87/245/62 85/246/62 86/247/62 88/248/62
f 81/249/63 82/250/63 86/251/63 85/252/63
f 84/253/64 83/254/64 87/255/64 88/256/64
usemtl m_keystones
f 83/257/65 81/258/65 85/259/65 87/260/65
f 88/261/66 86/262/66 82/263/66 84/264/66
o mortar_1
v 0.6410611421640402 1.2109375 0.003124999999998601
v 0.6410611421640402 1.2109375 -0.5156249999999953
v 0.5784758081630714 0.8157892526549402 0.0031249999999993783
v 0.5784758081630714 0.8157892526549402 -0.5156249999999977
v 0.9093753790663348 1.1237569196507424 0.003124999999998601
v 0.9093753790663348 1.1237569196507424 -0.5156249999999953
v 0.7277456656131063 0.7672885359155456 0.0031249999999993783
v 0.7277456656131063 0.7672885359155456 -0.5156249999999969
v 1.1376171015796328 0.9579296015796328 0.0031250000000001554
v 1.1376171015796328 0.9579296015796328 -0.5156249999999969
v 0.8547221905155722 0.6750346905155723 0.003124999999997824
v 0.8547221905155722 0.6750346905155723 -0.5156249999999969
v 1.3034444196507422 0.729687879066335 0.0031249999999993783
v 1.3034444196507422 0.729687879066335 -0.5156249999999969
v 0.9469760359155455 0.5480581656131063 0.003124999999997491
v 0.9469760359155455 0.5480581656131064 -0.5156249999999984
v 1.390625 0.4613736421640402 0.0031249999999964917
v 1.390625 0.4613736421640402 -0.5156249999999989
v 0.99547675265494 0.3987883081630715 0.0031249999999967137
v 0.99547675265494 0.3987883081630715 -0.5156249999999992
v 1.390625 0.21875 0.0031249999999957145
v 1.390625 0.21875 -0.515625
v 0.99547675265494 0.21875 0.0031249999999957145
v 0.99547675265494 0.21875 -0.515625
v -0.3906249999999999 0.21875 0.0031249999999957145
v -0.3906249999999999 0.21875 -0.515625
v 0.004523247345059989 0.21875 0.0031249999999957145
v 0.004523247345059989 0.21875 -0.515625
v -0.390625 0.46137364216404 0.003124999999997047
v -0.390625 0.46137364216404 -0.5156249999999984
v 0.004523247345059933 0.3987883081630713 0.0031249999999967137
v 0.004523247345059933 0.3987883081630713 -0.5156249999999989
v -0.3034444196507423 0.7296878790663348 0.0031249999999993783
v -0.3034444196507423 0.7296878790663348 -0.5156249999999969
v 0.05302396408445448 0.5480581656131063 0.003124999999997491
v 0.05302396408445448 0.5480581656131063 -0.5156249999999973
v -0.13761710157963292 0.9579296015796326 0.0031250000000001554
v -0.13761710157963292 0.9579296015796326 -0.5156249999999969
v 0.1452778094844277 0.6750346905155722 0.0031249999999993783
v 0.1452778094844277 0.6750346905155722 -0.5156249999999973
v 0.09062462093366491 1.1237569196507422 0.003124999999998601
v 0.09062462093366491 1.1237569196507422 -0.5156249999999969
v 0.2722543343868936 0.7672885359155455 0.003124999999998601
v 0.2722543343868936 0.7672885359155455 -0.5156249999999977
v 0.35893885783595963 1.2109375 0.003124999999998601
v 0.35893885783595963 1.2109375 -0.5156249999999953
v 0.42152419183692846 0.8157892526549401 0.0031250000000001554
v 0.42152419183692846 0.8157892526549401 -0.5156249999999969
vt 0.5625 0.5625
vt 0.84375 0.5625
vt 0.84375 1
vt 0.5625 1
vt 0.90625 0.53125
vt 0.90625 0.6875
vt 0.5000018338582842 0.75
vt 0.5 0.46875
vt 0.5 0.28125
vt 0.5 0
vt 0.90625 0.0625
vt 0.90625 0.21875
vt 0.71875 0.5625
vt 1 0.5625
vt 1 1
vt 0.71875 1
vt 0.90625 0.78125
vt 0.90625 0.9375
vt 0.5000018338582841 1
vt 0.5 0.71875
vt 0 1
vt 5.551115123125783e-17 0.71875
vt 0.40625 0.78125
vt 0.40625 0.9375
vt 0 0.5625
vt 0.28125 0.5625
vt 0.28125 1
vt 0 1
vt 0.40625 0.0625
vt 0.40625 0.21875
vt 0.0000018338582841170847 0.28125
vt 0 0
vt 0 0.75
vt 5.551115123125783e-17 0.46875
vt 0.40625 0.53125
vt 0.40625 0.6875
vt 0.28125 0.5625
vt 0.5625 0.5625
vt 0.5625 1
vt 0.28125 1
vt 0.40625000000000006 0.28125
vt 0.40625000000000006 0.4375
vt 0.000001833858284228107 0.5
vt 0 0.21875
vt 0 0.5
vt 5.551115123125783e-17 0.21875
vt 0.40625 0.28125
vt 0.40625 0.4375
vt 0.625 0.5625
vt 0.875 0.5625
vt 0.875 1
vt 0.625 1
vt 0.1875 1
vt 0 1
vt 0 0.5625
vt 0.1875 0.5625
vt 0.90625 0.1875
vt 0.90625 0
vt 0.5 0
vt 0.5 0.25
vt 0 0.25
vt 0 0
vt 0.40625 0
vt 0.40625 0.1875
vt 0 0.5625
vt 0.25 0.5625
vt 0.25 1
vt 0 1
vt 0.8125 1
vt 0.625 1
vt 0.625 0.5625
vt 0.8125 0.5625
vt 0.40625000000000006 0
vt 0.40625000000000006 0.1875
vt 0 0.25
vt 0 0
vt 0.5 0
vt 0.5 0.25
vt 0.90625 0.1875
vt 0.90625 0
vt 0.25 0.5625
vt 0.53125 0.5625
vt 0.53125 1
vt 0.25 1
vt 0.40625000000000006 0.28125
vt 0.40625000000000006 0.4375
vt 0.000001833858284228107 0.5
vt 0 0.21875
vt 0 0.53125
vt 5.551115123125783e-17 0.25
vt 0.40625 0.3125
vt 0.40625 0.46875
vt 0.53125 0.5625
vt 0.8125 0.5625
vt 0.8125 1
vt 0.53125 1
vt 0.40625000000000006 0.53125
vt 0.40625000000000006 0.6875
vt 0.000001833858284228107 0.75
vt 0 0.46875
vt 0 0.28125
vt 5.551115123125783e-17 0
vt 0.40625 0.0625
vt 0.40625 0.21875
vt 0.71875 0.5625
vt 1 0.5625
vt 1 1
vt 0.71875 1
vt 0.40625000000000006 0.78125
vt 0.40625000000000006 0.9375
vt 0.000001833858284228107 1
vt 0 0.71875
vt 0.5 1
vt 0.5 0.71875
vt 0.90625 0.78125
vt 0.90625 0.9375
vt 0 0.5625
vt 0.28125 0.5625
vt 0.28125 1
vt 0 1
vt 0.90625 0.0625
vt 0.90625 0.21875
vt 0.5000018338582842 0.28125
vt 0.5 0
vt 0.5 0.75
vt 0.5 0.46875
vt 0.90625 0.53125
vt 0.90625 0.6875
vt 0.28125 0.5625
vt 0.5625 0.5625
vt 0.5625 1
vt 0.28125 1
vt 0.90625 0.3125
vt 0.90625 0.46875
vt 0.5000018338582842 0.53125
vt 0.5 0.25
vt 0.5 0.53125
vt 0.5 0.25
vt 0.90625 0.3125
vt 0.90625 0.46875
vt 0 0.5625
vt 0.40625 0.5625
vt 0.40625 1
vt 0 1
vt 0.59375 0.5625
vt 1 0.5625
vt 1 1
vt 0.59375 1
vn 0.3090169943749473 0.9510565162951538 0
vn 6.077578456248541e-16 1.8704863160687105e-15 1
vn 1.204662872577834e-15 3.7075710907790524e-15 -1
vn 0.5877852522924732 0.8090169943749475 0
vn 3.6217858248203795e-15 -1.1863250271612343e-14 1
vn -3.909047116167582e-15 3.909047116167583e-15 -1
vn 0.8090169943749476 0.587785252292473 0
vn -2.8887525870552652e-15 -4.721860536134993e-15 1
vn 3.125435297237154e-15 2.270761661971868e-15 -1
vn 0.9510565162951535 0.3090169943749478 0
vn 1.3186755000157654e-15 -4.7779198193372355e-15 1
vn -1.399201921289532e-16 7.092193153429115e-15 -1
vn 1 0 0
vn -1 0 0
vn 0 -5.549933968817374e-15 1
vn 0 4.747502666165643e-15 -1
vn -1 -4.575906184256046e-16 0
vn 1 3.083296649342989e-16 0
vn -3.613217021747976e-17 -5.549933968817381e-15 1
vn 2.22210205593064e-17 6.349069830655264e-15 -1
vn -0.9510565162951536 0.3090169943749473 0
vn 2.266625046140675e-15 -5.942854583698054e-15 1
vn 1.5853106498020097e-15 5.174337271121218e-15 -1
vn -0.8090169943749476 0.587785252292473 0
vn -7.0179828090726214e-15 -9.76513762466995e-15 1
vn -7.67152300230938e-16 5.573687715749131e-16 -1
vn -0.5877852522924735 0.8090169943749472 0
vn 4.466871244323413e-15 2.275984578597626e-15 1
vn -1.1353808309859349e-15 1.5627176486185767e-15 -1
vn -0.3090169943749479 0.9510565162951534 0
vn -1.1118645527424095e-14 2.172470955573722e-15 1
vn 4.255502921613849e-15 4.5723763941712805e-15 -1
vn 0 1 0
vn 4.951564918087186e-15 1.1824948640190027e-15 1
vn 0 5.829996188963233e-15 -1
vn 0 -1 0
vn 0 -1 0
usemtl m_mortar
f 89/265/67 93/266/67 94/267/67 90/268/67
f 91/269/68 95/270/68 93/271/68 89/272/68
f 90/273/69 94/274/69 96/275/69 92/276/69
f 93/277/70 97/278/70 98/279/70 94/280/70
f 95/281/71 99/282/71 97/283/71 93/284/71
f 94/285/72 98/286/72 100/287/72 96/288/72
f 97/289/73 101/290/73 102/291/73 98/292/73
f 99/293/74 103/294/74 101/295/74 97/296/74
f 98/297/75 102/298/75 104/299/75 100/300/75
f 101/301/76 105/302/76 106/303/76 102/304/76
f 103/305/77 107/306/77 105/307/77 101/308/77
f 102/309/78 106/310/78 108/311/78 104/312/78
f 105/313/79 109/314/79 110/315/79 106/316/79
f 108/317/80 112/318/80 111/319/80 107/320/80
f 107/321/81 111/322/81 109/323/81 105/324/81
f 106/325/82 110/326/82 112/327/82 108/328/82
f 113/329/83 117/330/83 118/331/83 114/332/83
f 116/333/84 120/334/84 119/335/84 115/336/84
f 115/337/85 119/338/85 117/339/85 113/340/85
f 114/341/86 118/342/86 120/343/86 116/344/86
f 117/345/87 121/346/87 122/347/87 118/348/87
f 119/349/88 123/350/88 121/351/88 117/352/88
f 118/353/89 122/354/89 124/355/89 120/356/89
f 121/357/90 125/358/90 126/359/90 122/360/90
f 123/361/91 127/362/91 125/363/91 121/364/91
f 122/365/92 126/366/92 128/367/92 124/368/92
f 125/369/93 129/370/93 130/371/93 126/372/93
f 127/373/94 131/374/94 129/375/94 125/376/94
f 126/377/95 130/378/95 132/379/95 128/380/95
f 129/381/96 133/382/96 134/383/96 130/384/96
f 131/385/97 135/386/97 133/387/97 129/388/97
f 130/389/98 134/390/98 136/391/98 132/392/98
f 133/393/99 89/394/99 90/395/99 134/396/99
f 135/397/100 91/398/100 89/399/100 133/400/100
f 134/401/101 90/402/101 92/403/101 136/404/101
f 112/405/102 110/406/102 109/407/102 111/408/102
f 115/409/103 113/410/103 114/411/103 116/412/103