mtllib brick_arch.mtl

o mortar
v -0.0126375 1.7559235 -0.5115625
v -0.0126375 1.7559235 0.008437499999999987
v -0.169656 1.8219915 0.008437499999999987
v -0.169656 1.8219915 -0.5115625
v 0.229074 2.240721 -0.5115625
v 0.015713000000000046 2.331287 -0.5115625
v 0.229074 2.24072 0.008437499999999987
v 0.015713000000000046 2.331287 0.008437499999999987
v 0.619676 1.991879 -0.5115625
v 0.2896005 1.5617165 -0.5115625
v 0.138479 1.6675335 -0.5115625
v 0.429807 2.124827 -0.5115625
v 0.2896005 1.5617165 0.008437499999999987
v 0.619676 1.991879 0.008437499999999987
v 0.429807 2.124827 0.008437499999999987
v 0.138479 1.6675335 0.008437499999999987
v 0.430925 1.4431315 -0.5115625
v 0.430925 1.4431315 0.008437499999999987
v 0.797235 1.842889 -0.5115625
v 0.797235 1.842889 0.008437499999999987
v 0.5613755 1.3126805 0.008437499999999987
v 0.961134 1.678991 0.008437499999999987
v 0.961134 1.678991 -0.5115625
v 0.5613755 1.312681 -0.5115625
v 1.110124 1.501432 0.008437499999999987
v 1.110124 1.501432 -0.5115625
v 0.679961 1.1713565 -0.5115625
v 0.679961 1.1713565 0.008437499999999987
v 1.243071 1.311563 -0.5115625
v 0.7857775 1.020235 -0.5115625
v 0.7857775 1.020235 0.008437499999999987
v 1.243071 1.311563 0.008437499999999987
v 1.358965 1.11083 -0.5115625
v 0.8689605 0.8823369999999999 -0.5115625
v 1.358965 1.110829 0.008437499999999987
v 0.8689605 0.8823369999999999 0.008437499999999987
v 0.9211275 0.7299755 -0.5115625
v 1.438241 0.893021 -0.5115625
v 1.438241 0.893021 0.008437499999999987
v 0.9211275 0.7299755 0.008437499999999987
v 0.9688760000000001 0.551776 0.008437499999999987
v 1.498231 0.669132 0.008437499999999987
v 1.498231 0.669132 -0.5115625
v 0.9688760000000001 0.5517765 -0.5115625
v 1.538481 0.440866 -0.5115625
v 1.0009109999999999 0.3700935 -0.5115625
v 1.538481 0.440866 0.008437499999999987
v 1.0009109999999999 0.3700935 0.008437499999999987
v 1.015958 0.001123 -0.5115625
v 1.558682 0.001123 -0.5115625
v 1.558682 0.001123 0.008437499999999987
v 1.015958 0.001123 0.008437499999999987
v 1.558682 0.209961 -0.5115625
v 1.558682 0.209961 0.008437499999999987
v 1.0169905 0.18631 0.008437499999999987
v 1.0169905 0.18631 -0.5115625
vt 0 0.375
vt 0.5 0.40625
vt 0.5 0.5625
vt 0.000002818285250470731 0.59375
vt 0 0
vt 0.4375 0
vt 0.4375 0.21875
vt 0 0.21875
vt 0.5 0.40625
vt 1 0.375
vt 1 0.59375
vt 0.5 0.5625
vt 0 0
vt 0.5 0.03125
vt 0.5 0.1875
vt 0.000002818285250470731 0.21875
vt 0.5 0.03125
vt 1 0
vt 1 0.21875
vt 0.5 0.1875
vt 0 0.5625
vt 0.4375 0.5625
vt 0.4375 0.78125
vt 0 0.78125
vt 0.5 0.21875
vt 1 0.1875
vt 1 0.40625
vt 0.5 0.375
vt 0 0.1875
vt 0.5 0.21875
vt 0.5 0.375
vt 0.000002818285250470731 0.40625
vt 0 0.78125
vt 0.4375 0.78125
vt 0.4375 1
vt 0 1
vt 1 0.75
vt 0.5 0.78125
vt 0.5 0.9375
vt 0.9999971817147495 0.96875
vt 0 0.34375
vt 0.4375 0.34375
vt 0.4375 0.5625
vt 0 0.5625
vt 0.5 0.78125
vt 0 0.75
vt 0 0.96875
vt 0.5 0.9375
vt 0.5 0.59375
vt 0 0.5625
vt 0 0.78125
vt 0.5 0.75
vt 1 0.5625
vt 0.5 0.59375
vt 0.5 0.75
vt 0.9999971817147495 0.78125
vt 0 0.125
vt 0.4375 0.125
vt 0.4375 0.34375
vt 0 0.34375
vt 0 0.65625
vt 0.4375 0.65625
vt 0.4375 0.875
vt 0 0.875
vt 0.5 0.40625
vt 0 0.375
vt 0 0.59375
vt 0.5 0.5625
vt 1 0.375
vt 0.5 0.40625
vt 0.5 0.5625
vt 0.9999971817147495 0.59375
vt 1 0.1875
vt 0.5 0.21875
vt 0.5 0.375
vt 0.9999971817147495 0.40625
vt 0.5 0.21875
vt 0 0.1875
vt 0 0.40625
vt 0.5 0.375
vt 0 0.4375
vt 0.4375 0.4375
vt 0.4375 0.65625
vt 0 0.65625
vt 1 0
vt 0.5 0.03125
vt 0.5 0.1875
vt 0.9999971817147495 0.21875
vt 0 0.21875
vt 0.4375 0.21875
vt 0.4375 0.4375
vt 0 0.4375
vt 0.5 0.03125
vt 0 0
vt 0 0.21875
vt 0.5 0.1875
vt 0 0
vt 0.4375 0
vt 0.4375 0.21875
vt 0 0.21875
vt 0.5 0.78125
vt 1 0.75
vt 1 0.96875
vt 0.5 0.9375
vt 0 0.75
vt 0.5 0.78125
vt 0.5 0.9375
vt 0.000002818285250470731 0.96875
vt 0.5 0.59375
vt 1 0.5625
vt 1 0.78125
vt 0.5 0.75
vt 0 0.5625
vt 0.5 0.59375
vt 0.5 0.75
vt 0.000002818285250470731 0.78125
vt 0 0.78125
vt 0.4375 0.78125
vt 0.4375 1
vt 0 1
vt 0 0.375
vt 0.5 0.40625
vt 0.5 0.5625
vt 0.000002818285250470731 0.59375
vt 0 0.5625
vt 0.4375 0.5625
vt 0.4375 0.78125
vt 0 0.78125
vt 0.5 0.40625
vt 1 0.375
vt 1 0.59375
vt 0.5 0.5625
vt 0 0.5
vt 0 0
vt 0.4375 0
vt 0.4375 0.5
vt 0 0.125
vt 0.4375 0.125
vt 0.4375 0.34375
vt 0 0.34375
vt 0 0.8125
vt 0.4375 0.8125
vt 0.4375 1
vt 0 1
vt 0.5 0
vt 1 0
vt 1 0.21875
vt 0.5 0.1875
vt 0 0
vt 0.5 0
vt 0.5 0.203125
vt 0 0.21875
vt 0 0.34375
vt 0.4375 0.34375
vt 0.4375 0.5625
vt 0 0.5625
vt 0 0.1875
vt 0.5 0.21875
vt 0.5 0.375
vt 0.000002818285250470731 0.40625
vt 0.5 0.21875
vt 1 0.1875
vt 1 0.40625
vt 0.5 0.375
vt 0 0.0625
vt 0.4375 0.0625
vt 0.4375 0.21875
vt 0 0.21875
vt 0 0.5
vt 0.5 0.5
vt 0.5 1
vt 0 1
vn 0 0 -1
vn 0.39072977129039643 0.9205054295463014 0.000001770202749374938
vn 0 0 1
vn 0 0 -1
vn 0 0 1
vn 0.5735772901478515 0.8191514464533695 0
vn 0 0 1
vn 0 0 -1
vn 0.5000024216669324 0.8660240056298688 0
vn 0 0 -1
vn 0.6427883909497868 0.7660437875605963 0
vn 0 0 1
vn 0 0 1
vn 0 0 -1
vn 0.7071046240348356 0.7071089383316786 0
vn 0.7660437875605958 0.6427883909497876 0
vn 0 0 1
vn 0 0 -1
vn 0 0 -1
vn 0 0 1
vn 0.819153473511804 0.5735743952039233 0
vn 0 0 -1
vn 0.8660240056294695 0.5000024216666998 9.615431185107045e-7
vn 0 0 1
vn 0.9396926107404748 0.3420201709252694 0
vn 0 0 1
vn 0 0 -1
vn 0 0 1
vn 0 0 -1
vn 0.9659267719194169 0.2588155159362265 0
vn 0 0 -1
vn 0.9848073506039081 0.17365045982234414 0
vn 0 0 1
vn 0 -1 0
vn 1 0 0
vn -0.9999844575668737 0.005575358704648755 0
vn 0 0 1
vn 0 0 -1
vn 0.9961949115469744 0.08715330290881682 0
vn 0 0 -1
vn 0 0 1
vn -0.38783234635173197 -0.9217299339412335 0
vn -0.9396922664368423 0.3420211168901572 0
usemtl m_mortar
f 5/1/1 1/2/1 4/3/1 6/4/1
f 7/5/2 5/6/2 6/7/2 8/8/2
f 2/9/3 7/10/3 8/11/3 3/12/3
f 9/13/4 10/14/4 11/15/4 12/16/4
f 13/17/5 14/18/5 15/19/5 16/20/5
f 14/21/6 9/22/6 12/23/6 15/24/6
f 16/25/7 15/26/7 7/27/7 2/28/7
f 12/29/8 11/30/8 1/31/8 5/32/8
f 15/33/9 12/34/9 5/35/9 7/36/9
f 19/37/10 17/38/10 10/39/10 9/40/10
f 20/41/11 19/42/11 9/43/11 14/44/11
f 18/45/12 20/46/12 14/47/12 13/48/12
f 21/49/13 22/50/13 20/51/13 18/52/13
f 23/53/14 24/54/14 17/55/14 19/56/14
f 22/57/15 23/58/15 19/59/15 20/60/15
f 25/61/16 26/62/16 23/63/16 22/64/16
f 28/65/17 25/66/17 22/67/17 21/68/17
f 26/69/18 27/70/18 24/71/18 23/72/18
f 29/73/19 30/74/19 27/75/19 26/76/19
f 31/77/20 32/78/20 25/79/20 28/80/20
f 32/81/21 29/82/21 26/83/21 25/84/21
f 33/85/22 34/86/22 30/87/22 29/88/22
f 35/89/23 33/90/23 29/91/23 32/92/23
f 36/93/24 35/94/24 32/95/24 31/96/24
f 39/97/25 38/98/25 33/99/25 35/100/25
f 40/101/26 39/102/26 35/103/26 36/104/26
f 38/105/27 37/106/27 34/107/27 33/108/27
f 41/109/28 42/110/28 39/111/28 40/112/28
f 43/113/29 44/114/29 37/115/29 38/116/29
f 42/117/30 43/118/30 38/119/30 39/120/30
f 45/121/31 46/122/31 44/123/31 43/124/31
f 47/125/32 45/126/32 43/127/32 42/128/32
f 48/129/33 47/130/33 42/131/33 41/132/33
f 49/133/34 50/134/34 51/135/34 52/136/34
f 51/137/35 50/138/35 53/139/35 54/140/35
f 49/141/36 52/142/36 55/143/36 56/144/36
f 52/145/37 51/146/37 54/147/37 55/148/37
f 50/149/38 49/150/38 56/151/38 53/152/38
f 54/153/39 53/154/39 45/155/39 47/156/39
f 53/157/40 56/158/40 46/159/40 45/160/40
f 55/161/41 54/162/41 47/163/41 48/164/41
f 1/165/42 2/166/42 3/167/42 4/168/42
f 4/169/43 3/170/43 8/171/43 6/172/43
o bricks
v 0.9913 0.036767 0.032295012004631696
v 1.515958 0.036767 0.032295012004631696
v 1.515958 0.193017 0.032295012004631696
v 0.9913 0.193017 0.032295012004631696
v 0.9913 0.036768 -0.537174
v 1.515958 0.036768 -0.537174
v 1.515958 0.193018 -0.537174
v 0.9913 0.193018 -0.537174
v 1.517074 0.239017 0.032295012004631696
v 1.517074 0.239017 -0.537174
v 1.503456 0.394672 -0.537174
v 1.503456 0.394672 0.032295012004631696
v 0.977682 0.348673 -0.537174
v 0.977682 0.348673 0.032295012004631696
v 0.950549 0.502549 0.032295012004631696
v 1.473392 0.59474 0.032295012004631696
v 1.473392 0.59474 -0.537174
v 0.950549 0.502549 -0.537174
v 1.500524 0.440864 0.032295012004631696
v 1.500524 0.440864 -0.537174
v 1.463367 0.639958 0.032295012004631696
v 1.422926 0.790884 0.032295012004631696
v 0.910109 0.653475 0.032295012004631696
v 1.463367 0.639958 -0.537174
v 0.910109 0.653475 -0.537174
v 1.422926 0.790884 -0.537174
v 0.856668 0.800302 0.032295012004631696
v 1.358495 0.982952 0.032295012004631696
v 1.358495 0.982952 -0.537174
v 0.856668 0.800302 -0.537174
v 1.411936 0.836125 0.032295012004631696
v 1.411936 0.836125 -0.537174
v 1.340666 1.025994 -0.537174
v 1.340666 1.025994 0.032295012004631696
v 0.790634 0.941913 0.032295012004631696
v 1.274632 1.167605 0.03229554475290353
v 1.274632 1.167605 -0.537174
v 0.790634 0.941913 -0.537174
v 1.25312 1.208929 -0.537174
v 1.25312 1.208929 0.03229554475290353
v 1.174995 1.344246 -0.537174
v 1.174995 1.344246 0.03229554475290353
v 0.712509 1.077229 0.032295012004631696
v 0.712509 1.077229 -0.537174
v 1.147403 1.381745 0.03229554475290353
v 1.057782 1.509738 0.03229554475290353
v 0.622887 1.205222 0.032604272376451804
v 1.147403 1.381746 -0.537174
v 1.057782 1.509738 -0.537174
v 0.622887 1.205222 -0.537174
v 1.027193 1.544474 -0.537174
v 1.027193 1.544474 0.03291299999999997
v 0.926757 1.664168 0.03291299999999997
v 0.522452 1.324916 0.03285120120046281
v 0.926757 1.664169 -0.537174
v 0.522452 1.324916 -0.537174
v 0.411966 1.435401 0.03278940240092654
v 0.782956 1.806391 0.03278940240092654
v 0.782956 1.806391 -0.5371734672517281
v 0.411966 1.435402 -0.537174
v 0.893441 1.695905 0.03278940240092654
v 0.893441 1.695905 -0.5371734672517281
v 0.74921 1.837313 -0.5371734672517281
v 0.292272 1.535837 -0.537174
v 0.629516 1.937749 -0.5371734672517281
v 0.292272 1.535837 0.03278940240092654
v 0.629516 1.937748 0.03278940240092654
v 0.74921 1.837313 0.03278940240092654
v 0.593204 1.965612 0.03278940240092654
v 0.457212 2.060834 0.03278940240092654
v 0.15628 1.63106 0.03278940240092654
v 0.593204 1.965612 -0.5371734672517281
v 0.457212 2.060835 -0.5371734672517281
v 0.15628 1.63106 -0.537174
v 0.418609 2.085427 -0.5371734672517281
v 0.012506 1.714068 -0.5371734672517281
v 0.274835 2.168435 -0.5371734672517281
v 0.012506 1.714067 0.03278940240092654
v 0.274835 2.168435 0.03278940240092654
v 0.418609 2.085427 0.03278940240092654
v 0.234236 2.189569 0.03278940240092654
v 0.083775 2.25973 0.03278940240092654
v -0.137955 1.784229 0.03278940240092654
v 0.083775 2.259731 -0.5371734672517281
v -0.137955 1.784229 -0.5371734672517281
v 0.234236 2.189569 -0.5371734672517281
vt 1 0.0625
vt 0.53125 0.0625
vt 0.53125 0.21875
vt 1 0.21875
vt 0 0.59375
vt 0 0.09375
vt 0.46875 0.09375
vt 0.46875 0.59375
vt 0 0.0625
vt 0.46875 0.0625
vt 0.46875 0.21875
vt 0 0.21875
vt 0 0.0625
vt 0.46875 0.0625
vt 0.46875 0.21875
vt 0 0.21875
vt 0 0
vt 0.46875 0
vt 0.46875 0.15625
vt 0 0.15625
vt 0 0.3125
vt 0 0.8125
vt 0.46875 0.8125
vt 0.46875 0.3125
vt 0 0.21875
vt 0.46875 0.21875
vt 0.46875 0.375
vt 0 0.375
vt 0 0.21875
vt 0.46875 0.21875
vt 0.46875 0.375
vt 0 0.375
vt 0.46875 0.84375
vt 0 0.84375
vt 0 1
vt 0.46875 1
vt 0 0.3125
vt 0 0.8125
vt 0.46875 0.8125
vt 0.46875 0.3125
vt 0 0.3125
vt 0 0.8125
vt 0.46875 0.8125
vt 0.46875 0.3125
vt 0 0.15625
vt 0.46875 0.15625
vt 0.46875 0.3125
vt 0 0.3125
vt 0 0.3125
vt 0 0.8125
vt 0.46875 0.8125
vt 0.46875 0.3125
vt 0 0.375
vt 0.46875 0.375
vt 0.46875 0.53125
vt 0 0.53125
vt 0.46875 0.6875
vt 0 0.6875
vt 0 0.84375
vt 0.46875 0.84375
vt 0 0.375
vt 0.46875 0.375
vt 0.46875 0.53125
vt 0 0.53125
vt 0 0.3125
vt 0 0.8125
vt 0.46875 0.8125
vt 0.46875 0.3125
vt 0 0.3125
vt 0.46875 0.3125
vt 0.46875 0.46875
vt 0 0.46875
vt 0.46875 0.53125
vt 0 0.53125
vt 0 0.6875
vt 0.46875 0.6875
vt 0 0.3125
vt 0 0.8125
vt 0.46875 0.8125
vt 0.46875 0.3125
vt 0 0.53125
vt 0.46875 0.53125
vt 0.46875 0.6875
vt 0 0.6875
vt 0 0.53125
vt 0.46875 0.53125
vt 0.46875 0.6875
vt 0 0.6875
vt 0 0.3125
vt 0 0.8125
vt 0.46875 0.8125
vt 0.46875 0.3125
vt 0 0.46875
vt 0.46875 0.46875
vt 0.46875 0.625
vt 0 0.625
vt 0 0.3125
vt 0 0.8125
vt 0.46875 0.8125
vt 0.46875 0.3125
vt 0.46875 0.375
vt 0 0.375
vt 0 0.53125
vt 0.46875 0.53125
vt 0 0.3125
vt 0 0.8125
vt 0.46875 0.8125
vt 0.46875 0.3125
vt 0 0.6875
vt 0.46875 0.6875
vt 0.46875 0.84375
vt 0 0.84375
vt 0 0.6875
vt 0.46875 0.6875
vt 0.46875 0.84375
vt 0 0.84375
vt 0 0.625
vt 0.46875 0.625
vt 0.46875 0.78125
vt 0 0.78125
vt 0 0.3125
vt 0 0.8125
vt 0.46875 0.8125
vt 0.46875 0.3125
vt 0 0.3125
vt 0 0.8125
vt 0.46875 0.8125
vt 0.46875 0.3125
vt 0.46875 0.21875
vt 0 0.21875
vt 0 0.375
vt 0.46875 0.375
vt 0 0.84375
vt 0.46875 0.84375
vt 0.46875 1
vt 0 1
vt 0 0.84375
vt 0.46875 0.84375
vt 0.46875 1
vt 0 1
vt 0 0.21875
vt 0.46875 0.21875
vt 0.46875 0.375
vt 0 0.375
vt 0 0.3125
vt 0 0.8125
vt 0.46875 0.8125
vt 0.46875 0.3125
vt 0 0.0625
vt 0.46875 0.0625
vt 0.46875 0.21875
vt 0 0.21875
vt 0 0.3125
vt 0 0.8125
vt 0.46875 0.8125
vt 0.46875 0.3125
vt 0.46875 0.0625
vt 0 0.0625
vt 0 0.21875
vt 0.46875 0.21875
vt 0.53125 0.0625
vt 1 0.0625
vt 1 0.21875
vt 0.53125 0.21875
vt 0 0.8125
vt 0.46875 0.8125
vt 0.46875 0.96875
vt 0 0.96875
vt 1 0.84375
vt 0.53125 0.84375
vt 0.53125 1
vt 1 1
vt 0 0.21875
vt 0.46875 0.21875
vt 0.46875 0.375
vt 0 0.375
vt 0 0.3125
vt 0 0.8125
vt 0.46875 0.8125
vt 0.46875 0.3125
vt 0 0.3125
vt 0 0.8125
vt 0.46875 0.8125
vt 0.46875 0.3125
vt 0.53125 0.21875
vt 1 0.21875
vt 1 0.375
vt 0.53125 0.375
vt 0 0
vt 0.46875 0
vt 0.46875 0.15625
vt 0 0.15625
vt 0 0.3125
vt 0 0.8125
vt 0.46875 0.8125
vt 0.46875 0.3125
vt 1 0.6875
vt 0.53125 0.6875
vt 0.53125 0.84375
vt 1 0.84375
vt 0 0.375
vt 0.46875 0.375
vt 0.46875 0.53125
vt 0 0.53125
vt 0 0.3125
vt 0 0.8125
vt 0.46875 0.8125
vt 0.46875 0.3125
vt 0.53125 0.375
vt 1 0.375
vt 1 0.53125
vt 0.53125 0.53125
vt 0 0.15625
vt 0.46875 0.15625
vt 0.46875 0.3125
vt 0 0.3125
vt 0 0.3125
vt 0 0.8125
vt 0.46875 0.8125
vt 0.46875 0.3125
vt 0 0.53125
vt 0.46875 0.53125
vt 0.46875 0.6875
vt 0 0.6875
vt 0 0.3125
vt 0 0.8125
vt 0.46875 0.8125
vt 0.46875 0.3125
vt 1 0.53125
vt 0.53125 0.53125
vt 0.53125 0.6875
vt 1 0.6875
vt 0.53125 0.53125
vt 1 0.53125
vt 1 0.6875
vt 0.53125 0.6875
vt 0 0.3125
vt 0.46875 0.3125
vt 0.46875 0.46875
vt 0 0.46875
vt 0.53125 0.6875
vt 1 0.6875
vt 1 0.84375
vt 0.53125 0.84375
vt 0 0.3125
vt 0 0.8125
vt 0.46875 0.8125
vt 0.46875 0.3125
vt 0 0.6875
vt 0.46875 0.6875
vt 0.46875 0.84375
vt 0 0.84375
vt 1 0.375
vt 0.53125 0.375
vt 0.53125 0.53125
vt 1 0.53125
vt 0 0.3125
vt 0 0.8125
vt 0.46875 0.8125
vt 0.46875 0.3125
vt 0 0.46875
vt 0.46875 0.46875
vt 0.46875 0.625
vt 0 0.625
vt 1 0.21875
vt 0.53125 0.21875
vt 0.53125 0.375
vt 1 0.375
vt 0 0.84375
vt 0.46875 0.84375
vt 0.46875 1
vt 0 1
vt 0 0.3125
vt 0 0.8125
vt 0.46875 0.8125
vt 0.46875 0.3125
vt 0.53125 0.84375
vt 1 0.84375
vt 1 1
vt 0.53125 1
vt 0 0.3125
vt 0 0.8125
vt 0.46875 0.8125
vt 0.46875 0.3125
vt 0 0.625
vt 0.46875 0.625
vt 0.46875 0.78125
vt 0 0.78125
vt 0 0.0625
vt 0.46875 0.0625
vt 0.46875 0.21875
vt 0 0.21875
vt 0 0.3125
vt 0 0.8125
vt 0.46875 0.8125
vt 0.46875 0.3125
vt 0 0.0625
vt 0.46875 0.0625
vt 0.46875 0.21875
vt 0 0.21875
vt 1 0.0625
vt 0.53125 0.0625
vt 0.53125 0.21875
vt 1 0.21875
vt 0 0.3125
vt 0 0.8125
vt 0.46875 0.8125
vt 0.46875 0.3125
vt 0 0.8125
vt 0.46875 0.8125
vt 0.46875 0.96875
vt 0 0.96875
vt 0.46875 0.84375
vt 0 0.84375
vt 0 1
vt 0.46875 1
vt 0 1
vt 0 0.5
vt 0.46875 0.5
vt 0.46875 1
vt 0 0.375
vt 0.46875 0.375
vt 0.46875 0.21875
vt 0 0.21875
vt 0 0.3125
vt 0 0.8125
vt 0.46875 0.8125
vt 0.46875 0.3125
vt 0 0.375
vt 0.46875 0.375
vt 0.46875 0.21875
vt 0 0.21875
vt 0 0
vt 0.46875 0
vt 0.46875 0.15625
vt 0 0.15625
vn 0 0 1
vn 0 -0.9999999999984583 -0.0000017560218008689909
vn 1 0 0
vn 0 0 -1
vn -1 0 0
vn 0 0.9999999999984583 0.0000017560218008689909
vn 0.9961947247203047 0.08715543838129991 0
vn 0 0 -1
vn 0 0 1
vn -0.0871552452567348 0.9961947416164364 0
vn 0.08715524525673475 -0.9961947416164364 0
vn -0.9961947733348119 -0.08715488271106399 -1.530458740930442e-7
vn -0.17364757926455368 0.9848078585265051 0
vn 0.9848082898252861 0.1736451332211624 0
vn 0 0 1
vn 0 0 -1
vn 0.17364790137235211 -0.9848078017303569 0
vn -0.9848071953589745 -0.1736513402458806 0
vn 0 0 1
vn 0.2588187481666407 -0.9659259058527488 0
vn 0 0 -1
vn 0.9659250259925644 0.25882203183126473 0
vn -0.25881921905815175 0.9659257796777807 0
vn -0.9659266259916199 -0.2588160605535238 0
vn -0.34201999326897026 0.9396926754020666 0
vn 0 0 1
vn 0.34201999326897 -0.9396926754020666 0
vn 0.9396919164674948 0.342022078418407 0
vn 0 0 -1
vn -0.939691916467495 -0.3420220784184066 0
vn 0.4226183018362532 -0.9063077683397851 0
vn -0.4226183018362531 0.9063077683397853 0
vn 0.0000014409516782485388 -0.000003090130489201814 0.9999999999941874
vn 0.9063085071866652 0.42261671737057305 0
vn 0 0 -1
vn -0.906308507186665 -0.4226167173705733 0
vn 0.49999941492828076 -0.8660257415754897 0
vn 0.8660262528345833 0.4999985293991276 0
vn -0.5000008193359835 0.8660249307400714 0
vn -8.639434522352509e-7 -4.987960286281761e-7 0.9999999999995024
vn 0 0 -1
vn -0.866024652835399 -0.5000013006796353 0
vn -8.219942071571629e-7 -5.755622794967849e-7 0.9999999999994966
vn 0.8191519337217614 0.5735765942564993 0.0000010072120616356958
vn 0.5735776280448603 -0.8191512098534453 -0.0000014384460369498246
vn -0.5735754791687173 0.8191527145144404 0
vn 0 0 -1
vn -0.8191510322456436 -0.5735778816960228 0
vn 0.6427864806056042 -0.7660453905289566 0
vn -0.0004480972251097806 -0.00037600124401495353 0.9999998289159562
vn 0.7660445387749303 0.6427874956881975 0
vn -0.6427874136918672 0.7660446075768139 0.0000013437328118993326
vn 0 0 -1
vn -0.7660450458367234 -0.6427868913948174 0
vn -0.7071067811865478 0.7071067811865474 0
vn 0.7071099811774115 0.7071035811812021 0
vn 0.7071067811865476 -0.7071067811865476 0
vn 0.00008328963766694112 0.00008328888381905389 0.9999999930628991
vn 7.180108735591435e-7 7.180108735591432e-7 -0.9999999999994845
vn -0.7071035811812019 -0.7071099811774116 0
vn 6.526987798002347e-7 7.778575969473735e-7 -0.9999999999994845
vn -0.766043853599665 0.642788312246655 0.000001127772257502846
vn 0.642790647068614 0.766041894442538 0
vn 0 0 1
vn 0.766043853600152 -0.6427883122470641 0
vn -0.6427906470680336 -0.7660418944418462 -0.000001344019442866033
vn 0 0 1
vn 0.5735779579582465 0.8191509788460538 0
vn 0.8191517709147955 -0.5735768267696615 0
vn 5.824219427299093e-7 8.317814481346498e-7 -0.9999999999994846
vn -0.81915114385678 0.5735777222984837 0.000001006342260026185
vn -0.5735779579582464 -0.8191509788460539 0
vn -0.000002271381251075481 0.000002483889552173249 -0.9999999999943358
vn -0.8660258058079959 0.49999930367412687 0
vn 0.5000001915367085 0.8660252932006404 0
vn 0 0 1
vn 0.8660253293079244 -0.5000001289970848 0
vn -0.49999567387886856 -0.8660279014572314 0
vn 0 0 1
vn -0.9063076101910813 0.4226186409863881 7.41484513361466e-7
vn 0.4226226327517216 0.9063057487879043 0
vn 0.9063076101913304 -0.4226186409865041 0
vn 0 0 -1
vn -0.4226226327511884 -0.9063057487867578 -0.0000015901136669911809
usemtl m_keystones
f 57/173/44 58/174/44 59/175/44 60/176/44
usemtl m_arch
f 61/177/45 62/178/45 58/179/45 57/180/45
usemtl m_keystones
f 58/181/46 62/182/46 63/183/46 59/184/46
f 62/185/47 61/186/47 64/187/47 63/188/47
usemtl m_arch
f 61/189/48 57/190/48 60/191/48 64/192/48
f 60/193/49 59/194/49 63/195/49 64/196/49
usemtl m_keystones
f 65/197/50 66/198/50 67/199/50 68/200/50
f 66/201/51 64/202/51 69/203/51 67/204/51
f 60/205/52 65/206/52 68/207/52 70/208/52
usemtl m_arch
f 70/209/53 68/210/53 67/211/53 69/212/53
f 64/213/54 66/214/54 65/215/54 60/216/54
f 64/217/55 60/218/55 70/219/55 69/220/55
f 71/221/56 72/222/56 73/223/56 74/224/56
usemtl m_keystones
f 75/225/57 76/226/57 73/227/57 72/228/57
f 70/229/58 75/230/58 72/231/58 71/232/58
f 76/233/59 69/234/59 74/235/59 73/236/59
usemtl m_arch
f 69/237/60 76/238/60 75/239/60 70/240/60
f 69/241/61 70/242/61 71/243/61 74/244/61
usemtl m_keystones
f 71/245/62 77/246/62 78/247/62 79/248/62
usemtl m_arch
f 74/249/63 80/250/63 77/251/63 71/252/63
usemtl m_keystones
f 80/253/64 74/254/64 81/255/64 82/256/64
f 77/257/65 80/258/65 82/259/65 78/260/65
usemtl m_arch
f 79/261/66 78/262/66 82/263/66 81/264/66
f 74/265/67 71/266/67 79/267/67 81/268/67
f 83/269/68 84/270/68 85/271/68 86/272/68
usemtl m_keystones
f 79/273/69 87/274/69 84/275/69 83/276/69
usemtl m_arch
f 81/277/70 88/278/70 87/279/70 79/280/70
usemtl m_keystones
f 87/281/71 88/282/71 85/283/71 84/284/71
f 88/285/72 81/286/72 86/287/72 85/288/72
usemtl m_arch
f 81/289/73 79/290/73 83/291/73 86/292/73
f 86/293/74 89/294/74 90/295/74 83/296/74
f 91/297/75 92/298/75 93/299/75 94/300/75
usemtl m_keystones
f 83/301/76 90/302/76 92/303/76 91/304/76
f 90/305/77 89/306/77 93/307/77 92/308/77
f 89/309/78 86/310/78 94/311/78 93/312/78
usemtl m_arch
f 86/313/79 83/314/79 91/315/79 94/316/79
f 94/317/80 95/318/80 96/319/80 91/320/80
usemtl m_keystones
f 96/321/81 95/322/81 97/323/81 98/324/81
usemtl m_arch
f 99/325/82 98/326/82 97/327/82 100/328/82
usemtl m_keystones
f 91/329/83 96/330/83 98/331/83 99/332/83
f 95/333/84 94/334/84 100/335/84 97/336/84
usemtl m_arch
f 94/337/85 91/338/85 99/339/85 100/340/85
usemtl m_keystones
f 99/341/86 101/342/86 102/343/86 103/344/86
f 101/345/87 104/346/87 105/347/87 102/348/87
usemtl m_arch
f 100/349/88 104/350/88 101/351/88 99/352/88
f 103/353/89 102/354/89 105/355/89 106/356/89
usemtl m_keystones
f 104/357/90 100/358/90 106/359/90 105/360/90
usemtl m_arch
f 100/361/91 99/362/91 103/363/91 106/364/91
f 106/365/92 107/366/92 108/367/92 103/368/92
usemtl m_keystones
f 103/369/93 108/370/93 109/371/93 110/372/93
f 108/373/94 107/374/94 111/375/94 109/376/94
usemtl m_arch
f 110/377/95 109/378/95 111/379/95 112/380/95
usemtl m_keystones
f 107/381/96 106/382/96 112/383/96 111/384/96
usemtl m_arch
f 106/385/97 103/386/97 110/387/97 112/388/97
f 113/389/98 114/390/98 115/391/98 116/392/98
usemtl m_keystones
f 117/393/99 118/394/99 115/395/99 114/396/99
usemtl m_arch
f 112/397/100 118/398/100 117/399/100 110/400/100
usemtl m_keystones
f 110/401/101 117/402/101 114/403/101 113/404/101
f 118/405/102 112/406/102 116/407/102 115/408/102
usemtl m_arch
f 112/409/103 110/410/103 113/411/103 116/412/103
usemtl m_keystones
f 119/413/104 116/414/104 120/415/104 121/416/104
usemtl m_arch
f 122/417/105 123/418/105 121/419/105 120/420/105
usemtl m_keystones
f 124/421/106 119/422/106 121/423/106 123/424/106
f 113/425/107 124/426/107 123/427/107 122/428/107
usemtl m_arch
f 116/429/108 119/430/108 124/431/108 113/432/108
f 116/433/109 113/434/109 122/435/109 120/436/109
usemtl m_keystones
f 122/437/110 125/438/110 126/439/110 127/440/110
f 125/441/111 128/442/111 129/443/111 126/444/111
usemtl m_arch
f 120/445/112 128/446/112 125/447/112 122/448/112
usemtl m_keystones
f 128/449/113 120/450/113 130/451/113 129/452/113
usemtl m_arch
f 127/453/114 126/454/114 129/455/114 130/456/114
f 120/457/115 122/458/115 127/459/115 130/460/115
usemtl m_keystones
f 131/461/116 130/462/116 132/463/116 133/464/116
usemtl m_arch
f 134/465/117 135/466/117 133/467/117 132/468/117
usemtl m_keystones
f 136/469/118 131/470/118 133/471/118 135/472/118
f 127/473/119 136/474/119 135/475/119 134/476/119
usemtl m_arch
f 130/477/120 131/478/120 136/479/120 127/480/120
f 130/481/121 127/482/121 134/483/121 132/484/121
usemtl m_keystones
f 134/485/122 137/486/122 138/487/122 139/488/122
usemtl m_arch
f 139/489/123 138/490/123 140/491/123 141/492/123
usemtl m_keystones
f 137/493/124 142/494/124 140/495/124 138/496/124
usemtl m_arch
f 132/497/125 142/498/125 137/499/125 134/500/125
usemtl m_keystones
f 142/501/126 132/502/126 141/503/126 140/504/126
usemtl m_arch
f 132/505/127 134/506/127 139/507/127 141/508/127