mtllib brick_arch.mtl

o bricks_selection
v 1.0229514628344143 0.8711305092661329 -0.5187847222222166
v 1.0229514628344143 0.8711305092661358 0.03128472222221734
v 1.2121643922514442 1.4507139611113629 -0.5187847222222259
v 1.2121643922514442 1.4507139611113655 0.03128472222220635
v 1.0662371725268605 1.4920372212893702 -0.518784722222227
v 0.8765786897553807 0.912625373566961 -0.518784722222217
v 1.0662371725268605 1.4920372212893729 0.03128472222220635
v 0.8765786897553807 0.9126253735669633 0.03128472222221512
v -0.022951462834414516 0.8711305092661313 0.03128472222221568
v -0.022951462834414293 0.8711305092661371 -0.518784722222217
v -0.21216439225144423 1.4444639611113619 0.03128472222221068
v -0.21216439225144423 1.4507139611113673 -0.5187847222222226
v -0.06623717252686068 1.4920372212893693 0.03128472222220968
v 0.12342131024461911 0.9126253735669597 0.03128472222221512
v -0.06623717252686045 1.4920372212893742 -0.5187847222222237
v 0.12342131024461933 0.912625373566965 -0.518784722222217
v 1.0026055698841678 1.4956236622005088 -0.521875000000003
v 1.0026055698841678 1.4956236622005092 0.0343749999999845
v 0.8543781061697867 1.5266036901233728 -0.521875000000003
v 0.8543781061697867 1.5266036901233724 0.03437499999998561
v 0.5757699223036483 1.55539707331139 -0.5218750000000063
v 0.5762406250000001 0.9593500000000009 -0.5218749999999964
v 0.5757699223036483 1.55539707331139 0.0343749999999845
v 0.5762406250000001 0.9593500000000009 0.03437499999999327
v 0.42423096887455336 1.55539707331139 -0.5218750000000063
v 0.4237602661782014 0.9593500000000009 -0.5218749999999964
v 0.42423096887455336 1.55539707331139 0.0343749999999845
v 0.4237602661782014 0.9593500000000009 0.03437499999999327
v 0.3599290277733225 1.5520834857468873 -0.5218750000000041
v 0.3599290277733225 1.5520834857468868 0.03437499999998561
v 0.20922022058689427 1.536508148458113 -0.5218750000000063
v 0.27211521071631184 0.9436779040482887 -0.5218749999999964
v 0.20922022058689427 1.536508148458113 0.03437499999998128
v 0.27211521071631184 0.9436779040482889 0.03437499999999327
v 0.14562278500841463 1.5266036901233728 -0.521875000000003
v 0.14562278500841463 1.5266036901233724 0.03437499999998561
v -0.002604678705966368 1.4956236622005088 -0.521875000000003
v 0.12342220142282079 0.912625373566961 -0.5218749999999942
v -0.002604678705966368 1.4956236622005092 0.0343749999999845
v 0.12342220142282079 0.9126253735669613 0.03437499999999494
v 0.8765786897553807 0.912625373566961 -0.5218749999999942
v 0.8765786897553807 0.9126253735669613 0.03437499999999494
v 0.7278856804618896 0.9436779040482887 -0.5218749999999964
v 0.7278856804618896 0.9436779040482889 0.03437499999999327
v 0.7907806705913072 1.536508148458113 -0.5218750000000063
v 0.7907806705913072 1.536508148458113 0.03437499999998128
v 0.6400718634048792 1.5520834857468873 -0.5218750000000041
v 0.6400718634048792 1.5520834857468868 0.03437499999998561
vt 0 0
vt 0.46875 2.220446049250313e-16
vt 0.46875 0.625
vt 0 0.6249999999999998
vt 0 0
vt 0.46875 2.220446049250313e-16
vt 0.46875 0.625
vt 0 0.6249999999999998
vt 0 0.21875
vt 0.4687312507499701 0.21875
vt 0.4687499999999999 0.0625
vt 0 0.06298598373075992
vt 0.4687499999999999 0.21875
vt 0.000018749250029814757 0.21875
vt 0 0.375
vt 0.4687499999999999 0.3745140162692401
vt 0 0
vt 0.46875 0
vt 0.46875 0.15625
vt 0 0.15625
vt 0 0.15625
vt 0.46875 0.15625
vt 0.46875 0
vt 0 1.1102230246251565e-16
vt 0 0
vt 0.46875 2.220446049250313e-16
vt 0.46875 0.625
vt 0 0.6249999999999998
vt 0 0
vt 0.46875 2.220446049250313e-16
vt 0.46875 0.625
vt 0 0.6249999999999998
vt 0 0.21875
vt 0.4687312507499701 0.21875
vt 0.4687499999999999 0.0625
vt 0 0.06298598373075992
vt 0.4687499999999999 0.21875
vt 0.000018749250029814757 0.21875
vt 0 0.375
vt 0.4687499999999999 0.3745140162692401
vt 0 0
vt 0.46875 0
vt 0.46875 0.15625
vt 0 0.15625
vt 0 0.15625
vt 0.46875 0.15625
vt 0.46875 0
vt 0 1.1102230246251565e-16
vt 0 0
vt 0.46875 0
vt 0.46875 0.15625
vt 0 0.15625
vt 0 0.375
vt 0.46875 0.375
vt 0.46875 1
vt 0 1
vt 0 0.375
vt 0.46875 0.375
vt 0.46875 1
vt 0 1
vt 0 0.6875
vt 0.4687312507499701 0.6875
vt 0.4687499999999999 0.53125
vt 0 0.5317359837307599
vt 0.4687499999999999 0.53125
vt 0.000018749250029814757 0.53125
vt 0 0.6875
vt 0.4687499999999999 0.6870140162692401
vt 0 0
vt 0.46875 0
vt 0.46875 0.15625
vt 0 0.15625
vt 0 0.625
vt 0.46875 0.625
vt 0.46875 0.46875
vt 0 0.4687500000000001
vt 0 0
vt 0.46875 2.220446049250313e-16
vt 0.46875 0.625
vt 0 0.6249999999999998
vt 0 0
vt 0.46875 2.220446049250313e-16
vt 0.46875 0.625
vt 0 0.6249999999999998
vt 0 0.84375
vt 0.4687312507499701 0.84375
vt 0.4687499999999999 0.6875
vt 0 0.6879859837307599
vt 0.4687499999999999 0.375
vt 0.000018749250029814757 0.375
vt 0 0.53125
vt 0.4687499999999999 0.5307640162692401
vt 0 0
vt 0.46875 0
vt 0.46875 0.15625
vt 0 0.15625
vt 0 0.21875
vt 0.46875 0.21875
vt 0.46875 0.375
vt 0 0.3749999999999999
vt 0 0.375
vt 0.46875 0.375
vt 0.46875 1
vt 0 1
vt 0 0.375
vt 0.46875 0.375
vt 0.46875 1
vt 0 1
vt 0 1
vt 0.4687312507499701 1
vt 0.4687499999999999 0.84375
vt 0 0.8442359837307599
vt 0.4687499999999999 0.21875
vt 0.000018749250029814757 0.21875
vt 0 0.375
vt 0.4687499999999999 0.3745140162692401
vt 0 0
vt 0.46875 0
vt 0.46875 0.15625
vt 0 0.15625
vt 0 0.625
vt 0.46875 0.625
vt 0.46875 0.78125
vt 0 0.7812499999999999
vt 0 0.375
vt 0.46875 0.375
vt 0.46875 1
vt 0 1
vt 0 0.375
vt 0.46875 0.375
vt 0.46875 1
vt 0 1
vt 0 0.375
vt 0.4687312507499701 0.375
vt 0.4687499999999999 0.21875
vt 0 0.21923598373075992
vt 0.4687499999999999 0.84375
vt 0.000018749250029814757 0.84375
vt 0 1
vt 0.4687499999999999 0.9995140162692401
vt 0 0.3125
vt 0.46875 0.3125
vt 0.46875 0.15625
vt 0 0.1562500000000001
vt 0 0
vt 0.46875 2.220446049250313e-16
vt 0.46875 0.625
vt 0 0.6249999999999998
vt 0 0
vt 0.46875 2.220446049250313e-16
vt 0.46875 0.625
vt 0 0.6249999999999998
vt 0 0.53125
vt 0.4687312507499701 0.53125
vt 0.4687499999999999 0.375
vt 0 0.3754859837307599
vt 0.4687499999999999 0.6875
vt 0.000018749250029814757 0.6875
vt 0 0.84375
vt 0.4687499999999999 0.8432640162692401
vt 0 0
vt 0.46875 0
vt 0.46875 0.15625
vt 0 0.15625
vt 0 0.46875
vt 0.46875 0.46875
vt 0.46875 0.3125
vt 0 0.3125000000000001
vn 0.9506242375629946 -0.31034425878010874 1.820450108718272e-15
vn -0.9503812301055047 0.3110876363071154 -1.5069078713283028e-15
vn -7.287550879665913e-16 -1.5948513788018225e-14 -1
vn 4.915722029633076e-15 1.7359173638120077e-14 1
vn 0.2724634990592098 0.9621661195866399 -4.272336481492981e-15
vn -0.2727399472618882 -0.962087792858626 3.88362607714469e-15
vn -0.9496222951816571 -0.3133967078543133 -3.672532223799812e-15
vn 0.9503812301055047 0.31108763630711533 3.1463014913220236e-15
vn 1.2090374319518516e-15 9.112967520510329e-15 1
vn -4.506375655368395e-15 -1.0953156944852848e-14 -1
vn -0.3099335971349508 0.9506968401978635 0.01080200929401384
vn 0.27273994726188955 -0.9620877928586258 -9.210606606450953e-15
vn 0.20458272184366624 0.978849278450486 -7.814766788842967e-16
vn 0.9999996881813739 0.0007897070057954456 0
vn -0.9999996881813739 0.0007897070057958181 0
vn 0 -1.6577524429856288e-14 -1
vn 0 1.4714881235490413e-14 1
vn 0 1 0
vn 0 -1 0
vn 0.9942514257045582 0.10707054909943023 0
vn -0.9944192318654517 -0.10550066964775817 0
vn 1.3209669057124112e-15 -1.2781832136383388e-14 -1
vn -2.9734775873197136e-14 9.721960106530335e-15 1
vn -0.10279970119869745 0.9947020767211953 7.941329605165666e-16
vn 0.10279970119869662 -0.9947020767211953 3.9706648025828327e-16
vn 0.9772565337801001 0.21206052717114504 -8.465059950725689e-17
vn -0.9774234468693559 -0.21128986135171648 1.686859282283419e-16
vn -1.2021729771510142e-14 -1.3940856538942177e-14 -1
vn -9.792501584965704e-15 1.1016602360177078e-14 1
vn -0.2045827218436664 0.9788492784504861 7.814766788842952e-16
vn 0.2044263007435682 -0.978881957931752 3.907513844803618e-16
vn 0.977423446869356 -0.21128986135171654 8.434296411417071e-17
vn -0.9772565337801004 0.21206052717114496 1.6930119901451403e-16
vn 1.126296196295102e-14 -1.7574166515967263e-14 -1
vn 1.0745808682318873e-14 1.557780848734448e-14 1
vn -0.20442630074356818 -0.978881957931752 3.907513844803614e-16
vn 0.9944192318654517 -0.10550066964775816 4.211389575058542e-17
vn -0.9942514257045583 0.10707054909943063 8.548112458027751e-17
vn -1.7038558638899254e-15 -1.648671101649452e-14 -1
vn 3.04860476525044e-14 1.6991354767654214e-14 1
vn 0.10279970119869761 0.9947020767211953 0
vn -0.10279970119869662 -0.9947020767211953 0
usemtl m_arch
f 2/1/1 1/2/1 3/3/1 4/4/1
f 7/5/2 5/6/2 6/7/2 8/8/2
usemtl m_keystones
f 3/9/3 1/10/3 6/11/3 5/12/3
f 2/13/4 4/14/4 7/15/4 8/16/4
f 4/17/5 3/18/5 5/19/5 7/20/5
usemtl m_arch
f 8/21/6 6/22/6 1/23/6 2/24/6
f 10/25/7 9/26/7 11/27/7 12/28/7
f 15/29/8 13/30/8 14/31/8 16/32/8
usemtl m_keystones
f 11/33/9 9/34/9 14/35/9 13/36/9
f 10/37/10 12/38/10 15/39/10 16/40/10
f 12/41/11 11/42/11 13/43/11 15/44/11
usemtl m_arch
f 16/45/12 14/46/12 9/47/12 10/48/12
usemtl m_keystones
f 18/49/13 17/50/13 19/51/13 20/52/13
usemtl m_arch
f 24/53/14 22/54/14 21/55/14 23/56/14
f 27/57/15 25/58/15 26/59/15 28/60/15
usemtl m_keystones
f 21/61/16 22/62/16 26/63/16 25/64/16
f 24/65/17 23/66/17 27/67/17 28/68/17
f 23/69/18 21/70/18 25/71/18 27/72/18
usemtl m_arch
f 28/73/19 26/74/19 22/75/19 24/76/19
f 28/77/20 26/78/20 29/79/20 30/80/20
f 33/81/21 31/82/21 32/83/21 34/84/21
usemtl m_keystones
f 29/85/22 26/86/22 32/87/22 31/88/22
f 28/89/23 30/90/23 33/91/23 34/92/23
f 30/93/24 29/94/24 31/95/24 33/96/24
usemtl m_arch
f 34/97/25 32/98/25 26/99/25 28/100/25
f 34/101/26 32/102/26 35/103/26 36/104/26
f 39/105/27 37/106/27 38/107/27 40/108/27
usemtl m_keystones
f 35/109/28 32/110/28 38/111/28 37/112/28
f 34/113/29 36/114/29 39/115/29 40/116/29
f 36/117/30 35/118/30 37/119/30 39/120/30
usemtl m_arch
f 40/121/31 38/122/31 32/123/31 34/124/31
f 42/125/32 41/126/32 17/127/32 18/128/32
f 20/129/33 19/130/33 43/131/33 44/132/33
usemtl m_keystones
f 17/133/34 41/134/34 43/135/34 19/136/34
f 42/137/35 18/138/35 20/139/35 44/140/35
usemtl m_arch
f 44/141/36 43/142/36 41/143/36 42/144/36
f 44/145/37 43/146/37 45/147/37 46/148/37
f 48/149/38 47/150/38 22/151/38 24/152/38
usemtl m_keystones
f 45/153/39 43/154/39 22/155/39 47/156/39
f 44/157/40 46/158/40 48/159/40 24/160/40
f 46/161/41 45/162/41 47/163/41 48/164/41
usemtl m_arch
f 24/165/42 22/166/42 43/167/42 44/168/42
o mortar_selection
v 1.2010459466160923 1.5012767667272313 0.00734374999996823
v 1.2010459466160923 1.5012767667272313 -0.5073437499999978
v 0.9921201914844238 0.9174409509614206 0.007343750000003202
v 0.9921201914844238 0.9174409509614206 -0.5073437499999627
v 0.7376546032048288 1.6046975363738736 0.00734374999996823
v 0.7376546032048288 1.6046975363738736 -0.5073437499999978
v 0.6668288518558663 0.9900402370337881 0.00734374999999543
v 0.6668288518558663 0.9900402370337881 -0.5073437499999705
v -0.2010450554378913 1.5012767667272304 0.007343749999972116
v -0.2010450554378913 1.5012767667272304 -0.5073437499999939
v 0.007880699693777249 0.9174409509614206 0.007343749999999316
v 0.007880699693777249 0.9174409509614206 -0.5073437499999667
v 0.262346287973372 1.6046975363738736 0.00734374999996823
v 0.262346287973372 1.6046975363738736 -0.5073437499999978
v 0.33317203932233475 0.9900402370337881 0.00734374999999543
v 0.33317203932233475 0.9900402370337881 -0.5073437499999705
vt 0.4374999999999999 0.65625
vt -1.1102230246251565e-16 0.6562499999999998
vt -1.1102230246251565e-16 0
vt 0.4374999999999999 2.220446049250313e-16
vt 0 1
vt 0 0.53125
vt 0.4375 0.53125
vt 0.4375 1
vt 0.4375 0.34375
vt 0.4375 0.6875
vt 0 0.6875
vt 0 0.34375
vt 0.49999999999999983 0.9375
vt 0.5 0.59375
vt 0.0000023720110433772404 0.53125
vt 0 1
vt 0.5000000000000007 1
vt 0.5 0.53125
vt 1 0.59375
vt 0.9999983348835672 0.9375
vt 0 0.46875
vt 0 0
vt 0.4375 0
vt 0.4375 0.46875
vt 0.4375 0.65625
vt 0.4375 1
vt 0 1
vt 0 0.65625
vt 0.9999999999999998 0.9375
vt 1 0.59375
vt 0.5000023720110434 0.53125
vt 0.5 1
vt 6.661338147750939e-16 1
vt 0 0.53125
vt 0.5 0.59375
vt 0.49999833488356715 0.9375
vt 0 0.71875
vt 0 0.25
vt 0.4375 0.25
vt 0.4375 0.71875
vt 0.9999999999999998 0.40625
vt 1 0.0625
vt 0.5000023720110434 0
vt 0.5 0.46875
vt 0.5000000000000007 0.46875
vt 0.5 0
vt 1 0.0625
vt 0.9999983348835672 0.40625
vt 0.4375 0
vt 0.4375 0.65625
vt 0 0.65625
vt 0 0
vn 0.9415307851236447 -0.3369269663657888 0
vn 0.21782334419200225 0.9759882123904022 0
vn -0.21782334419200378 -0.9759882123904018 0
vn -9.744133568011495e-15 6.338738518627937e-14 1
vn -1.239963505679158e-14 -5.5558313541931734e-14 -1
vn -0.21782334419200408 0.9759882123904017 0
vn 0.21782334419200378 -0.9759882123904018 0
vn 2.0171633349397756e-15 4.4485490112073266e-14 1
vn 1.4732431813646068e-15 -4.417360979599285e-14 -1
vn 0 1 0
vn 0 4.425305634948055e-14 1
vn 0 -4.4343368709377454e-14 -1
vn -0.9415307851236444 -0.33692696636578945 0
usemtl m_mortar
f 50/169/43 49/170/43 51/171/43 52/172/43
f 53/173/44 49/174/44 50/175/44 54/176/44
f 56/177/45 52/178/45 51/179/45 55/180/45
f 55/181/46 51/182/46 49/183/46 53/184/46
f 54/185/47 50/186/47 52/187/47 56/188/47
f 57/189/48 61/190/48 62/191/48 58/192/48
f 60/193/49 64/194/49 63/195/49 59/196/49
f 59/197/50 63/198/50 61/199/50 57/200/50
f 58/201/51 62/202/51 64/203/51 60/204/51
f 61/205/52 53/206/52 54/207/52 62/208/52
f 63/209/53 55/210/53 53/211/53 61/212/53
f 62/213/54 54/214/54 56/215/54 64/216/54
f 58/217/55 60/218/55 59/219/55 57/220/55