mtllib brick_arch.mtl

o mortar_middle
v 0.830344 0.8219915 0.008395061728393216
v 0.830344 0.8219915 -0.51
v 1.015713 1.331287 -0.51
v 1.015713 1.331287 0.008395061728393216
v 0.5 1.45625575 -0.5091975308641966
v 0.5 1.45625575 0.009197530864198056
v 0.6629365 0.8731735 -0.51
v 0.794053 1.3990549999999997 -0.51
v 0.794053 1.3990549999999997 0.008395061728393216
v 0.6629365 0.8731735 0.008395061728393216
v 0.395865 0.9235720000000001 -0.51
v 0.395865 0.9235720000000001 0.008395061728393216
v 0.16965600000000003 0.8219915 -0.5083950617283932
v 0.16965600000000003 0.8219915 0.010000000000000009
v -0.015712999999999866 1.331287 0.010000000000000009
v -0.01571300000000031 1.331287 -0.5083950617283932
v 0.33706349999999996 0.8731735 0.010000000000000009
v 0.2059470000000001 1.3990549999999997 0.010000000000000009
v 0.20594699999999988 1.3990549999999997 -0.5083950617283932
v 0.33706349999999996 0.8731735 -0.5083950617283932
v 0.6041350000000001 0.9235720000000001 0.010000000000000009
v 0.6041349999999999 0.9235720000000001 -0.5083950617283932
vt 1 0.296875
vt 0.5 0.28125
vt 0.5 0
vt 0.9997417025624897 0
vt 1 0.296875
vt 0.5 0.28125
vt 0.5 0
vt 0.9997417025624897 0
vt 0 0.4375
vt 0.4375 0.4375
vt 0.4375 0.71875
vt 0 0.71875
vt 0 0.5625
vt 0.5 0.59375
vt 0.5 0.75
vt 0.000002818285250470731 0.78125
vt 0.5 0.59375
vt 1 0.5625
vt 1 0.78125
vt 0.5 0.75
vt 0 0.21875
vt 0.4375 0.21875
vt 0.4375 0.4375
vt 0 0.4375
vt 0 0.296875
vt 0.5 0.28125
vt 0.5 0
vt 0.0002582974375102687 0
vt 1 0.296875
vt 0.5 0.28125
vt 0.5 0
vt 0.9997417025624897 0
vt 0 0.4375
vt 0.4375 0.4375
vt 0.4375 0.71875
vt 0 0.71875
vt 0 0.5625
vt 0.5 0.59375
vt 0.5 0.75
vt 0.000002818285250470731 0.78125
vt 0.5 0.59375
vt 1 0.5625
vt 1 0.78125
vt 0.5 0.75
vt 0 0.21875
vt 0.4375 0.21875
vt 0.4375 0.4375
vt 0 0.4375
vt 0 0
vt 0.5 0
vt 0.5 0.5
vt 0 0.5
vt 0 0.5
vt 0.5 0.5
vt 0.5 1
vt 0 1
vn 0 0 -1
vn 0.0026027505626453314 -0.0006489362035878554 0.9999964022791845
vn 0.190946141211084 0.9816005150551811 0
vn 0 0 -1
vn 0 0 1
vn 0.2923706676401796 0.9563050730303775 0
vn 0 0 1
vn -0.0026027505626406494 -0.0006489362035866887 -0.9999964022791844
vn -0.19094614121108408 0.9816005150551811 8.178812573139172e-17
vn 0 0 1
vn 0 0 -1
vn -0.29237066764017977 0.9563050730303775 2.504627616296432e-16
vn -0.9396922664368421 -0.34202111689015763 8.049984016298264e-16
vn 0.9396922664368423 -0.3420211168901573 0
usemtl m_mortar
f 8/1/1 7/2/1 11/3/1 5/4/1
f 10/5/2 9/6/2 6/7/2 12/8/2
f 9/9/3 8/10/3 5/11/3 6/12/3
f 3/13/4 2/14/4 7/15/4 8/16/4
f 1/17/5 4/18/5 9/19/5 10/20/5
f 4/21/6 3/22/6 8/23/6 9/24/6
f 18/25/7 17/26/7 21/27/7 6/28/7
f 20/29/8 19/30/8 5/31/8 22/32/8
f 19/33/9 18/34/9 6/35/9 5/36/9
f 15/37/10 14/38/10 17/39/10 18/40/10
f 13/41/11 16/42/11 19/43/11 20/44/11
f 16/45/12 15/46/12 18/47/12 19/48/12
f 15/49/13 16/50/13 13/51/13 14/52/13
f 1/53/14 2/54/14 3/55/14 4/56/14
o middle
v 0.7060409999999999 0.8410090000000001 0.03525350000000005
v 0.8854850000000001 1.334027 0.03525350000000005
v 0.8854850000000001 1.334027 -0.5397465000000001
v 0.7060409999999999 0.8410090000000001 -0.5397465000000001
v 0.862045 0.784229 -0.5397465000000001
v 1.0414890000000003 1.277246 -0.5397465000000001
v 1.0414890000000003 1.277246 0.03525350000000005
v 0.862045 0.784229 0.03525350000000005
v 0.841833 1.3477899999999998 -0.5397465000000001
v 0.5456829999999999 0.883977 -0.5394347755139717
v 0.6814740000000001 1.390758 -0.5397465000000001
v 0.841833 1.3477899999999998 0.03525350000000005
v 0.6814740000000001 1.390758 0.03525350000000005
v 0.5456829999999999 0.883977 0.03413209803431294
v 0.6367880000000001 1.400665 0.0330112335246362
v 0.502284 1.4248085000000001 0.03319799948824864
v 0.411041 0.907718 0.03301069606862572
v 0.502284 1.4248085000000001 -0.5388739401671254
v 0.6367880000000001 1.400665 -0.5391230510279431
v 0.4543170000000001 0.883977 0.03431913272593057
v 0.4543170000000001 0.883977 -0.539185664653154
v 0.5935269999999999 0.9085239999999999 -0.5386248293063077
v 0.5935269999999999 0.9085239999999999 0.03338476545186031
v 0.36321199999999987 1.400665 -0.5386248293063077
v 0.36321199999999987 1.400665 0.03338476545186031
v 0.2939590000000001 0.8410090000000001 0.03525350000000005
v 0.2939590000000001 0.8410090000000001 -0.5397465000000001
v 0.15816699999999995 1.3477899999999998 0.03525350000000005
v 0.31852599999999986 1.390758 0.03525350000000005
v 0.15816699999999995 1.3477899999999998 -0.5397465000000001
v 0.31852599999999986 1.390758 -0.5397465000000001
v 0.13795500000000005 0.7842289999999998 0.03525350000000005
v 0.13795500000000005 0.7842289999999998 -0.5397465000000001
v -0.04148899999999989 1.2772459999999999 -0.5397465000000001
v -0.04148899999999989 1.2772459999999999 0.03525350000000005
v 0.11451499999999992 1.3340269999999999 -0.5397465000000001
v 0.11451499999999992 1.3340269999999999 0.03525350000000005
v 0.411041 0.907718 -0.5391230510279431
vt 0 1
vt 0 0.5
vt 0.46875 0.5
vt 0.46875 1
vt 0 0.5
vt 0 1
vt 0.46875 1
vt 0.46875 0.5
vt 0 0.84375
vt 0.46875 0.84375
vt 0.46875 0.6875
vt 0 0.6875
vt 0.46875 0.6875
vt 0 0.6875
vt 0 0.84375
vt 0.46875 0.84375
vt 0 0.53125
vt 0.46875 0.53125
vt 0.46875 0.375
vt 0 0.375
vt 0 0.21875
vt 0.46875 0.21875
vt 0.46875 0.375
vt 0 0.375
vt 0 0.6875
vt 0.46875 0.6875
vt 0.46875 0.53125
vt 0 0.53125
vt 0 0.6875
vt 0.46875 0.6875
vt 0.46875 0.53125
vt 0 0.53125
vt 0 0.5
vt 0 1
vt 0.46875 1
vt 0.46875 0.5
vt 0.46875 0.53125
vt 0 0.53125
vt 0 0.6875
vt 0.46875 0.6875
vt 0 1
vt 0 0.5
vt 0.46875 0.5
vt 0.46875 1
vt 0 0.375
vt 0.46875 0.375
vt 0.46875 0.53125
vt 0 0.53125
vt 0.46875 0.375
vt 0 0.375
vt 0 0.5
vt 0.46875 0.5
vt 0 0.5
vt 0 1
vt 0.46875 1
vt 0.46875 0.5
vt 0 0.5
vt 0.46875 0.5
vt 0.46875 0.375
vt 0 0.375
vt 0 0.53125
vt 0.46875 0.53125
vt 0.46875 0.6875
vt 0 0.6875
vt 0.46875 0.75
vt 0 0.75
vt 0 0.90625
vt 0.46875 0.90625
vt 0.46875 0.375
vt 0 0.375
vt 0 0.5
vt 0.46875 0.5
vt 0 1
vt 0 0.5
vt 0.46875 0.5
vt 0.46875 1
vt 0 0.34375
vt 0.46875 0.34375
vt 0.46875 0.21875
vt 0 0.21875
vt 0 0.84375
vt 0.46875 0.84375
vt 0.46875 0.96875
vt 0 0.96875
vt 0.46875 0.59375
vt 0 0.59375
vt 0 0.75
vt 0.46875 0.75
vt 0 0.6875
vt 0.46875 0.6875
vt 0.46875 0.53125
vt 0 0.53125
vt 0.46875 0.53125
vt 0 0.53125
vt 0 0.6875
vt 0.46875 0.6875
vt 0 1
vt 0 0.5
vt 0.46875 0.5
vt 0.46875 1
vt 0 1
vt 0 0.5
vt 0.46875 0.5
vt 0.46875 1
vt 0 0.21875
vt 0.46875 0.21875
vt 0.46875 0.375
vt 0 0.375
vt 0.46875 0.8125
vt 0 0.8125
vt 0 0.96875
vt 0.46875 0.96875
vt 0 1
vt 0 0.5
vt 0.46875 0.5
vt 0.46875 1
vt 0.46875 0.6875
vt 0 0.6875
vt 0 0.84375
vt 0.46875 0.84375
vt 0 0.375
vt 0.46875 0.375
vt 0.46875 0.53125
vt 0 0.53125
vt 0 0.53125
vt 0.46875 0.53125
vt 0.46875 0.375
vt 0 0.375
vt 0 1
vt 0 0.5
vt 0.46875 0.5
vt 0.46875 1
vt 0 0.34375
vt 0.46875 0.34375
vt 0.46875 0.21875
vt 0 0.21875
vn -0.9396925454128834 0.34202035041128237 0
vn 0.9396923224523122 -0.3420209629893756 0
vn 0.34202114100971454 0.9396922576580129 0
vn 0 0 1
vn 0 0 -1
vn -0.3420158221007917 -0.9396941935718873 0
vn -0.00181370581349462 0.0004859825838499506 -0.9999982371445214
vn 0.25881868233533323 0.9659259234921702 0
vn 0.9659256164805436 -0.25881982811732523 0
vn 0 0 1
vn -0.9659260929809881 0.25881804979267486 0
vn -0.2588201882222561 -0.9659255199903335 0
vn 0.0017233958334710259 0.0018654408801739135 0.9999967750133616
vn 0.984808090366593 -0.1736462644242728 0
vn 0.1766765146365312 0.9842689719664477 0
vn -0.17364805468636324 -0.9848077746969922 0
vn 0.1736517523227451 -0.984807122697252 0
vn -0.001920870667320227 0.0007467431673685357 -0.9999978763130057
vn -0.9848080903665931 -0.17364626442427278 0
vn 0.006200132497225758 0.0029015739718872237 0.9999765693382533
vn -0.17104592315525538 0.9852630573465985 0
vn 0.2588201882222561 -0.9659255199903335 0
vn 0.00543635030325103 0.001456670396836237 0.9999841619779464
vn 0 0 -1
vn -0.9659256164805436 -0.25881982811732523 0
vn 0.9659260929809882 0.2588180497926749 0
vn -0.25881868233533323 0.9659259234921702 0
vn 0.34201582210079234 -0.9396941935718872 0
vn -0.9396923224523125 -0.34202096298937495 0
vn 0 0 -1
vn -0.3420211410097154 0.9396922576580125 0
vn 0 0 1
vn 0.9396925454128832 0.3420203504112825 0
vn -0.002142220085109208 0.0009810380376656085 -0.9999972242248854
usemtl m_arch
f 23/57/15 24/58/15 25/59/15 26/60/15
f 27/61/16 28/62/16 29/63/16 30/64/16
usemtl m_keystones
f 29/65/17 28/66/17 25/67/17 24/68/17
f 30/69/18 29/70/18 24/71/18 23/72/18
f 28/73/19 27/74/19 26/75/19 25/76/19
usemtl m_arch
f 27/77/20 30/78/20 23/79/20 26/80/20
usemtl m_keystones
f 31/81/21 26/82/21 32/83/21 33/84/21
f 34/85/22 31/86/22 33/87/22 35/88/22
usemtl m_arch
f 26/89/23 31/90/23 34/91/23 23/92/23
usemtl m_keystones
f 23/93/24 34/94/24 35/95/24 36/96/24
usemtl m_arch
f 36/97/25 35/98/25 33/99/25 32/100/25
f 26/101/26 23/102/26 36/103/26 32/104/26
usemtl m_keystones
f 36/105/27 37/106/27 38/107/27 39/108/27
usemtl m_arch
f 32/109/28 41/110/28 37/111/28 36/112/28
usemtl m_keystones
f 37/113/29 41/114/29 40/115/29 38/116/29
usemtl m_arch
f 32/117/30 36/118/30 39/119/30 60/120/30
f 42/121/31 43/122/31 44/123/31 45/124/31
usemtl m_keystones
f 43/125/32 46/126/32 40/127/32 44/128/32
usemtl m_arch
f 46/129/33 43/130/33 42/131/33 47/132/33
usemtl m_keystones
f 47/133/34 42/134/34 45/135/34 38/136/34
f 46/137/35 47/138/35 38/139/35 40/140/35
usemtl m_arch
f 48/141/36 49/142/36 43/143/36 42/144/36
usemtl m_keystones
f 50/145/37 48/146/37 42/147/37 51/148/37
f 49/149/38 52/150/38 53/151/38 43/152/38
usemtl m_arch
f 52/153/39 49/154/39 48/155/39 50/156/39
f 51/157/40 42/158/40 43/159/40 53/160/40
usemtl m_keystones
f 52/161/41 50/162/41 51/163/41 53/164/41
usemtl m_arch
f 54/165/42 55/166/42 49/167/42 48/168/42
f 56/169/43 55/170/43 54/171/43 57/172/43
usemtl m_keystones
f 55/173/44 56/174/44 58/175/44 49/176/44
f 56/177/45 57/178/45 59/179/45 58/180/45
f 57/181/46 54/182/46 48/183/46 59/184/46
usemtl m_arch
f 59/185/47 48/186/47 49/187/47 58/188/47
usemtl m_keystones
f 41/189/48 32/190/48 60/191/48 40/192/48