# Blender v3.2.2 OBJ File: ''
# www.blender.org
mtllib brick_arch.mtl
o mortar
v 0.641061 1.210937 1.032813
v 0.909375 1.123757 1.032813
v 0.909375 1.123757 -0.020312
v 0.641061 1.210938 -0.020312
v 0.578476 0.815789 1.032813
v 0.727746 0.767288 1.032813
v 0.727746 0.767289 -0.020312
v 0.578476 0.815789 -0.020312
v 1.137617 0.957929 1.032813
v 1.137617 0.957930 -0.020312
v 0.854722 0.675035 1.032813
v 0.854722 0.675035 -0.020312
v 1.303444 0.729688 1.032813
v 1.303444 0.729688 -0.020312
v 0.946976 0.548058 1.032813
v 0.946976 0.548058 -0.020312
v 1.390625 0.461373 1.032813
v 1.390625 0.461374 -0.020312
v 0.995477 0.398788 1.032813
v 0.995477 0.398788 -0.020312
v 1.390625 0.218750 1.032812
v 1.390625 0.218750 -0.020312
v 0.995477 0.218750 -0.020312
v 0.995477 0.218750 1.032812
v -0.390625 0.218750 1.032812
v -0.390625 0.461373 1.032813
v -0.390625 0.461374 -0.020312
v -0.390625 0.218750 -0.020312
v 0.004523 0.218750 -0.020312
v 0.004523 0.398788 -0.020312
v 0.004523 0.398788 1.032813
v 0.004523 0.218750 1.032812
v -0.303444 0.729688 1.032813
v -0.303444 0.729688 -0.020312
v 0.053024 0.548058 1.032813
v 0.053024 0.548058 -0.020312
v -0.137617 0.957929 1.032813
v -0.137617 0.957930 -0.020312
v 0.145278 0.675035 1.032813
v 0.145278 0.675035 -0.020312
v 0.090625 1.123757 1.032813
v 0.090625 1.123757 -0.020312
v 0.272254 0.767288 1.032813
v 0.272254 0.767289 -0.020312
v 0.358939 1.210937 1.032813
v 0.358939 1.210938 -0.020312
v 0.421524 0.815789 1.032813
v 0.421524 0.815789 -0.020312
vt 0.562500 0.000000
vt 0.843750 0.000000
vt 0.843750 1.000000
vt 0.562500 1.000000
vt 0.906250 0.531250
vt 0.906250 0.687500
vt 0.500002 0.750000
vt 0.500000 0.468750
vt 0.500000 0.281250
vt 0.500000 0.000000
vt 0.906250 0.062500
vt 0.906250 0.218750
vt 0.718750 0.000000
vt 1.000000 0.000000
vt 1.000000 1.000000
vt 0.718750 1.000000
vt 0.906250 0.781250
vt 0.906250 0.937500
vt 0.500002 1.000000
vt 0.500000 0.718750
vt 0.000000 1.000000
vt 0.000000 0.718750
vt 0.406250 0.781250
vt 0.406250 0.937500
vt 0.000000 0.000000
vt 0.281250 0.000000
vt 0.281250 1.000000
vt 0.000000 1.000000
vt 0.406250 0.062500
vt 0.406250 0.218750
vt 0.000002 0.281250
vt 0.000000 0.750000
vt 0.000000 0.468750
vt 0.406250 0.531250
vt 0.406250 0.687500
vt 0.562500 0.000000
vt 0.562500 1.000000
vt 0.406250 0.281250
vt 0.406250 0.437500
vt 0.000002 0.500000
vt 0.000000 0.218750
vt 0.000000 0.500000
vt 0.000000 0.218750
vt 0.406250 0.281250
vt 0.406250 0.437500
vt 0.625000 0.000000
vt 0.875000 0.000000
vt 0.875000 1.000000
vt 0.625000 1.000000
vt 0.187500 1.000000
vt 0.000000 1.000000
vt 0.000000 0.000000
vt 0.187500 0.000000
vt 0.906250 0.187500
vt 0.906250 0.000000
vt 0.500000 0.000000
vt 0.500000 0.250000
vt 0.000000 0.250000
vt 0.000000 0.000000
vt 0.406250 0.000000
vt 0.406250 0.187500
vt 0.000000 0.000000
vt 0.250000 0.000000
vt 0.250000 1.000000
vt 0.000000 1.000000
vt 0.812500 1.000000
vt 0.625000 1.000000
vt 0.625000 0.000000
vt 0.812500 0.000000
vt 0.406250 0.000000
vt 0.406250 0.187500
vt 0.000000 0.250000
vt 0.500000 0.000000
vt 0.500000 0.250000
vt 0.906250 0.187500
vt 0.906250 0.000000
vt 0.531250 0.000000
vt 0.531250 1.000000
vt 0.406250 0.281250
vt 0.406250 0.437500
vt 0.000002 0.500000
vt 0.000000 0.218750
vt 0.000000 0.531250
vt 0.000000 0.250000
vt 0.406250 0.312500
vt 0.406250 0.468750
vt 0.812500 0.000000
vt 0.812500 1.000000
vt 0.406250 0.531250
vt 0.406250 0.687500
vt 0.000002 0.750000
vt 0.000000 0.468750
vt 0.000000 0.281250
vt 0.000000 0.000000
vt 0.406250 0.062500
vt 0.406250 0.218750
vt 0.718750 0.000000
vt 1.000000 0.000000
vt 1.000000 1.000000
vt 0.718750 1.000000
vt 0.406250 0.781250
vt 0.406250 0.937500
vt 0.000002 1.000000
vt 0.000000 0.718750
vt 0.500000 1.000000
vt 0.500000 0.718750
vt 0.906250 0.781250
vt 0.906250 0.937500
vt 0.000000 0.000000
vt 0.281250 0.000000
vt 0.281250 1.000000
vt 0.000000 1.000000
vt 0.906250 0.062500
vt 0.906250 0.218750
vt 0.500002 0.281250
vt 0.500000 0.000000
vt 0.500000 0.750000
vt 0.500000 0.468750
vt 0.906250 0.531250
vt 0.906250 0.687500
vt 0.906250 0.312500
vt 0.906250 0.468750
vt 0.500002 0.531250
vt 0.500000 0.250000
vt 0.500000 0.531250
vt 0.500000 0.250000
vt 0.906250 0.312500
vt 0.906250 0.468750
vt 0.000000 0.000000
vt 0.406250 0.000000
vt 0.406250 1.000000
vt 0.000000 1.000000
vt 0.593750 0.000000
vt 1.000000 0.000000
vt 1.000000 1.000000
vt 0.593750 1.000000
vn 0.3090 0.9511 0.0000
vn -0.0000 -0.0000 1.0000
vn -0.0000 0.0000 -1.0000
vn 0.5878 0.8090 0.0000
vn 0.8090 0.5878 0.0000
vn 0.9511 0.3090 0.0000
vn 1.0000 -0.0000 0.0000
vn -1.0000 0.0000 0.0000
vn -0.9511 0.3090 0.0000
vn -0.8090 0.5878 0.0000
vn -0.5878 0.8090 0.0000
vn -0.3090 0.9511 0.0000
vn 0.0000 1.0000 0.0000
vn 0.0000 -1.0000 -0.0000
usemtl m_mortar
s 1
f 1/1/1 2/2/1 3/3/1 4/4/1
f 5/5/2 6/6/2 2/7/2 1/8/2
f 4/9/3 3/10/3 7/11/3 8/12/3
f 2/13/4 9/14/4 10/15/4 3/16/4
f 6/17/2 11/18/2 9/19/2 2/20/2
f 3/21/3 10/22/3 12/23/3 7/24/3
f 9/25/5 13/26/5 14/27/5 10/28/5
f 11/29/2 15/30/2 13/31/2 9/25/2
f 10/32/3 14/33/3 16/34/3 12/35/3
f 13/26/6 17/36/6 18/37/6 14/27/6
f 15/38/2 19/39/2 17/40/2 13/41/2
f 14/42/3 18/43/3 20/44/3 16/45/3
f 17/46/7 21/47/7 22/48/7 18/49/7
f 20/50/8 23/51/8 24/52/8 19/53/8
f 19/54/2 24/55/2 21/56/2 17/57/2
f 18/58/3 22/59/3 23/60/3 20/61/3
f 25/62/8 26/63/8 27/64/8 28/65/8
f 29/66/7 30/67/7 31/68/7 32/69/7
f 32/70/2 31/71/2 26/72/2 25/62/2
f 28/73/3 27/74/3 30/75/3 29/76/3
f 26/63/9 33/77/9 34/78/9 27/64/9
f 31/79/2 35/80/2 33/81/2 26/82/2
f 27/83/3 34/84/3 36/85/3 30/86/3
f 33/77/10 37/87/10 38/88/10 34/78/10
f 35/89/2 39/90/2 37/91/2 33/92/2
f 34/93/3 38/94/3 40/95/3 36/96/3
f 37/97/11 41/98/11 42/99/11 38/100/11
f 39/101/2 43/102/2 41/103/2 37/104/2
f 38/105/3 42/106/3 44/107/3 40/108/3
f 41/109/12 45/110/12 46/111/12 42/112/12
f 43/113/2 47/114/2 45/115/2 41/116/2
f 42/117/3 46/118/3 48/119/3 44/120/3
f 45/110/13 1/1/13 4/4/13 46/111/13
f 47/121/2 5/122/2 1/123/2 45/124/2
f 46/125/3 4/126/3 8/127/3 48/128/3
f 23/129/14 22/130/14 21/131/14 24/132/14
f 32/133/14 25/134/14 28/135/14 29/136/14
o bricks
v 0.015625 0.250000 -0.051562
v 0.015625 0.406250 -0.051562
v 0.015625 0.406250 1.064063
v 0.015625 0.250000 1.064062
v -0.359375 0.250000 1.064062
v -0.359375 0.406250 1.064063
v -0.359375 0.406250 -0.051562
v -0.359375 0.250000 -0.051562
v 1.359375 0.250000 -0.051562
v 1.359375 0.406250 -0.051562
v 1.359375 0.406250 1.064063
v 1.359375 0.250000 1.064062
v 0.984375 0.250000 1.064062
v 0.984375 0.406250 1.064063
v 0.984375 0.406250 -0.051562
v 0.984375 0.250000 -0.051562
v 1.341456 0.519385 -0.051562
v 1.293172 0.667988 -0.051562
v 1.293172 0.667988 1.064063
v 1.341456 0.519385 1.064063
v 0.984810 0.403504 1.064063
v 0.936526 0.552106 1.064063
v 0.936526 0.552106 -0.051562
v 0.984810 0.403504 -0.051562
v 1.241170 0.770048 -0.051562
v 1.149328 0.896457 -0.051562
v 1.149328 0.896457 1.064063
v 1.241170 0.770048 1.064063
v 0.937788 0.549629 1.064063
v 0.845947 0.676038 1.064063
v 0.845947 0.676038 -0.051562
v 0.937788 0.549629 -0.051562
v 1.068332 0.977453 -0.051562
v 0.941923 1.069295 -0.051562
v 0.941923 1.069295 1.064063
v 1.068332 0.977453 1.064063
v 0.847913 0.674072 1.064063
v 0.721504 0.765913 1.064063
v 0.721504 0.765913 -0.051562
v 0.847913 0.674072 -0.051562
v 0.839863 1.121297 -0.051562
v 0.691260 1.169581 -0.051562
v 0.691260 1.169581 1.064063
v 0.839863 1.121297 1.064063
v 0.723981 0.764651 1.064063
v 0.575379 0.812935 1.064063
v 0.575379 0.812935 -0.051562
v 0.723981 0.764651 -0.051562
v 0.578125 1.187500 -0.051562
v 0.421875 1.187500 -0.051562
v 0.421875 1.187500 1.064063
v 0.578125 1.187500 1.064063
v 0.578125 0.812500 1.064063
v 0.421875 0.812500 1.064063
v 0.421875 0.812500 -0.051562
v 0.578125 0.812500 -0.051562
v 0.308740 1.169581 -0.051562
v 0.160137 1.121297 -0.051562
v 0.160137 1.121297 1.064063
v 0.308740 1.169581 1.064063
v 0.424621 0.812935 1.064063
v 0.276019 0.764651 1.064063
v 0.276019 0.764651 -0.051562
v 0.424621 0.812935 -0.051562
v 0.058077 1.069295 -0.051562
v -0.068332 0.977453 -0.051562
v -0.068332 0.977453 1.064063
v 0.058077 1.069295 1.064063
v 0.278496 0.765913 1.064063
v 0.152087 0.674072 1.064063
v 0.152087 0.674072 -0.051562
v 0.278496 0.765913 -0.051562
v -0.149328 0.896457 -0.051562
v -0.241170 0.770048 -0.051562
v -0.241170 0.770048 1.064063
v -0.149328 0.896457 1.064063
v 0.154053 0.676038 1.064063
v 0.062212 0.549629 1.064063
v 0.062212 0.549629 -0.051562
v 0.154053 0.676038 -0.051562
v -0.293172 0.667988 -0.051562
v -0.341456 0.519385 -0.051562
v -0.341456 0.519385 1.064063
v -0.293172 0.667988 1.064063
v 0.063474 0.552106 1.064063
v 0.015190 0.403504 1.064063
v 0.015190 0.403504 -0.051562
v 0.063474 0.552106 -0.051562
vt 1.000000 0.000000
vt 1.000000 0.156250
vt 0.000000 0.156250
vt 0.000000 0.000000
vt 0.000000 0.000000
vt 1.000000 0.000000
vt 1.000000 0.375000
vt 0.000000 0.375000
vt 0.000000 0.375000
vt 1.000000 0.375000
vt 1.000000 0.000000
vt 0.000000 0.000000
vt 1.000000 0.000000
vt 1.000000 0.156250
vt 0.000000 0.156250
vt 0.000000 0.000000
vt 0.000000 0.375000
vt 1.000000 0.375000
vt 1.000000 0.000000
vt 0.000000 0.000000
vt 0.000000 0.000000
vt 1.000000 0.000000
vt 1.000000 0.375000
vt 0.000000 0.375000
vt 1.000000 0.156250
vt 1.000000 0.312500
vt 0.000000 0.312500
vt 0.000000 0.156250
vt 0.000000 0.937500
vt 1.000000 0.937500
vt 1.000000 0.562500
vt 0.000000 0.562500
vt 0.000000 0.937500
vt 1.000000 0.937500
vt 1.000000 0.562500
vt 0.000000 0.562500
vt 1.000000 0.312500
vt 1.000000 0.468750
vt 0.000000 0.468750
vt 0.000000 0.312500
vt 0.000000 0.375000
vt 1.000000 0.375000
vt 1.000000 0.000000
vt 0.000000 0.000000
vt 0.000000 0.375000
vt 1.000000 0.375000
vt 1.000000 0.000000
vt 0.000000 0.000000
vt 1.000000 0.468750
vt 1.000000 0.625000
vt 0.000000 0.625000
vt 0.000000 0.468750
vt 0.000000 0.937500
vt 1.000000 0.937500
vt 1.000000 0.562500
vt 0.000000 0.562500
vt 0.000000 0.937500
vt 1.000000 0.937500
vt 1.000000 0.562500
vt 0.000000 0.562500
vt 1.000000 0.625000
vt 1.000000 0.781250
vt 0.000000 0.781250
vt 0.000000 0.625000
vt 0.000000 0.375000
vt 1.000000 0.375000
vt 1.000000 0.000000
vt 0.000000 0.000000
vt 0.000000 0.375000
vt 1.000000 0.375000
vt 1.000000 0.000000
vt 0.000000 0.000000
vt 1.000000 0.781250
vt 1.000000 0.937500
vt 0.000000 0.937500
vt 0.000000 0.781250
vt 0.000000 0.937500
vt 1.000000 0.937500
vt 1.000000 0.562500
vt 0.000000 0.562500
vt 0.000000 0.937500
vt 1.000000 0.937500
vt 1.000000 0.562500
vt 0.000000 0.562500
vt 1.000000 0.000000
vt 1.000000 0.156250
vt 0.000000 0.156250
vt 0.000000 0.000000
vt 0.000000 0.375000
vt 1.000000 0.375000
vt 1.000000 0.000000
vt 0.000000 0.000000
vt 0.000000 0.375000
vt 1.000000 0.375000
vt 1.000000 0.156250
vt 1.000000 0.312500
vt 0.000000 0.312500
vt 0.000000 0.156250
vt 0.000000 0.937500
vt 1.000000 0.937500
vt 1.000000 0.562500
vt 0.000000 0.562500
vt 0.000000 0.937500
vt 1.000000 0.937500
vt 1.000000 0.562500
vt 0.000000 0.562500
vt 1.000000 0.312500
vt 1.000000 0.468750
vt 0.000000 0.468750
vt 0.000000 0.312500
vt 0.000000 0.375000
vt 1.000000 0.375000
vt 1.000000 0.000000
vt 0.000000 0.000000
vt 0.000000 0.375000
vt 1.000000 0.375000
vt 1.000000 0.000000
vt 0.000000 0.000000
vt 1.000000 0.562500
vt 1.000000 0.406250
vt 0.000000 0.406250
vt 0.000000 0.562500
vt 0.000000 0.562500
vt 1.000000 0.562500
vt 1.000000 0.937500
vt 0.000000 0.937500
vt 0.000000 0.937500
vt 1.000000 0.937500
vt 1.000000 0.843750
vt 1.000000 1.000000
vt 0.000000 1.000000
vt 0.000000 0.843750
vt 0.625000 0.062500
vt 0.625000 0.218750
vt 1.000000 0.218750
vt 1.000000 0.062500
vt 0.625000 0.843750
vt 0.625000 1.000000
vt 1.000000 1.000000
vt 1.000000 0.843750
vt 1.000000 0.843750
vt 1.000000 1.000000
vt 0.000000 1.000000
vt 0.000000 0.843750
vt 0.093750 0.687500
vt 0.093750 0.843750
vt 0.468750 0.843750
vt 0.468750 0.687500
vt 0.468750 0.062500
vt 0.468750 0.218750
vt 0.093750 0.218750
vt 0.093750 0.062500
vt 1.000000 0.843750
vt 1.000000 1.000000
vt 0.000000 1.000000
vt 0.000000 0.843750
vt 0.093750 0.531250
vt 0.093750 0.687500
vt 0.468750 0.687500
vt 0.468750 0.531250
vt 0.468750 0.218750
vt 0.468750 0.375000
vt 0.093750 0.375000
vt 0.093750 0.218750
vt 1.000000 0.843750
vt 1.000000 1.000000
vt 0.000000 1.000000
vt 0.000000 0.843750
vt 0.093750 0.375000
vt 0.093750 0.531250
vt 0.468750 0.531250
vt 0.468750 0.375000
vt 0.468750 0.375000
vt 0.468750 0.531250
vt 0.093750 0.531250
vt 0.093750 0.375000
vt 1.000000 1.000000
vt 1.000000 0.843750
vt 0.000000 0.843750
vt 0.000000 1.000000
vt 0.093750 0.218750
vt 0.093750 0.375000
vt 0.468750 0.375000
vt 0.468750 0.218750
vt 0.468750 0.687500
vt 0.468750 0.531250
vt 0.093750 0.531250
vt 0.093750 0.687500
vt 1.000000 1.000000
vt 1.000000 0.843750
vt 0.000000 0.843750
vt 0.000000 1.000000
vt 0.093750 0.062500
vt 0.093750 0.218750
vt 0.468750 0.218750
vt 0.468750 0.062500
vt 0.468750 0.843750
vt 0.468750 0.687500
vt 0.093750 0.687500
vt 0.093750 0.843750
vt 1.000000 1.000000
vt 1.000000 0.843750
vt 0.000000 0.843750
vt 0.000000 1.000000
vt 0.625000 0.843750
vt 0.625000 1.000000
vt 1.000000 1.000000
vt 1.000000 0.843750
vt 0.468750 1.000000
vt 0.468750 0.843750
vt 0.093750 0.843750
vt 0.093750 1.000000
vt 1.000000 1.000000
vt 1.000000 0.843750
vt 0.000000 0.843750
vt 0.000000 1.000000
vt 0.625000 0.687500
vt 0.625000 0.843750
vt 1.000000 0.843750
vt 1.000000 0.687500
vt 1.000000 0.218750
vt 1.000000 0.062500
vt 0.625000 0.062500
vt 0.625000 0.218750
vt 1.000000 1.000000
vt 1.000000 0.843750
vt 0.000000 0.843750
vt 0.000000 1.000000
vt 0.625000 0.531250
vt 0.625000 0.687500
vt 1.000000 0.687500
vt 1.000000 0.531250
vt 1.000000 0.375000
vt 1.000000 0.218750
vt 0.625000 0.218750
vt 0.625000 0.375000
vt 1.000000 1.000000
vt 1.000000 0.843750
vt 0.000000 0.843750
vt 0.000000 1.000000
vt 0.625000 0.531250
vt 0.625000 0.375000
vt 1.000000 0.375000
vt 1.000000 0.531250
vt 1.000000 0.531250
vt 1.000000 0.375000
vt 0.625000 0.375000
vt 0.625000 0.531250
vt 1.000000 1.000000
vt 1.000000 0.843750
vt 0.000000 0.843750
vt 0.000000 1.000000
vt 0.625000 0.375000
vt 0.625000 0.218750
vt 1.000000 0.218750
vt 1.000000 0.375000
vt 1.000000 0.687500
vt 1.000000 0.531250
vt 0.625000 0.531250
vt 0.625000 0.687500
vn 1.0000 0.0000 0.0000
vn 0.0000 1.0000 0.0000
vn 0.0000 -1.0000 -0.0000
vn -1.0000 0.0000 0.0000
vn -0.9511 -0.3090 -0.0000
vn -0.3090 0.9511 0.0000
vn 0.3090 -0.9511 -0.0000
vn -0.8090 -0.5878 -0.0000
vn -0.5878 0.8090 0.0000
vn 0.5878 -0.8090 -0.0000
vn -0.5878 -0.8090 -0.0000
vn -0.8090 0.5878 0.0000
vn 0.8090 -0.5878 -0.0000
vn -0.3090 -0.9511 -0.0000
vn -0.9511 0.3090 0.0000
vn 0.9511 -0.3090 -0.0000
vn 0.9511 0.3090 0.0000
vn 0.8090 0.5878 0.0000
vn 0.5878 0.8090 0.0000
vn 0.3090 0.9511 0.0000
vn 0.0000 -0.0000 1.0000
vn 0.0000 0.0000 -1.0000
usemtl m_arch
s 1
f 49/137/15 50/138/15 51/139/15 52/140/15
f 51/141/16 50/142/16 55/143/16 54/144/16
f 49/145/17 52/146/17 53/147/17 56/148/17
f 61/149/18 62/150/18 63/151/18 64/152/18
f 59/153/16 58/154/16 63/155/16 62/156/16
f 57/157/17 60/158/17 61/159/17 64/160/17
f 69/161/19 70/162/19 71/163/19 72/164/19
f 67/165/20 66/166/20 71/167/20 70/168/20
f 65/169/21 68/170/21 69/171/21 72/172/21
f 77/173/22 78/174/22 79/175/22 80/176/22
f 75/177/23 74/178/23 79/179/23 78/180/23
f 73/181/24 76/182/24 77/183/24 80/184/24
f 85/185/25 86/186/25 87/187/25 88/188/25
f 83/189/26 82/190/26 87/191/26 86/192/26
f 81/193/27 84/194/27 85/195/27 88/196/27
f 93/197/28 94/198/28 95/199/28 96/200/28
f 91/201/29 90/202/29 95/203/29 94/204/29
f 89/205/30 92/206/30 93/207/30 96/208/30
f 101/209/17 102/210/17 103/211/17 104/212/17
f 99/213/18 98/214/18 103/215/18 102/216/18
f 97/217/15 100/218/15 101/219/15 104/220/15
f 109/221/21 110/222/21 111/223/21 112/224/21
f 107/225/19 106/226/19 111/227/19 110/228/19
f 105/229/31 108/230/31 109/221/31 112/224/31
f 117/231/24 118/232/24 119/233/24 120/234/24
f 115/235/22 114/236/22 119/237/22 118/238/22
f 113/239/32 116/240/32 117/241/32 120/242/32
f 125/243/27 126/244/27 127/245/27 128/246/27
f 123/247/25 122/248/25 127/249/25 126/250/25
f 121/251/33 124/252/33 125/253/33 128/254/33
f 133/255/30 134/256/30 135/257/30 136/258/30
f 131/259/28 130/260/28 135/261/28 134/262/28
f 129/263/34 132/264/34 133/255/34 136/258/34
usemtl m_keystones
f 53/265/18 54/266/18 55/267/18 56/268/18
f 52/269/35 51/270/35 54/271/35 53/272/35
f 56/273/36 55/274/36 50/275/36 49/276/36
f 57/277/15 58/278/15 59/279/15 60/280/15
f 60/281/35 59/282/35 62/283/35 61/284/35
f 64/285/36 63/286/36 58/287/36 57/288/36
f 65/289/31 66/290/31 67/291/31 68/292/31
f 68/293/35 67/294/35 70/295/35 69/296/35
f 72/297/36 71/298/36 66/299/36 65/300/36
f 73/301/32 74/302/32 75/303/32 76/304/32
f 76/305/35 75/306/35 78/307/35 77/308/35
f 80/309/36 79/310/36 74/311/36 73/312/36
f 81/313/33 82/314/33 83/315/33 84/316/33
f 84/317/35 83/318/35 86/319/35 85/320/35
f 88/321/36 87/322/36 82/323/36 81/324/36
f 89/325/34 90/326/34 91/327/34 92/328/34
f 92/329/35 91/330/35 94/331/35 93/332/35
f 96/333/36 95/334/36 90/335/36 89/336/36
f 97/337/16 98/338/16 99/339/16 100/340/16
f 100/341/35 99/342/35 102/343/35 101/344/35
f 104/345/36 103/346/36 98/347/36 97/348/36
f 105/349/20 106/350/20 107/351/20 108/352/20
f 108/353/35 107/354/35 110/355/35 109/356/35
f 112/357/36 111/358/36 106/359/36 105/360/36
f 113/361/23 114/362/23 115/363/23 116/364/23
f 116/365/35 115/366/35 118/367/35 117/368/35
f 120/369/36 119/370/36 114/371/36 113/372/36
f 121/373/26 122/374/26 123/375/26 124/376/26
f 124/377/35 123/378/35 126/379/35 125/380/35
f 128/381/36 127/382/36 122/383/36 121/384/36
f 129/385/29 130/386/29 131/387/29 132/388/29
f 132/389/35 131/390/35 134/391/35 133/392/35
f 136/393/36 135/394/36 130/395/36 129/396/36
