mtllib brick_arch.mtl

o arch_3_middle
v 1.1632004178901463 1.3938488207316313 -0.544310897435907
v 1.0388554743077185 0.9125000000000001 -0.5443108974359057
v 1.1632004178901463 1.3938488207316357 0.050560897435886265
v 1.0388554743077183 0.9125000000000001 0.0505608974358876
v 1.0118592989637978 1.4327066156011403 -0.544310897435907
v 0.887576043268123 0.9484019228717198 -0.5443108974359063
v 1.0118592989637976 1.4327066156011443 0.05056089743588593
v 0.8875760432681226 0.9484019228717244 0.0505608974358876
v 0.9710221045129276 1.4413868292418677 -0.5468750000000095
v 0.9710221045129271 1.4413868292418717 0.05312499999998849
v 0.8169602237206611 1.4674444459162581 -0.5468750000000095
v 0.7336384190989583 0.9744385231114328 -0.5468750000000089
v 0.8169602237206608 1.4674444459162634 0.05312499999998849
v 0.733638419098958 0.9744385231114374 0.05312499999998982
v 0.7755399095014655 1.4726770484666116 -0.5468750000000095
v 0.7755399095014651 1.4726770484666165 0.053124999999988154
v 0.6198379002437306 1.485751711487286 -0.5468750000000102
v 0.5780619892887873 0.9875026409312642 -0.5468750000000089
v 0.6198379002437304 1.485751711487291 0.05312499999998849
v 0.5780619892887872 0.987502640931269 0.05312499999998982
v -0.01185929896379223 1.4327066156011412 -0.5443108974359083
v 0.11242395673188155 0.9484019228717204 -0.5443108974359063
v -0.011859298963792897 1.4327066156011456 0.05056089743588593
v 0.11242395673188132 0.9484019228717251 0.05056089743588693
v -0.16320041789014128 1.3938488207316326 -0.544310897435907
v -0.0388554743077143 0.9125000000000001 -0.5443108974359063
v -0.16320041789014184 1.3938488207316375 0.05056089743588593
v -0.03885547430771441 0.9125000000000001 0.0505608974358876
v 0.18303977627934437 1.467444445916259 -0.5468750000000095
v 0.266361580901046 0.9744385231114328 -0.5468750000000089
v 0.18303977627934404 1.4674444459162634 0.053124999999988154
v 0.2663615809010458 0.9744385231114379 0.05312499999998982
v 0.028977895487078187 1.4413868292418681 -0.5468750000000095
v 0.02897789548707813 1.441386829241873 0.05312499999998849
v 0.38016209975627496 1.485751711487286 -0.5468750000000102
v 0.42193801071121717 0.9875026409312644 -0.5468750000000089
v 0.3801620997562746 1.485751711487291 0.053124999999988154
v 0.42193801071121695 0.9875026409312693 0.05312499999998982
v 0.22446009049853988 1.472677048466612 -0.5468750000000102
v 0.22446009049853954 1.472677048466617 0.053124999999988154
v 0.5781250000000031 1.4874999999999945 -0.5468750000000095
v 0.5781250000000027 1.4874999999999998 0.053124999999988154
v 0.42187500000000283 1.4874999999999954 -0.5468750000000102
v 0.4218750000000024 1.4874999999999998 0.05312499999998849
vt 0 0
vt 0.46875 0
vt 0.46875 0.4999999999999998
vt 0 0.4999999999999998
vt 0 0.5000000000000002
vt 0.46875 0.5000000000000002
vt 0.46875 1
vt 0 1
vt 0.5312500000000002 0.53125
vt 1 0.53125
vt 1 0.375
vt 0.5312500000000002 0.375
vt 0.4687499999999998 0.53125
vt 0 0.53125
vt 0 0.6875
vt 0.4687499999999998 0.6875
vt 0 0.375
vt 0.46875 0.375
vt 0.46875 0.53125
vt 0 0.53125
vt 0.46875 0.46875
vt 0 0.46875
vt 0 0.3125
vt 0.46875 0.3125
vt 0 0.5000000000000002
vt 0.46875 0.5000000000000002
vt 0.46875 1
vt 0 1
vt 0 0.4999999999999998
vt 0.46875 0.4999999999999998
vt 0.46875 0
vt 0 0
vt 0.5312500000000002 0.6875
vt 1 0.6875
vt 1 0.53125
vt 0.5312500000000002 0.53125
vt 0.4687499999999998 0.375
vt 0 0.375
vt 0 0.53125
vt 0.4687499999999998 0.53125
vt 0 0.0625
vt 0.46875 0.0625
vt 0.46875 0.21875
vt 0 0.21875
vt 0.46875 0.1875
vt 0 0.1875
vt 0 0.03125
vt 0.46875 0.03125
vt 0 0
vt 0.46875 0
vt 0.46875 0.4999999999999998
vt 0 0.4999999999999998
vt 0 0.4999999999999998
vt 0.46875 0.4999999999999998
vt 0.46875 0
vt 0 0
vt 0.5312500000000002 0.84375
vt 1 0.84375
vt 1 0.6875
vt 0.5312500000000002 0.6875
vt 0.4687499999999998 0.21875
vt 0 0.21875
vt 0 0.375
vt 0.4687499999999998 0.375
vt 0 0.21875
vt 0.46875 0.21875
vt 0.46875 0.375
vt 0 0.375
vt 0.46875 0.34375
vt 0 0.34375
vt 0 0.1875
vt 0.46875 0.1875
vt 0 0.5000000000000002
vt 0.46875 0.5000000000000002
vt 0.46875 1
vt 0 1
vt 0 0.4999999999999998
vt 0.46875 0.4999999999999998
vt 0.46875 0
vt 0 0
vt 0 0.53125
vt 0.4687499999999998 0.53125
vt 0.4687499999999998 0.375
vt 0 0.375
vt 1 0.53125
vt 0.5312500000000002 0.53125
vt 0.5312500000000002 0.6875
vt 1 0.6875
vt 0.46875 0.53125
vt 0 0.53125
vt 0 0.375
vt 0.46875 0.375
vt 0.46875 0.3125
vt 0 0.3125
vt 0 0.46875
vt 0.46875 0.46875
vt 0 0.5000000000000002
vt 0.46875 0.5000000000000002
vt 0.46875 1
vt 0 1
vt 0 0.4999999999999998
vt 0.46875 0.4999999999999998
vt 0.46875 0
vt 0 0
vt 0 0.375
vt 0.4687499999999998 0.375
vt 0.4687499999999998 0.21875
vt 0 0.21875
vt 1 0.6875
vt 0.5312500000000002 0.6875
vt 0.5312500000000002 0.84375
vt 1 0.84375
vt 0.46875 0.6875
vt 0 0.6875
vt 0 0.53125
vt 0.46875 0.53125
vt 0.46875 0.84375
vt 0 0.84375
vt 0 1
vt 0.46875 1
vt 0 0.5000000000000002
vt 0.46875 0.5000000000000002
vt 0.46875 1
vt 0 1
vt 0 1
vt 0.46875 1
vt 0.46875 0.5000000000000002
vt 0 0.5000000000000002
vt 0 0.21875
vt 0.4687499999999998 0.21875
vt 0.4687499999999998 0.0625
vt 0 0.0625
vt 1 0.84375
vt 0.5312500000000002 0.84375
vt 0.5312500000000002 1
vt 1 1
vt 0.46875 0.84375
vt 0 0.84375
vt 0 0.6875
vt 0.46875 0.6875
vt 0.46875 0.59375
vt 0 0.59375
vt 0 0.75
vt 0.46875 0.75
vt 0 0.5000000000000002
vt 0.46875 0.5000000000000002
vt 0.46875 1
vt 0 1
vt 0 0.4999999999999998
vt 0.46875 0.4999999999999998
vt 0.46875 0
vt 0 0
vt 0.5312500000000002 1
vt 1 1
vt 1 0.84375
vt 0.5312500000000002 0.84375
vt 0.4687499999999998 0.0625
vt 0 0.0625
vt 0 0.21875
vt 0.4687499999999998 0.21875
vt 0 0.375
vt 0.46875 0.375
vt 0.46875 0.53125
vt 0 0.53125
vt 0.46875 0.59375
vt 0 0.59375
vt 0 0.4375
vt 0.46875 0.4375
vn 0.968216025432252 -0.2501154295443867 3.614008038413093e-16
vn -0.9686144938559336 0.24856782231860594 -2.2123927130745518e-15
vn 3.5300632807900006e-15 -3.679687313558277e-15 -1
vn -1.3974367237806903e-15 3.1287743010143625e-15 1
vn 0.24868988716485754 0.9685831611286304 -7.1843432819769e-15
vn -0.23090839841567218 -0.9729754938029577 7.497439337157703e-15
vn 0.9859750126954063 -0.16689300267025378 1.8602447879956953e-15
vn -0.9860170457864416 0.166644488113404 -2.0274497944954934e-15
vn 0.015335664523847074 -0.007796230364580972 -0.9998520071419141
vn -0.0008552176138247331 -0.0050563501535424975 0.9999868508765292
vn 0.16676874671609884 0.9859960370705055 -6.444619347007632e-15
vn -0.16676874671610248 -0.9859960370705051 7.58558247515048e-15
vn 0.996482306080113 -0.08380342277771227 1.1122490931722038e-15
vn -0.996503396593028 0.08355226255798558 -1.2334225756176603e-15
vn -1.1148187081413093e-16 -1.3276021916683094e-15 -1
vn 2.402834485598685e-15 3.14036773789264e-15 1
vn 0.08367784333231632 0.9964928592495044 -8.074372873765256e-15
vn -0.08367784333231378 -0.9964928592495045 8.093727262998266e-15
vn 0.968614493855934 0.24856782231860383 -1.586863602384362e-15
vn -0.9682160254322525 -0.2501154295443843 1.1504013840140784e-15
vn 9.230529280152801e-16 -3.889455232482177e-15 -1
vn -4.9698485470501745e-16 1.9356282118707467e-15 1
vn -0.2486898871648542 0.9685831611286313 -7.509238274093558e-15
vn 0.23090839841567593 -0.9729754938029569 4.309496982549876e-17
vn 0.986017045786442 0.16664448811340143 -9.623050206224396e-16
vn -0.9859750126954069 -0.1668930026702514 1.2675609841645435e-15
vn -0.016191670064503005 -0.002736517163807659 -0.9998651615564644
vn 1.546367323337402e-15 3.6392679477737825e-15 1
vn -0.1667687467161019 0.9859960370705051 -7.390411934828306e-15
vn 0.16676874671609848 -0.9859960370705056 7.791035398082016e-15
vn 0.9965033965930281 0.08355226255798322 -2.6537418747972997e-16
vn -0.9964823060801132 -0.08380342277771037 1.2913812315401914e-16
vn 2.229637416282654e-16 -2.655204383336618e-15 -1
vn -2.787046770353251e-16 3.319005479170774e-15 1
vn -0.08367784333231328 0.9964928592495047 -8.167273942083762e-15
vn 0.08367784333231514 -0.9964928592495044 8.52056686943512e-15
vn 0.9999999920592167 -0.00012602208706219789 2.323224875264633e-16
vn -0.9999999920592167 -0.00012602208705936663 -7.392159263883148e-16
vn -1.894804402609598e-30 -1.3322746664418407e-15 -1
vn 2.131628207280296e-15 3.3304180338669442e-15 1
vn 5.6843418860808294e-15 1 -8.881784197001284e-15
vn -1.4222325548455643e-15 -1 8.141635513917831e-15
usemtl m_arch
f 4/1/1 2/2/1 1/3/1 3/4/1
f 7/5/2 5/6/2 6/7/2 8/8/2
usemtl m_keystones
f 1/9/3 2/10/3 6/11/3 5/12/3
f 4/13/4 3/14/4 7/15/4 8/16/4
f 3/17/5 1/18/5 5/19/5 7/20/5
usemtl m_arch
f 8/21/6 6/22/6 2/23/6 4/24/6
f 8/25/7 6/26/7 9/27/7 10/28/7
f 13/29/8 11/30/8 12/31/8 14/32/8
usemtl m_keystones
f 9/33/9 6/34/9 12/35/9 11/36/9
f 8/37/10 10/38/10 13/39/10 14/40/10
f 10/41/11 9/42/11 11/43/11 13/44/11
usemtl m_arch
f 14/45/12 12/46/12 6/47/12 8/48/12
f 14/49/13 12/50/13 15/51/13 16/52/13
f 19/53/14 17/54/14 18/55/14 20/56/14
usemtl m_keystones
f 15/57/15 12/58/15 18/59/15 17/60/15
f 14/61/16 16/62/16 19/63/16 20/64/16
f 16/65/17 15/66/17 17/67/17 19/68/17
usemtl m_arch
f 20/69/18 18/70/18 12/71/18 14/72/18
f 24/73/19 22/74/19 21/75/19 23/76/19
f 27/77/20 25/78/20 26/79/20 28/80/20
usemtl m_keystones
f 21/81/21 22/82/21 26/83/21 25/84/21
f 24/85/22 23/86/22 27/87/22 28/88/22
f 23/89/23 21/90/23 25/91/23 27/92/23
usemtl m_arch
f 28/93/24 26/94/24 22/95/24 24/96/24
f 32/97/25 30/98/25 29/99/25 31/100/25
f 34/101/26 33/102/26 22/103/26 24/104/26
usemtl m_keystones
f 29/105/27 30/106/27 22/107/27 33/108/27
f 32/109/28 31/110/28 34/111/28 24/112/28
f 31/113/29 29/114/29 33/115/29 34/116/29
usemtl m_arch
f 24/117/30 22/118/30 30/119/30 32/120/30
f 38/121/31 36/122/31 35/123/31 37/124/31
f 40/125/32 39/126/32 30/127/32 32/128/32
usemtl m_keystones
f 35/129/33 36/130/33 30/131/33 39/132/33
f 38/133/34 37/134/34 40/135/34 32/136/34
f 37/137/35 35/138/35 39/139/35 40/140/35
usemtl m_arch
f 32/141/36 30/142/36 36/143/36 38/144/36
f 20/145/37 18/146/37 41/147/37 42/148/37
f 44/149/38 43/150/38 36/151/38 38/152/38
usemtl m_keystones
f 41/153/39 18/154/39 36/155/39 43/156/39
f 20/157/40 42/158/40 44/159/40 38/160/40
f 42/161/41 41/162/41 43/163/41 44/164/41
usemtl m_arch
f 38/165/42 36/166/42 18/167/42 20/168/42
o arch_3_middle_inner
v 0.6577139573991669 1.5312499999999996 0.017187499999997247
v 0.6577139573991669 1.5312499999999982 -0.5109375000000027
v 0.6227203367096227 0.9973505203800639 0.017187499999997247
v 0.6227203367096227 0.9973505203800626 -0.5109375000000027
v 0.9704433426598311 1.4900783953614622 0.014794184290027157
v 0.9704433426598311 1.4900783953614605 -0.5085441842900338
v 0.8660612311432611 0.9653140838627245 0.014794184290027157
v 0.8660612311432611 0.9653140838627232 -0.5085441842900338
v 1.2751233118960497 1.4084396436546784 0.014794184290027157
v 1.2751233118960497 1.4084396436546767 -0.5085441842900338
v 1.1031387164206912 0.9017893631390361 0.014794184290027157
v 1.1031387164206912 0.9017893631390344 -0.5085441842900338
v -0.27512331189605055 1.408439643654678 0.014794184290027157
v -0.27512331189605055 1.4084396436546762 -0.5085441842900338
v -0.10313871642069161 0.9017893631390361 0.014794184290027157
v -0.10313871642069161 0.9017893631390344 -0.5085441842900338
v 0.029556657340167658 1.4900783953614618 0.014794184290027157
v 0.029556657340167658 1.49007839536146 -0.5085441842900338
v 0.13393876885673806 0.9653140838627245 0.014794184290027157
v 0.13393876885673806 0.9653140838627232 -0.5085441842900338
v 0.3422860426008337 1.5312499999999996 0.017187499999997247
v 0.3422860426008337 1.5312499999999982 -0.5109375000000027
v 0.3772796632903778 0.9973505203800639 0.017187499999997247
v 0.3772796632903778 0.9973505203800626 -0.5109375000000027
vt 0 0.6249999999999999
vt 0 0.3125
vt 0.4375 0.3125000000000001
vt 0.4375 0.625
vt 0.46875 0.84375
vt 0.46875 0.59375
vt 0 0.5625
vt 0.0000013945477076449109 0.875
vt 0 0.3125
vt 0 0
vt 0.46875 0.03125
vt 0.46875 0.28125
vt 0 0.9374999999999999
vt 0 0.625
vt 0.4375 0.6250000000000001
vt 0.4375 0.9375
vt 0 0.53125
vt 0 0.28125
vt 0.4375 0.28125
vt 0.4375 0.53125
vt 1 0.28125
vt 1 0.03125
vt 0.53125 0
vt 0.5312513945477076 0.3125
vt 0.53125 0.84375
vt 0.53125 0.53125
vt 1 0.5625
vt 1 0.8125
vt 0.4375 0.6250000000000001
vt 0.4375 0.9375
vt 0 0.9374999999999999
vt 0 0.625
vt 0.4375 0.28125
vt 0.4375 0.53125
vt 0 0.53125
vt 0 0.28125
vt 1 0.8125
vt 1 0.5625
vt 0.53125 0.53125
vt 0.5312513945477076 0.84375
vt 0.53125 0.3125
vt 0.53125 0
vt 1 0.03125
vt 1 0.28125
vt 0.4375 0.3125000000000001
vt 0.4375 0.625
vt 0 0.6249999999999999
vt 0 0.3125
vt 0.46875 0.28125
vt 0.46875 0.03125
vt 0 0
vt 0.0000013945477076449109 0.3125
vt 0 0.875
vt 0 0.5625
vt 0.46875 0.59375
vt 0.46875 0.84375
vt 0.4375 0.9374999999999999
vt 0.4375 0.625
vt 0 0.6250000000000001
vt 0 0.9375
vt 0.46875 0.5625
vt 0.46875 0.3125
vt 0 0.28125
vt 0.0000013945477076449109 0.59375
vt 0 0.59375
vt 0 0.28125
vt 0.46875 0.3125
vt 0.46875 0.5625
vt 0 0.46495624999999996
vt 0.4375 0.46495624999999996
vt 0.4375 1
vt 0 1
vt 0 0.46495624999999996
vt 0.4375 0.46495624999999996
vt 0.4375 1
vt 0 1
vn 0.13052619222005138 0.9914448613738105 -3.3627728542532993e-15
vn 0.00958379503051396 -0.0019063353580009309 0.9999522572394726
vn 0.00745748014976351 -0.0014833850312762663 -0.9999710923615067
vn 0.25881904510251996 0.9659258262890685 -3.2787035328969654e-15
vn -0.25881904510252124 -0.9659258262890683 3.2817645495436356e-15
vn 0 0 1
vn 0 0 -1
vn -0.2588190451025203 0.9659258262890685 -3.2787035328969698e-15
vn 0.25881904510252157 -0.9659258262890682 2.457947111180833e-15
vn 0 0 1
vn 0 0 -1
vn -0.130526192220052 0.9914448613738104 -2.499220912828723e-15
vn -0.009750631030837183 -0.000639090122394782 0.9999522572394726
vn -0.007587300973008896 -0.0004972979791924274 -0.9999710923615067
vn 0 1 -2.5226369316926636e-15
vn 0 0 1
vn 0 0 -1
vn 0.9469301294951058 -0.3214394653031612 1.0910554756259553e-15
vn -0.9469301294951056 -0.3214394653031621 1.0910554756259582e-15
usemtl m_mortar
f 45/169/43 49/170/43 50/171/43 46/172/43
f 47/173/44 51/174/44 49/175/44 45/176/44
f 46/177/45 50/178/45 52/179/45 48/180/45
f 49/181/46 53/182/46 54/183/46 50/184/46
f 52/185/47 56/186/47 55/187/47 51/188/47
f 51/189/48 55/190/48 53/191/48 49/192/48
f 50/193/49 54/194/49 56/195/49 52/196/49
f 57/197/50 61/198/50 62/199/50 58/200/50
f 60/201/51 64/202/51 63/203/51 59/204/51
f 59/205/52 63/206/52 61/207/52 57/208/52
f 58/209/53 62/210/53 64/211/53 60/212/53
f 61/213/54 65/214/54 66/215/54 62/216/54
f 63/217/55 67/218/55 65/219/55 61/220/55
f 62/221/56 66/222/56 68/223/56 64/224/56
f 65/225/57 45/226/57 46/227/57 66/228/57
f 67/229/58 47/230/58 45/231/58 65/232/58
f 66/233/59 46/234/59 48/235/59 68/236/59
f 55/237/60 56/238/60 54/239/60 53/240/60
f 60/241/61 59/242/61 57/243/61 58/244/61