# Blender v3.2.2 OBJ File: ''
# www.blender.org
mtllib brick_arch.mtl
o bricks_middle
v 1.038855 0.912500 1.046875
v 1.038855 0.912500 -0.040625
v 1.163200 1.393849 -0.040625
v 1.163200 1.393849 1.046875
v 1.011859 1.432706 1.046875
v 1.011859 1.432707 -0.040625
v 0.887576 0.948402 -0.040625
v 0.887576 0.948402 1.046875
v 0.971022 1.441387 -0.045312
v 0.971022 1.441387 1.051563
v 0.816960 1.467444 1.051563
v 0.816960 1.467444 -0.045312
v 0.733638 0.974439 -0.045312
v 0.733638 0.974438 1.051563
v 0.775540 1.472677 -0.045312
v 0.775540 1.472677 1.051563
v 0.619838 1.485752 1.051563
v 0.619838 1.485752 -0.045312
v 0.578062 0.987503 -0.045312
v 0.578062 0.987502 1.051563
v 0.112424 0.948402 1.046875
v 0.112424 0.948402 -0.040625
v -0.011859 1.432707 -0.040625
v -0.011859 1.432706 1.046875
v -0.163200 1.393849 1.046875
v -0.163200 1.393849 -0.040625
v -0.038855 0.912500 -0.040625
v -0.038855 0.912500 1.046875
v 0.266362 0.974438 1.051563
v 0.266362 0.974439 -0.045312
v 0.183040 1.467444 -0.045312
v 0.183040 1.467444 1.051563
v 0.028978 1.441387 1.051563
v 0.028978 1.441387 -0.045312
v 0.421938 0.987502 1.051563
v 0.421938 0.987503 -0.045312
v 0.380162 1.485752 -0.045312
v 0.380162 1.485752 1.051563
v 0.224460 1.472677 1.051563
v 0.224460 1.472677 -0.045312
v 0.578125 1.487500 -0.045312
v 0.578125 1.487500 1.051563
v 0.421875 1.487500 1.051563
v 0.421875 1.487500 -0.045312
vt 0.000000 0.000000
vt 1.000000 0.000000
vt 1.000000 0.500000
vt 0.000000 0.500000
vt 0.000000 0.500000
vt 1.000000 0.500000
vt 1.000000 1.000000
vt 0.000000 1.000000
vt 1.000000 0.468750
vt 0.000000 0.468750
vt 0.000000 0.312500
vt 1.000000 0.312500
vt 0.000000 0.500000
vt 1.000000 0.500000
vt 1.000000 1.000000
vt 0.000000 1.000000
vt 0.000000 0.500000
vt 1.000000 0.500000
vt 1.000000 0.000000
vt 0.000000 0.000000
vt 1.000000 0.187500
vt 0.000000 0.187500
vt 0.000000 0.031250
vt 1.000000 0.031250
vt 1.000000 0.500000
vt 0.000000 0.500000
vt 0.000000 0.500000
vt 1.000000 0.500000
vt 1.000000 0.000000
vt 0.000000 0.000000
vt 1.000000 0.343750
vt 0.000000 0.343750
vt 0.000000 0.500000
vt 1.000000 0.500000
vt 1.000000 1.000000
vt 0.000000 1.000000
vt 0.000000 0.500000
vt 1.000000 0.500000
vt 1.000000 0.000000
vt 0.000000 0.000000
vt 1.000000 0.312500
vt 0.000000 0.312500
vt 0.000000 0.468750
vt 1.000000 0.468750
vt 0.000000 0.500000
vt 1.000000 0.500000
vt 1.000000 1.000000
vt 0.000000 1.000000
vt 0.000000 0.500000
vt 1.000000 0.500000
vt 1.000000 0.000000
vt 0.000000 0.000000
vt 1.000000 0.843750
vt 0.000000 0.843750
vt 0.000000 1.000000
vt 1.000000 1.000000
vt 0.000000 0.500000
vt 1.000000 0.500000
vt 1.000000 1.000000
vt 0.000000 1.000000
vt 0.000000 1.000000
vt 1.000000 1.000000
vt 1.000000 0.593750
vt 0.000000 0.593750
vt 0.000000 0.750000
vt 1.000000 0.750000
vt 0.000000 0.500000
vt 1.000000 0.500000
vt 1.000000 1.000000
vt 0.000000 1.000000
vt 0.000000 0.500000
vt 1.000000 0.500000
vt 1.000000 0.000000
vt 0.000000 0.000000
vt 1.000000 0.593750
vt 0.000000 0.593750
vt 0.000000 0.437500
vt 1.000000 0.437500
vt 0.531250 0.531250
vt 1.000000 0.531250
vt 1.000000 0.375000
vt 0.531250 0.375000
vt 0.468750 0.531250
vt 0.000000 0.531250
vt 0.000000 0.687500
vt 0.468750 0.687500
vt 0.000000 0.375000
vt 1.000000 0.375000
vt 1.000000 0.531250
vt 0.000000 0.531250
vt 0.531250 0.687500
vt 1.000000 0.687500
vt 1.000000 0.531250
vt 0.531250 0.531250
vt 0.468750 0.375000
vt 0.000000 0.375000
vt 0.000000 0.531250
vt 0.468750 0.531250
vt 0.000000 0.062500
vt 1.000000 0.062500
vt 1.000000 0.218750
vt 0.000000 0.218750
vt 0.531250 0.843750
vt 1.000000 0.843750
vt 1.000000 0.687500
vt 0.531250 0.687500
vt 0.468750 0.218750
vt 0.000000 0.218750
vt 0.000000 0.375000
vt 0.468750 0.375000
vt 1.000000 0.218750
vt 1.000000 0.375000
vt 0.000000 0.531250
vt 0.468750 0.531250
vt 0.468750 0.375000
vt 0.000000 0.375000
vt 1.000000 0.531250
vt 0.531250 0.531250
vt 0.531250 0.687500
vt 1.000000 0.687500
vt 1.000000 0.531250
vt 1.000000 0.375000
vt 0.000000 0.375000
vt 0.468750 0.375000
vt 0.468750 0.218750
vt 0.000000 0.218750
vt 1.000000 0.687500
vt 0.531250 0.687500
vt 0.531250 0.843750
vt 1.000000 0.687500
vt 0.000000 0.687500
vt 0.000000 0.531250
vt 1.000000 0.531250
vt 0.000000 0.218750
vt 0.468750 0.218750
vt 0.468750 0.062500
vt 0.000000 0.062500
vt 1.000000 0.843750
vt 0.531250 0.843750
vt 0.531250 1.000000
vt 1.000000 0.843750
vt 0.000000 0.843750
vt 0.000000 0.687500
vt 1.000000 0.687500
vt 0.531250 1.000000
vt 1.000000 1.000000
vt 1.000000 0.843750
vt 0.531250 0.843750
vt 0.468750 0.062500
vt 0.000000 0.062500
vt 0.000000 0.218750
vt 0.468750 0.218750
vt 0.000000 0.375000
vt 1.000000 0.375000
vt 1.000000 0.531250
vt 0.000000 0.531250
vn 0.9682 -0.2501 -0.0000
vn -0.9686 0.2486 0.0000
vn -0.2309 -0.9730 -0.0000
vn 0.9860 -0.1669 -0.0000
vn -0.9860 0.1666 0.0000
vn -0.1668 -0.9860 -0.0000
vn 0.9965 -0.0838 -0.0000
vn -0.9965 0.0836 0.0000
vn -0.0837 -0.9965 -0.0000
vn 0.9686 0.2486 0.0000
vn -0.9682 -0.2501 -0.0000
vn 0.2309 -0.9730 -0.0000
vn 0.9860 0.1666 0.0000
vn -0.9860 -0.1669 -0.0000
vn 0.1668 -0.9860 -0.0000
vn 0.9965 0.0836 0.0000
vn -0.9965 -0.0838 -0.0000
vn 0.0837 -0.9965 -0.0000
vn 1.0000 -0.0001 -0.0000
vn -1.0000 -0.0001 -0.0000
vn 0.0000 -1.0000 -0.0000
vn -0.0000 0.0000 -1.0000
vn 0.0000 -0.0000 1.0000
vn 0.2487 0.9686 0.0000
vn 0.0280 -0.0142 -0.9995
vn -0.0016 -0.0092 1.0000
vn 0.1668 0.9860 0.0000
vn 0.0837 0.9965 0.0000
vn -0.2487 0.9686 0.0000
vn -0.0296 -0.0050 -0.9995
vn -0.1668 0.9860 0.0000
vn -0.0837 0.9965 0.0000
vn 0.0000 1.0000 0.0000
usemtl m_arch
s 1
f 1/1/1 2/2/1 3/3/1 4/4/1
f 5/5/2 6/6/2 7/7/2 8/8/2
f 8/9/3 7/10/3 2/11/3 1/12/3
f 8/13/4 7/14/4 9/15/4 10/16/4
f 11/17/5 12/18/5 13/19/5 14/20/5
f 14/21/6 13/22/6 7/23/6 8/24/6
f 14/20/7 13/19/7 15/25/7 16/26/7
f 17/27/8 18/28/8 19/29/8 20/30/8
f 20/31/9 19/32/9 13/22/9 14/21/9
f 21/33/10 22/34/10 23/35/10 24/36/10
f 25/37/11 26/38/11 27/39/11 28/40/11
f 28/41/12 27/42/12 22/43/12 21/44/12
f 29/45/13 30/46/13 31/47/13 32/48/13
f 33/49/14 34/50/14 22/51/14 21/52/14
f 21/53/15 22/54/15 30/55/15 29/56/15
f 35/57/16 36/58/16 37/59/16 38/60/16
f 39/61/17 40/62/17 30/46/17 29/45/17
f 29/63/18 30/64/18 36/65/18 35/66/18
f 20/67/19 19/68/19 41/69/19 42/70/19
f 43/71/20 44/72/20 36/73/20 35/74/20
f 35/75/21 36/76/21 19/77/21 20/78/21
usemtl m_keystones
f 3/79/22 2/80/22 7/81/22 6/82/22
f 1/83/23 4/84/23 5/85/23 8/86/23
f 4/87/24 3/88/24 6/89/24 5/90/24
f 9/91/25 7/92/25 13/93/25 12/94/25
f 8/95/26 10/96/26 11/97/26 14/98/26
f 10/99/27 9/100/27 12/101/27 11/102/27
f 15/103/22 13/104/22 19/105/22 18/106/22
f 14/107/23 16/108/23 17/109/23 20/110/23
f 16/108/28 15/111/28 18/112/28 17/109/28
f 23/113/22 22/114/22 27/115/22 26/116/22
f 21/117/23 24/118/23 25/119/23 28/120/23
f 24/121/29 23/113/29 26/116/29 25/122/29
f 31/123/30 30/124/30 22/125/30 34/126/30
f 29/127/23 32/128/23 33/129/23 21/53/23
f 32/130/31 31/131/31 34/132/31 33/133/31
f 37/134/22 36/135/22 30/136/22 40/137/22
f 35/138/23 38/139/23 39/140/23 29/56/23
f 38/141/32 37/142/32 40/143/32 39/144/32
f 41/145/22 19/146/22 36/147/22 44/148/22
f 20/149/23 42/150/23 43/151/23 35/152/23
f 42/153/33 41/154/33 44/155/33 43/156/33
o mortar_middle
v 0.657714 1.531250 1.020313
v 0.970443 1.490078 1.015625
v 0.970443 1.490078 -0.009375
v 0.657714 1.531250 -0.014062
v 0.622720 0.997350 1.020313
v 0.866061 0.965314 1.015625
v 0.866061 0.965314 -0.009375
v 0.622720 0.997351 -0.014062
v 1.275123 1.408440 1.015625
v 1.275123 1.408440 -0.009375
v 1.103139 0.901789 -0.009375
v 1.103139 0.901789 1.015625
v -0.275123 1.408440 1.015625
v 0.029557 1.490078 1.015625
v 0.029557 1.490078 -0.009375
v -0.275123 1.408440 -0.009375
v -0.103139 0.901789 -0.009375
v 0.133939 0.965314 -0.009375
v 0.133939 0.965314 1.015625
v -0.103139 0.901789 1.015625
v 0.342286 1.531250 1.020313
v 0.342286 1.531250 -0.014062
v 0.377280 0.997350 1.020313
v 0.377280 0.997351 -0.014062
vt 0.000000 0.625000
vt 0.000000 0.312500
vt 1.000000 0.312500
vt 1.000000 0.625000
vt 0.468750 0.843750
vt 0.468750 0.593750
vt 0.000000 0.562500
vt 0.000001 0.875000
vt 0.000000 0.312500
vt 0.000000 0.000000
vt 0.468750 0.031250
vt 0.468750 0.281250
vt 0.000000 0.937500
vt 0.000000 0.625000
vt 1.000000 0.625000
vt 1.000000 0.937500
vt 0.000000 0.531250
vt 0.000000 0.281250
vt 1.000000 0.281250
vt 1.000000 0.531250
vt 1.000000 0.281250
vt 1.000000 0.031250
vt 0.531250 0.000000
vt 0.531251 0.312500
vt 0.531250 0.843750
vt 0.531250 0.531250
vt 1.000000 0.562500
vt 1.000000 0.812500
vt 1.000000 0.625000
vt 1.000000 0.937500
vt 0.000000 0.937500
vt 0.000000 0.625000
vt 1.000000 0.281250
vt 1.000000 0.531250
vt 0.000000 0.531250
vt 0.000000 0.281250
vt 1.000000 0.812500
vt 1.000000 0.562500
vt 0.531250 0.531250
vt 0.531251 0.843750
vt 0.531250 0.312500
vt 0.531250 0.000000
vt 1.000000 0.031250
vt 1.000000 0.312500
vt 1.000000 0.625000
vt 0.000000 0.625000
vt 0.000000 0.312500
vt 0.468750 0.281250
vt 0.468750 0.031250
vt 0.000000 0.000000
vt 0.000001 0.312500
vt 0.000000 0.875000
vt 0.000000 0.562500
vt 0.468750 0.593750
vt 0.468750 0.843750
vt 1.000000 0.937500
vt 1.000000 0.625000
vt 0.000000 0.625000
vt 0.000000 0.937500
vt 0.468750 0.562500
vt 0.468750 0.312500
vt 0.000000 0.281250
vt 0.000001 0.593750
vt 0.000000 0.593750
vt 0.000000 0.281250
vt 0.468750 0.312500
vt 0.468750 0.562500
vt 0.000000 0.464956
vt 1.000000 0.464956
vt 1.000000 1.000000
vt 0.000000 1.000000
vt 0.000000 0.464956
vt 1.000000 0.464956
vt 1.000000 1.000000
vt 0.000000 1.000000
vn 0.1305 0.9914 0.0000
vn 0.0188 -0.0038 0.9998
vn 0.0146 -0.0029 -0.9999
vn 0.2588 0.9659 0.0000
vn -0.2588 -0.9659 -0.0000
vn 0.0000 -0.0000 1.0000
vn -0.0000 0.0000 -1.0000
vn -0.2588 0.9659 0.0000
vn 0.2588 -0.9659 -0.0000
vn -0.1305 0.9914 0.0000
vn -0.0191 -0.0012 0.9998
vn -0.0148 -0.0010 -0.9999
vn 0.0000 1.0000 0.0000
vn 0.9469 -0.3214 -0.0000
vn -0.9469 -0.3214 -0.0000
usemtl m_mortar
s 1
f 45/157/34 46/158/34 47/159/34 48/160/34
f 49/161/35 50/162/35 46/163/35 45/164/35
f 48/165/36 47/166/36 51/167/36 52/168/36
f 46/169/37 53/170/37 54/171/37 47/172/37
f 51/173/38 55/174/38 56/175/38 50/176/38
f 50/177/39 56/178/39 53/179/39 46/180/39
f 47/181/40 54/182/40 55/183/40 51/184/40
f 57/185/41 58/186/41 59/187/41 60/188/41
f 61/189/42 62/190/42 63/191/42 64/192/42
f 64/193/39 63/194/39 58/195/39 57/196/39
f 60/197/40 59/198/40 62/199/40 61/189/40
f 58/200/43 65/201/43 66/202/43 59/203/43
f 63/204/44 67/205/44 65/206/44 58/207/44
f 59/208/45 66/209/45 68/210/45 62/211/45
f 65/212/46 45/213/46 48/214/46 66/215/46
f 67/216/39 49/217/39 45/218/39 65/219/39
f 66/220/40 48/221/40 52/222/40 68/223/40
f 56/224/47 55/225/47 54/226/47 53/227/47
f 61/228/48 64/229/48 57/230/48 60/231/48
