# Blender v3.2.2 OBJ File: ''
# www.blender.org
mtllib brick_arch.mtl
o bricks
v 0.967357 -0.593725 1.073437
v 0.967357 -0.593725 -0.067188
v 1.581105 -0.593725 -0.067188
v 1.581105 -0.593725 1.073437
v 1.581105 -0.439775 1.073437
v 1.581105 -0.439774 -0.067188
v 0.967332 -0.439296 -0.067188
v 0.967332 -0.439296 1.073437
v 0.163994 0.801874 1.073438
v 0.163994 0.801874 -0.067187
v 0.413202 1.364654 -0.067187
v 0.413202 1.364654 1.073438
v 0.273031 1.427271 1.073438
v 0.273031 1.427271 -0.067187
v 0.022951 0.864881 -0.067187
v 0.022951 0.864880 1.073438
v 0.297700 0.724421 1.073438
v 0.297700 0.724421 -0.067187
v 0.604173 1.257981 -0.067187
v 0.604173 1.257981 1.073438
v 0.471293 1.334956 1.073438
v 0.471293 1.334957 -0.067187
v 0.422604 0.633369 1.073438
v 0.422604 0.633369 -0.067187
v 0.782985 1.131864 -0.067187
v 0.782985 1.131864 1.073438
v 0.658852 1.222354 1.073438
v 0.658852 1.222354 -0.067187
v 0.537338 0.529716 1.073438
v 0.537338 0.529716 -0.067187
v 0.947678 0.987684 -0.067187
v 0.947678 0.987684 1.073438
v 0.833652 1.090697 1.073438
v 0.833652 1.090697 -0.067187
v 0.640645 0.414598 1.073438
v 0.640645 0.414598 -0.067187
v 1.096449 0.827022 -0.067187
v 1.096449 0.827022 1.073438
v 0.993779 0.941429 1.073438
v 0.993779 0.941429 -0.067187
v 0.731394 0.289276 1.073437
v 0.731394 0.289276 -0.067187
v 1.227666 0.651636 -0.067187
v 1.227666 0.651636 1.073438
v 1.137478 0.776185 1.073438
v 1.137478 0.776185 -0.067187
v 0.808589 0.155123 1.073437
v 0.808589 0.155123 -0.067187
v 1.339893 0.463450 -0.067187
v 1.339893 0.463450 1.073438
v 1.263175 0.596775 1.073438
v 1.263175 0.596775 -0.067187
v 0.871385 0.013608 1.073437
v 0.871385 0.013609 -0.067188
v 1.431900 0.264525 -0.067187
v 1.431900 0.264524 1.073437
v 1.369492 0.405165 1.073438
v 1.369492 0.405165 -0.067187
v 0.919094 -0.133717 1.073437
v 0.919094 -0.133717 -0.067188
v 1.502679 0.057039 -0.067187
v 1.502679 0.057039 1.073437
v 1.455265 0.203454 1.073437
v 1.455265 0.203455 -0.067187
v 0.951194 -0.285238 1.073437
v 0.951194 -0.285238 -0.067188
v 1.551455 -0.156733 -0.067188
v 1.551455 -0.156733 1.073437
v 1.519554 -0.006147 1.073437
v 1.519554 -0.006147 -0.067188
v 1.577692 -0.374449 -0.067188
v 1.577692 -0.374449 1.073437
v 1.561654 -0.221342 1.073437
v 1.561654 -0.221342 -0.067188
v 0.212164 1.450714 -0.067187
v 0.212164 1.450714 1.073438
v 0.066237 1.498287 1.073438
v 0.066237 1.498287 -0.067187
v -0.123421 0.912625 -0.067187
v -0.123421 0.912625 1.073438
vt 0.000000 0.625000
vt 1.000000 0.625000
vt 1.000000 0.000000
vt 0.000000 0.000000
vt 0.000000 0.000000
vt 1.000000 0.000000
vt 1.000000 0.625000
vt 0.000000 0.625000
vt 0.000000 0.156250
vt 1.000000 0.156250
vt 1.000000 0.000000
vt 0.000000 0.000000
vt 0.000000 0.375000
vt 1.000000 0.375000
vt 1.000000 1.000000
vt 0.000000 1.000000
vt 0.000000 0.375000
vt 1.000000 0.375000
vt 1.000000 1.000000
vt 0.000000 1.000000
vt 0.000000 0.937500
vt 1.000000 0.937500
vt 1.000000 0.781250
vt 0.000000 0.781250
vt 0.000000 0.000000
vt 1.000000 0.000000
vt 1.000000 0.625000
vt 0.000000 0.625000
vt 0.000000 0.000000
vt 1.000000 0.000000
vt 1.000000 0.625000
vt 0.000000 0.625000
vt 1.000000 0.625000
vt 0.000000 0.625000
vt 0.000000 0.375000
vt 1.000000 0.375000
vt 1.000000 1.000000
vt 0.000000 1.000000
vt 0.000000 0.375000
vt 1.000000 0.375000
vt 1.000000 1.000000
vt 0.000000 1.000000
vt 1.000000 0.468750
vt 0.000000 0.468750
vt 0.000000 0.000000
vt 1.000000 0.000000
vt 1.000000 0.625000
vt 0.000000 0.625000
vt 0.000000 0.000000
vt 1.000000 0.000000
vt 1.000000 0.625000
vt 0.000000 0.625000
vt 1.000000 0.312500
vt 0.000000 0.312500
vt 0.000000 0.375000
vt 1.000000 0.375000
vt 1.000000 1.000000
vt 0.000000 1.000000
vt 0.000000 0.375000
vt 1.000000 0.375000
vt 1.000000 1.000000
vt 0.000000 1.000000
vt 1.000000 0.156250
vt 0.000000 0.156250
vt 0.000000 0.000000
vt 1.000000 0.000000
vt 1.000000 0.625000
vt 0.000000 0.625000
vt 0.000000 0.000000
vt 1.000000 0.000000
vt 1.000000 0.625000
vt 0.000000 0.625000
vt 0.000000 0.375000
vt 1.000000 0.375000
vt 1.000000 1.000000
vt 0.000000 1.000000
vt 0.000000 0.375000
vt 1.000000 0.375000
vt 1.000000 1.000000
vt 0.000000 1.000000
vt 0.000000 0.937500
vt 1.000000 0.937500
vt 1.000000 0.781250
vt 0.000000 0.781250
vt 0.000000 0.000000
vt 1.000000 0.000000
vt 1.000000 0.625000
vt 0.000000 0.625000
vt 0.000000 0.000000
vt 1.000000 0.000000
vt 1.000000 0.625000
vt 0.000000 0.625000
vt 1.000000 0.625000
vt 0.000000 0.625000
vt 0.000000 0.375000
vt 1.000000 0.375000
vt 1.000000 1.000000
vt 0.000000 1.000000
vt 0.000000 0.375000
vt 1.000000 0.375000
vt 1.000000 1.000000
vt 0.000000 1.000000
vt 1.000000 0.468750
vt 0.000000 0.468750
vt 0.000000 0.000000
vt 1.000000 0.000000
vt 1.000000 0.625000
vt 0.000000 0.625000
vt 0.000000 0.000000
vt 1.000000 0.000000
vt 1.000000 0.625000
vt 0.000000 0.625000
vt 1.000000 0.312500
vt 0.000000 0.312500
vt 0.000000 0.375000
vt 1.000000 0.375000
vt 1.000000 1.000000
vt 0.000000 1.000000
vt 0.000000 0.375000
vt 1.000000 0.375000
vt 1.000000 1.000000
vt 0.000000 1.000000
vt 0.000000 0.000000
vt 1.000000 0.000000
vt 1.000000 0.625000
vt 0.000000 0.625000
vt 0.000000 0.000000
vt 1.000000 0.000000
vt 1.000000 0.625000
vt 0.000000 0.625000
vt 0.000000 0.156250
vt 1.000000 0.156250
vt 0.000000 0.062500
vt 0.468731 0.062500
vt 0.468750 0.218750
vt 0.000000 0.218264
vt 0.468750 0.218750
vt 0.000019 0.218750
vt 0.000000 0.375000
vt 0.468750 0.374514
vt 1.000000 0.156250
vt 0.000000 0.156250
vt 0.531250 1.000000
vt 0.999981 1.000000
vt 1.000000 0.843750
vt 0.531250 0.844236
vt 0.468750 0.375000
vt 0.000019 0.375000
vt 0.000000 0.531250
vt 0.468750 0.530764
vt 0.000000 0.000000
vt 1.000000 0.000000
vt 1.000000 0.156250
vt 0.000000 0.156250
vt 0.531250 0.843750
vt 0.999981 0.843750
vt 1.000000 0.687500
vt 0.531250 0.687986
vt 0.468750 0.531250
vt 0.000019 0.531250
vt 0.000000 0.687500
vt 0.468750 0.687014
vt 0.000000 0.000000
vt 1.000000 0.000000
vt 1.000000 0.156250
vt 0.000000 0.156250
vt 0.531250 0.687500
vt 0.999981 0.687500
vt 1.000000 0.531250
vt 0.531250 0.531736
vt 0.468750 0.687500
vt 0.000019 0.687500
vt 0.000000 0.843750
vt 0.468750 0.843264
vt 0.000000 0.000000
vt 1.000000 0.000000
vt 1.000000 0.156250
vt 0.000000 0.156250
vt 0.531250 0.531250
vt 0.999981 0.531250
vt 0.531250 0.375486
vt 0.468750 0.843750
vt 0.000019 0.843750
vt 0.000000 1.000000
vt 0.468750 0.999514
vt 0.000000 0.000000
vt 1.000000 0.000000
vt 1.000000 0.156250
vt 0.000000 0.156250
vt 0.531250 0.218750
vt 0.999981 0.218750
vt 1.000000 0.375000
vt 0.531250 0.374514
vt 1.000000 0.062500
vt 0.531269 0.062500
vt 0.531250 0.218750
vt 1.000000 0.218264
vt 0.000000 0.000000
vt 1.000000 0.000000
vt 1.000000 0.156250
vt 0.000000 0.156250
vt 0.531250 0.062500
vt 0.999981 0.062500
vt 0.531250 0.218264
vt 1.000000 0.218750
vt 0.531269 0.218750
vt 0.531250 0.375000
vt 1.000000 0.374514
vt 0.000000 0.000000
vt 1.000000 0.000000
vt 1.000000 0.156250
vt 0.000000 0.156250
vt 0.000000 0.843750
vt 0.468731 0.843750
vt 0.468750 1.000000
vt 0.000000 0.999514
vt 1.000000 0.375000
vt 0.531269 0.375000
vt 0.531250 0.531250
vt 1.000000 0.530764
vt 0.000000 0.000000
vt 1.000000 0.000000
vt 1.000000 0.156250
vt 0.000000 0.156250
vt 0.000000 0.687500
vt 0.468731 0.687500
vt 0.468750 0.843750
vt 0.000000 0.843264
vt 1.000000 0.531250
vt 0.531269 0.531250
vt 0.531250 0.687500
vt 1.000000 0.687014
vt 0.000000 0.000000
vt 1.000000 0.000000
vt 1.000000 0.156250
vt 0.000000 0.156250
vt 0.000000 0.531250
vt 0.468731 0.531250
vt 0.468750 0.687500
vt 0.000000 0.687014
vt 1.000000 0.687500
vt 0.531269 0.687500
vt 0.531250 0.843750
vt 1.000000 0.843264
vt 0.000000 0.000000
vt 1.000000 0.000000
vt 1.000000 0.156250
vt 0.000000 0.156250
vt 0.000000 0.375000
vt 0.468731 0.375000
vt 0.468750 0.531250
vt 0.000000 0.530764
vt 1.000000 0.843750
vt 0.531269 0.843750
vt 0.531250 1.000000
vt 1.000000 0.999514
vt 0.000000 0.000000
vt 1.000000 0.000000
vt 1.000000 0.156250
vt 0.000000 0.156250
vt 0.000000 0.218750
vt 0.468731 0.218750
vt 0.468750 0.375000
vt 0.000000 0.374514
vt 0.468750 0.062500
vt 0.000019 0.062500
vt 0.000000 0.218750
vt 0.468750 0.218264
vt 0.000000 0.000000
vt 1.000000 0.000000
vt 1.000000 0.156250
vt 0.000000 0.156250
vt 0.000000 0.218750
vt 0.468731 0.218750
vt 0.468750 0.062500
vt 0.000000 0.062986
vt 0.468750 0.218750
vt 0.000019 0.218750
vt 0.000000 0.375000
vt 0.468750 0.374514
vt 0.000000 0.000000
vt 1.000000 0.000000
vt 1.000000 0.156250
vt 0.000000 0.156250
vn 0.0000 -1.0000 -0.0000
vn 0.0008 1.0000 0.0000
vn -1.0000 -0.0002 -0.0000
vn 0.9144 -0.4049 -0.0000
vn -0.9137 0.4063 0.0000
vn -0.4079 -0.9130 -0.0000
vn 0.8671 -0.4981 -0.0000
vn -0.8664 0.4994 0.0000
vn -0.5013 -0.8653 -0.0000
vn 0.8104 -0.5859 -0.0000
vn -0.8095 0.5871 0.0000
vn -0.5891 -0.8081 -0.0000
vn 0.7448 -0.6673 -0.0000
vn -0.7437 0.6685 0.0000
vn -0.6704 -0.7420 -0.0000
vn 0.6709 -0.7415 -0.0000
vn -0.6698 0.7426 0.0000
vn -0.7443 -0.6679 -0.0000
vn 0.5897 -0.8076 -0.0000
vn -0.5884 0.8085 0.0000
vn -0.8099 -0.5865 -0.0000
vn 0.5019 -0.8649 -0.0000
vn -0.5006 0.8657 0.0000
vn -0.8667 -0.4987 -0.0000
vn 0.4086 -0.9127 -0.0000
vn -0.4072 0.9134 0.0000
vn -0.9140 -0.4056 -0.0000
vn 0.3107 -0.9505 -0.0000
vn -0.3092 0.9510 0.0000
vn -0.9514 -0.3081 -0.0000
vn 0.2093 -0.9778 -0.0000
vn -0.2078 0.9782 0.0000
vn -0.9783 -0.2072 -0.0000
vn 0.1056 -0.9944 -0.0000
vn -0.1041 0.9946 0.0000
vn -0.9946 -0.1042 -0.0000
vn 0.9516 -0.3073 -0.0000
vn -0.9514 0.3081 0.0000
vn -0.3101 -0.9507 -0.0000
vn -0.0000 0.0000 -1.0000
vn -0.0000 0.0000 1.0000
vn 1.0000 0.0000 0.0000
vn 0.4079 0.9130 0.0000
vn 0.5013 0.8653 0.0000
vn 0.5891 0.8081 0.0000
vn 0.6704 0.7420 0.0000
vn 0.7443 0.6679 0.0000
vn 0.8099 0.5865 0.0000
vn 0.8667 0.4987 0.0000
vn 0.9140 0.4056 0.0000
vn 0.9514 0.3081 0.0000
vn 0.9783 0.2072 0.0000
vn 0.9946 0.1042 0.0000
vn 0.3100 0.9508 0.0000
usemtl m_arch
s 1
f 1/1/1 2/2/1 3/3/1 4/4/1
f 5/5/2 6/6/2 7/7/2 8/8/2
f 8/9/3 7/10/3 2/11/3 1/12/3
f 9/13/4 10/14/4 11/15/4 12/16/4
f 13/17/5 14/18/5 15/19/5 16/20/5
f 16/21/6 15/22/6 10/23/6 9/24/6
f 17/25/7 18/26/7 19/27/7 20/28/7
f 21/29/8 22/30/8 10/31/8 9/32/8
f 9/24/9 10/23/9 18/33/9 17/34/9
f 23/35/10 24/36/10 25/37/10 26/38/10
f 27/39/11 28/40/11 18/41/11 17/42/11
f 17/34/12 18/33/12 24/43/12 23/44/12
f 29/45/13 30/46/13 31/47/13 32/48/13
f 33/49/14 34/50/14 24/51/14 23/52/14
f 23/44/15 24/43/15 30/53/15 29/54/15
f 35/55/16 36/56/16 37/57/16 38/58/16
f 39/59/17 40/60/17 30/61/17 29/62/17
f 29/54/18 30/53/18 36/63/18 35/64/18
f 41/65/19 42/66/19 43/67/19 44/68/19
f 45/69/20 46/70/20 36/71/20 35/72/20
f 35/64/21 36/63/21 42/66/21 41/65/21
f 47/73/22 48/74/22 49/75/22 50/76/22
f 51/77/23 52/78/23 42/79/23 41/80/23
f 41/81/24 42/82/24 48/83/24 47/84/24
f 53/85/25 54/86/25 55/87/25 56/88/25
f 57/89/26 58/90/26 48/91/26 47/92/26
f 47/84/27 48/83/27 54/93/27 53/94/27
f 59/95/28 60/96/28 61/97/28 62/98/28
f 63/99/29 64/100/29 54/101/29 53/102/29
f 53/94/30 54/93/30 60/103/30 59/104/30
f 65/105/31 66/106/31 67/107/31 68/108/31
f 69/109/32 70/110/32 60/111/32 59/112/32
f 59/104/33 60/103/33 66/113/33 65/114/33
f 8/115/34 7/116/34 71/117/34 72/118/34
f 73/119/35 74/120/35 66/121/35 65/122/35
f 65/114/36 66/113/36 7/10/36 8/9/36
f 16/123/37 15/124/37 75/125/37 76/126/37
f 77/127/38 78/128/38 79/129/38 80/130/38
f 80/131/39 79/132/39 15/124/39 16/123/39
usemtl m_keystones
f 3/133/40 2/134/40 7/135/40 6/136/40
f 1/137/41 4/138/41 5/139/41 8/140/41
f 4/4/42 3/3/42 6/141/42 5/142/42
f 11/143/40 10/144/40 15/145/40 14/146/40
f 9/147/41 12/148/41 13/149/41 16/150/41
f 12/151/43 11/152/43 14/153/43 13/154/43
f 19/155/40 18/156/40 10/157/40 22/158/40
f 17/159/41 20/160/41 21/161/41 9/162/41
f 20/163/44 19/164/44 22/165/44 21/166/44
f 25/167/40 24/168/40 18/169/40 28/170/40
f 23/171/41 26/172/41 27/173/41 17/174/41
f 26/175/45 25/176/45 28/177/45 27/178/45
f 31/179/40 30/180/40 24/36/40 34/181/40
f 29/182/41 32/183/41 33/184/41 23/185/41
f 32/186/46 31/187/46 34/188/46 33/189/46
f 37/190/40 36/191/40 30/192/40 40/193/40
f 35/194/41 38/195/41 39/196/41 29/197/41
f 38/198/47 37/199/47 40/200/47 39/201/47
f 43/202/40 42/203/40 36/191/40 46/204/40
f 41/205/41 44/206/41 45/207/41 35/208/41
f 44/209/48 43/210/48 46/211/48 45/212/48
f 49/213/40 48/214/40 42/215/40 52/216/40
f 47/217/41 50/218/41 51/219/41 41/220/41
f 50/221/49 49/222/49 52/223/49 51/224/49
f 55/225/40 54/226/40 48/227/40 58/228/40
f 53/229/41 56/230/41 57/231/41 47/232/41
f 56/233/50 55/234/50 58/235/50 57/236/50
f 61/237/40 60/238/40 54/239/40 64/240/40
f 59/241/41 62/242/41 63/243/41 53/244/41
f 62/245/51 61/246/51 64/247/51 63/248/51
f 67/249/40 66/250/40 60/251/40 70/252/40
f 65/253/41 68/254/41 69/255/41 59/256/41
f 68/257/52 67/258/52 70/259/52 69/260/52
f 71/261/40 7/262/40 66/263/40 74/264/40
f 8/265/41 72/266/41 73/267/41 65/268/41
f 72/269/53 71/270/53 74/271/53 73/272/53
f 75/273/40 15/274/40 79/275/40 78/276/40
f 16/277/41 76/278/41 77/279/41 80/280/41
f 76/281/54 75/282/54 78/283/54 77/284/54
o mortar
v 0.201046 1.501277 1.042188
v 0.630553 1.293505 1.042188
v 0.630553 1.293505 -0.035937
v 0.201046 1.501277 -0.035937
v -0.008499 0.899734 1.042188
v 0.293006 0.753883 1.042188
v 0.293006 0.753883 -0.035937
v -0.008499 0.899735 -0.035937
v 1.003265 0.994938 1.042188
v 1.003265 0.994939 -0.035937
v 0.554643 0.544295 1.042188
v 0.554643 0.544295 -0.035937
v 1.300494 0.620547 1.042188
v 1.300494 0.620548 -0.035937
v 0.763291 0.281480 1.042187
v 0.763291 0.281480 -0.035937
v 1.507333 0.189106 1.042187
v 1.507333 0.189106 -0.035937
v 0.908488 -0.021383 1.042187
v 0.908488 -0.021383 -0.035938
v 1.613413 -0.277752 1.042187
v 1.613413 -0.277752 -0.035938
v 0.982954 -0.349108 1.042187
v 0.982954 -0.349108 -0.035938
v 1.613413 -0.624975 1.042187
v 1.613413 -0.624975 -0.035938
v 0.982954 -0.624975 -0.035938
v 0.982954 -0.624975 1.042187
vt 0.000000 0.468750
vt 0.000000 0.000000
vt 1.000000 0.000000
vt 1.000000 0.468750
vt 1.000000 0.406250
vt 1.000000 0.062500
vt 0.500000 0.000000
vt 0.500002 0.468750
vt 0.000000 0.468750
vt 0.000000 0.000000
vt 0.500000 0.062500
vt 0.499998 0.406250
vt 0.000000 0.562500
vt 0.000000 0.093750
vt 1.000000 0.093750
vt 1.000000 0.562500
vt 1.000000 0.937500
vt 1.000000 0.593750
vt 0.500000 0.531250
vt 0.500002 1.000000
vt 0.000000 1.000000
vt 0.000000 0.531250
vt 0.500000 0.593750
vt 0.499998 0.937500
vt 0.000000 1.000000
vt 0.000000 0.531250
vt 1.000000 0.531250
vt 1.000000 1.000000
vt 0.500000 0.937500
vt 0.500000 0.593750
vt 0.500000 1.000000
vt 0.500000 0.531250
vt 1.000000 0.593750
vt 0.999998 0.937500
vt 0.000000 0.468750
vt 0.000000 0.000000
vt 1.000000 0.000000
vt 1.000000 0.468750
vt 0.500000 0.406250
vt 0.500000 0.062500
vt 0.500000 0.468750
vt 0.500000 0.000000
vt 1.000000 0.062500
vt 0.999998 0.406250
vt 0.000000 0.812500
vt 0.000000 0.343750
vt 1.000000 0.343750
vt 1.000000 0.812500
vt 1.000000 0.687500
vt 1.000000 0.343750
vt 0.500000 0.281250
vt 0.500002 0.750000
vt 0.000000 0.750000
vt 0.000000 0.281250
vt 0.500000 0.343750
vt 0.499998 0.687500
vt 0.000000 0.000000
vt 1.000000 0.000000
vt 1.000000 0.281250
vt 1.000000 0.000000
vt 0.000000 0.000000
vt 0.000000 0.281250
vt 1.000000 0.281250
vt 1.000000 0.000000
vt 0.500000 0.000000
vt 0.500000 0.343750
vt 0.000000 0.343750
vt 0.000000 0.000000
vt 0.500000 0.000000
vt 0.500000 0.281250
vt 0.000000 1.000000
vt 0.000000 0.375000
vt 1.000000 0.375000
vt 1.000000 1.000000
vt 0.000000 0.625000
vt 0.000000 0.000000
vt 1.000000 0.000000
vt 1.000000 0.625000
vn 0.4355 0.9002 0.0000
vn 0.0000 -0.0000 1.0000
vn -0.0000 0.0000 -1.0000
vn 0.6252 0.7805 0.0000
vn 0.7832 0.6218 0.0000
vn 0.9017 0.4323 0.0000
vn 0.9751 0.2216 0.0000
vn 1.0000 0.0000 0.0000
vn -1.0000 0.0000 0.0000
vn 0.0000 -1.0000 -0.0000
vn -0.9443 0.3290 0.0000
usemtl m_mortar
s 1
f 81/285/55 82/286/55 83/287/55 84/288/55
f 85/289/56 86/290/56 82/291/56 81/292/56
f 84/293/57 83/294/57 87/295/57 88/296/57
f 82/297/58 89/298/58 90/299/58 83/300/58
f 86/301/56 91/302/56 89/303/56 82/304/56
f 83/305/57 90/306/57 92/307/57 87/308/57
f 89/309/59 93/310/59 94/311/59 90/312/59
f 91/313/56 95/314/56 93/310/56 89/309/56
f 90/315/57 94/316/57 96/317/57 92/318/57
f 93/319/60 97/320/60 98/321/60 94/322/60
f 95/323/56 99/324/56 97/320/56 93/319/56
f 94/325/57 98/326/57 100/327/57 96/328/57
f 97/329/61 101/330/61 102/331/61 98/332/61
f 99/333/56 103/334/56 101/335/56 97/336/56
f 98/337/57 102/338/57 104/339/57 100/340/57
f 101/330/62 105/341/62 106/342/62 102/331/62
f 104/343/63 107/344/63 108/345/63 103/346/63
f 103/347/56 108/348/56 105/349/56 101/350/56
f 102/351/57 106/352/57 107/353/57 104/354/57
f 105/355/64 108/356/64 107/357/64 106/358/64
f 85/359/65 81/360/65 84/361/65 88/362/65
