# Made in Blockbench 4.12.1
mtllib painted_arch.mtl

o tube
v 0.6563373408850326 1.5 1.0140625
v 0.6563373408850326 1.5000000000000002 -0.014062500000000089
v 0.5877459802934314 0.9789968906889316 1.0140625
v 0.5877459802934314 0.9789968906889318 -0.014062499999999867
v 0.9583578912334543 1.4190738374365373 1.0140625
v 0.9583578912334543 1.4190738374365375 -0.014062499999999867
v 0.7572581973303855 0.9335762290266705 1.0140625
v 0.7572581973303855 0.9335762290266707 -0.014062499999999867
v 1.229142108766546 1.2627364965515047 1.0140625
v 1.229142108766546 1.2627364965515049 -0.014062499999999645
v 0.9092386933585461 0.8458302487332391 1.0140625
v 0.9092386933585461 0.8458302487332392 -0.014062499999999867
v 1.4502364965515047 1.041642108766546 1.0140625
v 1.4502364965515047 1.041642108766546 -0.014062499999999867
v 1.0333302487332392 0.7217386933585461 1.0140625
v 1.0333302487332392 0.7217386933585461 -0.014062499999999867
v -0.45023649655150466 1.0416421087665457 1.0140625
v -0.45023649655150466 1.0416421087665457 -0.014062499999999645
v -0.03333024873323909 0.7217386933585461 1.0140625
v -0.03333024873323909 0.7217386933585461 -0.014062499999999867
v -0.22914210876654617 1.2627364965515042 1.0140625
v -0.22914210876654617 1.2627364965515047 -0.014062499999999867
v 0.09076130664145377 0.845830248733239 1.0140625
v 0.09076130664145377 0.845830248733239 -0.014062499999999867
v 0.04164210876654495 1.419073837436537 1.0140625
v 0.04164210876654495 1.4190738374365373 -0.014062499999999867
v 0.2427418026696142 0.9335762290266704 1.0140625
v 0.2427418026696142 0.9335762290266706 -0.014062499999999867
v 0.3436626591149673 1.5 1.0140625
v 0.3436626591149673 1.5000000000000002 -0.014062500000000089
v 0.41225401970656855 0.9789968906889316 1.0140625
v 0.41225401970656855 0.9789968906889318 -0.014062499999999867
vt 0 0
vt 0.312675 0
vt 0.312675 1
vt 0 1
vt 0.1754875 1
vt 0 1
vt 0 0
vt 0.1754875 0
vt 0 0.8639949042918857
vt 0.022902188169543036 0.6900023525596438
vt 0.5484033394527729 0.6900023525596437
vt 0.5075910918056866 1
vt 8.326672684688674e-17 0.4515943032895422
vt 0.3099979853259569 0.4924039843763921
vt 0.17399157031902399 1
vt 0 0.9770903570702176
vt 0 0
vt 0.312675 0
vt 0.312675 1
vt 0 1
vt 0.1754875 1
vt 0 1
vt 0 0
vt 0.1754875 0
vt 0 0.9314145621937819
vt 2.220446049250313e-16 0.755923063779685
vt 0.5210036261443503 0.687322395979997
vt 0.5210062357793135 1
vt 0 0.4789943366589682
vt 0.3126776040308931 0.4789943366589682
vt 0.24408128457597994 0.9999985353324189
vt 0.06858978616799516 1
vt 0 0
vt 0.312675 0
vt 0.312675 1
vt 0 1
vt 0.1754875 1
vt 0 1
vt 0 0
vt 0.1754875 0
vt 0 0.9314106422249049
vt 0 0.7559155779691685
vt 0.521005115213013 0.6873262201940735
vt 0.521005115213013 1
vt 0 0.47899488478698704
vt 0.3126737798059265 0.47899488478698704
vt 0.24408442203083136 1
vt 0.068589357775095 1
vt 0 0
vt 0.312675 0
vt 0.312675 1
vt 0 1
vt 0.1754875 1
vt 0 1
vt 0 0
vt 0.1754875 0
vt 0.06858935777509512 0.47899488478698704
vt 0.24408442203083147 0.47899488478698704
vt 0.3126737798059265 1
vt 0 1
vt 0 1
vt 0 0.6873262201940735
vt 0.521005115213013 0.7559155779691686
vt 0.521005115213013 0.931410642224905
vt 0 0
vt 0.312675 0
vt 0.312675 1
vt 0 1
vt 0.1754875 1
vt 0 1
vt 0 0
vt 0.1754875 0
vt 0.0686006677996881 0.47899376422068674
vt 0.244092166213785 0.4789937642206865
vt 0.312677604020003 1
vt 0 0.9999973903650368
vt 0 1
vt 0 0.6873223959691068
vt 0.5210056633410319 0.755912182137102
vt 0.5210041986734507 0.9314036805450869
vt 0 0
vt 0.312675 0
vt 0.312675 1
vt 0 1
vt 0.1754875 1
vt 0 1
vt 0 0
vt 0.1754875 0
vt 0.1360064150069329 0.4515943032895422
vt 0.3099979853259569 0.47450394621932457
vt 0.3099979853259568 1
vt 0 0.9591903189131501
vt 0 1
vt 0.04081224764708624 0.6900023525596437
vt 0.5484033394527729 0.826007448267758
vt 0.5255011512832298 0.9999999999999999
vt 0 0
vt 0.312675 0
vt 0.312675 1
vt 0 1
vt 0.1754875 1
vt 0 1
vt 0 0
vt 0.1754875 0
vt 0.06859375 0.479
vt 0.24408124999999997 0.479
vt 0.312675 1
vt 0 1
vt 0 0.479
vt 0.312675 0.479
vt 0.24408124999999997 1
vt 0.06859375 1
vt 1 0.4744999999999999
vt 1 1
vt 0 1
vt 0 0.4744999999999999
vt 1 0.4744999999999999
vt 1 1
vt 0 1
vt 0 0.4744999999999999
vn 0.2588190451025205 0.9659258262890684 2.0505729131522651e-16
vn -0.25881904510252113 -0.9659258262890682 -2.115191979867992e-16
vn 0 0 1
vn 6.617505161406365e-16 -2.7410603869284733e-16 -1
vn 0.5 0.8660254037844387 1.9426480229863563e-16
vn -0.5000000000000004 -0.8660254037844385 -9.614508999399964e-17
vn 0 0 1
vn 7.813514096210919e-16 -6.695121455406519e-17 -1
vn 0.7071067811865476 0.7071067811865476 8.633991213272696e-17
vn -0.7071067811865477 -0.7071067811865474 -7.691607199519974e-17
vn 0 0 1
vn -4.360397385988317e-16 5.682580509090442e-16 -1
vn -0.7071067811865477 0.7071067811865474 1.5109484623227234e-16
vn 0.7071067811865474 -0.7071067811865478 0
vn 6.569135050557804e-16 2.3776705662535284e-16 1
vn -5.682580509090447e-16 -4.3603973859883224e-16 -1
vn -0.5000000000000009 0.8660254037844383 1.9426480229863578e-16
vn 0.5000000000000014 -0.8660254037844378 -1.9229017998799939e-16
vn -4.829750040120156e-16 -4.287321385864431e-16 1
vn 0 0 -1
vn -0.25881904510252063 0.9659258262890683 2.0505729131522602e-16
vn 0.2588190451025213 -0.9659258262890682 -2.1151919798679885e-16
vn 0 0 1
vn -5.998405380525952e-16 -5.051572224128868e-16 -1
vn 0 1 2.1597043640124621e-16
vn 0 -1 -2.1597043640124626e-16
vn 0 0 1
vn 0 -4.261867174240952e-16 -1
vn -0.6087614290087205 -0.7933533402912353 0
vn 0.6087614290087208 -0.7933533402912352 -1.0274544218258754e-16
usemtl m_c74501f2-c496-69df-6537-5b641c492ccf
f 1/1/1 5/2/1 6/3/1 2/4/1
f 4/5/2 8/6/2 7/7/2 3/8/2
f 3/9/3 7/10/3 5/11/3 1/12/3
f 2/13/4 6/14/4 8/15/4 4/16/4
f 5/17/5 9/18/5 10/19/5 6/20/5
f 8/21/6 12/22/6 11/23/6 7/24/6
f 7/25/7 11/26/7 9/27/7 5/28/7
f 6/29/8 10/30/8 12/31/8 8/32/8
f 9/33/9 13/34/9 14/35/9 10/36/9
f 12/37/10 16/38/10 15/39/10 11/40/10
f 11/41/11 15/42/11 13/43/11 9/44/11
f 10/45/12 14/46/12 16/47/12 12/48/12
f 17/49/13 21/50/13 22/51/13 18/52/13
f 20/53/14 24/54/14 23/55/14 19/56/14
f 19/57/15 23/58/15 21/59/15 17/60/15
f 18/61/16 22/62/16 24/63/16 20/64/16
f 21/65/17 25/66/17 26/67/17 22/68/17
f 24/69/18 28/70/18 27/71/18 23/72/18
f 23/73/19 27/74/19 25/75/19 21/76/19
f 22/77/20 26/78/20 28/79/20 24/80/20
f 25/81/21 29/82/21 30/83/21 26/84/21
f 28/85/22 32/86/22 31/87/22 27/88/22
f 27/89/23 31/90/23 29/91/23 25/92/23
f 26/93/24 30/94/24 32/95/24 28/96/24
f 29/97/25 1/98/25 2/99/25 30/100/25
f 32/101/26 4/102/26 3/103/26 31/104/26
f 31/105/27 3/106/27 1/107/27 29/108/27
f 30/109/28 2/110/28 4/111/28 32/112/28
f 19/113/29 17/114/29 18/115/29 20/116/29
f 16/117/30 14/118/30 13/119/30 15/120/30