# Made in Blockbench 4.12.1
mtllib painted_arch.mtl

o triple_left
v 1.5937499999999996 -1 1.0281250000000006
v 1.5937499999999993 -0.2937836242209376 1.0281250000000006
v 0.9788807609129013 -0.35434295845977754 1.0281250000000006
v 0.9788807609129013 -1 1.0281250000000006
v 1.5132883616885269 0.11072434766347405 1.0281250000000006
v 0.9220482026369039 -0.06862639380031316 1.0281250000000006
v 1.3554571807024853 0.49176252536533904 1.0281250000000006
v 0.8105671294273904 0.20051272509000295 1.0281250000000006
v 1.1263218208144221 0.8346878254042454 1.0281250000000006
v 0.6487216964084959 0.44273153280717215 1.0281250000000006
v 0.8346878254042454 1.1263218208144221 1.0281250000000006
v 0.44273153280717237 0.6487216964084961 1.0281250000000006
v 0.4917625253653388 1.3554571807024853 1.0281250000000006
v 0.20051272509000295 0.8105671294273908 1.0281250000000006
v 0.11072434766347428 1.5132883616885273 1.0281250000000006
v -0.06862639380031288 0.9220482026369043 1.0281250000000006
v 0.11072434766347428 1.5132883616885273 -0.028124999999999623
v -0.06862639380031288 0.9220482026369046 -0.028124999999999623
v 0.4917625253653388 1.3554571807024858 -0.028124999999999623
v 0.20051272509000295 0.8105671294273908 -0.028124999999999623
v 0.8346878254042451 1.1263218208144226 -0.028124999999999845
v 0.44273153280717215 0.6487216964084963 -0.028124999999999623
v 1.1263218208144226 0.8346878254042451 -0.028124999999999623
v 0.6487216964084963 0.44273153280717215 -0.028124999999999845
v 1.3554571807024853 0.49176252536533926 -0.028125000000000067
v 0.8105671294273904 0.20051272509000329 -0.028125000000000067
v 1.5132883616885273 0.1107243476634745 -0.028125000000000067
v 0.9220482026369043 -0.06862639380031277 -0.028125000000000067
v 1.5937499999999996 -0.2937836242209369 -0.028125000000000067
v 0.9788807609129015 -0.35434295845977704 -0.028125000000000067
v 1.59375 -1 -0.028125000000000067
v 0.9788807609129018 -1 -0.028125000000000067
vt 0.91015625 1
vt 0.8203125 1
vt 0.830078125 0.375
vt 0.91015625 0.375
vt 0.82421875 1
vt 0.771484375 1
vt 0.779296875 0.375
vt 0.81640625 0.375
vt 0.775390625 1
vt 0.72265625 1
vt 0.73046875 0.375
vt 0.767578125 0.375
vt 0.7265625 1
vt 0.673828125 1
vt 0.681640625 0.375
vt 0.71875 0.375
vt 0.677734375 1
vt 0.625 1
vt 0.6328125 0.375
vt 0.669921875 0.375
vt 0.62890625 1
vt 0.576171875 1
vt 0.583984375 0.375
vt 0.62109375 0.375
vt 0.580078125 1
vt 0.52734375 1
vt 0.53515625 0.375
vt 0.572265625 0.375
vt 1 0.1875
vt 1 0.59375
vt 0 0.59375
vt 0 0.1875
vt 0 0.39062499999999967
vt 0 0.34374999999999967
vt 1 0.34374999999999967
vt 1 0.39062499999999967
vt 0.384765625 1
vt 0.33203125 1
vt 0.33984375 0.375
vt 0.376953125 0.375
vt 1 0.59375
vt 1 1
vt 0 1
vt 0 0.59375
vt 0 0.34374999999999967
vt 0 0.29687499999999967
vt 1 0.29687499999999967
vt 1 0.34374999999999967
vt 0.3359375 1
vt 0.283203125 1
vt 0.291015625 0.375
vt 0.328125 0.375
vt 0 0.8125
vt 0 0.40625
vt 1 0.40625
vt 1 0.8125
vt 0 0.29687499999999967
vt 0 0.24999999999999967
vt 1 0.24999999999999967
vt 1 0.29687499999999967
vt 0.287109375 1
vt 0.234375 1
vt 0.2421875 0.375
vt 0.279296875 0.375
vt 0 0.24999999999999967
vt 0 0.20312499999999967
vt 1 0.20312499999999967
vt 1 0.24999999999999967
vt 0.23828125 1
vt 0.185546875 1
vt 0.193359375 0.375
vt 0.23046875 0.375
vt 1 0.1875
vt 1 0.59375
vt 0 0.59375
vt 0 0.1875
vt 0 0.20312499999999967
vt 0 0.15624999999999967
vt 1 0.15624999999999967
vt 1 0.20312499999999967
vt 0.189453125 1
vt 0.13671875 1
vt 0.14453125 0.375
vt 0.181640625 0.375
vt 1 0.59375
vt 1 1
vt 0 1
vt 0 0.59375
vt 0 0.15624999999999967
vt 0 0.10937499999999967
vt 1 0.10937499999999967
vt 1 0.15624999999999967
vt 0.140625 1
vt 0.087890625 1
vt 0.095703125 0.375
vt 0.1328125 0.375
vt 0 0.6875
vt 0 0
vt 1 0
vt 1 0.6875
vt 0 0.109375
vt 0 0
vt 1 0
vt 1 0.109375
vt 0.091796875 1
vt 0 1
vt 0 0.375
vt 0.08203125 0.375
vt 1 1
vt 1.1102230246251565e-16 1
vt 1.1102230246251565e-16 0.8958333333333334
vt 1 0.8958333333333334
vt 0 0.40625
vt 0 0
vt 1 0
vt 1 0.40625
vt 0.51953125 1
vt 0.39453125 1
vt 0.39453125 0.3749999999999999
vt 0.51953125 0.3749999999999999
vn 0 0 1
vn 0 0 1
vn 0 0 1
vn 0 0 1
vn 8.14157014055334e-17 -2.9927483608261244e-16 1
vn -2.385520737191495e-16 1.275087399070396e-16 1
vn 0 0 1
vn 0.3826834323650903 0.9238795325112866 3.8228003870970756e-16
vn -0.38268343236508995 -0.9238795325112867 0
vn 0 0 -1
vn 0.5555702330196018 0.8314696123025457 2.229966892473295e-16
vn -0.5555702330196018 -0.8314696123025455 -4.5101609507853466e-17
vn -6.188155388585806e-16 4.2931394779141426e-17 -1
vn 0.7071067811865476 0.7071067811865476 1.5928334946237839e-16
vn -0.7071067811865476 -0.7071067811865476 -2.9316046180104723e-16
vn 5.98549672165224e-16 -1.6283140281106602e-16 -1
vn -0.8314696123025459 -0.5555702330196014 -1.8040643803141418e-16
vn -5.100349596281591e-16 9.542082948765998e-16 -1
vn 0.9238795325112871 0.3826834323650892 4.619217134408962e-16
vn -0.9238795325112867 -0.3826834323650904 -5.299439117172775e-16
vn 0 0 -1
vn 0.9807852804032307 0.19509032201612803 3.344950338709943e-16
vn -0.9807852804032304 -0.1950903220161284 -2.931604618010475e-16
vn 0 0 -1
vn 1 3.1441440971980135e-16 4.2043948861544353e-16
vn -1 -3.4390487617906423e-16 -4.204394886154436e-16
vn 0 0 -1
vn 0 -1 0
vn 0.8314696123025455 0.5555702330196021 1.274266795699026e-16
vn -0.956940335732209 0.29028467725446205 0
usemtl m_aba6fcf7-20d2-2f49-a638-868c8a05dda3
f 1/1/1 2/2/1 3/3/1 4/4/1
f 2/5/2 5/6/2 6/7/2 3/8/2
f 5/9/3 7/10/3 8/11/3 6/12/3
f 7/13/4 9/14/4 10/15/4 8/16/4
f 9/17/5 11/18/5 12/19/5 10/20/5
f 11/21/6 13/22/6 14/23/6 12/24/6
f 13/25/7 15/26/7 16/27/7 14/28/7
usemtl m_c74501f2-c496-69df-6537-5b641c492ccf
f 15/29/8 13/30/8 19/31/8 17/32/8
usemtl m_c18739ee-15c5-063b-6755-9b19b70de64b
f 18/33/9 20/34/9 14/35/9 16/36/9
usemtl m_aba6fcf7-20d2-2f49-a638-868c8a05dda3
f 17/37/10 19/38/10 20/39/10 18/40/10
usemtl m_c74501f2-c496-69df-6537-5b641c492ccf
f 13/41/11 11/42/11 21/43/11 19/44/11
usemtl m_c18739ee-15c5-063b-6755-9b19b70de64b
f 20/45/12 22/46/12 12/47/12 14/48/12
usemtl m_aba6fcf7-20d2-2f49-a638-868c8a05dda3
f 19/49/13 21/50/13 22/51/13 20/52/13
usemtl m_c74501f2-c496-69df-6537-5b641c492ccf
f 11/53/14 9/54/14 23/55/14 21/56/14
usemtl m_c18739ee-15c5-063b-6755-9b19b70de64b
f 22/57/15 24/58/15 10/59/15 12/60/15
usemtl m_aba6fcf7-20d2-2f49-a638-868c8a05dda3
f 21/61/16 23/62/16 24/63/16 22/64/16
usemtl m_c18739ee-15c5-063b-6755-9b19b70de64b
f 24/65/17 26/66/17 8/67/17 10/68/17
usemtl m_aba6fcf7-20d2-2f49-a638-868c8a05dda3
f 23/69/18 25/70/18 26/71/18 24/72/18
usemtl m_c74501f2-c496-69df-6537-5b641c492ccf
f 7/73/19 5/74/19 27/75/19 25/76/19
usemtl m_c18739ee-15c5-063b-6755-9b19b70de64b
f 26/77/20 28/78/20 6/79/20 8/80/20
usemtl m_aba6fcf7-20d2-2f49-a638-868c8a05dda3
f 25/81/21 27/82/21 28/83/21 26/84/21
usemtl m_c74501f2-c496-69df-6537-5b641c492ccf
f 5/85/22 2/86/22 29/87/22 27/88/22
usemtl m_c18739ee-15c5-063b-6755-9b19b70de64b
f 28/89/23 30/90/23 3/91/23 6/92/23
usemtl m_aba6fcf7-20d2-2f49-a638-868c8a05dda3
f 27/93/24 29/94/24 30/95/24 28/96/24
usemtl m_c74501f2-c496-69df-6537-5b641c492ccf
f 2/97/25 1/98/25 31/99/25 29/100/25
usemtl m_c18739ee-15c5-063b-6755-9b19b70de64b
f 30/101/26 32/102/26 4/103/26 3/104/26
usemtl m_aba6fcf7-20d2-2f49-a638-868c8a05dda3
f 29/105/27 31/106/27 32/107/27 30/108/27
usemtl m_c18739ee-15c5-063b-6755-9b19b70de64b
f 4/109/28 32/110/28 31/111/28 1/112/28
usemtl m_c74501f2-c496-69df-6537-5b641c492ccf
f 9/113/29 7/114/29 25/115/29 23/116/29
usemtl m_aba6fcf7-20d2-2f49-a638-868c8a05dda3
f 15/117/30 17/118/30 18/119/30 16/120/30