# Made in Blockbench 4.12.1
mtllib painted_arch.mtl

o double_right
v -0.46854433073541113 0.7677031856262218 1.0125000000000002
v -0.06300116856085158 0.4348825136639729 1.0125000000000002
v -0.20520318562622242 1.0310443307354107 1.0125000000000002
v 0.12761748633602665 0.6255011685608514 1.0125000000000002
v 0.10445324202085016 1.2379501407835876 1.0125000000000002
v 0.3517613119952623 0.7752692846878602 1.0125000000000002
v 0.44852502934865346 1.3804693415247151 1.0125000000000002
v 0.6008165868980756 0.878431357333165 1.0125000000000002
v 0.8137896905278615 1.453125 1.0125000000000002
v 0.8652122565017587 0.9310229258989637 1.0125000000000002
v 1 1.453125 1.0125000000000002
v 1 0.9310229258989637 1.0125000000000002
v 1 0.9310229258989637 -0.012499999999999734
v 1 1.453125 -0.012499999999999734
v 0.8137896905278612 1.453125 -0.012499999999999512
v 0.8652122565017587 0.9310229258989637 -0.012499999999999512
v 0.6008165868980757 0.878431357333165 -0.012499999999999512
v 0.4485250293486539 1.3804693415247151 -0.012499999999999734
v 0.3517613119952627 0.7752692846878606 -0.01249999999999929
v 0.10445324202085082 1.237950140783588 -0.01249999999999929
v 0.1276174863360272 0.6255011685608518 -0.012499999999998845
v -0.20520318562622153 1.0310443307354114 -0.01249999999999929
v -0.06300116856085136 0.434882513663973 -0.012499999999998845
v -0.4685443307354109 0.7677031856262215 -0.012499999999999067
v 0.865212256501759 0.9310229258989637 1.0125000000000002
v 1 0.9310229258989637 1.0125000000000002
v 1 1.453125 1.0125000000000002
v 0.8137896905278619 1.453125 1.0125000000000004
v 0.6008165868980759 0.878431357333165 1.0125000000000004
v 0.4485250293486538 1.3804693415247151 1.0125000000000004
v 0.3517613119952626 0.7752692846878602 1.0125000000000004
v 0.10445324202085027 1.2379501407835876 1.0125000000000004
v 0.127617486336027 0.6255011685608514 1.0125000000000004
v -0.20520318562622197 1.0310443307354107 1.0125000000000008
v -0.06300116856085136 0.4348825136639731 1.0125000000000006
v -0.46854433073541024 0.7677031856262218 1.0125000000000008
vt 0 0.75
vt 0 0.375
vt 1 0.375
vt 1 0.75
vt 0 0.7031249999999998
vt 0 0.6562499999999998
vt 1 0.6562499999999998
vt 1 0.7031249999999998
vt 0 0.375
vt 0 0
vt 1 0
vt 1 0.375
vt 0 0.6562499999999998
vt 0 0.6093749999999998
vt 1 0.6093749999999998
vt 1 0.6562499999999998
vt 1 0.25
vt 1 0.625
vt 0 0.625
vt 0 0.25
vt 0 0.6093749999999998
vt 0 0.5624999999999998
vt 1 0.5624999999999998
vt 1 0.6093749999999998
vt 1 0.625
vt 1 1
vt 0 1
vt 0 0.625
vt 0 0.5624999999999998
vt 0 0.5156249999999998
vt 1 0.5156249999999998
vt 1 0.5624999999999998
vt 0 0.1875
vt 0 0.375
vt 1 0.375
vt 1 0.1875
vt 0 0.5156249999999998
vt 0 0.4947916666666664
vt 1 0.4947916666666664
vt 1 0.5156249999999998
vt 0.5572916666666666 0.46875
vt 0.6510416666666666 0.46875
vt 0.6666666666666666 1
vt 0.5416666666666666 1
vt 0.6666666666666666 0.46875
vt 0.7604166666666666 0.46875
vt 0.7760416666666666 1
vt 0.6510416666666666 1
vt 0.7760416666666666 0.46875
vt 0.8697916666666666 0.46875
vt 0.8854166666666666 1
vt 0.7604166666666666 1
vt 0.8854166666666666 0.46875
vt 0.9895833333333334 0.46875
vt 0.9895833333333334 1
vt 0.8697916666666666 1
vt 0.5572916666666666 1
vt 0.4947916666666667 1
vt 0.4947916666666667 0.46875
vt 0.5416666666666666 0.46875
vt 0.65625 0.46875
vt 0.3229166666666667 0.46875
vt 0.3229166666666667 1
vt 0.65625 1
vt 0 0.791666666666667
vt 0 0.7031250000000002
vt 1 0.7031250000000002
vt 1 0.791666666666667
vt 0 0.4687500000000022
vt 0.10416666666666667 0.46875
vt 0.11979166666666664 1
vt 0 1
vt 0.11979166666666667 0.46875
vt 0.21354166666666666 0.46875
vt 0.22916666666666666 1
vt 0.10416666666666667 1
vt 0.22916666666666666 0.46875
vt 0.3229166666666667 0.46875
vt 0.3385416666666667 1
vt 0.21354166666666666 1
vt 0.3385416666666667 0.46875
vt 0.4322916666666667 0.46875
vt 0.4479166666666667 1
vt 0.3229166666666667 1
vt 0.4479166666666667 0.46875
vt 0.4947511873920553 0.46875
vt 0.4947511873920553 1
vt 0.4322916666666667 1
vn -0.7071067811865478 0.7071067811865472 -1.4541950138782632e-16
vn 0.7071067811865479 -0.7071067811865471 7.533681194016863e-17
vn -0.5555702330196022 0.8314696123025452 0
vn 0.5555702330196022 -0.8314696123025453 -1.2556135323361408e-16
vn -0.38268343236509034 0.9238795325112867 -1.6359693906130386e-16
vn 0.382683432365089 -0.9238795325112871 3.766840597008426e-17
vn -0.1950903220161281 0.9807852804032305 6.362103185717373e-17
vn 0.1950903220161292 -0.9807852804032303 0
vn 0 1 0
vn 0 -1 0
vn 8.296989348558985e-17 -4.17117822177579e-16 -1
vn -7.299379424299755e-16 -3.9015995878182957e-16 -1
vn -8.070353824980972e-16 -1.7573647754998394e-15 -1
vn 3.007251908330735e-16 -3.0072519083307314e-16 -1
vn -1.1924399113801705e-15 0 -1
vn 1 0 0
vn -0.6343932841636453 -0.7730104533627373 -2.0645939392526948e-16
vn 1.2412463392127421e-15 -7.638340884974109e-17 1
vn 0 0 1
vn 0 0 1
vn 9.066523706980973e-16 -3.35992179076214e-16 1
vn 0 0 1
usemtl m_c74501f2-c496-69df-6537-5b641c492ccf
f 1/1/1 3/2/1 22/3/1 24/4/1
usemtl m_c18739ee-15c5-063b-6755-9b19b70de64b
f 23/5/2 21/6/2 4/7/2 2/8/2
usemtl m_c74501f2-c496-69df-6537-5b641c492ccf
f 3/9/3 5/10/3 20/11/3 22/12/3
usemtl m_c18739ee-15c5-063b-6755-9b19b70de64b
f 21/13/4 19/14/4 6/15/4 4/16/4
usemtl m_c74501f2-c496-69df-6537-5b641c492ccf
f 5/17/5 7/18/5 18/19/5 20/20/5
usemtl m_c18739ee-15c5-063b-6755-9b19b70de64b
f 19/21/6 17/22/6 8/23/6 6/24/6
usemtl m_c74501f2-c496-69df-6537-5b641c492ccf
f 7/25/7 9/26/7 15/27/7 18/28/7
usemtl m_c18739ee-15c5-063b-6755-9b19b70de64b
f 17/29/8 16/30/8 10/31/8 8/32/8
usemtl m_c74501f2-c496-69df-6537-5b641c492ccf
f 9/33/9 11/34/9 14/35/9 15/36/9
usemtl m_c18739ee-15c5-063b-6755-9b19b70de64b
f 16/37/10 13/38/10 12/39/10 10/40/10
usemtl m_4f2f0fb4-9f18-dfcd-6962-5c8a01be345a
f 16/41/11 17/42/11 18/43/11 15/44/11
f 17/45/12 19/46/12 20/47/12 18/48/12
f 19/49/13 21/50/13 22/51/13 20/52/13
f 21/53/14 23/54/14 24/55/14 22/56/14
f 15/57/15 14/58/15 13/59/15 16/60/15
f 12/61/16 13/62/16 14/63/16 11/64/16
usemtl m_c18739ee-15c5-063b-6755-9b19b70de64b
f 24/65/17 23/66/17 2/67/17 1/68/17
usemtl m_4f2f0fb4-9f18-dfcd-6962-5c8a01be345a
f 35/69/18 33/70/18 34/71/18 36/72/18
f 33/73/19 31/74/19 32/75/19 34/76/19
f 31/77/20 29/78/20 30/79/20 32/80/20
f 29/81/21 25/82/21 28/83/21 30/84/21
f 25/85/22 26/86/22 27/87/22 28/88/22