# Made in Blockbench 4.12.1
mtllib painted_arch.mtl

o triple_left
v 0.15930369480592332 1.5307701716382711 1.0218750000000005
v 0.1593036948059232 1.5307701716382711 -0.0218749999999992
v 0.027795150387765255 0.9262351494957857 1.0218750000000005
v 0.027795150387764922 0.9262351494957857 -0.021874999999999645
v 0.5839165006504226 1.406092602601431 1.0218749999999996
v 0.5839165006504228 1.406092602601431 -0.021874999999999645
v 0.3677122196880337 0.8264264925472595 1.0218750000000003
v 0.3677122196880338 0.82642649254726 -0.021874999999999645
v 0.9864638922987503 1.2222553686546505 1.021875
v 0.9864638922987494 1.2222553686546518 -0.021874999999999645
v 0.6899651704708645 0.6792585010704739 1.0218750000000003
v 0.6899651704708636 0.6792585010704744 -0.021874999999999645
v 1.3587511657077613 0.9830008657382816 1.021875
v 1.3587511657077607 0.9830008657382825 -0.021874999999999645
v 1.0228225408129255 0.4653467142393195 1.021875
v 1.0228232266963269 0.46534671423931995 -0.021874999999999645
vt 1 0.5625
vt 1 1
vt 0 1
vt 0 0.5625
vt 0 0.40104166666666663
vt 0 0.33854166666666663
vt 1 0.33854166666666663
vt 1 0.40104166666666663
vt 0.3125 1
vt 0.203125 1
vt 0.2109375 0.375
vt 0.3046875 0.375
vt 0 0.875
vt 0 0.4375
vt 1 0.4375
vt 1 0.875
vt 0 0.33854166666666663
vt 0 0.27604166666666663
vt 1 0.27604166666666663
vt 1 0.33854166666666663
vt 0.2109375 1
vt 0.1015625 1
vt 0.109375 0.375
vt 0.203125 0.375
vt 0 0.4375
vt 0 0
vt 1 0
vt 1 0.4375
vt 0 0.27604166666666663
vt 0 0.20833333333333337
vt 1 0.20833333333333337
vt 1 0.27604166666666663
vt 0.109375 1
vt 0 1
vt 0.0006747560660648865 0.37500568415496893
vt 0.1015625 0.375
vt 1 0.20833333333333337
vt 0 0.20833333333333337
vt 0 0.10416666666666663
vt 1 0.10416666666666663
vt 0.3203125 1
vt 0.3203125 0.3749999999999999
vt 0.5703125 0.3749999999999999
vt 0.5703125 1
vt 0.921875 1
vt 0.8125 1
vt 0.8203125 0.375
vt 0.921875 0.375
vt 0.8203125 1
vt 0.7109375 1
vt 0.71875 0.375
vt 0.8125 0.375
vt 0.71875 1
vt 0.609375 1
vt 0.6171875 0.375
vt 0.7109375 0.375
vn 0.2817325568414299 0.9594929736144974 6.00900355386509e-17
vn -0.2817325568414297 -0.9594929736144976 -4.316089280654338e-16
vn -9.426341397143065e-16 3.5158435667126724e-16 -1
vn 0.4154150130018863 0.9096319953545184 8.112154797717848e-16
vn -0.41541501300188577 -0.9096319953545188 -1.8765605568062347e-17
vn 0 0 -1
vn 0.5406408174555979 0.841253532831181 3.9058523100123067e-16
vn -0.5406352783033115 -0.8412570926023596 -3.5526971396838386e-7
vn 0 0 -1
vn 0.8388486114098275 -0.5443647739664098 5.512357735264934e-7
vn -0.9771468659711597 0.21256528955297604 1.0745636281405111e-16
vn -2.6217014859813832e-17 4.232398565088996e-16 1
vn -3.332879554148554e-16 1.0819500815872449e-15 1
vn 1.474612731295945e-15 -3.2078236457822203e-16 1
usemtl m_c74501f2-c496-69df-6537-5b641c492ccf
f 1/1/1 5/2/1 6/3/1 2/4/1
usemtl m_c18739ee-15c5-063b-6755-9b19b70de64b
f 4/5/2 8/6/2 7/7/2 3/8/2
usemtl m_aba6fcf7-20d2-2f49-a638-868c8a05dda3
f 2/9/3 6/10/3 8/11/3 4/12/3
usemtl m_c74501f2-c496-69df-6537-5b641c492ccf
f 5/13/4 9/14/4 10/15/4 6/16/4
usemtl m_c18739ee-15c5-063b-6755-9b19b70de64b
f 8/17/5 12/18/5 11/19/5 7/20/5
usemtl m_aba6fcf7-20d2-2f49-a638-868c8a05dda3
f 6/21/6 10/22/6 12/23/6 8/24/6
usemtl m_c74501f2-c496-69df-6537-5b641c492ccf
f 9/25/7 13/26/7 14/27/7 10/28/7
usemtl m_c18739ee-15c5-063b-6755-9b19b70de64b
f 12/29/8 16/30/8 15/31/8 11/32/8
usemtl m_aba6fcf7-20d2-2f49-a638-868c8a05dda3
f 10/33/9 14/34/9 16/35/9 12/36/9
usemtl m_c18739ee-15c5-063b-6755-9b19b70de64b
f 15/37/10 16/38/10 14/39/10 13/40/10
usemtl m_aba6fcf7-20d2-2f49-a638-868c8a05dda3
f 3/41/11 1/42/11 2/43/11 4/44/11
f 13/45/12 9/46/12 11/47/12 15/48/12
f 9/49/13 5/50/13 7/51/13 11/52/13
f 5/53/14 1/54/14 3/55/14 7/56/14