# Made in Blockbench 4.12.1
mtllib painted_arch.mtl

o triple_middle
v 0.7062163757790627 1.59375 -0.01874999999999938
v 0.6456570415402226 0.9788807609129018 -0.018749999999999822
v 1.1107243476634743 1.5132883616885273 -0.01874999999999938
v 0.9313736061996869 0.9220482026369046 -0.01874999999999938
v -0.11072434766347472 1.5132883616885273 -0.01874999999999938
v 0.06862639380031277 0.9220482026369046 -0.01874999999999938
v 0.29378362422093757 1.59375 -0.01874999999999938
v 0.35434295845977754 0.9788807609129018 -0.018749999999999822
v 1.110724347663468 1.5132883616885273 1.0187499999999998
v 0.7062163757790604 1.59375 1.0187500000000003
v 0.645657041540221 0.9788807609129018 1.0187500000000003
v 0.9313736061996822 0.9220482026369046 1.0187500000000003
v 0.2937836242209392 1.59375 1.0187500000000003
v 0.3543429584597785 0.9788807609129018 1.0187500000000007
v -0.11072434766346761 1.5132883616885273 1.0187500000000012
v 0.06862639380031765 0.9220482026369046 1.0187500000000007
vt 0 0.40625
vt 0 0
vt 1 0
vt 1 0.40625
vt 0 0.43749999999999967
vt 0 0.39062499999999967
vt 1 0.39062499999999967
vt 1 0.43749999999999967
vt 0.43359375 1
vt 0.380859375 1
vt 0.388671875 0.375
vt 0.42578125 0.375
vt 1 0.59375
vt 1 1
vt 0 1
vt 0 0.59375
vt 0 0.5312499999999998
vt 0 0.48437499999999967
vt 1 0.48437499999999967
vt 1 0.5312499999999998
vt 0.53125 1
vt 0.478515625 1
vt 0.486328125 0.375
vt 0.5234375 0.375
vt 0 0.8125
vt 0 0.40625
vt 1 0.40625
vt 1 0.8125
vt 0 0.48437499999999967
vt 0 0.43749999999999967
vt 1 0.43749999999999967
vt 1 0.48437499999999967
vt 0.482421875 1
vt 0.4296875 1
vt 0.4375 0.375
vt 0.474609375 0.375
vt 0.515625 1
vt 0.390625 1
vt 0.390625 0.3749999999999999
vt 0.515625 0.3749999999999999
vt 0.51953125 1
vt 0.39453125 1
vt 0.39453125 0.3749999999999999
vt 0.51953125 0.3749999999999999
vt 0.43359375 1
vt 0.380859375 1
vt 0.388671875 0.375
vt 0.42578125 0.375
vt 0.53125 1
vt 0.478515625 1
vt 0.486328125 0.375
vt 0.5234375 0.375
vt 0.482421875 1
vt 0.4296875 1
vt 0.4375 0.375
vt 0.474609375 0.375
vn 0.19509032201613064 0.98078528040323 1.1675661423242405e-15
vn -0.1950903220161283 -0.9807852804032305 -8.95375627308019e-16
vn 0 0 -1
vn -0.19509032201613105 0.98078528040323 3.081077320022306e-16
vn 0.19509032201612808 -0.9807852804032305 -1.8366679534523432e-16
vn -1.4090395395640258e-16 7.08372012321704e-16 -1
vn 0 1 0
vn 0 -1 0
vn 0 7.222498404854433e-16 -1
vn 0.956940335732209 -0.29028467725446233 4.352070432935241e-15
vn -0.9569403357322089 -0.2902846772544625 6.553706063714237e-15
vn 1.6939684558068833e-15 -2.372550462570779e-16 1
vn 1.076755442365688e-15 -1.0605115459105958e-16 1
vn 0 7.222498404854434e-16 1
usemtl m_c74501f2-c496-69df-6537-5b641c492ccf
f 10/1/1 9/2/1 3/3/1 1/4/1
usemtl m_c18739ee-15c5-063b-6755-9b19b70de64b
f 2/5/2 4/6/2 12/7/2 11/8/2
usemtl m_aba6fcf7-20d2-2f49-a638-868c8a05dda3
f 1/9/3 3/10/3 4/11/3 2/12/3
usemtl m_c74501f2-c496-69df-6537-5b641c492ccf
f 15/13/4 13/14/4 7/15/4 5/16/4
usemtl m_c18739ee-15c5-063b-6755-9b19b70de64b
f 6/17/5 8/18/5 14/19/5 16/20/5
usemtl m_aba6fcf7-20d2-2f49-a638-868c8a05dda3
f 5/21/6 7/22/6 8/23/6 6/24/6
usemtl m_c74501f2-c496-69df-6537-5b641c492ccf
f 13/25/7 10/26/7 1/27/7 7/28/7
usemtl m_c18739ee-15c5-063b-6755-9b19b70de64b
f 8/29/8 2/30/8 11/31/8 14/32/8
usemtl m_aba6fcf7-20d2-2f49-a638-868c8a05dda3
f 7/33/9 1/34/9 2/35/9 8/36/9
f 12/37/10 4/38/10 3/39/10 9/40/10
f 15/41/11 5/42/11 6/43/11 16/44/11
f 13/45/12 15/46/12 16/47/12 14/48/12
f 9/49/13 10/50/13 11/51/13 12/52/13
f 10/53/14 13/54/14 14/55/14 11/56/14