# Made in Blockbench 4.12.1
mtllib painted_arch.mtl

o triple_right
v -0.3587511657077602 0.983000865738282 1.0187500000000003
v -0.35875116570776133 0.9830008657382816 -0.0187499999999996
v -0.022822540812924785 0.4653467142393197 1.0187500000000003
v -0.022821854929523377 0.46534671423931995 -0.0187499999999996
v 0.013536107701250355 1.2222553686546513 1.018750000000001
v 0.013536107701249467 1.2222553686546505 -0.0187499999999996
v 0.3100348295291364 0.6792585010704739 1.01875
v 0.3100348295291355 0.6792585010704739 -0.0187499999999996
v 0.41608349934957833 1.4060926026014315 1.0187500000000003
v 0.41608349934957856 1.406092602601432 -0.018749999999999156
v 0.6322877803119672 0.8264264925472604 1.01875
v 0.6322877803119673 0.8264264925472604 -0.0187499999999996
v 0.8406963051940775 1.5307701716382711 1.01875
v 0.8406963051940776 1.530770171638272 -0.0187499999999996
v 0.9722048496122356 0.9262351494957857 1.0187500000000003
v 0.972204849612236 0.9262351494957866 -0.0187499999999996
vt 0 0.4375
vt 0 0
vt 1 0
vt 1 0.4375
vt 0 0.78125
vt 0 0.7135416666666667
vt 1 0.7135416666666667
vt 1 0.78125
vt 0.921875 1
vt 0.8125 1
vt 0.8203125 0.375
vt 0.921875 0.375
vt 1 0.125
vt 1 0.5625
vt 0 0.5625
vt 0 0.125
vt 0 0.7135416666666667
vt 0 0.6510416666666667
vt 1 0.6510416666666667
vt 1 0.7135416666666667
vt 0.8203125 1
vt 0.7109375 1
vt 0.71875 0.375
vt 0.8125 0.375
vt 1 0.5625
vt 1 1
vt 0 1
vt 0 0.5625
vt 0 0.6510416666666667
vt 0 0.5885416666666667
vt 1 0.5885416666666667
vt 1 0.6510416666666667
vt 0.71875 1
vt 0.609375 1
vt 0.6171875 0.375
vt 0.7109375 0.375
vt 1 0.8854166666666666
vt 0 0.8854166666666666
vt 0 0.78125
vt 1 0.78125
vt 0.3203125 1
vt 0.5703125 1
vt 0.5703125 0.3749999999999999
vt 0.3203125 0.3749999999999999
vt 0.3125 1
vt 0.203125 1
vt 0.2109375 0.375
vt 0.3046875 0.375
vt 0.2109375 1
vt 0.1015625 1
vt 0.109375 0.375
vt 0.203125 0.375
vt 0.109375 1
vt 0 1
vt 0.0006747560660648865 0.37500568415496893
vt 0.1015625 0.375
vn -0.540640817455599 0.8412535328311802 -2.4180809481818534e-16
vn 0.5406368551304637 -0.8412560792497386 -4.732941165184919e-16
vn 0 0 -1
vn -0.4154150130018852 0.9096319953545189 3.0226011852273103e-16
vn 0.41541501300188577 -0.9096319953545189 3.7757302769474615e-17
vn 6.436840202176025e-16 1.0061938079383008e-15 -1
vn -0.281732556841429 0.9594929736144976 8.0098931408524e-16
vn 0.281732556841431 -0.9594929736144971 -7.362674040047594e-16
vn -9.830751541972972e-16 -2.138549097188152e-16 -1
vn -0.8388475963355428 -0.5443663381603261 1.13065554948027e-15
vn 0.9771468659711596 0.21256528955297652 4.95663795345263e-16
vn 5.726903699278872e-16 -1.6945357607935447e-16 1
vn 1.626917474718117e-15 -5.428708397079991e-16 1
vn -1.0522442017290113e-15 -6.828477019199548e-16 1
usemtl m_c74501f2-c496-69df-6537-5b641c492ccf
f 1/1/1 5/2/1 6/3/1 2/4/1
usemtl m_c18739ee-15c5-063b-6755-9b19b70de64b
f 4/5/2 8/6/2 7/7/2 3/8/2
usemtl m_aba6fcf7-20d2-2f49-a638-868c8a05dda3
f 2/9/3 6/10/3 8/11/3 4/12/3
usemtl m_c74501f2-c496-69df-6537-5b641c492ccf
f 5/13/4 9/14/4 10/15/4 6/16/4
usemtl m_c18739ee-15c5-063b-6755-9b19b70de64b
f 8/17/5 12/18/5 11/19/5 7/20/5
usemtl m_aba6fcf7-20d2-2f49-a638-868c8a05dda3
f 6/21/6 10/22/6 12/23/6 8/24/6
usemtl m_c74501f2-c496-69df-6537-5b641c492ccf
f 9/25/7 13/26/7 14/27/7 10/28/7
usemtl m_c18739ee-15c5-063b-6755-9b19b70de64b
f 12/29/8 16/30/8 15/31/8 11/32/8
usemtl m_aba6fcf7-20d2-2f49-a638-868c8a05dda3
f 10/33/9 14/34/9 16/35/9 12/36/9
usemtl m_c18739ee-15c5-063b-6755-9b19b70de64b
f 1/37/10 2/38/10 4/39/10 3/40/10
usemtl m_aba6fcf7-20d2-2f49-a638-868c8a05dda3
f 15/41/11 16/42/11 14/43/11 13/44/11
f 13/45/12 9/46/12 11/47/12 15/48/12
f 9/49/13 5/50/13 7/51/13 11/52/13
f 5/53/14 1/54/14 3/55/14 7/56/14