# Made in Blockbench 4.12.1
mtllib painted_arch.mtl

o tube
v 0.6275383570377897 1.3125000000000002 -0.01718749999999991
v 0.5844118695848605 0.9849218055620232 -0.01718749999999991
v 0.8739235428483443 1.24648128843507 -0.01718749999999991
v 0.7474830793395835 0.941227006599479 -0.01718749999999991
v 1.094826457151656 1.1189429313972803 -0.01718749999999991
v 0.8936887262224398 0.8568151370146185 -0.01718749999999969
v 1.27519293139728 0.9385764571516559 -0.01718749999999991
v 1.0130651370146184 0.73743872622244 -0.01718749999999991
v -0.27519293139728007 0.9385764571516559 -0.01718749999999991
v -0.013065137014618422 0.7374387262224398 -0.01718749999999991
v -0.09482645715165605 1.1189429313972803 -0.01718749999999991
v 0.10631127377756011 0.8568151370146184 -0.01718749999999991
v 0.12607645715165516 1.2464812884350698 -0.01718749999999991
v 0.25251692066041626 0.941227006599479 -0.01718749999999991
v 0.3724616429622102 1.3125000000000002 -0.01718749999999991
v 0.4155881304151394 0.9849218055620232 -0.01718749999999991
v 1.094826457151656 1.1189429313972803 1.0171875000000001
v 0.8936887262224397 0.8568151370146184 1.0171875
v 1.0130651370146182 0.7374387262224398 1.0171875
v 1.2751929313972798 0.9385764571516559 1.0171875000000001
v 0.8739235428483446 1.2464812884350698 1.0171875
v 0.7474830793395835 0.941227006599479 1.0171875
v 0.6275383570377896 1.3125000000000002 1.0171875
v 0.5844118695848604 0.9849218055620232 1.0171875
v 0.37246164296221007 1.3125000000000002 1.0171875
v 0.4155881304151393 0.9849218055620232 1.0171875
v 0.1260764571516555 1.24648128843507 1.0171875
v 0.25251692066041637 0.941227006599479 1.0171875
v -0.09482645715165605 1.1189429313972803 1.0171874999999997
v 0.10631127377756 0.8568151370146185 1.0171874999999997
v -0.2751929313972803 0.9385764571516559 1.0171874999999997
v -0.013065137014618644 0.73743872622244 1.0171875
vt 0 0.75
vt 0 0.5
vt 1 0.5
vt 1 0.75
vt 0 0.5520833333333333
vt 0 0.5260416666666665
vt 1 0.5260416666666665
vt 1 0.5520833333333333
vt 0.34375 1
vt 0.21875000000000022 1
vt 0.234375 0.65625
vt 0.328125 0.65625
vt 0 0.5
vt 0 0.25
vt 1 0.25
vt 1 0.5
vt 0 0.5260416666666665
vt 0 0.4999999999999999
vt 1 0.4999999999999999
vt 1 0.5260416666666665
vt 0.234375 1
vt 0.10937500000000022 1
vt 0.125 0.65625
vt 0.21875 0.65625
vt 0 0.25
vt 0 0
vt 1 0
vt 1 0.25
vt 0 0.4999999999999999
vt 0 0.47395833333333315
vt 1 0.47395833333333315
vt 1 0.4999999999999999
vt 0.125 1
vt 0 1
vt 0 0.65625
vt 0.109375 0.65625
vt 1 0.25
vt 1 0.5
vt 0 0.5
vt 0 0.25
vt 0 0.6562499999999998
vt 0 0.6302083333333333
vt 1 0.6302083333333333
vt 1 0.6562499999999998
vt 0.65625 1
vt 0.671875 0.65625
vt 0.78125 0.65625
vt 0.78125 1
vt 1 0.5
vt 1 0.75
vt 0 0.75
vt 0 0.5
vt 0 0.6302083333333333
vt 0 0.6041666666666665
vt 1 0.6041666666666665
vt 1 0.6302083333333333
vt 0.671875 1
vt 0.5468750000000002 1
vt 0.5625 0.65625
vt 0.65625 0.65625
vt 1 0.75
vt 1 1
vt 0 1
vt 0 0.75
vt 0 0.6041666666666665
vt 0 0.5781249999999998
vt 1 0.5781249999999998
vt 1 0.6041666666666665
vt 0.5625 1
vt 0.4375000000000002 1
vt 0.453125 0.65625
vt 0.546875 0.65625
vt 0 1
vt 0 0.75
vt 1 0.75
vt 1 1
vt 0 0.5781249999999998
vt 0 0.5520833333333333
vt 1 0.5520833333333333
vt 1 0.5781249999999998
vt 0.453125 1
vt 0.3281250000000002 1
vt 0.34375 0.65625
vt 0.4375 0.65625
vt 1 0.7135416666666667
vt 0 0.7135416666666667
vt 0 0.65625
vt 1 0.65625
vt 1 0.47395833333333337
vt 0 0.47395833333333337
vt 0 0.41666666666666663
vt 1 0.41666666666666663
vt 0.34375 1
vt 0.21875000000000022 1
vt 0.234375 0.65625
vt 0.328125 0.65625
vt 0.234375 1
vt 0.10937500000000022 1
vt 0.125 0.65625
vt 0.21875 0.65625
vt 0.125 1
vt 0 1
vt 0 0.65625
vt 0.109375 0.65625
vt 0.65625 1
vt 0.671875 0.65625
vt 0.78125 0.65625
vt 0.78125 1
vt 0.671875 1
vt 0.5468750000000002 1
vt 0.5625 0.65625
vt 0.65625 0.65625
vt 0.5625 1
vt 0.4375000000000002 1
vt 0.453125 0.65625
vt 0.546875 0.65625
vt 0.453125 1
vt 0.3281250000000002 1
vt 0.34375 0.65625
vt 0.4375 0.65625
vn 0.25881904510252085 0.9659258262890684 2.6299132187002986e-17
vn -0.25881904510252085 -0.9659258262890684 2.483468947514281e-17
vn 0 0 -1
vn 0.5000000000000004 0.8660254037844384 9.204696265451068e-17
vn -0.49999999999999983 -0.8660254037844387 -1.490081368508569e-16
vn -3.3891847610002124e-16 -5.870240202290553e-16 -1
vn 0.7071067811865479 0.7071067811865471 1.577947931220183e-16
vn -0.7071067811865475 -0.7071067811865478 -2.28479143171314e-16
vn 0 0 -1
vn -0.7071067811865478 0.7071067811865474 -7.889739656100911e-17
vn 0.7071067811865477 -0.7071067811865474 1.4900813685085705e-16
vn 0 0 -1
vn -0.4999999999999999 0.8660254037844388 6.574783046750757e-17
vn 0.500000000000001 -0.8660254037844382 -4.966937895028567e-17
vn 0 0 -1
vn -0.2588190451025208 0.9659258262890684 -2.6299132187003023e-17
vn 0.25881904510252046 -0.9659258262890684 3.4768565265199883e-17
vn 0 0 -1
vn 0 1 0
vn 0 -1 0
vn 0 0 -1
vn -0.6087614290087208 -0.793353340291235 -1.306800638045573e-16
vn 0.6087614290087207 -0.7933533402912352 4.55272763672539e-17
vn 0 0 1
vn -6.965743849852801e-16 -5.345003247340517e-16 1
vn -4.793031054394722e-16 4.793031054394719e-16 1
vn -4.793031054394719e-16 -4.793031054394717e-16 1
vn -8.111780520433615e-16 3.3600095065574927e-16 1
vn 0 0 1
vn 0 0 1
usemtl m_c74501f2-c496-69df-6537-5b641c492ccf
f 23/1/1 21/2/1 3/3/1 1/4/1
usemtl m_c18739ee-15c5-063b-6755-9b19b70de64b
f 2/5/2 4/6/2 22/7/2 24/8/2
usemtl m_c4e550db-6586-8c2c-600a-e1d09da9b29e
f 1/9/3 3/10/3 4/11/3 2/12/3
usemtl m_c74501f2-c496-69df-6537-5b641c492ccf
f 21/13/4 17/14/4 5/15/4 3/16/4
usemtl m_c18739ee-15c5-063b-6755-9b19b70de64b
f 4/17/5 6/18/5 18/19/5 22/20/5
usemtl m_c4e550db-6586-8c2c-600a-e1d09da9b29e
f 3/21/6 5/22/6 6/23/6 4/24/6
usemtl m_c74501f2-c496-69df-6537-5b641c492ccf
f 17/25/7 20/26/7 7/27/7 5/28/7
usemtl m_c18739ee-15c5-063b-6755-9b19b70de64b
f 6/29/8 8/30/8 19/31/8 18/32/8
usemtl m_c4e550db-6586-8c2c-600a-e1d09da9b29e
f 5/33/9 7/34/9 8/35/9 6/36/9
usemtl m_c74501f2-c496-69df-6537-5b641c492ccf
f 31/37/10 29/38/10 11/39/10 9/40/10
usemtl m_c18739ee-15c5-063b-6755-9b19b70de64b
f 10/41/11 12/42/11 30/43/11 32/44/11
usemtl m_c4e550db-6586-8c2c-600a-e1d09da9b29e
f 11/45/12 12/46/12 10/47/12 9/48/12
usemtl m_c74501f2-c496-69df-6537-5b641c492ccf
f 29/49/13 27/50/13 13/51/13 11/52/13
usemtl m_c18739ee-15c5-063b-6755-9b19b70de64b
f 12/53/14 14/54/14 28/55/14 30/56/14
usemtl m_c4e550db-6586-8c2c-600a-e1d09da9b29e
f 11/57/15 13/58/15 14/59/15 12/60/15
usemtl m_c74501f2-c496-69df-6537-5b641c492ccf
f 27/61/16 25/62/16 15/63/16 13/64/16
usemtl m_c18739ee-15c5-063b-6755-9b19b70de64b
f 14/65/17 16/66/17 26/67/17 28/68/17
usemtl m_c4e550db-6586-8c2c-600a-e1d09da9b29e
f 13/69/18 15/70/18 16/71/18 14/72/18
usemtl m_c74501f2-c496-69df-6537-5b641c492ccf
f 25/73/19 23/74/19 1/75/19 15/76/19
usemtl m_c18739ee-15c5-063b-6755-9b19b70de64b
f 16/77/20 2/78/20 24/79/20 26/80/20
usemtl m_c4e550db-6586-8c2c-600a-e1d09da9b29e
f 15/81/21 1/82/21 2/83/21 16/84/21
usemtl m_c18739ee-15c5-063b-6755-9b19b70de64b
f 31/85/22 9/86/22 10/87/22 32/88/22
f 19/89/23 8/90/23 7/91/23 20/92/23
usemtl m_c4e550db-6586-8c2c-600a-e1d09da9b29e
f 25/93/24 27/94/24 28/95/24 26/96/24
f 27/97/25 29/98/25 30/99/25 28/100/25
f 29/101/26 31/102/26 32/103/26 30/104/26
f 17/105/27 18/106/27 19/107/27 20/108/27
f 17/109/28 21/110/28 22/111/28 18/112/28
f 21/113/29 23/114/29 24/115/29 22/116/29
f 23/117/30 25/118/30 26/119/30 24/120/30