# Made in Blockbench 4.12.1
mtllib painted_arch.mtl

o double_left
v 1.4685443307354111 0.7677031856262218 -0.015625000000000444
v 1.0630011685608516 0.4348825136639729 -0.015625000000000444
v 1.2052031856262224 1.0310443307354107 -0.015625000000000444
v 0.8723825136639733 0.6255011685608514 -0.015625000000000222
v 0.8955467579791498 1.2379501407835876 -0.015625000000000222
v 0.6482386880047377 0.7752692846878602 -0.015625000000000222
v 0.5514749706513465 1.3804693415247151 -0.015625000000000222
v 0.3991834131019243 0.878431357333165 -0.015625000000000222
v 0.1862103094721384 1.453125 -0.015625000000000222
v 0.13478774349824124 0.9310229258989637 -0.015625000000000222
v -6.314585058103542e-17 1.453125 -0.015625000000000222
v -6.314585058103542e-17 0.9310229258989637 -0.015625000000000222
v 6.314585058103537e-17 0.9310229258989637 1.0156249999999998
v 6.314585058103537e-17 1.453125 1.0156249999999998
v 0.18621030947213885 1.453125 1.0156249999999996
v 0.13478774349824135 0.9310229258989637 1.0156249999999996
v 0.3991834131019244 0.878431357333165 1.0156249999999996
v 0.5514749706513461 1.3804693415247151 1.0156249999999998
v 0.6482386880047373 0.7752692846878606 1.0156249999999993
v 0.8955467579791492 1.237950140783588 1.0156249999999993
v 0.8723825136639728 0.6255011685608518 1.015624999999999
v 1.2052031856262215 1.0310443307354114 1.0156249999999991
v 1.0630011685608514 0.434882513663973 1.0156249999999987
v 1.468544330735411 0.7677031856262215 1.015624999999999
v 0.8723825136639726 0.6255011685608518 1.0156249999999987
v 1.0630011685608514 0.43488251366397335 1.0156249999999987
v 1.4685443307354105 0.7677031856262215 1.0156249999999987
v 1.205203185626221 1.0310443307354114 1.0156249999999987
v 0.6482386880047372 0.7752692846878606 1.0156249999999991
v 0.8955467579791492 1.237950140783588 1.0156249999999991
v 0.3991834131019242 0.878431357333165 1.0156249999999996
v 0.5514749706513461 1.3804693415247151 1.0156249999999996
v 0.13478774349824119 0.9310229258989637 1.0156249999999996
v 0.186210309472139 1.453125 1.0156249999999996
v 0 0.9310229258989637 1.0156249999999998
v 0 1.453125 1.0156249999999998
vt 0 0.25
vt 0 0.625
vt 1 0.625
vt 1 0.25
vt 1 0.2864583333333336
vt 1 0.3333333333333336
vt 0 0.3333333333333336
vt 0 0.2864583333333336
vt 0 0.4687500000000022
vt 0.10416666666666667 0.46875
vt 0.11979166666666664 1
vt 0 1
vt 0 0.625
vt 0 1
vt 1 1
vt 1 0.625
vt 1 0.3333333333333336
vt 1 0.3802083333333336
vt 0 0.3802083333333336
vt 0 0.3333333333333336
vt 0.11979166666666667 0.46875
vt 0.21354166666666666 0.46875
vt 0.22916666666666666 1
vt 0.10416666666666667 1
vt 1 0
vt 1 0.375
vt 0 0.375
vt 0 0
vt 1 0.3802083333333336
vt 1 0.4270833333333336
vt 0 0.4270833333333336
vt 0 0.3802083333333336
vt 0.22916666666666666 0.46875
vt 0.3229166666666667 0.46875
vt 0.3385416666666667 1
vt 0.21354166666666666 1
vt 1 0.375
vt 1 0.75
vt 0 0.75
vt 0 0.375
vt 1 0.4270833333333336
vt 1 0.4739583333333336
vt 0 0.4739583333333336
vt 0 0.4270833333333336
vt 0.3385416666666667 0.46875
vt 0.4322916666666667 0.46875
vt 0.4479166666666667 1
vt 0.3229166666666667 1
vt 1 0
vt 1 0.1875
vt 0 0.1875
vt 0 0
vt 1 0.4739583333333336
vt 1 0.49479166666666696
vt 0 0.49479166666666696
vt 0 0.4739583333333336
vt 0.4479166666666667 0.46875
vt 0.4947511873920553 0.46875
vt 0.4947511873920553 1
vt 0.4322916666666667 1
vt 0.6666666666666666 0.46875
vt 0.3333333333333333 0.46875
vt 0.3333333333333333 1
vt 0.6666666666666666 1
vt 1 0.1979166666666664
vt 1 0.28645833333333304
vt 0 0.28645833333333304
vt 0 0.1979166666666664
vt 0.5572916666666666 0.46875
vt 0.6510416666666666 0.46875
vt 0.6666666666666666 1
vt 0.5416666666666666 1
vt 0.6666666666666666 0.46875
vt 0.7604166666666666 0.46875
vt 0.7760416666666666 1
vt 0.6510416666666666 1
vt 0.7760416666666666 0.46875
vt 0.8697916666666666 0.46875
vt 0.8854166666666666 1
vt 0.7604166666666666 1
vt 0.8854166666666666 0.46875
vt 0.9895833333333334 0.46875
vt 0.9895833333333334 1
vt 0.8697916666666666 1
vt 0.5572916666666666 1
vt 0.4947916666666667 1
vt 0.4947916666666667 0.46875
vt 0.5416666666666666 0.46875
vn 0.7071067811865478 0.7071067811865472 1.4453817107638494e-16
vn -0.707106781186548 -0.7071067811865471 -7.48802252011373e-17
vn -9.405211483796688e-16 2.243417819833325e-16 -1
vn 0.5555702330196022 0.8314696123025452 0
vn -0.5555702330196023 -0.8314696123025452 1.2480037533522852e-16
vn 0 0 -1
vn 0.3826834323650904 0.9238795325112867 1.626054424609323e-16
vn -0.3826834323650892 -0.9238795325112872 3.74401126005686e-17
vn 0 0 -1
vn 0.19509032201612808 0.9807852804032305 -9.033635692274017e-17
vn -0.1950903220161291 -0.9807852804032303 1.8720056300284263e-17
vn 0 0 -1
vn 0 1 0
vn 0 -1 0
vn 0 0 -1
vn -1 0 1.2246467991473532e-16
vn 0.6343932841636452 -0.7730104533627372 2.052081248711769e-16
vn 0 0 1
vn 1.459875884859951e-15 -7.803199175636595e-16 1
vn 1.2795919150931875e-15 -1.0501339456328061e-15 1
vn 0 0 1
vn 1.192439911380169e-15 0 1
usemtl m_c74501f2-c496-69df-6537-5b641c492ccf
f 1/1/1 3/2/1 22/3/1 24/4/1
usemtl m_c18739ee-15c5-063b-6755-9b19b70de64b
f 23/5/2 21/6/2 4/7/2 2/8/2
usemtl m_4f2f0fb4-9f18-dfcd-6962-5c8a01be345a
f 2/9/3 4/10/3 3/11/3 1/12/3
usemtl m_c74501f2-c496-69df-6537-5b641c492ccf
f 3/13/4 5/14/4 20/15/4 22/16/4
usemtl m_c18739ee-15c5-063b-6755-9b19b70de64b
f 21/17/5 19/18/5 6/19/5 4/20/5
usemtl m_4f2f0fb4-9f18-dfcd-6962-5c8a01be345a
f 4/21/6 6/22/6 5/23/6 3/24/6
usemtl m_c74501f2-c496-69df-6537-5b641c492ccf
f 5/25/7 7/26/7 18/27/7 20/28/7
usemtl m_c18739ee-15c5-063b-6755-9b19b70de64b
f 19/29/8 17/30/8 8/31/8 6/32/8
usemtl m_4f2f0fb4-9f18-dfcd-6962-5c8a01be345a
f 6/33/9 8/34/9 7/35/9 5/36/9
usemtl m_c74501f2-c496-69df-6537-5b641c492ccf
f 7/37/10 9/38/10 15/39/10 18/40/10
usemtl m_c18739ee-15c5-063b-6755-9b19b70de64b
f 17/41/11 16/42/11 10/43/11 8/44/11
usemtl m_4f2f0fb4-9f18-dfcd-6962-5c8a01be345a
f 8/45/12 10/46/12 9/47/12 7/48/12
usemtl m_c74501f2-c496-69df-6537-5b641c492ccf
f 9/49/13 11/50/13 14/51/13 15/52/13
usemtl m_c18739ee-15c5-063b-6755-9b19b70de64b
f 16/53/14 13/54/14 12/55/14 10/56/14
usemtl m_4f2f0fb4-9f18-dfcd-6962-5c8a01be345a
f 10/57/15 12/58/15 11/59/15 9/60/15
f 12/61/16 13/62/16 14/63/16 11/64/16
usemtl m_c18739ee-15c5-063b-6755-9b19b70de64b
f 24/65/17 23/66/17 2/67/17 1/68/17
usemtl m_4f2f0fb4-9f18-dfcd-6962-5c8a01be345a
f 33/69/18 31/70/18 32/71/18 34/72/18
f 31/73/19 29/74/19 30/75/19 32/76/19
f 29/77/20 25/78/20 28/79/20 30/80/20
f 25/81/21 26/82/21 27/83/21 28/84/21
f 34/85/22 36/86/22 35/87/22 33/88/22