# Made in Blockbench 4.12.1
mtllib painted_arch.mtl

o triple_middle
v 0.7212693670100283 1.59375 1.0171875000000001
v 0.7212693670100283 1.59375 -0.017187499999999023
v 0.6771336938611288 0.9766526554849779 1.0171875000000004
v 0.6771336938611288 0.9766526554849784 -0.01718749999999991
v 1.1593036948059232 1.5307701716382716 1.0171875000000004
v 1.1593036948059232 1.5307701716382711 -0.017187499999999467
v 1.0277951503877647 0.9262351494957861 1.0171875000000004
v 1.027795150387765 0.9262351494957857 -0.017187499999999467
v -0.15930369480592244 1.5307701716382711 1.0171875000000004
v -0.15930369480592244 1.530770171638272 -0.01718749999999991
v -0.027795150387764034 0.9262351494957857 1.0171875000000004
v -0.027795150387764034 0.9262351494957866 -0.01718749999999991
v 0.27873063298997236 1.59375 1.0171875000000008
v 0.27873063298997236 1.59375 -0.017187499999999023
v 0.32286630613887196 0.9766526554849779 1.0171875000000004
v 0.32286630613887185 0.9766526554849784 -0.01718749999999991
vt 1 0.125
vt 1 0.5625
vt 0 0.5625
vt 0 0.125
vt 0 0.46354166666666663
vt 0 0.40104166666666663
vt 1 0.40104166666666663
vt 1 0.46354166666666663
vt 0.4140625 1
vt 0.3046875 1
vt 0.3125 0.375
vt 0.40625 0.375
vt 0 0.875
vt 0 0.4375
vt 1 0.4375
vt 1 0.875
vt 0 0.5885416666666667
vt 0 0.5260416666666667
vt 1 0.5260416666666667
vt 1 0.5885416666666667
vt 0.6171875 1
vt 0.5078125 1
vt 0.515625 0.375
vt 0.609375 0.375
vt 0 0.4375
vt 0 0
vt 1 0
vt 1 0.4375
vt 0 0.5260416666666667
vt 0 0.46354166666666663
vt 1 0.46354166666666663
vt 1 0.5260416666666667
vt 0.515625 1
vt 0.40625 1
vt 0.4140625 0.375
vt 0.5078125 0.375
vt 0.3203125 1
vt 0.5703125 1
vt 0.5703125 0.3749999999999999
vt 0.3203125 0.3749999999999999
vt 0.3203125 1
vt 0.5703125 1
vt 0.5703125 0.3749999999999999
vt 0.3203125 0.3749999999999999
vt 0.4140625 1
vt 0.3046875 1
vt 0.3125 0.375
vt 0.40625 0.375
vt 0.6171875 1
vt 0.5078125 1
vt 0.515625 0.375
vt 0.609375 0.375
vt 0.515625 1
vt 0.40625 1
vt 0.4140625 0.375
vt 0.5078125 0.375
vn 0.1423148382732846 0.9898214418809328 -4.2444260752074253e-16
vn -0.1423148382732864 -0.9898214418809326 4.071172615838539e-16
vn -9.830751541972968e-16 2.1385490971881494e-16 -1
vn -0.1423148382732856 0.9898214418809327 0
vn 0.14231483827328403 -0.9898214418809329 -4.3552079146179755e-16
vn 1.802175697630404e-15 1.5681782879946812e-15 -1
vn 0 1 0
vn 0 -1 -4.293309581632024e-16
vn 0 1.4392841382231956e-15 -1
vn 0.9771468659711597 -0.21256528955297643 1.961407094944101e-16
vn -0.9771468659711595 -0.21256528955297657 -1.8252171887203599e-16
vn -1.0342830265374317e-15 1.4230366552429438e-16 1
vn -6.758158866114007e-16 5.880668579980049e-16 1
vn 1.254379491869339e-15 -2.70106042666897e-16 1
usemtl m_c74501f2-c496-69df-6537-5b641c492ccf
f 1/1/1 5/2/1 6/3/1 2/4/1
usemtl m_c18739ee-15c5-063b-6755-9b19b70de64b
f 4/5/2 8/6/2 7/7/2 3/8/2
usemtl m_aba6fcf7-20d2-2f49-a638-868c8a05dda3
f 2/9/3 6/10/3 8/11/3 4/12/3
usemtl m_c74501f2-c496-69df-6537-5b641c492ccf
f 9/13/4 13/14/4 14/15/4 10/16/4
usemtl m_c18739ee-15c5-063b-6755-9b19b70de64b
f 12/17/5 16/18/5 15/19/5 11/20/5
usemtl m_aba6fcf7-20d2-2f49-a638-868c8a05dda3
f 10/21/6 14/22/6 16/23/6 12/24/6
usemtl m_c74501f2-c496-69df-6537-5b641c492ccf
f 13/25/7 1/26/7 2/27/7 14/28/7
usemtl m_c18739ee-15c5-063b-6755-9b19b70de64b
f 16/29/8 4/30/8 3/31/8 15/32/8
usemtl m_aba6fcf7-20d2-2f49-a638-868c8a05dda3
f 14/33/9 2/34/9 4/35/9 16/36/9
f 7/37/10 8/38/10 6/39/10 5/40/10
f 9/41/11 10/42/11 12/43/11 11/44/11
f 13/45/12 9/46/12 11/47/12 15/48/12
f 5/49/13 1/50/13 3/51/13 7/52/13
f 1/53/14 13/54/14 15/55/14 3/56/14