# Made in Blockbench 4.12.1
mtllib painted_arch.mtl

o single
v 0.6616162984959721 1.3125000000000002 -0.012499999999999734
v 0.5964064226820921 0.9846678160442588 -0.012499999999999734
v 0.9602442790972987 1.1888042403308412 -0.012499999999999956
v 0.7745422641193256 0.9108815345762136 -0.012499999999999956
v 1.188804240330841 0.9602442790972989 -0.012499999999999956
v 0.9108815345762133 0.7745422641193258 -0.012499999999999734
v 1.3125 0.6616162984959724 -0.012499999999999956
v 0.9846678160442587 0.5964064226820923 -0.012499999999999734
v 1.3125 0 -0.012499999999999956
v 0.9846678160442587 0 -0.012499999999999956
v -0.3124999999999999 0 -0.012499999999999956
v 0.01533218395574143 0 -0.012499999999999956
v -0.3125 0.6616162984959724 -0.012499999999999956
v 0.015332183955741319 0.5964064226820922 -0.012499999999999956
v -0.1888042403308412 0.9602442790972987 -0.012499999999999734
v 0.08911846542378649 0.7745422641193256 -0.012499999999999956
v 0.0397557209027013 1.1888042403308412 -0.012499999999999956
v 0.22545773588067441 0.9108815345762136 -0.012499999999999956
v 0.3383837015040275 1.3125 -0.012499999999999734
v 0.4035935773179077 0.9846678160442588 -0.012499999999999956
v -0.31249999999999967 0.6616162984959726 1.0125
v -0.31249999999999967 0 1.0125
v 0.015332183955741707 0 1.0125
v 0.015332183955741763 0.5964064226820923 1.0125
v 0.08911846542378693 0.7745422641193258 1.0125
v -0.18880424033084064 0.9602442790972989 1.0125
v 0.039755720902701186 1.1888042403308412 1.0125000000000002
v 0.22545773588067453 0.9108815345762136 1.0125
v 0.33838370150402797 1.3125000000000002 1.0124999999999997
v 0.40359357731790785 0.9846678160442588 1.0125
v 0.5964064226820922 0.9846678160442588 1.0125
v 0.6616162984959725 1.3125 1.0124999999999997
v 0.9602442790972987 1.1888042403308412 1.0125
v 0.7745422641193255 0.9108815345762136 1.0125
v 1.1888042403308408 0.9602442790972987 1.0124999999999995
v 0.9108815345762133 0.7745422641193256 1.0125
v 1.3124999999999996 0.6616162984959726 1.0125
v 0.9846678160442581 0.5964064226820922 1.0125
v 1.3124999999999996 0 1.0125
v 0.9846678160442581 0 1.0124999999999997
vt 0 0.375
vt 0 0.0625
vt 1 0.0625
vt 1 0.375
vt 0 0.45833333333333337
vt 0 0.42708333333333337
vt 1 0.42708333333333337
vt 1 0.45833333333333337
vt 0.4921875 1
vt 0.4140625 1
vt 0.42578125 0.65625
vt 0.48046875 0.65625
vt 1 0.625
vt 1 0.3125
vt 0 0.3125
vt 0 0.625
vt 0 0.42708333333333337
vt 0 0.39583333333333337
vt 1 0.39583333333333337
vt 1 0.42708333333333337
vt 0.42578125 1
vt 0.34765625 1
vt 0.359375 0.65625
vt 0.4140625 0.65625
vt 1 0.3125
vt 1 0
vt 0 0
vt 0 0.3125
vt 0 0.39583333333333337
vt 0 0.36458333333333337
vt 1 0.36458333333333337
vt 1 0.39583333333333337
vt 0.28125 1
vt 0.29296875 0.65625
vt 0.34765625 0.65625
vt 0.359375 1
vt 0 0.34375
vt 0 1
vt 1 1
vt 1 0.34375
vt 0 0.36458333333333337
vt 0 0.25520833333333337
vt 1 0.25520833333333337
vt 1 0.36458333333333337
vt 0.17578125 1
vt 0 1
vt 0 0.65625
vt 0.166015625 0.65625
vt 1 0
vt 1 0.65625
vt 0 0.65625
vt 0 0
vt 0 0.6927083333333333
vt 0 0.5833333333333333
vt 1 0.5833333333333333
vt 1 0.6927083333333333
vt 0.921875 1
vt 0.74609375 1
vt 0.755859375 0.65625
vt 0.921875 0.65625
vt 1 0.65625
vt 1 0.96875
vt 0 0.96875
vt 0 0.65625
vt 0 0.5833333333333333
vt 0 0.5520833333333333
vt 1 0.5520833333333333
vt 1 0.5833333333333333
vt 0.7578125 1
vt 0.6796875 1
vt 0.69140625 0.65625
vt 0.74609375 0.65625
vt 0 1
vt 0 0.6875
vt 1 0.6875
vt 1 1
vt 0 0.5520833333333333
vt 0 0.5208333333333333
vt 1 0.5208333333333333
vt 1 0.5520833333333333
vt 0.69140625 1
vt 0.61328125 1
vt 0.625 0.65625
vt 0.6796875 0.65625
vt 0 1
vt 0 0.6875
vt 1 0.6875
vt 1 1
vt 0 0.5208333333333333
vt 0 0.48958333333333337
vt 1 0.48958333333333337
vt 1 0.5208333333333333
vt 0.625 1
vt 0.546875 1
vt 0.55859375 0.65625
vt 0.61328125 0.65625
vt 0 0.6875
vt 0 0.375
vt 1 0.375
vt 1 0.6875
vt 0 0.48958333333333337
vt 0 0.45833333333333337
vt 1 0.45833333333333337
vt 1 0.48958333333333337
vt 0.4921875 0.65625
vt 0.546875 0.65625
vt 0.55859375 1
vt 0.48046875 1
vt 0.9999999999999999 0.6927083333333333
vt 0.9999999999999999 0.75
vt 0 0.75
vt 0 0.6927083333333333
vt 1 0.19791666666666685
vt 1 0.25520833333333337
vt 0 0.25520833333333315
vt 0 0.19791666666666663
vt 0.375 1
vt 0.296875 1
vt 0.30859375 0.65625
vt 0.36328125 0.65625
vt 0.30859375 1
vt 0.23046875 1
vt 0.2421875 0.65625
vt 0.296875 0.65625
vt 0.1640625 1
vt 0.17578125 0.65625
vt 0.23046875 0.65625
vt 0.2421875 1
vt 0.17578125 1
vt 0 1
vt 0 0.65625
vt 0.166015625 0.65625
vt 0.921875 1
vt 0.74609375 1
vt 0.755859375 0.65625
vt 0.921875 0.65625
vt 0.640625 1
vt 0.5625 1
vt 0.57421875 0.65625
vt 0.62890625 0.65625
vt 0.57421875 1
vt 0.49609375 1
vt 0.5078125 0.65625
vt 0.5625 0.65625
vt 0.5078125 1
vt 0.4296875 1
vt 0.44140625 0.65625
vt 0.49609375 0.65625
vt 0.375 0.65625
vt 0.4296875 0.65625
vt 0.44140625 1
vt 0.36328125 1
vn 0.38268343236508956 0.9238795325112868 0
vn -0.3826834323650898 -0.9238795325112867 -3.5109966747242853e-17
vn -5.82368017385458e-16 3.891258686243777e-16 -1
vn 0.7071067811865482 0.7071067811865468 3.56041114315245e-16
vn -0.7071067811865475 -0.7071067811865477 -2.282147838570787e-16
vn -4.789317631168708e-16 -4.789317631168708e-16 -1
vn 0.9238795325112867 0.38268343236509 2.513231395166439e-16
vn -0.9238795325112867 -0.38268343236508995 -5.442044845822642e-16
vn -6.257545043914491e-16 -2.5919600243499276e-16 -1
vn 1 0 3.2494332428053366e-16
vn -1 2.016295971976736e-31 -5.415722071342229e-16
vn 0 0 -1
vn -1 0 3.2494332428053366e-16
vn 1 1.861520906552927e-16 -4.3325776570737815e-16
vn 0 0 -1
vn -0.9238795325112867 0.3826834323650903 4.188718991944064e-16
vn 0.9238795325112868 -0.3826834323650895 -2.9843471735156447e-16
vn -2.366286357670711e-16 8.415640198204512e-16 -1
vn -0.7071067811865482 0.7071067811865469 -8.377437983888123e-17
vn 0.7071067811865477 -0.7071067811865474 -8.777491686810703e-17
vn -5.823680173854571e-16 -3.891258686243772e-16 -1
vn -0.3826834323650897 0.9238795325112868 -4.1887189919440583e-17
vn 0.38268343236509006 -0.9238795325112868 -6.144244180767508e-17
vn 4.2775391224383373e-16 7.623973381914689e-16 -1
vn 6.86949914678825e-16 1 2.1662888285368895e-16
vn 2.8790172732739106e-16 -1 -5.415722071342233e-17
vn 1.1516069093095636e-15 9.063806514726742e-16 -1
vn 0 -1 0
vn 0 -1 0
vn 1.0031500272956822e-15 2.7081155074084237e-16 1
vn -3.8912586862437787e-16 -5.823680173854583e-16 1
vn 3.1287725219572444e-16 -1.2959800121749606e-16 1
vn 0 0 1
vn 0 0 1
vn 3.5494295365060635e-16 1.2623460297306774e-15 1
vn 8.735520260781865e-16 -5.836888029365663e-16 1
vn -2.1387695612191686e-16 3.8119866909573447e-16 1
vn 0 3.386558974255686e-16 1
usemtl m_c74501f2-c496-69df-6537-5b641c492ccf
f 32/1/1 33/2/1 3/3/1 1/4/1
usemtl m_c18739ee-15c5-063b-6755-9b19b70de64b
f 2/5/2 4/6/2 34/7/2 31/8/2
usemtl m_c4e550db-6586-8c2c-600a-e1d09da9b29e
f 1/9/3 3/10/3 4/11/3 2/12/3
usemtl m_c74501f2-c496-69df-6537-5b641c492ccf
f 33/13/4 35/14/4 5/15/4 3/16/4
usemtl m_c18739ee-15c5-063b-6755-9b19b70de64b
f 4/17/5 6/18/5 36/19/5 34/20/5
usemtl m_c4e550db-6586-8c2c-600a-e1d09da9b29e
f 3/21/6 5/22/6 6/23/6 4/24/6
usemtl m_c74501f2-c496-69df-6537-5b641c492ccf
f 35/25/7 37/26/7 7/27/7 5/28/7
usemtl m_c18739ee-15c5-063b-6755-9b19b70de64b
f 6/29/8 8/30/8 38/31/8 36/32/8
usemtl m_c4e550db-6586-8c2c-600a-e1d09da9b29e
f 7/33/9 8/34/9 6/35/9 5/36/9
usemtl m_c74501f2-c496-69df-6537-5b641c492ccf
f 37/37/10 39/38/10 9/39/10 7/40/10
usemtl m_c18739ee-15c5-063b-6755-9b19b70de64b
f 8/41/11 10/42/11 40/43/11 38/44/11
usemtl m_c4e550db-6586-8c2c-600a-e1d09da9b29e
f 7/45/12 9/46/12 10/47/12 8/48/12
usemtl m_c74501f2-c496-69df-6537-5b641c492ccf
f 22/49/13 21/50/13 13/51/13 11/52/13
usemtl m_c18739ee-15c5-063b-6755-9b19b70de64b
f 12/53/14 14/54/14 24/55/14 23/56/14
usemtl m_c4e550db-6586-8c2c-600a-e1d09da9b29e
f 11/57/15 13/58/15 14/59/15 12/60/15
usemtl m_c74501f2-c496-69df-6537-5b641c492ccf
f 21/61/16 26/62/16 15/63/16 13/64/16
usemtl m_c18739ee-15c5-063b-6755-9b19b70de64b
f 14/65/17 16/66/17 25/67/17 24/68/17
usemtl m_c4e550db-6586-8c2c-600a-e1d09da9b29e
f 13/69/18 15/70/18 16/71/18 14/72/18
usemtl m_c74501f2-c496-69df-6537-5b641c492ccf
f 26/73/19 27/74/19 17/75/19 15/76/19
usemtl m_c18739ee-15c5-063b-6755-9b19b70de64b
f 16/77/20 18/78/20 28/79/20 25/80/20
usemtl m_c4e550db-6586-8c2c-600a-e1d09da9b29e
f 15/81/21 17/82/21 18/83/21 16/84/21
usemtl m_c74501f2-c496-69df-6537-5b641c492ccf
f 27/85/22 29/86/22 19/87/22 17/88/22
usemtl m_c18739ee-15c5-063b-6755-9b19b70de64b
f 18/89/23 20/90/23 30/91/23 28/92/23
usemtl m_c4e550db-6586-8c2c-600a-e1d09da9b29e
f 17/93/24 19/94/24 20/95/24 18/96/24
usemtl m_c74501f2-c496-69df-6537-5b641c492ccf
f 29/97/25 32/98/25 1/99/25 19/100/25
usemtl m_c18739ee-15c5-063b-6755-9b19b70de64b
f 20/101/26 2/102/26 31/103/26 30/104/26
usemtl m_c4e550db-6586-8c2c-600a-e1d09da9b29e
f 2/105/27 20/106/27 19/107/27 1/108/27
usemtl m_c18739ee-15c5-063b-6755-9b19b70de64b
f 23/109/28 22/110/28 11/111/28 12/112/28
f 39/113/29 40/114/29 10/115/29 9/116/29
usemtl m_c4e550db-6586-8c2c-600a-e1d09da9b29e
f 29/117/30 27/118/30 28/119/30 30/120/30
f 27/121/31 26/122/31 25/123/31 28/124/31
f 21/125/32 24/126/32 25/127/32 26/128/32
f 21/129/33 22/130/33 23/131/33 24/132/33
f 39/133/34 37/134/34 38/135/34 40/136/34
f 37/137/35 35/138/35 36/139/35 38/140/35
f 35/141/36 33/142/36 34/143/36 36/144/36
f 33/145/37 32/146/37 31/147/37 34/148/37
f 30/149/38 31/150/38 32/151/38 29/152/38