# Made in Blockbench 4.12.1
mtllib painted_arch.mtl

o triple_right
v -0.59375 -0.2937836242209372 1.0203125000000002
v -0.59375 -0.9999999999999997 1.0203125000000002
v 0.02111923908709823 -0.9999999999999997 1.0203125000000002
v 0.02111923908709823 -0.35434295845977715 1.0203125000000002
v -0.5132883616885273 0.1107243476634745 1.0203125000000002
v 0.07795179736309565 -0.06862639380031266 1.0203125000000002
v -0.3554571807024858 0.4917625253653395 1.0203125000000002
v 0.18943287057260916 0.2005127250900034 1.0203125000000002
v -0.12632182081442256 0.8346878254042456 1.0203125000000002
v 0.3512783035915037 0.4427315328071726 1.0203125000000002
v 0.5082374746346606 1.3554571807024858 1.0203125000000002
v 0.16531217459575442 1.1263218208144226 1.0203125
v 0.5572684671928273 0.6487216964084963 1.0203125
v 0.7994872749099966 0.8105671294273913 1.0203125
v 0.8892756523365253 1.5132883616885273 1.0203125000000004
v 1.0686263938003124 0.9220482026369048 1.0203125000000002
v -0.59375 -1 -0.020312499999999956
v 0.02111923908709823 -1 -0.020312499999999956
v -0.59375 -0.29378362422093834 -0.020312499999999956
v 0.02111923908709823 -0.3543429584597779 -0.020312499999999956
v -0.5132883616885273 0.11072434766347394 -0.020312499999999956
v 0.07795179736309565 -0.06862639380031327 -0.020312499999999956
v -0.3554571807024858 0.49176252536533893 -0.020312499999999956
v 0.18943287057260916 0.20051272509000284 -0.020312499999999734
v -0.12632182081442211 0.8346878254042456 -0.020312499999999734
v 0.3512783035915039 0.44273153280717237 -0.020312499999999956
v 0.16531217459575398 1.1263218208144217 -0.020312499999999734
v 0.5572684671928272 0.6487216964084959 -0.020312499999999734
v 0.5082374746346607 1.355457180702485 -0.02031249999999951
v 0.7994872749099966 0.8105671294273908 -0.020312499999999734
v 0.8892756523365253 1.5132883616885273 -0.02031249999999951
v 1.0686263938003129 0.9220482026369046 -0.02031249999999951
vt 0.384765625 1
vt 0.33203125 1
vt 0.33984375 0.375
vt 0.376953125 0.375
vt 0.3359375 1
vt 0.283203125 1
vt 0.291015625 0.375
vt 0.328125 0.375
vt 0.287109375 1
vt 0.234375 1
vt 0.2421875 0.375
vt 0.279296875 0.375
vt 0.23828125 1
vt 0.185546875 1
vt 0.193359375 0.375
vt 0.23046875 0.375
vt 0.189453125 1
vt 0.13671875 1
vt 0.14453125 0.375
vt 0.181640625 0.375
vt 0.140625 1
vt 0.087890625 1
vt 0.095703125 0.375
vt 0.1328125 0.375
vt 0.091796875 1
vt 0 1
vt 0 0.375
vt 0.08203125 0.375
vt 1 0.3125
vt 1 1
vt 0 1
vt 0 0.3125
vt 0 0.921875
vt 0 0.8125
vt 1 0.8125
vt 1 0.921875
vt 0.91015625 1
vt 0.8203125 1
vt 0.830078125 0.375
vt 0.91015625 0.375
vt 0 0.40625
vt 0 0
vt 1 0
vt 1 0.40625
vt 0 0.8124999999999997
vt 0 0.7656249999999997
vt 1 0.7656249999999997
vt 1 0.8124999999999997
vt 0.82421875 1
vt 0.771484375 1
vt 0.779296875 0.375
vt 0.81640625 0.375
vt 1 0.1875
vt 1 0.59375
vt 0 0.59375
vt 0 0.1875
vt 0 0.7656249999999997
vt 0 0.7187499999999998
vt 1 0.7187499999999998
vt 1 0.7656249999999997
vt 0.775390625 1
vt 0.72265625 1
vt 0.73046875 0.375
vt 0.767578125 0.375
vt 1 0.59375
vt 1 1
vt 0 1
vt 0 0.59375
vt 0 0.7187499999999998
vt 0 0.6718749999999998
vt 1 0.6718749999999998
vt 1 0.7187499999999998
vt 0.7265625 1
vt 0.673828125 1
vt 0.681640625 0.375
vt 0.71875 0.375
vt 0 0.8125
vt 0 0.40625
vt 1 0.40625
vt 1 0.8125
vt 0 0.6718749999999998
vt 0 0.6249999999999998
vt 1 0.6249999999999998
vt 1 0.6718749999999998
vt 0.677734375 1
vt 0.625 1
vt 0.6328125 0.375
vt 0.669921875 0.375
vt 0 0.40625
vt 0 0
vt 1 0
vt 1 0.40625
vt 0 0.6249999999999998
vt 0 0.5781249999999998
vt 1 0.5781249999999998
vt 1 0.6249999999999998
vt 0.62890625 1
vt 0.576171875 1
vt 0.583984375 0.375
vt 0.62109375 0.375
vt 1 0.1875
vt 1 0.59375
vt 0 0.59375
vt 0 0.1875
vt 0 0.5781249999999998
vt 0 0.5312499999999998
vt 1 0.5312499999999998
vt 1 0.5781249999999998
vt 0.580078125 1
vt 0.52734375 1
vt 0.53515625 0.375
vt 0.572265625 0.375
vt 1 0.8958333333333334
vt 1.1102230246251565e-16 0.8958333333333334
vt 1.1102230246251565e-16 1
vt 1 1
vt 0.515625 1
vt 0.390625 1
vt 0.390625 0.3749999999999999
vt 0.515625 0.3749999999999999
vn -6.465579591619214e-16 -5.493441809671297e-16 1
vn -2.0909264138507328e-16 -1.7159789610307244e-16 1
vn 3.4319579220614483e-16 4.1818528277014636e-16 1
vn -1.5013219871350168e-16 1.0031512804421709e-16 1
vn -1.6681796124601077e-16 6.909826199552686e-17 1
vn 2.036057917281909e-16 2.3396287210231864e-16 1
vn -1.8056246012136085e-16 -1.5720720485990065e-16 1
vn -1 0 0
vn 1 0 0
vn 0 0 -1
vn -0.9807852804032303 0.19509032201612875 -9.700499480771865e-17
vn 0.9807852804032303 -0.19509032201612883 1.144470271295379e-16
vn 0 0 -1
vn -0.9238795325112871 0.382683432365089 -1.940099896154371e-16
vn 0.9238795325112871 -0.3826834323650889 1.945599461202146e-16
vn 3.3363592249202154e-16 -1.3819652399105372e-16 -1
vn -0.8314696123025452 0.5555702330196023 -3.5568498096163543e-16
vn 0.8314696123025455 -0.5555702330196018 2.9756227053679863e-16
vn 4.293139477914127e-17 6.1881553885858e-16 -1
vn -0.7071067811865476 0.7071067811865476 -3.2334998269239565e-16
vn 0.7071067811865479 -0.7071067811865472 2.2889405425907706e-16
vn 0 0 -1
vn -0.5555702330196022 0.8314696123025453 -5.820299688463125e-16
vn 0.5555702330196026 -0.831469612302545 3.6623048681452153e-16
vn 2.7647389134986434e-16 5.552818772410828e-16 -1
vn -0.3826834323650892 0.923879532511287 0
vn 0.3826834323650895 -0.923879532511287 3.43341081388614e-16
vn 0 0 -1
vn 0 -1 3.200642953874325e-16
vn 0.9569403357322089 0.29028467725446255 2.9538966620645455e-16
usemtl m_aba6fcf7-20d2-2f49-a638-868c8a05dda3
f 15/1/1 11/2/1 14/3/1 16/4/1
f 11/5/2 12/6/2 13/7/2 14/8/2
f 12/9/3 9/10/3 10/11/3 13/12/3
f 9/13/4 7/14/4 8/15/4 10/16/4
f 7/17/5 5/18/5 6/19/5 8/20/5
f 5/21/6 1/22/6 4/23/6 6/24/6
f 1/25/7 2/26/7 3/27/7 4/28/7
usemtl m_c74501f2-c496-69df-6537-5b641c492ccf
f 2/29/8 1/30/8 19/31/8 17/32/8
usemtl m_c18739ee-15c5-063b-6755-9b19b70de64b
f 18/33/9 20/34/9 4/35/9 3/36/9
usemtl m_aba6fcf7-20d2-2f49-a638-868c8a05dda3
f 17/37/10 19/38/10 20/39/10 18/40/10
usemtl m_c74501f2-c496-69df-6537-5b641c492ccf
f 1/41/11 5/42/11 21/43/11 19/44/11
usemtl m_c18739ee-15c5-063b-6755-9b19b70de64b
f 20/45/12 22/46/12 6/47/12 4/48/12
usemtl m_aba6fcf7-20d2-2f49-a638-868c8a05dda3
f 19/49/13 21/50/13 22/51/13 20/52/13
usemtl m_c74501f2-c496-69df-6537-5b641c492ccf
f 5/53/14 7/54/14 23/55/14 21/56/14
usemtl m_c18739ee-15c5-063b-6755-9b19b70de64b
f 22/57/15 24/58/15 8/59/15 6/60/15
usemtl m_aba6fcf7-20d2-2f49-a638-868c8a05dda3
f 21/61/16 23/62/16 24/63/16 22/64/16
usemtl m_c74501f2-c496-69df-6537-5b641c492ccf
f 7/65/17 9/66/17 25/67/17 23/68/17
usemtl m_c18739ee-15c5-063b-6755-9b19b70de64b
f 24/69/18 26/70/18 10/71/18 8/72/18
usemtl m_aba6fcf7-20d2-2f49-a638-868c8a05dda3
f 23/73/19 25/74/19 26/75/19 24/76/19
usemtl m_c74501f2-c496-69df-6537-5b641c492ccf
f 9/77/20 12/78/20 27/79/20 25/80/20
usemtl m_c18739ee-15c5-063b-6755-9b19b70de64b
f 26/81/21 28/82/21 13/83/21 10/84/21
usemtl m_aba6fcf7-20d2-2f49-a638-868c8a05dda3
f 25/85/22 27/86/22 28/87/22 26/88/22
usemtl m_c74501f2-c496-69df-6537-5b641c492ccf
f 12/89/23 11/90/23 29/91/23 27/92/23
usemtl m_c18739ee-15c5-063b-6755-9b19b70de64b
f 28/93/24 30/94/24 14/95/24 13/96/24
usemtl m_aba6fcf7-20d2-2f49-a638-868c8a05dda3
f 27/97/25 29/98/25 30/99/25 28/100/25
usemtl m_c74501f2-c496-69df-6537-5b641c492ccf
f 11/101/26 15/102/26 31/103/26 29/104/26
usemtl m_c18739ee-15c5-063b-6755-9b19b70de64b
f 30/105/27 32/106/27 16/107/27 14/108/27
usemtl m_aba6fcf7-20d2-2f49-a638-868c8a05dda3
f 29/109/28 31/110/28 32/111/28 30/112/28
usemtl m_c18739ee-15c5-063b-6755-9b19b70de64b
f 2/113/29 17/114/29 18/115/29 3/116/29
usemtl m_aba6fcf7-20d2-2f49-a638-868c8a05dda3
f 16/117/30 32/118/30 31/119/30 15/120/30