# Made in Blockbench 4.12.1
mtllib painted_arch.mtl

o double_left
v 0.16900940985016658 1.5 -0.015624999999999667
v 0.11022133051183022 0.9782413648702672 -0.015624999999999889
v 0.4985533920187767 1.4247837365454707 -0.015624999999999778
v 0.3251370337794329 0.9291882580554671 -0.015624999999999889
v 0.8030978253338976 1.2781228671617866 -0.015624999999999778
v 0.5237490085193169 0.8335417720294968 -0.015624999999999778
v 1.0673715802423027 1.067371580242303 -0.015624999999999778
v 0.6960980209866428 0.696098020986643 -0.015624999999999889
v 1.2781228671617866 0.8030978253338978 -0.015624999999999889
v 0.8335417720294968 0.523749008519317 -0.015624999999999889
v 1.4247837365454705 0.49855339201877685 -0.015625
v 0.9291882580554671 0.32513703377943304 -0.015624999999999889
v 1.5 0.1690094098501667 -0.015625
v 0.9782413648702671 0.11022133051183036 -0.015625
v 1.5 0 -0.015625
v 0.9782413648702671 0 -0.015625
v 0 1.5 -0.015624999999999667
v 0 0.9782413648702672 -0.015624999999999889
v 0.3251370337794329 0.9291882580554671 1.015625
v 0.11022133051183022 0.9782413648702672 1.015625
v 0.16900940985016658 1.5 1.0156250000000004
v 0.4985533920187767 1.4247837365454707 1.0156250000000002
v 0 0.9782413648702672 1.015625
v 0 1.5 1.0156250000000004
v 0.8030978253338976 1.2781228671617866 1.0156250000000002
v 0.5237490085193169 0.8335417720294968 1.0156250000000002
v 1.0673715802423027 1.067371580242303 1.0156250000000002
v 0.6960980209866428 0.696098020986643 1.015625
v 1.2781228671617866 0.8030978253338978 1.015625
v 0.8335417720294968 0.523749008519317 1.015625
v 1.4247837365454705 0.49855339201877685 1.015625
v 0.9291882580554671 0.32513703377943304 1.015625
v 1.5 0.1690094098501667 1.015625
v 0.9782413648702671 0.11022133051183036 1.015625
v 1.5 0 1.015625
v 0.9782413648702671 0 1.015625
vt 0 0.6874999999999991
vt 0 0.3437499999999991
vt 1 0.3437499999999991
vt 1 0.6874999999999991
vt 0 0.44791666666666663
vt 0 0.41145833333333337
vt 1 0.41145833333333337
vt 1 0.44791666666666663
vt 0.40625 0.46875
vt 0.4125 1
vt 0.34374999999999967 0.9999999999999998
vt 0.35 0.46875
vt 0 0.34375
vt 0 0
vt 1 0
vt 1 0.34375
vt 0 0.41145833333333337
vt 0 0.375
vt 1 0.375
vt 1 0.41145833333333337
vt 0.28125000000000017 1
vt 0.28750000000000037 0.46874999999999734
vt 0.34375000000000033 0.46874999999999734
vt 0.3500000000000002 1
vt 1 0.3125
vt 1 0.65625
vt 0 0.65625
vt 0 0.3125
vt 0 0.375
vt 0 0.33854166666666663
vt 1 0.33854166666666663
vt 1 0.375
vt 0.21875000000000017 1
vt 0.22500000000000037 0.46874999999999734
vt 0.28125000000000033 0.46874999999999734
vt 0.2875000000000002 1
vt 1 0.65625
vt 1 1
vt 0 1
vt 0 0.65625
vt 0 0.33854166666666663
vt 0 0.30208333333333337
vt 1 0.30208333333333337
vt 1 0.33854166666666663
vt 0.15625000000000017 1
vt 0.16250000000000037 0.46874999999999734
vt 0.21875000000000036 0.46874999999999734
vt 0.22500000000000017 1
vt 0 0.9687499999999991
vt 0 0.6249999999999991
vt 1 0.6249999999999991
vt 1 0.9687499999999991
vt 0 0.30208333333333337
vt 0 0.265625
vt 1 0.265625
vt 1 0.30208333333333337
vt 0.09375000000000018 1
vt 0.10000000000000035 0.46874999999999734
vt 0.15625000000000036 0.46874999999999734
vt 0.16250000000000017 1
vt 0 0.6249999999999991
vt 0 0.2812499999999991
vt 1 0.2812499999999991
vt 1 0.6249999999999991
vt 0 0.265625
vt 0 0.22916666666666663
vt 1 0.22916666666666663
vt 1 0.265625
vt 0.03125000000000018 1
vt 0.03750000000000035 0.46874999999999734
vt 0.09375000000000036 0.46874999999999734
vt 0.10000000000000017 1
vt 0 0.28125
vt 0 0
vt 1 0
vt 1 0.28125
vt 0 0.22916666666666663
vt 0 0.19270833333333337
vt 1 0.19270833333333337
vt 1 0.22916666666666663
vt 0 0.9999999999999973
vt 0 0.46874999999999734
vt 0.028125 0.46874999999999734
vt 0.0375 1
vt 0 0.84375
vt 0 0.6875
vt 1 0.6875
vt 1 0.84375
vt 0 0.46354166666666663
vt 0 0.44791666666666663
vt 0.9999999999999999 0.44791666666666663
vt 0.9999999999999999 0.46354166666666663
vt 0.40625000000000017 1
vt 0.41250000000000037 0.46874999999999734
vt 0.4375 0.46874999999999734
vt 0.4375 1
vt 0.9999999999999999 0.19270833333333337
vt 0 0.19270833333333337
vt 0 0.10416666666666663
vt 0.9999999999999999 0.10416666666666663
vt 0.39375 0.46875
vt 0.39375 1
vt 0.59375 1
vt 0.59375 0.46875
vt 0.46875 0.46875
vt 0.525 0.46875
vt 0.5312500000000003 0.9999999999999998
vt 0.4625 1
vt 0.5874999999999997 0.46874999999999734
vt 0.5937499999999998 1
vt 0.5249999999999998 1
vt 0.5312499999999997 0.46874999999999734
vt 0.6499999999999997 0.46874999999999734
vt 0.6562499999999998 1
vt 0.5874999999999998 1
vt 0.5937499999999997 0.46874999999999734
vt 0.7124999999999997 0.46874999999999734
vt 0.7187499999999998 1
vt 0.6499999999999998 1
vt 0.6562499999999997 0.46874999999999734
vt 0.7749999999999997 0.46874999999999734
vt 0.7812499999999998 1
vt 0.7124999999999998 1
vt 0.7187499999999997 0.46874999999999734
vt 0.8374999999999997 0.46874999999999734
vt 0.8437499999999998 1
vt 0.7749999999999998 1
vt 0.7812499999999997 0.46874999999999734
vt 0.875 1
vt 0.8375 1
vt 0.846875 0.46875
vt 0.8749999999999998 0.46875
vt 0.4624999999999998 0.46874999999999734
vt 0.46875 1
vt 0.43750000000000017 1
vt 0.43750000000000017 0.46874999999999734
vn 0.2225209339563146 0.9749279121818236 0
vn -0.22252093395631434 -0.9749279121818236 0
vn -2.3375192138213484e-16 4.519070994696727e-16 -1
vn 0.43388373911755806 0.9009688679024191 0
vn -0.433883739117559 -0.9009688679024189 0
vn 4.2913697038300953e-16 -2.696446300583614e-16 -1
vn 0.6234898018587336 0.7818314824680299 0
vn -0.623489801858733 -0.7818314824680305 0
vn -2.257068880803967e-16 5.247378847532985e-16 -1
vn 0.7818314824680296 0.6234898018587339 0
vn -0.78183148246803 -0.6234898018587333 0
vn 0 0 -1
vn 0.9009688679024195 0.43388373911755745 0
vn -0.9009688679024189 -0.433883739117559 0
vn -1.9171247283085466e-16 -9.232386102416773e-17 -1
vn 0.9749279121818235 0.2225209339563152 0
vn -0.9749279121818237 -0.2225209339563139 0
vn -5.674586377628758e-17 5.036334707037469e-16 -1
vn 1 0 0
vn -1 0 0
vn 0 0 -1
vn 0 1 0
vn 0 -1 0
vn 0 4.2556958328024793e-16 -1
vn 0 -1 0
vn -1 0 0
vn -9.46981411349203e-17 -4.1489966531550093e-16 1
vn 0 0 1
vn -2.653382951565056e-16 -3.3272369818929797e-16 1
vn 3.5170337458430635e-16 -5.597327141650221e-16 1
vn 0 0 1
vn 0 0 1
vn 0 0 1
vn 0 -8.511391665604959e-16 1
usemtl m_c74501f2-c496-69df-6537-5b641c492ccf
f 21/1/1 22/2/1 3/3/1 1/4/1
usemtl m_c18739ee-15c5-063b-6755-9b19b70de64b
f 2/5/2 4/6/2 19/7/2 20/8/2
usemtl m_4f2f0fb4-9f18-dfcd-6962-5c8a01be345a
f 2/9/3 1/10/3 3/11/3 4/12/3
usemtl m_c74501f2-c496-69df-6537-5b641c492ccf
f 22/13/4 25/14/4 5/15/4 3/16/4
usemtl m_c18739ee-15c5-063b-6755-9b19b70de64b
f 4/17/5 6/18/5 26/19/5 19/20/5
usemtl m_4f2f0fb4-9f18-dfcd-6962-5c8a01be345a
f 5/21/6 6/22/6 4/23/6 3/24/6
usemtl m_c74501f2-c496-69df-6537-5b641c492ccf
f 25/25/7 27/26/7 7/27/7 5/28/7
usemtl m_c18739ee-15c5-063b-6755-9b19b70de64b
f 6/29/8 8/30/8 28/31/8 26/32/8
usemtl m_4f2f0fb4-9f18-dfcd-6962-5c8a01be345a
f 7/33/9 8/34/9 6/35/9 5/36/9
usemtl m_c74501f2-c496-69df-6537-5b641c492ccf
f 27/37/10 29/38/10 9/39/10 7/40/10
usemtl m_c18739ee-15c5-063b-6755-9b19b70de64b
f 8/41/11 10/42/11 30/43/11 28/44/11
usemtl m_4f2f0fb4-9f18-dfcd-6962-5c8a01be345a
f 9/45/12 10/46/12 8/47/12 7/48/12
usemtl m_c74501f2-c496-69df-6537-5b641c492ccf
f 29/49/13 31/50/13 11/51/13 9/52/13
usemtl m_c18739ee-15c5-063b-6755-9b19b70de64b
f 10/53/14 12/54/14 32/55/14 30/56/14
usemtl m_4f2f0fb4-9f18-dfcd-6962-5c8a01be345a
f 11/57/15 12/58/15 10/59/15 9/60/15
usemtl m_c74501f2-c496-69df-6537-5b641c492ccf
f 31/61/16 33/62/16 13/63/16 11/64/16
usemtl m_c18739ee-15c5-063b-6755-9b19b70de64b
f 12/65/17 14/66/17 34/67/17 32/68/17
usemtl m_4f2f0fb4-9f18-dfcd-6962-5c8a01be345a
f 13/69/18 14/70/18 12/71/18 11/72/18
usemtl m_c74501f2-c496-69df-6537-5b641c492ccf
f 33/73/19 35/74/19 15/75/19 13/76/19
usemtl m_c18739ee-15c5-063b-6755-9b19b70de64b
f 14/77/20 16/78/20 36/79/20 34/80/20
usemtl m_4f2f0fb4-9f18-dfcd-6962-5c8a01be345a
f 15/81/21 16/82/21 14/83/21 13/84/21
usemtl m_c74501f2-c496-69df-6537-5b641c492ccf
f 24/85/22 21/86/22 1/87/22 17/88/22
usemtl m_c18739ee-15c5-063b-6755-9b19b70de64b
f 18/89/23 2/90/23 20/91/23 23/92/23
usemtl m_4f2f0fb4-9f18-dfcd-6962-5c8a01be345a
f 1/93/24 2/94/24 18/95/24 17/96/24
usemtl m_c18739ee-15c5-063b-6755-9b19b70de64b
f 36/97/25 16/98/25 15/99/25 35/100/25
usemtl m_4f2f0fb4-9f18-dfcd-6962-5c8a01be345a
f 17/101/26 18/102/26 23/103/26 24/104/26
f 20/105/27 19/106/27 22/107/27 21/108/27
f 26/109/28 25/110/28 22/111/28 19/112/28
f 28/113/29 27/114/29 25/115/29 26/116/29
f 30/117/30 29/118/30 27/119/30 28/120/30
f 32/121/31 31/122/31 29/123/31 30/124/31
f 34/125/32 33/126/32 31/127/32 32/128/32
f 35/129/33 33/130/33 34/131/33 36/132/33
f 20/133/34 21/134/34 24/135/34 23/136/34