# Made in Blockbench 4.12.1
mtllib painted_arch.mtl

o single_thick
v 0.04035045157464151 1.402113032590307 1.015625
v 0.27880968473609247 0.9341104364529416 1.015625
v -0.2159209561595875 1.2159209561595876 1.015625
v 0.15548800702739685 0.8445119929726035 1.015625
v -0.40211303259030695 0.9596495484253587 1.015625
v 0.06588956354705872 0.7211903152639078 1.015625
v -0.4999999999999999 0.6583844403245365 1.015625
v 0.018784874211997205 0.5762169883736343 1.015625
v -0.49999999999999967 0.3826992856509148 1.015625
v 0.01878487421199726 0.3826992856509148 1.015625
v 0.6583844403245362 1.5 -0.015624999999999667
v 0.5762169883736341 0.981215125788003 -0.015624999999999778
v 0.9596495484253585 1.402113032590307 -0.015625
v 0.7211903152639076 0.9341104364529416 -0.015625
v 1.2159209561595876 1.2159209561595876 -0.015624999999999778
v 0.8445119929726033 0.8445119929726035 -0.015625
v 1.4021130325903068 0.9596495484253587 -0.015624999999999889
v 0.9341104364529413 0.7211903152639078 -0.015624999999999889
v 1.5 0.6583844403245365 -0.015624999999999889
v 0.9812151257880029 0.5762169883736343 -0.01562500000000011
v 1.4999999999999996 0.3826992856509148 -0.015625
v 0.9812151257880029 0.3826992856509148 -0.01562500000000011
v 0.6583844403245364 1.5 1.0156250000000002
v 0.576216988373634 0.981215125788003 1.0156250000000002
v 0.42378301162636567 0.9812151257880029 1.015625
v 0.34161555967546375 1.5 1.0156249999999998
v 0.9596495484253587 1.402113032590307 1.015625
v 0.7211903152639078 0.9341104364529416 1.015625
v 1.2159209561595876 1.2159209561595876 1.015625
v 0.8445119929726034 0.8445119929726035 1.015625
v 1.4021130325903073 0.9596495484253587 1.015625
v 0.9341104364529415 0.7211903152639078 1.015625
v 1.5 0.6583844403245365 1.015625
v 0.981215125788003 0.5762169883736343 1.015625
v 1.5 0.3826992856509148 1.015625
v 0.981215125788003 0.3826992856509148 1.015625
v -0.5 0.6583844403245365 -0.015625
v -0.4999999999999999 0.3826992856509148 -0.015624999999999889
v 0.01878487421199715 0.3826992856509148 -0.015624999999999889
v 0.018784874211997094 0.5762169883736343 -0.015624999999999889
v -0.4021130325903072 0.9596495484253587 -0.015625
v 0.0658895635470586 0.7211903152639078 -0.01562500000000011
v -0.21592095615958773 1.2159209561595876 -0.01562500000000011
v 0.15548800702739674 0.8445119929726035 -0.015625
v 0.0403504515746414 1.402113032590307 -0.015625
v 0.27880968473609236 0.9341104364529416 -0.015625
v 0.34161555967546364 1.5 -0.015625000000000222
v 0.4237830116263658 0.9812151257880029 -0.015625
vt 1 0.3749999999999999
vt 1 0.6875
vt 0 0.6875
vt 0 0.3749999999999999
vt 1 0.5104166666666667
vt 1 0.484375
vt 0 0.484375
vt 0 0.5104166666666667
vt 0.3515625 1
vt 0.2734375 1
vt 0.2890625 0.46875
vt 0.3359375 0.46875
vt 1 0.6874999999999999
vt 1 1
vt 0 1
vt 0 0.6874999999999999
vt 1 0.5104166666666667
vt 1 0.5364583333333333
vt 0 0.5364583333333333
vt 0 0.5104166666666667
vt 0.28125 1
vt 0.203125 1
vt 0.21875 0.46875
vt 0.265625 0.46875
vt 0 0.9062500000000001
vt 0 0.59375
vt 1 0.59375
vt 1 0.9062500000000001
vt 1 0.5364583333333333
vt 1 0.5625
vt 0 0.5625
vt 0 0.5364583333333333
vt 0.2109375 1
vt 0.1328125 1
vt 0.1484375 0.46875
vt 0.1953125 0.46875
vt 0 0.5937500000000001
vt 0 0.28125
vt 1 0.28125
vt 1 0.5937500000000001
vt 1 0.5625
vt 1 0.5885416666666667
vt 0 0.5885416666666667
vt 0 0.5625
vt 0.140625 1
vt 0.0625 1
vt 0.078125 0.46875
vt 0.125 0.46875
vt 0 0.28125
vt 0 0
vt 1 0
vt 1 0.28125
vt 1 0.5885416666666667
vt 1 0.6197916666666667
vt 0 0.6197916666666667
vt 0 0.5885416666666667
vt 0.0703125 1
vt 0 1
vt 2.831559516443665e-17 0.46875
vt 0.0546875 0.46875
vt 1 0
vt 1 0.3125
vt 0 0.3125
vt 0 0
vt 0 0.45833333333333337
vt 0 0.43229166666666663
vt 1 0.43229166666666663
vt 1 0.45833333333333337
vt 0.3515625 1
vt 0.2734375 1
vt 0.2890625 0.46875
vt 0.3359375 0.46875
vt 1 0.3125
vt 1 0.625
vt 0 0.625
vt 0 0.3125
vt 0 0.43229166666666663
vt 0 0.40625
vt 1 0.40625
vt 1 0.43229166666666663
vt 0.28125 1
vt 0.203125 1
vt 0.21875 0.46875
vt 0.265625 0.46875
vt 1 0.625
vt 1 0.9375
vt 0 0.9375
vt 0 0.625
vt 0 0.40625
vt 0 0.38020833333333337
vt 1 0.38020833333333337
vt 1 0.40625
vt 0.2109375 1
vt 0.1328125 1
vt 0.1484375 0.46875
vt 0.1953125 0.46875
vt 0 0.5937500000000001
vt 0 0.28125
vt 1 0.28125
vt 1 0.5937500000000001
vt 0 0.38020833333333337
vt 0 0.35416666666666663
vt 1 0.35416666666666663
vt 1 0.38020833333333337
vt 0.140625 1
vt 0.0625 1
vt 0.078125 0.46875
vt 0.125 0.46875
vt 0 0.28125
vt 0 0
vt 1 0
vt 1 0.28125
vt 0 0.35416666666666663
vt 0 0.32291666666666663
vt 1 0.32291666666666663
vt 1 0.35416666666666663
vt 0.0703125 1
vt 0 1
vt 2.831559516443665e-17 0.46875
vt 0.0546875 0.46875
vt 0 0.0625
vt 1 0.0625
vt 1 0.375
vt 0 0.375
vt 1 0.45833333333333337
vt 1 0.484375
vt 0 0.484375
vt 0 0.45833333333333337
vt 0.3437500000000009 1
vt 0.359375 0.46875
vt 0.40625 0.46875
vt 0.4218750000000009 1
vt 0.4765625000000018 0.46875
vt 0.4921875000000009 1
vt 0.4140625000000009 1
vt 0.4296875000000018 0.46875
vt 0.5468750000000018 0.46875
vt 0.5625000000000009 1
vt 0.4843750000000009 1
vt 0.5000000000000018 0.46875
vt 0.6328125000000009 1
vt 0.5546875000000009 1
vt 0.5703125000000018 0.46875
vt 0.6171875000000018 0.46875
vt 0.6875000000000018 0.46875
vt 0.7031250000000009 1
vt 0.6250000000000009 1
vt 0.6406250000000018 0.46875
vt 0.7656250000000009 0.46875
vt 0.7656250000000009 1
vt 0.6953125000000009 1
vt 0.7109375000000009 0.46875
vt 0.359375 0.46875
vt 0.40625 0.46875
vt 0.421875 1
vt 0.34375 1
vt 0.4765625 0.46875
vt 0.4921875 1
vt 0.4140625 1
vt 0.4296875 0.46875
vt 0.546875 0.46875
vt 0.5625 1
vt 0.484375 1
vt 0.5 0.46875
vt 0.6171875 0.46875
vt 0.6328125 1
vt 0.5546875 1
vt 0.5703125 0.46875
vt 0.6875 0.46875
vt 0.703125 1
vt 0.625 1
vt 0.640625 0.46875
vt 0.765625 0.46875
vt 0.765625 1
vt 0.6953125 1
vt 0.7109375 0.46875
vt 1 0.23958333333333337
vt 1 0.32291666666666663
vt 0 0.32291666666666663
vt 0 0.23958333333333337
vt 0 0.703125
vt 0 0.6197916666666667
vt 1 0.6197916666666667
vt 1 0.703125
vn -0.3090169943749476 0.9510565162951535 3.7843667304341524e-17
vn 0.3090169943749468 -0.951056516295154 -3.7843667304341425e-17
vn 3.725094866057178e-16 3.6463001857357857e-16 1
vn -0.5877852522924731 0.8090169943749477 7.198293278059966e-17
vn 0.5877852522924735 -0.8090169943749473 -7.198293278059971e-17
vn -3.800312740112063e-16 9.534800498046698e-17 1
vn -0.8090169943749472 0.5877852522924734 9.907600726170914e-17
vn 0.8090169943749475 -0.5877852522924731 -9.907600726170916e-17
vn 2.8356431535706017e-16 3.161758369521566e-16 1
vn -0.9510565162951536 0.30901699437494784 1.1647083184890923e-16
vn 0.9510565162951535 -0.3090169943749477 -1.1647083184890923e-16
vn -8.106570321651828e-17 6.613103026117405e-17 1
vn -1 -8.054282254984155e-16 1.2246467991473532e-16
vn 1 2.86853091217172e-16 -1.2246467991473532e-16
vn 1.2246467991473532e-16 4.027141127492077e-16 1
vn 0.3090169943749476 0.9510565162951535 -3.7843667304341524e-17
vn -0.30901699437494684 -0.9510565162951539 3.784366730434143e-17
vn -6.886853235578742e-16 5.257296540159033e-16 -1
vn 0.5877852522924734 0.8090169943749472 -7.19829327805997e-17
vn -0.5877852522924732 -0.8090169943749475 7.198293278059968e-17
vn 7.567385334187451e-16 1.7562725026132637e-17 -1
vn 0.8090169943749473 0.5877852522924735 -9.907600726170915e-17
vn -0.8090169943749478 -0.5877852522924727 9.907600726170921e-17
vn -1.1043103042225896e-16 4.4196453147055985e-16 -1
vn 0.9510565162951535 0.30901699437494773 -1.1647083184890923e-16
vn -0.9510565162951535 -0.3090169943749477 1.1647083184890923e-16
vn 2.8459608634777186e-16 1.3226206052234807e-16 -1
vn 1 -8.054282254984156e-16 -1.2246467991473532e-16
vn -1 0 1.2246467991473532e-16
vn 9.153982943251938e-17 4.027141127492076e-16 -1
vn 0 1 0
vn 7.283304210227869e-16 -1 6.762642687207896e-32
vn 1.3341961621308385e-15 -1.670790286280139e-17 -1
vn 3.725094866057178e-16 -3.646300185735785e-16 1
vn -3.800312740112064e-16 -9.534800498046699e-17 1
vn -2.2380188995486726e-16 -2.5157738903680617e-16 1
vn -2.8459608634777186e-16 -1.3226206052234815e-16 1
vn 1.2246467991473532e-16 -8.054282254984156e-16 1
vn -1.3341961621308387e-15 2.307124122100567e-16 1
vn -3.725094866057178e-16 -3.646300185735785e-16 -1
vn 3.800312740112062e-16 -9.534800498046698e-17 -1
vn -2.8356431535706017e-16 -3.1617583695215666e-16 -1
vn 8.106570321651828e-17 -6.613103026117405e-17 -1
vn -1.2246467991473532e-16 -4.027141127492077e-16 -1
vn 0 -1 0
vn 0 -1 0
usemtl m_c74501f2-c496-69df-6537-5b641c492ccf
f 47/1/1 45/2/1 1/3/1 26/4/1
usemtl m_c18739ee-15c5-063b-6755-9b19b70de64b
f 25/5/2 2/6/2 46/7/2 48/8/2
usemtl m_6aa32234-d495-f205-0521-0303216118a7
f 26/9/3 1/10/3 2/11/3 25/12/3
usemtl m_c74501f2-c496-69df-6537-5b641c492ccf
f 45/13/4 43/14/4 3/15/4 1/16/4
usemtl m_c18739ee-15c5-063b-6755-9b19b70de64b
f 2/17/5 4/18/5 44/19/5 46/20/5
usemtl m_6aa32234-d495-f205-0521-0303216118a7
f 1/21/6 3/22/6 4/23/6 2/24/6
usemtl m_c74501f2-c496-69df-6537-5b641c492ccf
f 43/25/7 41/26/7 5/27/7 3/28/7
usemtl m_c18739ee-15c5-063b-6755-9b19b70de64b
f 4/29/8 6/30/8 42/31/8 44/32/8
usemtl m_6aa32234-d495-f205-0521-0303216118a7
f 3/33/9 5/34/9 6/35/9 4/36/9
usemtl m_c74501f2-c496-69df-6537-5b641c492ccf
f 41/37/10 37/38/10 7/39/10 5/40/10
usemtl m_c18739ee-15c5-063b-6755-9b19b70de64b
f 6/41/11 8/42/11 40/43/11 42/44/11
usemtl m_6aa32234-d495-f205-0521-0303216118a7
f 5/45/12 7/46/12 8/47/12 6/48/12
usemtl m_c74501f2-c496-69df-6537-5b641c492ccf
f 37/49/13 38/50/13 9/51/13 7/52/13
usemtl m_c18739ee-15c5-063b-6755-9b19b70de64b
f 8/53/14 10/54/14 39/55/14 40/56/14
usemtl m_6aa32234-d495-f205-0521-0303216118a7
f 7/57/15 9/58/15 10/59/15 8/60/15
usemtl m_c74501f2-c496-69df-6537-5b641c492ccf
f 23/61/16 27/62/16 13/63/16 11/64/16
usemtl m_c18739ee-15c5-063b-6755-9b19b70de64b
f 12/65/17 14/66/17 28/67/17 24/68/17
usemtl m_6aa32234-d495-f205-0521-0303216118a7
f 11/69/18 13/70/18 14/71/18 12/72/18
usemtl m_c74501f2-c496-69df-6537-5b641c492ccf
f 27/73/19 29/74/19 15/75/19 13/76/19
usemtl m_c18739ee-15c5-063b-6755-9b19b70de64b
f 14/77/20 16/78/20 30/79/20 28/80/20
usemtl m_6aa32234-d495-f205-0521-0303216118a7
f 13/81/21 15/82/21 16/83/21 14/84/21
usemtl m_c74501f2-c496-69df-6537-5b641c492ccf
f 29/85/22 31/86/22 17/87/22 15/88/22
usemtl m_c18739ee-15c5-063b-6755-9b19b70de64b
f 16/89/23 18/90/23 32/91/23 30/92/23
usemtl m_6aa32234-d495-f205-0521-0303216118a7
f 15/93/24 17/94/24 18/95/24 16/96/24
usemtl m_c74501f2-c496-69df-6537-5b641c492ccf
f 31/97/25 33/98/25 19/99/25 17/100/25
usemtl m_c18739ee-15c5-063b-6755-9b19b70de64b
f 18/101/26 20/102/26 34/103/26 32/104/26
usemtl m_6aa32234-d495-f205-0521-0303216118a7
f 17/105/27 19/106/27 20/107/27 18/108/27
usemtl m_c74501f2-c496-69df-6537-5b641c492ccf
f 33/109/28 35/110/28 21/111/28 19/112/28
usemtl m_c18739ee-15c5-063b-6755-9b19b70de64b
f 20/113/29 22/114/29 36/115/29 34/116/29
usemtl m_6aa32234-d495-f205-0521-0303216118a7
f 19/117/30 21/118/30 22/119/30 20/120/30
usemtl m_c74501f2-c496-69df-6537-5b641c492ccf
f 23/121/31 11/122/31 47/123/31 26/124/31
usemtl m_c18739ee-15c5-063b-6755-9b19b70de64b
f 24/125/32 25/126/32 48/127/32 12/128/32
usemtl m_6aa32234-d495-f205-0521-0303216118a7
f 11/129/33 12/130/33 48/131/33 47/132/33
f 28/133/34 27/134/34 23/135/34 24/136/34
f 30/137/35 29/138/35 27/139/35 28/140/35
f 31/141/36 29/142/36 30/143/36 32/144/36
f 34/145/37 33/146/37 31/147/37 32/148/37
f 36/149/38 35/150/38 33/151/38 34/152/38
f 25/153/39 24/154/39 23/155/39 26/156/39
f 46/157/40 45/158/40 47/159/40 48/160/40
f 44/161/41 43/162/41 45/163/41 46/164/41
f 42/165/42 41/166/42 43/167/42 44/168/42
f 40/169/43 37/170/43 41/171/43 42/172/43
f 39/173/44 38/174/44 37/175/44 40/176/44
usemtl m_c18739ee-15c5-063b-6755-9b19b70de64b
f 35/177/45 36/178/45 22/179/45 21/180/45
f 38/181/46 39/182/46 10/183/46 9/184/46