# Blender v3.2.2 OBJ File: ''
# www.blender.org
mtllib smooth_arch.mtl
o cube.003
v 0.159122 1.327589 1.005009
v 0.159122 1.327589 -0.002327
v -0.001278 1.327589 -0.002327
v -0.001278 1.327589 1.005009
v 0.972612 1.042952 1.005009
v 0.972612 1.042952 -0.002327
v 0.682895 1.196998 -0.002327
v 0.682895 1.196998 1.005009
v 0.264963 1.314593 1.005009
v 0.264963 1.314593 -0.002327
v 0.583342 1.235213 -0.002327
v 0.583342 1.235212 1.005009
v 1.059963 0.981789 1.005009
v 1.059963 0.981789 -0.002327
v 1.303807 0.762230 1.005009
v 1.303807 0.762230 -0.002327
v 1.011062 0.437104 -0.002327
v 1.011062 0.437104 1.005009
v 0.159122 0.890089 -0.002327
v 0.159122 0.890089 1.005009
v -0.001278 0.890089 1.005009
v -0.001278 0.890089 -0.002327
v 0.767218 0.656663 -0.002327
v 0.767218 0.656663 1.005009
v 0.477501 0.810708 1.005009
v 0.477501 0.810708 -0.002327
vt 0.593750 1.000000
vt 0.593750 0.000000
vt 0.750000 0.000000
vt 0.750000 1.000000
vt 0.687500 0.000000
vt 0.687500 1.000000
vt 1.000000 1.000000
vt 1.000000 0.000000
vt 0.500000 1.000000
vt 0.500000 0.000000
vt 0.093755 1.000000
vt 0.187500 1.000000
vt 0.187500 0.000000
vt 0.093750 0.000000
vt 0.593750 0.000000
vt 0.593750 1.000000
vt 0.500000 0.000000
vt 0.500000 1.000000
vt 0.187500 1.000000
vt 0.187500 0.000000
vt 0.000000 0.000000
vt 0.499999 0.000000
vt 0.500000 1.000000
vt 0.000001 1.000000
vt 0.500000 1.000000
vt 0.500000 0.000000
vt 0.500000 1.000000
vt 0.500000 0.000000
vt 0.656250 0.000000
vt 0.656250 1.000000
vt 1.000000 0.000000
vt 1.000000 1.000000
vt 0.687500 1.000000
vt 0.687500 0.000000
vt 0.500000 1.000000
vt 0.500000 0.000000
vt 0.187500 0.000000
vt 0.187500 1.000000
vt 0.500000 0.000000
vt 0.999999 0.000000
vt 1.000000 1.000000
vt 0.500001 1.000000
vt 0.500000 1.000000
vt 0.500000 0.000000
vt 0.187500 0.000000
vt 0.187500 1.000000
vt 0.750000 0.500000
vt 0.750000 0.937500
vt 0.593750 0.937500
vt 0.593750 0.500000
vt 0.718750 0.937500
vt 0.718750 0.500000
vt 0.562500 0.500000
vt 0.562500 0.937500
vt 0.593750 0.000000
vt 0.593750 0.437500
vt 0.906250 0.437500
vt 0.906250 0.000000
vt 0.812500 0.937500
vt 0.812500 0.500000
vt 0.500000 0.500000
vt 0.500000 0.937500
vt 0.906250 0.937500
vt 0.875000 0.500000
vt 0.406250 0.937500
vt 0.375000 0.500000
vt 0.312500 0.937500
vt 0.031250 0.500000
vt 0.031250 0.937500
vt 0.343750 0.937500
vt 0.343750 0.500000
vt 0.031250 0.437500
vt 0.031250 0.000000
vt 0.343750 0.000000
vt 0.343750 0.437500
vt 0.781250 0.500000
vt 0.812500 0.936390
vt 0.531250 0.000000
vt 0.500000 0.437500
vt 0.031250 0.000000
vt 0.000000 0.437500
vt 0.093750 0.437500
vt 0.593750 0.937500
vt 0.531250 0.500000
vt 0.500000 0.937500
vt 0.093750 0.000000
vt 0.406250 0.437500
vt 0.406250 0.000000
vt 0.312500 0.500000
vt 0.000000 0.500000
vt 0.000000 0.937500
vn 0.0000 1.0000 0.0000
vn 0.4695 0.8829 0.0000
vn 0.1219 0.9925 0.0000
vn 0.3584 0.9336 0.0000
vn 0.5736 0.8192 0.0000
vn 0.6691 0.7431 0.0000
vn 0.7431 -0.6691 -0.0000
vn 0.2419 0.9703 0.0000
vn 0.0000 -1.0000 -0.0000
vn -0.4695 -0.8829 -0.0000
vn -0.2419 -0.9703 -0.0000
vn -1.0000 0.0000 0.0000
vn -0.6691 -0.7431 -0.0000
vn -0.0000 -0.0000 1.0000
vn 0.0000 0.0000 -1.0000
usemtl m_arch
s 1
f 1/1/1 2/2/1 3/3/1 4/4/1
f 5/5/2 6/6/2 7/7/2 8/8/2
f 2/2/3 1/1/3 9/9/3 10/10/3
f 7/11/4 11/12/4 12/13/4 8/14/4
f 13/15/5 14/16/5 6/6/5 5/5/5
f 15/17/6 16/18/6 14/19/6 13/20/6
f 17/21/7 16/22/7 15/23/7 18/24/7
f 12/13/8 11/12/8 10/25/8 9/26/8
f 19/27/9 20/28/9 21/29/9 22/30/9
f 23/31/10 24/32/10 25/33/10 26/34/10
f 26/35/11 25/36/11 20/37/11 19/38/11
f 21/39/12 4/40/12 3/41/12 22/42/12
f 17/43/13 18/44/13 24/45/13 23/46/13
usemtl m_keystones
f 20/47/14 1/48/14 4/49/14 21/50/14
f 2/51/15 19/52/15 22/53/15 3/54/15
f 24/55/14 5/56/14 8/57/14 25/58/14
f 6/59/15 23/60/15 26/61/15 7/62/15
f 14/63/15 23/64/15 6/59/15
f 7/65/15 26/66/15 11/67/15
f 18/68/14 15/69/14 13/70/14 24/71/14
f 16/72/15 17/73/15 23/74/15 14/75/15
f 19/76/15 2/51/15 10/77/15
f 24/78/14 13/79/14 5/56/14
f 25/80/14 8/81/14 12/82/14
f 1/83/14 20/84/14 9/85/14
f 25/86/14 12/82/14 9/87/14 20/88/14
f 11/67/15 26/89/15 19/90/15 10/91/15
