# Blender v3.2.2 OBJ File: ''
# www.blender.org
mtllib smooth_arch.mtl
o cube.001
v -0.239414 1.503661 -0.020000
v -0.239414 1.503661 1.020000
v 0.139712 1.605248 1.020000
v 0.139712 1.605248 -0.020000
v -0.076009 0.893826 -0.020000
v -0.076009 0.893826 1.020000
v 0.303117 1.626760 -0.020000
v 0.303117 1.626760 1.020000
v 0.697326 1.626760 1.020000
v 0.697326 1.626760 -0.020000
v 1.239414 1.503661 1.020000
v 1.239414 1.503661 -0.020000
v 0.860288 1.605248 -0.020000
v 0.860288 1.605248 1.020000
v 1.076009 0.893826 1.020000
v 1.076009 0.893826 -0.020000
v 0.303117 0.995413 1.020000
v 0.303117 0.995413 -0.020000
v 0.697105 0.995413 -0.020000
v 0.697105 0.995413 1.020000
vt 1.000000 1.000000
vt 1.000000 0.000000
vt 0.625000 0.000000
vt 0.625000 1.000000
vt 0.500000 0.000000
vt 1.000000 0.000000
vt 1.000000 1.000000
vt 0.500000 1.000000
vt 0.156250 0.000000
vt 0.156250 1.000000
vt 0.000000 1.000000
vt 0.000001 0.000000
vt 0.468750 1.000000
vt 0.468750 0.000000
vt 0.093750 0.000000
vt 0.093750 1.000000
vt 1.000000 0.000000
vt 1.000000 1.000000
vt 0.625000 1.000000
vt 0.625000 0.000000
vt 0.625000 0.625000
vt 0.625000 0.000000
vt 1.000000 0.000000
vt 1.000000 0.625000
vt 0.437500 0.000000
vt 0.437500 0.625000
vt 0.062500 0.625000
vt 0.062500 0.000000
vt 0.500000 0.625000
vt 0.500000 0.000000
vt 0.875000 0.000000
vt 0.875000 0.625000
vt 0.343750 0.625000
vt 0.484375 0.000000
vt 0.492188 0.625000
vt 0.015625 0.000000
vt 0.156250 0.625000
vt 0.007812 0.625000
vt 0.437500 0.000000
vt 0.437500 1.000000
vt 0.062500 1.000000
vt 0.062500 0.000000
vt 0.500000 1.000000
vt 0.500000 0.000000
vt 0.875000 0.000000
vt 0.875000 1.000000
vt 0.500000 0.000000
vt 1.000000 0.000000
vt 1.000000 1.000000
vt 0.500000 1.000000
vt 0.500000 1.000000
vt 0.343750 1.000000
vt 0.343750 0.000000
vt 0.500000 0.000000
vt 0.625000 0.000000
vt 0.625000 1.000000
vt 0.875000 0.000000
vt 0.875000 0.625000
vt 0.500000 0.625000
vt 0.500000 0.000000
vt 0.437500 0.000000
vt 0.437500 0.625000
vt 0.062500 0.625000
vt 0.062500 0.000000
vt 1.000000 0.625000
vt 0.625000 0.625000
vt 0.343750 0.625000
vt 0.484375 0.000000
vt 0.492188 0.625000
vt 0.015625 0.000000
vt 0.156250 0.625000
vt 0.007812 0.625000
vn -0.2588 0.9659 0.0000
vn -0.9659 -0.2588 -0.0000
vn 0.1309 0.9914 0.0000
vn 0.0000 -1.0000 -0.0000
vn 0.2588 -0.9659 -0.0000
vn 0.0000 -0.0000 1.0000
vn 0.0000 0.0000 -1.0000
vn 0.0000 1.0000 0.0000
vn 0.2588 0.9659 0.0000
vn 0.9659 -0.2588 -0.0000
vn -0.1305 0.9914 0.0000
vn -0.2590 -0.9659 -0.0000
usemtl m_big_arch
s 1
f 1/1/1 2/2/1 3/3/1 4/4/1
f 1/5/2 5/6/2 6/7/2 2/8/2
f 10/9/3 9/10/3 14/11/3 13/12/3
f 17/13/4 18/14/4 19/15/4 20/16/4
f 6/17/5 5/18/5 18/19/5 17/20/5
f 2/21/6 6/22/6 17/23/6 3/24/6
f 8/25/6 17/26/6 20/27/6 9/28/6
f 12/29/7 16/30/7 19/31/7 13/32/7
f 9/33/6 20/34/6 14/35/6
f 17/36/6 8/37/6 3/38/6
usemtl m_arch
f 7/39/8 8/40/8 9/41/8 10/42/8
f 11/43/9 12/44/9 13/45/9 14/46/9
f 11/47/10 15/48/10 16/49/10 12/50/10
f 3/51/11 8/52/11 7/53/11 4/54/11
f 16/49/12 15/48/12 20/55/12 19/56/12
f 5/57/7 1/58/7 4/59/7 18/60/7
f 18/61/7 7/62/7 10/63/7 19/64/7
f 15/48/6 11/65/6 14/66/6 20/55/6
f 7/67/7 18/68/7 4/69/7
f 19/70/7 10/71/7 13/72/7
