# Blender v3.2.2 OBJ File: ''
# www.blender.org
mtllib smooth_arch.mtl
o cube.006
v 0.030247 1.403790 1.003329
v 0.088746 1.391622 1.003329
v 0.088746 1.391622 -0.004519
v 0.030247 1.403790 -0.004519
v 1.056563 0.980808 1.003329
v 1.056563 0.980808 -0.004519
v 0.787304 1.139414 -0.004519
v 0.787304 1.139414 1.003329
v 1.352206 0.754786 1.003329
v 1.352206 0.754786 -0.004519
v 1.105952 0.947180 -0.004519
v 1.105952 0.947180 1.003329
v 1.070979 0.394833 -0.004519
v 1.070979 0.394833 1.003329
v 0.733948 1.166307 1.003329
v 0.733948 1.166308 -0.004519
v 0.446290 1.288411 -0.004519
v 0.446290 1.288411 1.003329
v 0.389880 1.308110 1.003329
v 0.389880 1.308110 -0.004519
v -0.033325 0.951448 -0.004519
v -0.033325 0.951448 1.003329
v 0.824726 0.587227 -0.004519
v 0.824726 0.587227 1.003329
v 0.555467 0.745833 1.003329
v 0.555467 0.745833 -0.004519
v 0.267809 0.867936 1.003329
v 0.267809 0.867936 -0.004519
vt 0.968723 0.000000
vt 0.906250 0.000000
vt 0.906250 0.999977
vt 0.968750 1.000000
vt 0.000000 1.000000
vt 0.000000 0.000000
vt 0.312500 0.000000
vt 0.312500 1.000000
vt 0.000000 0.000000
vt 0.499999 0.000000
vt 0.500000 0.999999
vt 0.000000 1.000000
vt 0.593750 0.000000
vt 0.593750 1.000000
vt 0.500000 1.000000
vt 0.999999 1.000000
vt 1.000000 0.000000
vt 0.500000 0.000000
vt 0.374999 0.000000
vt 0.375000 1.000000
vt 0.500000 0.000000
vt 0.500000 1.000000
vt 0.187500 1.000000
vt 0.187500 0.000000
vt 1.000000 0.000000
vt 1.000000 1.000000
vt 0.687500 1.000000
vt 0.687500 0.000000
vt 0.625000 0.437500
vt 0.625000 0.000000
vt 0.937500 0.000000
vt 0.937500 0.437500
vt 0.125000 0.437500
vt 0.125000 0.000000
vt 0.437500 0.000000
vt 0.437500 0.437500
vt 0.500000 0.000000
vt 0.500000 0.437500
vt 0.187500 0.437500
vt 0.187500 0.000000
vt 1.000000 0.000000
vt 1.000000 0.437500
vt 0.687500 0.437500
vt 0.687500 0.000000
vt 0.585938 0.000000
vt 0.625000 0.437500
vt 0.562500 0.437500
vt 0.148438 0.000000
vt 0.125000 0.437500
vt 0.476562 0.000000
vt 0.500000 0.437500
vt 0.976562 0.000000
vt 1.000000 0.437484
vt 0.593750 0.000000
vt 0.593750 1.000000
vt 0.906250 1.000000
vt 0.906250 0.000003
vt 0.375000 1.000000
vt 0.375000 0.000000
vt 0.062500 0.000000
vt 0.062500 1.000000
vt 0.000000 0.000000
vt 0.000000 0.999977
vt 0.906277 1.000000
vt 0.968750 1.000000
vt 0.968750 0.000023
vt 0.968750 1.000000
vt 0.968750 0.000000
vt 0.656250 0.000000
vt 0.656250 1.000000
vt 0.468750 1.000000
vt 0.468750 0.000000
vt 0.156250 0.000000
vt 0.156250 1.000000
vt 0.968750 0.437500
vt 0.656250 0.437500
vt 0.468750 0.000000
vt 0.468750 0.437500
vt 0.156250 0.437500
vt 0.156250 0.000000
vt 0.093750 0.437500
vt 0.093750 0.000000
vt 0.406250 0.000000
vt 0.406250 0.437500
vt 0.875000 0.437500
vt 0.875000 0.000000
vt 0.562500 0.000000
vt 0.562500 0.437500
vt 0.554688 0.000000
vt 0.593750 0.437500
vt 0.531250 0.437500
vt 0.093750 0.437500
vt 0.117188 0.000000
vt 0.429688 0.000000
vt 0.468750 0.437500
vt 0.523438 0.000000
vt 0.500000 0.437484
vn 0.2036 0.9790 0.0000
vn 0.6157 0.7880 0.0000
vn 0.7880 -0.6157 -0.0000
vn 0.2672 0.9636 0.0000
vn 0.9903 -0.1392 -0.0000
vn 0.5628 0.8266 0.0000
vn -0.6157 -0.7880 -0.0000
vn -0.2672 -0.9636 -0.0000
vn -0.0000 0.0000 -1.0000
vn 0.0000 -0.0000 1.0000
vn 0.5075 0.8616 0.0000
vn 0.3907 0.9205 0.0000
vn 0.3297 0.9441 0.0000
vn 0.4501 0.8930 0.0000
vn -0.5075 -0.8616 -0.0000
vn -0.3907 -0.9205 -0.0000
usemtl m_big_arch
s 1
f 1/1/1 2/2/1 3/3/1 4/4/1
f 9/5/2 10/6/2 11/7/2 12/8/2
f 13/9/3 10/10/3 9/11/3 14/12/3
f 19/13/4 20/14/4 3/3/4 2/2/4
f 21/15/5 4/16/5 1/17/5 22/18/5
f 6/19/6 5/20/6 12/8/6 11/7/6
f 13/21/7 14/22/7 24/23/7 23/24/7
f 28/25/8 27/26/8 22/27/8 21/28/8
f 6/29/9 23/30/9 26/31/9 7/32/9
f 10/33/9 13/34/9 23/35/9 11/36/9
f 25/37/10 15/38/10 18/39/10 27/40/10
f 27/41/10 19/42/10 2/43/10 22/44/10
f 22/45/10 2/46/10 1/47/10
f 27/48/10 18/39/10 19/49/10
f 23/50/9 6/51/9 11/36/9
f 7/32/9 26/52/9 16/53/9
usemtl m_arch
f 5/54/11 6/55/11 7/56/11 8/57/11
f 15/58/12 16/59/12 17/60/12 18/61/12
f 17/60/13 20/62/13 19/63/13 18/61/13
f 7/64/14 16/65/14 15/66/14 8/57/14
f 23/67/15 24/68/15 25/69/15 26/70/15
f 26/71/16 25/72/16 27/73/16 28/74/16
f 24/68/10 5/75/10 8/76/10 25/69/10
f 14/77/10 9/78/10 12/79/10 24/80/10
f 16/81/9 26/82/9 28/83/9 17/84/9
f 20/85/9 28/86/9 21/87/9 3/88/9
f 25/89/10 8/90/10 15/91/10
f 5/92/10 24/93/10 12/79/10
f 17/84/9 28/94/9 20/95/9
f 3/88/9 21/96/9 4/97/9
