# Blender 4.2.2 LTS
# www.blender.org
mtllib xone_broom_short.mtl
o bristle_1
v 0.911152 0.880816 0.159772
v 0.911152 0.880816 0.159772
v 0.911152 0.087797 0.529563
v 0.911152 0.087797 0.529563
v 0.557598 0.731398 -0.160657
v 0.557598 0.731398 -0.160657
v 0.557598 -0.061621 0.209134
v 0.557598 -0.061621 0.209134
vn 0.7071 -0.2988 -0.6409
vn -0.7071 0.2988 0.6409
vt 0.500000 0.000000
vt 1.000000 0.000000
vt 1.000000 0.875000
vt 0.500000 0.875000
s 0
usemtl m_broom1
f 4/1/1 7/2/1 5/3/1 2/4/1
f 8/2/2 3/1/2 1/4/2 6/3/2
o bristle_2
v 0.911152 0.731398 -0.160657
v 0.911152 0.731398 -0.160657
v 0.911152 -0.061621 0.209134
v 0.911152 -0.061621 0.209134
v 0.557598 0.880816 0.159772
v 0.557598 0.880816 0.159772
v 0.557598 0.087797 0.529563
v 0.557598 0.087797 0.529563
vn -0.7071 -0.2988 -0.6409
vn 0.7071 0.2988 0.6409
vt 0.000000 0.000000
vt 0.500000 0.000000
vt 0.500000 0.875000
vt 0.000000 0.875000
s 0
usemtl m_broom1
f 12/5/3 15/6/3 13/7/3 10/8/3
f 16/6/4 11/5/4 9/8/4 14/7/4
o bristle_2.001
v 0.609558 0.865777 0.230512
v 0.609558 0.865777 0.230512
v 0.541458 0.031275 0.484664
v 0.541458 0.031275 0.484664
v 0.355323 0.759462 -0.186695
v 0.355323 0.759462 -0.186695
v 0.287223 -0.075040 0.067457
v 0.287223 -0.075040 0.067457
vn 0.8576 -0.2126 -0.4684
vn -0.8576 0.2126 0.4684
vt 0.500000 0.000000
vt 1.000000 0.000000
vt 1.000000 0.875000
vt 0.500000 0.875000
s 0
usemtl m_broom2
f 20/9/5 23/10/5 21/11/5 18/12/5
f 24/10/6 19/9/6 17/12/6 22/11/6
o bristle_3
v 0.696829 0.759462 -0.095188
v 0.696829 0.759462 -0.095188
v 0.628730 -0.075040 0.158964
v 0.628730 -0.075040 0.158964
v 0.268052 0.865777 0.139006
v 0.268052 0.865777 0.139006
v 0.199952 0.031275 0.393158
v 0.199952 0.031275 0.393158
vn -0.5085 -0.2126 -0.8344
vn 0.5085 0.2126 0.8344
vt 0.000000 0.000000
vt 0.500000 0.000000
vt 0.500000 0.875000
vt 0.000000 0.875000
s 0
usemtl m_broom2
f 28/13/7 31/14/7 29/15/7 26/16/7
f 32/14/8 27/13/8 25/16/8 30/15/8
o stick
v 0.781250 0.790992 0.041086
v 0.781250 0.764578 -0.015558
v 0.781250 0.026295 0.397671
v 0.781250 -0.000119 0.341026
v 0.718750 0.764578 -0.015558
v 0.718750 0.790992 0.041086
v 0.718750 -0.000119 0.341026
v 0.718750 0.026295 0.397671
vn -0.0000 -0.4226 -0.9063
vn 1.0000 -0.0000 -0.0000
vn -0.0000 0.4226 0.9063
vn -1.0000 -0.0000 -0.0000
vn -0.0000 0.9063 -0.4226
vt 0.218750 0.000000
vt 0.281250 0.000000
vt 0.281250 0.843750
vt 0.218750 0.843750
vt 0.000000 0.937500
vt 0.062500 0.937500
vt 0.062500 1.000000
vt 0.000000 1.000000
s 0
usemtl m_broom1
f 36/17/9 39/18/9 37/19/9 34/20/9
f 35/17/10 36/18/10 34/19/10 33/20/10
f 40/17/11 35/18/11 33/19/11 38/20/11
f 39/17/12 40/18/12 38/19/12 37/20/12
f 38/21/13 33/22/13 34/23/13 37/24/13
o stick.001
v 0.517573 0.792213 0.071906
v 0.533000 0.773419 0.014329
v 0.451905 -0.012486 0.316981
v 0.467332 -0.031280 0.259405
v 0.472630 0.773419 -0.001847
v 0.457202 0.792213 0.055730
v 0.406962 -0.031280 0.243229
v 0.391535 -0.012486 0.300805
vn 0.2468 -0.3007 -0.9212
vn 0.9659 -0.0000 0.2588
vn -0.2468 0.3007 0.9212
vn -0.9659 -0.0000 -0.2588
vn 0.0778 0.9537 -0.2905
vt 0.218750 0.000000
vt 0.281250 0.000000
vt 0.281250 0.843750
vt 0.218750 0.843750
vt 0.000000 0.937500
vt 0.062500 0.937500
vt 0.062500 1.000000
vt 0.000000 1.000000
s 0
usemtl m_broom2
f 44/25/14 47/26/14 45/27/14 42/28/14
f 43/25/15 44/26/15 42/27/15 41/28/15
f 48/25/16 43/26/16 41/27/16 46/28/16
f 47/25/17 48/26/17 46/27/17 45/28/17
f 46/29/18 41/30/18 42/31/18 45/32/18
