# Blender 4.2.2 LTS
# www.blender.org
mtllib xone_broom_short.mtl
o bristle_1
v 0.657837 1.030928 0.675154
v 0.657837 1.030928 0.675154
v 0.657837 0.155928 0.675154
v 0.657837 0.155928 0.675154
v 0.304284 1.030928 0.321601
v 0.304284 1.030928 0.321601
v 0.304284 0.155928 0.321601
v 0.304284 0.155928 0.321601
vn 0.7071 -0.0000 -0.7071
vn -0.7071 -0.0000 0.7071
vt 0.500000 0.000000
vt 1.000000 0.000000
vt 1.000000 0.875000
vt 0.500000 0.875000
s 0
usemtl m_broom1
f 4/1/1 7/2/1 5/3/1 2/4/1
f 8/2/2 3/1/2 1/4/2 6/3/2
o bristle_2
v 0.664466 1.030928 0.321601
v 0.664466 1.030928 0.321601
v 0.664466 0.155928 0.321601
v 0.664466 0.155928 0.321601
v 0.310913 1.030928 0.675154
v 0.310913 1.030928 0.675154
v 0.310913 0.155928 0.675154
v 0.310913 0.155928 0.675154
vn -0.7071 -0.0000 -0.7071
vn 0.7071 -0.0000 0.7071
vt 0.000000 0.000000
vt 0.500000 0.000000
vt 0.500000 0.875000
vt 0.000000 0.875000
s 0
usemtl m_broom1
f 12/5/3 15/6/3 13/7/3 10/8/3
f 16/6/4 11/5/4 9/8/4 14/7/4
o stick
v 0.531250 0.999678 0.531001
v 0.531250 0.999678 0.468501
v 0.531250 0.155928 0.531001
v 0.531250 0.155928 0.468501
v 0.468750 0.999678 0.468501
v 0.468750 0.999678 0.531001
v 0.468750 0.155928 0.468501
v 0.468750 0.155928 0.531001
vn -0.0000 -0.0000 -1.0000
vn 1.0000 -0.0000 -0.0000
vn -0.0000 -0.0000 1.0000
vn -1.0000 -0.0000 -0.0000
vn -0.0000 1.0000 -0.0000
vt 0.218750 0.000000
vt 0.281250 0.000000
vt 0.281250 0.843750
vt 0.218750 0.843750
vt 0.000000 0.937500
vt 0.062500 0.937500
vt 0.062500 1.000000
vt 0.000000 1.000000
s 0
usemtl m_broom1
f 20/9/5 23/10/5 21/11/5 18/12/5
f 19/9/6 20/10/6 18/11/6 17/12/6
f 24/9/7 19/10/7 17/11/7 22/12/7
f 23/9/8 24/10/8 22/11/8 21/12/8
f 22/13/9 17/14/9 18/15/9 21/16/9
