# Blender 4.2.2 LTS
# www.blender.org
mtllib xone_broom_short.mtl
o bristle_1
v 0.657837 1.030928 0.675154
v 0.657837 1.030928 0.675154
v 0.657837 0.155928 0.675154
v 0.657837 0.155928 0.675154
v 0.304284 1.030928 0.321601
v 0.304284 1.030928 0.321601
v 0.304284 0.155928 0.321601
v 0.304284 0.155928 0.321601
vn 0.7071 -0.0000 -0.7071
vn -0.7071 -0.0000 0.7071
vt 0.500000 0.000000
vt 1.000000 0.000000
vt 1.000000 0.875000
vt 0.500000 0.875000
s 0
usemtl m_broom2
f 4/1/1 7/2/1 5/3/1 2/4/1
f 8/2/2 3/1/2 1/4/2 6/3/2
o bristle_2
v 0.664466 1.030928 0.321601
v 0.664466 1.030928 0.321601
v 0.664466 0.155928 0.321601
v 0.664466 0.155928 0.321601
v 0.310913 1.030928 0.675154
v 0.310913 1.030928 0.675154
v 0.310913 0.155928 0.675154
v 0.310913 0.155928 0.675154
vn -0.7071 -0.0000 -0.7071
vn 0.7071 -0.0000 0.7071
vt 0.000000 0.000000
vt 0.500000 0.000000
vt 0.500000 0.875000
vt 0.000000 0.875000
s 0
usemtl m_broom2
f 12/5/3 15/6/3 13/7/3 10/8/3
f 16/6/4 11/5/4 9/8/4 14/7/4
o bristle_2.001
v 0.220692 1.030928 0.725532
v 0.220692 1.030928 0.725532
v 0.220692 0.155928 0.725532
v 0.220692 0.155928 0.725532
v 0.133868 1.030928 0.233129
v 0.133868 1.030928 0.233129
v 0.133868 0.155928 0.233129
v 0.133868 0.155928 0.233129
vn 0.9848 -0.0000 -0.1736
vn -0.9848 -0.0000 0.1736
vt 0.500000 0.000000
vt 1.000000 0.000000
vt 1.000000 0.875000
vt 0.500000 0.875000
s 0
usemtl m_broom2
f 20/9/5 23/10/5 21/11/5 18/12/5
usemtl m_broom3
f 24/10/6 19/9/6 17/12/6 22/11/6
o bristle_3
v 0.428912 1.030928 0.439721
v 0.428912 1.030928 0.439721
v 0.428912 0.155928 0.439721
v 0.428912 0.155928 0.439721
v -0.063492 1.030928 0.526545
v -0.063492 1.030928 0.526545
v -0.063492 0.155928 0.526545
v -0.063492 0.155928 0.526545
vn -0.1736 -0.0000 -0.9848
vn 0.1736 -0.0000 0.9848
vt 0.000000 0.000000
vt 0.500000 0.000000
vt 0.500000 0.875000
vt 0.000000 0.875000
s 0
usemtl m_broom2
f 28/13/7 31/14/7 29/15/7 26/16/7
usemtl m_broom3
f 32/14/8 27/13/8 25/16/8 30/15/8
o bristle_3.001
v 0.871706 1.030928 0.688935
v 0.871706 1.030928 0.688935
v 0.871706 0.155928 0.688935
v 0.871706 0.155928 0.688935
v 0.567325 1.030928 0.292258
v 0.567325 1.030928 0.292258
v 0.567325 0.155928 0.292258
v 0.567325 0.155928 0.292258
vn 0.7934 -0.0000 -0.6088
vn -0.7934 -0.0000 0.6088
vt 0.500000 0.000000
vt 1.000000 0.000000
vt 1.000000 0.875000
vt 0.500000 0.875000
s 0
usemtl m_broom1
f 36/17/9 39/18/9 37/19/9 34/20/9
f 40/18/10 35/17/10 33/20/10 38/19/10
o bristle_4
v 0.889848 1.030928 0.299296
v 0.889848 1.030928 0.299296
v 0.889848 0.155928 0.299296
v 0.889848 0.155928 0.299296
v 0.568455 1.030928 0.682318
v 0.568455 1.030928 0.682318
v 0.568455 0.155928 0.682318
v 0.568455 0.155928 0.682318
vn -0.7660 -0.0000 -0.6428
vn 0.7660 -0.0000 0.6428
vt 0.000000 0.000000
vt 0.500000 0.000000
vt 0.500000 0.875000
vt 0.000000 0.875000
s 0
usemtl m_broom1
f 44/21/11 47/22/11 45/23/11 42/24/11
f 48/22/12 43/21/12 41/24/12 46/23/12
o stick
v 0.531250 0.999678 0.531001
v 0.531250 0.999678 0.468501
v 0.531250 0.155928 0.531001
v 0.531250 0.155928 0.468501
v 0.468750 0.999678 0.468501
v 0.468750 0.999678 0.531001
v 0.468750 0.155928 0.468501
v 0.468750 0.155928 0.531001
vn -0.0000 -0.0000 -1.0000
vn 1.0000 -0.0000 -0.0000
vn -0.0000 -0.0000 1.0000
vn -1.0000 -0.0000 -0.0000
vn -0.0000 1.0000 -0.0000
vt 0.218750 0.000000
vt 0.281250 0.000000
vt 0.281250 0.843750
vt 0.218750 0.843750
vt 0.000000 0.937500
vt 0.062500 0.937500
vt 0.062500 1.000000
vt 0.000000 1.000000
s 0
usemtl m_broom2
f 52/25/13 55/26/13 53/27/13 50/28/13
f 51/25/14 52/26/14 50/27/14 49/28/14
f 56/25/15 51/26/15 49/27/15 54/28/15
f 55/25/16 56/26/16 54/27/16 53/28/16
f 54/29/17 49/30/17 50/31/17 53/32/17
o stick.001
v 0.199681 0.999678 0.534841
v 0.235529 0.999678 0.483644
v 0.199681 0.155928 0.534841
v 0.235529 0.155928 0.483644
v 0.184332 0.999678 0.447796
v 0.148484 0.999678 0.498993
v 0.184332 0.155928 0.447796
v 0.148484 0.155928 0.498993
vn 0.5736 -0.0000 -0.8192
vn 0.8192 -0.0000 0.5736
vn -0.5736 -0.0000 0.8192
vn -0.8192 -0.0000 -0.5736
vn -0.0000 1.0000 -0.0000
vt 0.218750 0.000000
vt 0.281250 0.000000
vt 0.281250 0.843750
vt 0.218750 0.843750
vt 0.000000 0.937500
vt 0.062500 0.937500
vt 0.062500 1.000000
vt 0.000000 1.000000
s 0
usemtl m_broom3
f 60/33/18 63/34/18 61/35/18 58/36/18
f 59/33/19 60/34/19 58/35/19 57/36/19
f 64/33/20 59/34/20 57/35/20 62/36/20
f 63/33/21 64/34/21 62/35/21 61/36/21
f 62/37/22 57/38/22 58/39/22 61/40/22
o stick.002
v 0.752730 0.999678 0.536992
v 0.774107 0.999678 0.478261
v 0.752730 0.155928 0.536992
v 0.774107 0.155928 0.478262
v 0.715376 0.999678 0.456885
v 0.694000 0.999678 0.515616
v 0.715376 0.155928 0.456885
v 0.694000 0.155928 0.515616
vn 0.3420 -0.0000 -0.9397
vn 0.9397 -0.0000 0.3420
vn -0.3420 -0.0000 0.9397
vn -0.9397 -0.0000 -0.3420
vn -0.0000 1.0000 -0.0000
vt 0.218750 0.000000
vt 0.281250 0.000000
vt 0.281250 0.843750
vt 0.218750 0.843750
vt 0.000000 0.937500
vt 0.062500 0.937500
vt 0.062500 1.000000
vt 0.000000 1.000000
s 0
usemtl m_broom1
f 68/41/23 71/42/23 69/43/23 66/44/23
f 67/41/24 68/42/24 66/43/24 65/44/24
f 72/41/25 67/42/25 65/43/25 70/44/25
f 71/41/26 72/42/26 70/43/26 69/44/26
f 70/45/27 65/46/27 66/47/27 69/48/27
