# Blender 4.2.2 LTS
# www.blender.org
mtllib xone_broom_short.mtl
o bristle_1
v 0.661152 0.880816 0.159772
v 0.661152 0.880816 0.159772
v 0.661152 0.087797 0.529563
v 0.661152 0.087797 0.529563
v 0.307598 0.731398 -0.160657
v 0.307598 0.731398 -0.160657
v 0.307598 -0.061621 0.209134
v 0.307598 -0.061621 0.209134
vn 0.7071 -0.2988 -0.6409
vn -0.7071 0.2988 0.6409
vt 0.500000 0.000000
vt 1.000000 0.000000
vt 1.000000 0.875000
vt 0.500000 0.875000
s 0
usemtl m_broom1
f 4/1/1 7/2/1 5/3/1 2/4/1
f 8/2/2 3/1/2 1/4/2 6/3/2
o bristle_2
v 0.661152 0.731398 -0.160657
v 0.661152 0.731398 -0.160657
v 0.661152 -0.061621 0.209134
v 0.661152 -0.061621 0.209134
v 0.307598 0.880816 0.159772
v 0.307598 0.880816 0.159772
v 0.307598 0.087797 0.529563
v 0.307598 0.087797 0.529563
vn -0.7071 -0.2988 -0.6409
vn 0.7071 0.2988 0.6409
vt 0.000000 0.000000
vt 0.500000 0.000000
vt 0.500000 0.875000
vt 0.000000 0.875000
s 0
usemtl m_broom1
f 12/5/3 15/6/3 13/7/3 10/8/3
f 16/6/4 11/5/4 9/8/4 14/7/4
o stick
v 0.531250 0.790992 0.041086
v 0.531250 0.764578 -0.015558
v 0.531250 0.026295 0.397671
v 0.531250 -0.000119 0.341026
v 0.468750 0.764578 -0.015558
v 0.468750 0.790992 0.041086
v 0.468750 -0.000119 0.341026
v 0.468750 0.026295 0.397671
vn -0.0000 -0.4226 -0.9063
vn 1.0000 -0.0000 -0.0000
vn -0.0000 0.4226 0.9063
vn -1.0000 -0.0000 -0.0000
vn -0.0000 0.9063 -0.4226
vt 0.218750 0.000000
vt 0.281250 0.000000
vt 0.281250 0.843750
vt 0.218750 0.843750
vt 0.000000 0.937500
vt 0.062500 0.937500
vt 0.062500 1.000000
vt 0.000000 1.000000
s 0
usemtl m_broom1
f 20/9/5 23/10/5 21/11/5 18/12/5
f 19/9/6 20/10/6 18/11/6 17/12/6
f 24/9/7 19/10/7 17/11/7 22/12/7
f 23/9/8 24/10/8 22/11/8 21/12/8
f 22/13/9 17/14/9 18/15/9 21/16/9
