# Blender 4.2.2 LTS
# www.blender.org
mtllib xone_broom_short.mtl
o bristle_1
v 0.716456 1.030928 0.566489
v 0.716456 1.030928 0.566489
v 0.716456 0.155928 0.566490
v 0.716456 0.155928 0.566490
v 0.233493 1.030928 0.437080
v 0.233493 1.030928 0.437080
v 0.233493 0.155928 0.437080
v 0.233493 0.155928 0.437080
vn 0.2588 -0.0000 -0.9659
vn -0.2588 -0.0000 0.9659
vt 0.500000 0.000000
vt 1.000000 0.000000
vt 1.000000 0.875000
vt 0.500000 0.875000
s 0
usemtl m_broom1
f 4/1/1 7/2/1 5/3/1 2/4/1
f 8/2/2 3/1/2 1/4/2 6/3/2
o bristle_2
v 0.545420 1.030928 0.256989
v 0.545420 1.030928 0.256989
v 0.545420 0.155928 0.256989
v 0.545420 0.155928 0.256989
v 0.416010 1.030928 0.739952
v 0.416010 1.030928 0.739952
v 0.416010 0.155928 0.739952
v 0.416010 0.155928 0.739952
vn -0.9659 -0.0000 -0.2588
vn 0.9659 -0.0000 0.2588
vt 0.000000 0.000000
vt 0.500000 0.000000
vt 0.500000 0.875000
vt 0.000000 0.875000
s 0
usemtl m_broom1
f 12/5/3 15/6/3 13/7/3 10/8/3
f 16/6/4 11/5/4 9/8/4 14/7/4
o stick
v 0.534751 0.999678 0.504942
v 0.503501 0.999678 0.450816
v 0.534751 0.155928 0.504942
v 0.503501 0.155928 0.450816
v 0.449375 0.999678 0.482066
v 0.480625 0.999678 0.536192
v 0.449375 0.155928 0.482066
v 0.480625 0.155928 0.536192
vn -0.5000 -0.0000 -0.8660
vn 0.8660 -0.0000 -0.5000
vn 0.5000 -0.0000 0.8660
vn -0.8660 -0.0000 0.5000
vn -0.0000 1.0000 -0.0000
vt 0.218750 0.000000
vt 0.281250 0.000000
vt 0.281250 0.843750
vt 0.218750 0.843750
vt 0.000000 0.937500
vt 0.062500 0.937500
vt 0.062500 1.000000
vt 0.000000 1.000000
s 0
usemtl m_broom1
f 20/9/5 23/10/5 21/11/5 18/12/5
f 19/9/6 20/10/6 18/11/6 17/12/6
f 24/9/7 19/10/7 17/11/7 22/12/7
f 23/9/8 24/10/8 22/11/8 21/12/8
f 22/13/9 17/14/9 18/15/9 21/16/9
