# Blender 4.2.2 LTS
# www.blender.org
mtllib xone_broom_short.mtl
o bristle_1
v 0.709924 1.030928 0.626738
v 0.709924 1.030928 0.626738
v 0.709924 0.155928 0.626738
v 0.709924 0.155928 0.626738
v 0.276912 1.030928 0.376738
v 0.276912 1.030928 0.376738
v 0.276912 0.155928 0.376738
v 0.276912 0.155928 0.376738
vn 0.5000 -0.0000 -0.8660
vn -0.5000 -0.0000 0.8660
vt 0.500000 0.000000
vt 1.000000 0.000000
vt 1.000000 0.875000
vt 0.500000 0.875000
s 0
usemtl m_broom2
f 4/1/1 7/2/1 5/3/1 2/4/1
f 8/2/2 3/1/2 1/4/2 6/3/2
o bristle_2
v 0.624821 1.030928 0.283515
v 0.624821 1.030928 0.283515
v 0.624821 0.155928 0.283516
v 0.624821 0.155928 0.283516
v 0.374821 1.030928 0.716528
v 0.374821 1.030928 0.716528
v 0.374821 0.155928 0.716528
v 0.374821 0.155928 0.716528
vn -0.8660 -0.0000 -0.5000
vn 0.8660 -0.0000 0.5000
vt 0.000000 0.000000
vt 0.500000 0.000000
vt 0.500000 0.875000
vt 0.000000 0.875000
s 0
usemtl m_broom2
f 12/5/3 15/6/3 13/7/3 10/8/3
f 16/6/4 11/5/4 9/8/4 14/7/4
o bristle_3
v 0.415460 1.030928 0.634911
v 0.415460 1.030928 0.634911
v 0.415460 0.155928 0.634911
v 0.415460 0.155928 0.634911
v 0.018783 1.030928 0.330530
v 0.018783 1.030928 0.330530
v 0.018783 0.155928 0.330531
v 0.018783 0.155928 0.330531
vn 0.6088 -0.0000 -0.7934
vn -0.6088 -0.0000 0.7934
vt 0.500000 0.000000
vt 1.000000 0.000000
vt 1.000000 0.875000
vt 0.500000 0.875000
s 0
usemtl m_broom1
f 20/9/5 23/10/5 21/11/5 18/12/5
f 24/10/6 19/9/6 17/12/6 22/11/6
o bristle_4
v 0.359172 1.030928 0.270511
v 0.359172 1.030928 0.270511
v 0.359172 0.155928 0.270511
v 0.359172 0.155928 0.270511
v 0.090522 1.030928 0.692207
v 0.090522 1.030928 0.692207
v 0.090522 0.155928 0.692207
v 0.090522 0.155928 0.692207
vn -0.8434 -0.0000 -0.5373
vn 0.8434 -0.0000 0.5373
vt 0.000000 0.000000
vt 0.500000 0.000000
vt 0.500000 0.875000
vt 0.000000 0.875000
s 0
usemtl m_broom1
f 28/13/7 31/14/7 29/15/7 26/16/7
f 32/14/8 27/13/8 25/16/8 30/15/8
o stick
v 0.550341 0.999678 0.520259
v 0.534165 0.999678 0.459889
v 0.550341 0.155928 0.520259
v 0.534165 0.155928 0.459889
v 0.473794 0.999678 0.476065
v 0.489971 0.999678 0.536435
v 0.473794 0.155928 0.476065
v 0.489971 0.155928 0.536435
vn -0.2588 -0.0000 -0.9659
vn 0.9659 -0.0000 -0.2588
vn 0.2588 -0.0000 0.9659
vn -0.9659 -0.0000 0.2588
vn -0.0000 1.0000 -0.0000
vt 0.218750 0.000000
vt 0.281250 0.000000
vt 0.281250 0.843750
vt 0.218750 0.843750
vt 0.000000 0.937500
vt 0.062500 0.937500
vt 0.062500 1.000000
vt 0.000000 1.000000
s 0
usemtl m_broom2
f 36/17/9 39/18/9 37/19/9 34/20/9
f 35/17/10 36/18/10 34/19/10 33/20/10
f 40/17/11 35/18/11 33/19/11 38/20/11
f 39/17/12 40/18/12 38/19/12 37/20/12
f 38/21/13 33/22/13 34/23/13 37/24/13
o stick.001
v 0.227385 0.999678 0.533932
v 0.265432 0.999678 0.484347
v 0.227385 0.155928 0.533932
v 0.265432 0.155928 0.484347
v 0.215848 0.999678 0.446299
v 0.177800 0.999678 0.495884
v 0.215848 0.155928 0.446300
v 0.177800 0.155928 0.495884
vn 0.6088 -0.0000 -0.7934
vn 0.7934 -0.0000 0.6088
vn -0.6088 -0.0000 0.7934
vn -0.7934 -0.0000 -0.6088
vn -0.0000 1.0000 -0.0000
vt 0.218750 0.000000
vt 0.281250 0.000000
vt 0.281250 0.843750
vt 0.218750 0.843750
vt 0.000000 0.937500
vt 0.062500 0.937500
vt 0.062500 1.000000
vt 0.000000 1.000000
s 0
usemtl m_broom1
f 44/25/14 47/26/14 45/27/14 42/28/14
f 43/25/15 44/26/15 42/27/15 41/28/15
f 48/25/16 43/26/16 41/27/16 46/28/16
f 47/25/17 48/26/17 46/27/17 45/28/17
f 46/29/18 41/30/18 42/31/18 45/32/18
